<svg width="4301px" height="827px"
 viewBox="0.00 0.00 3225.50 620.00" xmlns="http://www.w3.org/2000/svg" xmlns:xlink="http://www.w3.org/1999/xlink">
<g id="graph0" class="graph" transform="scale(1.000022500562514 1.000022500562514) rotate(0) translate(4 616)">
<title>G</title>
<polygon fill="white" stroke="none" points="-4,4 -4,-616 3221.5,-616 3221.5,4 -4,4"/>
<!-- 145 -->
<g id="node1" class="node"><title>145</title>
<ellipse fill="none" stroke="black" cx="162" cy="-594" rx="27" ry="18"/>
<text text-anchor="middle" x="162" y="-590.3" font-family="Times New Roman,serif" font-size="14.00">145</text>
</g>
<!-- 146 -->
<g id="node2" class="node"><title>146</title>
<ellipse fill="none" stroke="black" cx="190" cy="-522" rx="27" ry="18"/>
<text text-anchor="middle" x="190" y="-518.3" font-family="Times New Roman,serif" font-size="14.00">146</text>
</g>
<!-- 145&#45;&#45;146 -->
<g id="edge1" class="edge"><title>145&#45;&#45;146</title>
<path fill="none" stroke="black" d="M168.636,-576.411C173.099,-565.252 178.959,-550.604 183.412,-539.47"/>
</g>
<!-- 148 -->
<g id="node3" class="node"><title>148</title>
<ellipse fill="none" stroke="black" cx="97" cy="-450" rx="27" ry="18"/>
<text text-anchor="middle" x="97" y="-446.3" font-family="Times New Roman,serif" font-size="14.00">148</text>
</g>
<!-- 145&#45;&#45;148 -->
<g id="edge2" class="edge"><title>145&#45;&#45;148</title>
<path fill="none" stroke="black" d="M154.416,-576.433C141.892,-549.071 117.028,-494.754 104.535,-467.462"/>
</g>
<!-- 150 -->
<g id="node4" class="node"><title>150</title>
<ellipse fill="none" stroke="black" cx="245" cy="-378" rx="27" ry="18"/>
<text text-anchor="middle" x="245" y="-374.3" font-family="Times New Roman,serif" font-size="14.00">150</text>
</g>
<!-- 145&#45;&#45;150 -->
<g id="edge3" class="edge"><title>145&#45;&#45;150</title>
<path fill="none" stroke="black" d="M182.33,-581.921C197.062,-572.736 216.071,-558.248 226,-540 251.558,-493.027 249.644,-427.094 246.959,-396.219"/>
</g>
<!-- 152 -->
<g id="node5" class="node"><title>152</title>
<ellipse fill="none" stroke="black" cx="131" cy="-306" rx="27" ry="18"/>
<text text-anchor="middle" x="131" y="-302.3" font-family="Times New Roman,serif" font-size="14.00">152</text>
</g>
<!-- 145&#45;&#45;152 -->
<g id="edge4" class="edge"><title>145&#45;&#45;152</title>
<path fill="none" stroke="black" d="M145.346,-579.381C121.212,-558.433 77.594,-515.695 61,-468 41.6703,-412.442 91.2724,-349.147 116.857,-321.358"/>
</g>
<!-- 154 -->
<g id="node6" class="node"><title>154</title>
<ellipse fill="none" stroke="black" cx="158" cy="-234" rx="27" ry="18"/>
<text text-anchor="middle" x="158" y="-230.3" font-family="Times New Roman,serif" font-size="14.00">154</text>
</g>
<!-- 145&#45;&#45;154 -->
<g id="edge5" class="edge"><title>145&#45;&#45;154</title>
<path fill="none" stroke="black" d="M138.444,-584.947C93.5135,-567.92 0,-523.743 0,-451 0,-451 0,-451 0,-377 0,-305.451 90.7362,-260.796 134.687,-243.363"/>
</g>
<!-- 5328 -->
<g id="node8" class="node"><title>5328</title>
<ellipse fill="none" stroke="black" cx="319" cy="-306" rx="28.6953" ry="18"/>
<text text-anchor="middle" x="319" y="-302.3" font-family="Times New Roman,serif" font-size="14.00">5328</text>
</g>
<!-- 145&#45;&#45;5328 -->
<g id="edge6" class="edge"><title>145&#45;&#45;5328</title>
<path fill="none" stroke="black" d="M184.68,-583.744C203.631,-574.983 230.182,-560.168 247,-540 302.181,-473.83 315.13,-365.627 318.12,-324.03"/>
</g>
<!-- 146&#45;&#45;148 -->
<g id="edge7" class="edge"><title>146&#45;&#45;148</title>
<path fill="none" stroke="black" d="M172.507,-507.834C155.88,-495.319 131.015,-476.603 114.414,-464.107"/>
</g>
<!-- 146&#45;&#45;150 -->
<g id="edge8" class="edge"><title>146&#45;&#45;150</title>
<path fill="none" stroke="black" d="M196.417,-504.433C206.958,-477.217 227.828,-423.334 238.454,-395.902"/>
</g>
<!-- 146&#45;&#45;152 -->
<g id="edge9" class="edge"><title>146&#45;&#45;152</title>
<path fill="none" stroke="black" d="M185.37,-504.208C174.368,-464.302 146.752,-364.134 135.69,-324.01"/>
</g>
<!-- 146&#45;&#45;154 -->
<g id="edge10" class="edge"><title>146&#45;&#45;154</title>
<path fill="none" stroke="black" d="M188.731,-503.997C185.765,-465.463 177.805,-368.575 167,-288 165.387,-275.975 163.092,-262.495 161.223,-252.14"/>
</g>
<!-- 6156 -->
<g id="node7" class="node"><title>6156</title>
<ellipse fill="none" stroke="black" cx="319" cy="-234" rx="28.6953" ry="18"/>
<text text-anchor="middle" x="319" y="-230.3" font-family="Times New Roman,serif" font-size="14.00">6156</text>
</g>
<!-- 146&#45;&#45;6156 -->
<g id="edge12" class="edge"><title>146&#45;&#45;6156</title>
<path fill="none" stroke="black" d="M209.194,-509.007C224.087,-499.131 244.704,-484.165 260,-468 313.036,-411.949 334.462,-397.801 357,-324 361.673,-308.698 361.896,-303.232 357,-288 352.357,-273.556 342.163,-259.712 333.502,-249.797"/>
</g>
<!-- 146&#45;&#45;5328 -->
<g id="edge11" class="edge"><title>146&#45;&#45;5328</title>
<path fill="none" stroke="black" d="M202.428,-505.92C210.95,-495.436 222.405,-481.055 232,-468 254.924,-436.811 262.424,-429.959 281,-396 294.223,-371.827 306.099,-342.1 312.928,-323.856"/>
</g>
<!-- 148&#45;&#45;150 -->
<g id="edge13" class="edge"><title>148&#45;&#45;150</title>
<path fill="none" stroke="black" d="M118.52,-438.821C146.58,-425.55 195.381,-402.468 223.454,-389.191"/>
</g>
<!-- 148&#45;&#45;152 -->
<g id="edge14" class="edge"><title>148&#45;&#45;152</title>
<path fill="none" stroke="black" d="M101.034,-432.153C107.577,-404.824 120.431,-351.14 126.971,-323.825"/>
</g>
<!-- 148&#45;&#45;154 -->
<g id="edge15" class="edge"><title>148&#45;&#45;154</title>
<path fill="none" stroke="black" d="M92.2001,-432.015C84.5438,-401.513 72.5846,-336.15 95,-288 103.687,-269.341 122.534,-254.904 137.363,-245.843"/>
</g>
<!-- 150&#45;&#45;152 -->
<g id="edge16" class="edge"><title>150&#45;&#45;152</title>
<path fill="none" stroke="black" d="M225.661,-365.125C204.698,-352.253 171.434,-331.828 150.433,-318.933"/>
</g>
<!-- 150&#45;&#45;154 -->
<g id="edge17" class="edge"><title>150&#45;&#45;154</title>
<path fill="none" stroke="black" d="M237.82,-360.38C229.639,-342.081 215.395,-312.065 200,-288 191.396,-274.55 180.08,-260.433 171.362,-250.153"/>
</g>
<!-- 150&#45;&#45;6156 -->
<g id="edge18" class="edge"><title>150&#45;&#45;6156</title>
<path fill="none" stroke="black" d="M250.499,-360.057C256.751,-341.737 267.818,-311.946 281,-288 288.316,-274.709 298.385,-260.811 306.32,-250.583"/>
</g>
<!-- 150&#45;&#45;5328 -->
<g id="edge19" class="edge"><title>150&#45;&#45;5328</title>
<path fill="none" stroke="black" d="M259.975,-362.834C272.729,-350.77 290.973,-333.512 303.793,-321.385"/>
</g>
<!-- 152&#45;&#45;154 -->
<g id="edge20" class="edge"><title>152&#45;&#45;154</title>
<path fill="none" stroke="black" d="M137.399,-288.411C141.64,-277.414 147.189,-263.027 151.46,-251.956"/>
</g>
<!-- 5328&#45;&#45;154 -->
<g id="edge21" class="edge"><title>5328&#45;&#45;154</title>
<path fill="none" stroke="black" d="M295.933,-294.971C264.979,-281.512 210.385,-257.776 179.991,-244.561"/>
</g>
<!-- 5328&#45;&#45;6156 -->
<g id="edge22" class="edge"><title>5328&#45;&#45;6156</title>
<path fill="none" stroke="black" d="M319,-287.697C319,-276.846 319,-262.917 319,-252.104"/>
</g>
<!-- 781 -->
<g id="node9" class="node"><title>781</title>
<ellipse fill="none" stroke="black" cx="479" cy="-594" rx="27" ry="18"/>
<text text-anchor="middle" x="479" y="-590.3" font-family="Times New Roman,serif" font-size="14.00">781</text>
</g>
<!-- 782 -->
<g id="node10" class="node"><title>782</title>
<ellipse fill="none" stroke="black" cx="479" cy="-522" rx="27" ry="18"/>
<text text-anchor="middle" x="479" y="-518.3" font-family="Times New Roman,serif" font-size="14.00">782</text>
</g>
<!-- 781&#45;&#45;782 -->
<g id="edge23" class="edge"><title>781&#45;&#45;782</title>
<path fill="none" stroke="black" d="M479,-575.697C479,-564.846 479,-550.917 479,-540.104"/>
</g>
<!-- 784 -->
<g id="node11" class="node"><title>784</title>
<ellipse fill="none" stroke="black" cx="540" cy="-450" rx="27" ry="18"/>
<text text-anchor="middle" x="540" y="-446.3" font-family="Times New Roman,serif" font-size="14.00">784</text>
</g>
<!-- 782&#45;&#45;784 -->
<g id="edge24" class="edge"><title>782&#45;&#45;784</title>
<path fill="none" stroke="black" d="M491.937,-506.155C502.288,-494.276 516.735,-477.697 527.082,-465.824"/>
</g>
<!-- 786 -->
<g id="node13" class="node"><title>786</title>
<ellipse fill="none" stroke="black" cx="548" cy="-306" rx="27" ry="18"/>
<text text-anchor="middle" x="548" y="-302.3" font-family="Times New Roman,serif" font-size="14.00">786</text>
</g>
<!-- 782&#45;&#45;786 -->
<g id="edge25" class="edge"><title>782&#45;&#45;786</title>
<path fill="none" stroke="black" d="M475.169,-503.931C469.204,-473.294 460.646,-407.725 484,-360 493.131,-341.34 512.24,-326.903 527.212,-317.842"/>
</g>
<!-- 788 -->
<g id="node12" class="node"><title>788</title>
<ellipse fill="none" stroke="black" cx="520" cy="-378" rx="27" ry="18"/>
<text text-anchor="middle" x="520" y="-374.3" font-family="Times New Roman,serif" font-size="14.00">788</text>
</g>
<!-- 784&#45;&#45;788 -->
<g id="edge26" class="edge"><title>784&#45;&#45;788</title>
<path fill="none" stroke="black" d="M535.159,-432.055C532.014,-421.049 527.932,-406.764 524.797,-395.789"/>
</g>
<!-- 784&#45;&#45;786 -->
<g id="edge27" class="edge"><title>784&#45;&#45;786</title>
<path fill="none" stroke="black" d="M546.486,-432.104C550.077,-421.835 554.175,-408.361 556,-396 559.671,-371.137 555.492,-342.101 551.929,-324.13"/>
</g>
<!-- 788&#45;&#45;786 -->
<g id="edge28" class="edge"><title>788&#45;&#45;786</title>
<path fill="none" stroke="black" d="M526.636,-360.411C531.099,-349.252 536.959,-334.604 541.412,-323.47"/>
</g>
<!-- 2061 -->
<g id="node14" class="node"><title>2061</title>
<ellipse fill="none" stroke="black" cx="633" cy="-594" rx="28.6953" ry="18"/>
<text text-anchor="middle" x="633" y="-590.3" font-family="Times New Roman,serif" font-size="14.00">2061</text>
</g>
<!-- 2062 -->
<g id="node15" class="node"><title>2062</title>
<ellipse fill="none" stroke="black" cx="633" cy="-522" rx="28.6953" ry="18"/>
<text text-anchor="middle" x="633" y="-518.3" font-family="Times New Roman,serif" font-size="14.00">2062</text>
</g>
<!-- 2061&#45;&#45;2062 -->
<g id="edge29" class="edge"><title>2061&#45;&#45;2062</title>
<path fill="none" stroke="black" d="M633,-575.697C633,-564.846 633,-550.917 633,-540.104"/>
</g>
<!-- 2071 -->
<g id="node16" class="node"><title>2071</title>
<ellipse fill="none" stroke="black" cx="776" cy="-594" rx="28.6953" ry="18"/>
<text text-anchor="middle" x="776" y="-590.3" font-family="Times New Roman,serif" font-size="14.00">2071</text>
</g>
<!-- 2072 -->
<g id="node17" class="node"><title>2072</title>
<ellipse fill="none" stroke="black" cx="804" cy="-522" rx="28.6953" ry="18"/>
<text text-anchor="middle" x="804" y="-518.3" font-family="Times New Roman,serif" font-size="14.00">2072</text>
</g>
<!-- 2071&#45;&#45;2072 -->
<g id="edge30" class="edge"><title>2071&#45;&#45;2072</title>
<path fill="none" stroke="black" d="M782.636,-576.411C787.034,-565.414 792.789,-551.027 797.218,-539.956"/>
</g>
<!-- 2074 -->
<g id="node18" class="node"><title>2074</title>
<ellipse fill="none" stroke="black" cx="747" cy="-450" rx="28.6953" ry="18"/>
<text text-anchor="middle" x="747" y="-446.3" font-family="Times New Roman,serif" font-size="14.00">2074</text>
</g>
<!-- 2071&#45;&#45;2074 -->
<g id="edge31" class="edge"><title>2071&#45;&#45;2074</title>
<path fill="none" stroke="black" d="M772.502,-575.871C766.928,-548.578 756.092,-495.52 750.51,-468.189"/>
</g>
<!-- 2076 -->
<g id="node19" class="node"><title>2076</title>
<ellipse fill="none" stroke="black" cx="861" cy="-378" rx="28.6953" ry="18"/>
<text text-anchor="middle" x="861" y="-374.3" font-family="Times New Roman,serif" font-size="14.00">2076</text>
</g>
<!-- 2071&#45;&#45;2076 -->
<g id="edge32" class="edge"><title>2071&#45;&#45;2076</title>
<path fill="none" stroke="black" d="M797.274,-581.882C812.417,-572.766 831.818,-558.383 842,-540 867.911,-493.221 865.827,-427.194 863.029,-396.258"/>
</g>
<!-- 2078 -->
<g id="node20" class="node"><title>2078</title>
<ellipse fill="none" stroke="black" cx="781" cy="-306" rx="28.6953" ry="18"/>
<text text-anchor="middle" x="781" y="-302.3" font-family="Times New Roman,serif" font-size="14.00">2078</text>
</g>
<!-- 2071&#45;&#45;2078 -->
<g id="edge33" class="edge"><title>2071&#45;&#45;2078</title>
<path fill="none" stroke="black" d="M762.346,-577.937C738.71,-549.989 694.062,-487.863 709,-432 720.581,-388.693 751.168,-344.835 768.52,-322.369"/>
</g>
<!-- 2072&#45;&#45;2074 -->
<g id="edge34" class="edge"><title>2072&#45;&#45;2074</title>
<path fill="none" stroke="black" d="M791.35,-505.465C781.904,-493.865 769.052,-478.082 759.615,-466.492"/>
</g>
<!-- 2072&#45;&#45;2076 -->
<g id="edge35" class="edge"><title>2072&#45;&#45;2076</title>
<path fill="none" stroke="black" d="M810.65,-504.433C821.575,-477.217 843.204,-423.334 854.215,-395.902"/>
</g>
<!-- 2072&#45;&#45;2078 -->
<g id="edge36" class="edge"><title>2072&#45;&#45;2078</title>
<path fill="none" stroke="black" d="M802.157,-503.849C797.85,-463.78 787.167,-364.383 782.852,-324.232"/>
</g>
<!-- 2074&#45;&#45;2076 -->
<g id="edge37" class="edge"><title>2074&#45;&#45;2076</title>
<path fill="none" stroke="black" d="M766.857,-436.807C787.654,-424.037 820.134,-404.093 840.988,-391.288"/>
</g>
<!-- 2074&#45;&#45;2078 -->
<g id="edge38" class="edge"><title>2074&#45;&#45;2078</title>
<path fill="none" stroke="black" d="M751.034,-432.153C757.577,-404.824 770.431,-351.14 776.971,-323.825"/>
</g>
<!-- 2076&#45;&#45;2078 -->
<g id="edge39" class="edge"><title>2076&#45;&#45;2078</title>
<path fill="none" stroke="black" d="M844.811,-362.834C830.931,-350.69 811.038,-333.283 797.165,-321.144"/>
</g>
<!-- 2092 -->
<g id="node21" class="node"><title>2092</title>
<ellipse fill="none" stroke="black" cx="743" cy="-234" rx="28.6953" ry="18"/>
<text text-anchor="middle" x="743" y="-230.3" font-family="Times New Roman,serif" font-size="14.00">2092</text>
</g>
<!-- 2078&#45;&#45;2092 -->
<g id="edge40" class="edge"><title>2078&#45;&#45;2092</title>
<path fill="none" stroke="black" d="M772.187,-288.765C766.048,-277.456 757.894,-262.437 751.766,-251.147"/>
</g>
<!-- 5160 -->
<g id="node22" class="node"><title>5160</title>
<ellipse fill="none" stroke="black" cx="818" cy="-234" rx="28.6953" ry="18"/>
<text text-anchor="middle" x="818" y="-230.3" font-family="Times New Roman,serif" font-size="14.00">5160</text>
</g>
<!-- 2078&#45;&#45;5160 -->
<g id="edge41" class="edge"><title>2078&#45;&#45;5160</title>
<path fill="none" stroke="black" d="M789.582,-288.765C795.474,-277.618 803.271,-262.865 809.208,-251.633"/>
</g>
<!-- 2345 -->
<g id="node23" class="node"><title>2345</title>
<ellipse fill="none" stroke="black" cx="1032" cy="-522" rx="28.6953" ry="18"/>
<text text-anchor="middle" x="1032" y="-518.3" font-family="Times New Roman,serif" font-size="14.00">2345</text>
</g>
<!-- 2346 -->
<g id="node24" class="node"><title>2346</title>
<ellipse fill="none" stroke="black" cx="975" cy="-450" rx="28.6953" ry="18"/>
<text text-anchor="middle" x="975" y="-446.3" font-family="Times New Roman,serif" font-size="14.00">2346</text>
</g>
<!-- 2345&#45;&#45;2346 -->
<g id="edge42" class="edge"><title>2345&#45;&#45;2346</title>
<path fill="none" stroke="black" d="M1019.35,-505.465C1009.9,-493.865 997.052,-478.082 987.615,-466.492"/>
</g>
<!-- 2348 -->
<g id="node25" class="node"><title>2348</title>
<ellipse fill="none" stroke="black" cx="1013" cy="-378" rx="28.6953" ry="18"/>
<text text-anchor="middle" x="1013" y="-374.3" font-family="Times New Roman,serif" font-size="14.00">2348</text>
</g>
<!-- 2345&#45;&#45;2348 -->
<g id="edge43" class="edge"><title>2345&#45;&#45;2348</title>
<path fill="none" stroke="black" d="M1029.71,-503.871C1026.06,-476.578 1018.96,-423.52 1015.3,-396.189"/>
</g>
<!-- 2350 -->
<g id="node26" class="node"><title>2350</title>
<ellipse fill="none" stroke="black" cx="956" cy="-306" rx="28.6953" ry="18"/>
<text text-anchor="middle" x="956" y="-302.3" font-family="Times New Roman,serif" font-size="14.00">2350</text>
</g>
<!-- 2345&#45;&#45;2350 -->
<g id="edge44" class="edge"><title>2345&#45;&#45;2350</title>
<path fill="none" stroke="black" d="M1005.79,-514.408C983.114,-507.165 951.727,-493.08 937,-468 909.637,-421.401 934.006,-354.138 947.901,-323.419"/>
</g>
<!-- 4768 -->
<g id="node27" class="node"><title>4768</title>
<ellipse fill="none" stroke="black" cx="1050" cy="-306" rx="28.6953" ry="18"/>
<text text-anchor="middle" x="1050" y="-302.3" font-family="Times New Roman,serif" font-size="14.00">4768</text>
</g>
<!-- 2345&#45;&#45;4768 -->
<g id="edge45" class="edge"><title>2345&#45;&#45;4768</title>
<path fill="none" stroke="black" d="M1035.4,-504.109C1040.02,-480.174 1048.06,-434.961 1051,-396 1052.21,-380.045 1051.15,-375.999 1051,-360 1050.89,-348.037 1050.63,-334.556 1050.41,-324.185"/>
</g>
<!-- 2346&#45;&#45;2348 -->
<g id="edge46" class="edge"><title>2346&#45;&#45;2348</title>
<path fill="none" stroke="black" d="M983.813,-432.765C989.952,-421.456 998.106,-406.437 1004.23,-395.147"/>
</g>
<!-- 2346&#45;&#45;2350 -->
<g id="edge47" class="edge"><title>2346&#45;&#45;2350</title>
<path fill="none" stroke="black" d="M972.708,-431.871C969.056,-404.578 961.957,-351.52 958.3,-324.189"/>
</g>
<!-- 2348&#45;&#45;2350 -->
<g id="edge48" class="edge"><title>2348&#45;&#45;2350</title>
<path fill="none" stroke="black" d="M1000.35,-361.465C990.904,-349.865 978.052,-334.082 968.615,-322.492"/>
</g>
<!-- 2348&#45;&#45;4768 -->
<g id="edge49" class="edge"><title>2348&#45;&#45;4768</title>
<path fill="none" stroke="black" d="M1021.58,-360.765C1027.47,-349.618 1035.27,-334.865 1041.21,-323.633"/>
</g>
<!-- 3085 -->
<g id="node28" class="node"><title>3085</title>
<ellipse fill="none" stroke="black" cx="1222" cy="-594" rx="28.6953" ry="18"/>
<text text-anchor="middle" x="1222" y="-590.3" font-family="Times New Roman,serif" font-size="14.00">3085</text>
</g>
<!-- 3086 -->
<g id="node29" class="node"><title>3086</title>
<ellipse fill="none" stroke="black" cx="1222" cy="-522" rx="28.6953" ry="18"/>
<text text-anchor="middle" x="1222" y="-518.3" font-family="Times New Roman,serif" font-size="14.00">3086</text>
</g>
<!-- 3085&#45;&#45;3086 -->
<g id="edge50" class="edge"><title>3085&#45;&#45;3086</title>
<path fill="none" stroke="black" d="M1222,-575.697C1222,-564.846 1222,-550.917 1222,-540.104"/>
</g>
<!-- 6040 -->
<g id="node30" class="node"><title>6040</title>
<ellipse fill="none" stroke="black" cx="1165" cy="-450" rx="28.6953" ry="18"/>
<text text-anchor="middle" x="1165" y="-446.3" font-family="Times New Roman,serif" font-size="14.00">6040</text>
</g>
<!-- 3086&#45;&#45;6040 -->
<g id="edge51" class="edge"><title>3086&#45;&#45;6040</title>
<path fill="none" stroke="black" d="M1209.35,-505.465C1199.9,-493.865 1187.05,-478.082 1177.61,-466.492"/>
</g>
<!-- 6042 -->
<g id="node31" class="node"><title>6042</title>
<ellipse fill="none" stroke="black" cx="1193" cy="-378" rx="28.6953" ry="18"/>
<text text-anchor="middle" x="1193" y="-374.3" font-family="Times New Roman,serif" font-size="14.00">6042</text>
</g>
<!-- 3086&#45;&#45;6042 -->
<g id="edge52" class="edge"><title>3086&#45;&#45;6042</title>
<path fill="none" stroke="black" d="M1218.5,-503.871C1212.93,-476.578 1202.09,-423.52 1196.51,-396.189"/>
</g>
<!-- 7542 -->
<g id="node32" class="node"><title>7542</title>
<ellipse fill="none" stroke="black" cx="1279" cy="-450" rx="28.6953" ry="18"/>
<text text-anchor="middle" x="1279" y="-446.3" font-family="Times New Roman,serif" font-size="14.00">7542</text>
</g>
<!-- 3086&#45;&#45;7542 -->
<g id="edge53" class="edge"><title>3086&#45;&#45;7542</title>
<path fill="none" stroke="black" d="M1234.65,-505.465C1244.1,-493.865 1256.95,-478.082 1266.39,-466.492"/>
</g>
<!-- 6040&#45;&#45;6042 -->
<g id="edge54" class="edge"><title>6040&#45;&#45;6042</title>
<path fill="none" stroke="black" d="M1171.64,-432.411C1176.03,-421.414 1181.79,-407.027 1186.22,-395.956"/>
</g>
<!-- 4763 -->
<g id="node33" class="node"><title>4763</title>
<ellipse fill="none" stroke="black" cx="1070" cy="-594" rx="28.6953" ry="18"/>
<text text-anchor="middle" x="1070" y="-590.3" font-family="Times New Roman,serif" font-size="14.00">4763</text>
</g>
<!-- 4763&#45;&#45;2345 -->
<g id="edge55" class="edge"><title>4763&#45;&#45;2345</title>
<path fill="none" stroke="black" d="M1061.19,-576.765C1055.05,-565.456 1046.89,-550.437 1040.77,-539.147"/>
</g>
<!-- 4763&#45;&#45;2348 -->
<g id="edge56" class="edge"><title>4763&#45;&#45;2348</title>
<path fill="none" stroke="black" d="M1072.12,-576.041C1073.88,-557.964 1075.35,-528.612 1070,-504 1060.99,-462.513 1036.95,-418.286 1023.14,-395.187"/>
</g>
<!-- 5345 -->
<g id="node34" class="node"><title>5345</title>
<ellipse fill="none" stroke="black" cx="1297" cy="-594" rx="28.6953" ry="18"/>
<text text-anchor="middle" x="1297" y="-590.3" font-family="Times New Roman,serif" font-size="14.00">5345</text>
</g>
<!-- 5346 -->
<g id="node35" class="node"><title>5346</title>
<ellipse fill="none" stroke="black" cx="1297" cy="-522" rx="28.6953" ry="18"/>
<text text-anchor="middle" x="1297" y="-518.3" font-family="Times New Roman,serif" font-size="14.00">5346</text>
</g>
<!-- 5345&#45;&#45;5346 -->
<g id="edge57" class="edge"><title>5345&#45;&#45;5346</title>
<path fill="none" stroke="black" d="M1297,-575.697C1297,-564.846 1297,-550.917 1297,-540.104"/>
</g>
<!-- 6073 -->
<g id="node36" class="node"><title>6073</title>
<ellipse fill="none" stroke="black" cx="1372" cy="-594" rx="28.6953" ry="18"/>
<text text-anchor="middle" x="1372" y="-590.3" font-family="Times New Roman,serif" font-size="14.00">6073</text>
</g>
<!-- 6074 -->
<g id="node37" class="node"><title>6074</title>
<ellipse fill="none" stroke="black" cx="1372" cy="-522" rx="28.6953" ry="18"/>
<text text-anchor="middle" x="1372" y="-518.3" font-family="Times New Roman,serif" font-size="14.00">6074</text>
</g>
<!-- 6073&#45;&#45;6074 -->
<g id="edge58" class="edge"><title>6073&#45;&#45;6074</title>
<path fill="none" stroke="black" d="M1372,-575.697C1372,-564.846 1372,-550.917 1372,-540.104"/>
</g>
<!-- 6363 -->
<g id="node38" class="node"><title>6363</title>
<ellipse fill="none" stroke="black" cx="1585" cy="-594" rx="28.6953" ry="18"/>
<text text-anchor="middle" x="1585" y="-590.3" font-family="Times New Roman,serif" font-size="14.00">6363</text>
</g>
<!-- 6364 -->
<g id="node39" class="node"><title>6364</title>
<ellipse fill="none" stroke="black" cx="1676" cy="-522" rx="28.6953" ry="18"/>
<text text-anchor="middle" x="1676" y="-518.3" font-family="Times New Roman,serif" font-size="14.00">6364</text>
</g>
<!-- 6363&#45;&#45;6364 -->
<g id="edge59" class="edge"><title>6363&#45;&#45;6364</title>
<path fill="none" stroke="black" d="M1602.55,-579.503C1618.66,-567.108 1642.41,-548.838 1658.51,-536.455"/>
</g>
<!-- 6366 -->
<g id="node40" class="node"><title>6366</title>
<ellipse fill="none" stroke="black" cx="1552" cy="-450" rx="28.6953" ry="18"/>
<text text-anchor="middle" x="1552" y="-446.3" font-family="Times New Roman,serif" font-size="14.00">6366</text>
</g>
<!-- 6363&#45;&#45;6366 -->
<g id="edge60" class="edge"><title>6363&#45;&#45;6366</title>
<path fill="none" stroke="black" d="M1581.08,-576.153C1574.77,-548.971 1562.39,-495.717 1556.01,-468.268"/>
</g>
<!-- 6368 -->
<g id="node41" class="node"><title>6368</title>
<ellipse fill="none" stroke="black" cx="1600" cy="-378" rx="28.6953" ry="18"/>
<text text-anchor="middle" x="1600" y="-374.3" font-family="Times New Roman,serif" font-size="14.00">6368</text>
</g>
<!-- 6363&#45;&#45;6368 -->
<g id="edge61" class="edge"><title>6363&#45;&#45;6368</title>
<path fill="none" stroke="black" d="M1586.2,-575.849C1589.01,-535.78 1595.98,-436.383 1598.79,-396.232"/>
</g>
<!-- 6370 -->
<g id="node42" class="node"><title>6370</title>
<ellipse fill="none" stroke="black" cx="1714" cy="-306" rx="28.6953" ry="18"/>
<text text-anchor="middle" x="1714" y="-302.3" font-family="Times New Roman,serif" font-size="14.00">6370</text>
</g>
<!-- 6363&#45;&#45;6370 -->
<g id="edge62" class="edge"><title>6363&#45;&#45;6370</title>
<path fill="none" stroke="black" d="M1613.05,-589.903C1643.27,-584.952 1690.21,-572.248 1714,-540 1762.98,-473.589 1733.9,-365.063 1720.06,-323.715"/>
</g>
<!-- 6372 -->
<g id="node43" class="node"><title>6372</title>
<ellipse fill="none" stroke="black" cx="1562" cy="-234" rx="28.6953" ry="18"/>
<text text-anchor="middle" x="1562" y="-230.3" font-family="Times New Roman,serif" font-size="14.00">6372</text>
</g>
<!-- 6363&#45;&#45;6372 -->
<g id="edge63" class="edge"><title>6363&#45;&#45;6372</title>
<path fill="none" stroke="black" d="M1572.69,-577.6C1555.58,-555.096 1525.41,-511.193 1514,-468 1492.74,-387.539 1534.69,-289.388 1553.51,-251.244"/>
</g>
<!-- 6374 -->
<g id="node44" class="node"><title>6374</title>
<ellipse fill="none" stroke="black" cx="1591" cy="-162" rx="28.6953" ry="18"/>
<text text-anchor="middle" x="1591" y="-158.3" font-family="Times New Roman,serif" font-size="14.00">6374</text>
</g>
<!-- 6363&#45;&#45;6374 -->
<g id="edge64" class="edge"><title>6363&#45;&#45;6374</title>
<path fill="none" stroke="black" d="M1560.97,-584.137C1517.21,-566.266 1429,-521.5 1429,-451 1429,-451 1429,-451 1429,-305 1429,-232.818 1521.08,-188.764 1566.4,-171.452"/>
</g>
<!-- 6364&#45;&#45;6366 -->
<g id="edge65" class="edge"><title>6364&#45;&#45;6366</title>
<path fill="none" stroke="black" d="M1655.25,-509.284C1632.36,-496.362 1595.74,-475.692 1572.82,-462.755"/>
</g>
<!-- 6364&#45;&#45;6368 -->
<g id="edge66" class="edge"><title>6364&#45;&#45;6368</title>
<path fill="none" stroke="black" d="M1667.28,-504.711C1652.7,-477.465 1623.52,-422.946 1608.85,-395.537"/>
</g>
<!-- 6364&#45;&#45;6370 -->
<g id="edge67" class="edge"><title>6364&#45;&#45;6370</title>
<path fill="none" stroke="black" d="M1684.64,-504.769C1689.7,-494.515 1695.71,-480.825 1699,-468 1712.12,-416.88 1714.06,-354.014 1714.16,-324.223"/>
</g>
<!-- 6364&#45;&#45;6372 -->
<g id="edge68" class="edge"><title>6364&#45;&#45;6372</title>
<path fill="none" stroke="black" d="M1673.74,-504.026C1669.38,-474.086 1658.39,-410.305 1638,-360 1624,-325.457 1614.41,-319.822 1595,-288 1587.44,-275.6 1578.75,-261.66 1572.19,-251.189"/>
</g>
<!-- 6364&#45;&#45;6374 -->
<g id="edge69" class="edge"><title>6364&#45;&#45;6374</title>
<path fill="none" stroke="black" d="M1697.96,-510.349C1735.74,-490.311 1809,-443.177 1809,-379 1809,-379 1809,-379 1809,-305 1809,-215.115 1677.27,-179.168 1618.61,-167.616"/>
</g>
<!-- 6366&#45;&#45;6368 -->
<g id="edge70" class="edge"><title>6366&#45;&#45;6368</title>
<path fill="none" stroke="black" d="M1562.89,-433.116C1570.75,-421.66 1581.31,-406.263 1589.15,-394.821"/>
</g>
<!-- 6366&#45;&#45;6370 -->
<g id="edge71" class="edge"><title>6366&#45;&#45;6370</title>
<path fill="none" stroke="black" d="M1573.75,-438.066C1591.93,-428.366 1618.02,-413.111 1638,-396 1664.24,-373.533 1689.14,-341.658 1702.91,-322.777"/>
</g>
<!-- 6366&#45;&#45;6372 -->
<g id="edge72" class="edge"><title>6366&#45;&#45;6372</title>
<path fill="none" stroke="black" d="M1552.8,-431.849C1554.67,-391.78 1559.32,-292.383 1561.19,-252.232"/>
</g>
<!-- 6366&#45;&#45;6374 -->
<g id="edge73" class="edge"><title>6366&#45;&#45;6374</title>
<path fill="none" stroke="black" d="M1544.13,-432.455C1526.5,-392.829 1488.06,-290.262 1524,-216 1533.24,-196.91 1553.06,-182.609 1568.76,-173.705"/>
</g>
<!-- 6368&#45;&#45;6370 -->
<g id="edge74" class="edge"><title>6368&#45;&#45;6370</title>
<path fill="none" stroke="black" d="M1619.86,-364.807C1640.65,-352.037 1673.13,-332.093 1693.99,-319.288"/>
</g>
<!-- 6368&#45;&#45;6372 -->
<g id="edge75" class="edge"><title>6368&#45;&#45;6372</title>
<path fill="none" stroke="black" d="M1595.49,-360.153C1588.18,-332.824 1573.81,-279.14 1566.5,-251.825"/>
</g>
<!-- 6368&#45;&#45;6374 -->
<g id="edge76" class="edge"><title>6368&#45;&#45;6374</title>
<path fill="none" stroke="black" d="M1600.96,-359.568C1602.37,-329.984 1604.39,-268.084 1600,-216 1598.98,-203.91 1596.68,-190.431 1594.65,-180.092"/>
</g>
<!-- 6370&#45;&#45;6372 -->
<g id="edge77" class="edge"><title>6370&#45;&#45;6372</title>
<path fill="none" stroke="black" d="M1691.57,-294.671C1662.83,-281.437 1613.3,-258.626 1584.52,-245.371"/>
</g>
<!-- 6370&#45;&#45;6374 -->
<g id="edge78" class="edge"><title>6370&#45;&#45;6374</title>
<path fill="none" stroke="black" d="M1700.84,-289.804C1677.16,-262.473 1627.67,-205.339 1604.07,-178.087"/>
</g>
<!-- 6372&#45;&#45;6374 -->
<g id="edge79" class="edge"><title>6372&#45;&#45;6374</title>
<path fill="none" stroke="black" d="M1568.87,-216.411C1573.43,-205.414 1579.39,-191.027 1583.98,-179.956"/>
</g>
<!-- 7573 -->
<g id="node45" class="node"><title>7573</title>
<polygon fill="#576d6c" stroke="#576d6c" points="2322,-612 2268,-612 2268,-576 2322,-576 2322,-612"/>
<text text-anchor="middle" x="2295" y="-590.3" font-family="Times New Roman,serif" font-size="14.00">7573</text>
</g>
<!-- 7574 -->
<g id="node46" class="node"><title>7574</title>
<ellipse fill="none" stroke="black" cx="2253" cy="-522" rx="28.6953" ry="18"/>
<text text-anchor="middle" x="2253" y="-518.3" font-family="Times New Roman,serif" font-size="14.00">7574</text>
</g>
<!-- 7573&#45;&#45;7574 -->
<g id="edge80" class="edge"><title>7573&#45;&#45;7574</title>
<path fill="none" stroke="black" d="M2284.62,-575.697C2277.91,-564.522 2269.25,-550.082 2262.69,-539.145"/>
</g>
<!-- 7576 -->
<g id="node47" class="node"><title>7576</title>
<ellipse fill="#924665" stroke="#924665" cx="2191" cy="-450" rx="28.6953" ry="18"/>
<text text-anchor="middle" x="2191" y="-446.3" font-family="Times New Roman,serif" font-size="14.00">7576</text>
</g>
<!-- 7573&#45;&#45;7576 -->
<g id="edge81" class="edge"><title>7573&#45;&#45;7576</title>
<path fill="none" stroke="black" d="M2267.86,-581.293C2250.32,-572.393 2228.35,-558.516 2215,-540 2199.47,-518.449 2193.99,-487.425 2192.05,-468.275"/>
</g>
<!-- 7578 -->
<g id="node48" class="node"><title>7578</title>
<polygon fill="#4d9297" stroke="#4d9297" points="2309,-396 2255,-396 2255,-360 2309,-360 2309,-396"/>
<text text-anchor="middle" x="2282" y="-374.3" font-family="Times New Roman,serif" font-size="14.00">7578</text>
</g>
<!-- 7573&#45;&#45;7578 -->
<g id="edge82" class="edge"><title>7573&#45;&#45;7578</title>
<path fill="none" stroke="black" d="M2294.37,-575.931C2293.68,-558.01 2292.46,-529.014 2291,-504 2288.75,-465.555 2285.31,-420.517 2283.4,-396.381"/>
</g>
<!-- 7580 -->
<g id="node49" class="node"><title>7580</title>
<ellipse fill="#924665" stroke="#924665" cx="2094" cy="-306" rx="28.6953" ry="18"/>
<text text-anchor="middle" x="2094" y="-302.3" font-family="Times New Roman,serif" font-size="14.00">7580</text>
</g>
<!-- 7573&#45;&#45;7580 -->
<g id="edge83" class="edge"><title>7573&#45;&#45;7580</title>
<path fill="none" stroke="black" d="M2267.61,-581.141C2246.95,-571.548 2218.43,-556.889 2196,-540 2160.35,-513.15 2149.67,-505.839 2126,-468 2097.29,-422.093 2093.57,-355.644 2093.56,-324.432"/>
</g>
<!-- 7582 -->
<g id="node50" class="node"><title>7582</title>
<ellipse fill="#924665" stroke="#924665" cx="2227" cy="-234" rx="28.6953" ry="18"/>
<text text-anchor="middle" x="2227" y="-230.3" font-family="Times New Roman,serif" font-size="14.00">7582</text>
</g>
<!-- 7573&#45;&#45;7582 -->
<g id="edge84" class="edge"><title>7573&#45;&#45;7582</title>
<path fill="none" stroke="black" d="M2303.21,-575.741C2320.66,-536.683 2358.02,-438.792 2335,-360 2320.44,-310.173 2272.48,-268.318 2245.63,-248.07"/>
</g>
<!-- 7584 -->
<g id="node51" class="node"><title>7584</title>
<polygon fill="#924665" stroke="#924665" points="2339,-180 2285,-180 2285,-144 2339,-144 2339,-180"/>
<text text-anchor="middle" x="2312" y="-158.3" font-family="Times New Roman,serif" font-size="14.00">7584</text>
</g>
<!-- 7573&#45;&#45;7584 -->
<g id="edge85" class="edge"><title>7573&#45;&#45;7584</title>
<path fill="none" stroke="black" d="M2322.14,-583.336C2367.79,-565.141 2455,-521.194 2455,-451 2455,-451 2455,-451 2455,-305 2455,-240.448 2380.72,-195.185 2339.23,-174.937"/>
</g>
<!-- 7586 -->
<g id="node52" class="node"><title>7586</title>
<polygon fill="#646f59" stroke="#646f59" points="2140,-108 2086,-108 2086,-72 2140,-72 2140,-108"/>
<text text-anchor="middle" x="2113" y="-86.3" font-family="Times New Roman,serif" font-size="14.00">7586</text>
</g>
<!-- 7573&#45;&#45;7586 -->
<g id="edge86" class="edge"><title>7573&#45;&#45;7586</title>
<path fill="none" stroke="black" d="M2267.78,-589.599C2176.21,-577.411 1885,-532.261 1885,-451 1885,-451 1885,-451 1885,-305 1885,-195.881 2025.56,-126.188 2085.95,-101.279"/>
</g>
<!-- 7588 -->
<g id="node53" class="node"><title>7588</title>
<polygon fill="#865139" stroke="#865139" points="2216,-36 2162,-36 2162,-0 2216,-0 2216,-36"/>
<text text-anchor="middle" x="2189" y="-14.3" font-family="Times New Roman,serif" font-size="14.00">7588</text>
</g>
<!-- 7573&#45;&#45;7588 -->
<g id="edge87" class="edge"><title>7573&#45;&#45;7588</title>
<path fill="none" stroke="black" d="M2322.07,-589.604C2384.06,-580.161 2531,-547.591 2531,-451 2531,-451 2531,-451 2531,-161 2531,-114.027 2512.97,-98.2318 2474,-72 2431.83,-43.6136 2278.76,-27.0257 2216.06,-21.2907"/>
</g>
<!-- 7574&#45;&#45;7576 -->
<g id="edge88" class="edge"><title>7574&#45;&#45;7576</title>
<path fill="none" stroke="black" d="M2239.55,-505.811C2229.15,-494.07 2214.82,-477.893 2204.43,-466.159"/>
</g>
<!-- 7574&#45;&#45;7578 -->
<g id="edge89" class="edge"><title>7574&#45;&#45;7578</title>
<path fill="none" stroke="black" d="M2256.5,-503.871C2262.07,-476.578 2272.91,-423.52 2278.49,-396.189"/>
</g>
<!-- 7574&#45;&#45;7580 -->
<g id="edge90" class="edge"><title>7574&#45;&#45;7580</title>
<path fill="none" stroke="black" d="M2227.5,-513.323C2205.04,-505.35 2172.89,-490.802 2153,-468 2115.43,-424.93 2101.03,-355.902 2096.17,-324.081"/>
</g>
<!-- 7574&#45;&#45;7582 -->
<g id="edge91" class="edge"><title>7574&#45;&#45;7582</title>
<path fill="none" stroke="black" d="M2266.77,-506.078C2291.06,-477.853 2337.25,-414.58 2318,-360 2311.17,-340.624 2301.32,-340.439 2289,-324 2270.25,-298.988 2249.75,-268.992 2237.65,-250.992"/>
</g>
<!-- 7574&#45;&#45;7584 -->
<g id="edge92" class="edge"><title>7574&#45;&#45;7584</title>
<path fill="none" stroke="black" d="M2277.91,-512.64C2323.79,-495.485 2417,-451.688 2417,-379 2417,-379 2417,-379 2417,-305 2417,-251.038 2367.37,-204.156 2336.35,-180.125"/>
</g>
<!-- 7574&#45;&#45;7586 -->
<g id="edge93" class="edge"><title>7574&#45;&#45;7586</title>
<path fill="none" stroke="black" d="M2224.85,-518.448C2158.72,-510.754 1999,-481.557 1999,-379 1999,-379 1999,-379 1999,-233 1999,-177.675 2052.27,-131.633 2085.98,-108.036"/>
</g>
<!-- 7574&#45;&#45;7588 -->
<g id="edge94" class="edge"><title>7574&#45;&#45;7588</title>
<path fill="none" stroke="black" d="M2224.45,-519.426C2132.04,-512.653 1847,-477.91 1847,-307 1847,-307 1847,-307 1847,-161 1847,-92.9334 2080.99,-40.3164 2161.88,-24.1602"/>
</g>
<!-- 7576&#45;&#45;7578 -->
<g id="edge95" class="edge"><title>7576&#45;&#45;7578</title>
<path fill="none" stroke="black" d="M2208.55,-435.503C2223.11,-424.3 2243.91,-408.297 2259.67,-396.18"/>
</g>
<!-- 7576&#45;&#45;7580 -->
<g id="edge96" class="edge"><title>7576&#45;&#45;7580</title>
<path fill="none" stroke="black" d="M2180.25,-433.261C2161.6,-405.966 2123.48,-350.154 2104.8,-322.81"/>
</g>
<!-- 7576&#45;&#45;7582 -->
<g id="edge97" class="edge"><title>7576&#45;&#45;7582</title>
<path fill="none" stroke="black" d="M2193.89,-431.849C2200.64,-391.68 2217.43,-291.89 2224.15,-251.935"/>
</g>
<!-- 7576&#45;&#45;7584 -->
<g id="edge98" class="edge"><title>7576&#45;&#45;7584</title>
<path fill="none" stroke="black" d="M2198.03,-432.387C2219.36,-381.958 2283.24,-230.982 2304.8,-180.018"/>
</g>
<!-- 7576&#45;&#45;7586 -->
<g id="edge99" class="edge"><title>7576&#45;&#45;7586</title>
<path fill="none" stroke="black" d="M2166.94,-439.905C2123.63,-421.788 2037,-376.825 2037,-307 2037,-307 2037,-307 2037,-233 2037,-182.949 2074.16,-133.466 2096.51,-108.228"/>
</g>
<!-- 7576&#45;&#45;7588 -->
<g id="edge100" class="edge"><title>7576&#45;&#45;7588</title>
<path fill="none" stroke="black" d="M2163.01,-445.739C2131.77,-440.611 2081.82,-427.722 2053,-396 2030.67,-371.419 2037.49,-356.907 2033,-324 2021.16,-237.171 2024.05,-117.805 2059,-72 2083.69,-39.6398 2131.49,-26.9453 2161.74,-22.0298"/>
</g>
<!-- 7578&#45;&#45;7580 -->
<g id="edge101" class="edge"><title>7578&#45;&#45;7580</title>
<path fill="none" stroke="black" d="M2254.93,-367.344C2225.75,-356.877 2177.96,-339.579 2137,-324 2130.7,-321.603 2123.9,-318.948 2117.61,-316.464"/>
</g>
<!-- 7578&#45;&#45;7582 -->
<g id="edge102" class="edge"><title>7578&#45;&#45;7582</title>
<path fill="none" stroke="black" d="M2270.45,-359.94C2264.02,-349.837 2256.27,-336.587 2251,-324 2240.93,-299.937 2233.95,-270.435 2230.21,-252.176"/>
</g>
<!-- 7578&#45;&#45;7584 -->
<g id="edge103" class="edge"><title>7578&#45;&#45;7584</title>
<path fill="none" stroke="black" d="M2309.07,-365.296C2325.62,-356.546 2345.4,-342.837 2355,-324 2376.8,-281.235 2371.04,-261.239 2355,-216 2350.17,-202.376 2340.18,-189.7 2331.04,-180.163"/>
</g>
<!-- 7578&#45;&#45;7586 -->
<g id="edge104" class="edge"><title>7578&#45;&#45;7586</title>
<path fill="none" stroke="black" d="M2265.62,-359.92C2256.24,-349.81 2244.49,-336.56 2235,-324 2179.54,-250.588 2135.8,-148.389 2119.69,-108.202"/>
</g>
<!-- 7578&#45;&#45;7588 -->
<g id="edge105" class="edge"><title>7578&#45;&#45;7588</title>
<path fill="none" stroke="black" d="M2309.15,-371.992C2366.14,-359.748 2493,-322.648 2493,-235 2493,-235 2493,-235 2493,-161 2493,-39.3997 2290.86,-21.693 2216.25,-19.2991"/>
</g>
<!-- 7580&#45;&#45;7582 -->
<g id="edge106" class="edge"><title>7580&#45;&#45;7582</title>
<path fill="none" stroke="black" d="M2115.37,-293.753C2140.19,-280.691 2180.89,-259.27 2205.68,-246.219"/>
</g>
<!-- 7580&#45;&#45;7584 -->
<g id="edge107" class="edge"><title>7580&#45;&#45;7584</title>
<path fill="none" stroke="black" d="M2107.17,-289.755C2124.41,-270.535 2156.29,-237.421 2189,-216 2219.54,-195.999 2258.88,-180.597 2284.74,-171.675"/>
</g>
<!-- 7580&#45;&#45;7586 -->
<g id="edge108" class="edge"><title>7580&#45;&#45;7586</title>
<path fill="none" stroke="black" d="M2095.52,-287.849C2099.08,-247.78 2107.91,-148.383 2111.47,-108.232"/>
</g>
<!-- 7580&#45;&#45;7588 -->
<g id="edge109" class="edge"><title>7580&#45;&#45;7588</title>
<path fill="none" stroke="black" d="M2086.58,-288.42C2069.63,-247.836 2032.85,-141.737 2077,-72 2095.53,-42.7376 2135.05,-29.3191 2161.83,-23.3898"/>
</g>
<!-- 7582&#45;&#45;7584 -->
<g id="edge110" class="edge"><title>7582&#45;&#45;7584</title>
<path fill="none" stroke="black" d="M2243.79,-219.17C2257.44,-207.934 2276.74,-192.036 2291.33,-180.019"/>
</g>
<!-- 7582&#45;&#45;7586 -->
<g id="edge111" class="edge"><title>7582&#45;&#45;7586</title>
<path fill="none" stroke="black" d="M2217.01,-216.987C2205.34,-198.708 2185.07,-168.211 2165,-144 2154.63,-131.496 2141.88,-118.461 2131.59,-108.448"/>
</g>
<!-- 7582&#45;&#45;7588 -->
<g id="edge112" class="edge"><title>7582&#45;&#45;7588</title>
<path fill="none" stroke="black" d="M2223.95,-215.849C2216.84,-175.78 2199.19,-76.3826 2192.06,-36.2325"/>
</g>
<!-- 7584&#45;&#45;7586 -->
<g id="edge113" class="edge"><title>7584&#45;&#45;7586</title>
<path fill="none" stroke="black" d="M2284.75,-151.414C2246.75,-138.046 2178.24,-113.948 2140.24,-100.583"/>
</g>
<!-- 7584&#45;&#45;7588 -->
<g id="edge114" class="edge"><title>7584&#45;&#45;7588</title>
<path fill="none" stroke="black" d="M2299.15,-143.848C2285.3,-125.609 2262.36,-96.1234 2241,-72 2230.06,-59.6457 2217.06,-46.3957 2206.8,-36.2343"/>
</g>
<!-- 7586&#45;&#45;7588 -->
<g id="edge115" class="edge"><title>7586&#45;&#45;7588</title>
<path fill="none" stroke="black" d="M2131.79,-71.6966C2143.57,-60.8463 2158.69,-46.9167 2170.43,-36.1043"/>
</g>
<!-- 8067 -->
<g id="node54" class="node"><title>8067</title>
<ellipse fill="none" stroke="black" cx="2588" cy="-594" rx="28.6953" ry="18"/>
<text text-anchor="middle" x="2588" y="-590.3" font-family="Times New Roman,serif" font-size="14.00">8067</text>
</g>
<!-- 8068 -->
<g id="node55" class="node"><title>8068</title>
<ellipse fill="none" stroke="black" cx="2588" cy="-522" rx="28.6953" ry="18"/>
<text text-anchor="middle" x="2588" y="-518.3" font-family="Times New Roman,serif" font-size="14.00">8068</text>
</g>
<!-- 8067&#45;&#45;8068 -->
<g id="edge116" class="edge"><title>8067&#45;&#45;8068</title>
<path fill="none" stroke="black" d="M2588,-575.697C2588,-564.846 2588,-550.917 2588,-540.104"/>
</g>
<!-- 8151 -->
<g id="node56" class="node"><title>8151</title>
<ellipse fill="none" stroke="black" cx="2702" cy="-594" rx="28.6953" ry="18"/>
<text text-anchor="middle" x="2702" y="-590.3" font-family="Times New Roman,serif" font-size="14.00">8151</text>
</g>
<!-- 8152 -->
<g id="node57" class="node"><title>8152</title>
<ellipse fill="none" stroke="black" cx="2702" cy="-522" rx="28.6953" ry="18"/>
<text text-anchor="middle" x="2702" y="-518.3" font-family="Times New Roman,serif" font-size="14.00">8152</text>
</g>
<!-- 8151&#45;&#45;8152 -->
<g id="edge117" class="edge"><title>8151&#45;&#45;8152</title>
<path fill="none" stroke="black" d="M2702,-575.697C2702,-564.846 2702,-550.917 2702,-540.104"/>
</g>
<!-- 8154 -->
<g id="node58" class="node"><title>8154</title>
<ellipse fill="none" stroke="black" cx="2654" cy="-450" rx="28.6953" ry="18"/>
<text text-anchor="middle" x="2654" y="-446.3" font-family="Times New Roman,serif" font-size="14.00">8154</text>
</g>
<!-- 8151&#45;&#45;8154 -->
<g id="edge118" class="edge"><title>8151&#45;&#45;8154</title>
<path fill="none" stroke="black" d="M2688.04,-578.011C2679.6,-568.019 2669.44,-554.161 2664,-540 2654.85,-516.198 2653.32,-486.367 2653.4,-467.999"/>
</g>
<!-- 8156 -->
<g id="node59" class="node"><title>8156</title>
<ellipse fill="none" stroke="black" cx="2711" cy="-378" rx="28.6953" ry="18"/>
<text text-anchor="middle" x="2711" y="-374.3" font-family="Times New Roman,serif" font-size="14.00">8156</text>
</g>
<!-- 8151&#45;&#45;8156 -->
<g id="edge119" class="edge"><title>8151&#45;&#45;8156</title>
<path fill="none" stroke="black" d="M2716.5,-578.203C2725.16,-568.288 2735.36,-554.444 2740,-540 2756.51,-488.627 2732.54,-424.825 2719.08,-395.342"/>
</g>
<!-- 8152&#45;&#45;8154 -->
<g id="edge120" class="edge"><title>8152&#45;&#45;8154</title>
<path fill="none" stroke="black" d="M2691.11,-505.116C2683.25,-493.66 2672.69,-478.263 2664.85,-466.821"/>
</g>
<!-- 8152&#45;&#45;8156 -->
<g id="edge121" class="edge"><title>8152&#45;&#45;8156</title>
<path fill="none" stroke="black" d="M2703.09,-503.871C2704.82,-476.578 2708.18,-423.52 2709.91,-396.189"/>
</g>
<!-- 8154&#45;&#45;8156 -->
<g id="edge122" class="edge"><title>8154&#45;&#45;8156</title>
<path fill="none" stroke="black" d="M2666.65,-433.465C2676.1,-421.865 2688.95,-406.082 2698.39,-394.492"/>
</g>
<!-- 8371 -->
<g id="node60" class="node"><title>8371</title>
<ellipse fill="none" stroke="black" cx="558" cy="-522" rx="28.6953" ry="18"/>
<text text-anchor="middle" x="558" y="-518.3" font-family="Times New Roman,serif" font-size="14.00">8371</text>
</g>
<!-- 8371&#45;&#45;784 -->
<g id="edge123" class="edge"><title>8371&#45;&#45;784</title>
<path fill="none" stroke="black" d="M553.643,-504.055C550.813,-493.049 547.139,-478.764 544.317,-467.789"/>
</g>
<!-- 8371&#45;&#45;786 -->
<g id="edge124" class="edge"><title>8371&#45;&#45;786</title>
<path fill="none" stroke="black" d="M565.293,-504.179C569.332,-493.937 573.941,-480.464 576,-468 579.952,-444.073 571.148,-360.608 571,-360 567.861,-347.137 561.844,-333.448 556.751,-323.205"/>
</g>
<!-- 8375 -->
<g id="node61" class="node"><title>8375</title>
<ellipse fill="none" stroke="black" cx="2854" cy="-594" rx="28.6953" ry="18"/>
<text text-anchor="middle" x="2854" y="-590.3" font-family="Times New Roman,serif" font-size="14.00">8375</text>
</g>
<!-- 8376 -->
<g id="node62" class="node"><title>8376</title>
<ellipse fill="none" stroke="black" cx="2816" cy="-522" rx="28.6953" ry="18"/>
<text text-anchor="middle" x="2816" y="-518.3" font-family="Times New Roman,serif" font-size="14.00">8376</text>
</g>
<!-- 8375&#45;&#45;8376 -->
<g id="edge125" class="edge"><title>8375&#45;&#45;8376</title>
<path fill="none" stroke="black" d="M2845.19,-576.765C2839.05,-565.456 2830.89,-550.437 2824.77,-539.147"/>
</g>
<!-- 8378 -->
<g id="node63" class="node"><title>8378</title>
<ellipse fill="none" stroke="black" cx="2844" cy="-450" rx="28.6953" ry="18"/>
<text text-anchor="middle" x="2844" y="-446.3" font-family="Times New Roman,serif" font-size="14.00">8378</text>
</g>
<!-- 8375&#45;&#45;8378 -->
<g id="edge126" class="edge"><title>8375&#45;&#45;8378</title>
<path fill="none" stroke="black" d="M2854.94,-575.894C2855.71,-557.943 2856.33,-528.923 2854,-504 2852.87,-491.88 2850.31,-478.402 2848.06,-468.071"/>
</g>
<!-- 8376&#45;&#45;8378 -->
<g id="edge127" class="edge"><title>8376&#45;&#45;8378</title>
<path fill="none" stroke="black" d="M2822.64,-504.411C2827.03,-493.414 2832.79,-479.027 2837.22,-467.956"/>
</g>
<!-- 9681 -->
<g id="node64" class="node"><title>9681</title>
<ellipse fill="none" stroke="black" cx="2948" cy="-594" rx="28.6953" ry="18"/>
<text text-anchor="middle" x="2948" y="-590.3" font-family="Times New Roman,serif" font-size="14.00">9681</text>
</g>
<!-- 9682 -->
<g id="node65" class="node"><title>9682</title>
<ellipse fill="none" stroke="black" cx="2948" cy="-522" rx="28.6953" ry="18"/>
<text text-anchor="middle" x="2948" y="-518.3" font-family="Times New Roman,serif" font-size="14.00">9682</text>
</g>
<!-- 9681&#45;&#45;9682 -->
<g id="edge128" class="edge"><title>9681&#45;&#45;9682</title>
<path fill="none" stroke="black" d="M2948,-575.697C2948,-564.846 2948,-550.917 2948,-540.104"/>
</g>
<!-- 9685 -->
<g id="node66" class="node"><title>9685</title>
<ellipse fill="none" stroke="black" cx="3023" cy="-594" rx="28.6953" ry="18"/>
<text text-anchor="middle" x="3023" y="-590.3" font-family="Times New Roman,serif" font-size="14.00">9685</text>
</g>
<!-- 9686 -->
<g id="node67" class="node"><title>9686</title>
<ellipse fill="none" stroke="black" cx="3023" cy="-522" rx="28.6953" ry="18"/>
<text text-anchor="middle" x="3023" y="-518.3" font-family="Times New Roman,serif" font-size="14.00">9686</text>
</g>
<!-- 9685&#45;&#45;9686 -->
<g id="edge129" class="edge"><title>9685&#45;&#45;9686</title>
<path fill="none" stroke="black" d="M3023,-575.697C3023,-564.846 3023,-550.917 3023,-540.104"/>
</g>
<!-- 10217 -->
<g id="node68" class="node"><title>10217</title>
<ellipse fill="none" stroke="black" cx="3102" cy="-594" rx="32.4942" ry="18"/>
<text text-anchor="middle" x="3102" y="-590.3" font-family="Times New Roman,serif" font-size="14.00">10217</text>
</g>
<!-- 10218 -->
<g id="node69" class="node"><title>10218</title>
<ellipse fill="none" stroke="black" cx="3144" cy="-522" rx="32.4942" ry="18"/>
<text text-anchor="middle" x="3144" y="-518.3" font-family="Times New Roman,serif" font-size="14.00">10218</text>
</g>
<!-- 10217&#45;&#45;10218 -->
<g id="edge130" class="edge"><title>10217&#45;&#45;10218</title>
<path fill="none" stroke="black" d="M3111.74,-576.765C3118.43,-565.618 3127.28,-550.865 3134.02,-539.633"/>
</g>
<!-- 10659 -->
<g id="node70" class="node"><title>10659</title>
<ellipse fill="none" stroke="black" cx="3185" cy="-594" rx="32.4942" ry="18"/>
<text text-anchor="middle" x="3185" y="-590.3" font-family="Times New Roman,serif" font-size="14.00">10659</text>
</g>
<!-- 10659&#45;&#45;10218 -->
<g id="edge131" class="edge"><title>10659&#45;&#45;10218</title>
<path fill="none" stroke="black" d="M3175.49,-576.765C3168.96,-565.618 3160.32,-550.865 3153.74,-539.633"/>
</g>
</g>
</svg>
