<svg width="1972px" height="539px"
 viewBox="0.00 0.00 1478.99 404.00" xmlns="http://www.w3.org/2000/svg" xmlns:xlink="http://www.w3.org/1999/xlink">
<g id="graph0" class="graph" transform="scale(1.000022500562514 1.000022500562514) rotate(0) translate(4 400)">
<title>G</title>
<polygon fill="white" stroke="none" points="-4,4 -4,-400 1474.99,-400 1474.99,4 -4,4"/>
<!-- 2507 -->
<g id="node1" class="node"><title>2507</title>
<ellipse fill="cyan" stroke="cyan" cx="317.497" cy="-234" rx="28.6953" ry="18"/>
<text text-anchor="middle" x="317.497" y="-230.3" font-family="Times New Roman,serif" font-size="14.00">2507</text>
</g>
<!-- 2508 -->
<g id="node2" class="node"><title>2508</title>
<ellipse fill="cyan" stroke="cyan" cx="298.497" cy="-162" rx="28.6953" ry="18"/>
<text text-anchor="middle" x="298.497" y="-158.3" font-family="Times New Roman,serif" font-size="14.00">2508</text>
</g>
<!-- 2507&#45;&#45;2508 -->
<g id="edge1" class="edge"><title>2507&#45;&#45;2508</title>
<path fill="none" stroke="black" d="M312.898,-216.055C309.91,-205.049 306.033,-190.764 303.054,-179.789"/>
</g>
<!-- 2510 -->
<g id="node5" class="node"><title>2510</title>
<ellipse fill="cyan" stroke="cyan" cx="459.497" cy="-18" rx="28.6953" ry="18"/>
<text text-anchor="middle" x="459.497" y="-14.3" font-family="Times New Roman,serif" font-size="14.00">2510</text>
</g>
<!-- 2507&#45;&#45;2510 -->
<g id="edge2" class="edge"><title>2507&#45;&#45;2510</title>
<path fill="none" stroke="black" d="M326.838,-216.611C343.868,-187.053 381.531,-123.136 417.497,-72 426.683,-58.94 437.962,-44.7983 446.518,-34.41"/>
</g>
<!-- 2514 -->
<g id="node3" class="node"><title>2514</title>
<ellipse fill="cyan" stroke="cyan" cx="146.497" cy="-90" rx="28.6953" ry="18"/>
<text text-anchor="middle" x="146.497" y="-86.3" font-family="Times New Roman,serif" font-size="14.00">2514</text>
</g>
<!-- 2508&#45;&#45;2514 -->
<g id="edge3" class="edge"><title>2508&#45;&#45;2514</title>
<path fill="none" stroke="black" d="M276.069,-150.671C247.331,-137.437 197.8,-114.626 169.017,-101.371"/>
</g>
<!-- 2522 -->
<g id="node4" class="node"><title>2522</title>
<ellipse fill="cyan" stroke="cyan" cx="175.497" cy="-18" rx="28.6953" ry="18"/>
<text text-anchor="middle" x="175.497" y="-14.3" font-family="Times New Roman,serif" font-size="14.00">2522</text>
</g>
<!-- 2508&#45;&#45;2522 -->
<g id="edge4" class="edge"><title>2508&#45;&#45;2522</title>
<path fill="none" stroke="black" d="M285.334,-145.804C261.66,-118.473 212.171,-61.3386 188.566,-34.0872"/>
</g>
<!-- 2508&#45;&#45;2510 -->
<g id="edge5" class="edge"><title>2508&#45;&#45;2510</title>
<path fill="none" stroke="black" d="M310.65,-145.443C325.662,-126.78 352.534,-95.1182 379.497,-72 398.216,-55.9506 422.03,-40.7442 438.791,-30.7703"/>
</g>
<!-- 9692 -->
<g id="node6" class="node"><title>9692</title>
<ellipse fill="cyan" stroke="cyan" cx="298.497" cy="-90" rx="28.6953" ry="18"/>
<text text-anchor="middle" x="298.497" y="-86.3" font-family="Times New Roman,serif" font-size="14.00">9692</text>
</g>
<!-- 2508&#45;&#45;9692 -->
<g id="edge6" class="edge"><title>2508&#45;&#45;9692</title>
<path fill="none" stroke="black" d="M298.497,-143.697C298.497,-132.846 298.497,-118.917 298.497,-108.104"/>
</g>
<!-- 2514&#45;&#45;2522 -->
<g id="edge7" class="edge"><title>2514&#45;&#45;2522</title>
<path fill="none" stroke="black" d="M153.37,-72.411C157.926,-61.4141 163.886,-47.0274 168.472,-35.9562"/>
</g>
<!-- 2514&#45;&#45;2510 -->
<g id="edge8" class="edge"><title>2514&#45;&#45;2510</title>
<path fill="none" stroke="black" d="M172.914,-83.0922C231.867,-69.9077 373.622,-38.2052 432.819,-24.9663"/>
</g>
<!-- 2511 -->
<g id="node7" class="node"><title>2511</title>
<ellipse fill="cyan" stroke="cyan" cx="356.497" cy="-306" rx="28.6953" ry="18"/>
<text text-anchor="middle" x="356.497" y="-302.3" font-family="Times New Roman,serif" font-size="14.00">2511</text>
</g>
<!-- 2511&#45;&#45;2514 -->
<g id="edge10" class="edge"><title>2511&#45;&#45;2514</title>
<path fill="none" stroke="black" d="M336.074,-293.121C319.866,-283.198 297.088,-268.114 279.497,-252 227.9,-204.736 178.508,-137.229 157.322,-106.865"/>
</g>
<!-- 2511&#45;&#45;2510 -->
<g id="edge11" class="edge"><title>2511&#45;&#45;2510</title>
<path fill="none" stroke="black" d="M369.141,-289.448C385.417,-270.209 415.331,-237.383 446.497,-216 478.647,-193.942 501.881,-210.236 526.497,-180 557.133,-142.37 565.814,-114.554 542.497,-72 530.256,-49.6594 504.147,-35.3704 484.46,-27.3285"/>
</g>
<!-- 2512 -->
<g id="node8" class="node"><title>2512</title>
<ellipse fill="cyan" stroke="cyan" cx="602.497" cy="-162" rx="28.6953" ry="18"/>
<text text-anchor="middle" x="602.497" y="-158.3" font-family="Times New Roman,serif" font-size="14.00">2512</text>
</g>
<!-- 2511&#45;&#45;2512 -->
<g id="edge9" class="edge"><title>2511&#45;&#45;2512</title>
<path fill="none" stroke="black" d="M377.048,-293.137C423.469,-266.341 535.977,-201.398 582.178,-174.729"/>
</g>
<!-- 6692 -->
<g id="node9" class="node"><title>6692</title>
<ellipse fill="cyan" stroke="cyan" cx="184.497" cy="-234" rx="28.6953" ry="18"/>
<text text-anchor="middle" x="184.497" y="-230.3" font-family="Times New Roman,serif" font-size="14.00">6692</text>
</g>
<!-- 2511&#45;&#45;6692 -->
<g id="edge12" class="edge"><title>2511&#45;&#45;6692</title>
<path fill="none" stroke="black" d="M332.942,-295.414C300.004,-282.009 240.552,-257.813 207.768,-244.471"/>
</g>
<!-- 2512&#45;&#45;2510 -->
<g id="edge13" class="edge"><title>2512&#45;&#45;2510</title>
<path fill="none" stroke="black" d="M606.562,-144.127C610.183,-124.771 612.817,-93.0064 597.497,-72 572.016,-37.06 520.292,-25.154 487.911,-21.097"/>
</g>
<!-- 6692&#45;&#45;2514 -->
<g id="edge14" class="edge"><title>6692&#45;&#45;2514</title>
<path fill="none" stroke="black" d="M179.989,-216.153C172.675,-188.824 158.309,-135.14 151,-107.825"/>
</g>
<!-- 6692&#45;&#45;2510 -->
<g id="edge15" class="edge"><title>6692&#45;&#45;2510</title>
<path fill="none" stroke="black" d="M187.607,-216.001C194.544,-183.06 214.443,-110.401 260.497,-72 310.062,-30.6722 388.662,-21.2749 430.713,-19.3266"/>
</g>
<!-- 6968 -->
<g id="node10" class="node"><title>6968</title>
<ellipse fill="cyan" stroke="cyan" cx="32.4971" cy="-162" rx="28.6953" ry="18"/>
<text text-anchor="middle" x="32.4971" y="-158.3" font-family="Times New Roman,serif" font-size="14.00">6968</text>
</g>
<!-- 6692&#45;&#45;6968 -->
<g id="edge16" class="edge"><title>6692&#45;&#45;6968</title>
<path fill="none" stroke="black" d="M162.069,-222.671C133.331,-209.437 83.7997,-186.626 55.0173,-173.371"/>
</g>
<!-- 6968&#45;&#45;2514 -->
<g id="edge17" class="edge"><title>6968&#45;&#45;2514</title>
<path fill="none" stroke="black" d="M52.3544,-148.807C73.1508,-136.037 105.631,-116.093 126.485,-103.288"/>
</g>
<!-- 11054 -->
<g id="node11" class="node"><title>11054</title>
<ellipse fill="cyan" stroke="cyan" cx="32.4971" cy="-90" rx="32.4942" ry="18"/>
<text text-anchor="middle" x="32.4971" y="-86.3" font-family="Times New Roman,serif" font-size="14.00">11054</text>
</g>
<!-- 6968&#45;&#45;11054 -->
<g id="edge18" class="edge"><title>6968&#45;&#45;11054</title>
<path fill="none" stroke="black" d="M32.4971,-143.697C32.4971,-132.846 32.4971,-118.917 32.4971,-108.104"/>
</g>
<!-- 5339 -->
<g id="node12" class="node"><title>5339</title>
<ellipse fill="cyan" stroke="cyan" cx="753.497" cy="-378" rx="28.6953" ry="18"/>
<text text-anchor="middle" x="753.497" y="-374.3" font-family="Times New Roman,serif" font-size="14.00">5339</text>
</g>
<!-- 5340 -->
<g id="node13" class="node"><title>5340</title>
<ellipse fill="cyan" stroke="cyan" cx="786.497" cy="-306" rx="28.6953" ry="18"/>
<text text-anchor="middle" x="786.497" y="-302.3" font-family="Times New Roman,serif" font-size="14.00">5340</text>
</g>
<!-- 5339&#45;&#45;5340 -->
<g id="edge19" class="edge"><title>5339&#45;&#45;5340</title>
<path fill="none" stroke="black" d="M761.318,-360.411C766.578,-349.252 773.484,-334.604 778.733,-323.47"/>
</g>
<!-- 5342 -->
<g id="node14" class="node"><title>5342</title>
<ellipse fill="cyan" stroke="cyan" cx="716.497" cy="-234" rx="28.6953" ry="18"/>
<text text-anchor="middle" x="716.497" y="-230.3" font-family="Times New Roman,serif" font-size="14.00">5342</text>
</g>
<!-- 5339&#45;&#45;5342 -->
<g id="edge20" class="edge"><title>5339&#45;&#45;5342</title>
<path fill="none" stroke="black" d="M749.107,-360.153C741.986,-332.824 727.998,-279.14 720.881,-251.825"/>
</g>
<!-- 5340&#45;&#45;5342 -->
<g id="edge21" class="edge"><title>5340&#45;&#45;5342</title>
<path fill="none" stroke="black" d="M771.652,-290.155C759.773,-278.276 743.195,-261.697 731.321,-249.824"/>
</g>
<!-- 7274 -->
<g id="node15" class="node"><title>7274</title>
<ellipse fill="cyan" stroke="cyan" cx="791.497" cy="-234" rx="28.6953" ry="18"/>
<text text-anchor="middle" x="791.497" y="-230.3" font-family="Times New Roman,serif" font-size="14.00">7274</text>
</g>
<!-- 5340&#45;&#45;7274 -->
<g id="edge22" class="edge"><title>5340&#45;&#45;7274</title>
<path fill="none" stroke="black" d="M787.733,-287.697C788.508,-276.846 789.503,-262.917 790.275,-252.104"/>
</g>
<!-- 7276 -->
<g id="node16" class="node"><title>7276</title>
<ellipse fill="cyan" stroke="cyan" cx="819.497" cy="-162" rx="28.6953" ry="18"/>
<text text-anchor="middle" x="819.497" y="-158.3" font-family="Times New Roman,serif" font-size="14.00">7276</text>
</g>
<!-- 5340&#45;&#45;7276 -->
<g id="edge23" class="edge"><title>5340&#45;&#45;7276</title>
<path fill="none" stroke="black" d="M802.434,-290.993C812.312,-281.196 824.111,-267.188 829.497,-252 838.02,-227.967 831.519,-198.201 825.746,-179.91"/>
</g>
<!-- 7274&#45;&#45;7276 -->
<g id="edge24" class="edge"><title>7274&#45;&#45;7276</title>
<path fill="none" stroke="black" d="M798.133,-216.411C802.531,-205.414 808.286,-191.027 812.715,-179.956"/>
</g>
<!-- 5961 -->
<g id="node17" class="node"><title>5961</title>
<ellipse fill="cyan" stroke="cyan" cx="861.497" cy="-378" rx="28.6953" ry="18"/>
<text text-anchor="middle" x="861.497" y="-374.3" font-family="Times New Roman,serif" font-size="14.00">5961</text>
</g>
<!-- 5962 -->
<g id="node18" class="node"><title>5962</title>
<ellipse fill="cyan" stroke="cyan" cx="861.497" cy="-306" rx="28.6953" ry="18"/>
<text text-anchor="middle" x="861.497" y="-302.3" font-family="Times New Roman,serif" font-size="14.00">5962</text>
</g>
<!-- 5961&#45;&#45;5962 -->
<g id="edge25" class="edge"><title>5961&#45;&#45;5962</title>
<path fill="none" stroke="black" d="M861.497,-359.697C861.497,-348.846 861.497,-334.917 861.497,-324.104"/>
</g>
<!-- 6689 -->
<g id="node19" class="node"><title>6689</title>
<ellipse fill="cyan" stroke="cyan" cx="394.497" cy="-378" rx="28.6953" ry="18"/>
<text text-anchor="middle" x="394.497" y="-374.3" font-family="Times New Roman,serif" font-size="14.00">6689</text>
</g>
<!-- 6689&#45;&#45;2510 -->
<g id="edge28" class="edge"><title>6689&#45;&#45;2510</title>
<path fill="none" stroke="black" d="M422.857,-374.983C491.22,-368.429 659.497,-341.479 659.497,-235 659.497,-235 659.497,-235 659.497,-161 659.497,-117.261 650.185,-101.062 617.497,-72 580.415,-39.0302 522.107,-26.4486 487.655,-21.7349"/>
</g>
<!-- 6689&#45;&#45;2511 -->
<g id="edge26" class="edge"><title>6689&#45;&#45;2511</title>
<path fill="none" stroke="black" d="M385.684,-360.765C379.545,-349.456 371.391,-334.437 365.263,-323.147"/>
</g>
<!-- 6689&#45;&#45;6692 -->
<g id="edge27" class="edge"><title>6689&#45;&#45;6692</title>
<path fill="none" stroke="black" d="M375.491,-364.148C335.509,-337.113 243.121,-274.641 203.309,-247.721"/>
</g>
<!-- 7562 -->
<g id="node20" class="node"><title>7562</title>
<ellipse fill="cyan" stroke="cyan" cx="431.497" cy="-306" rx="28.6953" ry="18"/>
<text text-anchor="middle" x="431.497" y="-302.3" font-family="Times New Roman,serif" font-size="14.00">7562</text>
</g>
<!-- 6689&#45;&#45;7562 -->
<g id="edge29" class="edge"><title>6689&#45;&#45;7562</title>
<path fill="none" stroke="black" d="M403.079,-360.765C408.971,-349.618 416.768,-334.865 422.705,-323.633"/>
</g>
<!-- 7562&#45;&#45;2510 -->
<g id="edge30" class="edge"><title>7562&#45;&#45;2510</title>
<path fill="none" stroke="black" d="M432.377,-287.992C434.48,-249.448 440.394,-152.54 450.497,-72 452.007,-59.9613 454.304,-46.4821 456.2,-36.1299"/>
</g>
<!-- 6701 -->
<g id="node21" class="node"><title>6701</title>
<ellipse fill="cyan" stroke="cyan" cx="488.497" cy="-162" rx="28.6953" ry="18"/>
<text text-anchor="middle" x="488.497" y="-158.3" font-family="Times New Roman,serif" font-size="14.00">6701</text>
</g>
<!-- 6701&#45;&#45;2510 -->
<g id="edge32" class="edge"><title>6701&#45;&#45;2510</title>
<path fill="none" stroke="black" d="M502.694,-146.32C518.1,-128.52 538.94,-97.7085 526.497,-72 517.257,-52.9097 497.434,-38.6094 481.735,-29.7045"/>
</g>
<!-- 6702 -->
<g id="node22" class="node"><title>6702</title>
<ellipse fill="cyan" stroke="cyan" cx="488.497" cy="-90" rx="28.6953" ry="18"/>
<text text-anchor="middle" x="488.497" y="-86.3" font-family="Times New Roman,serif" font-size="14.00">6702</text>
</g>
<!-- 6701&#45;&#45;6702 -->
<g id="edge31" class="edge"><title>6701&#45;&#45;6702</title>
<path fill="none" stroke="black" d="M488.497,-143.697C488.497,-132.846 488.497,-118.917 488.497,-108.104"/>
</g>
<!-- 6702&#45;&#45;2510 -->
<g id="edge33" class="edge"><title>6702&#45;&#45;2510</title>
<path fill="none" stroke="black" d="M481.625,-72.411C477.069,-61.4141 471.108,-47.0274 466.522,-35.9562"/>
</g>
<!-- 6965 -->
<g id="node23" class="node"><title>6965</title>
<ellipse fill="cyan" stroke="cyan" cx="70.4971" cy="-306" rx="28.6953" ry="18"/>
<text text-anchor="middle" x="70.4971" y="-302.3" font-family="Times New Roman,serif" font-size="14.00">6965</text>
</g>
<!-- 6965&#45;&#45;2514 -->
<g id="edge36" class="edge"><title>6965&#45;&#45;2514</title>
<path fill="none" stroke="black" d="M83.8821,-289.771C92.0982,-279.684 102.215,-265.81 108.497,-252 130.972,-202.592 140.974,-138.383 144.669,-108.159"/>
</g>
<!-- 6965&#45;&#45;6968 -->
<g id="edge35" class="edge"><title>6965&#45;&#45;6968</title>
<path fill="none" stroke="black" d="M55.9954,-290.203C47.3339,-280.288 37.14,-266.444 32.4971,-252 24.7896,-228.023 26.8971,-198.497 29.4456,-180.21"/>
</g>
<!-- 6966 -->
<g id="node24" class="node"><title>6966</title>
<ellipse fill="cyan" stroke="cyan" cx="70.4971" cy="-234" rx="28.6953" ry="18"/>
<text text-anchor="middle" x="70.4971" y="-230.3" font-family="Times New Roman,serif" font-size="14.00">6966</text>
</g>
<!-- 6965&#45;&#45;6966 -->
<g id="edge34" class="edge"><title>6965&#45;&#45;6966</title>
<path fill="none" stroke="black" d="M70.4971,-287.697C70.4971,-276.846 70.4971,-262.917 70.4971,-252.104"/>
</g>
<!-- 6966&#45;&#45;2514 -->
<g id="edge38" class="edge"><title>6966&#45;&#45;2514</title>
<path fill="none" stroke="black" d="M77.905,-216.329C86.0904,-198.243 99.9186,-168.65 113.497,-144 120.505,-131.278 129.218,-117.353 135.931,-106.97"/>
</g>
<!-- 6966&#45;&#45;6968 -->
<g id="edge37" class="edge"><title>6966&#45;&#45;6968</title>
<path fill="none" stroke="black" d="M61.6836,-216.765C55.5446,-205.456 47.3913,-190.437 41.2628,-179.147"/>
</g>
<!-- 9321 -->
<g id="node25" class="node"><title>9321</title>
<ellipse fill="cyan" stroke="cyan" cx="936.497" cy="-378" rx="28.6953" ry="18"/>
<text text-anchor="middle" x="936.497" y="-374.3" font-family="Times New Roman,serif" font-size="14.00">9321</text>
</g>
<!-- 9322 -->
<g id="node26" class="node"><title>9322</title>
<ellipse fill="cyan" stroke="cyan" cx="936.497" cy="-306" rx="28.6953" ry="18"/>
<text text-anchor="middle" x="936.497" y="-302.3" font-family="Times New Roman,serif" font-size="14.00">9322</text>
</g>
<!-- 9321&#45;&#45;9322 -->
<g id="edge39" class="edge"><title>9321&#45;&#45;9322</title>
<path fill="none" stroke="black" d="M936.497,-359.697C936.497,-348.846 936.497,-334.917 936.497,-324.104"/>
</g>
<!-- 10457 -->
<g id="node27" class="node"><title>10457</title>
<ellipse fill="cyan" stroke="cyan" cx="1126.5" cy="-378" rx="32.4942" ry="18"/>
<text text-anchor="middle" x="1126.5" y="-374.3" font-family="Times New Roman,serif" font-size="14.00">10457</text>
</g>
<!-- 10458 -->
<g id="node28" class="node"><title>10458</title>
<ellipse fill="cyan" stroke="cyan" cx="1126.5" cy="-306" rx="32.4942" ry="18"/>
<text text-anchor="middle" x="1126.5" y="-302.3" font-family="Times New Roman,serif" font-size="14.00">10458</text>
</g>
<!-- 10457&#45;&#45;10458 -->
<g id="edge40" class="edge"><title>10457&#45;&#45;10458</title>
<path fill="none" stroke="black" d="M1126.5,-359.697C1126.5,-348.846 1126.5,-334.917 1126.5,-324.104"/>
</g>
<!-- 10460 -->
<g id="node29" class="node"><title>10460</title>
<ellipse fill="cyan" stroke="cyan" cx="1205.5" cy="-234" rx="32.4942" ry="18"/>
<text text-anchor="middle" x="1205.5" y="-230.3" font-family="Times New Roman,serif" font-size="14.00">10460</text>
</g>
<!-- 10457&#45;&#45;10460 -->
<g id="edge41" class="edge"><title>10457&#45;&#45;10460</title>
<path fill="none" stroke="black" d="M1140.18,-361.521C1148.74,-351.333 1159.6,-337.442 1167.5,-324 1181.45,-300.24 1193.12,-270.397 1199.71,-252.016"/>
</g>
<!-- 10462 -->
<g id="node30" class="node"><title>10462</title>
<ellipse fill="cyan" stroke="cyan" cx="1205.5" cy="-162" rx="32.4942" ry="18"/>
<text text-anchor="middle" x="1205.5" y="-158.3" font-family="Times New Roman,serif" font-size="14.00">10462</text>
</g>
<!-- 10457&#45;&#45;10462 -->
<g id="edge42" class="edge"><title>10457&#45;&#45;10462</title>
<path fill="none" stroke="black" d="M1147.3,-364.033C1176.74,-344.209 1228.92,-303.218 1246.5,-252 1251.69,-236.866 1251.67,-231.141 1246.5,-216 1241.53,-201.469 1230.79,-187.832 1221.54,-178.03"/>
</g>
<!-- 10464 -->
<g id="node31" class="node"><title>10464</title>
<ellipse fill="cyan" stroke="cyan" cx="1137.5" cy="-90" rx="32.4942" ry="18"/>
<text text-anchor="middle" x="1137.5" y="-86.3" font-family="Times New Roman,serif" font-size="14.00">10464</text>
</g>
<!-- 10457&#45;&#45;10464 -->
<g id="edge43" class="edge"><title>10457&#45;&#45;10464</title>
<path fill="none" stroke="black" d="M1110.45,-361.97C1101.21,-352.168 1090.46,-338.531 1085.5,-324 1080.32,-308.859 1083.44,-303.867 1085.5,-288 1094.35,-219.772 1119.77,-141.501 1131.47,-107.833"/>
</g>
<!-- 10466 -->
<g id="node32" class="node"><title>10466</title>
<ellipse fill="cyan" stroke="cyan" cx="1137.5" cy="-18" rx="32.4942" ry="18"/>
<text text-anchor="middle" x="1137.5" y="-14.3" font-family="Times New Roman,serif" font-size="14.00">10466</text>
</g>
<!-- 10457&#45;&#45;10466 -->
<g id="edge44" class="edge"><title>10457&#45;&#45;10466</title>
<path fill="none" stroke="black" d="M1103.03,-365.544C1064.84,-345.068 993.497,-298.333 993.497,-235 993.497,-235 993.497,-235 993.497,-161 993.497,-94.9919 1071.16,-49.3517 1112.41,-29.7626"/>
</g>
<!-- 10458&#45;&#45;10460 -->
<g id="edge45" class="edge"><title>10458&#45;&#45;10460</title>
<path fill="none" stroke="black" d="M1143.25,-290.155C1156.75,-278.195 1175.62,-261.473 1189.04,-249.584"/>
</g>
<!-- 10458&#45;&#45;10462 -->
<g id="edge46" class="edge"><title>10458&#45;&#45;10462</title>
<path fill="none" stroke="black" d="M1132.29,-287.984C1138.87,-269.603 1150.54,-239.76 1164.5,-216 1172.39,-202.558 1183.25,-188.667 1191.82,-178.479"/>
</g>
<!-- 10458&#45;&#45;10464 -->
<g id="edge47" class="edge"><title>10458&#45;&#45;10464</title>
<path fill="none" stroke="black" d="M1127.38,-287.849C1129.44,-247.78 1134.55,-148.383 1136.61,-108.232"/>
</g>
<!-- 10458&#45;&#45;10466 -->
<g id="edge48" class="edge"><title>10458&#45;&#45;10466</title>
<path fill="none" stroke="black" d="M1119.38,-288.39C1103.77,-249.466 1069.93,-149.769 1096.5,-72 1101.46,-57.4688 1112.21,-43.8318 1121.45,-34.0303"/>
</g>
<!-- 10460&#45;&#45;10462 -->
<g id="edge49" class="edge"><title>10460&#45;&#45;10462</title>
<path fill="none" stroke="black" d="M1205.5,-215.697C1205.5,-204.846 1205.5,-190.917 1205.5,-180.104"/>
</g>
<!-- 10460&#45;&#45;10464 -->
<g id="edge50" class="edge"><title>10460&#45;&#45;10464</title>
<path fill="none" stroke="black" d="M1191.31,-217.8C1182.55,-207.724 1171.65,-193.852 1164.5,-180 1152.35,-156.469 1144.69,-126.561 1140.75,-108.104"/>
</g>
<!-- 10460&#45;&#45;10466 -->
<g id="edge51" class="edge"><title>10460&#45;&#45;10466</title>
<path fill="none" stroke="black" d="M1221.54,-217.97C1230.79,-208.168 1241.53,-194.531 1246.5,-180 1251.67,-164.859 1250.98,-159.358 1246.5,-144 1232.04,-94.5284 1184.51,-53.1264 1157.23,-32.6961"/>
</g>
<!-- 10462&#45;&#45;10464 -->
<g id="edge52" class="edge"><title>10462&#45;&#45;10464</title>
<path fill="none" stroke="black" d="M1190.74,-145.811C1179.34,-134.07 1163.62,-117.893 1152.22,-106.159"/>
</g>
<!-- 10462&#45;&#45;10466 -->
<g id="edge53" class="edge"><title>10462&#45;&#45;10466</title>
<path fill="none" stroke="black" d="M1202.25,-143.896C1198.31,-125.439 1190.64,-95.5311 1178.5,-72 1171.35,-58.1478 1160.45,-44.2759 1151.69,-34.2001"/>
</g>
<!-- 10464&#45;&#45;10466 -->
<g id="edge54" class="edge"><title>10464&#45;&#45;10466</title>
<path fill="none" stroke="black" d="M1137.5,-71.6966C1137.5,-60.8463 1137.5,-46.9167 1137.5,-36.1043"/>
</g>
<!-- 10697 -->
<g id="node33" class="node"><title>10697</title>
<ellipse fill="cyan" stroke="cyan" cx="1325.5" cy="-378" rx="32.4942" ry="18"/>
<text text-anchor="middle" x="1325.5" y="-374.3" font-family="Times New Roman,serif" font-size="14.00">10697</text>
</g>
<!-- 10698 -->
<g id="node34" class="node"><title>10698</title>
<ellipse fill="cyan" stroke="cyan" cx="1325.5" cy="-306" rx="32.4942" ry="18"/>
<text text-anchor="middle" x="1325.5" y="-302.3" font-family="Times New Roman,serif" font-size="14.00">10698</text>
</g>
<!-- 10697&#45;&#45;10698 -->
<g id="edge55" class="edge"><title>10697&#45;&#45;10698</title>
<path fill="none" stroke="black" d="M1325.5,-359.697C1325.5,-348.846 1325.5,-334.917 1325.5,-324.104"/>
</g>
<!-- 11099 -->
<g id="node35" class="node"><title>11099</title>
<ellipse fill="cyan" stroke="cyan" cx="1438.5" cy="-378" rx="32.4942" ry="18"/>
<text text-anchor="middle" x="1438.5" y="-374.3" font-family="Times New Roman,serif" font-size="14.00">11099</text>
</g>
<!-- 11100 -->
<g id="node36" class="node"><title>11100</title>
<ellipse fill="cyan" stroke="cyan" cx="1408.5" cy="-306" rx="32.4942" ry="18"/>
<text text-anchor="middle" x="1408.5" y="-302.3" font-family="Times New Roman,serif" font-size="14.00">11100</text>
</g>
<!-- 11099&#45;&#45;11100 -->
<g id="edge56" class="edge"><title>11099&#45;&#45;11100</title>
<path fill="none" stroke="black" d="M1431.39,-360.411C1426.67,-349.414 1420.51,-335.027 1415.76,-323.956"/>
</g>
<!-- 11102 -->
<g id="node37" class="node"><title>11102</title>
<ellipse fill="cyan" stroke="cyan" cx="1438.5" cy="-234" rx="32.4942" ry="18"/>
<text text-anchor="middle" x="1438.5" y="-230.3" font-family="Times New Roman,serif" font-size="14.00">11102</text>
</g>
<!-- 11099&#45;&#45;11102 -->
<g id="edge57" class="edge"><title>11099&#45;&#45;11102</title>
<path fill="none" stroke="black" d="M1442.96,-359.953C1445.43,-349.63 1448.25,-336.153 1449.5,-324 1451.13,-308.084 1451.13,-303.916 1449.5,-288 1448.25,-275.847 1445.43,-262.37 1442.96,-252.047"/>
</g>
<!-- 11100&#45;&#45;11102 -->
<g id="edge58" class="edge"><title>11100&#45;&#45;11102</title>
<path fill="none" stroke="black" d="M1415.61,-288.411C1420.32,-277.414 1426.49,-263.027 1431.23,-251.956"/>
</g>
</g>
</svg>
