<svg width="4106px" height="731px"
 viewBox="0.00 0.00 3079.19 548.00" xmlns="http://www.w3.org/2000/svg" xmlns:xlink="http://www.w3.org/1999/xlink">
<g id="graph0" class="graph" transform="scale(1.000022500562514 1.000022500562514) rotate(0) translate(4 544)">
<title>G</title>
<polygon fill="white" stroke="none" points="-4,4 -4,-544 3075.19,-544 3075.19,4 -4,4"/>
<!-- 217 -->
<g id="node1" class="node"><title>217</title>
<ellipse fill="none" stroke="black" cx="56.5975" cy="-378" rx="27" ry="18"/>
<text text-anchor="middle" x="56.5975" y="-374.3" font-family="Times New Roman,serif" font-size="14.00">217</text>
</g>
<!-- 218 -->
<g id="node2" class="node"><title>218</title>
<ellipse fill="none" stroke="black" cx="84.5975" cy="-306" rx="27" ry="18"/>
<text text-anchor="middle" x="84.5975" y="-302.3" font-family="Times New Roman,serif" font-size="14.00">218</text>
</g>
<!-- 217&#45;&#45;218 -->
<g id="edge1" class="edge"><title>217&#45;&#45;218</title>
<path fill="none" stroke="black" d="M63.2331,-360.411C67.6965,-349.252 73.556,-334.604 78.0095,-323.47"/>
</g>
<!-- 220 -->
<g id="node3" class="node"><title>220</title>
<ellipse fill="none" stroke="black" cx="56.5975" cy="-234" rx="27" ry="18"/>
<text text-anchor="middle" x="56.5975" y="-230.3" font-family="Times New Roman,serif" font-size="14.00">220</text>
</g>
<!-- 217&#45;&#45;220 -->
<g id="edge2" class="edge"><title>217&#45;&#45;220</title>
<path fill="none" stroke="black" d="M53.3491,-359.888C51.5516,-349.542 49.5028,-336.063 48.5975,-324 47.4001,-308.045 47.4001,-303.955 48.5975,-288 49.5028,-275.937 51.5516,-262.458 53.3491,-252.112"/>
</g>
<!-- 218&#45;&#45;220 -->
<g id="edge3" class="edge"><title>218&#45;&#45;220</title>
<path fill="none" stroke="black" d="M77.9619,-288.411C73.4984,-277.252 67.6389,-262.604 63.1854,-251.47"/>
</g>
<!-- 617 -->
<g id="node4" class="node"><title>617</title>
<ellipse fill="none" stroke="black" cx="646.597" cy="-522" rx="27" ry="18"/>
<text text-anchor="middle" x="646.597" y="-518.3" font-family="Times New Roman,serif" font-size="14.00">617</text>
</g>
<!-- 618 -->
<g id="node5" class="node"><title>618</title>
<ellipse fill="none" stroke="black" cx="619.597" cy="-450" rx="27" ry="18"/>
<text text-anchor="middle" x="619.597" y="-446.3" font-family="Times New Roman,serif" font-size="14.00">618</text>
</g>
<!-- 617&#45;&#45;618 -->
<g id="edge4" class="edge"><title>617&#45;&#45;618</title>
<path fill="none" stroke="black" d="M640.199,-504.411C635.957,-493.414 630.408,-479.027 626.138,-467.956"/>
</g>
<!-- 620 -->
<g id="node6" class="node"><title>620</title>
<ellipse fill="none" stroke="black" cx="656.597" cy="-378" rx="27" ry="18"/>
<text text-anchor="middle" x="656.597" y="-374.3" font-family="Times New Roman,serif" font-size="14.00">620</text>
</g>
<!-- 617&#45;&#45;620 -->
<g id="edge5" class="edge"><title>617&#45;&#45;620</title>
<path fill="none" stroke="black" d="M650.202,-503.903C652.206,-493.563 654.51,-480.084 655.597,-468 657.84,-443.068 657.645,-414.05 657.199,-396.102"/>
</g>
<!-- 618&#45;&#45;620 -->
<g id="edge6" class="edge"><title>618&#45;&#45;620</title>
<path fill="none" stroke="black" d="M628.179,-432.765C634.156,-421.456 642.095,-406.437 648.062,-395.147"/>
</g>
<!-- 1111 -->
<g id="node7" class="node"><title>1111</title>
<ellipse fill="none" stroke="black" cx="28.5975" cy="-522" rx="28.6953" ry="18"/>
<text text-anchor="middle" x="28.5975" y="-518.3" font-family="Times New Roman,serif" font-size="14.00">1111</text>
</g>
<!-- 1111&#45;&#45;217 -->
<g id="edge8" class="edge"><title>1111&#45;&#45;217</title>
<path fill="none" stroke="black" d="M31.9749,-503.871C37.3566,-476.578 47.8188,-423.52 53.208,-396.189"/>
</g>
<!-- 1111&#45;&#45;218 -->
<g id="edge9" class="edge"><title>1111&#45;&#45;218</title>
<path fill="none" stroke="black" d="M22.7644,-504.009C13.3367,-473.497 -2.03039,-408.118 20.5975,-360 29.4379,-341.201 48.5828,-326.781 63.6425,-317.762"/>
</g>
<!-- 1111&#45;&#45;220 -->
<g id="edge10" class="edge"><title>1111&#45;&#45;220</title>
<path fill="none" stroke="black" d="M19.5309,-504.866C14.32,-494.65 8.28909,-480.964 5.59746,-468 2.75658,-454.317 2.47067,-380.655 6.59746,-360 14.7486,-319.202 35.7375,-274.706 47.771,-251.379"/>
</g>
<!-- 1112 -->
<g id="node8" class="node"><title>1112</title>
<ellipse fill="cyan" stroke="cyan" cx="225.597" cy="-450" rx="28.6953" ry="18"/>
<text text-anchor="middle" x="225.597" y="-446.3" font-family="Times New Roman,serif" font-size="14.00">1112</text>
</g>
<!-- 1111&#45;&#45;1112 -->
<g id="edge7" class="edge"><title>1111&#45;&#45;1112</title>
<path fill="none" stroke="black" d="M53.1493,-512.276C91.106,-498.789 163.587,-473.034 201.355,-459.614"/>
</g>
<!-- 1112&#45;&#45;217 -->
<g id="edge11" class="edge"><title>1112&#45;&#45;217</title>
<path fill="none" stroke="black" d="M202.005,-439.235C176.321,-428.604 134.038,-411.099 97.5975,-396 91.6177,-393.522 85.1478,-390.84 79.1533,-388.355"/>
</g>
<!-- 1112&#45;&#45;218 -->
<g id="edge12" class="edge"><title>1112&#45;&#45;218</title>
<path fill="none" stroke="black" d="M201.189,-440.075C180.317,-431.438 150.571,-416.619 130.597,-396 110.267,-375.012 96.8097,-343.241 89.9602,-323.879"/>
</g>
<!-- 1112&#45;&#45;220 -->
<g id="edge13" class="edge"><title>1112&#45;&#45;220</title>
<path fill="none" stroke="black" d="M225.2,-431.723C224.052,-412.849 220.046,-382.332 206.597,-360 174.157,-306.132 109.971,-264.698 77.0789,-245.963"/>
</g>
<!-- 1432 -->
<g id="node9" class="node"><title>1432</title>
<ellipse fill="cyan" stroke="cyan" cx="470.597" cy="-306" rx="28.6953" ry="18"/>
<text text-anchor="middle" x="470.597" y="-302.3" font-family="Times New Roman,serif" font-size="14.00">1432</text>
</g>
<!-- 1112&#45;&#45;1432 -->
<g id="edge14" class="edge"><title>1112&#45;&#45;1432</title>
<path fill="none" stroke="black" d="M231.94,-432.261C240.428,-412.119 257.393,-378.687 282.597,-360 330.95,-324.151 402.632,-312.535 442.046,-308.782"/>
</g>
<!-- 6024 -->
<g id="node10" class="node"><title>6024</title>
<ellipse fill="none" stroke="black" cx="168.597" cy="-378" rx="28.6953" ry="18"/>
<text text-anchor="middle" x="168.597" y="-374.3" font-family="Times New Roman,serif" font-size="14.00">6024</text>
</g>
<!-- 1112&#45;&#45;6024 -->
<g id="edge15" class="edge"><title>1112&#45;&#45;6024</title>
<path fill="none" stroke="black" d="M212.947,-433.465C203.501,-421.865 190.65,-406.082 181.212,-394.492"/>
</g>
<!-- 6026 -->
<g id="node11" class="node"><title>6026</title>
<ellipse fill="none" stroke="black" cx="320.597" cy="-378" rx="28.6953" ry="18"/>
<text text-anchor="middle" x="320.597" y="-374.3" font-family="Times New Roman,serif" font-size="14.00">6026</text>
</g>
<!-- 1112&#45;&#45;6026 -->
<g id="edge16" class="edge"><title>1112&#45;&#45;6026</title>
<path fill="none" stroke="black" d="M243.466,-435.834C260.451,-423.319 285.851,-404.603 302.809,-392.107"/>
</g>
<!-- 6028 -->
<g id="node12" class="node"><title>6028</title>
<ellipse fill="none" stroke="black" cx="395.597" cy="-378" rx="28.6953" ry="18"/>
<text text-anchor="middle" x="395.597" y="-374.3" font-family="Times New Roman,serif" font-size="14.00">6028</text>
</g>
<!-- 1112&#45;&#45;6028 -->
<g id="edge17" class="edge"><title>1112&#45;&#45;6028</title>
<path fill="none" stroke="black" d="M249.777,-439.795C276.547,-429.505 320.902,-412.158 358.597,-396 363.406,-393.939 368.526,-391.649 373.375,-389.435"/>
</g>
<!-- 9678 -->
<g id="node13" class="node"><title>9678</title>
<ellipse fill="none" stroke="black" cx="470.597" cy="-378" rx="28.6953" ry="18"/>
<text text-anchor="middle" x="470.597" y="-374.3" font-family="Times New Roman,serif" font-size="14.00">9678</text>
</g>
<!-- 1112&#45;&#45;9678 -->
<g id="edge18" class="edge"><title>1112&#45;&#45;9678</title>
<path fill="none" stroke="black" d="M252.655,-443.744C292.791,-435.583 370.187,-418.437 433.597,-396 438.529,-394.255 443.701,-392.098 448.563,-389.914"/>
</g>
<!-- 9678&#45;&#45;1432 -->
<g id="edge19" class="edge"><title>9678&#45;&#45;1432</title>
<path fill="none" stroke="black" d="M470.597,-359.697C470.597,-348.846 470.597,-334.917 470.597,-324.104"/>
</g>
<!-- 1429 -->
<g id="node14" class="node"><title>1429</title>
<ellipse fill="none" stroke="black" cx="545.597" cy="-450" rx="28.6953" ry="18"/>
<text text-anchor="middle" x="545.597" y="-446.3" font-family="Times New Roman,serif" font-size="14.00">1429</text>
</g>
<!-- 1430 -->
<g id="node15" class="node"><title>1430</title>
<ellipse fill="cyan" stroke="cyan" cx="545.597" cy="-378" rx="28.6953" ry="18"/>
<text text-anchor="middle" x="545.597" y="-374.3" font-family="Times New Roman,serif" font-size="14.00">1430</text>
</g>
<!-- 1429&#45;&#45;1430 -->
<g id="edge20" class="edge"><title>1429&#45;&#45;1430</title>
<path fill="none" stroke="black" d="M545.597,-431.697C545.597,-420.846 545.597,-406.917 545.597,-396.104"/>
</g>
<!-- 1430&#45;&#45;1432 -->
<g id="edge21" class="edge"><title>1430&#45;&#45;1432</title>
<path fill="none" stroke="black" d="M530.057,-362.496C517.1,-350.402 498.741,-333.267 485.861,-321.246"/>
</g>
<!-- 2359 -->
<g id="node16" class="node"><title>2359</title>
<ellipse fill="cyan" stroke="cyan" cx="958.597" cy="-522" rx="28.6953" ry="18"/>
<text text-anchor="middle" x="958.597" y="-518.3" font-family="Times New Roman,serif" font-size="14.00">2359</text>
</g>
<!-- 2360 -->
<g id="node17" class="node"><title>2360</title>
<ellipse fill="cyan" stroke="cyan" cx="1015.6" cy="-450" rx="28.6953" ry="18"/>
<text text-anchor="middle" x="1015.6" y="-446.3" font-family="Times New Roman,serif" font-size="14.00">2360</text>
</g>
<!-- 2359&#45;&#45;2360 -->
<g id="edge22" class="edge"><title>2359&#45;&#45;2360</title>
<path fill="none" stroke="black" d="M971.248,-505.465C980.693,-493.865 993.545,-478.082 1002.98,-466.492"/>
</g>
<!-- 2362 -->
<g id="node18" class="node"><title>2362</title>
<ellipse fill="cyan" stroke="cyan" cx="1091.6" cy="-378" rx="28.6953" ry="18"/>
<text text-anchor="middle" x="1091.6" y="-374.3" font-family="Times New Roman,serif" font-size="14.00">2362</text>
</g>
<!-- 2359&#45;&#45;2362 -->
<g id="edge23" class="edge"><title>2359&#45;&#45;2362</title>
<path fill="none" stroke="black" d="M983.387,-512.431C1004.5,-504.023 1034.4,-489.339 1053.6,-468 1072.48,-447.018 1082.94,-415.246 1087.91,-395.882"/>
</g>
<!-- 2364 -->
<g id="node19" class="node"><title>2364</title>
<ellipse fill="cyan" stroke="cyan" cx="901.597" cy="-306" rx="28.6953" ry="18"/>
<text text-anchor="middle" x="901.597" y="-302.3" font-family="Times New Roman,serif" font-size="14.00">2364</text>
</g>
<!-- 2359&#45;&#45;2364 -->
<g id="edge24" class="edge"><title>2359&#45;&#45;2364</title>
<path fill="none" stroke="black" d="M954.125,-504.208C943.496,-464.302 916.816,-364.134 906.128,-324.01"/>
</g>
<!-- 2366 -->
<g id="node20" class="node"><title>2366</title>
<ellipse fill="cyan" stroke="cyan" cx="977.597" cy="-234" rx="28.6953" ry="18"/>
<text text-anchor="middle" x="977.597" y="-230.3" font-family="Times New Roman,serif" font-size="14.00">2366</text>
</g>
<!-- 2359&#45;&#45;2366 -->
<g id="edge25" class="edge"><title>2359&#45;&#45;2366</title>
<path fill="none" stroke="black" d="M959.729,-503.966C963.1,-453.218 973.053,-303.407 976.448,-252.306"/>
</g>
<!-- 2368 -->
<g id="node21" class="node"><title>2368</title>
<ellipse fill="cyan" stroke="cyan" cx="1034.6" cy="-162" rx="28.6953" ry="18"/>
<text text-anchor="middle" x="1034.6" y="-158.3" font-family="Times New Roman,serif" font-size="14.00">2368</text>
</g>
<!-- 2359&#45;&#45;2368 -->
<g id="edge26" class="edge"><title>2359&#45;&#45;2368</title>
<path fill="none" stroke="black" d="M984.663,-513.959C1010.56,-505.998 1050.38,-491.06 1078.6,-468 1108.96,-443.184 1117.7,-433.367 1129.6,-396 1156.49,-311.498 1081,-214.5 1048.59,-177.96"/>
</g>
<!-- 2370 -->
<g id="node22" class="node"><title>2370</title>
<ellipse fill="cyan" stroke="cyan" cx="920.597" cy="-90" rx="28.6953" ry="18"/>
<text text-anchor="middle" x="920.597" y="-86.3" font-family="Times New Roman,serif" font-size="14.00">2370</text>
</g>
<!-- 2359&#45;&#45;2370 -->
<g id="edge27" class="edge"><title>2359&#45;&#45;2370</title>
<path fill="none" stroke="black" d="M932.179,-514.557C879.972,-500.072 768.597,-459.714 768.597,-379 768.597,-379 768.597,-379 768.597,-233 768.597,-163.663 854.097,-118.457 896.847,-100.187"/>
</g>
<!-- 2372 -->
<g id="node23" class="node"><title>2372</title>
<ellipse fill="cyan" stroke="cyan" cx="977.597" cy="-18" rx="28.6953" ry="18"/>
<text text-anchor="middle" x="977.597" y="-14.3" font-family="Times New Roman,serif" font-size="14.00">2372</text>
</g>
<!-- 2359&#45;&#45;2372 -->
<g id="edge28" class="edge"><title>2359&#45;&#45;2372</title>
<path fill="none" stroke="black" d="M930.468,-518.623C893.523,-514.223 828.236,-501.907 784.597,-468 748.062,-439.613 730.597,-425.267 730.597,-379 730.597,-379 730.597,-379 730.597,-161 730.597,-61.0841 884.385,-30.436 949.263,-21.952"/>
</g>
<!-- 2360&#45;&#45;2362 -->
<g id="edge29" class="edge"><title>2360&#45;&#45;2362</title>
<path fill="none" stroke="black" d="M1031.34,-434.496C1044.48,-422.402 1063.08,-405.267 1076.13,-393.246"/>
</g>
<!-- 2360&#45;&#45;2364 -->
<g id="edge30" class="edge"><title>2360&#45;&#45;2364</title>
<path fill="none" stroke="black" d="M1003.18,-433.533C981.252,-406.218 935.917,-349.749 913.999,-322.448"/>
</g>
<!-- 2360&#45;&#45;2366 -->
<g id="edge31" class="edge"><title>2360&#45;&#45;2366</title>
<path fill="none" stroke="black" d="M1012.55,-431.849C1005.42,-391.68 987.699,-291.89 980.605,-251.935"/>
</g>
<!-- 2360&#45;&#45;2368 -->
<g id="edge32" class="edge"><title>2360&#45;&#45;2368</title>
<path fill="none" stroke="black" d="M1016.73,-431.966C1020.1,-381.218 1030.05,-231.407 1033.45,-180.306"/>
</g>
<!-- 2360&#45;&#45;2370 -->
<g id="edge33" class="edge"><title>2360&#45;&#45;2370</title>
<path fill="none" stroke="black" d="M990.366,-441.221C942.799,-424.809 844.597,-381.863 844.597,-307 844.597,-307 844.597,-307 844.597,-233 844.597,-181.271 884.287,-130.15 906.302,-105.772"/>
</g>
<!-- 2360&#45;&#45;2372 -->
<g id="edge34" class="edge"><title>2360&#45;&#45;2372</title>
<path fill="none" stroke="black" d="M1043.93,-446.048C1108.81,-437.564 1262.6,-406.916 1262.6,-307 1262.6,-307 1262.6,-307 1262.6,-161 1262.6,-47.2601 1078.5,-24.6231 1006.23,-20.1187"/>
</g>
<!-- 2362&#45;&#45;2364 -->
<g id="edge35" class="edge"><title>2362&#45;&#45;2364</title>
<path fill="none" stroke="black" d="M1067.53,-368.134C1031.09,-354.706 962.274,-329.355 925.765,-315.904"/>
</g>
<!-- 2362&#45;&#45;2366 -->
<g id="edge36" class="edge"><title>2362&#45;&#45;2366</title>
<path fill="none" stroke="black" d="M1079.18,-361.533C1057.25,-334.218 1011.92,-277.749 989.999,-250.448"/>
</g>
<!-- 2362&#45;&#45;2368 -->
<g id="edge37" class="edge"><title>2362&#45;&#45;2368</title>
<path fill="none" stroke="black" d="M1087.12,-360.208C1076.5,-320.302 1049.82,-220.134 1039.13,-180.01"/>
</g>
<!-- 2362&#45;&#45;2370 -->
<g id="edge38" class="edge"><title>2362&#45;&#45;2370</title>
<path fill="none" stroke="black" d="M1095.9,-360.122C1105.45,-318.403 1123.76,-209.096 1072.6,-144 1042.81,-106.097 984.15,-95.2097 949.054,-92.14"/>
</g>
<!-- 2362&#45;&#45;2372 -->
<g id="edge39" class="edge"><title>2362&#45;&#45;2372</title>
<path fill="none" stroke="black" d="M1113.56,-366.349C1151.34,-346.311 1224.6,-299.177 1224.6,-235 1224.6,-235 1224.6,-235 1224.6,-161 1224.6,-61.0841 1070.81,-30.436 1005.93,-21.952"/>
</g>
<!-- 2364&#45;&#45;2366 -->
<g id="edge40" class="edge"><title>2364&#45;&#45;2366</title>
<path fill="none" stroke="black" d="M917.345,-290.496C930.475,-278.402 949.079,-261.267 962.13,-249.246"/>
</g>
<!-- 2364&#45;&#45;2368 -->
<g id="edge41" class="edge"><title>2364&#45;&#45;2368</title>
<path fill="none" stroke="black" d="M905.288,-288.118C910.252,-268.754 920.718,-236.982 939.597,-216 958.799,-194.661 988.69,-179.977 1009.81,-171.569"/>
</g>
<!-- 2364&#45;&#45;2370 -->
<g id="edge42" class="edge"><title>2364&#45;&#45;2370</title>
<path fill="none" stroke="black" d="M903.12,-287.849C906.678,-247.78 915.503,-148.383 919.067,-108.232"/>
</g>
<!-- 2364&#45;&#45;2372 -->
<g id="edge43" class="edge"><title>2364&#45;&#45;2372</title>
<path fill="none" stroke="black" d="M894.127,-288.31C877.271,-247.928 840.879,-143.046 882.597,-72 897.325,-46.9196 928.712,-32.8346 951.385,-25.5921"/>
</g>
<!-- 2366&#45;&#45;2368 -->
<g id="edge44" class="edge"><title>2366&#45;&#45;2368</title>
<path fill="none" stroke="black" d="M990.248,-217.465C999.693,-205.865 1012.55,-190.082 1021.98,-178.492"/>
</g>
<!-- 2366&#45;&#45;2370 -->
<g id="edge45" class="edge"><title>2366&#45;&#45;2370</title>
<path fill="none" stroke="black" d="M970.947,-216.433C960.023,-189.217 938.394,-135.334 927.382,-107.902"/>
</g>
<!-- 2366&#45;&#45;2372 -->
<g id="edge46" class="edge"><title>2366&#45;&#45;2372</title>
<path fill="none" stroke="black" d="M977.597,-215.849C977.597,-175.78 977.597,-76.3826 977.597,-36.2325"/>
</g>
<!-- 2368&#45;&#45;2370 -->
<g id="edge47" class="edge"><title>2368&#45;&#45;2370</title>
<path fill="none" stroke="black" d="M1014.74,-148.807C993.944,-136.037 961.464,-116.093 940.61,-103.288"/>
</g>
<!-- 2368&#45;&#45;2372 -->
<g id="edge48" class="edge"><title>2368&#45;&#45;2372</title>
<path fill="none" stroke="black" d="M1027.95,-144.433C1017.02,-117.217 995.394,-63.3342 984.382,-35.9017"/>
</g>
<!-- 2370&#45;&#45;2372 -->
<g id="edge49" class="edge"><title>2370&#45;&#45;2372</title>
<path fill="none" stroke="black" d="M933.248,-73.4647C942.693,-61.8645 955.545,-46.0816 964.983,-34.4918"/>
</g>
<!-- 3315 -->
<g id="node24" class="node"><title>3315</title>
<ellipse fill="cyan" stroke="cyan" cx="1423.6" cy="-522" rx="28.6953" ry="18"/>
<text text-anchor="middle" x="1423.6" y="-518.3" font-family="Times New Roman,serif" font-size="14.00">3315</text>
</g>
<!-- 3316 -->
<g id="node25" class="node"><title>3316</title>
<ellipse fill="none" stroke="black" cx="1423.6" cy="-450" rx="28.6953" ry="18"/>
<text text-anchor="middle" x="1423.6" y="-446.3" font-family="Times New Roman,serif" font-size="14.00">3316</text>
</g>
<!-- 3315&#45;&#45;3316 -->
<g id="edge50" class="edge"><title>3315&#45;&#45;3316</title>
<path fill="none" stroke="black" d="M1423.6,-503.697C1423.6,-492.846 1423.6,-478.917 1423.6,-468.104"/>
</g>
<!-- 3318 -->
<g id="node26" class="node"><title>3318</title>
<ellipse fill="cyan" stroke="cyan" cx="1566.6" cy="-378" rx="28.6953" ry="18"/>
<text text-anchor="middle" x="1566.6" y="-374.3" font-family="Times New Roman,serif" font-size="14.00">3318</text>
</g>
<!-- 3315&#45;&#45;3318 -->
<g id="edge51" class="edge"><title>3315&#45;&#45;3318</title>
<path fill="none" stroke="black" d="M1445.16,-509.913C1462.47,-500.336 1486.76,-485.33 1504.6,-468 1527.43,-445.826 1547.13,-414.142 1557.89,-395.167"/>
</g>
<!-- 3320 -->
<g id="node27" class="node"><title>3320</title>
<ellipse fill="none" stroke="black" cx="1471.6" cy="-306" rx="28.6953" ry="18"/>
<text text-anchor="middle" x="1471.6" y="-302.3" font-family="Times New Roman,serif" font-size="14.00">3320</text>
</g>
<!-- 3315&#45;&#45;3320 -->
<g id="edge52" class="edge"><title>3315&#45;&#45;3320</title>
<path fill="none" stroke="black" d="M1437.8,-506.1C1446.34,-496.144 1456.51,-482.293 1461.6,-468 1479.35,-418.136 1476.34,-354.145 1473.55,-324.065"/>
</g>
<!-- 3322 -->
<g id="node28" class="node"><title>3322</title>
<ellipse fill="none" stroke="black" cx="1414.6" cy="-234" rx="28.6953" ry="18"/>
<text text-anchor="middle" x="1414.6" y="-230.3" font-family="Times New Roman,serif" font-size="14.00">3322</text>
</g>
<!-- 3315&#45;&#45;3322 -->
<g id="edge53" class="edge"><title>3315&#45;&#45;3322</title>
<path fill="none" stroke="black" d="M1409.1,-506.203C1400.43,-496.288 1390.24,-482.444 1385.6,-468 1360.46,-389.802 1392.86,-290.352 1407.8,-251.552"/>
</g>
<!-- 3324 -->
<g id="node29" class="node"><title>3324</title>
<ellipse fill="none" stroke="black" cx="1414.6" cy="-162" rx="28.6953" ry="18"/>
<text text-anchor="middle" x="1414.6" y="-158.3" font-family="Times New Roman,serif" font-size="14.00">3324</text>
</g>
<!-- 3315&#45;&#45;3324 -->
<g id="edge54" class="edge"><title>3315&#45;&#45;3324</title>
<path fill="none" stroke="black" d="M1402.73,-509.579C1367.64,-488.665 1300.6,-440.643 1300.6,-379 1300.6,-379 1300.6,-379 1300.6,-305 1300.6,-245.565 1362.08,-196.844 1394.74,-175.154"/>
</g>
<!-- 3316&#45;&#45;3318 -->
<g id="edge55" class="edge"><title>3316&#45;&#45;3318</title>
<path fill="none" stroke="black" d="M1445.63,-438.216C1472.58,-425.023 1517.92,-402.827 1544.78,-389.681"/>
</g>
<!-- 3316&#45;&#45;3320 -->
<g id="edge56" class="edge"><title>3316&#45;&#45;3320</title>
<path fill="none" stroke="black" d="M1429.29,-432.153C1438.53,-404.824 1456.68,-351.14 1465.91,-323.825"/>
</g>
<!-- 3316&#45;&#45;3322 -->
<g id="edge57" class="edge"><title>3316&#45;&#45;3322</title>
<path fill="none" stroke="black" d="M1422.88,-431.849C1421.19,-391.78 1417.01,-292.383 1415.32,-252.232"/>
</g>
<!-- 3316&#45;&#45;3324 -->
<g id="edge58" class="edge"><title>3316&#45;&#45;3324</title>
<path fill="none" stroke="black" d="M1414.8,-432.865C1395.1,-394.55 1351.09,-295.358 1376.6,-216 1381.24,-201.556 1391.43,-187.712 1400.1,-177.797"/>
</g>
<!-- 3318&#45;&#45;3320 -->
<g id="edge59" class="edge"><title>3318&#45;&#45;3320</title>
<path fill="none" stroke="black" d="M1548.73,-363.834C1531.74,-351.319 1506.34,-332.603 1489.39,-320.107"/>
</g>
<!-- 3318&#45;&#45;3322 -->
<g id="edge60" class="edge"><title>3318&#45;&#45;3322</title>
<path fill="none" stroke="black" d="M1559.15,-360.513C1549.79,-341.231 1532.18,-309.251 1509.6,-288 1488.69,-268.327 1459.12,-253.331 1438.54,-244.394"/>
</g>
<!-- 3318&#45;&#45;3324 -->
<g id="edge61" class="edge"><title>3318&#45;&#45;3324</title>
<path fill="none" stroke="black" d="M1563.56,-360.033C1559.73,-341.43 1551.96,-311.149 1538.6,-288 1510.79,-239.814 1459.85,-196.963 1432.72,-176.217"/>
</g>
<!-- 6012 -->
<g id="node30" class="node"><title>6012</title>
<ellipse fill="none" stroke="black" cx="1623.6" cy="-306" rx="28.6953" ry="18"/>
<text text-anchor="middle" x="1623.6" y="-302.3" font-family="Times New Roman,serif" font-size="14.00">6012</text>
</g>
<!-- 3318&#45;&#45;6012 -->
<g id="edge62" class="edge"><title>3318&#45;&#45;6012</title>
<path fill="none" stroke="black" d="M1579.25,-361.465C1588.69,-349.865 1601.55,-334.082 1610.98,-322.492"/>
</g>
<!-- 9244 -->
<g id="node31" class="node"><title>9244</title>
<ellipse fill="none" stroke="black" cx="1698.6" cy="-306" rx="28.6953" ry="18"/>
<text text-anchor="middle" x="1698.6" y="-302.3" font-family="Times New Roman,serif" font-size="14.00">9244</text>
</g>
<!-- 3318&#45;&#45;9244 -->
<g id="edge63" class="edge"><title>3318&#45;&#45;9244</title>
<path fill="none" stroke="black" d="M1587.81,-365.753C1612.44,-352.691 1652.83,-331.27 1677.44,-318.219"/>
</g>
<!-- 3320&#45;&#45;3322 -->
<g id="edge64" class="edge"><title>3320&#45;&#45;3322</title>
<path fill="none" stroke="black" d="M1458.95,-289.465C1449.5,-277.865 1436.65,-262.082 1427.21,-250.492"/>
</g>
<!-- 3320&#45;&#45;3324 -->
<g id="edge65" class="edge"><title>3320&#45;&#45;3324</title>
<path fill="none" stroke="black" d="M1470.06,-287.961C1467.92,-269.56 1463.07,-239.7 1452.6,-216 1446.46,-202.123 1436.34,-188.253 1428.08,-178.184"/>
</g>
<!-- 3322&#45;&#45;3324 -->
<g id="edge66" class="edge"><title>3322&#45;&#45;3324</title>
<path fill="none" stroke="black" d="M1414.6,-215.697C1414.6,-204.846 1414.6,-190.917 1414.6,-180.104"/>
</g>
<!-- 5077 -->
<g id="node32" class="node"><title>5077</title>
<ellipse fill="cyan" stroke="cyan" cx="1911.6" cy="-522" rx="28.6953" ry="18"/>
<text text-anchor="middle" x="1911.6" y="-518.3" font-family="Times New Roman,serif" font-size="14.00">5077</text>
</g>
<!-- 5078 -->
<g id="node33" class="node"><title>5078</title>
<ellipse fill="cyan" stroke="cyan" cx="2001.6" cy="-450" rx="28.6953" ry="18"/>
<text text-anchor="middle" x="2001.6" y="-446.3" font-family="Times New Roman,serif" font-size="14.00">5078</text>
</g>
<!-- 5077&#45;&#45;5078 -->
<g id="edge67" class="edge"><title>5077&#45;&#45;5078</title>
<path fill="none" stroke="black" d="M1928.95,-507.503C1944.89,-495.108 1968.38,-476.838 1984.3,-464.455"/>
</g>
<!-- 5080 -->
<g id="node34" class="node"><title>5080</title>
<ellipse fill="cyan" stroke="cyan" cx="1878.6" cy="-378" rx="28.6953" ry="18"/>
<text text-anchor="middle" x="1878.6" y="-374.3" font-family="Times New Roman,serif" font-size="14.00">5080</text>
</g>
<!-- 5077&#45;&#45;5080 -->
<g id="edge68" class="edge"><title>5077&#45;&#45;5080</title>
<path fill="none" stroke="black" d="M1907.68,-504.153C1901.37,-476.971 1888.99,-423.717 1882.61,-396.268"/>
</g>
<!-- 5082 -->
<g id="node35" class="node"><title>5082</title>
<ellipse fill="cyan" stroke="cyan" cx="1926.6" cy="-306" rx="28.6953" ry="18"/>
<text text-anchor="middle" x="1926.6" y="-302.3" font-family="Times New Roman,serif" font-size="14.00">5082</text>
</g>
<!-- 5077&#45;&#45;5082 -->
<g id="edge69" class="edge"><title>5077&#45;&#45;5082</title>
<path fill="none" stroke="black" d="M1912.8,-503.849C1915.61,-463.78 1922.58,-364.383 1925.39,-324.232"/>
</g>
<!-- 5084 -->
<g id="node36" class="node"><title>5084</title>
<ellipse fill="cyan" stroke="cyan" cx="2040.6" cy="-234" rx="28.6953" ry="18"/>
<text text-anchor="middle" x="2040.6" y="-230.3" font-family="Times New Roman,serif" font-size="14.00">5084</text>
</g>
<!-- 5077&#45;&#45;5084 -->
<g id="edge70" class="edge"><title>5077&#45;&#45;5084</title>
<path fill="none" stroke="black" d="M1939.67,-517.759C1969.63,-512.688 2015.97,-499.889 2039.6,-468 2088.72,-401.69 2060.19,-293.104 2046.57,-251.727"/>
</g>
<!-- 5086 -->
<g id="node37" class="node"><title>5086</title>
<ellipse fill="cyan" stroke="cyan" cx="1888.6" cy="-162" rx="28.6953" ry="18"/>
<text text-anchor="middle" x="1888.6" y="-158.3" font-family="Times New Roman,serif" font-size="14.00">5086</text>
</g>
<!-- 5077&#45;&#45;5086 -->
<g id="edge71" class="edge"><title>5077&#45;&#45;5086</title>
<path fill="none" stroke="black" d="M1899.29,-505.6C1882.17,-483.096 1852.01,-439.193 1840.6,-396 1819.34,-315.539 1861.28,-217.388 1880.11,-179.244"/>
</g>
<!-- 5088 -->
<g id="node38" class="node"><title>5088</title>
<ellipse fill="cyan" stroke="cyan" cx="1916.6" cy="-90" rx="28.6953" ry="18"/>
<text text-anchor="middle" x="1916.6" y="-86.3" font-family="Times New Roman,serif" font-size="14.00">5088</text>
</g>
<!-- 5077&#45;&#45;5088 -->
<g id="edge72" class="edge"><title>5077&#45;&#45;5088</title>
<path fill="none" stroke="black" d="M1887.56,-512.137C1843.81,-494.266 1755.6,-449.5 1755.6,-379 1755.6,-379 1755.6,-379 1755.6,-233 1755.6,-161.069 1847.11,-116.887 1892.15,-99.4979"/>
</g>
<!-- 5078&#45;&#45;5080 -->
<g id="edge73" class="edge"><title>5078&#45;&#45;5080</title>
<path fill="none" stroke="black" d="M1981.01,-437.284C1958.3,-424.362 1921.98,-403.692 1899.25,-390.755"/>
</g>
<!-- 5078&#45;&#45;5082 -->
<g id="edge74" class="edge"><title>5078&#45;&#45;5082</title>
<path fill="none" stroke="black" d="M1992.99,-432.711C1978.6,-405.465 1949.81,-350.946 1935.33,-323.537"/>
</g>
<!-- 5078&#45;&#45;5084 -->
<g id="edge75" class="edge"><title>5078&#45;&#45;5084</title>
<path fill="none" stroke="black" d="M2010.63,-432.813C2015.91,-422.577 2022.18,-408.888 2025.6,-396 2039.12,-344.985 2040.87,-282.07 2040.85,-252.246"/>
</g>
<!-- 5078&#45;&#45;5086 -->
<g id="edge76" class="edge"><title>5078&#45;&#45;5086</title>
<path fill="none" stroke="black" d="M1999.47,-432.024C1995.34,-402.081 1984.81,-338.295 1964.6,-288 1950.7,-253.416 1941,-247.822 1921.6,-216 1914.03,-203.6 1905.35,-189.66 1898.79,-179.189"/>
</g>
<!-- 5078&#45;&#45;5088 -->
<g id="edge77" class="edge"><title>5078&#45;&#45;5088</title>
<path fill="none" stroke="black" d="M2023.72,-438.394C2061.78,-418.428 2135.6,-371.403 2135.6,-307 2135.6,-307 2135.6,-307 2135.6,-233 2135.6,-142.599 2002.6,-106.859 1943.89,-95.487"/>
</g>
<!-- 5080&#45;&#45;5082 -->
<g id="edge78" class="edge"><title>5080&#45;&#45;5082</title>
<path fill="none" stroke="black" d="M1889.49,-361.116C1897.34,-349.66 1907.9,-334.263 1915.75,-322.821"/>
</g>
<!-- 5080&#45;&#45;5084 -->
<g id="edge79" class="edge"><title>5080&#45;&#45;5084</title>
<path fill="none" stroke="black" d="M1900.34,-366.066C1918.52,-356.366 1944.62,-341.111 1964.6,-324 1990.83,-301.533 2015.74,-269.658 2029.51,-250.777"/>
</g>
<!-- 5080&#45;&#45;5086 -->
<g id="edge80" class="edge"><title>5080&#45;&#45;5086</title>
<path fill="none" stroke="black" d="M1879.4,-359.849C1881.27,-319.78 1885.92,-220.383 1887.79,-180.232"/>
</g>
<!-- 5080&#45;&#45;5088 -->
<g id="edge81" class="edge"><title>5080&#45;&#45;5088</title>
<path fill="none" stroke="black" d="M1870.77,-360.472C1853.21,-320.884 1814.93,-218.394 1850.6,-144 1859.68,-125.051 1879.21,-110.734 1894.68,-101.787"/>
</g>
<!-- 5082&#45;&#45;5084 -->
<g id="edge82" class="edge"><title>5082&#45;&#45;5084</title>
<path fill="none" stroke="black" d="M1946.45,-292.807C1967.25,-280.037 1999.73,-260.093 2020.59,-247.288"/>
</g>
<!-- 5082&#45;&#45;5086 -->
<g id="edge83" class="edge"><title>5082&#45;&#45;5086</title>
<path fill="none" stroke="black" d="M1922.09,-288.153C1914.78,-260.824 1900.41,-207.14 1893.1,-179.825"/>
</g>
<!-- 5082&#45;&#45;5088 -->
<g id="edge84" class="edge"><title>5082&#45;&#45;5088</title>
<path fill="none" stroke="black" d="M1927.66,-287.559C1929.22,-257.961 1931.46,-196.042 1926.6,-144 1925.46,-131.88 1922.9,-118.402 1920.66,-108.071"/>
</g>
<!-- 5084&#45;&#45;5086 -->
<g id="edge85" class="edge"><title>5084&#45;&#45;5086</title>
<path fill="none" stroke="black" d="M2018.17,-222.671C1989.43,-209.437 1939.9,-186.626 1911.12,-173.371"/>
</g>
<!-- 5084&#45;&#45;5088 -->
<g id="edge86" class="edge"><title>5084&#45;&#45;5088</title>
<path fill="none" stroke="black" d="M2027.33,-217.804C2003.46,-190.473 1953.57,-133.339 1929.77,-106.087"/>
</g>
<!-- 5086&#45;&#45;5088 -->
<g id="edge87" class="edge"><title>5086&#45;&#45;5088</title>
<path fill="none" stroke="black" d="M1895.23,-144.411C1899.63,-133.414 1905.39,-119.027 1909.81,-107.956"/>
</g>
<!-- 5319 -->
<g id="node39" class="node"><title>5319</title>
<ellipse fill="none" stroke="black" cx="2187.6" cy="-450" rx="28.6953" ry="18"/>
<text text-anchor="middle" x="2187.6" y="-446.3" font-family="Times New Roman,serif" font-size="14.00">5319</text>
</g>
<!-- 5320 -->
<g id="node40" class="node"><title>5320</title>
<ellipse fill="none" stroke="black" cx="2233.6" cy="-306" rx="28.6953" ry="18"/>
<text text-anchor="middle" x="2233.6" y="-302.3" font-family="Times New Roman,serif" font-size="14.00">5320</text>
</g>
<!-- 5319&#45;&#45;5320 -->
<g id="edge88" class="edge"><title>5319&#45;&#45;5320</title>
<path fill="none" stroke="black" d="M2185.63,-431.991C2184.17,-413.616 2183.72,-383.778 2192.6,-360 2198.05,-345.396 2209.03,-331.559 2218.25,-321.688"/>
</g>
<!-- 10784 -->
<g id="node41" class="node"><title>10784</title>
<ellipse fill="none" stroke="black" cx="2233.6" cy="-378" rx="32.4942" ry="18"/>
<text text-anchor="middle" x="2233.6" y="-374.3" font-family="Times New Roman,serif" font-size="14.00">10784</text>
</g>
<!-- 5319&#45;&#45;10784 -->
<g id="edge89" class="edge"><title>5319&#45;&#45;10784</title>
<path fill="none" stroke="black" d="M2198.04,-433.116C2205.46,-421.821 2215.4,-406.696 2222.88,-395.307"/>
</g>
<!-- 10784&#45;&#45;5320 -->
<g id="edge90" class="edge"><title>10784&#45;&#45;5320</title>
<path fill="none" stroke="black" d="M2233.6,-359.697C2233.6,-348.846 2233.6,-334.917 2233.6,-324.104"/>
</g>
<!-- 6009 -->
<g id="node42" class="node"><title>6009</title>
<ellipse fill="none" stroke="black" cx="1613.6" cy="-450" rx="28.6953" ry="18"/>
<text text-anchor="middle" x="1613.6" y="-446.3" font-family="Times New Roman,serif" font-size="14.00">6009</text>
</g>
<!-- 6009&#45;&#45;3318 -->
<g id="edge91" class="edge"><title>6009&#45;&#45;3318</title>
<path fill="none" stroke="black" d="M1602.93,-433.116C1595.24,-421.66 1584.9,-406.263 1577.22,-394.821"/>
</g>
<!-- 6009&#45;&#45;6012 -->
<g id="edge92" class="edge"><title>6009&#45;&#45;6012</title>
<path fill="none" stroke="black" d="M1614.8,-431.871C1616.73,-404.578 1620.46,-351.52 1622.39,-324.189"/>
</g>
<!-- 6015 -->
<g id="node43" class="node"><title>6015</title>
<ellipse fill="none" stroke="black" cx="2350.6" cy="-522" rx="28.6953" ry="18"/>
<text text-anchor="middle" x="2350.6" y="-518.3" font-family="Times New Roman,serif" font-size="14.00">6015</text>
</g>
<!-- 6016 -->
<g id="node44" class="node"><title>6016</title>
<ellipse fill="none" stroke="black" cx="2350.6" cy="-450" rx="28.6953" ry="18"/>
<text text-anchor="middle" x="2350.6" y="-446.3" font-family="Times New Roman,serif" font-size="14.00">6016</text>
</g>
<!-- 6015&#45;&#45;6016 -->
<g id="edge93" class="edge"><title>6015&#45;&#45;6016</title>
<path fill="none" stroke="black" d="M2350.6,-503.697C2350.6,-492.846 2350.6,-478.917 2350.6,-468.104"/>
</g>
<!-- 7675 -->
<g id="node45" class="node"><title>7675</title>
<ellipse fill="none" stroke="black" cx="2464.6" cy="-522" rx="28.6953" ry="18"/>
<text text-anchor="middle" x="2464.6" y="-518.3" font-family="Times New Roman,serif" font-size="14.00">7675</text>
</g>
<!-- 7676 -->
<g id="node46" class="node"><title>7676</title>
<ellipse fill="none" stroke="black" cx="2464.6" cy="-450" rx="28.6953" ry="18"/>
<text text-anchor="middle" x="2464.6" y="-446.3" font-family="Times New Roman,serif" font-size="14.00">7676</text>
</g>
<!-- 7675&#45;&#45;7676 -->
<g id="edge94" class="edge"><title>7675&#45;&#45;7676</title>
<path fill="none" stroke="black" d="M2464.6,-503.697C2464.6,-492.846 2464.6,-478.917 2464.6,-468.104"/>
</g>
<!-- 7678 -->
<g id="node47" class="node"><title>7678</title>
<ellipse fill="none" stroke="black" cx="2426.6" cy="-378" rx="28.6953" ry="18"/>
<text text-anchor="middle" x="2426.6" y="-374.3" font-family="Times New Roman,serif" font-size="14.00">7678</text>
</g>
<!-- 7675&#45;&#45;7678 -->
<g id="edge95" class="edge"><title>7675&#45;&#45;7678</title>
<path fill="none" stroke="black" d="M2450.1,-506.203C2441.43,-496.288 2431.24,-482.444 2426.6,-468 2418.89,-444.023 2421,-414.497 2423.55,-396.21"/>
</g>
<!-- 7680 -->
<g id="node48" class="node"><title>7680</title>
<ellipse fill="none" stroke="black" cx="2502.6" cy="-306" rx="28.6953" ry="18"/>
<text text-anchor="middle" x="2502.6" y="-302.3" font-family="Times New Roman,serif" font-size="14.00">7680</text>
</g>
<!-- 7675&#45;&#45;7680 -->
<g id="edge96" class="edge"><title>7675&#45;&#45;7680</title>
<path fill="none" stroke="black" d="M2479.1,-506.203C2487.76,-496.288 2497.95,-482.444 2502.6,-468 2518.76,-417.706 2511.06,-353.92 2505.92,-323.977"/>
</g>
<!-- 7676&#45;&#45;7678 -->
<g id="edge97" class="edge"><title>7676&#45;&#45;7678</title>
<path fill="none" stroke="black" d="M2455.78,-432.765C2449.64,-421.456 2441.49,-406.437 2435.36,-395.147"/>
</g>
<!-- 7676&#45;&#45;7680 -->
<g id="edge98" class="edge"><title>7676&#45;&#45;7680</title>
<path fill="none" stroke="black" d="M2469.11,-432.153C2476.42,-404.824 2490.79,-351.14 2498.1,-323.825"/>
</g>
<!-- 7678&#45;&#45;7680 -->
<g id="edge99" class="edge"><title>7678&#45;&#45;7680</title>
<path fill="none" stroke="black" d="M2442.34,-362.496C2455.48,-350.402 2474.08,-333.267 2487.13,-321.246"/>
</g>
<!-- 7795 -->
<g id="node49" class="node"><title>7795</title>
<ellipse fill="none" stroke="black" cx="2578.6" cy="-378" rx="28.6953" ry="18"/>
<text text-anchor="middle" x="2578.6" y="-374.3" font-family="Times New Roman,serif" font-size="14.00">7795</text>
</g>
<!-- 7795&#45;&#45;7680 -->
<g id="edge100" class="edge"><title>7795&#45;&#45;7680</title>
<path fill="none" stroke="black" d="M2562.85,-362.496C2549.72,-350.402 2531.12,-333.267 2518.06,-321.246"/>
</g>
<!-- 8201 -->
<g id="node50" class="node"><title>8201</title>
<ellipse fill="none" stroke="black" cx="2700.6" cy="-522" rx="28.6953" ry="18"/>
<text text-anchor="middle" x="2700.6" y="-518.3" font-family="Times New Roman,serif" font-size="14.00">8201</text>
</g>
<!-- 8202 -->
<g id="node51" class="node"><title>8202</title>
<ellipse fill="none" stroke="black" cx="2700.6" cy="-450" rx="28.6953" ry="18"/>
<text text-anchor="middle" x="2700.6" y="-446.3" font-family="Times New Roman,serif" font-size="14.00">8202</text>
</g>
<!-- 8201&#45;&#45;8202 -->
<g id="edge101" class="edge"><title>8201&#45;&#45;8202</title>
<path fill="none" stroke="black" d="M2700.6,-503.697C2700.6,-492.846 2700.6,-478.917 2700.6,-468.104"/>
</g>
<!-- 8204 -->
<g id="node52" class="node"><title>8204</title>
<ellipse fill="none" stroke="black" cx="2653.6" cy="-378" rx="28.6953" ry="18"/>
<text text-anchor="middle" x="2653.6" y="-374.3" font-family="Times New Roman,serif" font-size="14.00">8204</text>
</g>
<!-- 8201&#45;&#45;8204 -->
<g id="edge102" class="edge"><title>8201&#45;&#45;8204</title>
<path fill="none" stroke="black" d="M2686.59,-506.031C2678.12,-496.048 2667.96,-482.191 2662.6,-468 2653.65,-444.321 2652.45,-414.714 2652.75,-396.328"/>
</g>
<!-- 8206 -->
<g id="node53" class="node"><title>8206</title>
<ellipse fill="none" stroke="black" cx="2710.6" cy="-306" rx="28.6953" ry="18"/>
<text text-anchor="middle" x="2710.6" y="-302.3" font-family="Times New Roman,serif" font-size="14.00">8206</text>
</g>
<!-- 8201&#45;&#45;8206 -->
<g id="edge103" class="edge"><title>8201&#45;&#45;8206</title>
<path fill="none" stroke="black" d="M2715.1,-506.203C2723.76,-496.288 2733.95,-482.444 2738.6,-468 2755.09,-416.681 2731.68,-352.853 2718.51,-323.353"/>
</g>
<!-- 8202&#45;&#45;8204 -->
<g id="edge104" class="edge"><title>8202&#45;&#45;8204</title>
<path fill="none" stroke="black" d="M2689.93,-433.116C2682.24,-421.66 2671.9,-406.263 2664.22,-394.821"/>
</g>
<!-- 8202&#45;&#45;8206 -->
<g id="edge105" class="edge"><title>8202&#45;&#45;8206</title>
<path fill="none" stroke="black" d="M2701.8,-431.871C2703.73,-404.578 2707.46,-351.52 2709.39,-324.189"/>
</g>
<!-- 8204&#45;&#45;8206 -->
<g id="edge106" class="edge"><title>8204&#45;&#45;8206</title>
<path fill="none" stroke="black" d="M2666.25,-361.465C2675.69,-349.865 2688.55,-334.082 2697.98,-322.492"/>
</g>
<!-- 9241 -->
<g id="node54" class="node"><title>9241</title>
<ellipse fill="none" stroke="black" cx="1693.6" cy="-450" rx="28.6953" ry="18"/>
<text text-anchor="middle" x="1693.6" y="-446.3" font-family="Times New Roman,serif" font-size="14.00">9241</text>
</g>
<!-- 9241&#45;&#45;3318 -->
<g id="edge107" class="edge"><title>9241&#45;&#45;3318</title>
<path fill="none" stroke="black" d="M1672.63,-437.441C1649.09,-424.471 1611.14,-403.553 1587.6,-390.576"/>
</g>
<!-- 9241&#45;&#45;9244 -->
<g id="edge108" class="edge"><title>9241&#45;&#45;9244</title>
<path fill="none" stroke="black" d="M1694.2,-431.871C1695.16,-404.578 1697.03,-351.52 1697.99,-324.189"/>
</g>
<!-- 9583 -->
<g id="node55" class="node"><title>9583</title>
<ellipse fill="none" stroke="black" cx="2814.6" cy="-522" rx="28.6953" ry="18"/>
<text text-anchor="middle" x="2814.6" y="-518.3" font-family="Times New Roman,serif" font-size="14.00">9583</text>
</g>
<!-- 9584 -->
<g id="node56" class="node"><title>9584</title>
<ellipse fill="none" stroke="black" cx="2814.6" cy="-450" rx="28.6953" ry="18"/>
<text text-anchor="middle" x="2814.6" y="-446.3" font-family="Times New Roman,serif" font-size="14.00">9584</text>
</g>
<!-- 9583&#45;&#45;9584 -->
<g id="edge109" class="edge"><title>9583&#45;&#45;9584</title>
<path fill="none" stroke="black" d="M2814.6,-503.697C2814.6,-492.846 2814.6,-478.917 2814.6,-468.104"/>
</g>
<!-- 9713 -->
<g id="node57" class="node"><title>9713</title>
<ellipse fill="none" stroke="black" cx="2956.6" cy="-522" rx="28.6953" ry="18"/>
<text text-anchor="middle" x="2956.6" y="-518.3" font-family="Times New Roman,serif" font-size="14.00">9713</text>
</g>
<!-- 9714 -->
<g id="node58" class="node"><title>9714</title>
<ellipse fill="none" stroke="black" cx="2985.6" cy="-450" rx="28.6953" ry="18"/>
<text text-anchor="middle" x="2985.6" y="-446.3" font-family="Times New Roman,serif" font-size="14.00">9714</text>
</g>
<!-- 9713&#45;&#45;9714 -->
<g id="edge110" class="edge"><title>9713&#45;&#45;9714</title>
<path fill="none" stroke="black" d="M2963.47,-504.411C2968.03,-493.414 2973.99,-479.027 2978.57,-467.956"/>
</g>
<!-- 9716 -->
<g id="node59" class="node"><title>9716</title>
<ellipse fill="none" stroke="black" cx="2928.6" cy="-378" rx="28.6953" ry="18"/>
<text text-anchor="middle" x="2928.6" y="-374.3" font-family="Times New Roman,serif" font-size="14.00">9716</text>
</g>
<!-- 9713&#45;&#45;9716 -->
<g id="edge111" class="edge"><title>9713&#45;&#45;9716</title>
<path fill="none" stroke="black" d="M2953.22,-503.871C2947.84,-476.578 2937.38,-423.52 2931.99,-396.189"/>
</g>
<!-- 9718 -->
<g id="node60" class="node"><title>9718</title>
<ellipse fill="none" stroke="black" cx="3042.6" cy="-306" rx="28.6953" ry="18"/>
<text text-anchor="middle" x="3042.6" y="-302.3" font-family="Times New Roman,serif" font-size="14.00">9718</text>
</g>
<!-- 9713&#45;&#45;9718 -->
<g id="edge112" class="edge"><title>9713&#45;&#45;9718</title>
<path fill="none" stroke="black" d="M2978.19,-509.959C2993.56,-500.883 3013.25,-486.515 3023.6,-468 3049.68,-421.316 3047.51,-355.243 3044.66,-324.277"/>
</g>
<!-- 9720 -->
<g id="node61" class="node"><title>9720</title>
<ellipse fill="none" stroke="black" cx="2961.6" cy="-234" rx="28.6953" ry="18"/>
<text text-anchor="middle" x="2961.6" y="-230.3" font-family="Times New Roman,serif" font-size="14.00">9720</text>
</g>
<!-- 9713&#45;&#45;9720 -->
<g id="edge113" class="edge"><title>9713&#45;&#45;9720</title>
<path fill="none" stroke="black" d="M2943.14,-505.922C2919.85,-477.95 2875.86,-415.785 2890.6,-360 2902.01,-316.807 2932.17,-272.904 2949.29,-250.4"/>
</g>
<!-- 9714&#45;&#45;9716 -->
<g id="edge114" class="edge"><title>9714&#45;&#45;9716</title>
<path fill="none" stroke="black" d="M2972.95,-433.465C2963.5,-421.865 2950.65,-406.082 2941.21,-394.492"/>
</g>
<!-- 9714&#45;&#45;9718 -->
<g id="edge115" class="edge"><title>9714&#45;&#45;9718</title>
<path fill="none" stroke="black" d="M2992.25,-432.433C3003.17,-405.217 3024.8,-351.334 3035.81,-323.902"/>
</g>
<!-- 9714&#45;&#45;9720 -->
<g id="edge116" class="edge"><title>9714&#45;&#45;9720</title>
<path fill="none" stroke="black" d="M2983.67,-431.849C2979.18,-391.78 2968.03,-292.383 2963.53,-252.232"/>
</g>
<!-- 9716&#45;&#45;9718 -->
<g id="edge117" class="edge"><title>9716&#45;&#45;9718</title>
<path fill="none" stroke="black" d="M2948.45,-364.807C2969.25,-352.037 3001.73,-332.093 3022.59,-319.288"/>
</g>
<!-- 9716&#45;&#45;9720 -->
<g id="edge118" class="edge"><title>9716&#45;&#45;9720</title>
<path fill="none" stroke="black" d="M2932.51,-360.153C2938.83,-332.971 2951.21,-279.717 2957.58,-252.268"/>
</g>
<!-- 9718&#45;&#45;9720 -->
<g id="edge119" class="edge"><title>9718&#45;&#45;9720</title>
<path fill="none" stroke="black" d="M3026.21,-290.834C3012.06,-278.61 2991.75,-261.054 2977.69,-248.906"/>
</g>
<!-- 10781 -->
<g id="node62" class="node"><title>10781</title>
<ellipse fill="none" stroke="black" cx="2244.6" cy="-522" rx="32.4942" ry="18"/>
<text text-anchor="middle" x="2244.6" y="-518.3" font-family="Times New Roman,serif" font-size="14.00">10781</text>
</g>
<!-- 10781&#45;&#45;5319 -->
<g id="edge120" class="edge"><title>10781&#45;&#45;5319</title>
<path fill="none" stroke="black" d="M2231.66,-505.116C2222.2,-493.499 2209.44,-477.828 2200.09,-466.34"/>
</g>
<!-- 10781&#45;&#45;5320 -->
<g id="edge122" class="edge"><title>10781&#45;&#45;5320</title>
<path fill="none" stroke="black" d="M2253.03,-504.608C2267.08,-475.045 2292.06,-411.121 2274.6,-360 2269.56,-345.249 2258.56,-331.419 2249.22,-321.587"/>
</g>
<!-- 10781&#45;&#45;10784 -->
<g id="edge121" class="edge"><title>10781&#45;&#45;10784</title>
<path fill="none" stroke="black" d="M2243.27,-503.871C2241.16,-476.578 2237.05,-423.52 2234.93,-396.189"/>
</g>
</g>
</svg>
