<svg width="4100px" height="731px"
 viewBox="0.00 0.00 3075.19 548.00" xmlns="http://www.w3.org/2000/svg" xmlns:xlink="http://www.w3.org/1999/xlink">
<g id="graph0" class="graph" transform="scale(1.000022500562514 1.000022500562514) rotate(0) translate(4 544)">
<title>G</title>
<polygon fill="white" stroke="none" points="-4,4 -4,-544 3071.19,-544 3071.19,4 -4,4"/>
<!-- 217 -->
<g id="node1" class="node"><title>217</title>
<ellipse fill="none" stroke="black" cx="60.5975" cy="-378" rx="27" ry="18"/>
<text text-anchor="middle" x="60.5975" y="-374.3" font-family="Times New Roman,serif" font-size="14.00">217</text>
</g>
<!-- 218 -->
<g id="node2" class="node"><title>218</title>
<ellipse fill="none" stroke="black" cx="87.5975" cy="-306" rx="27" ry="18"/>
<text text-anchor="middle" x="87.5975" y="-302.3" font-family="Times New Roman,serif" font-size="14.00">218</text>
</g>
<!-- 217&#45;&#45;218 -->
<g id="edge1" class="edge"><title>217&#45;&#45;218</title>
<path fill="none" stroke="black" d="M66.9961,-360.411C71.2377,-349.414 76.7869,-335.027 81.0572,-323.956"/>
</g>
<!-- 220 -->
<g id="node3" class="node"><title>220</title>
<ellipse fill="#686170" stroke="#686170" cx="59.5975" cy="-234" rx="27" ry="18"/>
<text text-anchor="middle" x="59.5975" y="-230.3" font-family="Times New Roman,serif" font-size="14.00">220</text>
</g>
<!-- 217&#45;&#45;220 -->
<g id="edge2" class="edge"><title>217&#45;&#45;220</title>
<path fill="none" stroke="black" d="M56.9436,-359.908C54.9216,-349.569 52.6167,-336.09 51.5975,-324 50.2534,-308.057 50.4001,-303.955 51.5975,-288 52.5028,-275.937 54.5516,-262.458 56.3491,-252.112"/>
</g>
<!-- 218&#45;&#45;220 -->
<g id="edge3" class="edge"><title>218&#45;&#45;220</title>
<path fill="none" stroke="black" d="M80.9619,-288.411C76.4984,-277.252 70.6389,-262.604 66.1854,-251.47"/>
</g>
<!-- 617 -->
<g id="node4" class="node"><title>617</title>
<ellipse fill="none" stroke="black" cx="650.597" cy="-522" rx="27" ry="18"/>
<text text-anchor="middle" x="650.597" y="-518.3" font-family="Times New Roman,serif" font-size="14.00">617</text>
</g>
<!-- 618 -->
<g id="node5" class="node"><title>618</title>
<ellipse fill="none" stroke="black" cx="623.597" cy="-450" rx="27" ry="18"/>
<text text-anchor="middle" x="623.597" y="-446.3" font-family="Times New Roman,serif" font-size="14.00">618</text>
</g>
<!-- 617&#45;&#45;618 -->
<g id="edge4" class="edge"><title>617&#45;&#45;618</title>
<path fill="none" stroke="black" d="M644.199,-504.411C639.957,-493.414 634.408,-479.027 630.138,-467.956"/>
</g>
<!-- 620 -->
<g id="node6" class="node"><title>620</title>
<ellipse fill="none" stroke="black" cx="660.597" cy="-378" rx="27" ry="18"/>
<text text-anchor="middle" x="660.597" y="-374.3" font-family="Times New Roman,serif" font-size="14.00">620</text>
</g>
<!-- 617&#45;&#45;620 -->
<g id="edge5" class="edge"><title>617&#45;&#45;620</title>
<path fill="none" stroke="black" d="M654.202,-503.903C656.206,-493.563 658.51,-480.084 659.597,-468 661.84,-443.068 661.645,-414.05 661.199,-396.102"/>
</g>
<!-- 618&#45;&#45;620 -->
<g id="edge6" class="edge"><title>618&#45;&#45;620</title>
<path fill="none" stroke="black" d="M632.179,-432.765C638.156,-421.456 646.095,-406.437 652.062,-395.147"/>
</g>
<!-- 1111 -->
<g id="node7" class="node"><title>1111</title>
<ellipse fill="none" stroke="black" cx="28.5975" cy="-522" rx="28.6953" ry="18"/>
<text text-anchor="middle" x="28.5975" y="-518.3" font-family="Times New Roman,serif" font-size="14.00">1111</text>
</g>
<!-- 1111&#45;&#45;217 -->
<g id="edge8" class="edge"><title>1111&#45;&#45;217</title>
<path fill="none" stroke="black" d="M32.3939,-504.153C38.5526,-476.824 50.6504,-423.14 56.8059,-395.825"/>
</g>
<!-- 1111&#45;&#45;218 -->
<g id="edge9" class="edge"><title>1111&#45;&#45;218</title>
<path fill="none" stroke="black" d="M23.4662,-504.018C15.2402,-473.519 2.17691,-408.161 24.5975,-360 33.284,-341.341 52.1318,-326.904 66.9609,-317.843"/>
</g>
<!-- 1111&#45;&#45;220 -->
<g id="edge10" class="edge"><title>1111&#45;&#45;220</title>
<path fill="none" stroke="black" d="M20.4991,-504.262C16.0133,-494.048 10.8916,-480.578 8.59746,-468 5.55076,-451.297 7.61265,-374.673 10.5975,-360 18.868,-319.342 39.3268,-274.792 51.0261,-251.418"/>
</g>
<!-- 1112 -->
<g id="node8" class="node"><title>1112</title>
<polygon fill="#686170" stroke="#686170" points="256.597,-468 202.597,-468 202.597,-432 256.597,-432 256.597,-468"/>
<text text-anchor="middle" x="229.597" y="-446.3" font-family="Times New Roman,serif" font-size="14.00">1112</text>
</g>
<!-- 1111&#45;&#45;1112 -->
<g id="edge7" class="edge"><title>1111&#45;&#45;1112</title>
<path fill="none" stroke="black" d="M53.244,-512.417C91.0875,-499.237 163.237,-474.111 202.503,-460.436"/>
</g>
<!-- 1112&#45;&#45;217 -->
<g id="edge11" class="edge"><title>1112&#45;&#45;217</title>
<path fill="none" stroke="black" d="M202.13,-437.631C176.209,-426.902 136.261,-410.363 101.597,-396 95.6177,-393.522 89.1478,-390.84 83.1533,-388.355"/>
</g>
<!-- 1112&#45;&#45;218 -->
<g id="edge12" class="edge"><title>1112&#45;&#45;218</title>
<path fill="none" stroke="black" d="M202.3,-438.795C181.673,-429.988 153.737,-415.586 134.597,-396 114.08,-375.005 100.251,-343.237 93.1672,-323.877"/>
</g>
<!-- 1112&#45;&#45;220 -->
<g id="edge13" class="edge"><title>1112&#45;&#45;220</title>
<path fill="none" stroke="black" d="M229.224,-431.709C228.096,-412.823 224.108,-382.295 210.597,-360 177.879,-306.01 113.293,-264.631 80.2015,-245.935"/>
</g>
<!-- 1432 -->
<g id="node9" class="node"><title>1432</title>
<ellipse fill="none" stroke="black" cx="474.597" cy="-306" rx="28.6953" ry="18"/>
<text text-anchor="middle" x="474.597" y="-302.3" font-family="Times New Roman,serif" font-size="14.00">1432</text>
</g>
<!-- 1112&#45;&#45;1432 -->
<g id="edge14" class="edge"><title>1112&#45;&#45;1432</title>
<path fill="none" stroke="black" d="M236.09,-431.906C244.626,-411.729 261.54,-378.577 286.597,-360 334.95,-324.151 406.632,-312.535 446.046,-308.782"/>
</g>
<!-- 6024 -->
<g id="node10" class="node"><title>6024</title>
<ellipse fill="#686170" stroke="#686170" cx="172.597" cy="-378" rx="28.6953" ry="18"/>
<text text-anchor="middle" x="172.597" y="-374.3" font-family="Times New Roman,serif" font-size="14.00">6024</text>
</g>
<!-- 1112&#45;&#45;6024 -->
<g id="edge15" class="edge"><title>1112&#45;&#45;6024</title>
<path fill="none" stroke="black" d="M215.508,-431.697C206.277,-420.36 194.309,-405.663 185.358,-394.671"/>
</g>
<!-- 6026 -->
<g id="node11" class="node"><title>6026</title>
<ellipse fill="#686170" stroke="#686170" cx="324.597" cy="-378" rx="28.6953" ry="18"/>
<text text-anchor="middle" x="324.597" y="-374.3" font-family="Times New Roman,serif" font-size="14.00">6026</text>
</g>
<!-- 1112&#45;&#45;6026 -->
<g id="edge16" class="edge"><title>1112&#45;&#45;6026</title>
<path fill="none" stroke="black" d="M253.081,-431.697C269.674,-419.47 291.574,-403.333 306.748,-392.152"/>
</g>
<!-- 6028 -->
<g id="node12" class="node"><title>6028</title>
<ellipse fill="#686170" stroke="#686170" cx="399.597" cy="-378" rx="28.6953" ry="18"/>
<text text-anchor="middle" x="399.597" y="-374.3" font-family="Times New Roman,serif" font-size="14.00">6028</text>
</g>
<!-- 1112&#45;&#45;6028 -->
<g id="edge17" class="edge"><title>1112&#45;&#45;6028</title>
<path fill="none" stroke="black" d="M256.766,-438.645C283.764,-428.245 326.273,-411.57 362.597,-396 367.406,-393.939 372.526,-391.649 377.375,-389.435"/>
</g>
<!-- 9678 -->
<g id="node13" class="node"><title>9678</title>
<ellipse fill="none" stroke="black" cx="474.597" cy="-378" rx="28.6953" ry="18"/>
<text text-anchor="middle" x="474.597" y="-374.3" font-family="Times New Roman,serif" font-size="14.00">9678</text>
</g>
<!-- 1112&#45;&#45;9678 -->
<g id="edge18" class="edge"><title>1112&#45;&#45;9678</title>
<path fill="none" stroke="black" d="M256.655,-443.744C296.791,-435.583 374.187,-418.437 437.597,-396 442.529,-394.255 447.701,-392.098 452.563,-389.914"/>
</g>
<!-- 9678&#45;&#45;1432 -->
<g id="edge19" class="edge"><title>9678&#45;&#45;1432</title>
<path fill="none" stroke="black" d="M474.597,-359.697C474.597,-348.846 474.597,-334.917 474.597,-324.104"/>
</g>
<!-- 1429 -->
<g id="node14" class="node"><title>1429</title>
<ellipse fill="none" stroke="black" cx="549.597" cy="-450" rx="28.6953" ry="18"/>
<text text-anchor="middle" x="549.597" y="-446.3" font-family="Times New Roman,serif" font-size="14.00">1429</text>
</g>
<!-- 1430 -->
<g id="node15" class="node"><title>1430</title>
<ellipse fill="none" stroke="black" cx="549.597" cy="-378" rx="28.6953" ry="18"/>
<text text-anchor="middle" x="549.597" y="-374.3" font-family="Times New Roman,serif" font-size="14.00">1430</text>
</g>
<!-- 1429&#45;&#45;1430 -->
<g id="edge20" class="edge"><title>1429&#45;&#45;1430</title>
<path fill="none" stroke="black" d="M549.597,-431.697C549.597,-420.846 549.597,-406.917 549.597,-396.104"/>
</g>
<!-- 1430&#45;&#45;1432 -->
<g id="edge21" class="edge"><title>1430&#45;&#45;1432</title>
<path fill="none" stroke="black" d="M534.057,-362.496C521.1,-350.402 502.741,-333.267 489.861,-321.246"/>
</g>
<!-- 2359 -->
<g id="node16" class="node"><title>2359</title>
<polygon fill="#705e39" stroke="#705e39" points="985.597,-540 931.597,-540 931.597,-504 985.597,-504 985.597,-540"/>
<text text-anchor="middle" x="958.597" y="-518.3" font-family="Times New Roman,serif" font-size="14.00">2359</text>
</g>
<!-- 2360 -->
<g id="node17" class="node"><title>2360</title>
<polygon fill="#36914b" stroke="#36914b" points="1040.6,-468 986.597,-468 986.597,-432 1040.6,-432 1040.6,-468"/>
<text text-anchor="middle" x="1013.6" y="-446.3" font-family="Times New Roman,serif" font-size="14.00">2360</text>
</g>
<!-- 2359&#45;&#45;2360 -->
<g id="edge22" class="edge"><title>2359&#45;&#45;2360</title>
<path fill="none" stroke="black" d="M972.193,-503.697C980.718,-492.846 991.663,-478.917 1000.16,-468.104"/>
</g>
<!-- 2362 -->
<g id="node18" class="node"><title>2362</title>
<polygon fill="#6a9b64" stroke="#6a9b64" points="1116.6,-396 1062.6,-396 1062.6,-360 1116.6,-360 1116.6,-396"/>
<text text-anchor="middle" x="1089.6" y="-374.3" font-family="Times New Roman,serif" font-size="14.00">2362</text>
</g>
<!-- 2359&#45;&#45;2362 -->
<g id="edge23" class="edge"><title>2359&#45;&#45;2362</title>
<path fill="none" stroke="black" d="M985.912,-510.495C1005.76,-501.692 1032.11,-487.432 1049.6,-468 1068.52,-446.974 1079.78,-415.506 1085.32,-396.167"/>
</g>
<!-- 2364 -->
<g id="node19" class="node"><title>2364</title>
<polygon fill="#877d55" stroke="#877d55" points="930.597,-324 876.597,-324 876.597,-288 930.597,-288 930.597,-324"/>
<text text-anchor="middle" x="903.597" y="-302.3" font-family="Times New Roman,serif" font-size="14.00">2364</text>
</g>
<!-- 2359&#45;&#45;2364 -->
<g id="edge24" class="edge"><title>2359&#45;&#45;2364</title>
<path fill="none" stroke="black" d="M954.019,-503.824C951.266,-493.456 947.704,-479.976 944.597,-468 931.054,-415.791 915.42,-353.949 907.976,-324.405"/>
</g>
<!-- 2366 -->
<g id="node20" class="node"><title>2366</title>
<polygon fill="#46378a" stroke="#46378a" points="1006.6,-252 952.597,-252 952.597,-216 1006.6,-216 1006.6,-252"/>
<text text-anchor="middle" x="979.597" y="-230.3" font-family="Times New Roman,serif" font-size="14.00">2366</text>
</g>
<!-- 2359&#45;&#45;2366 -->
<g id="edge25" class="edge"><title>2359&#45;&#45;2366</title>
<path fill="none" stroke="black" d="M959.848,-503.966C963.574,-453.218 974.575,-303.407 978.327,-252.306"/>
</g>
<!-- 2368 -->
<g id="node21" class="node"><title>2368</title>
<polygon fill="#9a863a" stroke="#9a863a" points="1061.6,-180 1007.6,-180 1007.6,-144 1061.6,-144 1061.6,-180"/>
<text text-anchor="middle" x="1034.6" y="-158.3" font-family="Times New Roman,serif" font-size="14.00">2368</text>
</g>
<!-- 2359&#45;&#45;2368 -->
<g id="edge26" class="edge"><title>2359&#45;&#45;2368</title>
<path fill="none" stroke="black" d="M985.973,-513.249C1011.27,-505.076 1048.87,-490.266 1075.6,-468 1105.53,-443.064 1113.95,-433.179 1125.6,-396 1151.42,-313.53 1082.11,-218.482 1049.96,-180.244"/>
</g>
<!-- 2370 -->
<g id="node22" class="node"><title>2370</title>
<polygon fill="#3f8980" stroke="#3f8980" points="951.597,-108 897.597,-108 897.597,-72 951.597,-72 951.597,-108"/>
<text text-anchor="middle" x="924.597" y="-86.3" font-family="Times New Roman,serif" font-size="14.00">2370</text>
</g>
<!-- 2359&#45;&#45;2370 -->
<g id="edge27" class="edge"><title>2359&#45;&#45;2370</title>
<path fill="none" stroke="black" d="M931.551,-514.033C879.965,-498.935 772.597,-458.019 772.597,-379 772.597,-379 772.597,-379 772.597,-233 772.597,-165.469 853.702,-120.828 897.423,-101.669"/>
</g>
<!-- 2372 -->
<g id="node23" class="node"><title>2372</title>
<polygon fill="#7b3770" stroke="#7b3770" points="1006.6,-36 952.597,-36 952.597,-0 1006.6,-0 1006.6,-36"/>
<text text-anchor="middle" x="979.597" y="-14.3" font-family="Times New Roman,serif" font-size="14.00">2372</text>
</g>
<!-- 2359&#45;&#45;2372 -->
<g id="edge28" class="edge"><title>2359&#45;&#45;2372</title>
<path fill="none" stroke="black" d="M931.417,-518.49C895.369,-513.932 831.332,-501.429 788.597,-468 752.156,-439.493 734.597,-425.267 734.597,-379 734.597,-379 734.597,-379 734.597,-161 734.597,-61.1999 888.653,-30.387 952.442,-21.9062"/>
</g>
<!-- 2360&#45;&#45;2362 -->
<g id="edge29" class="edge"><title>2360&#45;&#45;2362</title>
<path fill="none" stroke="black" d="M1032.38,-431.697C1044.16,-420.846 1059.29,-406.917 1071.03,-396.104"/>
</g>
<!-- 2360&#45;&#45;2364 -->
<g id="edge30" class="edge"><title>2360&#45;&#45;2364</title>
<path fill="none" stroke="black" d="M1000.33,-431.871C979.186,-404.578 938.085,-351.52 916.913,-324.189"/>
</g>
<!-- 2360&#45;&#45;2366 -->
<g id="edge31" class="edge"><title>2360&#45;&#45;2366</title>
<path fill="none" stroke="black" d="M1010.87,-431.849C1004.51,-391.78 988.714,-292.383 982.335,-252.232"/>
</g>
<!-- 2360&#45;&#45;2368 -->
<g id="edge32" class="edge"><title>2360&#45;&#45;2368</title>
<path fill="none" stroke="black" d="M1014.85,-431.966C1018.57,-381.218 1029.57,-231.407 1033.33,-180.306"/>
</g>
<!-- 2360&#45;&#45;2370 -->
<g id="edge33" class="edge"><title>2360&#45;&#45;2370</title>
<path fill="none" stroke="black" d="M986.351,-439.87C939.486,-422.245 848.597,-378.808 848.597,-307 848.597,-307 848.597,-307 848.597,-233 848.597,-182.949 885.754,-133.466 908.107,-108.228"/>
</g>
<!-- 2360&#45;&#45;2372 -->
<g id="edge34" class="edge"><title>2360&#45;&#45;2372</title>
<path fill="none" stroke="black" d="M1040.72,-446.311C1105.25,-438.267 1262.6,-408.271 1262.6,-307 1262.6,-307 1262.6,-307 1262.6,-161 1262.6,-47.212 1077.57,-24.5975 1006.73,-20.1092"/>
</g>
<!-- 2362&#45;&#45;2364 -->
<g id="edge35" class="edge"><title>2362&#45;&#45;2364</title>
<path fill="none" stroke="black" d="M1062.55,-366.821C1027.29,-353.55 965.956,-330.468 930.676,-317.191"/>
</g>
<!-- 2362&#45;&#45;2366 -->
<g id="edge36" class="edge"><title>2362&#45;&#45;2366</title>
<path fill="none" stroke="black" d="M1076.33,-359.871C1055.19,-332.578 1014.09,-279.52 992.913,-252.189"/>
</g>
<!-- 2362&#45;&#45;2368 -->
<g id="edge37" class="edge"><title>2362&#45;&#45;2368</title>
<path fill="none" stroke="black" d="M1085.22,-359.595C1077.77,-330.051 1062.14,-268.209 1048.6,-216 1045.49,-204.024 1041.93,-190.544 1039.18,-180.176"/>
</g>
<!-- 2362&#45;&#45;2370 -->
<g id="edge38" class="edge"><title>2362&#45;&#45;2370</title>
<path fill="none" stroke="black" d="M1093.97,-359.811C1103.55,-317.856 1121.67,-208.91 1070.6,-144 1041.84,-107.442 985.544,-96.0875 951.883,-92.5695"/>
</g>
<!-- 2362&#45;&#45;2372 -->
<g id="edge39" class="edge"><title>2362&#45;&#45;2372</title>
<path fill="none" stroke="black" d="M1116.92,-363.783C1156.36,-342.562 1224.6,-296.909 1224.6,-235 1224.6,-235 1224.6,-235 1224.6,-161 1224.6,-61.1999 1070.54,-30.387 1006.75,-21.9062"/>
</g>
<!-- 2364&#45;&#45;2366 -->
<g id="edge40" class="edge"><title>2364&#45;&#45;2366</title>
<path fill="none" stroke="black" d="M922.384,-287.697C934.164,-276.846 949.288,-262.917 961.027,-252.104"/>
</g>
<!-- 2364&#45;&#45;2368 -->
<g id="edge41" class="edge"><title>2364&#45;&#45;2368</title>
<path fill="none" stroke="black" d="M907.877,-287.833C913.415,-268.494 924.671,-237.026 943.597,-216 961.089,-196.568 987.433,-182.308 1007.28,-173.505"/>
</g>
<!-- 2364&#45;&#45;2370 -->
<g id="edge42" class="edge"><title>2364&#45;&#45;2370</title>
<path fill="none" stroke="black" d="M905.28,-287.849C909.213,-247.78 918.966,-148.383 922.906,-108.232"/>
</g>
<!-- 2364&#45;&#45;2372 -->
<g id="edge43" class="edge"><title>2364&#45;&#45;2372</title>
<path fill="none" stroke="black" d="M896.43,-287.748C880.722,-247.019 847.792,-142.988 888.597,-72 902.173,-48.3825 930.773,-34.3029 952.309,-26.6592"/>
</g>
<!-- 2366&#45;&#45;2368 -->
<g id="edge44" class="edge"><title>2366&#45;&#45;2368</title>
<path fill="none" stroke="black" d="M993.193,-215.697C1001.72,-204.846 1012.66,-190.917 1021.16,-180.104"/>
</g>
<!-- 2366&#45;&#45;2370 -->
<g id="edge45" class="edge"><title>2366&#45;&#45;2370</title>
<path fill="none" stroke="black" d="M972.963,-215.871C962.392,-188.578 941.841,-135.52 931.255,-108.189"/>
</g>
<!-- 2366&#45;&#45;2372 -->
<g id="edge46" class="edge"><title>2366&#45;&#45;2372</title>
<path fill="none" stroke="black" d="M979.597,-215.849C979.597,-175.78 979.597,-76.3826 979.597,-36.2325"/>
</g>
<!-- 2368&#45;&#45;2370 -->
<g id="edge47" class="edge"><title>2368&#45;&#45;2370</title>
<path fill="none" stroke="black" d="M1007.69,-143.876C990.643,-133.029 968.676,-119.05 951.61,-108.19"/>
</g>
<!-- 2368&#45;&#45;2372 -->
<g id="edge48" class="edge"><title>2368&#45;&#45;2372</title>
<path fill="none" stroke="black" d="M1027.96,-143.871C1017.39,-116.578 996.841,-63.5205 986.255,-36.1893"/>
</g>
<!-- 2370&#45;&#45;2372 -->
<g id="edge49" class="edge"><title>2370&#45;&#45;2372</title>
<path fill="none" stroke="black" d="M938.193,-71.6966C946.718,-60.8463 957.663,-46.9167 966.158,-36.1043"/>
</g>
<!-- 3315 -->
<g id="node24" class="node"><title>3315</title>
<polygon fill="#3d4c55" stroke="#3d4c55" points="1451.6,-540 1397.6,-540 1397.6,-504 1451.6,-504 1451.6,-540"/>
<text text-anchor="middle" x="1424.6" y="-518.3" font-family="Times New Roman,serif" font-size="14.00">3315</text>
</g>
<!-- 3316 -->
<g id="node25" class="node"><title>3316</title>
<ellipse fill="#3d4c55" stroke="#3d4c55" cx="1424.6" cy="-450" rx="28.6953" ry="18"/>
<text text-anchor="middle" x="1424.6" y="-446.3" font-family="Times New Roman,serif" font-size="14.00">3316</text>
</g>
<!-- 3315&#45;&#45;3316 -->
<g id="edge50" class="edge"><title>3315&#45;&#45;3316</title>
<path fill="none" stroke="black" d="M1424.6,-503.697C1424.6,-492.846 1424.6,-478.917 1424.6,-468.104"/>
</g>
<!-- 3318 -->
<g id="node26" class="node"><title>3318</title>
<polygon fill="#703485" stroke="#703485" points="1589.6,-396 1535.6,-396 1535.6,-360 1589.6,-360 1589.6,-396"/>
<text text-anchor="middle" x="1562.6" y="-374.3" font-family="Times New Roman,serif" font-size="14.00">3318</text>
</g>
<!-- 3315&#45;&#45;3318 -->
<g id="edge51" class="edge"><title>3315&#45;&#45;3318</title>
<path fill="none" stroke="black" d="M1451.82,-506.728C1468.32,-497.212 1489.11,-483.609 1504.6,-468 1526.16,-446.27 1544.15,-415.299 1554.13,-396.209"/>
</g>
<!-- 3320 -->
<g id="node27" class="node"><title>3320</title>
<polygon fill="#554a52" stroke="#554a52" points="1496.6,-324 1442.6,-324 1442.6,-288 1496.6,-288 1496.6,-324"/>
<text text-anchor="middle" x="1469.6" y="-302.3" font-family="Times New Roman,serif" font-size="14.00">3320</text>
</g>
<!-- 3315&#45;&#45;3320 -->
<g id="edge52" class="edge"><title>3315&#45;&#45;3320</title>
<path fill="none" stroke="black" d="M1440.83,-503.842C1448.95,-494.119 1458.01,-481.269 1462.6,-468 1479.87,-418.022 1475.45,-354.085 1471.96,-324.042"/>
</g>
<!-- 3322 -->
<g id="node28" class="node"><title>3322</title>
<ellipse fill="none" stroke="black" cx="1413.6" cy="-234" rx="28.6953" ry="18"/>
<text text-anchor="middle" x="1413.6" y="-230.3" font-family="Times New Roman,serif" font-size="14.00">3322</text>
</g>
<!-- 3315&#45;&#45;3322 -->
<g id="edge53" class="edge"><title>3315&#45;&#45;3322</title>
<path fill="none" stroke="black" d="M1408.13,-503.919C1399.94,-494.218 1390.89,-481.366 1386.6,-468 1361.49,-389.882 1392.63,-290.386 1407.03,-251.563"/>
</g>
<!-- 3324 -->
<g id="node29" class="node"><title>3324</title>
<polygon fill="#476f86" stroke="#476f86" points="1440.6,-180 1386.6,-180 1386.6,-144 1440.6,-144 1440.6,-180"/>
<text text-anchor="middle" x="1413.6" y="-158.3" font-family="Times New Roman,serif" font-size="14.00">3324</text>
</g>
<!-- 3315&#45;&#45;3324 -->
<g id="edge54" class="edge"><title>3315&#45;&#45;3324</title>
<path fill="none" stroke="black" d="M1397.39,-505.9C1360.88,-483.41 1300.6,-437.422 1300.6,-379 1300.6,-379 1300.6,-379 1300.6,-305 1300.6,-249.865 1353.4,-203.753 1386.82,-180.093"/>
</g>
<!-- 3316&#45;&#45;3318 -->
<g id="edge55" class="edge"><title>3316&#45;&#45;3318</title>
<path fill="none" stroke="black" d="M1446.16,-438.063C1470.27,-425.835 1509.34,-406.012 1535.5,-392.746"/>
</g>
<!-- 3316&#45;&#45;3320 -->
<g id="edge56" class="edge"><title>3316&#45;&#45;3320</title>
<path fill="none" stroke="black" d="M1429.94,-432.153C1438.55,-404.971 1455.43,-351.717 1464.13,-324.268"/>
</g>
<!-- 3316&#45;&#45;3322 -->
<g id="edge57" class="edge"><title>3316&#45;&#45;3322</title>
<path fill="none" stroke="black" d="M1423.72,-431.849C1421.66,-391.78 1416.55,-292.383 1414.48,-252.232"/>
</g>
<!-- 3316&#45;&#45;3324 -->
<g id="edge58" class="edge"><title>3316&#45;&#45;3324</title>
<path fill="none" stroke="black" d="M1415.57,-432.883C1395.33,-394.607 1350.04,-295.493 1375.6,-216 1379.89,-202.634 1388.94,-189.782 1397.13,-180.081"/>
</g>
<!-- 3318&#45;&#45;3320 -->
<g id="edge59" class="edge"><title>3318&#45;&#45;3320</title>
<path fill="none" stroke="black" d="M1539.61,-359.697C1525.19,-348.846 1506.69,-334.917 1492.32,-324.104"/>
</g>
<!-- 3318&#45;&#45;3322 -->
<g id="edge60" class="edge"><title>3318&#45;&#45;3322</title>
<path fill="none" stroke="black" d="M1554.76,-359.878C1545.27,-340.582 1527.77,-309.152 1505.6,-288 1485.33,-268.659 1456.69,-253.601 1436.77,-244.558"/>
</g>
<!-- 3318&#45;&#45;3324 -->
<g id="edge61" class="edge"><title>3318&#45;&#45;3324</title>
<path fill="none" stroke="black" d="M1559.39,-359.752C1555.44,-341.172 1547.61,-311.161 1534.6,-288 1509.3,-242.971 1463.81,-202.325 1436.39,-180.298"/>
</g>
<!-- 6012 -->
<g id="node30" class="node"><title>6012</title>
<ellipse fill="none" stroke="black" cx="1619.6" cy="-306" rx="28.6953" ry="18"/>
<text text-anchor="middle" x="1619.6" y="-302.3" font-family="Times New Roman,serif" font-size="14.00">6012</text>
</g>
<!-- 3318&#45;&#45;6012 -->
<g id="edge62" class="edge"><title>3318&#45;&#45;6012</title>
<path fill="none" stroke="black" d="M1576.69,-359.697C1585.92,-348.36 1597.89,-333.663 1606.84,-322.671"/>
</g>
<!-- 9244 -->
<g id="node31" class="node"><title>9244</title>
<ellipse fill="none" stroke="black" cx="1694.6" cy="-306" rx="28.6953" ry="18"/>
<text text-anchor="middle" x="1694.6" y="-302.3" font-family="Times New Roman,serif" font-size="14.00">9244</text>
</g>
<!-- 3318&#45;&#45;9244 -->
<g id="edge63" class="edge"><title>3318&#45;&#45;9244</title>
<path fill="none" stroke="black" d="M1589.63,-362.666C1614.37,-349.546 1650.49,-330.391 1673.26,-318.317"/>
</g>
<!-- 3320&#45;&#45;3322 -->
<g id="edge64" class="edge"><title>3320&#45;&#45;3322</title>
<path fill="none" stroke="black" d="M1455.75,-287.697C1446.69,-276.36 1434.93,-261.663 1426.13,-250.671"/>
</g>
<!-- 3320&#45;&#45;3324 -->
<g id="edge65" class="edge"><title>3320&#45;&#45;3324</title>
<path fill="none" stroke="black" d="M1468.29,-287.962C1466.41,-269.562 1461.92,-239.702 1451.6,-216 1445.9,-202.921 1436.61,-189.878 1428.64,-180.003"/>
</g>
<!-- 3322&#45;&#45;3324 -->
<g id="edge66" class="edge"><title>3322&#45;&#45;3324</title>
<path fill="none" stroke="black" d="M1413.6,-215.697C1413.6,-204.846 1413.6,-190.917 1413.6,-180.104"/>
</g>
<!-- 5077 -->
<g id="node32" class="node"><title>5077</title>
<polygon fill="#8e618b" stroke="#8e618b" points="1937.6,-540 1883.6,-540 1883.6,-504 1937.6,-504 1937.6,-540"/>
<text text-anchor="middle" x="1910.6" y="-518.3" font-family="Times New Roman,serif" font-size="14.00">5077</text>
</g>
<!-- 5078 -->
<g id="node33" class="node"><title>5078</title>
<polygon fill="#925f56" stroke="#925f56" points="2022.6,-468 1968.6,-468 1968.6,-432 2022.6,-432 2022.6,-468"/>
<text text-anchor="middle" x="1995.6" y="-446.3" font-family="Times New Roman,serif" font-size="14.00">5078</text>
</g>
<!-- 5077&#45;&#45;5078 -->
<g id="edge67" class="edge"><title>5077&#45;&#45;5078</title>
<path fill="none" stroke="black" d="M1931.61,-503.697C1944.78,-492.846 1961.7,-478.917 1974.83,-468.104"/>
</g>
<!-- 5080 -->
<g id="node34" class="node"><title>5080</title>
<polygon fill="#547141" stroke="#547141" points="1902.6,-396 1848.6,-396 1848.6,-360 1902.6,-360 1902.6,-396"/>
<text text-anchor="middle" x="1875.6" y="-374.3" font-family="Times New Roman,serif" font-size="14.00">5080</text>
</g>
<!-- 5077&#45;&#45;5080 -->
<g id="edge68" class="edge"><title>5077&#45;&#45;5080</title>
<path fill="none" stroke="black" d="M1906.38,-503.871C1899.65,-476.578 1886.57,-423.52 1879.83,-396.189"/>
</g>
<!-- 5082 -->
<g id="node35" class="node"><title>5082</title>
<polygon fill="#8d376b" stroke="#8d376b" points="1951.6,-324 1897.6,-324 1897.6,-288 1951.6,-288 1951.6,-324"/>
<text text-anchor="middle" x="1924.6" y="-302.3" font-family="Times New Roman,serif" font-size="14.00">5082</text>
</g>
<!-- 5077&#45;&#45;5082 -->
<g id="edge69" class="edge"><title>5077&#45;&#45;5082</title>
<path fill="none" stroke="black" d="M1911.72,-503.849C1914.34,-463.78 1920.84,-364.383 1923.47,-324.232"/>
</g>
<!-- 5084 -->
<g id="node36" class="node"><title>5084</title>
<polygon fill="#765c36" stroke="#765c36" points="2061.6,-252 2007.6,-252 2007.6,-216 2061.6,-216 2061.6,-252"/>
<text text-anchor="middle" x="2034.6" y="-230.3" font-family="Times New Roman,serif" font-size="14.00">5084</text>
</g>
<!-- 5077&#45;&#45;5084 -->
<g id="edge70" class="edge"><title>5077&#45;&#45;5084</title>
<path fill="none" stroke="black" d="M1937.83,-517.042C1966.11,-511.39 2009.27,-498.127 2031.6,-468 2080.61,-401.856 2053.6,-293.638 2040.45,-252.033"/>
</g>
<!-- 5086 -->
<g id="node37" class="node"><title>5086</title>
<polygon fill="#798146" stroke="#798146" points="1913.6,-180 1859.6,-180 1859.6,-144 1913.6,-144 1913.6,-180"/>
<text text-anchor="middle" x="1886.6" y="-158.3" font-family="Times New Roman,serif" font-size="14.00">5086</text>
</g>
<!-- 5077&#45;&#45;5086 -->
<g id="edge71" class="edge"><title>5077&#45;&#45;5086</title>
<path fill="none" stroke="black" d="M1896.82,-503.664C1879.5,-480.644 1850.69,-437.986 1839.6,-396 1818.52,-316.205 1859.06,-218.878 1877.81,-180.115"/>
</g>
<!-- 5088 -->
<g id="node38" class="node"><title>5088</title>
<polygon fill="#50655d" stroke="#50655d" points="1940.6,-108 1886.6,-108 1886.6,-72 1940.6,-72 1940.6,-108"/>
<text text-anchor="middle" x="1913.6" y="-86.3" font-family="Times New Roman,serif" font-size="14.00">5088</text>
</g>
<!-- 5077&#45;&#45;5088 -->
<g id="edge72" class="edge"><title>5077&#45;&#45;5088</title>
<path fill="none" stroke="black" d="M1883.26,-511.14C1837.8,-492.779 1751.6,-448.764 1751.6,-379 1751.6,-379 1751.6,-379 1751.6,-233 1751.6,-162.127 1840.36,-118.371 1886.48,-100.42"/>
</g>
<!-- 5078&#45;&#45;5080 -->
<g id="edge73" class="edge"><title>5078&#45;&#45;5080</title>
<path fill="none" stroke="black" d="M1968.37,-433.116C1948.73,-421.66 1922.33,-406.263 1902.72,-394.821"/>
</g>
<!-- 5078&#45;&#45;5082 -->
<g id="edge74" class="edge"><title>5078&#45;&#45;5082</title>
<path fill="none" stroke="black" d="M1987.03,-431.871C1973.39,-404.578 1946.86,-351.52 1933.19,-324.189"/>
</g>
<!-- 5078&#45;&#45;5084 -->
<g id="edge75" class="edge"><title>5078&#45;&#45;5084</title>
<path fill="none" stroke="black" d="M2005.55,-431.929C2010.95,-421.822 2017.2,-408.572 2020.6,-396 2034.35,-345.077 2035.45,-282.119 2035.07,-252.265"/>
</g>
<!-- 5078&#45;&#45;5086 -->
<g id="edge76" class="edge"><title>5078&#45;&#45;5086</title>
<path fill="none" stroke="black" d="M1993.57,-431.585C1989.69,-401.506 1979.84,-338.217 1960.6,-288 1947.42,-253.613 1938.44,-247.636 1919.6,-216 1912.39,-203.894 1903.99,-190.416 1897.47,-180.081"/>
</g>
<!-- 5078&#45;&#45;5088 -->
<g id="edge77" class="edge"><title>5078&#45;&#45;5088</title>
<path fill="none" stroke="black" d="M2022.79,-436.011C2062.48,-414.939 2131.6,-369.298 2131.6,-307 2131.6,-307 2131.6,-307 2131.6,-233 2131.6,-142.889 1999.21,-106.987 1940.77,-95.5294"/>
</g>
<!-- 5080&#45;&#45;5082 -->
<g id="edge78" class="edge"><title>5080&#45;&#45;5082</title>
<path fill="none" stroke="black" d="M1887.71,-359.697C1895.31,-348.846 1905.06,-334.917 1912.62,-324.104"/>
</g>
<!-- 5080&#45;&#45;5084 -->
<g id="edge79" class="edge"><title>5080&#45;&#45;5084</title>
<path fill="none" stroke="black" d="M1902.76,-363.016C1920.24,-353.329 1942.91,-339.434 1960.6,-324 1985.73,-302.071 2009.39,-271.159 2022.91,-252.135"/>
</g>
<!-- 5080&#45;&#45;5086 -->
<g id="edge80" class="edge"><title>5080&#45;&#45;5086</title>
<path fill="none" stroke="black" d="M1876.48,-359.849C1878.54,-319.78 1883.65,-220.383 1885.71,-180.232"/>
</g>
<!-- 5080&#45;&#45;5088 -->
<g id="edge81" class="edge"><title>5080&#45;&#45;5088</title>
<path fill="none" stroke="black" d="M1867.98,-359.921C1851.35,-319.997 1816,-218.319 1850.6,-144 1858.08,-127.932 1873.09,-114.995 1886.59,-105.926"/>
</g>
<!-- 5082&#45;&#45;5084 -->
<g id="edge82" class="edge"><title>5082&#45;&#45;5084</title>
<path fill="none" stroke="black" d="M1951.51,-287.876C1968.55,-277.029 1990.52,-263.05 2007.58,-252.19"/>
</g>
<!-- 5082&#45;&#45;5086 -->
<g id="edge83" class="edge"><title>5082&#45;&#45;5086</title>
<path fill="none" stroke="black" d="M1920.01,-287.871C1912.71,-260.578 1898.51,-207.52 1891.2,-180.189"/>
</g>
<!-- 5082&#45;&#45;5088 -->
<g id="edge84" class="edge"><title>5082&#45;&#45;5088</title>
<path fill="none" stroke="black" d="M1925.27,-287.562C1926.21,-257.971 1927.31,-196.06 1922.6,-144 1921.5,-131.916 1919.2,-118.438 1917.2,-108.097"/>
</g>
<!-- 5084&#45;&#45;5086 -->
<g id="edge85" class="edge"><title>5084&#45;&#45;5086</title>
<path fill="none" stroke="black" d="M2007.45,-220.161C1980.83,-207.57 1940.47,-188.48 1913.82,-175.876"/>
</g>
<!-- 5084&#45;&#45;5088 -->
<g id="edge86" class="edge"><title>5084&#45;&#45;5088</title>
<path fill="none" stroke="black" d="M2020,-215.871C1996.75,-188.578 1951.53,-135.52 1928.24,-108.189"/>
</g>
<!-- 5086&#45;&#45;5088 -->
<g id="edge87" class="edge"><title>5086&#45;&#45;5088</title>
<path fill="none" stroke="black" d="M1893.27,-143.697C1897.46,-132.846 1902.83,-118.917 1907,-108.104"/>
</g>
<!-- 5319 -->
<g id="node39" class="node"><title>5319</title>
<ellipse fill="none" stroke="black" cx="2183.6" cy="-450" rx="28.6953" ry="18"/>
<text text-anchor="middle" x="2183.6" y="-446.3" font-family="Times New Roman,serif" font-size="14.00">5319</text>
</g>
<!-- 5320 -->
<g id="node40" class="node"><title>5320</title>
<ellipse fill="none" stroke="black" cx="2229.6" cy="-306" rx="28.6953" ry="18"/>
<text text-anchor="middle" x="2229.6" y="-302.3" font-family="Times New Roman,serif" font-size="14.00">5320</text>
</g>
<!-- 5319&#45;&#45;5320 -->
<g id="edge88" class="edge"><title>5319&#45;&#45;5320</title>
<path fill="none" stroke="black" d="M2181.63,-431.991C2180.17,-413.616 2179.72,-383.778 2188.6,-360 2194.05,-345.396 2205.03,-331.559 2214.25,-321.688"/>
</g>
<!-- 10784 -->
<g id="node41" class="node"><title>10784</title>
<ellipse fill="none" stroke="black" cx="2229.6" cy="-378" rx="32.4942" ry="18"/>
<text text-anchor="middle" x="2229.6" y="-374.3" font-family="Times New Roman,serif" font-size="14.00">10784</text>
</g>
<!-- 5319&#45;&#45;10784 -->
<g id="edge89" class="edge"><title>5319&#45;&#45;10784</title>
<path fill="none" stroke="black" d="M2194.04,-433.116C2201.46,-421.821 2211.4,-406.696 2218.88,-395.307"/>
</g>
<!-- 10784&#45;&#45;5320 -->
<g id="edge90" class="edge"><title>10784&#45;&#45;5320</title>
<path fill="none" stroke="black" d="M2229.6,-359.697C2229.6,-348.846 2229.6,-334.917 2229.6,-324.104"/>
</g>
<!-- 6009 -->
<g id="node42" class="node"><title>6009</title>
<ellipse fill="#703485" stroke="#703485" cx="1597.6" cy="-450" rx="28.6953" ry="18"/>
<text text-anchor="middle" x="1597.6" y="-446.3" font-family="Times New Roman,serif" font-size="14.00">6009</text>
</g>
<!-- 6009&#45;&#45;3318 -->
<g id="edge91" class="edge"><title>6009&#45;&#45;3318</title>
<path fill="none" stroke="black" d="M1589.3,-432.411C1583.89,-421.576 1576.82,-407.45 1571.32,-396.447"/>
</g>
<!-- 6009&#45;&#45;6012 -->
<g id="edge92" class="edge"><title>6009&#45;&#45;6012</title>
<path fill="none" stroke="black" d="M1600.25,-431.871C1604.48,-404.578 1612.7,-351.52 1616.93,-324.189"/>
</g>
<!-- 6015 -->
<g id="node43" class="node"><title>6015</title>
<ellipse fill="none" stroke="black" cx="2346.6" cy="-522" rx="28.6953" ry="18"/>
<text text-anchor="middle" x="2346.6" y="-518.3" font-family="Times New Roman,serif" font-size="14.00">6015</text>
</g>
<!-- 6016 -->
<g id="node44" class="node"><title>6016</title>
<ellipse fill="none" stroke="black" cx="2346.6" cy="-450" rx="28.6953" ry="18"/>
<text text-anchor="middle" x="2346.6" y="-446.3" font-family="Times New Roman,serif" font-size="14.00">6016</text>
</g>
<!-- 6015&#45;&#45;6016 -->
<g id="edge93" class="edge"><title>6015&#45;&#45;6016</title>
<path fill="none" stroke="black" d="M2346.6,-503.697C2346.6,-492.846 2346.6,-478.917 2346.6,-468.104"/>
</g>
<!-- 7675 -->
<g id="node45" class="node"><title>7675</title>
<ellipse fill="none" stroke="black" cx="2460.6" cy="-522" rx="28.6953" ry="18"/>
<text text-anchor="middle" x="2460.6" y="-518.3" font-family="Times New Roman,serif" font-size="14.00">7675</text>
</g>
<!-- 7676 -->
<g id="node46" class="node"><title>7676</title>
<ellipse fill="none" stroke="black" cx="2460.6" cy="-450" rx="28.6953" ry="18"/>
<text text-anchor="middle" x="2460.6" y="-446.3" font-family="Times New Roman,serif" font-size="14.00">7676</text>
</g>
<!-- 7675&#45;&#45;7676 -->
<g id="edge94" class="edge"><title>7675&#45;&#45;7676</title>
<path fill="none" stroke="black" d="M2460.6,-503.697C2460.6,-492.846 2460.6,-478.917 2460.6,-468.104"/>
</g>
<!-- 7678 -->
<g id="node47" class="node"><title>7678</title>
<ellipse fill="none" stroke="black" cx="2422.6" cy="-378" rx="28.6953" ry="18"/>
<text text-anchor="middle" x="2422.6" y="-374.3" font-family="Times New Roman,serif" font-size="14.00">7678</text>
</g>
<!-- 7675&#45;&#45;7678 -->
<g id="edge95" class="edge"><title>7675&#45;&#45;7678</title>
<path fill="none" stroke="black" d="M2446.1,-506.203C2437.43,-496.288 2427.24,-482.444 2422.6,-468 2414.89,-444.023 2417,-414.497 2419.55,-396.21"/>
</g>
<!-- 7680 -->
<g id="node48" class="node"><title>7680</title>
<ellipse fill="none" stroke="black" cx="2498.6" cy="-306" rx="28.6953" ry="18"/>
<text text-anchor="middle" x="2498.6" y="-302.3" font-family="Times New Roman,serif" font-size="14.00">7680</text>
</g>
<!-- 7675&#45;&#45;7680 -->
<g id="edge96" class="edge"><title>7675&#45;&#45;7680</title>
<path fill="none" stroke="black" d="M2475.1,-506.203C2483.76,-496.288 2493.95,-482.444 2498.6,-468 2514.76,-417.706 2507.06,-353.92 2501.92,-323.977"/>
</g>
<!-- 7676&#45;&#45;7678 -->
<g id="edge97" class="edge"><title>7676&#45;&#45;7678</title>
<path fill="none" stroke="black" d="M2451.78,-432.765C2445.64,-421.456 2437.49,-406.437 2431.36,-395.147"/>
</g>
<!-- 7676&#45;&#45;7680 -->
<g id="edge98" class="edge"><title>7676&#45;&#45;7680</title>
<path fill="none" stroke="black" d="M2465.11,-432.153C2472.42,-404.824 2486.79,-351.14 2494.1,-323.825"/>
</g>
<!-- 7678&#45;&#45;7680 -->
<g id="edge99" class="edge"><title>7678&#45;&#45;7680</title>
<path fill="none" stroke="black" d="M2438.34,-362.496C2451.48,-350.402 2470.08,-333.267 2483.13,-321.246"/>
</g>
<!-- 7795 -->
<g id="node49" class="node"><title>7795</title>
<ellipse fill="none" stroke="black" cx="2574.6" cy="-378" rx="28.6953" ry="18"/>
<text text-anchor="middle" x="2574.6" y="-374.3" font-family="Times New Roman,serif" font-size="14.00">7795</text>
</g>
<!-- 7795&#45;&#45;7680 -->
<g id="edge100" class="edge"><title>7795&#45;&#45;7680</title>
<path fill="none" stroke="black" d="M2558.85,-362.496C2545.72,-350.402 2527.12,-333.267 2514.06,-321.246"/>
</g>
<!-- 8201 -->
<g id="node50" class="node"><title>8201</title>
<ellipse fill="none" stroke="black" cx="2696.6" cy="-522" rx="28.6953" ry="18"/>
<text text-anchor="middle" x="2696.6" y="-518.3" font-family="Times New Roman,serif" font-size="14.00">8201</text>
</g>
<!-- 8202 -->
<g id="node51" class="node"><title>8202</title>
<ellipse fill="none" stroke="black" cx="2696.6" cy="-450" rx="28.6953" ry="18"/>
<text text-anchor="middle" x="2696.6" y="-446.3" font-family="Times New Roman,serif" font-size="14.00">8202</text>
</g>
<!-- 8201&#45;&#45;8202 -->
<g id="edge101" class="edge"><title>8201&#45;&#45;8202</title>
<path fill="none" stroke="black" d="M2696.6,-503.697C2696.6,-492.846 2696.6,-478.917 2696.6,-468.104"/>
</g>
<!-- 8204 -->
<g id="node52" class="node"><title>8204</title>
<ellipse fill="none" stroke="black" cx="2649.6" cy="-378" rx="28.6953" ry="18"/>
<text text-anchor="middle" x="2649.6" y="-374.3" font-family="Times New Roman,serif" font-size="14.00">8204</text>
</g>
<!-- 8201&#45;&#45;8204 -->
<g id="edge102" class="edge"><title>8201&#45;&#45;8204</title>
<path fill="none" stroke="black" d="M2682.59,-506.031C2674.12,-496.048 2663.96,-482.191 2658.6,-468 2649.65,-444.321 2648.45,-414.714 2648.75,-396.328"/>
</g>
<!-- 8206 -->
<g id="node53" class="node"><title>8206</title>
<ellipse fill="none" stroke="black" cx="2706.6" cy="-306" rx="28.6953" ry="18"/>
<text text-anchor="middle" x="2706.6" y="-302.3" font-family="Times New Roman,serif" font-size="14.00">8206</text>
</g>
<!-- 8201&#45;&#45;8206 -->
<g id="edge103" class="edge"><title>8201&#45;&#45;8206</title>
<path fill="none" stroke="black" d="M2711.1,-506.203C2719.76,-496.288 2729.95,-482.444 2734.6,-468 2751.09,-416.681 2727.68,-352.853 2714.51,-323.353"/>
</g>
<!-- 8202&#45;&#45;8204 -->
<g id="edge104" class="edge"><title>8202&#45;&#45;8204</title>
<path fill="none" stroke="black" d="M2685.93,-433.116C2678.24,-421.66 2667.9,-406.263 2660.22,-394.821"/>
</g>
<!-- 8202&#45;&#45;8206 -->
<g id="edge105" class="edge"><title>8202&#45;&#45;8206</title>
<path fill="none" stroke="black" d="M2697.8,-431.871C2699.73,-404.578 2703.46,-351.52 2705.39,-324.189"/>
</g>
<!-- 8204&#45;&#45;8206 -->
<g id="edge106" class="edge"><title>8204&#45;&#45;8206</title>
<path fill="none" stroke="black" d="M2662.25,-361.465C2671.69,-349.865 2684.55,-334.082 2693.98,-322.492"/>
</g>
<!-- 9241 -->
<g id="node54" class="node"><title>9241</title>
<ellipse fill="none" stroke="black" cx="1689.6" cy="-450" rx="28.6953" ry="18"/>
<text text-anchor="middle" x="1689.6" y="-446.3" font-family="Times New Roman,serif" font-size="14.00">9241</text>
</g>
<!-- 9241&#45;&#45;3318 -->
<g id="edge107" class="edge"><title>9241&#45;&#45;3318</title>
<path fill="none" stroke="black" d="M1668.63,-437.441C1647.07,-425.558 1613.41,-407.004 1589.81,-393.998"/>
</g>
<!-- 9241&#45;&#45;9244 -->
<g id="edge108" class="edge"><title>9241&#45;&#45;9244</title>
<path fill="none" stroke="black" d="M1690.2,-431.871C1691.16,-404.578 1693.03,-351.52 1693.99,-324.189"/>
</g>
<!-- 9583 -->
<g id="node55" class="node"><title>9583</title>
<ellipse fill="none" stroke="black" cx="2810.6" cy="-522" rx="28.6953" ry="18"/>
<text text-anchor="middle" x="2810.6" y="-518.3" font-family="Times New Roman,serif" font-size="14.00">9583</text>
</g>
<!-- 9584 -->
<g id="node56" class="node"><title>9584</title>
<ellipse fill="none" stroke="black" cx="2810.6" cy="-450" rx="28.6953" ry="18"/>
<text text-anchor="middle" x="2810.6" y="-446.3" font-family="Times New Roman,serif" font-size="14.00">9584</text>
</g>
<!-- 9583&#45;&#45;9584 -->
<g id="edge109" class="edge"><title>9583&#45;&#45;9584</title>
<path fill="none" stroke="black" d="M2810.6,-503.697C2810.6,-492.846 2810.6,-478.917 2810.6,-468.104"/>
</g>
<!-- 9713 -->
<g id="node57" class="node"><title>9713</title>
<ellipse fill="none" stroke="black" cx="2952.6" cy="-522" rx="28.6953" ry="18"/>
<text text-anchor="middle" x="2952.6" y="-518.3" font-family="Times New Roman,serif" font-size="14.00">9713</text>
</g>
<!-- 9714 -->
<g id="node58" class="node"><title>9714</title>
<ellipse fill="none" stroke="black" cx="2981.6" cy="-450" rx="28.6953" ry="18"/>
<text text-anchor="middle" x="2981.6" y="-446.3" font-family="Times New Roman,serif" font-size="14.00">9714</text>
</g>
<!-- 9713&#45;&#45;9714 -->
<g id="edge110" class="edge"><title>9713&#45;&#45;9714</title>
<path fill="none" stroke="black" d="M2959.47,-504.411C2964.03,-493.414 2969.99,-479.027 2974.57,-467.956"/>
</g>
<!-- 9716 -->
<g id="node59" class="node"><title>9716</title>
<ellipse fill="none" stroke="black" cx="2924.6" cy="-378" rx="28.6953" ry="18"/>
<text text-anchor="middle" x="2924.6" y="-374.3" font-family="Times New Roman,serif" font-size="14.00">9716</text>
</g>
<!-- 9713&#45;&#45;9716 -->
<g id="edge111" class="edge"><title>9713&#45;&#45;9716</title>
<path fill="none" stroke="black" d="M2949.22,-503.871C2943.84,-476.578 2933.38,-423.52 2927.99,-396.189"/>
</g>
<!-- 9718 -->
<g id="node60" class="node"><title>9718</title>
<ellipse fill="none" stroke="black" cx="3038.6" cy="-306" rx="28.6953" ry="18"/>
<text text-anchor="middle" x="3038.6" y="-302.3" font-family="Times New Roman,serif" font-size="14.00">9718</text>
</g>
<!-- 9713&#45;&#45;9718 -->
<g id="edge112" class="edge"><title>9713&#45;&#45;9718</title>
<path fill="none" stroke="black" d="M2974.19,-509.959C2989.56,-500.883 3009.25,-486.515 3019.6,-468 3045.68,-421.316 3043.51,-355.243 3040.66,-324.277"/>
</g>
<!-- 9720 -->
<g id="node61" class="node"><title>9720</title>
<ellipse fill="none" stroke="black" cx="2957.6" cy="-234" rx="28.6953" ry="18"/>
<text text-anchor="middle" x="2957.6" y="-230.3" font-family="Times New Roman,serif" font-size="14.00">9720</text>
</g>
<!-- 9713&#45;&#45;9720 -->
<g id="edge113" class="edge"><title>9713&#45;&#45;9720</title>
<path fill="none" stroke="black" d="M2939.14,-505.922C2915.85,-477.95 2871.86,-415.785 2886.6,-360 2898.01,-316.807 2928.17,-272.904 2945.29,-250.4"/>
</g>
<!-- 9714&#45;&#45;9716 -->
<g id="edge114" class="edge"><title>9714&#45;&#45;9716</title>
<path fill="none" stroke="black" d="M2968.95,-433.465C2959.5,-421.865 2946.65,-406.082 2937.21,-394.492"/>
</g>
<!-- 9714&#45;&#45;9718 -->
<g id="edge115" class="edge"><title>9714&#45;&#45;9718</title>
<path fill="none" stroke="black" d="M2988.25,-432.433C2999.17,-405.217 3020.8,-351.334 3031.81,-323.902"/>
</g>
<!-- 9714&#45;&#45;9720 -->
<g id="edge116" class="edge"><title>9714&#45;&#45;9720</title>
<path fill="none" stroke="black" d="M2979.67,-431.849C2975.18,-391.78 2964.03,-292.383 2959.53,-252.232"/>
</g>
<!-- 9716&#45;&#45;9718 -->
<g id="edge117" class="edge"><title>9716&#45;&#45;9718</title>
<path fill="none" stroke="black" d="M2944.45,-364.807C2965.25,-352.037 2997.73,-332.093 3018.59,-319.288"/>
</g>
<!-- 9716&#45;&#45;9720 -->
<g id="edge118" class="edge"><title>9716&#45;&#45;9720</title>
<path fill="none" stroke="black" d="M2928.51,-360.153C2934.83,-332.971 2947.21,-279.717 2953.58,-252.268"/>
</g>
<!-- 9718&#45;&#45;9720 -->
<g id="edge119" class="edge"><title>9718&#45;&#45;9720</title>
<path fill="none" stroke="black" d="M3022.21,-290.834C3008.06,-278.61 2987.75,-261.054 2973.69,-248.906"/>
</g>
<!-- 10781 -->
<g id="node62" class="node"><title>10781</title>
<ellipse fill="none" stroke="black" cx="2240.6" cy="-522" rx="32.4942" ry="18"/>
<text text-anchor="middle" x="2240.6" y="-518.3" font-family="Times New Roman,serif" font-size="14.00">10781</text>
</g>
<!-- 10781&#45;&#45;5319 -->
<g id="edge120" class="edge"><title>10781&#45;&#45;5319</title>
<path fill="none" stroke="black" d="M2227.66,-505.116C2218.2,-493.499 2205.44,-477.828 2196.09,-466.34"/>
</g>
<!-- 10781&#45;&#45;5320 -->
<g id="edge122" class="edge"><title>10781&#45;&#45;5320</title>
<path fill="none" stroke="black" d="M2249.03,-504.608C2263.08,-475.045 2288.06,-411.121 2270.6,-360 2265.56,-345.249 2254.56,-331.419 2245.22,-321.587"/>
</g>
<!-- 10781&#45;&#45;10784 -->
<g id="edge121" class="edge"><title>10781&#45;&#45;10784</title>
<path fill="none" stroke="black" d="M2239.27,-503.871C2237.16,-476.578 2233.05,-423.52 2230.93,-396.189"/>
</g>
</g>
</svg>
