<svg width="2713px" height="539px"
 viewBox="0.00 0.00 2034.57 404.00" xmlns="http://www.w3.org/2000/svg" xmlns:xlink="http://www.w3.org/1999/xlink">
<g id="graph0" class="graph" transform="scale(1.000022500562514 1.000022500562514) rotate(0) translate(4 400)">
<title>G</title>
<polygon fill="white" stroke="none" points="-4,4 -4,-400 2030.57,-400 2030.57,4 -4,4"/>
<!-- 127 -->
<g id="node1" class="node"><title>127</title>
<ellipse fill="none" stroke="black" cx="117.076" cy="-378" rx="27" ry="18"/>
<text text-anchor="middle" x="117.076" y="-374.3" font-family="Times New Roman,serif" font-size="14.00">127</text>
</g>
<!-- 128 -->
<g id="node2" class="node"><title>128</title>
<ellipse fill="none" stroke="black" cx="117.076" cy="-306" rx="27" ry="18"/>
<text text-anchor="middle" x="117.076" y="-302.3" font-family="Times New Roman,serif" font-size="14.00">128</text>
</g>
<!-- 127&#45;&#45;128 -->
<g id="edge1" class="edge"><title>127&#45;&#45;128</title>
<path fill="none" stroke="black" d="M117.076,-359.697C117.076,-348.846 117.076,-334.917 117.076,-324.104"/>
</g>
<!-- 130 -->
<g id="node3" class="node"><title>130</title>
<ellipse fill="none" stroke="black" cx="53.0763" cy="-234" rx="27" ry="18"/>
<text text-anchor="middle" x="53.0763" y="-230.3" font-family="Times New Roman,serif" font-size="14.00">130</text>
</g>
<!-- 127&#45;&#45;130 -->
<g id="edge2" class="edge"><title>127&#45;&#45;130</title>
<path fill="none" stroke="black" d="M90.8986,-372.828C64.1099,-367.012 23.8325,-353.626 5.07634,-324 -11.2632,-298.191 16.7836,-266.35 36.4276,-248.6"/>
</g>
<!-- 5822 -->
<g id="node4" class="node"><title>5822</title>
<ellipse fill="none" stroke="black" cx="117.076" cy="-162" rx="28.6953" ry="18"/>
<text text-anchor="middle" x="117.076" y="-158.3" font-family="Times New Roman,serif" font-size="14.00">5822</text>
</g>
<!-- 127&#45;&#45;5822 -->
<g id="edge3" class="edge"><title>127&#45;&#45;5822</title>
<path fill="none" stroke="black" d="M130.827,-362.069C139.037,-352.1 148.695,-338.247 153.076,-324 169.071,-271.985 141.493,-208.494 126.21,-179.214"/>
</g>
<!-- 128&#45;&#45;130 -->
<g id="edge4" class="edge"><title>128&#45;&#45;130</title>
<path fill="none" stroke="black" d="M103.504,-290.155C92.6426,-278.276 77.4854,-261.697 66.6295,-249.824"/>
</g>
<!-- 128&#45;&#45;5822 -->
<g id="edge5" class="edge"><title>128&#45;&#45;5822</title>
<path fill="none" stroke="black" d="M117.076,-287.871C117.076,-260.578 117.076,-207.52 117.076,-180.189"/>
</g>
<!-- 130&#45;&#45;5822 -->
<g id="edge6" class="edge"><title>130&#45;&#45;5822</title>
<path fill="none" stroke="black" d="M66.6491,-218.155C77.3633,-206.436 92.2584,-190.145 103.081,-178.308"/>
</g>
<!-- 1125 -->
<g id="node5" class="node"><title>1125</title>
<polygon fill="#5d3d54" stroke="#5d3d54" points="565.076,-396 511.076,-396 511.076,-360 565.076,-360 565.076,-396"/>
<text text-anchor="middle" x="538.076" y="-374.3" font-family="Times New Roman,serif" font-size="14.00">1125</text>
</g>
<!-- 1126 -->
<g id="node6" class="node"><title>1126</title>
<polygon fill="#99723f" stroke="#99723f" points="296.076,-324 242.076,-324 242.076,-288 296.076,-288 296.076,-324"/>
<text text-anchor="middle" x="269.076" y="-302.3" font-family="Times New Roman,serif" font-size="14.00">1126</text>
</g>
<!-- 1125&#45;&#45;1126 -->
<g id="edge7" class="edge"><title>1125&#45;&#45;1126</title>
<path fill="none" stroke="black" d="M511.01,-372.207C467.908,-364.24 381.271,-346.863 310.076,-324 305.528,-322.539 300.777,-320.789 296.19,-318.975"/>
</g>
<!-- 1128 -->
<g id="node7" class="node"><title>1128</title>
<ellipse fill="#9a765b" stroke="#9a765b" cx="463.076" cy="-234" rx="28.6953" ry="18"/>
<text text-anchor="middle" x="463.076" y="-230.3" font-family="Times New Roman,serif" font-size="14.00">1128</text>
</g>
<!-- 1125&#45;&#45;1128 -->
<g id="edge8" class="edge"><title>1125&#45;&#45;1128</title>
<path fill="none" stroke="black" d="M522.197,-359.852C513.619,-349.932 503.331,-336.891 496.076,-324 482.822,-300.447 473.006,-270.546 467.663,-252.096"/>
</g>
<!-- 1130 -->
<g id="node8" class="node"><title>1130</title>
<polygon fill="#9a765b" stroke="#9a765b" points="566.076,-180 512.076,-180 512.076,-144 566.076,-144 566.076,-180"/>
<text text-anchor="middle" x="539.076" y="-158.3" font-family="Times New Roman,serif" font-size="14.00">1130</text>
</g>
<!-- 1125&#45;&#45;1130 -->
<g id="edge9" class="edge"><title>1125&#45;&#45;1130</title>
<path fill="none" stroke="black" d="M534.423,-359.908C532.401,-349.569 530.096,-336.09 529.076,-324 524.677,-271.815 532.041,-209.962 536.33,-180.41"/>
</g>
<!-- 1132 -->
<g id="node9" class="node"><title>1132</title>
<polygon fill="#76327d" stroke="#76327d" points="458.076,-108 404.076,-108 404.076,-72 458.076,-72 458.076,-108"/>
<text text-anchor="middle" x="431.076" y="-86.3" font-family="Times New Roman,serif" font-size="14.00">1132</text>
</g>
<!-- 1125&#45;&#45;1132 -->
<g id="edge10" class="edge"><title>1125&#45;&#45;1132</title>
<path fill="none" stroke="black" d="M510.719,-368.913C466.106,-354.07 379.056,-317.802 343.076,-252 314.422,-199.596 374.949,-137.588 409.392,-108.157"/>
</g>
<!-- 1134 -->
<g id="node10" class="node"><title>1134</title>
<polygon fill="#403960" stroke="#403960" points="838.076,-36 784.076,-36 784.076,-0 838.076,-0 838.076,-36"/>
<text text-anchor="middle" x="811.076" y="-14.3" font-family="Times New Roman,serif" font-size="14.00">1134</text>
</g>
<!-- 1125&#45;&#45;1134 -->
<g id="edge11" class="edge"><title>1125&#45;&#45;1134</title>
<path fill="none" stroke="black" d="M565.259,-374.56C630.784,-367.04 792.076,-338.062 792.076,-235 792.076,-235 792.076,-235 792.076,-161 792.076,-115.732 801.68,-63.0581 807.231,-36.3884"/>
</g>
<!-- 3138 -->
<g id="node11" class="node"><title>3138</title>
<ellipse fill="#9a765b" stroke="#9a765b" cx="567.076" cy="-306" rx="28.6953" ry="18"/>
<text text-anchor="middle" x="567.076" y="-302.3" font-family="Times New Roman,serif" font-size="14.00">3138</text>
</g>
<!-- 1125&#45;&#45;3138 -->
<g id="edge12" class="edge"><title>1125&#45;&#45;3138</title>
<path fill="none" stroke="black" d="M545.245,-359.697C549.807,-348.684 555.683,-334.5 560.19,-323.622"/>
</g>
<!-- 10391 -->
<g id="node12" class="node"><title>10391</title>
<ellipse fill="#5d3d54" stroke="#5d3d54" cx="646.076" cy="-306" rx="32.4942" ry="18"/>
<text text-anchor="middle" x="646.076" y="-302.3" font-family="Times New Roman,serif" font-size="14.00">10391</text>
</g>
<!-- 1125&#45;&#45;10391 -->
<g id="edge13" class="edge"><title>1125&#45;&#45;10391</title>
<path fill="none" stroke="black" d="M564.496,-359.876C583.355,-347.653 608.35,-331.453 625.68,-320.22"/>
</g>
<!-- 10392 -->
<g id="node13" class="node"><title>10392</title>
<ellipse fill="#5d3d54" stroke="#5d3d54" cx="656.076" cy="-234" rx="32.4942" ry="18"/>
<text text-anchor="middle" x="656.076" y="-230.3" font-family="Times New Roman,serif" font-size="14.00">10392</text>
</g>
<!-- 1125&#45;&#45;10392 -->
<g id="edge14" class="edge"><title>1125&#45;&#45;10392</title>
<path fill="none" stroke="black" d="M565.366,-376.208C600.257,-373.55 659.453,-363.145 687.076,-324 703.114,-301.274 684.181,-269.484 669.651,-250.689"/>
</g>
<!-- 1126&#45;&#45;1128 -->
<g id="edge15" class="edge"><title>1126&#45;&#45;1128</title>
<path fill="none" stroke="black" d="M296.127,-296.654C327.457,-286.795 380.479,-269.508 425.076,-252 430.189,-249.993 435.615,-247.679 440.718,-245.418"/>
</g>
<!-- 1126&#45;&#45;1130 -->
<g id="edge16" class="edge"><title>1126&#45;&#45;1130</title>
<path fill="none" stroke="black" d="M278.786,-287.864C291.128,-267.645 314.328,-234.452 343.076,-216 396.622,-181.632 472.098,-169.38 511.96,-165.143"/>
</g>
<!-- 1126&#45;&#45;1132 -->
<g id="edge17" class="edge"><title>1126&#45;&#45;1132</title>
<path fill="none" stroke="black" d="M268.764,-287.761C269.098,-255.675 274.245,-186.226 310.076,-144 334.114,-115.672 376.184,-101.972 403.838,-95.7315"/>
</g>
<!-- 1126&#45;&#45;1134 -->
<g id="edge18" class="edge"><title>1126&#45;&#45;1134</title>
<path fill="none" stroke="black" d="M265.675,-287.838C260.416,-256.182 253.905,-187.838 285.076,-144 318.936,-96.3804 340.252,-92.2081 395.076,-72 534.435,-20.6332 715.855,-17.4767 783.807,-18.3138"/>
</g>
<!-- 1128&#45;&#45;1130 -->
<g id="edge19" class="edge"><title>1128&#45;&#45;1130</title>
<path fill="none" stroke="black" d="M478.824,-218.496C490.911,-207.363 507.635,-191.959 520.398,-180.204"/>
</g>
<!-- 1130&#45;&#45;1132 -->
<g id="edge20" class="edge"><title>1130&#45;&#45;1132</title>
<path fill="none" stroke="black" d="M512.657,-143.876C495.921,-133.029 474.353,-119.05 457.598,-108.19"/>
</g>
<!-- 1130&#45;&#45;1134 -->
<g id="edge21" class="edge"><title>1130&#45;&#45;1134</title>
<path fill="none" stroke="black" d="M566.151,-146.865C618.154,-119.717 731.475,-60.5568 783.707,-33.2882"/>
</g>
<!-- 1132&#45;&#45;1134 -->
<g id="edge22" class="edge"><title>1132&#45;&#45;1134</title>
<path fill="none" stroke="black" d="M458.1,-84.0219C527.959,-71.1532 713.949,-36.892 783.936,-23.9996"/>
</g>
<!-- 3138&#45;&#45;1130 -->
<g id="edge23" class="edge"><title>3138&#45;&#45;1130</title>
<path fill="none" stroke="black" d="M563.699,-287.871C558.317,-260.578 547.855,-207.52 542.466,-180.189"/>
</g>
<!-- 10391&#45;&#45;1130 -->
<g id="edge25" class="edge"><title>10391&#45;&#45;1130</title>
<path fill="none" stroke="black" d="M634.01,-288.987C613.679,-262.005 572.776,-207.723 551.928,-180.056"/>
</g>
<!-- 10391&#45;&#45;10392 -->
<g id="edge24" class="edge"><title>10391&#45;&#45;10392</title>
<path fill="none" stroke="black" d="M648.548,-287.697C650.098,-276.846 652.088,-262.917 653.633,-252.104"/>
</g>
<!-- 10392&#45;&#45;1130 -->
<g id="edge26" class="edge"><title>10392&#45;&#45;1130</title>
<path fill="none" stroke="black" d="M634.889,-220.324C615.66,-208.819 587.2,-191.792 566.293,-179.284"/>
</g>
<!-- 1135 -->
<g id="node14" class="node"><title>1135</title>
<ellipse fill="none" stroke="black" cx="849.076" cy="-162" rx="28.6953" ry="18"/>
<text text-anchor="middle" x="849.076" y="-158.3" font-family="Times New Roman,serif" font-size="14.00">1135</text>
</g>
<!-- 1135&#45;&#45;1134 -->
<g id="edge28" class="edge"><title>1135&#45;&#45;1134</title>
<path fill="none" stroke="black" d="M844.568,-144.153C837.294,-116.971 823.043,-63.7165 815.697,-36.2678"/>
</g>
<!-- 1136 -->
<g id="node15" class="node"><title>1136</title>
<ellipse fill="none" stroke="black" cx="887.076" cy="-90" rx="28.6953" ry="18"/>
<text text-anchor="middle" x="887.076" y="-86.3" font-family="Times New Roman,serif" font-size="14.00">1136</text>
</g>
<!-- 1135&#45;&#45;1136 -->
<g id="edge27" class="edge"><title>1135&#45;&#45;1136</title>
<path fill="none" stroke="black" d="M857.89,-144.765C864.029,-133.456 872.182,-118.437 878.311,-107.147"/>
</g>
<!-- 1136&#45;&#45;1134 -->
<g id="edge29" class="edge"><title>1136&#45;&#45;1134</title>
<path fill="none" stroke="black" d="M871.329,-74.496C859.242,-63.3632 842.517,-47.9589 829.755,-36.2038"/>
</g>
<!-- 1149 -->
<g id="node16" class="node"><title>1149</title>
<ellipse fill="#9a765b" stroke="#9a765b" cx="735.076" cy="-234" rx="28.6953" ry="18"/>
<text text-anchor="middle" x="735.076" y="-230.3" font-family="Times New Roman,serif" font-size="14.00">1149</text>
</g>
<!-- 1149&#45;&#45;1130 -->
<g id="edge30" class="edge"><title>1149&#45;&#45;1130</title>
<path fill="none" stroke="black" d="M712.724,-222.568C707.621,-220.307 702.193,-217.997 697.076,-216 651.797,-198.325 597.902,-181.023 566.199,-171.217"/>
</g>
<!-- 2267 -->
<g id="node17" class="node"><title>2267</title>
<ellipse fill="none" stroke="black" cx="1073.08" cy="-378" rx="28.6953" ry="18"/>
<text text-anchor="middle" x="1073.08" y="-374.3" font-family="Times New Roman,serif" font-size="14.00">2267</text>
</g>
<!-- 2268 -->
<g id="node18" class="node"><title>2268</title>
<ellipse fill="none" stroke="black" cx="1073.08" cy="-306" rx="28.6953" ry="18"/>
<text text-anchor="middle" x="1073.08" y="-302.3" font-family="Times New Roman,serif" font-size="14.00">2268</text>
</g>
<!-- 2267&#45;&#45;2268 -->
<g id="edge31" class="edge"><title>2267&#45;&#45;2268</title>
<path fill="none" stroke="black" d="M1073.08,-359.697C1073.08,-348.846 1073.08,-334.917 1073.08,-324.104"/>
</g>
<!-- 2270 -->
<g id="node19" class="node"><title>2270</title>
<ellipse fill="none" stroke="black" cx="1026.08" cy="-234" rx="28.6953" ry="18"/>
<text text-anchor="middle" x="1026.08" y="-230.3" font-family="Times New Roman,serif" font-size="14.00">2270</text>
</g>
<!-- 2267&#45;&#45;2270 -->
<g id="edge32" class="edge"><title>2267&#45;&#45;2270</title>
<path fill="none" stroke="black" d="M1059.07,-362.031C1050.6,-352.048 1040.44,-338.191 1035.08,-324 1026.13,-300.321 1024.92,-270.714 1025.23,-252.328"/>
</g>
<!-- 2272 -->
<g id="node20" class="node"><title>2272</title>
<ellipse fill="none" stroke="black" cx="1083.08" cy="-162" rx="28.6953" ry="18"/>
<text text-anchor="middle" x="1083.08" y="-158.3" font-family="Times New Roman,serif" font-size="14.00">2272</text>
</g>
<!-- 2267&#45;&#45;2272 -->
<g id="edge33" class="edge"><title>2267&#45;&#45;2272</title>
<path fill="none" stroke="black" d="M1087.58,-362.203C1096.24,-352.288 1106.43,-338.444 1111.08,-324 1127.57,-272.681 1104.16,-208.853 1090.99,-179.353"/>
</g>
<!-- 2268&#45;&#45;2270 -->
<g id="edge34" class="edge"><title>2268&#45;&#45;2270</title>
<path fill="none" stroke="black" d="M1062.41,-289.116C1054.72,-277.66 1044.38,-262.263 1036.7,-250.821"/>
</g>
<!-- 2268&#45;&#45;2272 -->
<g id="edge35" class="edge"><title>2268&#45;&#45;2272</title>
<path fill="none" stroke="black" d="M1074.28,-287.871C1076.2,-260.578 1079.94,-207.52 1081.87,-180.189"/>
</g>
<!-- 2270&#45;&#45;2272 -->
<g id="edge36" class="edge"><title>2270&#45;&#45;2272</title>
<path fill="none" stroke="black" d="M1038.73,-217.465C1048.17,-205.865 1061.02,-190.082 1070.46,-178.492"/>
</g>
<!-- 3253 -->
<g id="node21" class="node"><title>3253</title>
<ellipse fill="none" stroke="black" cx="1187.08" cy="-378" rx="28.6953" ry="18"/>
<text text-anchor="middle" x="1187.08" y="-374.3" font-family="Times New Roman,serif" font-size="14.00">3253</text>
</g>
<!-- 3254 -->
<g id="node22" class="node"><title>3254</title>
<ellipse fill="none" stroke="black" cx="1187.08" cy="-306" rx="28.6953" ry="18"/>
<text text-anchor="middle" x="1187.08" y="-302.3" font-family="Times New Roman,serif" font-size="14.00">3254</text>
</g>
<!-- 3253&#45;&#45;3254 -->
<g id="edge37" class="edge"><title>3253&#45;&#45;3254</title>
<path fill="none" stroke="black" d="M1187.08,-359.697C1187.08,-348.846 1187.08,-334.917 1187.08,-324.104"/>
</g>
<!-- 3269 -->
<g id="node23" class="node"><title>3269</title>
<ellipse fill="none" stroke="black" cx="924.076" cy="-162" rx="28.6953" ry="18"/>
<text text-anchor="middle" x="924.076" y="-158.3" font-family="Times New Roman,serif" font-size="14.00">3269</text>
</g>
<!-- 3269&#45;&#45;1136 -->
<g id="edge38" class="edge"><title>3269&#45;&#45;1136</title>
<path fill="none" stroke="black" d="M915.495,-144.765C909.603,-133.618 901.805,-118.865 895.868,-107.633"/>
</g>
<!-- 4079 -->
<g id="node24" class="node"><title>4079</title>
<ellipse fill="none" stroke="black" cx="1262.08" cy="-378" rx="28.6953" ry="18"/>
<text text-anchor="middle" x="1262.08" y="-374.3" font-family="Times New Roman,serif" font-size="14.00">4079</text>
</g>
<!-- 4080 -->
<g id="node25" class="node"><title>4080</title>
<ellipse fill="none" stroke="black" cx="1262.08" cy="-306" rx="28.6953" ry="18"/>
<text text-anchor="middle" x="1262.08" y="-302.3" font-family="Times New Roman,serif" font-size="14.00">4080</text>
</g>
<!-- 4079&#45;&#45;4080 -->
<g id="edge39" class="edge"><title>4079&#45;&#45;4080</title>
<path fill="none" stroke="black" d="M1262.08,-359.697C1262.08,-348.846 1262.08,-334.917 1262.08,-324.104"/>
</g>
<!-- 4735 -->
<g id="node26" class="node"><title>4735</title>
<ellipse fill="none" stroke="black" cx="1337.08" cy="-378" rx="28.6953" ry="18"/>
<text text-anchor="middle" x="1337.08" y="-374.3" font-family="Times New Roman,serif" font-size="14.00">4735</text>
</g>
<!-- 4736 -->
<g id="node27" class="node"><title>4736</title>
<ellipse fill="none" stroke="black" cx="1337.08" cy="-306" rx="28.6953" ry="18"/>
<text text-anchor="middle" x="1337.08" y="-302.3" font-family="Times New Roman,serif" font-size="14.00">4736</text>
</g>
<!-- 4735&#45;&#45;4736 -->
<g id="edge40" class="edge"><title>4735&#45;&#45;4736</title>
<path fill="none" stroke="black" d="M1337.08,-359.697C1337.08,-348.846 1337.08,-334.917 1337.08,-324.104"/>
</g>
<!-- 5481 -->
<g id="node28" class="node"><title>5481</title>
<ellipse fill="none" stroke="black" cx="1412.08" cy="-378" rx="28.6953" ry="18"/>
<text text-anchor="middle" x="1412.08" y="-374.3" font-family="Times New Roman,serif" font-size="14.00">5481</text>
</g>
<!-- 5482 -->
<g id="node29" class="node"><title>5482</title>
<ellipse fill="none" stroke="black" cx="1412.08" cy="-306" rx="28.6953" ry="18"/>
<text text-anchor="middle" x="1412.08" y="-302.3" font-family="Times New Roman,serif" font-size="14.00">5482</text>
</g>
<!-- 5481&#45;&#45;5482 -->
<g id="edge41" class="edge"><title>5481&#45;&#45;5482</title>
<path fill="none" stroke="black" d="M1412.08,-359.697C1412.08,-348.846 1412.08,-334.917 1412.08,-324.104"/>
</g>
<!-- 5823 -->
<g id="node30" class="node"><title>5823</title>
<ellipse fill="none" stroke="black" cx="43.0763" cy="-306" rx="28.6953" ry="18"/>
<text text-anchor="middle" x="43.0763" y="-302.3" font-family="Times New Roman,serif" font-size="14.00">5823</text>
</g>
<!-- 5823&#45;&#45;130 -->
<g id="edge42" class="edge"><title>5823&#45;&#45;130</title>
<path fill="none" stroke="black" d="M45.4971,-288.055C47.0462,-277.211 49.0502,-263.183 50.6084,-252.275"/>
</g>
<!-- 7569 -->
<g id="node31" class="node"><title>7569</title>
<ellipse fill="none" stroke="black" cx="1487.08" cy="-378" rx="28.6953" ry="18"/>
<text text-anchor="middle" x="1487.08" y="-374.3" font-family="Times New Roman,serif" font-size="14.00">7569</text>
</g>
<!-- 7570 -->
<g id="node32" class="node"><title>7570</title>
<ellipse fill="none" stroke="black" cx="1487.08" cy="-306" rx="28.6953" ry="18"/>
<text text-anchor="middle" x="1487.08" y="-302.3" font-family="Times New Roman,serif" font-size="14.00">7570</text>
</g>
<!-- 7569&#45;&#45;7570 -->
<g id="edge43" class="edge"><title>7569&#45;&#45;7570</title>
<path fill="none" stroke="black" d="M1487.08,-359.697C1487.08,-348.846 1487.08,-334.917 1487.08,-324.104"/>
</g>
<!-- 7755 -->
<g id="node33" class="node"><title>7755</title>
<ellipse fill="none" stroke="black" cx="1562.08" cy="-378" rx="28.6953" ry="18"/>
<text text-anchor="middle" x="1562.08" y="-374.3" font-family="Times New Roman,serif" font-size="14.00">7755</text>
</g>
<!-- 7756 -->
<g id="node34" class="node"><title>7756</title>
<ellipse fill="none" stroke="black" cx="1562.08" cy="-306" rx="28.6953" ry="18"/>
<text text-anchor="middle" x="1562.08" y="-302.3" font-family="Times New Roman,serif" font-size="14.00">7756</text>
</g>
<!-- 7755&#45;&#45;7756 -->
<g id="edge44" class="edge"><title>7755&#45;&#45;7756</title>
<path fill="none" stroke="black" d="M1562.08,-359.697C1562.08,-348.846 1562.08,-334.917 1562.08,-324.104"/>
</g>
<!-- 7783 -->
<g id="node35" class="node"><title>7783</title>
<ellipse fill="none" stroke="black" cx="1637.08" cy="-378" rx="28.6953" ry="18"/>
<text text-anchor="middle" x="1637.08" y="-374.3" font-family="Times New Roman,serif" font-size="14.00">7783</text>
</g>
<!-- 7784 -->
<g id="node36" class="node"><title>7784</title>
<ellipse fill="none" stroke="black" cx="1637.08" cy="-306" rx="28.6953" ry="18"/>
<text text-anchor="middle" x="1637.08" y="-302.3" font-family="Times New Roman,serif" font-size="14.00">7784</text>
</g>
<!-- 7783&#45;&#45;7784 -->
<g id="edge45" class="edge"><title>7783&#45;&#45;7784</title>
<path fill="none" stroke="black" d="M1637.08,-359.697C1637.08,-348.846 1637.08,-334.917 1637.08,-324.104"/>
</g>
<!-- 9607 -->
<g id="node37" class="node"><title>9607</title>
<ellipse fill="#99723f" stroke="#99723f" cx="269.076" cy="-378" rx="28.6953" ry="18"/>
<text text-anchor="middle" x="269.076" y="-374.3" font-family="Times New Roman,serif" font-size="14.00">9607</text>
</g>
<!-- 9607&#45;&#45;1126 -->
<g id="edge46" class="edge"><title>9607&#45;&#45;1126</title>
<path fill="none" stroke="black" d="M269.076,-359.697C269.076,-348.846 269.076,-334.917 269.076,-324.104"/>
</g>
<!-- 10405 -->
<g id="node38" class="node"><title>10405</title>
<ellipse fill="#403960" stroke="#403960" cx="1004.08" cy="-162" rx="32.4942" ry="18"/>
<text text-anchor="middle" x="1004.08" y="-158.3" font-family="Times New Roman,serif" font-size="14.00">10405</text>
</g>
<!-- 10405&#45;&#45;1134 -->
<g id="edge48" class="edge"><title>10405&#45;&#45;1134</title>
<path fill="none" stroke="black" d="M991.266,-145.062C972.988,-122.594 939.991,-83.1048 925.076,-72 898.117,-51.9265 862.339,-36.8244 838.108,-27.9767"/>
</g>
<!-- 10406 -->
<g id="node39" class="node"><title>10406</title>
<ellipse fill="#403960" stroke="#403960" cx="1004.08" cy="-90" rx="32.4942" ry="18"/>
<text text-anchor="middle" x="1004.08" y="-86.3" font-family="Times New Roman,serif" font-size="14.00">10406</text>
</g>
<!-- 10405&#45;&#45;10406 -->
<g id="edge47" class="edge"><title>10405&#45;&#45;10406</title>
<path fill="none" stroke="black" d="M1004.08,-143.697C1004.08,-132.846 1004.08,-118.917 1004.08,-108.104"/>
</g>
<!-- 10406&#45;&#45;1134 -->
<g id="edge49" class="edge"><title>10406&#45;&#45;1134</title>
<path fill="none" stroke="black" d="M977.818,-79.2548C971.366,-76.8717 964.475,-74.3357 958.076,-72 916.283,-56.7433 867.708,-39.283 838.193,-28.7038"/>
</g>
<!-- 10645 -->
<g id="node40" class="node"><title>10645</title>
<ellipse fill="none" stroke="black" cx="1746.08" cy="-378" rx="32.4942" ry="18"/>
<text text-anchor="middle" x="1746.08" y="-374.3" font-family="Times New Roman,serif" font-size="14.00">10645</text>
</g>
<!-- 10646 -->
<g id="node41" class="node"><title>10646</title>
<ellipse fill="none" stroke="black" cx="1716.08" cy="-306" rx="32.4942" ry="18"/>
<text text-anchor="middle" x="1716.08" y="-302.3" font-family="Times New Roman,serif" font-size="14.00">10646</text>
</g>
<!-- 10645&#45;&#45;10646 -->
<g id="edge50" class="edge"><title>10645&#45;&#45;10646</title>
<path fill="none" stroke="black" d="M1738.97,-360.411C1734.25,-349.414 1728.09,-335.027 1723.34,-323.956"/>
</g>
<!-- 10648 -->
<g id="node42" class="node"><title>10648</title>
<ellipse fill="none" stroke="black" cx="1735.08" cy="-234" rx="32.4942" ry="18"/>
<text text-anchor="middle" x="1735.08" y="-230.3" font-family="Times New Roman,serif" font-size="14.00">10648</text>
</g>
<!-- 10645&#45;&#45;10648 -->
<g id="edge51" class="edge"><title>10645&#45;&#45;10648</title>
<path fill="none" stroke="black" d="M1751.34,-360.151C1756.22,-342.164 1762.04,-312.888 1757.08,-288 1754.54,-275.298 1748.91,-261.83 1743.98,-251.648"/>
</g>
<!-- 10646&#45;&#45;10648 -->
<g id="edge52" class="edge"><title>10646&#45;&#45;10648</title>
<path fill="none" stroke="black" d="M1720.68,-288.055C1723.62,-277.211 1727.43,-263.183 1730.39,-252.275"/>
</g>
<!-- 10863 -->
<g id="node43" class="node"><title>10863</title>
<ellipse fill="#9a765b" stroke="#9a765b" cx="384.076" cy="-234" rx="32.4942" ry="18"/>
<text text-anchor="middle" x="384.076" y="-230.3" font-family="Times New Roman,serif" font-size="14.00">10863</text>
</g>
<!-- 10863&#45;&#45;1130 -->
<g id="edge53" class="edge"><title>10863&#45;&#45;1130</title>
<path fill="none" stroke="black" d="M408.637,-221.908C436.806,-209.186 482.851,-188.392 512.026,-175.216"/>
</g>
<!-- 11133 -->
<g id="node44" class="node"><title>11133</title>
<ellipse fill="none" stroke="black" cx="1904.08" cy="-378" rx="32.4942" ry="18"/>
<text text-anchor="middle" x="1904.08" y="-374.3" font-family="Times New Roman,serif" font-size="14.00">11133</text>
</g>
<!-- 11134 -->
<g id="node45" class="node"><title>11134</title>
<ellipse fill="none" stroke="black" cx="1934.08" cy="-306" rx="32.4942" ry="18"/>
<text text-anchor="middle" x="1934.08" y="-302.3" font-family="Times New Roman,serif" font-size="14.00">11134</text>
</g>
<!-- 11133&#45;&#45;11134 -->
<g id="edge54" class="edge"><title>11133&#45;&#45;11134</title>
<path fill="none" stroke="black" d="M1911.19,-360.411C1915.9,-349.414 1922.06,-335.027 1926.81,-323.956"/>
</g>
<!-- 11136 -->
<g id="node46" class="node"><title>11136</title>
<ellipse fill="none" stroke="black" cx="1874.08" cy="-234" rx="32.4942" ry="18"/>
<text text-anchor="middle" x="1874.08" y="-230.3" font-family="Times New Roman,serif" font-size="14.00">11136</text>
</g>
<!-- 11133&#45;&#45;11136 -->
<g id="edge55" class="edge"><title>11133&#45;&#45;11136</title>
<path fill="none" stroke="black" d="M1900.46,-359.871C1894.69,-332.578 1883.48,-279.52 1877.71,-252.189"/>
</g>
<!-- 11138 -->
<g id="node47" class="node"><title>11138</title>
<ellipse fill="none" stroke="black" cx="1994.08" cy="-162" rx="32.4942" ry="18"/>
<text text-anchor="middle" x="1994.08" y="-158.3" font-family="Times New Roman,serif" font-size="14.00">11138</text>
</g>
<!-- 11133&#45;&#45;11138 -->
<g id="edge56" class="edge"><title>11133&#45;&#45;11138</title>
<path fill="none" stroke="black" d="M1927.97,-365.704C1944.09,-356.753 1964.31,-342.651 1975.08,-324 2001.81,-277.686 1999.33,-211.434 1996.27,-180.351"/>
</g>
<!-- 11140 -->
<g id="node48" class="node"><title>11140</title>
<ellipse fill="none" stroke="black" cx="1909.08" cy="-90" rx="32.4942" ry="18"/>
<text text-anchor="middle" x="1909.08" y="-86.3" font-family="Times New Roman,serif" font-size="14.00">11140</text>
</g>
<!-- 11133&#45;&#45;11140 -->
<g id="edge57" class="edge"><title>11133&#45;&#45;11140</title>
<path fill="none" stroke="black" d="M1889.23,-361.559C1864.11,-333.504 1817.42,-271.891 1833.08,-216 1845.27,-172.468 1877.25,-129.04 1895.61,-106.618"/>
</g>
<!-- 11134&#45;&#45;11136 -->
<g id="edge58" class="edge"><title>11134&#45;&#45;11136</title>
<path fill="none" stroke="black" d="M1920.76,-289.465C1910.82,-277.865 1897.29,-262.082 1887.36,-250.492"/>
</g>
<!-- 11134&#45;&#45;11138 -->
<g id="edge59" class="edge"><title>11134&#45;&#45;11138</title>
<path fill="none" stroke="black" d="M1941.19,-288.153C1952.74,-260.824 1975.43,-207.14 1986.97,-179.825"/>
</g>
<!-- 11134&#45;&#45;11140 -->
<g id="edge60" class="edge"><title>11134&#45;&#45;11140</title>
<path fill="none" stroke="black" d="M1932.07,-287.849C1927.39,-247.78 1915.78,-148.383 1911.09,-108.232"/>
</g>
<!-- 11136&#45;&#45;11138 -->
<g id="edge61" class="edge"><title>11136&#45;&#45;11138</title>
<path fill="none" stroke="black" d="M1895.81,-220.324C1917.56,-207.637 1950.82,-188.235 1972.51,-175.582"/>
</g>
<!-- 11136&#45;&#45;11140 -->
<g id="edge62" class="edge"><title>11136&#45;&#45;11140</title>
<path fill="none" stroke="black" d="M1878.3,-215.871C1885.03,-188.578 1898.1,-135.52 1904.84,-108.189"/>
</g>
<!-- 11138&#45;&#45;11140 -->
<g id="edge63" class="edge"><title>11138&#45;&#45;11140</title>
<path fill="none" stroke="black" d="M1976.46,-146.496C1961.78,-134.402 1940.97,-117.267 1926.38,-105.246"/>
</g>
</g>
</svg>
