<svg width="3541px" height="827px"
 viewBox="0.00 0.00 2655.39 620.00" xmlns="http://www.w3.org/2000/svg" xmlns:xlink="http://www.w3.org/1999/xlink">
<g id="graph0" class="graph" transform="scale(1.000022500562514 1.000022500562514) rotate(0) translate(4 616)">
<title>G</title>
<polygon fill="white" stroke="none" points="-4,4 -4,-616 2651.39,-616 2651.39,4 -4,4"/>
<!-- 133 -->
<g id="node1" class="node"><title>133</title>
<ellipse fill="none" stroke="black" cx="109.497" cy="-522" rx="27" ry="18"/>
<text text-anchor="middle" x="109.497" y="-518.3" font-family="Times New Roman,serif" font-size="14.00">133</text>
</g>
<!-- 134 -->
<g id="node2" class="node"><title>134</title>
<ellipse fill="none" stroke="black" cx="127.497" cy="-378" rx="27" ry="18"/>
<text text-anchor="middle" x="127.497" y="-374.3" font-family="Times New Roman,serif" font-size="14.00">134</text>
</g>
<!-- 133&#45;&#45;134 -->
<g id="edge1" class="edge"><title>133&#45;&#45;134</title>
<path fill="none" stroke="black" d="M103.806,-504.363C98.4652,-486.306 92.1719,-456.737 98.4971,-432 101.927,-418.586 109.53,-404.915 116.091,-394.817"/>
</g>
<!-- 11162 -->
<g id="node6" class="node"><title>11162</title>
<ellipse fill="none" stroke="black" cx="139.497" cy="-450" rx="32.4942" ry="18"/>
<text text-anchor="middle" x="139.497" y="-446.3" font-family="Times New Roman,serif" font-size="14.00">11162</text>
</g>
<!-- 133&#45;&#45;11162 -->
<g id="edge2" class="edge"><title>133&#45;&#45;11162</title>
<path fill="none" stroke="black" d="M116.607,-504.411C121.32,-493.414 127.485,-479.027 132.23,-467.956"/>
</g>
<!-- 6164 -->
<g id="node3" class="node"><title>6164</title>
<ellipse fill="none" stroke="black" cx="194.497" cy="-306" rx="28.6953" ry="18"/>
<text text-anchor="middle" x="194.497" y="-302.3" font-family="Times New Roman,serif" font-size="14.00">6164</text>
</g>
<!-- 134&#45;&#45;6164 -->
<g id="edge3" class="edge"><title>134&#45;&#45;6164</title>
<path fill="none" stroke="black" d="M141.38,-362.496C152.725,-350.642 168.706,-333.946 180.17,-321.968"/>
</g>
<!-- 10236 -->
<g id="node4" class="node"><title>10236</title>
<ellipse fill="none" stroke="black" cx="32.4971" cy="-306" rx="32.4942" ry="18"/>
<text text-anchor="middle" x="32.4971" y="-302.3" font-family="Times New Roman,serif" font-size="14.00">10236</text>
</g>
<!-- 134&#45;&#45;10236 -->
<g id="edge4" class="edge"><title>134&#45;&#45;10236</title>
<path fill="none" stroke="black" d="M110.073,-364.161C93.4673,-351.925 68.5314,-333.552 51.4401,-320.958"/>
</g>
<!-- 11020 -->
<g id="node5" class="node"><title>11020</title>
<ellipse fill="none" stroke="black" cx="115.497" cy="-306" rx="32.4942" ry="18"/>
<text text-anchor="middle" x="115.497" y="-302.3" font-family="Times New Roman,serif" font-size="14.00">11020</text>
</g>
<!-- 134&#45;&#45;11020 -->
<g id="edge5" class="edge"><title>134&#45;&#45;11020</title>
<path fill="none" stroke="black" d="M124.592,-360.055C122.733,-349.211 120.328,-335.183 118.459,-324.275"/>
</g>
<!-- 11162&#45;&#45;134 -->
<g id="edge6" class="edge"><title>11162&#45;&#45;134</title>
<path fill="none" stroke="black" d="M136.592,-432.055C134.733,-421.211 132.328,-407.183 130.459,-396.275"/>
</g>
<!-- 223 -->
<g id="node7" class="node"><title>223</title>
<ellipse fill="none" stroke="black" cx="1416.5" cy="-594" rx="27" ry="18"/>
<text text-anchor="middle" x="1416.5" y="-590.3" font-family="Times New Roman,serif" font-size="14.00">223</text>
</g>
<!-- 224 -->
<g id="node8" class="node"><title>224</title>
<ellipse fill="none" stroke="black" cx="1416.5" cy="-522" rx="27" ry="18"/>
<text text-anchor="middle" x="1416.5" y="-518.3" font-family="Times New Roman,serif" font-size="14.00">224</text>
</g>
<!-- 223&#45;&#45;224 -->
<g id="edge7" class="edge"><title>223&#45;&#45;224</title>
<path fill="none" stroke="black" d="M1416.5,-575.697C1416.5,-564.846 1416.5,-550.917 1416.5,-540.104"/>
</g>
<!-- 1241 -->
<g id="node9" class="node"><title>1241</title>
<ellipse fill="none" stroke="black" cx="246.497" cy="-450" rx="28.6953" ry="18"/>
<text text-anchor="middle" x="246.497" y="-446.3" font-family="Times New Roman,serif" font-size="14.00">1241</text>
</g>
<!-- 1241&#45;&#45;134 -->
<g id="edge10" class="edge"><title>1241&#45;&#45;134</title>
<path fill="none" stroke="black" d="M226.31,-437.125C204.163,-424.097 168.86,-403.331 146.991,-390.467"/>
</g>
<!-- 1242 -->
<g id="node10" class="node"><title>1242</title>
<ellipse fill="none" stroke="black" cx="308.497" cy="-378" rx="28.6953" ry="18"/>
<text text-anchor="middle" x="308.497" y="-374.3" font-family="Times New Roman,serif" font-size="14.00">1242</text>
</g>
<!-- 1241&#45;&#45;1242 -->
<g id="edge8" class="edge"><title>1241&#45;&#45;1242</title>
<path fill="none" stroke="black" d="M259.95,-433.811C270.35,-422.07 284.677,-405.893 295.07,-394.159"/>
</g>
<!-- 5338 -->
<g id="node11" class="node"><title>5338</title>
<ellipse fill="cyan" stroke="cyan" cx="582.497" cy="-234" rx="28.6953" ry="18"/>
<text text-anchor="middle" x="582.497" y="-230.3" font-family="Times New Roman,serif" font-size="14.00">5338</text>
</g>
<!-- 1241&#45;&#45;5338 -->
<g id="edge9" class="edge"><title>1241&#45;&#45;5338</title>
<path fill="none" stroke="black" d="M246.724,-431.804C247.882,-412.145 252.637,-380.096 270.497,-360 347.637,-273.204 493.379,-245.816 554.455,-237.922"/>
</g>
<!-- 6734 -->
<g id="node12" class="node"><title>6734</title>
<ellipse fill="none" stroke="black" cx="468.497" cy="-162" rx="28.6953" ry="18"/>
<text text-anchor="middle" x="468.497" y="-158.3" font-family="Times New Roman,serif" font-size="14.00">6734</text>
</g>
<!-- 5338&#45;&#45;6734 -->
<g id="edge11" class="edge"><title>5338&#45;&#45;6734</title>
<path fill="none" stroke="black" d="M562.64,-220.807C541.843,-208.037 509.364,-188.093 488.509,-175.288"/>
</g>
<!-- 6736 -->
<g id="node13" class="node"><title>6736</title>
<ellipse fill="none" stroke="black" cx="582.497" cy="-90" rx="28.6953" ry="18"/>
<text text-anchor="middle" x="582.497" y="-86.3" font-family="Times New Roman,serif" font-size="14.00">6736</text>
</g>
<!-- 5338&#45;&#45;6736 -->
<g id="edge12" class="edge"><title>5338&#45;&#45;6736</title>
<path fill="none" stroke="black" d="M582.497,-215.871C582.497,-188.578 582.497,-135.52 582.497,-108.189"/>
</g>
<!-- 1385 -->
<g id="node14" class="node"><title>1385</title>
<ellipse fill="cyan" stroke="cyan" cx="1000.5" cy="-162" rx="28.6953" ry="18"/>
<text text-anchor="middle" x="1000.5" y="-158.3" font-family="Times New Roman,serif" font-size="14.00">1385</text>
</g>
<!-- 5338&#45;&#45;1385 -->
<g id="edge13" class="edge"><title>5338&#45;&#45;1385</title>
<path fill="none" stroke="black" d="M609.923,-228.407C685.753,-215.708 897.618,-180.229 973.242,-167.564"/>
</g>
<!-- 2552 -->
<g id="node17" class="node"><title>2552</title>
<ellipse fill="none" stroke="black" cx="871.497" cy="-90" rx="28.6953" ry="18"/>
<text text-anchor="middle" x="871.497" y="-86.3" font-family="Times New Roman,serif" font-size="14.00">2552</text>
</g>
<!-- 5338&#45;&#45;2552 -->
<g id="edge14" class="edge"><title>5338&#45;&#45;2552</title>
<path fill="none" stroke="black" d="M604.695,-222.093C658.621,-195.596 796.025,-128.083 849.62,-101.75"/>
</g>
<!-- 6734&#45;&#45;6736 -->
<g id="edge15" class="edge"><title>6734&#45;&#45;6736</title>
<path fill="none" stroke="black" d="M488.354,-148.807C509.151,-136.037 541.631,-116.093 562.485,-103.288"/>
</g>
<!-- 1386 -->
<g id="node15" class="node"><title>1386</title>
<ellipse fill="none" stroke="black" cx="1028.5" cy="-90" rx="28.6953" ry="18"/>
<text text-anchor="middle" x="1028.5" y="-86.3" font-family="Times New Roman,serif" font-size="14.00">1386</text>
</g>
<!-- 1385&#45;&#45;1386 -->
<g id="edge16" class="edge"><title>1385&#45;&#45;1386</title>
<path fill="none" stroke="black" d="M1007.13,-144.411C1011.53,-133.414 1017.29,-119.027 1021.71,-107.956"/>
</g>
<!-- 1388 -->
<g id="node16" class="node"><title>1388</title>
<ellipse fill="none" stroke="black" cx="999.497" cy="-18" rx="28.6953" ry="18"/>
<text text-anchor="middle" x="999.497" y="-14.3" font-family="Times New Roman,serif" font-size="14.00">1388</text>
</g>
<!-- 1385&#45;&#45;1388 -->
<g id="edge17" class="edge"><title>1385&#45;&#45;1388</title>
<path fill="none" stroke="black" d="M996.438,-143.929C994.192,-133.598 991.631,-120.12 990.497,-108 989.007,-92.0695 989.153,-87.9434 990.497,-72 991.516,-59.9098 993.821,-46.4315 995.843,-36.0925"/>
</g>
<!-- 1385&#45;&#45;2552 -->
<g id="edge18" class="edge"><title>1385&#45;&#45;2552</title>
<path fill="none" stroke="black" d="M979.484,-149.597C955.496,-136.581 916.486,-115.413 892.501,-102.398"/>
</g>
<!-- 11038 -->
<g id="node18" class="node"><title>11038</title>
<ellipse fill="cyan" stroke="cyan" cx="1209.5" cy="-90" rx="32.4942" ry="18"/>
<text text-anchor="middle" x="1209.5" y="-86.3" font-family="Times New Roman,serif" font-size="14.00">11038</text>
</g>
<!-- 1385&#45;&#45;11038 -->
<g id="edge19" class="edge"><title>1385&#45;&#45;11038</title>
<path fill="none" stroke="black" d="M1025.29,-152.695C1064.76,-139.477 1141.57,-113.751 1182.42,-100.068"/>
</g>
<!-- 1386&#45;&#45;1388 -->
<g id="edge20" class="edge"><title>1386&#45;&#45;1388</title>
<path fill="none" stroke="black" d="M1021.62,-72.411C1017.07,-61.4141 1011.11,-47.0274 1006.52,-35.9562"/>
</g>
<!-- 1243 -->
<g id="node19" class="node"><title>1243</title>
<ellipse fill="none" stroke="black" cx="435.497" cy="-450" rx="28.6953" ry="18"/>
<text text-anchor="middle" x="435.497" y="-446.3" font-family="Times New Roman,serif" font-size="14.00">1243</text>
</g>
<!-- 1243&#45;&#45;1242 -->
<g id="edge21" class="edge"><title>1243&#45;&#45;1242</title>
<path fill="none" stroke="black" d="M414.526,-437.441C390.995,-424.471 353.044,-403.553 329.5,-390.576"/>
</g>
<!-- 4140 -->
<g id="node20" class="node"><title>4140</title>
<ellipse fill="none" stroke="black" cx="383.497" cy="-378" rx="28.6953" ry="18"/>
<text text-anchor="middle" x="383.497" y="-374.3" font-family="Times New Roman,serif" font-size="14.00">4140</text>
</g>
<!-- 1243&#45;&#45;4140 -->
<g id="edge22" class="edge"><title>1243&#45;&#45;4140</title>
<path fill="none" stroke="black" d="M423.957,-433.465C415.339,-421.865 403.615,-406.082 395.005,-394.492"/>
</g>
<!-- 1967 -->
<g id="node21" class="node"><title>1967</title>
<ellipse fill="none" stroke="black" cx="1490.5" cy="-594" rx="28.6953" ry="18"/>
<text text-anchor="middle" x="1490.5" y="-590.3" font-family="Times New Roman,serif" font-size="14.00">1967</text>
</g>
<!-- 1968 -->
<g id="node22" class="node"><title>1968</title>
<ellipse fill="none" stroke="black" cx="1490.5" cy="-522" rx="28.6953" ry="18"/>
<text text-anchor="middle" x="1490.5" y="-518.3" font-family="Times New Roman,serif" font-size="14.00">1968</text>
</g>
<!-- 1967&#45;&#45;1968 -->
<g id="edge23" class="edge"><title>1967&#45;&#45;1968</title>
<path fill="none" stroke="black" d="M1490.5,-575.697C1490.5,-564.846 1490.5,-550.917 1490.5,-540.104"/>
</g>
<!-- 2357 -->
<g id="node23" class="node"><title>2357</title>
<ellipse fill="none" stroke="black" cx="360.497" cy="-450" rx="28.6953" ry="18"/>
<text text-anchor="middle" x="360.497" y="-446.3" font-family="Times New Roman,serif" font-size="14.00">2357</text>
</g>
<!-- 2357&#45;&#45;1242 -->
<g id="edge24" class="edge"><title>2357&#45;&#45;1242</title>
<path fill="none" stroke="black" d="M348.957,-433.465C340.339,-421.865 328.615,-406.082 320.005,-394.492"/>
</g>
<!-- 4139 -->
<g id="node24" class="node"><title>4139</title>
<ellipse fill="cyan" stroke="cyan" cx="734.497" cy="-522" rx="28.6953" ry="18"/>
<text text-anchor="middle" x="734.497" y="-518.3" font-family="Times New Roman,serif" font-size="14.00">4139</text>
</g>
<!-- 4139&#45;&#45;1242 -->
<g id="edge27" class="edge"><title>4139&#45;&#45;1242</title>
<path fill="none" stroke="black" d="M705.838,-521.579C621.561,-522.651 377.047,-521.038 322.497,-468 303.433,-449.464 303.515,-416.299 305.721,-396.108"/>
</g>
<!-- 4139&#45;&#45;1385 -->
<g id="edge31" class="edge"><title>4139&#45;&#45;1385</title>
<path fill="none" stroke="black" d="M730.743,-504.049C725.206,-477.521 715.497,-424.517 715.497,-379 715.497,-379 715.497,-379 715.497,-305 715.497,-191.26 899.593,-168.623 971.865,-164.119"/>
</g>
<!-- 4139&#45;&#45;1243 -->
<g id="edge32" class="edge"><title>4139&#45;&#45;1243</title>
<path fill="none" stroke="black" d="M706.833,-516.879C659.462,-509.468 560.036,-492.361 478.497,-468 471.882,-466.024 464.859,-463.457 458.448,-460.919"/>
</g>
<!-- 4139&#45;&#45;4140 -->
<g id="edge25" class="edge"><title>4139&#45;&#45;4140</title>
<path fill="none" stroke="black" d="M706.064,-518.981C661.98,-514.843 575.549,-502.648 511.497,-468 491.035,-456.931 492.084,-445.992 473.497,-432 451.477,-415.423 423.877,-399.847 405.087,-389.927"/>
</g>
<!-- 5802 -->
<g id="node25" class="node"><title>5802</title>
<ellipse fill="cyan" stroke="cyan" cx="1000.5" cy="-234" rx="28.6953" ry="18"/>
<text text-anchor="middle" x="1000.5" y="-230.3" font-family="Times New Roman,serif" font-size="14.00">5802</text>
</g>
<!-- 4139&#45;&#45;5802 -->
<g id="edge26" class="edge"><title>4139&#45;&#45;5802</title>
<path fill="none" stroke="black" d="M735.812,-503.872C739.033,-472.272 749.798,-404.017 784.497,-360 835.594,-295.181 930.254,-257.613 975.347,-242.632"/>
</g>
<!-- 6128 -->
<g id="node26" class="node"><title>6128</title>
<ellipse fill="cyan" stroke="cyan" cx="962.497" cy="-450" rx="28.6953" ry="18"/>
<text text-anchor="middle" x="962.497" y="-446.3" font-family="Times New Roman,serif" font-size="14.00">6128</text>
</g>
<!-- 4139&#45;&#45;6128 -->
<g id="edge28" class="edge"><title>4139&#45;&#45;6128</title>
<path fill="none" stroke="black" d="M759.768,-513.241C803.595,-499.786 893.208,-472.273 937.113,-458.793"/>
</g>
<!-- 6130 -->
<g id="node27" class="node"><title>6130</title>
<ellipse fill="cyan" stroke="cyan" cx="848.497" cy="-378" rx="28.6953" ry="18"/>
<text text-anchor="middle" x="848.497" y="-374.3" font-family="Times New Roman,serif" font-size="14.00">6130</text>
</g>
<!-- 4139&#45;&#45;6130 -->
<g id="edge29" class="edge"><title>4139&#45;&#45;6130</title>
<path fill="none" stroke="black" d="M755.281,-509.254C770.698,-499.72 791.401,-485.086 805.497,-468 823.735,-445.894 836.477,-414.756 843.132,-395.776"/>
</g>
<!-- 5927 -->
<g id="node28" class="node"><title>5927</title>
<ellipse fill="cyan" stroke="cyan" cx="943.497" cy="-306" rx="28.6953" ry="18"/>
<text text-anchor="middle" x="943.497" y="-302.3" font-family="Times New Roman,serif" font-size="14.00">5927</text>
</g>
<!-- 4139&#45;&#45;5927 -->
<g id="edge30" class="edge"><title>4139&#45;&#45;5927</title>
<path fill="none" stroke="black" d="M745.374,-505.194C752.212,-494.877 760.946,-480.963 767.497,-468 790.799,-421.889 773.97,-396.538 810.497,-360 839.493,-330.995 886.362,-317.362 916.02,-311.335"/>
</g>
<!-- 5802&#45;&#45;1385 -->
<g id="edge33" class="edge"><title>5802&#45;&#45;1385</title>
<path fill="none" stroke="black" d="M1000.5,-215.697C1000.5,-204.846 1000.5,-190.917 1000.5,-180.104"/>
</g>
<!-- 6128&#45;&#45;1385 -->
<g id="edge36" class="edge"><title>6128&#45;&#45;1385</title>
<path fill="none" stroke="black" d="M990.215,-445.462C1018.86,-440.165 1062.17,-427.199 1082.5,-396 1130.6,-322.163 1048.64,-216.728 1014.43,-178.004"/>
</g>
<!-- 6128&#45;&#45;11038 -->
<g id="edge37" class="edge"><title>6128&#45;&#45;11038</title>
<path fill="none" stroke="black" d="M990.434,-445.621C1021.99,-440.372 1072.91,-427.36 1103.5,-396 1186.08,-311.32 1204.54,-159.032 1208.48,-108.11"/>
</g>
<!-- 6128&#45;&#45;6130 -->
<g id="edge34" class="edge"><title>6128&#45;&#45;6130</title>
<path fill="none" stroke="black" d="M942.64,-436.807C921.843,-424.037 889.364,-404.093 868.509,-391.288"/>
</g>
<!-- 6128&#45;&#45;5927 -->
<g id="edge35" class="edge"><title>6128&#45;&#45;5927</title>
<path fill="none" stroke="black" d="M960.205,-431.871C956.553,-404.578 949.454,-351.52 945.797,-324.189"/>
</g>
<!-- 6130&#45;&#45;1385 -->
<g id="edge39" class="edge"><title>6130&#45;&#45;1385</title>
<path fill="none" stroke="black" d="M856.892,-360.646C872.666,-330.6 908.659,-265.188 947.497,-216 958.625,-201.906 973.157,-187.606 984.189,-177.418"/>
</g>
<!-- 6130&#45;&#45;5927 -->
<g id="edge38" class="edge"><title>6130&#45;&#45;5927</title>
<path fill="none" stroke="black" d="M866.366,-363.834C883.35,-351.319 908.751,-332.603 925.708,-320.107"/>
</g>
<!-- 5927&#45;&#45;1385 -->
<g id="edge40" class="edge"><title>5927&#45;&#45;1385</title>
<path fill="none" stroke="black" d="M945.036,-287.961C947.171,-269.56 952.022,-239.7 962.497,-216 968.63,-202.123 978.754,-188.253 987.011,-178.184"/>
</g>
<!-- 5927&#45;&#45;11038 -->
<g id="edge42" class="edge"><title>5927&#45;&#45;11038</title>
<path fill="none" stroke="black" d="M965.936,-294.456C985.804,-284.669 1015.18,-269.072 1038.5,-252 1102.32,-205.263 1167.61,-136.903 1195.5,-106.532"/>
</g>
<!-- 5927&#45;&#45;5802 -->
<g id="edge41" class="edge"><title>5927&#45;&#45;5802</title>
<path fill="none" stroke="black" d="M956.147,-289.465C965.593,-277.865 978.445,-262.082 987.882,-250.492"/>
</g>
<!-- 4485 -->
<g id="node29" class="node"><title>4485</title>
<ellipse fill="none" stroke="black" cx="1565.5" cy="-594" rx="28.6953" ry="18"/>
<text text-anchor="middle" x="1565.5" y="-590.3" font-family="Times New Roman,serif" font-size="14.00">4485</text>
</g>
<!-- 4486 -->
<g id="node30" class="node"><title>4486</title>
<ellipse fill="none" stroke="black" cx="1565.5" cy="-522" rx="28.6953" ry="18"/>
<text text-anchor="middle" x="1565.5" y="-518.3" font-family="Times New Roman,serif" font-size="14.00">4486</text>
</g>
<!-- 4485&#45;&#45;4486 -->
<g id="edge43" class="edge"><title>4485&#45;&#45;4486</title>
<path fill="none" stroke="black" d="M1565.5,-575.697C1565.5,-564.846 1565.5,-550.917 1565.5,-540.104"/>
</g>
<!-- 4803 -->
<g id="node31" class="node"><title>4803</title>
<ellipse fill="none" stroke="black" cx="1755.5" cy="-594" rx="28.6953" ry="18"/>
<text text-anchor="middle" x="1755.5" y="-590.3" font-family="Times New Roman,serif" font-size="14.00">4803</text>
</g>
<!-- 4804 -->
<g id="node32" class="node"><title>4804</title>
<ellipse fill="none" stroke="black" cx="1698.5" cy="-522" rx="28.6953" ry="18"/>
<text text-anchor="middle" x="1698.5" y="-518.3" font-family="Times New Roman,serif" font-size="14.00">4804</text>
</g>
<!-- 4803&#45;&#45;4804 -->
<g id="edge44" class="edge"><title>4803&#45;&#45;4804</title>
<path fill="none" stroke="black" d="M1742.85,-577.465C1733.4,-565.865 1720.55,-550.082 1711.11,-538.492"/>
</g>
<!-- 4806 -->
<g id="node33" class="node"><title>4806</title>
<ellipse fill="none" stroke="black" cx="1717.5" cy="-450" rx="28.6953" ry="18"/>
<text text-anchor="middle" x="1717.5" y="-446.3" font-family="Times New Roman,serif" font-size="14.00">4806</text>
</g>
<!-- 4803&#45;&#45;4806 -->
<g id="edge45" class="edge"><title>4803&#45;&#45;4806</title>
<path fill="none" stroke="black" d="M1752.53,-575.771C1749.25,-557.719 1743.5,-528.618 1736.5,-504 1732.97,-491.59 1728.02,-477.887 1724.07,-467.523"/>
</g>
<!-- 4808 -->
<g id="node34" class="node"><title>4808</title>
<ellipse fill="none" stroke="black" cx="1803.5" cy="-378" rx="28.6953" ry="18"/>
<text text-anchor="middle" x="1803.5" y="-374.3" font-family="Times New Roman,serif" font-size="14.00">4808</text>
</g>
<!-- 4803&#45;&#45;4808 -->
<g id="edge46" class="edge"><title>4803&#45;&#45;4808</title>
<path fill="none" stroke="black" d="M1759.34,-575.849C1768.35,-535.68 1790.74,-435.89 1799.7,-395.935"/>
</g>
<!-- 4810 -->
<g id="node35" class="node"><title>4810</title>
<ellipse fill="none" stroke="black" cx="1684.5" cy="-306" rx="28.6953" ry="18"/>
<text text-anchor="middle" x="1684.5" y="-302.3" font-family="Times New Roman,serif" font-size="14.00">4810</text>
</g>
<!-- 4803&#45;&#45;4810 -->
<g id="edge47" class="edge"><title>4803&#45;&#45;4810</title>
<path fill="none" stroke="black" d="M1729.28,-586.408C1706.61,-579.165 1675.22,-565.08 1660.5,-540 1618.59,-468.639 1658.48,-363.498 1676.6,-323.375"/>
</g>
<!-- 4812 -->
<g id="node36" class="node"><title>4812</title>
<ellipse fill="none" stroke="black" cx="1741.5" cy="-234" rx="28.6953" ry="18"/>
<text text-anchor="middle" x="1741.5" y="-230.3" font-family="Times New Roman,serif" font-size="14.00">4812</text>
</g>
<!-- 4803&#45;&#45;4812 -->
<g id="edge48" class="edge"><title>4803&#45;&#45;4812</title>
<path fill="none" stroke="black" d="M1784.01,-591.33C1823.77,-587.705 1896.48,-576.237 1945.5,-540 1983.27,-512.077 2002.5,-497.973 2002.5,-451 2002.5,-451 2002.5,-451 2002.5,-377 2002.5,-271.896 1837.17,-244.146 1769.68,-237.196"/>
</g>
<!-- 4804&#45;&#45;4806 -->
<g id="edge49" class="edge"><title>4804&#45;&#45;4806</title>
<path fill="none" stroke="black" d="M1703.1,-504.055C1706.08,-493.049 1709.96,-478.764 1712.94,-467.789"/>
</g>
<!-- 4804&#45;&#45;4808 -->
<g id="edge50" class="edge"><title>4804&#45;&#45;4808</title>
<path fill="none" stroke="black" d="M1715.87,-507.434C1727.96,-497.414 1743.93,-482.966 1755.5,-468 1773.32,-444.946 1788.21,-414.368 1796.48,-395.717"/>
</g>
<!-- 4804&#45;&#45;4810 -->
<g id="edge51" class="edge"><title>4804&#45;&#45;4810</title>
<path fill="none" stroke="black" d="M1690.8,-504.22C1686.54,-493.991 1681.67,-480.519 1679.5,-468 1670.49,-416.203 1677.41,-353.654 1681.72,-324.08"/>
</g>
<!-- 4804&#45;&#45;4812 -->
<g id="edge52" class="edge"><title>4804&#45;&#45;4812</title>
<path fill="none" stroke="black" d="M1687.63,-505.09C1662.12,-465.577 1603.68,-360.91 1646.5,-288 1661.22,-262.92 1692.61,-248.835 1715.28,-241.592"/>
</g>
<!-- 4806&#45;&#45;4808 -->
<g id="edge53" class="edge"><title>4806&#45;&#45;4808</title>
<path fill="none" stroke="black" d="M1734.49,-435.17C1749.56,-422.898 1771.48,-405.064 1786.54,-392.801"/>
</g>
<!-- 4806&#45;&#45;4810 -->
<g id="edge54" class="edge"><title>4806&#45;&#45;4810</title>
<path fill="none" stroke="black" d="M1713.58,-432.153C1707.26,-404.971 1694.89,-351.717 1688.51,-324.268"/>
</g>
<!-- 4806&#45;&#45;4812 -->
<g id="edge55" class="edge"><title>4806&#45;&#45;4812</title>
<path fill="none" stroke="black" d="M1719.42,-431.849C1723.91,-391.78 1735.06,-292.383 1739.56,-252.232"/>
</g>
<!-- 4808&#45;&#45;4810 -->
<g id="edge56" class="edge"><title>4808&#45;&#45;4810</title>
<path fill="none" stroke="black" d="M1783.31,-365.125C1761.43,-352.253 1726.7,-331.828 1704.78,-318.933"/>
</g>
<!-- 4808&#45;&#45;4812 -->
<g id="edge57" class="edge"><title>4808&#45;&#45;4812</title>
<path fill="none" stroke="black" d="M1796.26,-360.433C1784.32,-333.071 1760.6,-278.754 1748.68,-251.462"/>
</g>
<!-- 4832 -->
<g id="node37" class="node"><title>4832</title>
<ellipse fill="none" stroke="black" cx="1907.5" cy="-306" rx="28.6953" ry="18"/>
<text text-anchor="middle" x="1907.5" y="-302.3" font-family="Times New Roman,serif" font-size="14.00">4832</text>
</g>
<!-- 4808&#45;&#45;4832 -->
<g id="edge58" class="edge"><title>4808&#45;&#45;4832</title>
<path fill="none" stroke="black" d="M1822.57,-364.161C1841.34,-351.531 1869.82,-332.36 1888.54,-319.758"/>
</g>
<!-- 4810&#45;&#45;4812 -->
<g id="edge59" class="edge"><title>4810&#45;&#45;4812</title>
<path fill="none" stroke="black" d="M1697.15,-289.465C1706.59,-277.865 1719.44,-262.082 1728.88,-250.492"/>
</g>
<!-- 4827 -->
<g id="node38" class="node"><title>4827</title>
<ellipse fill="none" stroke="black" cx="1907.5" cy="-522" rx="28.6953" ry="18"/>
<text text-anchor="middle" x="1907.5" y="-518.3" font-family="Times New Roman,serif" font-size="14.00">4827</text>
</g>
<!-- 4827&#45;&#45;4808 -->
<g id="edge61" class="edge"><title>4827&#45;&#45;4808</title>
<path fill="none" stroke="black" d="M1895.97,-505.261C1875.98,-477.966 1835.1,-422.154 1815.08,-394.81"/>
</g>
<!-- 4827&#45;&#45;4832 -->
<g id="edge62" class="edge"><title>4827&#45;&#45;4832</title>
<path fill="none" stroke="black" d="M1922,-506.203C1930.66,-496.288 1940.85,-482.444 1945.5,-468 1962.2,-416.051 1933.18,-352.528 1917.1,-323.227"/>
</g>
<!-- 4828 -->
<g id="node39" class="node"><title>4828</title>
<ellipse fill="none" stroke="black" cx="1907.5" cy="-450" rx="28.6953" ry="18"/>
<text text-anchor="middle" x="1907.5" y="-446.3" font-family="Times New Roman,serif" font-size="14.00">4828</text>
</g>
<!-- 4827&#45;&#45;4828 -->
<g id="edge60" class="edge"><title>4827&#45;&#45;4828</title>
<path fill="none" stroke="black" d="M1907.5,-503.697C1907.5,-492.846 1907.5,-478.917 1907.5,-468.104"/>
</g>
<!-- 4828&#45;&#45;4808 -->
<g id="edge63" class="edge"><title>4828&#45;&#45;4808</title>
<path fill="none" stroke="black" d="M1888.42,-436.161C1869.66,-423.531 1841.17,-404.36 1822.45,-391.758"/>
</g>
<!-- 4828&#45;&#45;4832 -->
<g id="edge64" class="edge"><title>4828&#45;&#45;4832</title>
<path fill="none" stroke="black" d="M1907.5,-431.871C1907.5,-404.578 1907.5,-351.52 1907.5,-324.189"/>
</g>
<!-- 5845 -->
<g id="node40" class="node"><title>5845</title>
<ellipse fill="cyan" stroke="cyan" cx="1185.5" cy="-594" rx="28.6953" ry="18"/>
<text text-anchor="middle" x="1185.5" y="-590.3" font-family="Times New Roman,serif" font-size="14.00">5845</text>
</g>
<!-- 5845&#45;&#45;1385 -->
<g id="edge66" class="edge"><title>5845&#45;&#45;1385</title>
<path fill="none" stroke="black" d="M1190.22,-576.243C1194.65,-558.335 1200.09,-529.122 1196.5,-504 1182.35,-405.005 1170.01,-381.098 1133.5,-288 1120.44,-254.692 1122.33,-241.755 1097.5,-216 1077.12,-194.864 1046.45,-180.061 1025.07,-171.571"/>
</g>
<!-- 5845&#45;&#45;11038 -->
<g id="edge70" class="edge"><title>5845&#45;&#45;11038</title>
<path fill="none" stroke="black" d="M1211.09,-585.573C1259.9,-569.658 1361.5,-527.362 1361.5,-451 1361.5,-451 1361.5,-451 1361.5,-233 1361.5,-164.747 1278.65,-119.875 1235.28,-101.063"/>
</g>
<!-- 5845&#45;&#45;6128 -->
<g id="edge68" class="edge"><title>5845&#45;&#45;6128</title>
<path fill="none" stroke="black" d="M1166.1,-580.647C1123.92,-553.791 1024.29,-490.347 982.011,-463.426"/>
</g>
<!-- 5845&#45;&#45;5927 -->
<g id="edge69" class="edge"><title>5845&#45;&#45;5927</title>
<path fill="none" stroke="black" d="M1157.61,-589.818C1100.81,-581.623 972.979,-553.999 924.497,-468 897.959,-420.926 921.916,-353.901 935.552,-323.33"/>
</g>
<!-- 5846 -->
<g id="node41" class="node"><title>5846</title>
<ellipse fill="none" stroke="black" cx="1266.5" cy="-234" rx="28.6953" ry="18"/>
<text text-anchor="middle" x="1266.5" y="-230.3" font-family="Times New Roman,serif" font-size="14.00">5846</text>
</g>
<!-- 5845&#45;&#45;5846 -->
<g id="edge65" class="edge"><title>5845&#45;&#45;5846</title>
<path fill="none" stroke="black" d="M1200.17,-578.317C1209.58,-568.235 1221.5,-554.162 1229.5,-540 1250.09,-503.527 1260.5,-492.886 1260.5,-451 1260.5,-451 1260.5,-451 1260.5,-377 1260.5,-331.845 1263.56,-278.685 1265.31,-252.039"/>
</g>
<!-- 11032 -->
<g id="node42" class="node"><title>11032</title>
<ellipse fill="cyan" stroke="cyan" cx="1155.5" cy="-522" rx="32.4942" ry="18"/>
<text text-anchor="middle" x="1155.5" y="-518.3" font-family="Times New Roman,serif" font-size="14.00">11032</text>
</g>
<!-- 5845&#45;&#45;11032 -->
<g id="edge67" class="edge"><title>5845&#45;&#45;11032</title>
<path fill="none" stroke="black" d="M1178.39,-576.411C1173.67,-565.414 1167.51,-551.027 1162.76,-539.956"/>
</g>
<!-- 5846&#45;&#45;1385 -->
<g id="edge71" class="edge"><title>5846&#45;&#45;1385</title>
<path fill="none" stroke="black" d="M1240.51,-226.161C1189.65,-212.778 1077.53,-183.272 1026.59,-169.867"/>
</g>
<!-- 11032&#45;&#45;1385 -->
<g id="edge74" class="edge"><title>11032&#45;&#45;1385</title>
<path fill="none" stroke="black" d="M1155.15,-503.847C1153.31,-454.079 1141.87,-307.382 1071.5,-216 1057.98,-198.45 1037.21,-183.875 1021.62,-174.48"/>
</g>
<!-- 11032&#45;&#45;11038 -->
<g id="edge75" class="edge"><title>11032&#45;&#45;11038</title>
<path fill="none" stroke="black" d="M1182.86,-512.157C1230.47,-494.86 1323.5,-451.751 1323.5,-379 1323.5,-379 1323.5,-379 1323.5,-233 1323.5,-174.197 1263.32,-125.881 1230.41,-103.855"/>
</g>
<!-- 11032&#45;&#45;6128 -->
<g id="edge72" class="edge"><title>11032&#45;&#45;6128</title>
<path fill="none" stroke="black" d="M1128.56,-511.818C1098.46,-501.477 1048.31,-484.02 1005.5,-468 999.182,-465.637 992.381,-462.994 986.094,-460.51"/>
</g>
<!-- 11032&#45;&#45;5927 -->
<g id="edge73" class="edge"><title>11032&#45;&#45;5927</title>
<path fill="none" stroke="black" d="M1135.18,-507.795C1103.79,-486.74 1042.73,-443.105 1000.5,-396 980.043,-373.184 962.018,-342.262 951.958,-323.519"/>
</g>
<!-- 6651 -->
<g id="node43" class="node"><title>6651</title>
<ellipse fill="none" stroke="black" cx="2106.5" cy="-594" rx="28.6953" ry="18"/>
<text text-anchor="middle" x="2106.5" y="-590.3" font-family="Times New Roman,serif" font-size="14.00">6651</text>
</g>
<!-- 6652 -->
<g id="node44" class="node"><title>6652</title>
<ellipse fill="none" stroke="black" cx="2106.5" cy="-522" rx="28.6953" ry="18"/>
<text text-anchor="middle" x="2106.5" y="-518.3" font-family="Times New Roman,serif" font-size="14.00">6652</text>
</g>
<!-- 6651&#45;&#45;6652 -->
<g id="edge76" class="edge"><title>6651&#45;&#45;6652</title>
<path fill="none" stroke="black" d="M2106.5,-575.697C2106.5,-564.846 2106.5,-550.917 2106.5,-540.104"/>
</g>
<!-- 6654 -->
<g id="node45" class="node"><title>6654</title>
<ellipse fill="none" stroke="black" cx="2059.5" cy="-450" rx="28.6953" ry="18"/>
<text text-anchor="middle" x="2059.5" y="-446.3" font-family="Times New Roman,serif" font-size="14.00">6654</text>
</g>
<!-- 6651&#45;&#45;6654 -->
<g id="edge77" class="edge"><title>6651&#45;&#45;6654</title>
<path fill="none" stroke="black" d="M2092.49,-578.031C2084.02,-568.048 2073.86,-554.191 2068.5,-540 2059.55,-516.321 2058.35,-486.714 2058.65,-468.328"/>
</g>
<!-- 6656 -->
<g id="node46" class="node"><title>6656</title>
<ellipse fill="none" stroke="black" cx="2116.5" cy="-378" rx="28.6953" ry="18"/>
<text text-anchor="middle" x="2116.5" y="-374.3" font-family="Times New Roman,serif" font-size="14.00">6656</text>
</g>
<!-- 6651&#45;&#45;6656 -->
<g id="edge78" class="edge"><title>6651&#45;&#45;6656</title>
<path fill="none" stroke="black" d="M2121,-578.203C2129.66,-568.288 2139.85,-554.444 2144.5,-540 2160.99,-488.681 2137.58,-424.853 2124.41,-395.353"/>
</g>
<!-- 6652&#45;&#45;6654 -->
<g id="edge79" class="edge"><title>6652&#45;&#45;6654</title>
<path fill="none" stroke="black" d="M2095.83,-505.116C2088.14,-493.66 2077.8,-478.263 2070.12,-466.821"/>
</g>
<!-- 6652&#45;&#45;6656 -->
<g id="edge80" class="edge"><title>6652&#45;&#45;6656</title>
<path fill="none" stroke="black" d="M2107.7,-503.871C2109.63,-476.578 2113.36,-423.52 2115.29,-396.189"/>
</g>
<!-- 6654&#45;&#45;6656 -->
<g id="edge81" class="edge"><title>6654&#45;&#45;6656</title>
<path fill="none" stroke="black" d="M2072.15,-433.465C2081.59,-421.865 2094.44,-406.082 2103.88,-394.492"/>
</g>
<!-- 6727 -->
<g id="node47" class="node"><title>6727</title>
<ellipse fill="none" stroke="black" cx="549.497" cy="-450" rx="28.6953" ry="18"/>
<text text-anchor="middle" x="549.497" y="-446.3" font-family="Times New Roman,serif" font-size="14.00">6727</text>
</g>
<!-- 6727&#45;&#45;5338 -->
<g id="edge84" class="edge"><title>6727&#45;&#45;5338</title>
<path fill="none" stroke="black" d="M562.456,-433.425C569.914,-423.418 578.564,-409.757 582.497,-396 596.941,-345.475 590.17,-282.33 585.554,-252.35"/>
</g>
<!-- 6727&#45;&#45;6734 -->
<g id="edge85" class="edge"><title>6727&#45;&#45;6734</title>
<path fill="none" stroke="black" d="M532.925,-434.951C509.463,-413.778 467.822,-371.124 453.497,-324 439.532,-278.057 442.672,-263.377 450.497,-216 452.556,-203.536 457.165,-190.063 461.204,-179.821"/>
</g>
<!-- 6727&#45;&#45;6736 -->
<g id="edge86" class="edge"><title>6727&#45;&#45;6736</title>
<path fill="none" stroke="black" d="M570.921,-437.965C607.36,-417.485 677.497,-369.895 677.497,-307 677.497,-307 677.497,-307 677.497,-233 677.497,-177.83 627.347,-127.868 599.922,-104.67"/>
</g>
<!-- 6728 -->
<g id="node48" class="node"><title>6728</title>
<ellipse fill="none" stroke="black" cx="544.497" cy="-378" rx="28.6953" ry="18"/>
<text text-anchor="middle" x="544.497" y="-374.3" font-family="Times New Roman,serif" font-size="14.00">6728</text>
</g>
<!-- 6727&#45;&#45;6728 -->
<g id="edge82" class="edge"><title>6727&#45;&#45;6728</title>
<path fill="none" stroke="black" d="M548.261,-431.697C547.486,-420.846 546.491,-406.917 545.719,-396.104"/>
</g>
<!-- 6730 -->
<g id="node49" class="node"><title>6730</title>
<ellipse fill="none" stroke="black" cx="506.497" cy="-306" rx="28.6953" ry="18"/>
<text text-anchor="middle" x="506.497" y="-302.3" font-family="Times New Roman,serif" font-size="14.00">6730</text>
</g>
<!-- 6727&#45;&#45;6730 -->
<g id="edge83" class="edge"><title>6727&#45;&#45;6730</title>
<path fill="none" stroke="black" d="M533.561,-434.993C523.682,-425.196 511.883,-411.188 506.497,-396 498.027,-372.117 500.409,-342.309 503.215,-323.968"/>
</g>
<!-- 6728&#45;&#45;5338 -->
<g id="edge88" class="edge"><title>6728&#45;&#45;5338</title>
<path fill="none" stroke="black" d="M549.005,-360.153C556.319,-332.824 570.685,-279.14 577.995,-251.825"/>
</g>
<!-- 6728&#45;&#45;6734 -->
<g id="edge89" class="edge"><title>6728&#45;&#45;6734</title>
<path fill="none" stroke="black" d="M520.845,-367.759C502.871,-359.328 479.436,-344.964 468.497,-324 443.93,-276.916 455.83,-211.037 463.598,-180.197"/>
</g>
<!-- 6728&#45;&#45;6736 -->
<g id="edge90" class="edge"><title>6728&#45;&#45;6736</title>
<path fill="none" stroke="black" d="M557.707,-361.771C576.067,-339.477 608.407,-295.825 620.497,-252 635.009,-199.398 607.048,-136.192 591.666,-107.097"/>
</g>
<!-- 6728&#45;&#45;6730 -->
<g id="edge87" class="edge"><title>6728&#45;&#45;6730</title>
<path fill="none" stroke="black" d="M535.684,-360.765C529.545,-349.456 521.391,-334.437 515.263,-323.147"/>
</g>
<!-- 6730&#45;&#45;5338 -->
<g id="edge91" class="edge"><title>6730&#45;&#45;5338</title>
<path fill="none" stroke="black" d="M522.244,-290.496C535.375,-278.402 553.978,-261.267 567.03,-249.246"/>
</g>
<!-- 6730&#45;&#45;6734 -->
<g id="edge92" class="edge"><title>6730&#45;&#45;6734</title>
<path fill="none" stroke="black" d="M501.989,-288.153C494.675,-260.824 480.309,-207.14 473,-179.825"/>
</g>
<!-- 6730&#45;&#45;6736 -->
<g id="edge93" class="edge"><title>6730&#45;&#45;6736</title>
<path fill="none" stroke="black" d="M512.461,-288.208C526.668,-248.204 562.382,-147.639 576.561,-107.714"/>
</g>
<!-- 9395 -->
<g id="node50" class="node"><title>9395</title>
<ellipse fill="none" stroke="black" cx="2220.5" cy="-594" rx="28.6953" ry="18"/>
<text text-anchor="middle" x="2220.5" y="-590.3" font-family="Times New Roman,serif" font-size="14.00">9395</text>
</g>
<!-- 9396 -->
<g id="node51" class="node"><title>9396</title>
<ellipse fill="none" stroke="black" cx="2220.5" cy="-522" rx="28.6953" ry="18"/>
<text text-anchor="middle" x="2220.5" y="-518.3" font-family="Times New Roman,serif" font-size="14.00">9396</text>
</g>
<!-- 9395&#45;&#45;9396 -->
<g id="edge94" class="edge"><title>9395&#45;&#45;9396</title>
<path fill="none" stroke="black" d="M2220.5,-575.697C2220.5,-564.846 2220.5,-550.917 2220.5,-540.104"/>
</g>
<!-- 9847 -->
<g id="node52" class="node"><title>9847</title>
<ellipse fill="none" stroke="black" cx="2324.5" cy="-594" rx="28.6953" ry="18"/>
<text text-anchor="middle" x="2324.5" y="-590.3" font-family="Times New Roman,serif" font-size="14.00">9847</text>
</g>
<!-- 9848 -->
<g id="node53" class="node"><title>9848</title>
<ellipse fill="none" stroke="black" cx="2295.5" cy="-522" rx="28.6953" ry="18"/>
<text text-anchor="middle" x="2295.5" y="-518.3" font-family="Times New Roman,serif" font-size="14.00">9848</text>
</g>
<!-- 9847&#45;&#45;9848 -->
<g id="edge95" class="edge"><title>9847&#45;&#45;9848</title>
<path fill="none" stroke="black" d="M2317.62,-576.411C2313.07,-565.414 2307.11,-551.027 2302.52,-539.956"/>
</g>
<!-- 9850 -->
<g id="node54" class="node"><title>9850</title>
<ellipse fill="none" stroke="black" cx="2314.5" cy="-450" rx="28.6953" ry="18"/>
<text text-anchor="middle" x="2314.5" y="-446.3" font-family="Times New Roman,serif" font-size="14.00">9850</text>
</g>
<!-- 9847&#45;&#45;9850 -->
<g id="edge96" class="edge"><title>9847&#45;&#45;9850</title>
<path fill="none" stroke="black" d="M2328.91,-576.171C2333,-558.202 2337.83,-528.94 2333.5,-504 2331.32,-491.481 2326.46,-478.009 2322.19,-467.78"/>
</g>
<!-- 9848&#45;&#45;9850 -->
<g id="edge97" class="edge"><title>9848&#45;&#45;9850</title>
<path fill="none" stroke="black" d="M2300.1,-504.055C2303.08,-493.049 2306.96,-478.764 2309.94,-467.789"/>
</g>
<!-- 10175 -->
<g id="node55" class="node"><title>10175</title>
<ellipse fill="none" stroke="black" cx="2523.5" cy="-594" rx="32.4942" ry="18"/>
<text text-anchor="middle" x="2523.5" y="-590.3" font-family="Times New Roman,serif" font-size="14.00">10175</text>
</g>
<!-- 10176 -->
<g id="node56" class="node"><title>10176</title>
<ellipse fill="none" stroke="black" cx="2523.5" cy="-522" rx="32.4942" ry="18"/>
<text text-anchor="middle" x="2523.5" y="-518.3" font-family="Times New Roman,serif" font-size="14.00">10176</text>
</g>
<!-- 10175&#45;&#45;10176 -->
<g id="edge98" class="edge"><title>10175&#45;&#45;10176</title>
<path fill="none" stroke="black" d="M2523.5,-575.697C2523.5,-564.846 2523.5,-550.917 2523.5,-540.104"/>
</g>
<!-- 10178 -->
<g id="node57" class="node"><title>10178</title>
<ellipse fill="none" stroke="black" cx="2602.5" cy="-450" rx="32.4942" ry="18"/>
<text text-anchor="middle" x="2602.5" y="-446.3" font-family="Times New Roman,serif" font-size="14.00">10178</text>
</g>
<!-- 10175&#45;&#45;10178 -->
<g id="edge99" class="edge"><title>10175&#45;&#45;10178</title>
<path fill="none" stroke="black" d="M2537.18,-577.521C2545.74,-567.333 2556.6,-553.442 2564.5,-540 2578.45,-516.24 2590.12,-486.397 2596.71,-468.016"/>
</g>
<!-- 10180 -->
<g id="node58" class="node"><title>10180</title>
<ellipse fill="none" stroke="black" cx="2602.5" cy="-378" rx="32.4942" ry="18"/>
<text text-anchor="middle" x="2602.5" y="-374.3" font-family="Times New Roman,serif" font-size="14.00">10180</text>
</g>
<!-- 10175&#45;&#45;10180 -->
<g id="edge100" class="edge"><title>10175&#45;&#45;10180</title>
<path fill="none" stroke="black" d="M2544.3,-580.033C2573.74,-560.209 2625.92,-519.218 2643.5,-468 2648.69,-452.866 2648.67,-447.141 2643.5,-432 2638.53,-417.469 2627.79,-403.832 2618.54,-394.03"/>
</g>
<!-- 10182 -->
<g id="node59" class="node"><title>10182</title>
<ellipse fill="none" stroke="black" cx="2534.5" cy="-306" rx="32.4942" ry="18"/>
<text text-anchor="middle" x="2534.5" y="-302.3" font-family="Times New Roman,serif" font-size="14.00">10182</text>
</g>
<!-- 10175&#45;&#45;10182 -->
<g id="edge101" class="edge"><title>10175&#45;&#45;10182</title>
<path fill="none" stroke="black" d="M2507.45,-577.97C2498.21,-568.168 2487.46,-554.531 2482.5,-540 2477.32,-524.859 2480.44,-519.867 2482.5,-504 2491.35,-435.772 2516.77,-357.501 2528.47,-323.833"/>
</g>
<!-- 10184 -->
<g id="node60" class="node"><title>10184</title>
<ellipse fill="none" stroke="black" cx="2534.5" cy="-234" rx="32.4942" ry="18"/>
<text text-anchor="middle" x="2534.5" y="-230.3" font-family="Times New Roman,serif" font-size="14.00">10184</text>
</g>
<!-- 10175&#45;&#45;10184 -->
<g id="edge102" class="edge"><title>10175&#45;&#45;10184</title>
<path fill="none" stroke="black" d="M2500.03,-581.544C2461.84,-561.068 2390.5,-514.333 2390.5,-451 2390.5,-451 2390.5,-451 2390.5,-377 2390.5,-310.992 2468.16,-265.352 2509.41,-245.763"/>
</g>
<!-- 10176&#45;&#45;10178 -->
<g id="edge103" class="edge"><title>10176&#45;&#45;10178</title>
<path fill="none" stroke="black" d="M2540.25,-506.155C2553.75,-494.195 2572.62,-477.473 2586.04,-465.584"/>
</g>
<!-- 10176&#45;&#45;10180 -->
<g id="edge104" class="edge"><title>10176&#45;&#45;10180</title>
<path fill="none" stroke="black" d="M2529.29,-503.984C2535.87,-485.603 2547.54,-455.76 2561.5,-432 2569.39,-418.558 2580.25,-404.667 2588.82,-394.479"/>
</g>
<!-- 10176&#45;&#45;10182 -->
<g id="edge105" class="edge"><title>10176&#45;&#45;10182</title>
<path fill="none" stroke="black" d="M2524.38,-503.849C2526.44,-463.78 2531.55,-364.383 2533.61,-324.232"/>
</g>
<!-- 10176&#45;&#45;10184 -->
<g id="edge106" class="edge"><title>10176&#45;&#45;10184</title>
<path fill="none" stroke="black" d="M2516.38,-504.39C2500.77,-465.466 2466.93,-365.769 2493.5,-288 2498.46,-273.469 2509.21,-259.832 2518.45,-250.03"/>
</g>
<!-- 10178&#45;&#45;10180 -->
<g id="edge107" class="edge"><title>10178&#45;&#45;10180</title>
<path fill="none" stroke="black" d="M2602.5,-431.697C2602.5,-420.846 2602.5,-406.917 2602.5,-396.104"/>
</g>
<!-- 10178&#45;&#45;10182 -->
<g id="edge108" class="edge"><title>10178&#45;&#45;10182</title>
<path fill="none" stroke="black" d="M2588.31,-433.8C2579.55,-423.724 2568.65,-409.852 2561.5,-396 2549.35,-372.469 2541.69,-342.561 2537.75,-324.104"/>
</g>
<!-- 10178&#45;&#45;10184 -->
<g id="edge109" class="edge"><title>10178&#45;&#45;10184</title>
<path fill="none" stroke="black" d="M2618.54,-433.97C2627.79,-424.168 2638.53,-410.531 2643.5,-396 2648.67,-380.859 2647.98,-375.358 2643.5,-360 2629.04,-310.528 2581.51,-269.126 2554.23,-248.696"/>
</g>
<!-- 10180&#45;&#45;10182 -->
<g id="edge110" class="edge"><title>10180&#45;&#45;10182</title>
<path fill="none" stroke="black" d="M2587.74,-361.811C2576.34,-350.07 2560.62,-333.893 2549.22,-322.159"/>
</g>
<!-- 10180&#45;&#45;10184 -->
<g id="edge111" class="edge"><title>10180&#45;&#45;10184</title>
<path fill="none" stroke="black" d="M2599.25,-359.896C2595.31,-341.439 2587.64,-311.531 2575.5,-288 2568.35,-274.148 2557.45,-260.276 2548.69,-250.2"/>
</g>
<!-- 10182&#45;&#45;10184 -->
<g id="edge112" class="edge"><title>10182&#45;&#45;10184</title>
<path fill="none" stroke="black" d="M2534.5,-287.697C2534.5,-276.846 2534.5,-262.917 2534.5,-252.104"/>
</g>
<!-- 10367 -->
<g id="node61" class="node"><title>10367</title>
<ellipse fill="none" stroke="black" cx="1041.5" cy="-378" rx="32.4942" ry="18"/>
<text text-anchor="middle" x="1041.5" y="-374.3" font-family="Times New Roman,serif" font-size="14.00">10367</text>
</g>
<!-- 10367&#45;&#45;5802 -->
<g id="edge114" class="edge"><title>10367&#45;&#45;5802</title>
<path fill="none" stroke="black" d="M1036.63,-360.153C1028.74,-332.824 1013.24,-279.14 1005.36,-251.825"/>
</g>
<!-- 10367&#45;&#45;5927 -->
<g id="edge113" class="edge"><title>10367&#45;&#45;5927</title>
<path fill="none" stroke="black" d="M1022.14,-363.17C1004.62,-350.659 979.011,-332.367 961.824,-320.091"/>
</g>
</g>
</svg>
