<svg width="953px" height="443px"
 viewBox="0.00 0.00 714.48 332.00" xmlns="http://www.w3.org/2000/svg" xmlns:xlink="http://www.w3.org/1999/xlink">
<g id="graph0" class="graph" transform="scale(1.000022500562514 1.000022500562514) rotate(0) translate(4 328)">
<title>G</title>
<polygon fill="white" stroke="none" points="-4,4 -4,-328 710.484,-328 710.484,4 -4,4"/>
<!-- 1449 -->
<g id="node1" class="node"><title>1449</title>
<polygon fill="#77834c" stroke="#77834c" points="59.4577,-324 5.45775,-324 5.45775,-288 59.4577,-288 59.4577,-324"/>
<text text-anchor="middle" x="32.4577" y="-302.3" font-family="Times New Roman,serif" font-size="14.00">1449</text>
</g>
<!-- 1450 -->
<g id="node2" class="node"><title>1450</title>
<polygon fill="#849a81" stroke="#849a81" points="68.4577,-180 14.4577,-180 14.4577,-144 68.4577,-144 68.4577,-180"/>
<text text-anchor="middle" x="41.4577" y="-158.3" font-family="Times New Roman,serif" font-size="14.00">1450</text>
</g>
<!-- 1449&#45;&#45;1450 -->
<g id="edge1" class="edge"><title>1449&#45;&#45;1450</title>
<path fill="none" stroke="black" d="M33.5434,-287.871C35.2732,-260.578 38.636,-207.52 40.3683,-180.189"/>
</g>
<!-- 1452 -->
<g id="node3" class="node"><title>1452</title>
<polygon fill="#573e8c" stroke="#573e8c" points="68.4577,-108 14.4577,-108 14.4577,-72 68.4577,-72 68.4577,-108"/>
<text text-anchor="middle" x="41.4577" y="-86.3" font-family="Times New Roman,serif" font-size="14.00">1452</text>
</g>
<!-- 1449&#45;&#45;1452 -->
<g id="edge2" class="edge"><title>1449&#45;&#45;1452</title>
<path fill="none" stroke="black" d="M24.4397,-287.736C11.6991,-257.884 -10.2033,-194.929 5.45775,-144 9.51182,-130.816 18.0848,-117.97 25.8478,-108.226"/>
</g>
<!-- 10132 -->
<g id="node4" class="node"><title>10132</title>
<polygon fill="#8e994b" stroke="#8e994b" points="114.458,-252 60.4577,-252 60.4577,-216 114.458,-216 114.458,-252"/>
<text text-anchor="middle" x="87.4577" y="-230.3" font-family="Times New Roman,serif" font-size="14.00">10132</text>
</g>
<!-- 1449&#45;&#45;10132 -->
<g id="edge3" class="edge"><title>1449&#45;&#45;10132</title>
<path fill="none" stroke="black" d="M46.0533,-287.697C54.5785,-276.846 65.5232,-262.917 74.0186,-252.104"/>
</g>
<!-- 1450&#45;&#45;1452 -->
<g id="edge4" class="edge"><title>1450&#45;&#45;1452</title>
<path fill="none" stroke="black" d="M41.4577,-143.697C41.4577,-132.846 41.4577,-118.917 41.4577,-108.104"/>
</g>
<!-- 10132&#45;&#45;1450 -->
<g id="edge5" class="edge"><title>10132&#45;&#45;1450</title>
<path fill="none" stroke="black" d="M76.087,-215.697C68.9567,-204.846 59.803,-190.917 52.6977,-180.104"/>
</g>
<!-- 10132&#45;&#45;1452 -->
<g id="edge6" class="edge"><title>10132&#45;&#45;1452</title>
<path fill="none" stroke="black" d="M87.9384,-215.708C87.8999,-197.352 86.2499,-167.77 77.4577,-144 72.6728,-131.064 64.077,-118.225 56.4847,-108.424"/>
</g>
<!-- 6715 -->
<g id="node5" class="node"><title>6715</title>
<ellipse fill="none" stroke="black" cx="161.458" cy="-306" rx="28.6953" ry="18"/>
<text text-anchor="middle" x="161.458" y="-302.3" font-family="Times New Roman,serif" font-size="14.00">6715</text>
</g>
<!-- 6716 -->
<g id="node6" class="node"><title>6716</title>
<ellipse fill="none" stroke="black" cx="161.458" cy="-234" rx="28.6953" ry="18"/>
<text text-anchor="middle" x="161.458" y="-230.3" font-family="Times New Roman,serif" font-size="14.00">6716</text>
</g>
<!-- 6715&#45;&#45;6716 -->
<g id="edge7" class="edge"><title>6715&#45;&#45;6716</title>
<path fill="none" stroke="black" d="M161.458,-287.697C161.458,-276.846 161.458,-262.917 161.458,-252.104"/>
</g>
<!-- 7847 -->
<g id="node7" class="node"><title>7847</title>
<ellipse fill="none" stroke="black" cx="236.458" cy="-306" rx="28.6953" ry="18"/>
<text text-anchor="middle" x="236.458" y="-302.3" font-family="Times New Roman,serif" font-size="14.00">7847</text>
</g>
<!-- 7848 -->
<g id="node8" class="node"><title>7848</title>
<ellipse fill="none" stroke="black" cx="236.458" cy="-234" rx="28.6953" ry="18"/>
<text text-anchor="middle" x="236.458" y="-230.3" font-family="Times New Roman,serif" font-size="14.00">7848</text>
</g>
<!-- 7847&#45;&#45;7848 -->
<g id="edge8" class="edge"><title>7847&#45;&#45;7848</title>
<path fill="none" stroke="black" d="M236.458,-287.697C236.458,-276.846 236.458,-262.917 236.458,-252.104"/>
</g>
<!-- 9769 -->
<g id="node9" class="node"><title>9769</title>
<polygon fill="#5d7757" stroke="#5d7757" points="402.458,-324 348.458,-324 348.458,-288 402.458,-288 402.458,-324"/>
<text text-anchor="middle" x="375.458" y="-302.3" font-family="Times New Roman,serif" font-size="14.00">9769</text>
</g>
<!-- 9770 -->
<g id="node10" class="node"><title>9770</title>
<polygon fill="#6f485d" stroke="#6f485d" points="430.458,-252 376.458,-252 376.458,-216 430.458,-216 430.458,-252"/>
<text text-anchor="middle" x="403.458" y="-230.3" font-family="Times New Roman,serif" font-size="14.00">9770</text>
</g>
<!-- 9769&#45;&#45;9770 -->
<g id="edge9" class="edge"><title>9769&#45;&#45;9770</title>
<path fill="none" stroke="black" d="M382.379,-287.697C386.719,-276.846 392.291,-262.917 396.616,-252.104"/>
</g>
<!-- 9772 -->
<g id="node11" class="node"><title>9772</title>
<polygon fill="#378281" stroke="#378281" points="375.458,-180 321.458,-180 321.458,-144 375.458,-144 375.458,-180"/>
<text text-anchor="middle" x="348.458" y="-158.3" font-family="Times New Roman,serif" font-size="14.00">9772</text>
</g>
<!-- 9769&#45;&#45;9772 -->
<g id="edge10" class="edge"><title>9769&#45;&#45;9772</title>
<path fill="none" stroke="black" d="M372.201,-287.871C367.011,-260.578 356.923,-207.52 351.726,-180.189"/>
</g>
<!-- 9774 -->
<g id="node12" class="node"><title>9774</title>
<polygon fill="#5c6153" stroke="#5c6153" points="485.458,-108 431.458,-108 431.458,-72 485.458,-72 485.458,-108"/>
<text text-anchor="middle" x="458.458" y="-86.3" font-family="Times New Roman,serif" font-size="14.00">9774</text>
</g>
<!-- 9769&#45;&#45;9774 -->
<g id="edge11" class="edge"><title>9769&#45;&#45;9774</title>
<path fill="none" stroke="black" d="M402.465,-289.569C415.871,-280.431 430.977,-267.587 439.458,-252 465.016,-205.027 463.102,-139.094 460.417,-108.219"/>
</g>
<!-- 9776 -->
<g id="node13" class="node"><title>9776</title>
<polygon fill="#41848a" stroke="#41848a" points="406.458,-36 352.458,-36 352.458,-0 406.458,-0 406.458,-36"/>
<text text-anchor="middle" x="379.458" y="-14.3" font-family="Times New Roman,serif" font-size="14.00">9776</text>
</g>
<!-- 9769&#45;&#45;9776 -->
<g id="edge12" class="edge"><title>9769&#45;&#45;9776</title>
<path fill="none" stroke="black" d="M360.853,-287.616C338.279,-258.603 298.861,-198.147 312.458,-144 322.952,-102.209 350.408,-59.1413 366.731,-36.0717"/>
</g>
<!-- 9770&#45;&#45;9772 -->
<g id="edge13" class="edge"><title>9770&#45;&#45;9772</title>
<path fill="none" stroke="black" d="M389.862,-215.697C381.337,-204.846 370.392,-190.917 361.897,-180.104"/>
</g>
<!-- 9770&#45;&#45;9774 -->
<g id="edge14" class="edge"><title>9770&#45;&#45;9774</title>
<path fill="none" stroke="black" d="M410.092,-215.871C420.663,-188.578 441.214,-135.52 451.8,-108.189"/>
</g>
<!-- 9770&#45;&#45;9776 -->
<g id="edge15" class="edge"><title>9770&#45;&#45;9776</title>
<path fill="none" stroke="black" d="M401.534,-215.849C397.041,-175.78 385.893,-76.3826 381.39,-36.2325"/>
</g>
<!-- 9772&#45;&#45;9774 -->
<g id="edge16" class="edge"><title>9772&#45;&#45;9774</title>
<path fill="none" stroke="black" d="M375.367,-143.876C392.413,-133.029 414.38,-119.05 431.445,-108.19"/>
</g>
<!-- 9772&#45;&#45;9776 -->
<g id="edge17" class="edge"><title>9772&#45;&#45;9776</title>
<path fill="none" stroke="black" d="M352.197,-143.871C358.155,-116.578 369.738,-63.5205 375.705,-36.1893"/>
</g>
<!-- 9774&#45;&#45;9776 -->
<g id="edge18" class="edge"><title>9774&#45;&#45;9776</title>
<path fill="none" stroke="black" d="M438.93,-71.6966C426.684,-60.8463 410.964,-46.9167 398.761,-36.1043"/>
</g>
<!-- 10795 -->
<g id="node14" class="node"><title>10795</title>
<ellipse fill="none" stroke="black" cx="539.458" cy="-306" rx="32.4942" ry="18"/>
<text text-anchor="middle" x="539.458" y="-302.3" font-family="Times New Roman,serif" font-size="14.00">10795</text>
</g>
<!-- 10796 -->
<g id="node15" class="node"><title>10796</title>
<ellipse fill="none" stroke="black" cx="539.458" cy="-234" rx="32.4942" ry="18"/>
<text text-anchor="middle" x="539.458" y="-230.3" font-family="Times New Roman,serif" font-size="14.00">10796</text>
</g>
<!-- 10795&#45;&#45;10796 -->
<g id="edge19" class="edge"><title>10795&#45;&#45;10796</title>
<path fill="none" stroke="black" d="M539.458,-287.697C539.458,-276.846 539.458,-262.917 539.458,-252.104"/>
</g>
<!-- 12149 -->
<g id="node16" class="node"><title>12149</title>
<ellipse fill="#6e4b63" stroke="#6e4b63" cx="659.458" cy="-306" rx="32.4942" ry="18"/>
<text text-anchor="middle" x="659.458" y="-302.3" font-family="Times New Roman,serif" font-size="14.00">12149</text>
</g>
<!-- 12150 -->
<g id="node17" class="node"><title>12150</title>
<ellipse fill="none" stroke="black" cx="659.458" cy="-234" rx="32.4942" ry="18"/>
<text text-anchor="middle" x="659.458" y="-230.3" font-family="Times New Roman,serif" font-size="14.00">12150</text>
</g>
<!-- 12149&#45;&#45;12150 -->
<g id="edge20" class="edge"><title>12149&#45;&#45;12150</title>
<path fill="none" stroke="black" d="M659.458,-287.697C659.458,-276.846 659.458,-262.917 659.458,-252.104"/>
</g>
<!-- 12152 -->
<g id="node18" class="node"><title>12152</title>
<polygon fill="#6e4b63" stroke="#6e4b63" points="642.458,-180 588.458,-180 588.458,-144 642.458,-144 642.458,-180"/>
<text text-anchor="middle" x="615.458" y="-158.3" font-family="Times New Roman,serif" font-size="14.00">12152</text>
</g>
<!-- 12149&#45;&#45;12152 -->
<g id="edge21" class="edge"><title>12149&#45;&#45;12152</title>
<path fill="none" stroke="black" d="M643.585,-289.909C634.404,-280.085 623.666,-266.446 618.458,-252 609.91,-228.294 611.031,-198.694 612.974,-180.317"/>
</g>
<!-- 12154 -->
<g id="node19" class="node"><title>12154</title>
<ellipse fill="none" stroke="black" cx="670.458" cy="-90" rx="32.4942" ry="18"/>
<text text-anchor="middle" x="670.458" y="-86.3" font-family="Times New Roman,serif" font-size="14.00">12154</text>
</g>
<!-- 12149&#45;&#45;12154 -->
<g id="edge22" class="edge"><title>12149&#45;&#45;12154</title>
<path fill="none" stroke="black" d="M675.503,-289.97C684.748,-280.168 695.493,-266.531 700.458,-252 717.923,-200.879 692.938,-136.955 678.894,-107.392"/>
</g>
<!-- 12150&#45;&#45;12152 -->
<g id="edge23" class="edge"><title>12150&#45;&#45;12152</title>
<path fill="none" stroke="black" d="M649.253,-216.765C642.347,-205.779 633.241,-191.292 626.221,-180.124"/>
</g>
<!-- 12150&#45;&#45;12154 -->
<g id="edge24" class="edge"><title>12150&#45;&#45;12154</title>
<path fill="none" stroke="black" d="M660.785,-215.871C662.899,-188.578 667.009,-135.52 669.126,-108.189"/>
</g>
<!-- 12152&#45;&#45;12154 -->
<g id="edge25" class="edge"><title>12152&#45;&#45;12154</title>
<path fill="none" stroke="black" d="M629.053,-143.697C637.96,-132.36 649.508,-117.663 658.145,-106.671"/>
</g>
</g>
</svg>
