<svg width="2575px" height="539px"
 viewBox="0.00 0.00 1931.00 404.00" xmlns="http://www.w3.org/2000/svg" xmlns:xlink="http://www.w3.org/1999/xlink">
<g id="graph0" class="graph" transform="scale(1.000022500562514 1.000022500562514) rotate(0) translate(4 400)">
<title>G</title>
<polygon fill="white" stroke="none" points="-4,4 -4,-400 1927,-400 1927,4 -4,4"/>
<!-- 127 -->
<g id="node1" class="node"><title>127</title>
<polygon fill="#8b5c59" stroke="#8b5c59" points="139.996,-396 85.9959,-396 85.9959,-360 139.996,-360 139.996,-396"/>
<text text-anchor="middle" x="112.996" y="-374.3" font-family="Times New Roman,serif" font-size="14.00">127</text>
</g>
<!-- 128 -->
<g id="node2" class="node"><title>128</title>
<polygon fill="#3b9b78" stroke="#3b9b78" points="139.996,-324 85.9959,-324 85.9959,-288 139.996,-288 139.996,-324"/>
<text text-anchor="middle" x="112.996" y="-302.3" font-family="Times New Roman,serif" font-size="14.00">128</text>
</g>
<!-- 127&#45;&#45;128 -->
<g id="edge1" class="edge"><title>127&#45;&#45;128</title>
<path fill="none" stroke="black" d="M112.996,-359.697C112.996,-348.846 112.996,-334.917 112.996,-324.104"/>
</g>
<!-- 130 -->
<g id="node3" class="node"><title>130</title>
<polygon fill="#73486d" stroke="#73486d" points="76.9959,-252 22.9959,-252 22.9959,-216 76.9959,-216 76.9959,-252"/>
<text text-anchor="middle" x="49.9959" y="-230.3" font-family="Times New Roman,serif" font-size="14.00">130</text>
</g>
<!-- 127&#45;&#45;130 -->
<g id="edge2" class="edge"><title>127&#45;&#45;130</title>
<path fill="none" stroke="black" d="M85.7945,-372.078C59.9678,-365.803 22.5597,-352.184 4.9959,-324 -9.93048,-300.048 12.3944,-270.516 30.5848,-252.22"/>
</g>
<!-- 5822 -->
<g id="node4" class="node"><title>5822</title>
<polygon fill="#3b3f95" stroke="#3b3f95" points="139.996,-180 85.9959,-180 85.9959,-144 139.996,-144 139.996,-180"/>
<text text-anchor="middle" x="112.996" y="-158.3" font-family="Times New Roman,serif" font-size="14.00">5822</text>
</g>
<!-- 127&#45;&#45;5822 -->
<g id="edge3" class="edge"><title>127&#45;&#45;5822</title>
<path fill="none" stroke="black" d="M128.606,-359.774C136.369,-350.03 144.942,-337.184 148.996,-324 164.823,-272.532 137.989,-209.829 122.617,-180.15"/>
</g>
<!-- 128&#45;&#45;130 -->
<g id="edge4" class="edge"><title>128&#45;&#45;130</title>
<path fill="none" stroke="black" d="M97.4229,-287.697C87.6576,-276.846 75.1209,-262.917 65.3898,-252.104"/>
</g>
<!-- 128&#45;&#45;5822 -->
<g id="edge5" class="edge"><title>128&#45;&#45;5822</title>
<path fill="none" stroke="black" d="M112.996,-287.871C112.996,-260.578 112.996,-207.52 112.996,-180.189"/>
</g>
<!-- 130&#45;&#45;5822 -->
<g id="edge6" class="edge"><title>130&#45;&#45;5822</title>
<path fill="none" stroke="black" d="M65.5689,-215.697C75.3342,-204.846 87.8709,-190.917 97.602,-180.104"/>
</g>
<!-- 1125 -->
<g id="node5" class="node"><title>1125</title>
<polygon fill="#577049" stroke="#577049" points="546.996,-396 492.996,-396 492.996,-360 546.996,-360 546.996,-396"/>
<text text-anchor="middle" x="519.996" y="-374.3" font-family="Times New Roman,serif" font-size="14.00">1125</text>
</g>
<!-- 1126 -->
<g id="node6" class="node"><title>1126</title>
<polygon fill="#5e454b" stroke="#5e454b" points="291.996,-324 237.996,-324 237.996,-288 291.996,-288 291.996,-324"/>
<text text-anchor="middle" x="264.996" y="-302.3" font-family="Times New Roman,serif" font-size="14.00">1126</text>
</g>
<!-- 1125&#45;&#45;1126 -->
<g id="edge7" class="edge"><title>1125&#45;&#45;1126</title>
<path fill="none" stroke="black" d="M492.939,-371.664C451.972,-363.28 371.984,-345.715 305.996,-324 301.458,-322.507 296.713,-320.739 292.128,-318.919"/>
</g>
<!-- 1128 -->
<g id="node7" class="node"><title>1128</title>
<polygon fill="#927f5c" stroke="#927f5c" points="473.996,-252 419.996,-252 419.996,-216 473.996,-216 473.996,-252"/>
<text text-anchor="middle" x="446.996" y="-230.3" font-family="Times New Roman,serif" font-size="14.00">1128</text>
</g>
<!-- 1125&#45;&#45;1128 -->
<g id="edge8" class="edge"><title>1125&#45;&#45;1128</title>
<path fill="none" stroke="black" d="M504.47,-359.821C496.089,-349.891 486.046,-336.851 478.996,-324 466.043,-300.391 456.553,-270.506 451.405,-252.074"/>
</g>
<!-- 1130 -->
<g id="node8" class="node"><title>1130</title>
<polygon fill="#493d95" stroke="#493d95" points="547.996,-180 493.996,-180 493.996,-144 547.996,-144 547.996,-180"/>
<text text-anchor="middle" x="520.996" y="-158.3" font-family="Times New Roman,serif" font-size="14.00">1130</text>
</g>
<!-- 1125&#45;&#45;1130 -->
<g id="edge9" class="edge"><title>1125&#45;&#45;1130</title>
<path fill="none" stroke="black" d="M516.748,-359.888C514.95,-349.542 512.901,-336.063 511.996,-324 508.078,-271.796 514.686,-209.952 518.533,-180.406"/>
</g>
<!-- 1132 -->
<g id="node9" class="node"><title>1132</title>
<polygon fill="#508c84" stroke="#508c84" points="446.996,-108 392.996,-108 392.996,-72 446.996,-72 446.996,-108"/>
<text text-anchor="middle" x="419.996" y="-86.3" font-family="Times New Roman,serif" font-size="14.00">1132</text>
</g>
<!-- 1125&#45;&#45;1132 -->
<g id="edge10" class="edge"><title>1125&#45;&#45;1132</title>
<path fill="none" stroke="black" d="M492.845,-367.665C450.865,-351.576 371.643,-314.223 338.996,-252 311.665,-199.91 368.16,-137.499 400.102,-108.018"/>
</g>
<!-- 1134 -->
<g id="node10" class="node"><title>1134</title>
<polygon fill="#807f74" stroke="#807f74" points="805.996,-36 751.996,-36 751.996,-0 805.996,-0 805.996,-36"/>
<text text-anchor="middle" x="778.996" y="-14.3" font-family="Times New Roman,serif" font-size="14.00">1134</text>
</g>
<!-- 1125&#45;&#45;1134 -->
<g id="edge11" class="edge"><title>1125&#45;&#45;1134</title>
<path fill="none" stroke="black" d="M547.06,-373.832C609.827,-364.827 759.996,-333.037 759.996,-235 759.996,-235 759.996,-235 759.996,-161 759.996,-115.732 769.599,-63.0581 775.151,-36.3884"/>
</g>
<!-- 3138 -->
<g id="node11" class="node"><title>3138</title>
<polygon fill="#673874" stroke="#673874" points="574.996,-324 520.996,-324 520.996,-288 574.996,-288 574.996,-324"/>
<text text-anchor="middle" x="547.996" y="-302.3" font-family="Times New Roman,serif" font-size="14.00">3138</text>
</g>
<!-- 1125&#45;&#45;3138 -->
<g id="edge12" class="edge"><title>1125&#45;&#45;3138</title>
<path fill="none" stroke="black" d="M526.917,-359.697C531.257,-348.846 536.829,-334.917 541.154,-324.104"/>
</g>
<!-- 10391 -->
<g id="node12" class="node"><title>10391</title>
<polygon fill="#3e9997" stroke="#3e9997" points="646.996,-324 592.996,-324 592.996,-288 646.996,-288 646.996,-324"/>
<text text-anchor="middle" x="619.996" y="-302.3" font-family="Times New Roman,serif" font-size="14.00">10391</text>
</g>
<!-- 1125&#45;&#45;10391 -->
<g id="edge13" class="edge"><title>1125&#45;&#45;10391</title>
<path fill="none" stroke="black" d="M544.459,-359.876C559.955,-349.029 579.925,-335.05 595.439,-324.19"/>
</g>
<!-- 10392 -->
<g id="node13" class="node"><title>10392</title>
<polygon fill="#325086" stroke="#325086" points="659.996,-252 605.996,-252 605.996,-216 659.996,-216 659.996,-252"/>
<text text-anchor="middle" x="632.996" y="-230.3" font-family="Times New Roman,serif" font-size="14.00">10392</text>
</g>
<!-- 1125&#45;&#45;10392 -->
<g id="edge14" class="edge"><title>1125&#45;&#45;10392</title>
<path fill="none" stroke="black" d="M547.214,-375.149C579.383,-371.335 631.614,-359.669 655.996,-324 670.946,-302.129 656.837,-271.2 645.068,-252.156"/>
</g>
<!-- 1126&#45;&#45;1128 -->
<g id="edge15" class="edge"><title>1126&#45;&#45;1128</title>
<path fill="none" stroke="black" d="M292.194,-295.974C321.736,-285.974 370.172,-269.005 410.996,-252 413.931,-250.777 416.973,-249.445 419.99,-248.082"/>
</g>
<!-- 1126&#45;&#45;1130 -->
<g id="edge16" class="edge"><title>1126&#45;&#45;1130</title>
<path fill="none" stroke="black" d="M274.766,-287.957C287.168,-267.83 310.427,-234.729 338.996,-216 387.849,-183.974 456.453,-170.88 493.932,-165.86"/>
</g>
<!-- 1126&#45;&#45;1132 -->
<g id="edge17" class="edge"><title>1126&#45;&#45;1132</title>
<path fill="none" stroke="black" d="M264.773,-287.836C265.255,-255.874 270.639,-186.624 305.996,-144 328.152,-117.29 366.763,-103.314 392.841,-96.5571"/>
</g>
<!-- 1126&#45;&#45;1134 -->
<g id="edge18" class="edge"><title>1126&#45;&#45;1134</title>
<path fill="none" stroke="black" d="M261.74,-287.718C256.79,-256.164 250.867,-188.391 280.996,-144 312.362,-97.7856 331.957,-92.2874 383.996,-72 514.538,-21.1079 685.712,-17.5663 751.556,-18.3087"/>
</g>
<!-- 1128&#45;&#45;1130 -->
<g id="edge19" class="edge"><title>1128&#45;&#45;1130</title>
<path fill="none" stroke="black" d="M465.288,-215.697C476.758,-204.846 491.484,-190.917 502.914,-180.104"/>
</g>
<!-- 1130&#45;&#45;1132 -->
<g id="edge20" class="edge"><title>1130&#45;&#45;1132</title>
<path fill="none" stroke="black" d="M496.289,-143.876C480.637,-133.029 460.468,-119.05 444.798,-108.19"/>
</g>
<!-- 1130&#45;&#45;1134 -->
<g id="edge21" class="edge"><title>1130&#45;&#45;1134</title>
<path fill="none" stroke="black" d="M548.119,-146.072C597.67,-118.8 702.281,-61.2231 751.849,-33.9412"/>
</g>
<!-- 1132&#45;&#45;1134 -->
<g id="edge22" class="edge"><title>1132&#45;&#45;1134</title>
<path fill="none" stroke="black" d="M447.274,-83.6812C514.034,-70.6638 685.042,-37.3197 751.759,-24.3107"/>
</g>
<!-- 3138&#45;&#45;1130 -->
<g id="edge23" class="edge"><title>3138&#45;&#45;1130</title>
<path fill="none" stroke="black" d="M544.739,-287.871C539.55,-260.578 529.461,-207.52 524.264,-180.189"/>
</g>
<!-- 10391&#45;&#45;1130 -->
<g id="edge25" class="edge"><title>10391&#45;&#45;1130</title>
<path fill="none" stroke="black" d="M608.054,-287.871C589.026,-260.578 552.035,-207.52 532.98,-180.189"/>
</g>
<!-- 10391&#45;&#45;10392 -->
<g id="edge24" class="edge"><title>10391&#45;&#45;10392</title>
<path fill="none" stroke="black" d="M623.209,-287.697C625.224,-276.846 627.811,-262.917 629.819,-252.104"/>
</g>
<!-- 10392&#45;&#45;1130 -->
<g id="edge26" class="edge"><title>10392&#45;&#45;1130</title>
<path fill="none" stroke="black" d="M605.884,-216.055C588.404,-205.13 565.753,-190.973 548.246,-180.032"/>
</g>
<!-- 1135 -->
<g id="node14" class="node"><title>1135</title>
<polygon fill="#369a6d" stroke="#369a6d" points="841.996,-180 787.996,-180 787.996,-144 841.996,-144 841.996,-180"/>
<text text-anchor="middle" x="814.996" y="-158.3" font-family="Times New Roman,serif" font-size="14.00">1135</text>
</g>
<!-- 1135&#45;&#45;1134 -->
<g id="edge28" class="edge"><title>1135&#45;&#45;1134</title>
<path fill="none" stroke="black" d="M810.653,-143.871C803.734,-116.578 790.283,-63.5205 783.354,-36.1893"/>
</g>
<!-- 1136 -->
<g id="node15" class="node"><title>1136</title>
<polygon fill="#345659" stroke="#345659" points="879.996,-108 825.996,-108 825.996,-72 879.996,-72 879.996,-108"/>
<text text-anchor="middle" x="852.996" y="-86.3" font-family="Times New Roman,serif" font-size="14.00">1136</text>
</g>
<!-- 1135&#45;&#45;1136 -->
<g id="edge27" class="edge"><title>1135&#45;&#45;1136</title>
<path fill="none" stroke="black" d="M824.389,-143.697C830.279,-132.846 837.841,-118.917 843.711,-108.104"/>
</g>
<!-- 1136&#45;&#45;1134 -->
<g id="edge29" class="edge"><title>1136&#45;&#45;1134</title>
<path fill="none" stroke="black" d="M834.704,-71.6966C823.233,-60.8463 808.508,-46.9167 797.078,-36.1043"/>
</g>
<!-- 1149 -->
<g id="node16" class="node"><title>1149</title>
<polygon fill="#418e3a" stroke="#418e3a" points="731.996,-252 677.996,-252 677.996,-216 731.996,-216 731.996,-252"/>
<text text-anchor="middle" x="704.996" y="-230.3" font-family="Times New Roman,serif" font-size="14.00">1149</text>
</g>
<!-- 1149&#45;&#45;1130 -->
<g id="edge30" class="edge"><title>1149&#45;&#45;1130</title>
<path fill="none" stroke="black" d="M677.996,-219.905C674.978,-218.544 671.934,-217.216 668.996,-216 627.389,-198.774 577.933,-181.736 548.031,-171.8"/>
</g>
<!-- 2267 -->
<g id="node17" class="node"><title>2267</title>
<polygon fill="#699277" stroke="#699277" points="1051,-396 996.996,-396 996.996,-360 1051,-360 1051,-396"/>
<text text-anchor="middle" x="1024" y="-374.3" font-family="Times New Roman,serif" font-size="14.00">2267</text>
</g>
<!-- 2268 -->
<g id="node18" class="node"><title>2268</title>
<polygon fill="#848b85" stroke="#848b85" points="1051,-324 996.996,-324 996.996,-288 1051,-288 1051,-324"/>
<text text-anchor="middle" x="1024" y="-302.3" font-family="Times New Roman,serif" font-size="14.00">2268</text>
</g>
<!-- 2267&#45;&#45;2268 -->
<g id="edge31" class="edge"><title>2267&#45;&#45;2268</title>
<path fill="none" stroke="black" d="M1024,-359.697C1024,-348.846 1024,-334.917 1024,-324.104"/>
</g>
<!-- 2270 -->
<g id="node19" class="node"><title>2270</title>
<polygon fill="#524854" stroke="#524854" points="1005,-252 950.996,-252 950.996,-216 1005,-216 1005,-252"/>
<text text-anchor="middle" x="977.996" y="-230.3" font-family="Times New Roman,serif" font-size="14.00">2270</text>
</g>
<!-- 2267&#45;&#45;2270 -->
<g id="edge32" class="edge"><title>2267&#45;&#45;2270</title>
<path fill="none" stroke="black" d="M1008.97,-359.576C1001.38,-349.775 992.781,-336.936 987.996,-324 979.204,-300.23 977.554,-270.648 977.515,-252.292"/>
</g>
<!-- 2272 -->
<g id="node20" class="node"><title>2272</title>
<polygon fill="#944540" stroke="#944540" points="1060,-180 1006,-180 1006,-144 1060,-144 1060,-180"/>
<text text-anchor="middle" x="1033" y="-158.3" font-family="Times New Roman,serif" font-size="14.00">2272</text>
</g>
<!-- 2267&#45;&#45;2272 -->
<g id="edge33" class="edge"><title>2267&#45;&#45;2272</title>
<path fill="none" stroke="black" d="M1039.61,-359.774C1047.37,-350.03 1055.94,-337.184 1060,-324 1075.66,-273.071 1053.75,-210.116 1041.01,-180.264"/>
</g>
<!-- 2268&#45;&#45;2270 -->
<g id="edge34" class="edge"><title>2268&#45;&#45;2270</title>
<path fill="none" stroke="black" d="M1012.63,-287.697C1005.49,-276.846 996.341,-262.917 989.236,-252.104"/>
</g>
<!-- 2268&#45;&#45;2272 -->
<g id="edge35" class="edge"><title>2268&#45;&#45;2272</title>
<path fill="none" stroke="black" d="M1025.08,-287.871C1026.81,-260.578 1030.17,-207.52 1031.91,-180.189"/>
</g>
<!-- 2270&#45;&#45;2272 -->
<g id="edge36" class="edge"><title>2270&#45;&#45;2272</title>
<path fill="none" stroke="black" d="M991.591,-215.697C1000.12,-204.846 1011.06,-190.917 1019.56,-180.104"/>
</g>
<!-- 3253 -->
<g id="node21" class="node"><title>3253</title>
<polygon fill="#506965" stroke="#506965" points="1161,-396 1107,-396 1107,-360 1161,-360 1161,-396"/>
<text text-anchor="middle" x="1134" y="-374.3" font-family="Times New Roman,serif" font-size="14.00">3253</text>
</g>
<!-- 3254 -->
<g id="node22" class="node"><title>3254</title>
<polygon fill="#7b3d92" stroke="#7b3d92" points="1161,-324 1107,-324 1107,-288 1161,-288 1161,-324"/>
<text text-anchor="middle" x="1134" y="-302.3" font-family="Times New Roman,serif" font-size="14.00">3254</text>
</g>
<!-- 3253&#45;&#45;3254 -->
<g id="edge37" class="edge"><title>3253&#45;&#45;3254</title>
<path fill="none" stroke="black" d="M1134,-359.697C1134,-348.846 1134,-334.917 1134,-324.104"/>
</g>
<!-- 3269 -->
<g id="node23" class="node"><title>3269</title>
<polygon fill="#877546" stroke="#877546" points="913.996,-180 859.996,-180 859.996,-144 913.996,-144 913.996,-180"/>
<text text-anchor="middle" x="886.996" y="-158.3" font-family="Times New Roman,serif" font-size="14.00">3269</text>
</g>
<!-- 3269&#45;&#45;1136 -->
<g id="edge38" class="edge"><title>3269&#45;&#45;1136</title>
<path fill="none" stroke="black" d="M878.591,-143.697C873.321,-132.846 866.555,-118.917 861.304,-108.104"/>
</g>
<!-- 4079 -->
<g id="node24" class="node"><title>4079</title>
<polygon fill="#423f5a" stroke="#423f5a" points="1233,-396 1179,-396 1179,-360 1233,-360 1233,-396"/>
<text text-anchor="middle" x="1206" y="-374.3" font-family="Times New Roman,serif" font-size="14.00">4079</text>
</g>
<!-- 4080 -->
<g id="node25" class="node"><title>4080</title>
<polygon fill="#606d7c" stroke="#606d7c" points="1233,-324 1179,-324 1179,-288 1233,-288 1233,-324"/>
<text text-anchor="middle" x="1206" y="-302.3" font-family="Times New Roman,serif" font-size="14.00">4080</text>
</g>
<!-- 4079&#45;&#45;4080 -->
<g id="edge39" class="edge"><title>4079&#45;&#45;4080</title>
<path fill="none" stroke="black" d="M1206,-359.697C1206,-348.846 1206,-334.917 1206,-324.104"/>
</g>
<!-- 4735 -->
<g id="node26" class="node"><title>4735</title>
<polygon fill="#4a674a" stroke="#4a674a" points="1305,-396 1251,-396 1251,-360 1305,-360 1305,-396"/>
<text text-anchor="middle" x="1278" y="-374.3" font-family="Times New Roman,serif" font-size="14.00">4735</text>
</g>
<!-- 4736 -->
<g id="node27" class="node"><title>4736</title>
<polygon fill="#877454" stroke="#877454" points="1305,-324 1251,-324 1251,-288 1305,-288 1305,-324"/>
<text text-anchor="middle" x="1278" y="-302.3" font-family="Times New Roman,serif" font-size="14.00">4736</text>
</g>
<!-- 4735&#45;&#45;4736 -->
<g id="edge40" class="edge"><title>4735&#45;&#45;4736</title>
<path fill="none" stroke="black" d="M1278,-359.697C1278,-348.846 1278,-334.917 1278,-324.104"/>
</g>
<!-- 5481 -->
<g id="node28" class="node"><title>5481</title>
<polygon fill="#767b54" stroke="#767b54" points="1377,-396 1323,-396 1323,-360 1377,-360 1377,-396"/>
<text text-anchor="middle" x="1350" y="-374.3" font-family="Times New Roman,serif" font-size="14.00">5481</text>
</g>
<!-- 5482 -->
<g id="node29" class="node"><title>5482</title>
<polygon fill="#978d53" stroke="#978d53" points="1377,-324 1323,-324 1323,-288 1377,-288 1377,-324"/>
<text text-anchor="middle" x="1350" y="-302.3" font-family="Times New Roman,serif" font-size="14.00">5482</text>
</g>
<!-- 5481&#45;&#45;5482 -->
<g id="edge41" class="edge"><title>5481&#45;&#45;5482</title>
<path fill="none" stroke="black" d="M1350,-359.697C1350,-348.846 1350,-334.917 1350,-324.104"/>
</g>
<!-- 5823 -->
<g id="node30" class="node"><title>5823</title>
<polygon fill="#6d9241" stroke="#6d9241" points="67.9959,-324 13.9959,-324 13.9959,-288 67.9959,-288 67.9959,-324"/>
<text text-anchor="middle" x="40.9959" y="-302.3" font-family="Times New Roman,serif" font-size="14.00">5823</text>
</g>
<!-- 5823&#45;&#45;130 -->
<g id="edge42" class="edge"><title>5823&#45;&#45;130</title>
<path fill="none" stroke="black" d="M43.2206,-287.697C44.6157,-276.846 46.4066,-262.917 47.7968,-252.104"/>
</g>
<!-- 7569 -->
<g id="node31" class="node"><title>7569</title>
<polygon fill="#3f7b75" stroke="#3f7b75" points="1449,-396 1395,-396 1395,-360 1449,-360 1449,-396"/>
<text text-anchor="middle" x="1422" y="-374.3" font-family="Times New Roman,serif" font-size="14.00">7569</text>
</g>
<!-- 7570 -->
<g id="node32" class="node"><title>7570</title>
<polygon fill="#547382" stroke="#547382" points="1449,-324 1395,-324 1395,-288 1449,-288 1449,-324"/>
<text text-anchor="middle" x="1422" y="-302.3" font-family="Times New Roman,serif" font-size="14.00">7570</text>
</g>
<!-- 7569&#45;&#45;7570 -->
<g id="edge43" class="edge"><title>7569&#45;&#45;7570</title>
<path fill="none" stroke="black" d="M1422,-359.697C1422,-348.846 1422,-334.917 1422,-324.104"/>
</g>
<!-- 7755 -->
<g id="node33" class="node"><title>7755</title>
<polygon fill="#984836" stroke="#984836" points="1521,-396 1467,-396 1467,-360 1521,-360 1521,-396"/>
<text text-anchor="middle" x="1494" y="-374.3" font-family="Times New Roman,serif" font-size="14.00">7755</text>
</g>
<!-- 7756 -->
<g id="node34" class="node"><title>7756</title>
<polygon fill="#7a8472" stroke="#7a8472" points="1521,-324 1467,-324 1467,-288 1521,-288 1521,-324"/>
<text text-anchor="middle" x="1494" y="-302.3" font-family="Times New Roman,serif" font-size="14.00">7756</text>
</g>
<!-- 7755&#45;&#45;7756 -->
<g id="edge44" class="edge"><title>7755&#45;&#45;7756</title>
<path fill="none" stroke="black" d="M1494,-359.697C1494,-348.846 1494,-334.917 1494,-324.104"/>
</g>
<!-- 7783 -->
<g id="node35" class="node"><title>7783</title>
<polygon fill="#418b3e" stroke="#418b3e" points="1593,-396 1539,-396 1539,-360 1593,-360 1593,-396"/>
<text text-anchor="middle" x="1566" y="-374.3" font-family="Times New Roman,serif" font-size="14.00">7783</text>
</g>
<!-- 7784 -->
<g id="node36" class="node"><title>7784</title>
<polygon fill="#5a779b" stroke="#5a779b" points="1593,-324 1539,-324 1539,-288 1593,-288 1593,-324"/>
<text text-anchor="middle" x="1566" y="-302.3" font-family="Times New Roman,serif" font-size="14.00">7784</text>
</g>
<!-- 7783&#45;&#45;7784 -->
<g id="edge45" class="edge"><title>7783&#45;&#45;7784</title>
<path fill="none" stroke="black" d="M1566,-359.697C1566,-348.846 1566,-334.917 1566,-324.104"/>
</g>
<!-- 9607 -->
<g id="node37" class="node"><title>9607</title>
<polygon fill="#42965a" stroke="#42965a" points="291.996,-396 237.996,-396 237.996,-360 291.996,-360 291.996,-396"/>
<text text-anchor="middle" x="264.996" y="-374.3" font-family="Times New Roman,serif" font-size="14.00">9607</text>
</g>
<!-- 9607&#45;&#45;1126 -->
<g id="edge46" class="edge"><title>9607&#45;&#45;1126</title>
<path fill="none" stroke="black" d="M264.996,-359.697C264.996,-348.846 264.996,-334.917 264.996,-324.104"/>
</g>
<!-- 10405 -->
<g id="node38" class="node"><title>10405</title>
<polygon fill="#87775d" stroke="#87775d" points="987.996,-180 933.996,-180 933.996,-144 987.996,-144 987.996,-180"/>
<text text-anchor="middle" x="960.996" y="-158.3" font-family="Times New Roman,serif" font-size="14.00">10405</text>
</g>
<!-- 10405&#45;&#45;1134 -->
<g id="edge48" class="edge"><title>10405&#45;&#45;1134</title>
<path fill="none" stroke="black" d="M950.374,-143.68C937.727,-124.201 915.015,-92.6055 888.996,-72 863.736,-51.996 829.693,-37.0622 806.202,-28.2299"/>
</g>
<!-- 10406 -->
<g id="node39" class="node"><title>10406</title>
<polygon fill="#345f74" stroke="#345f74" points="989.996,-108 935.996,-108 935.996,-72 989.996,-72 989.996,-108"/>
<text text-anchor="middle" x="962.996" y="-86.3" font-family="Times New Roman,serif" font-size="14.00">10406</text>
</g>
<!-- 10405&#45;&#45;10406 -->
<g id="edge47" class="edge"><title>10405&#45;&#45;10406</title>
<path fill="none" stroke="black" d="M961.49,-143.697C961.8,-132.846 962.198,-118.917 962.507,-108.104"/>
</g>
<!-- 10406&#45;&#45;1134 -->
<g id="edge49" class="edge"><title>10406&#45;&#45;1134</title>
<path fill="none" stroke="black" d="M935.708,-77.5155C931.141,-75.6425 926.443,-73.7454 921.996,-72 881.945,-56.2815 835.122,-39.163 806.261,-28.7552"/>
</g>
<!-- 10645 -->
<g id="node40" class="node"><title>10645</title>
<polygon fill="#424265" stroke="#424265" points="1693,-396 1639,-396 1639,-360 1693,-360 1693,-396"/>
<text text-anchor="middle" x="1666" y="-374.3" font-family="Times New Roman,serif" font-size="14.00">10645</text>
</g>
<!-- 10646 -->
<g id="node41" class="node"><title>10646</title>
<polygon fill="#3a9a8d" stroke="#3a9a8d" points="1665,-324 1611,-324 1611,-288 1665,-288 1665,-324"/>
<text text-anchor="middle" x="1638" y="-302.3" font-family="Times New Roman,serif" font-size="14.00">10646</text>
</g>
<!-- 10645&#45;&#45;10646 -->
<g id="edge50" class="edge"><title>10645&#45;&#45;10646</title>
<path fill="none" stroke="black" d="M1659.07,-359.697C1654.73,-348.846 1649.16,-334.917 1644.84,-324.104"/>
</g>
<!-- 10648 -->
<g id="node42" class="node"><title>10648</title>
<polygon fill="#364178" stroke="#364178" points="1684,-252 1630,-252 1630,-216 1684,-216 1684,-252"/>
<text text-anchor="middle" x="1657" y="-230.3" font-family="Times New Roman,serif" font-size="14.00">10648</text>
</g>
<!-- 10645&#45;&#45;10648 -->
<g id="edge51" class="edge"><title>10645&#45;&#45;10648</title>
<path fill="none" stroke="black" d="M1670.01,-359.857C1673.65,-341.875 1677.88,-312.83 1674,-288 1672.08,-275.78 1667.83,-262.53 1664.06,-252.335"/>
</g>
<!-- 10646&#45;&#45;10648 -->
<g id="edge52" class="edge"><title>10646&#45;&#45;10648</title>
<path fill="none" stroke="black" d="M1642.69,-287.697C1645.64,-276.846 1649.42,-262.917 1652.35,-252.104"/>
</g>
<!-- 10863 -->
<g id="node43" class="node"><title>10863</title>
<polygon fill="#674582" stroke="#674582" points="401.996,-252 347.996,-252 347.996,-216 401.996,-216 401.996,-252"/>
<text text-anchor="middle" x="374.996" y="-230.3" font-family="Times New Roman,serif" font-size="14.00">10863</text>
</g>
<!-- 10863&#45;&#45;1130 -->
<g id="edge53" class="edge"><title>10863&#45;&#45;1130</title>
<path fill="none" stroke="black" d="M402.115,-219.998C428.174,-207.504 467.351,-188.72 493.526,-176.17"/>
</g>
<!-- 11133 -->
<g id="node44" class="node"><title>11133</title>
<polygon fill="#52766b" stroke="#52766b" points="1840,-396 1786,-396 1786,-360 1840,-360 1840,-396"/>
<text text-anchor="middle" x="1813" y="-374.3" font-family="Times New Roman,serif" font-size="14.00">11133</text>
</g>
<!-- 11134 -->
<g id="node45" class="node"><title>11134</title>
<polygon fill="#866d89" stroke="#866d89" points="1868,-324 1814,-324 1814,-288 1868,-288 1868,-324"/>
<text text-anchor="middle" x="1841" y="-302.3" font-family="Times New Roman,serif" font-size="14.00">11134</text>
</g>
<!-- 11133&#45;&#45;11134 -->
<g id="edge54" class="edge"><title>11133&#45;&#45;11134</title>
<path fill="none" stroke="black" d="M1819.92,-359.697C1824.26,-348.846 1829.83,-334.917 1834.15,-324.104"/>
</g>
<!-- 11136 -->
<g id="node46" class="node"><title>11136</title>
<polygon fill="#706e3e" stroke="#706e3e" points="1813,-252 1759,-252 1759,-216 1813,-216 1813,-252"/>
<text text-anchor="middle" x="1786" y="-230.3" font-family="Times New Roman,serif" font-size="14.00">11136</text>
</g>
<!-- 11133&#45;&#45;11136 -->
<g id="edge55" class="edge"><title>11133&#45;&#45;11136</title>
<path fill="none" stroke="black" d="M1809.74,-359.871C1804.55,-332.578 1794.46,-279.52 1789.26,-252.189"/>
</g>
<!-- 11138 -->
<g id="node47" class="node"><title>11138</title>
<polygon fill="#393a5c" stroke="#393a5c" points="1923,-180 1869,-180 1869,-144 1923,-144 1923,-180"/>
<text text-anchor="middle" x="1896" y="-158.3" font-family="Times New Roman,serif" font-size="14.00">11138</text>
</g>
<!-- 11133&#45;&#45;11138 -->
<g id="edge56" class="edge"><title>11133&#45;&#45;11138</title>
<path fill="none" stroke="black" d="M1840,-361.569C1853.41,-352.431 1868.52,-339.587 1877,-324 1902.55,-277.027 1900.64,-211.094 1897.95,-180.219"/>
</g>
<!-- 11140 -->
<g id="node48" class="node"><title>11140</title>
<polygon fill="#4a445b" stroke="#4a445b" points="1844,-108 1790,-108 1790,-72 1844,-72 1844,-108"/>
<text text-anchor="middle" x="1817" y="-86.3" font-family="Times New Roman,serif" font-size="14.00">11140</text>
</g>
<!-- 11133&#45;&#45;11140 -->
<g id="edge57" class="edge"><title>11133&#45;&#45;11140</title>
<path fill="none" stroke="black" d="M1798.39,-359.616C1775.82,-330.603 1736.4,-270.147 1750,-216 1760.49,-174.209 1787.95,-131.141 1804.27,-108.072"/>
</g>
<!-- 11134&#45;&#45;11136 -->
<g id="edge58" class="edge"><title>11134&#45;&#45;11136</title>
<path fill="none" stroke="black" d="M1827.4,-287.697C1818.88,-276.846 1807.93,-262.917 1799.44,-252.104"/>
</g>
<!-- 11134&#45;&#45;11138 -->
<g id="edge59" class="edge"><title>11134&#45;&#45;11138</title>
<path fill="none" stroke="black" d="M1847.63,-287.871C1858.2,-260.578 1878.75,-207.52 1889.34,-180.189"/>
</g>
<!-- 11134&#45;&#45;11140 -->
<g id="edge60" class="edge"><title>11134&#45;&#45;11140</title>
<path fill="none" stroke="black" d="M1839.07,-287.849C1834.58,-247.78 1823.43,-148.383 1818.93,-108.232"/>
</g>
<!-- 11136&#45;&#45;11138 -->
<g id="edge61" class="edge"><title>11136&#45;&#45;11138</title>
<path fill="none" stroke="black" d="M1812.9,-215.876C1829.95,-205.029 1851.92,-191.05 1868.98,-180.19"/>
</g>
<!-- 11136&#45;&#45;11140 -->
<g id="edge62" class="edge"><title>11136&#45;&#45;11140</title>
<path fill="none" stroke="black" d="M1789.74,-215.871C1795.69,-188.578 1807.28,-135.52 1813.24,-108.189"/>
</g>
<!-- 11138&#45;&#45;11140 -->
<g id="edge63" class="edge"><title>11138&#45;&#45;11140</title>
<path fill="none" stroke="black" d="M1876.47,-143.697C1864.22,-132.846 1848.5,-118.917 1836.3,-108.104"/>
</g>
</g>
</svg>
