<svg width="542px" height="347px"
 viewBox="0.00 0.00 406.40 260.00" xmlns="http://www.w3.org/2000/svg" xmlns:xlink="http://www.w3.org/1999/xlink">
<g id="graph0" class="graph" transform="scale(1.000022500562514 1.000022500562514) rotate(0) translate(4 256)">
<title>G</title>
<polygon fill="white" stroke="none" points="-4,4 -4,-256 402.404,-256 402.404,4 -4,4"/>
<!-- 1279 -->
<g id="node1" class="node"><title>1279</title>
<polygon fill="#4f8a34" stroke="#4f8a34" points="54,-252 0,-252 0,-216 54,-216 54,-252"/>
<text text-anchor="middle" x="27" y="-230.3" font-family="Times New Roman,serif" font-size="14.00">1279</text>
</g>
<!-- 1280 -->
<g id="node2" class="node"><title>1280</title>
<polygon fill="#467d4c" stroke="#467d4c" points="54,-180 0,-180 0,-144 54,-144 54,-180"/>
<text text-anchor="middle" x="27" y="-158.3" font-family="Times New Roman,serif" font-size="14.00">1280</text>
</g>
<!-- 1279&#45;&#45;1280 -->
<g id="edge1" class="edge"><title>1279&#45;&#45;1280</title>
<path fill="none" stroke="black" d="M27,-215.697C27,-204.846 27,-190.917 27,-180.104"/>
</g>
<!-- 1349 -->
<g id="node3" class="node"><title>1349</title>
<polygon fill="#964377" stroke="#964377" points="153,-252 99,-252 99,-216 153,-216 153,-252"/>
<text text-anchor="middle" x="126" y="-230.3" font-family="Times New Roman,serif" font-size="14.00">1349</text>
</g>
<!-- 1350 -->
<g id="node4" class="node"><title>1350</title>
<polygon fill="#5b966a" stroke="#5b966a" points="126,-180 72,-180 72,-144 126,-144 126,-180"/>
<text text-anchor="middle" x="99" y="-158.3" font-family="Times New Roman,serif" font-size="14.00">1350</text>
</g>
<!-- 1349&#45;&#45;1350 -->
<g id="edge2" class="edge"><title>1349&#45;&#45;1350</title>
<path fill="none" stroke="black" d="M119.326,-215.697C115.141,-204.846 109.768,-190.917 105.597,-180.104"/>
</g>
<!-- 1352 -->
<g id="node5" class="node"><title>1352</title>
<polygon fill="#736234" stroke="#736234" points="145,-108 91,-108 91,-72 145,-72 145,-108"/>
<text text-anchor="middle" x="118" y="-86.3" font-family="Times New Roman,serif" font-size="14.00">1352</text>
</g>
<!-- 1349&#45;&#45;1352 -->
<g id="edge3" class="edge"><title>1349&#45;&#45;1352</title>
<path fill="none" stroke="black" d="M130.322,-215.867C134.252,-197.894 138.889,-168.857 135,-144 133.088,-131.78 128.838,-118.53 125.066,-108.335"/>
</g>
<!-- 1350&#45;&#45;1352 -->
<g id="edge4" class="edge"><title>1350&#45;&#45;1352</title>
<path fill="none" stroke="black" d="M103.697,-143.697C106.642,-132.846 110.423,-118.917 113.357,-108.104"/>
</g>
<!-- 5131 -->
<g id="node6" class="node"><title>5131</title>
<polygon fill="#6a3d78" stroke="#6a3d78" points="263,-252 209,-252 209,-216 263,-216 263,-252"/>
<text text-anchor="middle" x="236" y="-230.3" font-family="Times New Roman,serif" font-size="14.00">5131</text>
</g>
<!-- 5132 -->
<g id="node7" class="node"><title>5132</title>
<polygon fill="#6e9958" stroke="#6e9958" points="236,-180 182,-180 182,-144 236,-144 236,-180"/>
<text text-anchor="middle" x="209" y="-158.3" font-family="Times New Roman,serif" font-size="14.00">5132</text>
</g>
<!-- 5131&#45;&#45;5132 -->
<g id="edge5" class="edge"><title>5131&#45;&#45;5132</title>
<path fill="none" stroke="black" d="M229.326,-215.697C225.141,-204.846 219.768,-190.917 215.597,-180.104"/>
</g>
<!-- 5134 -->
<g id="node8" class="node"><title>5134</title>
<polygon fill="#414533" stroke="#414533" points="250,-108 196,-108 196,-72 250,-72 250,-108"/>
<text text-anchor="middle" x="223" y="-86.3" font-family="Times New Roman,serif" font-size="14.00">5134</text>
</g>
<!-- 5131&#45;&#45;5134 -->
<g id="edge6" class="edge"><title>5131&#45;&#45;5134</title>
<path fill="none" stroke="black" d="M240.738,-215.793C245.007,-197.76 249.918,-168.674 245,-144 242.507,-131.494 237.007,-118.244 232.131,-108.12"/>
</g>
<!-- 5132&#45;&#45;5134 -->
<g id="edge7" class="edge"><title>5132&#45;&#45;5134</title>
<path fill="none" stroke="black" d="M212.461,-143.697C214.631,-132.846 217.417,-118.917 219.579,-108.104"/>
</g>
<!-- 5307 -->
<g id="node9" class="node"><title>5307</title>
<polygon fill="#4a3b36" stroke="#4a3b36" points="384,-252 330,-252 330,-216 384,-216 384,-252"/>
<text text-anchor="middle" x="357" y="-230.3" font-family="Times New Roman,serif" font-size="14.00">5307</text>
</g>
<!-- 5308 -->
<g id="node10" class="node"><title>5308</title>
<polygon fill="#995341" stroke="#995341" points="384,-180 330,-180 330,-144 384,-144 384,-180"/>
<text text-anchor="middle" x="357" y="-158.3" font-family="Times New Roman,serif" font-size="14.00">5308</text>
</g>
<!-- 5307&#45;&#45;5308 -->
<g id="edge8" class="edge"><title>5307&#45;&#45;5308</title>
<path fill="none" stroke="black" d="M357,-215.697C357,-204.846 357,-190.917 357,-180.104"/>
</g>
<!-- 5310 -->
<g id="node11" class="node"><title>5310</title>
<polygon fill="#90347a" stroke="#90347a" points="337,-108 283,-108 283,-72 337,-72 337,-108"/>
<text text-anchor="middle" x="310" y="-86.3" font-family="Times New Roman,serif" font-size="14.00">5310</text>
</g>
<!-- 5307&#45;&#45;5310 -->
<g id="edge9" class="edge"><title>5307&#45;&#45;5310</title>
<path fill="none" stroke="black" d="M342.03,-215.555C334.455,-205.748 325.857,-192.91 321,-180 312.065,-156.248 310.048,-126.661 309.763,-108.299"/>
</g>
<!-- 5312 -->
<g id="node12" class="node"><title>5312</title>
<polygon fill="#857970" stroke="#857970" points="392,-36 338,-36 338,-0 392,-0 392,-36"/>
<text text-anchor="middle" x="365" y="-14.3" font-family="Times New Roman,serif" font-size="14.00">5312</text>
</g>
<!-- 5307&#45;&#45;5312 -->
<g id="edge10" class="edge"><title>5307&#45;&#45;5312</title>
<path fill="none" stroke="black" d="M372.61,-215.774C380.373,-206.03 388.946,-193.184 393,-180 408.677,-129.019 386.228,-66.0878 373.196,-36.2528"/>
</g>
<!-- 5308&#45;&#45;5310 -->
<g id="edge11" class="edge"><title>5308&#45;&#45;5310</title>
<path fill="none" stroke="black" d="M345.382,-143.697C338.097,-132.846 328.744,-118.917 321.484,-108.104"/>
</g>
<!-- 5308&#45;&#45;5312 -->
<g id="edge12" class="edge"><title>5308&#45;&#45;5312</title>
<path fill="none" stroke="black" d="M357.965,-143.871C359.503,-116.578 362.492,-63.5205 364.032,-36.1893"/>
</g>
<!-- 5310&#45;&#45;5312 -->
<g id="edge13" class="edge"><title>5310&#45;&#45;5312</title>
<path fill="none" stroke="black" d="M323.596,-71.6966C332.121,-60.8463 343.065,-46.9167 351.561,-36.1043"/>
</g>
</g>
</svg>
