<svg width="2689px" height="539px"
 viewBox="0.00 0.00 2016.57 404.00" xmlns="http://www.w3.org/2000/svg" xmlns:xlink="http://www.w3.org/1999/xlink">
<g id="graph0" class="graph" transform="scale(1.000022500562514 1.000022500562514) rotate(0) translate(4 400)">
<title>G</title>
<polygon fill="white" stroke="none" points="-4,4 -4,-400 2012.57,-400 2012.57,4 -4,4"/>
<!-- 127 -->
<g id="node1" class="node"><title>127</title>
<ellipse fill="none" stroke="black" cx="117.076" cy="-378" rx="27" ry="18"/>
<text text-anchor="middle" x="117.076" y="-374.3" font-family="Times New Roman,serif" font-size="14.00">127</text>
</g>
<!-- 128 -->
<g id="node2" class="node"><title>128</title>
<ellipse fill="none" stroke="black" cx="117.076" cy="-306" rx="27" ry="18"/>
<text text-anchor="middle" x="117.076" y="-302.3" font-family="Times New Roman,serif" font-size="14.00">128</text>
</g>
<!-- 127&#45;&#45;128 -->
<g id="edge1" class="edge"><title>127&#45;&#45;128</title>
<path fill="none" stroke="black" d="M117.076,-359.697C117.076,-348.846 117.076,-334.917 117.076,-324.104"/>
</g>
<!-- 130 -->
<g id="node3" class="node"><title>130</title>
<ellipse fill="none" stroke="black" cx="53.0763" cy="-234" rx="27" ry="18"/>
<text text-anchor="middle" x="53.0763" y="-230.3" font-family="Times New Roman,serif" font-size="14.00">130</text>
</g>
<!-- 127&#45;&#45;130 -->
<g id="edge2" class="edge"><title>127&#45;&#45;130</title>
<path fill="none" stroke="black" d="M90.8986,-372.828C64.1099,-367.012 23.8325,-353.626 5.07634,-324 -11.2632,-298.191 16.7836,-266.35 36.4276,-248.6"/>
</g>
<!-- 5822 -->
<g id="node4" class="node"><title>5822</title>
<ellipse fill="none" stroke="black" cx="117.076" cy="-162" rx="28.6953" ry="18"/>
<text text-anchor="middle" x="117.076" y="-158.3" font-family="Times New Roman,serif" font-size="14.00">5822</text>
</g>
<!-- 127&#45;&#45;5822 -->
<g id="edge3" class="edge"><title>127&#45;&#45;5822</title>
<path fill="none" stroke="black" d="M130.827,-362.069C139.037,-352.1 148.695,-338.247 153.076,-324 169.071,-271.985 141.493,-208.494 126.21,-179.214"/>
</g>
<!-- 128&#45;&#45;130 -->
<g id="edge4" class="edge"><title>128&#45;&#45;130</title>
<path fill="none" stroke="black" d="M103.504,-290.155C92.6426,-278.276 77.4854,-261.697 66.6295,-249.824"/>
</g>
<!-- 128&#45;&#45;5822 -->
<g id="edge5" class="edge"><title>128&#45;&#45;5822</title>
<path fill="none" stroke="black" d="M117.076,-287.871C117.076,-260.578 117.076,-207.52 117.076,-180.189"/>
</g>
<!-- 130&#45;&#45;5822 -->
<g id="edge6" class="edge"><title>130&#45;&#45;5822</title>
<path fill="none" stroke="black" d="M66.6491,-218.155C77.3633,-206.436 92.2584,-190.145 103.081,-178.308"/>
</g>
<!-- 1125 -->
<g id="node5" class="node"><title>1125</title>
<polygon fill="#4d5f51" stroke="#4d5f51" points="566.076,-396 512.076,-396 512.076,-360 566.076,-360 566.076,-396"/>
<text text-anchor="middle" x="539.076" y="-374.3" font-family="Times New Roman,serif" font-size="14.00">1125</text>
</g>
<!-- 1126 -->
<g id="node6" class="node"><title>1126</title>
<polygon fill="#4c4434" stroke="#4c4434" points="296.076,-324 242.076,-324 242.076,-288 296.076,-288 296.076,-324"/>
<text text-anchor="middle" x="269.076" y="-302.3" font-family="Times New Roman,serif" font-size="14.00">1126</text>
</g>
<!-- 1125&#45;&#45;1126 -->
<g id="edge7" class="edge"><title>1125&#45;&#45;1126</title>
<path fill="none" stroke="black" d="M511.891,-372.221C468.598,-364.274 381.578,-346.923 310.076,-324 305.527,-322.541 300.776,-320.792 296.189,-318.979"/>
</g>
<!-- 1128 -->
<g id="node7" class="node"><title>1128</title>
<polygon fill="#884a8f" stroke="#884a8f" points="488.076,-252 434.076,-252 434.076,-216 488.076,-216 488.076,-252"/>
<text text-anchor="middle" x="461.076" y="-230.3" font-family="Times New Roman,serif" font-size="14.00">1128</text>
</g>
<!-- 1125&#45;&#45;1128 -->
<g id="edge8" class="edge"><title>1125&#45;&#45;1128</title>
<path fill="none" stroke="black" d="M523.342,-359.769C514.81,-349.823 504.519,-336.784 497.076,-324 483.323,-300.377 472.416,-270.496 466.354,-252.069"/>
</g>
<!-- 1130 -->
<g id="node8" class="node"><title>1130</title>
<polygon fill="#688463" stroke="#688463" points="562.076,-180 508.076,-180 508.076,-144 562.076,-144 562.076,-180"/>
<text text-anchor="middle" x="535.076" y="-158.3" font-family="Times New Roman,serif" font-size="14.00">1130</text>
</g>
<!-- 1125&#45;&#45;1130 -->
<g id="edge9" class="edge"><title>1125&#45;&#45;1130</title>
<path fill="none" stroke="black" d="M535.423,-359.908C533.401,-349.569 531.096,-336.09 530.076,-324 525.683,-271.891 530.376,-210.003 533.225,-180.427"/>
</g>
<!-- 1132 -->
<g id="node9" class="node"><title>1132</title>
<polygon fill="#533d92" stroke="#533d92" points="456.076,-108 402.076,-108 402.076,-72 456.076,-72 456.076,-108"/>
<text text-anchor="middle" x="429.076" y="-86.3" font-family="Times New Roman,serif" font-size="14.00">1132</text>
</g>
<!-- 1125&#45;&#45;1132 -->
<g id="edge10" class="edge"><title>1125&#45;&#45;1132</title>
<path fill="none" stroke="black" d="M511.943,-369.075C467.219,-354.371 379.361,-318.176 343.076,-252 314.51,-199.9 373.923,-137.751 407.763,-108.222"/>
</g>
<!-- 1134 -->
<g id="node10" class="node"><title>1134</title>
<polygon fill="#948b44" stroke="#948b44" points="824.076,-36 770.076,-36 770.076,-0 824.076,-0 824.076,-36"/>
<text text-anchor="middle" x="797.076" y="-14.3" font-family="Times New Roman,serif" font-size="14.00">1134</text>
</g>
<!-- 1125&#45;&#45;1134 -->
<g id="edge11" class="edge"><title>1125&#45;&#45;1134</title>
<path fill="none" stroke="black" d="M566.493,-373.725C629.27,-364.542 778.076,-332.494 778.076,-235 778.076,-235 778.076,-235 778.076,-161 778.076,-115.732 787.68,-63.0581 793.231,-36.3884"/>
</g>
<!-- 3138 -->
<g id="node11" class="node"><title>3138</title>
<ellipse fill="none" stroke="black" cx="568.076" cy="-306" rx="28.6953" ry="18"/>
<text text-anchor="middle" x="568.076" y="-302.3" font-family="Times New Roman,serif" font-size="14.00">3138</text>
</g>
<!-- 1125&#45;&#45;3138 -->
<g id="edge12" class="edge"><title>1125&#45;&#45;3138</title>
<path fill="none" stroke="black" d="M546.245,-359.697C550.807,-348.684 556.683,-334.5 561.19,-323.622"/>
</g>
<!-- 10391 -->
<g id="node12" class="node"><title>10391</title>
<polygon fill="#646c3c" stroke="#646c3c" points="669.076,-324 615.076,-324 615.076,-288 669.076,-288 669.076,-324"/>
<text text-anchor="middle" x="642.076" y="-302.3" font-family="Times New Roman,serif" font-size="14.00">10391</text>
</g>
<!-- 1125&#45;&#45;10391 -->
<g id="edge13" class="edge"><title>1125&#45;&#45;10391</title>
<path fill="none" stroke="black" d="M564.273,-359.876C580.234,-349.029 600.803,-335.05 616.783,-324.19"/>
</g>
<!-- 10392 -->
<g id="node13" class="node"><title>10392</title>
<polygon fill="#69383e" stroke="#69383e" points="674.076,-252 620.076,-252 620.076,-216 674.076,-216 674.076,-252"/>
<text text-anchor="middle" x="647.076" y="-230.3" font-family="Times New Roman,serif" font-size="14.00">10392</text>
</g>
<!-- 1125&#45;&#45;10392 -->
<g id="edge14" class="edge"><title>1125&#45;&#45;10392</title>
<path fill="none" stroke="black" d="M566.298,-375.411C599.105,-371.865 652.948,-360.475 678.076,-324 693.393,-301.768 676.087,-271.222 661.849,-252.315"/>
</g>
<!-- 1126&#45;&#45;1128 -->
<g id="edge15" class="edge"><title>1126&#45;&#45;1128</title>
<path fill="none" stroke="black" d="M296.192,-296.818C327.583,-287.11 380.661,-269.964 425.076,-252 427.896,-250.86 430.809,-249.609 433.702,-248.32"/>
</g>
<!-- 1126&#45;&#45;1130 -->
<g id="edge16" class="edge"><title>1126&#45;&#45;1130</title>
<path fill="none" stroke="black" d="M278.802,-287.889C291.161,-267.695 314.376,-234.528 343.076,-216 395.225,-182.335 468.639,-169.823 507.858,-165.351"/>
</g>
<!-- 1126&#45;&#45;1132 -->
<g id="edge17" class="edge"><title>1126&#45;&#45;1132</title>
<path fill="none" stroke="black" d="M268.789,-287.782C269.163,-255.731 274.376,-186.336 310.076,-144 333.623,-116.078 374.82,-102.292 402.027,-95.9197"/>
</g>
<!-- 1126&#45;&#45;1134 -->
<g id="edge18" class="edge"><title>1126&#45;&#45;1134</title>
<path fill="none" stroke="black" d="M265.711,-287.863C260.509,-256.248 254.09,-187.969 285.076,-144 318.308,-96.8443 339.07,-92.2803 393.076,-72 527.843,-21.3929 703.64,-17.7524 770.076,-18.3877"/>
</g>
<!-- 1128&#45;&#45;1130 -->
<g id="edge19" class="edge"><title>1128&#45;&#45;1130</title>
<path fill="none" stroke="black" d="M479.368,-215.697C490.839,-204.846 505.564,-190.917 516.995,-180.104"/>
</g>
<!-- 1130&#45;&#45;1132 -->
<g id="edge20" class="edge"><title>1130&#45;&#45;1132</title>
<path fill="none" stroke="black" d="M509.146,-143.876C492.72,-133.029 471.552,-119.05 455.107,-108.19"/>
</g>
<!-- 1130&#45;&#45;1134 -->
<g id="edge21" class="edge"><title>1130&#45;&#45;1134</title>
<path fill="none" stroke="black" d="M562.128,-146.338C612.334,-119.128 719.389,-61.1052 769.779,-33.7946"/>
</g>
<!-- 1132&#45;&#45;1134 -->
<g id="edge22" class="edge"><title>1132&#45;&#45;1134</title>
<path fill="none" stroke="black" d="M456.136,-83.8527C524.191,-70.9076 701.88,-37.108 769.977,-24.1548"/>
</g>
<!-- 3138&#45;&#45;1130 -->
<g id="edge23" class="edge"><title>3138&#45;&#45;1130</title>
<path fill="none" stroke="black" d="M564.161,-288.153C557.844,-260.971 545.468,-207.717 539.089,-180.268"/>
</g>
<!-- 10391&#45;&#45;1130 -->
<g id="edge25" class="edge"><title>10391&#45;&#45;1130</title>
<path fill="none" stroke="black" d="M629.17,-287.871C608.604,-260.578 568.623,-207.52 548.029,-180.189"/>
</g>
<!-- 10391&#45;&#45;10392 -->
<g id="edge24" class="edge"><title>10391&#45;&#45;10392</title>
<path fill="none" stroke="black" d="M643.312,-287.697C644.087,-276.846 645.082,-262.917 645.855,-252.104"/>
</g>
<!-- 10392&#45;&#45;1130 -->
<g id="edge26" class="edge"><title>10392&#45;&#45;1130</title>
<path fill="none" stroke="black" d="M619.964,-216.055C602.485,-205.13 579.834,-190.973 562.327,-180.032"/>
</g>
<!-- 1135 -->
<g id="node14" class="node"><title>1135</title>
<polygon fill="#475b43" stroke="#475b43" points="860.076,-180 806.076,-180 806.076,-144 860.076,-144 860.076,-180"/>
<text text-anchor="middle" x="833.076" y="-158.3" font-family="Times New Roman,serif" font-size="14.00">1135</text>
</g>
<!-- 1135&#45;&#45;1134 -->
<g id="edge28" class="edge"><title>1135&#45;&#45;1134</title>
<path fill="none" stroke="black" d="M828.734,-143.871C821.815,-116.578 808.363,-63.5205 801.434,-36.1893"/>
</g>
<!-- 1136 -->
<g id="node15" class="node"><title>1136</title>
<polygon fill="#40624e" stroke="#40624e" points="898.076,-108 844.076,-108 844.076,-72 898.076,-72 898.076,-108"/>
<text text-anchor="middle" x="871.076" y="-86.3" font-family="Times New Roman,serif" font-size="14.00">1136</text>
</g>
<!-- 1135&#45;&#45;1136 -->
<g id="edge27" class="edge"><title>1135&#45;&#45;1136</title>
<path fill="none" stroke="black" d="M842.47,-143.697C848.36,-132.846 855.922,-118.917 861.791,-108.104"/>
</g>
<!-- 1136&#45;&#45;1134 -->
<g id="edge29" class="edge"><title>1136&#45;&#45;1134</title>
<path fill="none" stroke="black" d="M852.784,-71.6966C841.314,-60.8463 826.588,-46.9167 815.158,-36.1043"/>
</g>
<!-- 1149 -->
<g id="node16" class="node"><title>1149</title>
<ellipse fill="#688463" stroke="#688463" cx="721.076" cy="-234" rx="28.6953" ry="18"/>
<text text-anchor="middle" x="721.076" y="-230.3" font-family="Times New Roman,serif" font-size="14.00">1149</text>
</g>
<!-- 1149&#45;&#45;1130 -->
<g id="edge30" class="edge"><title>1149&#45;&#45;1130</title>
<path fill="none" stroke="black" d="M698.694,-222.644C693.592,-220.38 688.173,-218.049 683.076,-216 641.421,-199.253 592.189,-182.144 562.318,-172.054"/>
</g>
<!-- 2267 -->
<g id="node17" class="node"><title>2267</title>
<ellipse fill="none" stroke="black" cx="1055.08" cy="-378" rx="28.6953" ry="18"/>
<text text-anchor="middle" x="1055.08" y="-374.3" font-family="Times New Roman,serif" font-size="14.00">2267</text>
</g>
<!-- 2268 -->
<g id="node18" class="node"><title>2268</title>
<ellipse fill="none" stroke="black" cx="1055.08" cy="-306" rx="28.6953" ry="18"/>
<text text-anchor="middle" x="1055.08" y="-302.3" font-family="Times New Roman,serif" font-size="14.00">2268</text>
</g>
<!-- 2267&#45;&#45;2268 -->
<g id="edge31" class="edge"><title>2267&#45;&#45;2268</title>
<path fill="none" stroke="black" d="M1055.08,-359.697C1055.08,-348.846 1055.08,-334.917 1055.08,-324.104"/>
</g>
<!-- 2270 -->
<g id="node19" class="node"><title>2270</title>
<ellipse fill="none" stroke="black" cx="1008.08" cy="-234" rx="28.6953" ry="18"/>
<text text-anchor="middle" x="1008.08" y="-230.3" font-family="Times New Roman,serif" font-size="14.00">2270</text>
</g>
<!-- 2267&#45;&#45;2270 -->
<g id="edge32" class="edge"><title>2267&#45;&#45;2270</title>
<path fill="none" stroke="black" d="M1041.07,-362.031C1032.6,-352.048 1022.44,-338.191 1017.08,-324 1008.13,-300.321 1006.92,-270.714 1007.23,-252.328"/>
</g>
<!-- 2272 -->
<g id="node20" class="node"><title>2272</title>
<ellipse fill="none" stroke="black" cx="1065.08" cy="-162" rx="28.6953" ry="18"/>
<text text-anchor="middle" x="1065.08" y="-158.3" font-family="Times New Roman,serif" font-size="14.00">2272</text>
</g>
<!-- 2267&#45;&#45;2272 -->
<g id="edge33" class="edge"><title>2267&#45;&#45;2272</title>
<path fill="none" stroke="black" d="M1069.58,-362.203C1078.24,-352.288 1088.43,-338.444 1093.08,-324 1109.57,-272.681 1086.16,-208.853 1072.99,-179.353"/>
</g>
<!-- 2268&#45;&#45;2270 -->
<g id="edge34" class="edge"><title>2268&#45;&#45;2270</title>
<path fill="none" stroke="black" d="M1044.41,-289.116C1036.72,-277.66 1026.38,-262.263 1018.7,-250.821"/>
</g>
<!-- 2268&#45;&#45;2272 -->
<g id="edge35" class="edge"><title>2268&#45;&#45;2272</title>
<path fill="none" stroke="black" d="M1056.28,-287.871C1058.2,-260.578 1061.94,-207.52 1063.87,-180.189"/>
</g>
<!-- 2270&#45;&#45;2272 -->
<g id="edge36" class="edge"><title>2270&#45;&#45;2272</title>
<path fill="none" stroke="black" d="M1020.73,-217.465C1030.17,-205.865 1043.02,-190.082 1052.46,-178.492"/>
</g>
<!-- 3253 -->
<g id="node21" class="node"><title>3253</title>
<ellipse fill="none" stroke="black" cx="1169.08" cy="-378" rx="28.6953" ry="18"/>
<text text-anchor="middle" x="1169.08" y="-374.3" font-family="Times New Roman,serif" font-size="14.00">3253</text>
</g>
<!-- 3254 -->
<g id="node22" class="node"><title>3254</title>
<ellipse fill="none" stroke="black" cx="1169.08" cy="-306" rx="28.6953" ry="18"/>
<text text-anchor="middle" x="1169.08" y="-302.3" font-family="Times New Roman,serif" font-size="14.00">3254</text>
</g>
<!-- 3253&#45;&#45;3254 -->
<g id="edge37" class="edge"><title>3253&#45;&#45;3254</title>
<path fill="none" stroke="black" d="M1169.08,-359.697C1169.08,-348.846 1169.08,-334.917 1169.08,-324.104"/>
</g>
<!-- 3269 -->
<g id="node23" class="node"><title>3269</title>
<ellipse fill="#40624e" stroke="#40624e" cx="907.076" cy="-162" rx="28.6953" ry="18"/>
<text text-anchor="middle" x="907.076" y="-158.3" font-family="Times New Roman,serif" font-size="14.00">3269</text>
</g>
<!-- 3269&#45;&#45;1136 -->
<g id="edge38" class="edge"><title>3269&#45;&#45;1136</title>
<path fill="none" stroke="black" d="M898.727,-144.765C893.077,-133.779 885.626,-119.292 879.883,-108.124"/>
</g>
<!-- 4079 -->
<g id="node24" class="node"><title>4079</title>
<ellipse fill="none" stroke="black" cx="1244.08" cy="-378" rx="28.6953" ry="18"/>
<text text-anchor="middle" x="1244.08" y="-374.3" font-family="Times New Roman,serif" font-size="14.00">4079</text>
</g>
<!-- 4080 -->
<g id="node25" class="node"><title>4080</title>
<ellipse fill="none" stroke="black" cx="1244.08" cy="-306" rx="28.6953" ry="18"/>
<text text-anchor="middle" x="1244.08" y="-302.3" font-family="Times New Roman,serif" font-size="14.00">4080</text>
</g>
<!-- 4079&#45;&#45;4080 -->
<g id="edge39" class="edge"><title>4079&#45;&#45;4080</title>
<path fill="none" stroke="black" d="M1244.08,-359.697C1244.08,-348.846 1244.08,-334.917 1244.08,-324.104"/>
</g>
<!-- 4735 -->
<g id="node26" class="node"><title>4735</title>
<ellipse fill="none" stroke="black" cx="1319.08" cy="-378" rx="28.6953" ry="18"/>
<text text-anchor="middle" x="1319.08" y="-374.3" font-family="Times New Roman,serif" font-size="14.00">4735</text>
</g>
<!-- 4736 -->
<g id="node27" class="node"><title>4736</title>
<ellipse fill="none" stroke="black" cx="1319.08" cy="-306" rx="28.6953" ry="18"/>
<text text-anchor="middle" x="1319.08" y="-302.3" font-family="Times New Roman,serif" font-size="14.00">4736</text>
</g>
<!-- 4735&#45;&#45;4736 -->
<g id="edge40" class="edge"><title>4735&#45;&#45;4736</title>
<path fill="none" stroke="black" d="M1319.08,-359.697C1319.08,-348.846 1319.08,-334.917 1319.08,-324.104"/>
</g>
<!-- 5481 -->
<g id="node28" class="node"><title>5481</title>
<ellipse fill="none" stroke="black" cx="1394.08" cy="-378" rx="28.6953" ry="18"/>
<text text-anchor="middle" x="1394.08" y="-374.3" font-family="Times New Roman,serif" font-size="14.00">5481</text>
</g>
<!-- 5482 -->
<g id="node29" class="node"><title>5482</title>
<ellipse fill="none" stroke="black" cx="1394.08" cy="-306" rx="28.6953" ry="18"/>
<text text-anchor="middle" x="1394.08" y="-302.3" font-family="Times New Roman,serif" font-size="14.00">5482</text>
</g>
<!-- 5481&#45;&#45;5482 -->
<g id="edge41" class="edge"><title>5481&#45;&#45;5482</title>
<path fill="none" stroke="black" d="M1394.08,-359.697C1394.08,-348.846 1394.08,-334.917 1394.08,-324.104"/>
</g>
<!-- 5823 -->
<g id="node30" class="node"><title>5823</title>
<ellipse fill="none" stroke="black" cx="43.0763" cy="-306" rx="28.6953" ry="18"/>
<text text-anchor="middle" x="43.0763" y="-302.3" font-family="Times New Roman,serif" font-size="14.00">5823</text>
</g>
<!-- 5823&#45;&#45;130 -->
<g id="edge42" class="edge"><title>5823&#45;&#45;130</title>
<path fill="none" stroke="black" d="M45.4971,-288.055C47.0462,-277.211 49.0502,-263.183 50.6084,-252.275"/>
</g>
<!-- 7569 -->
<g id="node31" class="node"><title>7569</title>
<ellipse fill="none" stroke="black" cx="1469.08" cy="-378" rx="28.6953" ry="18"/>
<text text-anchor="middle" x="1469.08" y="-374.3" font-family="Times New Roman,serif" font-size="14.00">7569</text>
</g>
<!-- 7570 -->
<g id="node32" class="node"><title>7570</title>
<ellipse fill="none" stroke="black" cx="1469.08" cy="-306" rx="28.6953" ry="18"/>
<text text-anchor="middle" x="1469.08" y="-302.3" font-family="Times New Roman,serif" font-size="14.00">7570</text>
</g>
<!-- 7569&#45;&#45;7570 -->
<g id="edge43" class="edge"><title>7569&#45;&#45;7570</title>
<path fill="none" stroke="black" d="M1469.08,-359.697C1469.08,-348.846 1469.08,-334.917 1469.08,-324.104"/>
</g>
<!-- 7755 -->
<g id="node33" class="node"><title>7755</title>
<ellipse fill="none" stroke="black" cx="1544.08" cy="-378" rx="28.6953" ry="18"/>
<text text-anchor="middle" x="1544.08" y="-374.3" font-family="Times New Roman,serif" font-size="14.00">7755</text>
</g>
<!-- 7756 -->
<g id="node34" class="node"><title>7756</title>
<ellipse fill="none" stroke="black" cx="1544.08" cy="-306" rx="28.6953" ry="18"/>
<text text-anchor="middle" x="1544.08" y="-302.3" font-family="Times New Roman,serif" font-size="14.00">7756</text>
</g>
<!-- 7755&#45;&#45;7756 -->
<g id="edge44" class="edge"><title>7755&#45;&#45;7756</title>
<path fill="none" stroke="black" d="M1544.08,-359.697C1544.08,-348.846 1544.08,-334.917 1544.08,-324.104"/>
</g>
<!-- 7783 -->
<g id="node35" class="node"><title>7783</title>
<ellipse fill="none" stroke="black" cx="1619.08" cy="-378" rx="28.6953" ry="18"/>
<text text-anchor="middle" x="1619.08" y="-374.3" font-family="Times New Roman,serif" font-size="14.00">7783</text>
</g>
<!-- 7784 -->
<g id="node36" class="node"><title>7784</title>
<ellipse fill="none" stroke="black" cx="1619.08" cy="-306" rx="28.6953" ry="18"/>
<text text-anchor="middle" x="1619.08" y="-302.3" font-family="Times New Roman,serif" font-size="14.00">7784</text>
</g>
<!-- 7783&#45;&#45;7784 -->
<g id="edge45" class="edge"><title>7783&#45;&#45;7784</title>
<path fill="none" stroke="black" d="M1619.08,-359.697C1619.08,-348.846 1619.08,-334.917 1619.08,-324.104"/>
</g>
<!-- 9607 -->
<g id="node37" class="node"><title>9607</title>
<ellipse fill="#4c4434" stroke="#4c4434" cx="269.076" cy="-378" rx="28.6953" ry="18"/>
<text text-anchor="middle" x="269.076" y="-374.3" font-family="Times New Roman,serif" font-size="14.00">9607</text>
</g>
<!-- 9607&#45;&#45;1126 -->
<g id="edge46" class="edge"><title>9607&#45;&#45;1126</title>
<path fill="none" stroke="black" d="M269.076,-359.697C269.076,-348.846 269.076,-334.917 269.076,-324.104"/>
</g>
<!-- 10405 -->
<g id="node38" class="node"><title>10405</title>
<ellipse fill="#948b44" stroke="#948b44" cx="986.076" cy="-162" rx="32.4942" ry="18"/>
<text text-anchor="middle" x="986.076" y="-158.3" font-family="Times New Roman,serif" font-size="14.00">10405</text>
</g>
<!-- 10405&#45;&#45;1134 -->
<g id="edge48" class="edge"><title>10405&#45;&#45;1134</title>
<path fill="none" stroke="black" d="M973.246,-145.089C954.942,-122.655 921.914,-83.2075 907.076,-72 881.535,-52.7068 847.853,-37.734 824.521,-28.6973"/>
</g>
<!-- 10406 -->
<g id="node39" class="node"><title>10406</title>
<ellipse fill="#948b44" stroke="#948b44" cx="986.076" cy="-90" rx="32.4942" ry="18"/>
<text text-anchor="middle" x="986.076" y="-86.3" font-family="Times New Roman,serif" font-size="14.00">10406</text>
</g>
<!-- 10405&#45;&#45;10406 -->
<g id="edge47" class="edge"><title>10405&#45;&#45;10406</title>
<path fill="none" stroke="black" d="M986.076,-143.697C986.076,-132.846 986.076,-118.917 986.076,-108.104"/>
</g>
<!-- 10406&#45;&#45;1134 -->
<g id="edge49" class="edge"><title>10406&#45;&#45;1134</title>
<path fill="none" stroke="black" d="M959.797,-79.2668C924.093,-66.0434 860.571,-42.5167 824.357,-29.1038"/>
</g>
<!-- 10645 -->
<g id="node40" class="node"><title>10645</title>
<ellipse fill="none" stroke="black" cx="1728.08" cy="-378" rx="32.4942" ry="18"/>
<text text-anchor="middle" x="1728.08" y="-374.3" font-family="Times New Roman,serif" font-size="14.00">10645</text>
</g>
<!-- 10646 -->
<g id="node41" class="node"><title>10646</title>
<ellipse fill="none" stroke="black" cx="1698.08" cy="-306" rx="32.4942" ry="18"/>
<text text-anchor="middle" x="1698.08" y="-302.3" font-family="Times New Roman,serif" font-size="14.00">10646</text>
</g>
<!-- 10645&#45;&#45;10646 -->
<g id="edge50" class="edge"><title>10645&#45;&#45;10646</title>
<path fill="none" stroke="black" d="M1720.97,-360.411C1716.25,-349.414 1710.09,-335.027 1705.34,-323.956"/>
</g>
<!-- 10648 -->
<g id="node42" class="node"><title>10648</title>
<ellipse fill="none" stroke="black" cx="1717.08" cy="-234" rx="32.4942" ry="18"/>
<text text-anchor="middle" x="1717.08" y="-230.3" font-family="Times New Roman,serif" font-size="14.00">10648</text>
</g>
<!-- 10645&#45;&#45;10648 -->
<g id="edge51" class="edge"><title>10645&#45;&#45;10648</title>
<path fill="none" stroke="black" d="M1733.34,-360.151C1738.22,-342.164 1744.04,-312.888 1739.08,-288 1736.54,-275.298 1730.91,-261.83 1725.98,-251.648"/>
</g>
<!-- 10646&#45;&#45;10648 -->
<g id="edge52" class="edge"><title>10646&#45;&#45;10648</title>
<path fill="none" stroke="black" d="M1702.68,-288.055C1705.62,-277.211 1709.43,-263.183 1712.39,-252.275"/>
</g>
<!-- 10863 -->
<g id="node43" class="node"><title>10863</title>
<ellipse fill="#688463" stroke="#688463" cx="384.076" cy="-234" rx="32.4942" ry="18"/>
<text text-anchor="middle" x="384.076" y="-230.3" font-family="Times New Roman,serif" font-size="14.00">10863</text>
</g>
<!-- 10863&#45;&#45;1130 -->
<g id="edge53" class="edge"><title>10863&#45;&#45;1130</title>
<path fill="none" stroke="black" d="M408.337,-221.753C435.598,-209.116 479.735,-188.655 508.071,-175.519"/>
</g>
<!-- 11133 -->
<g id="node44" class="node"><title>11133</title>
<ellipse fill="none" stroke="black" cx="1886.08" cy="-378" rx="32.4942" ry="18"/>
<text text-anchor="middle" x="1886.08" y="-374.3" font-family="Times New Roman,serif" font-size="14.00">11133</text>
</g>
<!-- 11134 -->
<g id="node45" class="node"><title>11134</title>
<ellipse fill="none" stroke="black" cx="1916.08" cy="-306" rx="32.4942" ry="18"/>
<text text-anchor="middle" x="1916.08" y="-302.3" font-family="Times New Roman,serif" font-size="14.00">11134</text>
</g>
<!-- 11133&#45;&#45;11134 -->
<g id="edge54" class="edge"><title>11133&#45;&#45;11134</title>
<path fill="none" stroke="black" d="M1893.19,-360.411C1897.9,-349.414 1904.06,-335.027 1908.81,-323.956"/>
</g>
<!-- 11136 -->
<g id="node46" class="node"><title>11136</title>
<ellipse fill="none" stroke="black" cx="1856.08" cy="-234" rx="32.4942" ry="18"/>
<text text-anchor="middle" x="1856.08" y="-230.3" font-family="Times New Roman,serif" font-size="14.00">11136</text>
</g>
<!-- 11133&#45;&#45;11136 -->
<g id="edge55" class="edge"><title>11133&#45;&#45;11136</title>
<path fill="none" stroke="black" d="M1882.46,-359.871C1876.69,-332.578 1865.48,-279.52 1859.71,-252.189"/>
</g>
<!-- 11138 -->
<g id="node47" class="node"><title>11138</title>
<ellipse fill="none" stroke="black" cx="1976.08" cy="-162" rx="32.4942" ry="18"/>
<text text-anchor="middle" x="1976.08" y="-158.3" font-family="Times New Roman,serif" font-size="14.00">11138</text>
</g>
<!-- 11133&#45;&#45;11138 -->
<g id="edge56" class="edge"><title>11133&#45;&#45;11138</title>
<path fill="none" stroke="black" d="M1909.97,-365.704C1926.09,-356.753 1946.31,-342.651 1957.08,-324 1983.81,-277.686 1981.33,-211.434 1978.27,-180.351"/>
</g>
<!-- 11140 -->
<g id="node48" class="node"><title>11140</title>
<ellipse fill="none" stroke="black" cx="1891.08" cy="-90" rx="32.4942" ry="18"/>
<text text-anchor="middle" x="1891.08" y="-86.3" font-family="Times New Roman,serif" font-size="14.00">11140</text>
</g>
<!-- 11133&#45;&#45;11140 -->
<g id="edge57" class="edge"><title>11133&#45;&#45;11140</title>
<path fill="none" stroke="black" d="M1871.23,-361.559C1846.11,-333.504 1799.42,-271.891 1815.08,-216 1827.27,-172.468 1859.25,-129.04 1877.61,-106.618"/>
</g>
<!-- 11134&#45;&#45;11136 -->
<g id="edge58" class="edge"><title>11134&#45;&#45;11136</title>
<path fill="none" stroke="black" d="M1902.76,-289.465C1892.82,-277.865 1879.29,-262.082 1869.36,-250.492"/>
</g>
<!-- 11134&#45;&#45;11138 -->
<g id="edge59" class="edge"><title>11134&#45;&#45;11138</title>
<path fill="none" stroke="black" d="M1923.19,-288.153C1934.74,-260.824 1957.43,-207.14 1968.97,-179.825"/>
</g>
<!-- 11134&#45;&#45;11140 -->
<g id="edge60" class="edge"><title>11134&#45;&#45;11140</title>
<path fill="none" stroke="black" d="M1914.07,-287.849C1909.39,-247.78 1897.78,-148.383 1893.09,-108.232"/>
</g>
<!-- 11136&#45;&#45;11138 -->
<g id="edge61" class="edge"><title>11136&#45;&#45;11138</title>
<path fill="none" stroke="black" d="M1877.81,-220.324C1899.56,-207.637 1932.82,-188.235 1954.51,-175.582"/>
</g>
<!-- 11136&#45;&#45;11140 -->
<g id="edge62" class="edge"><title>11136&#45;&#45;11140</title>
<path fill="none" stroke="black" d="M1860.3,-215.871C1867.03,-188.578 1880.1,-135.52 1886.84,-108.189"/>
</g>
<!-- 11138&#45;&#45;11140 -->
<g id="edge63" class="edge"><title>11138&#45;&#45;11140</title>
<path fill="none" stroke="black" d="M1958.46,-146.496C1943.78,-134.402 1922.97,-117.267 1908.38,-105.246"/>
</g>
</g>
</svg>
