<svg width="972px" height="443px"
 viewBox="0.00 0.00 728.79 332.00" xmlns="http://www.w3.org/2000/svg" xmlns:xlink="http://www.w3.org/1999/xlink">
<g id="graph0" class="graph" transform="scale(1.000022500562514 1.000022500562514) rotate(0) translate(4 328)">
<title>G</title>
<polygon fill="white" stroke="none" points="-4,4 -4,-328 724.795,-328 724.795,4 -4,4"/>
<!-- 1449 -->
<g id="node1" class="node"><title>1449</title>
<ellipse fill="cyan" stroke="cyan" cx="32.768" cy="-306" rx="28.6953" ry="18"/>
<text text-anchor="middle" x="32.768" y="-302.3" font-family="Times New Roman,serif" font-size="14.00">1449</text>
</g>
<!-- 1450 -->
<g id="node2" class="node"><title>1450</title>
<ellipse fill="cyan" stroke="cyan" cx="43.768" cy="-162" rx="28.6953" ry="18"/>
<text text-anchor="middle" x="43.768" y="-158.3" font-family="Times New Roman,serif" font-size="14.00">1450</text>
</g>
<!-- 1449&#45;&#45;1450 -->
<g id="edge1" class="edge"><title>1449&#45;&#45;1450</title>
<path fill="none" stroke="black" d="M34.0949,-287.871C36.2091,-260.578 40.3192,-207.52 42.4364,-180.189"/>
</g>
<!-- 1452 -->
<g id="node3" class="node"><title>1452</title>
<ellipse fill="cyan" stroke="cyan" cx="43.768" cy="-90" rx="28.6953" ry="18"/>
<text text-anchor="middle" x="43.768" y="-86.3" font-family="Times New Roman,serif" font-size="14.00">1452</text>
</g>
<!-- 1449&#45;&#45;1452 -->
<g id="edge2" class="edge"><title>1449&#45;&#45;1452</title>
<path fill="none" stroke="black" d="M25.0235,-288.637C12.1436,-259.12 -10.7113,-195.266 5.768,-144 10.4109,-129.556 20.6048,-115.712 29.2663,-105.797"/>
</g>
<!-- 10132 -->
<g id="node4" class="node"><title>10132</title>
<ellipse fill="cyan" stroke="cyan" cx="92.768" cy="-234" rx="32.4942" ry="18"/>
<text text-anchor="middle" x="92.768" y="-230.3" font-family="Times New Roman,serif" font-size="14.00">10132</text>
</g>
<!-- 1449&#45;&#45;10132 -->
<g id="edge3" class="edge"><title>1449&#45;&#45;10132</title>
<path fill="none" stroke="black" d="M45.7871,-289.811C55.7133,-278.231 69.3375,-262.336 79.3589,-250.644"/>
</g>
<!-- 1450&#45;&#45;1452 -->
<g id="edge4" class="edge"><title>1450&#45;&#45;1452</title>
<path fill="none" stroke="black" d="M43.768,-143.697C43.768,-132.846 43.768,-118.917 43.768,-108.104"/>
</g>
<!-- 10132&#45;&#45;1450 -->
<g id="edge5" class="edge"><title>10132&#45;&#45;1450</title>
<path fill="none" stroke="black" d="M81.4033,-216.765C73.3741,-205.294 62.6727,-190.007 54.7341,-178.666"/>
</g>
<!-- 10132&#45;&#45;1452 -->
<g id="edge6" class="edge"><title>10132&#45;&#45;1452</title>
<path fill="none" stroke="black" d="M93.1276,-215.993C92.9615,-197.619 91.0607,-167.782 81.768,-144 76.2464,-129.869 66.0937,-116.01 57.671,-106.01"/>
</g>
<!-- 6715 -->
<g id="node5" class="node"><title>6715</title>
<ellipse fill="none" stroke="black" cx="171.768" cy="-306" rx="28.6953" ry="18"/>
<text text-anchor="middle" x="171.768" y="-302.3" font-family="Times New Roman,serif" font-size="14.00">6715</text>
</g>
<!-- 6716 -->
<g id="node6" class="node"><title>6716</title>
<ellipse fill="none" stroke="black" cx="171.768" cy="-234" rx="28.6953" ry="18"/>
<text text-anchor="middle" x="171.768" y="-230.3" font-family="Times New Roman,serif" font-size="14.00">6716</text>
</g>
<!-- 6715&#45;&#45;6716 -->
<g id="edge7" class="edge"><title>6715&#45;&#45;6716</title>
<path fill="none" stroke="black" d="M171.768,-287.697C171.768,-276.846 171.768,-262.917 171.768,-252.104"/>
</g>
<!-- 7847 -->
<g id="node7" class="node"><title>7847</title>
<ellipse fill="none" stroke="black" cx="246.768" cy="-306" rx="28.6953" ry="18"/>
<text text-anchor="middle" x="246.768" y="-302.3" font-family="Times New Roman,serif" font-size="14.00">7847</text>
</g>
<!-- 7848 -->
<g id="node8" class="node"><title>7848</title>
<ellipse fill="none" stroke="black" cx="246.768" cy="-234" rx="28.6953" ry="18"/>
<text text-anchor="middle" x="246.768" y="-230.3" font-family="Times New Roman,serif" font-size="14.00">7848</text>
</g>
<!-- 7847&#45;&#45;7848 -->
<g id="edge8" class="edge"><title>7847&#45;&#45;7848</title>
<path fill="none" stroke="black" d="M246.768,-287.697C246.768,-276.846 246.768,-262.917 246.768,-252.104"/>
</g>
<!-- 9769 -->
<g id="node9" class="node"><title>9769</title>
<ellipse fill="cyan" stroke="cyan" cx="388.768" cy="-306" rx="28.6953" ry="18"/>
<text text-anchor="middle" x="388.768" y="-302.3" font-family="Times New Roman,serif" font-size="14.00">9769</text>
</g>
<!-- 9770 -->
<g id="node10" class="node"><title>9770</title>
<ellipse fill="cyan" stroke="cyan" cx="417.768" cy="-234" rx="28.6953" ry="18"/>
<text text-anchor="middle" x="417.768" y="-230.3" font-family="Times New Roman,serif" font-size="14.00">9770</text>
</g>
<!-- 9769&#45;&#45;9770 -->
<g id="edge9" class="edge"><title>9769&#45;&#45;9770</title>
<path fill="none" stroke="black" d="M395.641,-288.411C400.196,-277.414 406.157,-263.027 410.743,-251.956"/>
</g>
<!-- 9772 -->
<g id="node11" class="node"><title>9772</title>
<ellipse fill="cyan" stroke="cyan" cx="360.768" cy="-162" rx="28.6953" ry="18"/>
<text text-anchor="middle" x="360.768" y="-158.3" font-family="Times New Roman,serif" font-size="14.00">9772</text>
</g>
<!-- 9769&#45;&#45;9772 -->
<g id="edge10" class="edge"><title>9769&#45;&#45;9772</title>
<path fill="none" stroke="black" d="M385.391,-287.871C380.009,-260.578 369.547,-207.52 364.157,-180.189"/>
</g>
<!-- 9774 -->
<g id="node12" class="node"><title>9774</title>
<ellipse fill="cyan" stroke="cyan" cx="474.768" cy="-90" rx="28.6953" ry="18"/>
<text text-anchor="middle" x="474.768" y="-86.3" font-family="Times New Roman,serif" font-size="14.00">9774</text>
</g>
<!-- 9769&#45;&#45;9774 -->
<g id="edge11" class="edge"><title>9769&#45;&#45;9774</title>
<path fill="none" stroke="black" d="M410.36,-293.959C425.73,-284.883 445.424,-270.515 455.768,-252 481.851,-205.316 479.683,-139.243 476.831,-108.277"/>
</g>
<!-- 9776 -->
<g id="node13" class="node"><title>9776</title>
<ellipse fill="cyan" stroke="cyan" cx="393.768" cy="-18" rx="28.6953" ry="18"/>
<text text-anchor="middle" x="393.768" y="-14.3" font-family="Times New Roman,serif" font-size="14.00">9776</text>
</g>
<!-- 9769&#45;&#45;9776 -->
<g id="edge12" class="edge"><title>9769&#45;&#45;9776</title>
<path fill="none" stroke="black" d="M375.314,-289.922C352.024,-261.95 308.031,-199.785 322.768,-144 334.179,-100.807 364.345,-56.9036 381.459,-34.4003"/>
</g>
<!-- 9770&#45;&#45;9772 -->
<g id="edge13" class="edge"><title>9770&#45;&#45;9772</title>
<path fill="none" stroke="black" d="M405.118,-217.465C395.672,-205.865 382.82,-190.082 373.383,-178.492"/>
</g>
<!-- 9770&#45;&#45;9774 -->
<g id="edge14" class="edge"><title>9770&#45;&#45;9774</title>
<path fill="none" stroke="black" d="M424.418,-216.433C435.343,-189.217 456.972,-135.334 467.983,-107.902"/>
</g>
<!-- 9770&#45;&#45;9776 -->
<g id="edge15" class="edge"><title>9770&#45;&#45;9776</title>
<path fill="none" stroke="black" d="M415.845,-215.849C411.351,-175.78 400.203,-76.3826 395.701,-36.2325"/>
</g>
<!-- 9772&#45;&#45;9774 -->
<g id="edge16" class="edge"><title>9772&#45;&#45;9774</title>
<path fill="none" stroke="black" d="M380.625,-148.807C401.422,-136.037 433.902,-116.093 454.756,-103.288"/>
</g>
<!-- 9772&#45;&#45;9776 -->
<g id="edge17" class="edge"><title>9772&#45;&#45;9776</title>
<path fill="none" stroke="black" d="M364.683,-144.153C371,-116.971 383.376,-63.7165 389.755,-36.2678"/>
</g>
<!-- 9774&#45;&#45;9776 -->
<g id="edge18" class="edge"><title>9774&#45;&#45;9776</title>
<path fill="none" stroke="black" d="M458.376,-74.8345C444.231,-62.6099 423.916,-45.0538 409.859,-32.9056"/>
</g>
<!-- 10795 -->
<g id="node14" class="node"><title>10795</title>
<ellipse fill="none" stroke="black" cx="553.768" cy="-306" rx="32.4942" ry="18"/>
<text text-anchor="middle" x="553.768" y="-302.3" font-family="Times New Roman,serif" font-size="14.00">10795</text>
</g>
<!-- 10796 -->
<g id="node15" class="node"><title>10796</title>
<ellipse fill="none" stroke="black" cx="553.768" cy="-234" rx="32.4942" ry="18"/>
<text text-anchor="middle" x="553.768" y="-230.3" font-family="Times New Roman,serif" font-size="14.00">10796</text>
</g>
<!-- 10795&#45;&#45;10796 -->
<g id="edge19" class="edge"><title>10795&#45;&#45;10796</title>
<path fill="none" stroke="black" d="M553.768,-287.697C553.768,-276.846 553.768,-262.917 553.768,-252.104"/>
</g>
<!-- 12149 -->
<g id="node16" class="node"><title>12149</title>
<ellipse fill="none" stroke="black" cx="673.768" cy="-306" rx="32.4942" ry="18"/>
<text text-anchor="middle" x="673.768" y="-302.3" font-family="Times New Roman,serif" font-size="14.00">12149</text>
</g>
<!-- 12150 -->
<g id="node17" class="node"><title>12150</title>
<ellipse fill="none" stroke="black" cx="673.768" cy="-234" rx="32.4942" ry="18"/>
<text text-anchor="middle" x="673.768" y="-230.3" font-family="Times New Roman,serif" font-size="14.00">12150</text>
</g>
<!-- 12149&#45;&#45;12150 -->
<g id="edge20" class="edge"><title>12149&#45;&#45;12150</title>
<path fill="none" stroke="black" d="M673.768,-287.697C673.768,-276.846 673.768,-262.917 673.768,-252.104"/>
</g>
<!-- 12152 -->
<g id="node18" class="node"><title>12152</title>
<ellipse fill="cyan" stroke="cyan" cx="624.768" cy="-162" rx="32.4942" ry="18"/>
<text text-anchor="middle" x="624.768" y="-158.3" font-family="Times New Roman,serif" font-size="14.00">12152</text>
</g>
<!-- 12149&#45;&#45;12152 -->
<g id="edge21" class="edge"><title>12149&#45;&#45;12152</title>
<path fill="none" stroke="black" d="M658.178,-289.803C649.104,-279.939 638.379,-266.294 632.768,-252 623.472,-228.317 622.803,-198.452 623.523,-180.045"/>
</g>
<!-- 12154 -->
<g id="node19" class="node"><title>12154</title>
<ellipse fill="none" stroke="black" cx="684.768" cy="-90" rx="32.4942" ry="18"/>
<text text-anchor="middle" x="684.768" y="-86.3" font-family="Times New Roman,serif" font-size="14.00">12154</text>
</g>
<!-- 12149&#45;&#45;12154 -->
<g id="edge22" class="edge"><title>12149&#45;&#45;12154</title>
<path fill="none" stroke="black" d="M689.813,-289.97C699.058,-280.168 709.803,-266.531 714.768,-252 732.233,-200.879 707.248,-136.955 693.204,-107.392"/>
</g>
<!-- 12150&#45;&#45;12152 -->
<g id="edge23" class="edge"><title>12150&#45;&#45;12152</title>
<path fill="none" stroke="black" d="M662.403,-216.765C654.487,-205.456 643.974,-190.437 636.071,-179.147"/>
</g>
<!-- 12150&#45;&#45;12154 -->
<g id="edge24" class="edge"><title>12150&#45;&#45;12154</title>
<path fill="none" stroke="black" d="M675.095,-215.871C677.209,-188.578 681.319,-135.52 683.436,-108.189"/>
</g>
<!-- 12152&#45;&#45;12154 -->
<g id="edge25" class="edge"><title>12152&#45;&#45;12154</title>
<path fill="none" stroke="black" d="M638.084,-145.465C648.027,-133.865 661.555,-118.082 671.489,-106.492"/>
</g>
</g>
</svg>
