<svg width="4282px" height="827px"
 viewBox="0.00 0.00 3211.50 620.00" xmlns="http://www.w3.org/2000/svg" xmlns:xlink="http://www.w3.org/1999/xlink">
<g id="graph0" class="graph" transform="scale(1.000022500562514 1.000022500562514) rotate(0) translate(4 616)">
<title>G</title>
<polygon fill="white" stroke="none" points="-4,4 -4,-616 3207.5,-616 3207.5,4 -4,4"/>
<!-- 145 -->
<g id="node1" class="node"><title>145</title>
<ellipse fill="#71554e" stroke="#71554e" cx="143" cy="-594" rx="27" ry="18"/>
<text text-anchor="middle" x="143" y="-590.3" font-family="Times New Roman,serif" font-size="14.00">145</text>
</g>
<!-- 146 -->
<g id="node2" class="node"><title>146</title>
<polygon fill="#924191" stroke="#924191" points="217,-540 163,-540 163,-504 217,-504 217,-540"/>
<text text-anchor="middle" x="190" y="-518.3" font-family="Times New Roman,serif" font-size="14.00">146</text>
</g>
<!-- 145&#45;&#45;146 -->
<g id="edge1" class="edge"><title>145&#45;&#45;146</title>
<path fill="none" stroke="black" d="M153.665,-577.116C161.032,-566.144 170.826,-551.557 178.39,-540.292"/>
</g>
<!-- 148 -->
<g id="node3" class="node"><title>148</title>
<ellipse fill="none" stroke="black" cx="97" cy="-450" rx="27" ry="18"/>
<text text-anchor="middle" x="97" y="-446.3" font-family="Times New Roman,serif" font-size="14.00">148</text>
</g>
<!-- 145&#45;&#45;148 -->
<g id="edge2" class="edge"><title>145&#45;&#45;148</title>
<path fill="none" stroke="black" d="M137.543,-576.153C128.689,-548.824 111.299,-495.14 102.45,-467.825"/>
</g>
<!-- 150 -->
<g id="node4" class="node"><title>150</title>
<ellipse fill="none" stroke="black" cx="245" cy="-378" rx="27" ry="18"/>
<text text-anchor="middle" x="245" y="-374.3" font-family="Times New Roman,serif" font-size="14.00">150</text>
</g>
<!-- 145&#45;&#45;150 -->
<g id="edge3" class="edge"><title>145&#45;&#45;150</title>
<path fill="none" stroke="black" d="M166.514,-584.605C185.874,-576.382 212.287,-561.873 226,-540 254.555,-494.453 251.077,-427.249 247.47,-396.058"/>
</g>
<!-- 152 -->
<g id="node5" class="node"><title>152</title>
<ellipse fill="#71554e" stroke="#71554e" cx="131" cy="-306" rx="27" ry="18"/>
<text text-anchor="middle" x="131" y="-302.3" font-family="Times New Roman,serif" font-size="14.00">152</text>
</g>
<!-- 145&#45;&#45;152 -->
<g id="edge4" class="edge"><title>145&#45;&#45;152</title>
<path fill="none" stroke="black" d="M129.146,-578.326C109.479,-556.376 74.372,-512.763 61,-468 44.2499,-411.929 91.9999,-349.402 116.922,-321.643"/>
</g>
<!-- 154 -->
<g id="node6" class="node"><title>154</title>
<polygon fill="#71554e" stroke="#71554e" points="185,-252 131,-252 131,-216 185,-216 185,-252"/>
<text text-anchor="middle" x="158" y="-230.3" font-family="Times New Roman,serif" font-size="14.00">154</text>
</g>
<!-- 145&#45;&#45;154 -->
<g id="edge5" class="edge"><title>145&#45;&#45;154</title>
<path fill="none" stroke="black" d="M120.97,-583.555C80.857,-564.704 0,-518.35 0,-451 0,-451 0,-451 0,-377 0,-307.48 85.6643,-263.349 130.839,-244.911"/>
</g>
<!-- 5328 -->
<g id="node8" class="node"><title>5328</title>
<ellipse fill="none" stroke="black" cx="319" cy="-306" rx="28.6953" ry="18"/>
<text text-anchor="middle" x="319" y="-302.3" font-family="Times New Roman,serif" font-size="14.00">5328</text>
</g>
<!-- 145&#45;&#45;5328 -->
<g id="edge6" class="edge"><title>145&#45;&#45;5328</title>
<path fill="none" stroke="black" d="M167.401,-586.293C190.958,-578.662 226.177,-564.039 248,-540 305.985,-476.127 316.642,-366.094 318.579,-324.029"/>
</g>
<!-- 146&#45;&#45;148 -->
<g id="edge7" class="edge"><title>146&#45;&#45;148</title>
<path fill="none" stroke="black" d="M167.011,-503.697C150.659,-491.389 129.044,-475.119 114.18,-463.931"/>
</g>
<!-- 146&#45;&#45;150 -->
<g id="edge8" class="edge"><title>146&#45;&#45;150</title>
<path fill="none" stroke="black" d="M196.634,-503.871C207.263,-476.431 227.979,-422.946 238.513,-395.748"/>
</g>
<!-- 146&#45;&#45;152 -->
<g id="edge9" class="edge"><title>146&#45;&#45;152</title>
<path fill="none" stroke="black" d="M185.272,-503.849C174.197,-463.68 146.685,-363.89 135.669,-323.935"/>
</g>
<!-- 146&#45;&#45;154 -->
<g id="edge10" class="edge"><title>146&#45;&#45;154</title>
<path fill="none" stroke="black" d="M188.731,-503.997C185.765,-465.463 177.805,-368.575 167,-288 165.387,-275.975 163.092,-262.495 161.223,-252.14"/>
</g>
<!-- 6156 -->
<g id="node7" class="node"><title>6156</title>
<ellipse fill="#924191" stroke="#924191" cx="319" cy="-234" rx="28.6953" ry="18"/>
<text text-anchor="middle" x="319" y="-230.3" font-family="Times New Roman,serif" font-size="14.00">6156</text>
</g>
<!-- 146&#45;&#45;6156 -->
<g id="edge12" class="edge"><title>146&#45;&#45;6156</title>
<path fill="none" stroke="black" d="M216.615,-503.976C230.451,-494.386 247.114,-481.619 260,-468 313.036,-411.949 334.462,-397.801 357,-324 361.673,-308.698 361.896,-303.232 357,-288 352.357,-273.556 342.163,-259.712 333.502,-249.797"/>
</g>
<!-- 146&#45;&#45;5328 -->
<g id="edge11" class="edge"><title>146&#45;&#45;5328</title>
<path fill="none" stroke="black" d="M204.325,-503.581C212.6,-493.359 223.1,-480.109 232,-468 254.924,-436.811 262.424,-429.959 281,-396 294.223,-371.827 306.099,-342.1 312.928,-323.856"/>
</g>
<!-- 148&#45;&#45;150 -->
<g id="edge13" class="edge"><title>148&#45;&#45;150</title>
<path fill="none" stroke="black" d="M118.52,-438.821C146.58,-425.55 195.381,-402.468 223.454,-389.191"/>
</g>
<!-- 148&#45;&#45;152 -->
<g id="edge14" class="edge"><title>148&#45;&#45;152</title>
<path fill="none" stroke="black" d="M101.034,-432.153C107.577,-404.824 120.431,-351.14 126.971,-323.825"/>
</g>
<!-- 148&#45;&#45;154 -->
<g id="edge15" class="edge"><title>148&#45;&#45;154</title>
<path fill="none" stroke="black" d="M92.2001,-432.015C84.5438,-401.513 72.5846,-336.15 95,-288 102.48,-271.932 117.495,-258.995 130.99,-249.926"/>
</g>
<!-- 150&#45;&#45;152 -->
<g id="edge16" class="edge"><title>150&#45;&#45;152</title>
<path fill="none" stroke="black" d="M225.661,-365.125C204.698,-352.253 171.434,-331.828 150.433,-318.933"/>
</g>
<!-- 150&#45;&#45;154 -->
<g id="edge17" class="edge"><title>150&#45;&#45;154</title>
<path fill="none" stroke="black" d="M237.82,-360.38C229.639,-342.081 215.395,-312.065 200,-288 191.902,-275.341 181.402,-262.091 172.926,-252.006"/>
</g>
<!-- 150&#45;&#45;6156 -->
<g id="edge18" class="edge"><title>150&#45;&#45;6156</title>
<path fill="none" stroke="black" d="M250.499,-360.057C256.751,-341.737 267.818,-311.946 281,-288 288.316,-274.709 298.385,-260.811 306.32,-250.583"/>
</g>
<!-- 150&#45;&#45;5328 -->
<g id="edge19" class="edge"><title>150&#45;&#45;5328</title>
<path fill="none" stroke="black" d="M259.975,-362.834C272.729,-350.77 290.973,-333.512 303.793,-321.385"/>
</g>
<!-- 152&#45;&#45;154 -->
<g id="edge20" class="edge"><title>152&#45;&#45;154</title>
<path fill="none" stroke="black" d="M137.399,-288.411C141.578,-277.576 147.026,-263.45 151.271,-252.447"/>
</g>
<!-- 5328&#45;&#45;154 -->
<g id="edge21" class="edge"><title>5328&#45;&#45;154</title>
<path fill="none" stroke="black" d="M295.933,-294.971C266.631,-282.231 216.145,-260.281 185.057,-246.764"/>
</g>
<!-- 5328&#45;&#45;6156 -->
<g id="edge22" class="edge"><title>5328&#45;&#45;6156</title>
<path fill="none" stroke="black" d="M319,-287.697C319,-276.846 319,-262.917 319,-252.104"/>
</g>
<!-- 781 -->
<g id="node9" class="node"><title>781</title>
<ellipse fill="none" stroke="black" cx="470" cy="-594" rx="27" ry="18"/>
<text text-anchor="middle" x="470" y="-590.3" font-family="Times New Roman,serif" font-size="14.00">781</text>
</g>
<!-- 782 -->
<g id="node10" class="node"><title>782</title>
<ellipse fill="none" stroke="black" cx="470" cy="-522" rx="27" ry="18"/>
<text text-anchor="middle" x="470" y="-518.3" font-family="Times New Roman,serif" font-size="14.00">782</text>
</g>
<!-- 781&#45;&#45;782 -->
<g id="edge23" class="edge"><title>781&#45;&#45;782</title>
<path fill="none" stroke="black" d="M470,-575.697C470,-564.846 470,-550.917 470,-540.104"/>
</g>
<!-- 784 -->
<g id="node11" class="node"><title>784</title>
<ellipse fill="none" stroke="black" cx="526" cy="-450" rx="27" ry="18"/>
<text text-anchor="middle" x="526" y="-446.3" font-family="Times New Roman,serif" font-size="14.00">784</text>
</g>
<!-- 782&#45;&#45;784 -->
<g id="edge24" class="edge"><title>782&#45;&#45;784</title>
<path fill="none" stroke="black" d="M482.151,-505.811C491.544,-494.07 504.485,-477.893 513.873,-466.159"/>
</g>
<!-- 786 -->
<g id="node13" class="node"><title>786</title>
<ellipse fill="none" stroke="black" cx="544" cy="-306" rx="27" ry="18"/>
<text text-anchor="middle" x="544" y="-302.3" font-family="Times New Roman,serif" font-size="14.00">786</text>
</g>
<!-- 782&#45;&#45;786 -->
<g id="edge25" class="edge"><title>782&#45;&#45;786</title>
<path fill="none" stroke="black" d="M466.841,-503.871C462.052,-473.14 455.874,-407.426 480,-360 489.419,-341.484 508.492,-327.029 523.377,-317.925"/>
</g>
<!-- 788 -->
<g id="node12" class="node"><title>788</title>
<ellipse fill="none" stroke="black" cx="516" cy="-378" rx="27" ry="18"/>
<text text-anchor="middle" x="516" y="-374.3" font-family="Times New Roman,serif" font-size="14.00">788</text>
</g>
<!-- 784&#45;&#45;788 -->
<g id="edge26" class="edge"><title>784&#45;&#45;788</title>
<path fill="none" stroke="black" d="M523.579,-432.055C522.03,-421.211 520.026,-407.183 518.468,-396.275"/>
</g>
<!-- 784&#45;&#45;786 -->
<g id="edge27" class="edge"><title>784&#45;&#45;786</title>
<path fill="none" stroke="black" d="M536.238,-433.017C542.125,-422.858 548.942,-409.178 552,-396 557.717,-371.367 552.91,-342.021 548.664,-323.95"/>
</g>
<!-- 788&#45;&#45;786 -->
<g id="edge28" class="edge"><title>788&#45;&#45;786</title>
<path fill="none" stroke="black" d="M522.636,-360.411C527.099,-349.252 532.959,-334.604 537.412,-323.47"/>
</g>
<!-- 2061 -->
<g id="node14" class="node"><title>2061</title>
<ellipse fill="none" stroke="black" cx="619" cy="-594" rx="28.6953" ry="18"/>
<text text-anchor="middle" x="619" y="-590.3" font-family="Times New Roman,serif" font-size="14.00">2061</text>
</g>
<!-- 2062 -->
<g id="node15" class="node"><title>2062</title>
<ellipse fill="none" stroke="black" cx="619" cy="-522" rx="28.6953" ry="18"/>
<text text-anchor="middle" x="619" y="-518.3" font-family="Times New Roman,serif" font-size="14.00">2062</text>
</g>
<!-- 2061&#45;&#45;2062 -->
<g id="edge29" class="edge"><title>2061&#45;&#45;2062</title>
<path fill="none" stroke="black" d="M619,-575.697C619,-564.846 619,-550.917 619,-540.104"/>
</g>
<!-- 2071 -->
<g id="node16" class="node"><title>2071</title>
<ellipse fill="none" stroke="black" cx="761" cy="-594" rx="28.6953" ry="18"/>
<text text-anchor="middle" x="761" y="-590.3" font-family="Times New Roman,serif" font-size="14.00">2071</text>
</g>
<!-- 2072 -->
<g id="node17" class="node"><title>2072</title>
<ellipse fill="none" stroke="black" cx="790" cy="-522" rx="28.6953" ry="18"/>
<text text-anchor="middle" x="790" y="-518.3" font-family="Times New Roman,serif" font-size="14.00">2072</text>
</g>
<!-- 2071&#45;&#45;2072 -->
<g id="edge30" class="edge"><title>2071&#45;&#45;2072</title>
<path fill="none" stroke="black" d="M767.873,-576.411C772.428,-565.414 778.389,-551.027 782.975,-539.956"/>
</g>
<!-- 2074 -->
<g id="node18" class="node"><title>2074</title>
<ellipse fill="none" stroke="black" cx="733" cy="-450" rx="28.6953" ry="18"/>
<text text-anchor="middle" x="733" y="-446.3" font-family="Times New Roman,serif" font-size="14.00">2074</text>
</g>
<!-- 2071&#45;&#45;2074 -->
<g id="edge31" class="edge"><title>2071&#45;&#45;2074</title>
<path fill="none" stroke="black" d="M757.623,-575.871C752.241,-548.578 741.779,-495.52 736.389,-468.189"/>
</g>
<!-- 2076 -->
<g id="node19" class="node"><title>2076</title>
<ellipse fill="none" stroke="black" cx="847" cy="-378" rx="28.6953" ry="18"/>
<text text-anchor="middle" x="847" y="-374.3" font-family="Times New Roman,serif" font-size="14.00">2076</text>
</g>
<!-- 2071&#45;&#45;2076 -->
<g id="edge32" class="edge"><title>2071&#45;&#45;2076</title>
<path fill="none" stroke="black" d="M782.592,-581.959C797.962,-572.883 817.656,-558.515 828,-540 854.083,-493.316 851.915,-427.243 849.063,-396.277"/>
</g>
<!-- 2078 -->
<g id="node20" class="node"><title>2078</title>
<ellipse fill="none" stroke="black" cx="767" cy="-306" rx="28.6953" ry="18"/>
<text text-anchor="middle" x="767" y="-302.3" font-family="Times New Roman,serif" font-size="14.00">2078</text>
</g>
<!-- 2071&#45;&#45;2078 -->
<g id="edge33" class="edge"><title>2071&#45;&#45;2078</title>
<path fill="none" stroke="black" d="M747.513,-577.913C724.17,-549.927 680.095,-487.74 695,-432 706.581,-388.693 737.168,-344.835 754.52,-322.369"/>
</g>
<!-- 2072&#45;&#45;2074 -->
<g id="edge34" class="edge"><title>2072&#45;&#45;2074</title>
<path fill="none" stroke="black" d="M777.35,-505.465C767.904,-493.865 755.052,-478.082 745.615,-466.492"/>
</g>
<!-- 2072&#45;&#45;2076 -->
<g id="edge35" class="edge"><title>2072&#45;&#45;2076</title>
<path fill="none" stroke="black" d="M796.65,-504.433C807.575,-477.217 829.204,-423.334 840.215,-395.902"/>
</g>
<!-- 2072&#45;&#45;2078 -->
<g id="edge36" class="edge"><title>2072&#45;&#45;2078</title>
<path fill="none" stroke="black" d="M788.157,-503.849C783.85,-463.78 773.167,-364.383 768.852,-324.232"/>
</g>
<!-- 2074&#45;&#45;2076 -->
<g id="edge37" class="edge"><title>2074&#45;&#45;2076</title>
<path fill="none" stroke="black" d="M752.857,-436.807C773.654,-424.037 806.134,-404.093 826.988,-391.288"/>
</g>
<!-- 2074&#45;&#45;2078 -->
<g id="edge38" class="edge"><title>2074&#45;&#45;2078</title>
<path fill="none" stroke="black" d="M737.034,-432.153C743.577,-404.824 756.431,-351.14 762.971,-323.825"/>
</g>
<!-- 2076&#45;&#45;2078 -->
<g id="edge39" class="edge"><title>2076&#45;&#45;2078</title>
<path fill="none" stroke="black" d="M830.811,-362.834C816.931,-350.69 797.038,-333.283 783.165,-321.144"/>
</g>
<!-- 2092 -->
<g id="node21" class="node"><title>2092</title>
<ellipse fill="none" stroke="black" cx="729" cy="-234" rx="28.6953" ry="18"/>
<text text-anchor="middle" x="729" y="-230.3" font-family="Times New Roman,serif" font-size="14.00">2092</text>
</g>
<!-- 2078&#45;&#45;2092 -->
<g id="edge40" class="edge"><title>2078&#45;&#45;2092</title>
<path fill="none" stroke="black" d="M758.187,-288.765C752.048,-277.456 743.894,-262.437 737.766,-251.147"/>
</g>
<!-- 5160 -->
<g id="node22" class="node"><title>5160</title>
<ellipse fill="none" stroke="black" cx="804" cy="-234" rx="28.6953" ry="18"/>
<text text-anchor="middle" x="804" y="-230.3" font-family="Times New Roman,serif" font-size="14.00">5160</text>
</g>
<!-- 2078&#45;&#45;5160 -->
<g id="edge41" class="edge"><title>2078&#45;&#45;5160</title>
<path fill="none" stroke="black" d="M775.582,-288.765C781.474,-277.618 789.271,-262.865 795.208,-251.633"/>
</g>
<!-- 2345 -->
<g id="node23" class="node"><title>2345</title>
<polygon fill="#343851" stroke="#343851" points="1045,-540 991,-540 991,-504 1045,-504 1045,-540"/>
<text text-anchor="middle" x="1018" y="-518.3" font-family="Times New Roman,serif" font-size="14.00">2345</text>
</g>
<!-- 2346 -->
<g id="node24" class="node"><title>2346</title>
<ellipse fill="none" stroke="black" cx="961" cy="-450" rx="28.6953" ry="18"/>
<text text-anchor="middle" x="961" y="-446.3" font-family="Times New Roman,serif" font-size="14.00">2346</text>
</g>
<!-- 2345&#45;&#45;2346 -->
<g id="edge42" class="edge"><title>2345&#45;&#45;2346</title>
<path fill="none" stroke="black" d="M1003.91,-503.697C994.679,-492.36 982.711,-477.663 973.761,-466.671"/>
</g>
<!-- 2348 -->
<g id="node25" class="node"><title>2348</title>
<polygon fill="#40547c" stroke="#40547c" points="1028,-396 974,-396 974,-360 1028,-360 1028,-396"/>
<text text-anchor="middle" x="1001" y="-374.3" font-family="Times New Roman,serif" font-size="14.00">2348</text>
</g>
<!-- 2345&#45;&#45;2348 -->
<g id="edge43" class="edge"><title>2345&#45;&#45;2348</title>
<path fill="none" stroke="black" d="M1015.95,-503.871C1012.68,-476.578 1006.33,-423.52 1003.06,-396.189"/>
</g>
<!-- 2350 -->
<g id="node26" class="node"><title>2350</title>
<ellipse fill="#343851" stroke="#343851" cx="946" cy="-306" rx="28.6953" ry="18"/>
<text text-anchor="middle" x="946" y="-302.3" font-family="Times New Roman,serif" font-size="14.00">2350</text>
</g>
<!-- 2345&#45;&#45;2350 -->
<g id="edge44" class="edge"><title>2345&#45;&#45;2350</title>
<path fill="none" stroke="black" d="M990.9,-514.122C968.302,-506.798 937.536,-492.755 923,-468 895.55,-421.252 922.212,-354.064 937.259,-323.391"/>
</g>
<!-- 4768 -->
<g id="node27" class="node"><title>4768</title>
<ellipse fill="none" stroke="black" cx="1038" cy="-306" rx="28.6953" ry="18"/>
<text text-anchor="middle" x="1038" y="-302.3" font-family="Times New Roman,serif" font-size="14.00">4768</text>
</g>
<!-- 2345&#45;&#45;4768 -->
<g id="edge45" class="edge"><title>2345&#45;&#45;4768</title>
<path fill="none" stroke="black" d="M1021.41,-503.699C1025.98,-479.656 1033.85,-434.725 1037,-396 1039.03,-371.049 1038.89,-342.037 1038.51,-324.094"/>
</g>
<!-- 2346&#45;&#45;2348 -->
<g id="edge46" class="edge"><title>2346&#45;&#45;2348</title>
<path fill="none" stroke="black" d="M970.277,-432.765C976.555,-421.779 984.833,-407.292 991.215,-396.124"/>
</g>
<!-- 2346&#45;&#45;2350 -->
<g id="edge47" class="edge"><title>2346&#45;&#45;2350</title>
<path fill="none" stroke="black" d="M959.191,-431.871C956.308,-404.578 950.703,-351.52 947.816,-324.189"/>
</g>
<!-- 2348&#45;&#45;2350 -->
<g id="edge48" class="edge"><title>2348&#45;&#45;2350</title>
<path fill="none" stroke="black" d="M987.404,-359.697C978.497,-348.36 966.95,-333.663 958.313,-322.671"/>
</g>
<!-- 2348&#45;&#45;4768 -->
<g id="edge49" class="edge"><title>2348&#45;&#45;4768</title>
<path fill="none" stroke="black" d="M1010.15,-359.697C1015.97,-348.684 1023.46,-334.5 1029.21,-323.622"/>
</g>
<!-- 3085 -->
<g id="node28" class="node"><title>3085</title>
<ellipse fill="none" stroke="black" cx="1208" cy="-594" rx="28.6953" ry="18"/>
<text text-anchor="middle" x="1208" y="-590.3" font-family="Times New Roman,serif" font-size="14.00">3085</text>
</g>
<!-- 3086 -->
<g id="node29" class="node"><title>3086</title>
<ellipse fill="none" stroke="black" cx="1208" cy="-522" rx="28.6953" ry="18"/>
<text text-anchor="middle" x="1208" y="-518.3" font-family="Times New Roman,serif" font-size="14.00">3086</text>
</g>
<!-- 3085&#45;&#45;3086 -->
<g id="edge50" class="edge"><title>3085&#45;&#45;3086</title>
<path fill="none" stroke="black" d="M1208,-575.697C1208,-564.846 1208,-550.917 1208,-540.104"/>
</g>
<!-- 6040 -->
<g id="node30" class="node"><title>6040</title>
<ellipse fill="none" stroke="black" cx="1151" cy="-450" rx="28.6953" ry="18"/>
<text text-anchor="middle" x="1151" y="-446.3" font-family="Times New Roman,serif" font-size="14.00">6040</text>
</g>
<!-- 3086&#45;&#45;6040 -->
<g id="edge51" class="edge"><title>3086&#45;&#45;6040</title>
<path fill="none" stroke="black" d="M1195.35,-505.465C1185.9,-493.865 1173.05,-478.082 1163.61,-466.492"/>
</g>
<!-- 6042 -->
<g id="node31" class="node"><title>6042</title>
<ellipse fill="none" stroke="black" cx="1179" cy="-378" rx="28.6953" ry="18"/>
<text text-anchor="middle" x="1179" y="-374.3" font-family="Times New Roman,serif" font-size="14.00">6042</text>
</g>
<!-- 3086&#45;&#45;6042 -->
<g id="edge52" class="edge"><title>3086&#45;&#45;6042</title>
<path fill="none" stroke="black" d="M1204.5,-503.871C1198.93,-476.578 1188.09,-423.52 1182.51,-396.189"/>
</g>
<!-- 7542 -->
<g id="node32" class="node"><title>7542</title>
<ellipse fill="none" stroke="black" cx="1265" cy="-450" rx="28.6953" ry="18"/>
<text text-anchor="middle" x="1265" y="-446.3" font-family="Times New Roman,serif" font-size="14.00">7542</text>
</g>
<!-- 3086&#45;&#45;7542 -->
<g id="edge53" class="edge"><title>3086&#45;&#45;7542</title>
<path fill="none" stroke="black" d="M1220.65,-505.465C1230.1,-493.865 1242.95,-478.082 1252.39,-466.492"/>
</g>
<!-- 6040&#45;&#45;6042 -->
<g id="edge54" class="edge"><title>6040&#45;&#45;6042</title>
<path fill="none" stroke="black" d="M1157.64,-432.411C1162.03,-421.414 1167.79,-407.027 1172.22,-395.956"/>
</g>
<!-- 4763 -->
<g id="node33" class="node"><title>4763</title>
<ellipse fill="#40547c" stroke="#40547c" cx="1056" cy="-594" rx="28.6953" ry="18"/>
<text text-anchor="middle" x="1056" y="-590.3" font-family="Times New Roman,serif" font-size="14.00">4763</text>
</g>
<!-- 4763&#45;&#45;2345 -->
<g id="edge55" class="edge"><title>4763&#45;&#45;2345</title>
<path fill="none" stroke="black" d="M1047.19,-576.765C1041.22,-565.779 1033.36,-551.292 1027.3,-540.124"/>
</g>
<!-- 4763&#45;&#45;2348 -->
<g id="edge56" class="edge"><title>4763&#45;&#45;2348</title>
<path fill="none" stroke="black" d="M1057.49,-575.721C1058.61,-557.628 1059.19,-528.495 1054,-504 1046.82,-470.085 1037.57,-463.902 1024,-432 1018.9,-420.001 1013.05,-406.521 1008.52,-396.158"/>
</g>
<!-- 5345 -->
<g id="node34" class="node"><title>5345</title>
<ellipse fill="none" stroke="black" cx="1283" cy="-594" rx="28.6953" ry="18"/>
<text text-anchor="middle" x="1283" y="-590.3" font-family="Times New Roman,serif" font-size="14.00">5345</text>
</g>
<!-- 5346 -->
<g id="node35" class="node"><title>5346</title>
<ellipse fill="none" stroke="black" cx="1283" cy="-522" rx="28.6953" ry="18"/>
<text text-anchor="middle" x="1283" y="-518.3" font-family="Times New Roman,serif" font-size="14.00">5346</text>
</g>
<!-- 5345&#45;&#45;5346 -->
<g id="edge57" class="edge"><title>5345&#45;&#45;5346</title>
<path fill="none" stroke="black" d="M1283,-575.697C1283,-564.846 1283,-550.917 1283,-540.104"/>
</g>
<!-- 6073 -->
<g id="node36" class="node"><title>6073</title>
<ellipse fill="none" stroke="black" cx="1358" cy="-594" rx="28.6953" ry="18"/>
<text text-anchor="middle" x="1358" y="-590.3" font-family="Times New Roman,serif" font-size="14.00">6073</text>
</g>
<!-- 6074 -->
<g id="node37" class="node"><title>6074</title>
<ellipse fill="none" stroke="black" cx="1358" cy="-522" rx="28.6953" ry="18"/>
<text text-anchor="middle" x="1358" y="-518.3" font-family="Times New Roman,serif" font-size="14.00">6074</text>
</g>
<!-- 6073&#45;&#45;6074 -->
<g id="edge58" class="edge"><title>6073&#45;&#45;6074</title>
<path fill="none" stroke="black" d="M1358,-575.697C1358,-564.846 1358,-550.917 1358,-540.104"/>
</g>
<!-- 6363 -->
<g id="node38" class="node"><title>6363</title>
<polygon fill="#947789" stroke="#947789" points="1597,-612 1543,-612 1543,-576 1597,-576 1597,-612"/>
<text text-anchor="middle" x="1570" y="-590.3" font-family="Times New Roman,serif" font-size="14.00">6363</text>
</g>
<!-- 6364 -->
<g id="node39" class="node"><title>6364</title>
<polygon fill="#996799" stroke="#996799" points="1687,-540 1633,-540 1633,-504 1687,-504 1687,-540"/>
<text text-anchor="middle" x="1660" y="-518.3" font-family="Times New Roman,serif" font-size="14.00">6364</text>
</g>
<!-- 6363&#45;&#45;6364 -->
<g id="edge59" class="edge"><title>6363&#45;&#45;6364</title>
<path fill="none" stroke="black" d="M1592.25,-575.697C1606.2,-564.846 1624.11,-550.917 1638.01,-540.104"/>
</g>
<!-- 6366 -->
<g id="node40" class="node"><title>6366</title>
<polygon fill="#4d3b46" stroke="#4d3b46" points="1566,-468 1512,-468 1512,-432 1566,-432 1566,-468"/>
<text text-anchor="middle" x="1539" y="-446.3" font-family="Times New Roman,serif" font-size="14.00">6366</text>
</g>
<!-- 6363&#45;&#45;6366 -->
<g id="edge60" class="edge"><title>6363&#45;&#45;6366</title>
<path fill="none" stroke="black" d="M1566.26,-575.871C1560.3,-548.578 1548.72,-495.52 1542.75,-468.189"/>
</g>
<!-- 6368 -->
<g id="node41" class="node"><title>6368</title>
<polygon fill="#8e9440" stroke="#8e9440" points="1615,-396 1561,-396 1561,-360 1615,-360 1615,-396"/>
<text text-anchor="middle" x="1588" y="-374.3" font-family="Times New Roman,serif" font-size="14.00">6368</text>
</g>
<!-- 6363&#45;&#45;6368 -->
<g id="edge61" class="edge"><title>6363&#45;&#45;6368</title>
<path fill="none" stroke="black" d="M1571.44,-575.849C1574.81,-535.78 1583.17,-436.383 1586.55,-396.232"/>
</g>
<!-- 6370 -->
<g id="node42" class="node"><title>6370</title>
<polygon fill="#357296" stroke="#357296" points="1725,-324 1671,-324 1671,-288 1725,-288 1725,-324"/>
<text text-anchor="middle" x="1698" y="-302.3" font-family="Times New Roman,serif" font-size="14.00">6370</text>
</g>
<!-- 6363&#45;&#45;6370 -->
<g id="edge62" class="edge"><title>6363&#45;&#45;6370</title>
<path fill="none" stroke="black" d="M1597.07,-589.686C1626.52,-584.532 1672.53,-571.64 1696,-540 1745.04,-473.882 1717.38,-365.649 1703.97,-324.036"/>
</g>
<!-- 6372 -->
<g id="node43" class="node"><title>6372</title>
<polygon fill="#875e80" stroke="#875e80" points="1577,-252 1523,-252 1523,-216 1577,-216 1577,-252"/>
<text text-anchor="middle" x="1550" y="-230.3" font-family="Times New Roman,serif" font-size="14.00">6372</text>
</g>
<!-- 6363&#45;&#45;6372 -->
<g id="edge63" class="edge"><title>6363&#45;&#45;6372</title>
<path fill="none" stroke="black" d="M1557.27,-575.928C1540.95,-552.859 1513.49,-509.791 1503,-468 1482.9,-387.953 1522.89,-290.767 1541.35,-252.079"/>
</g>
<!-- 6374 -->
<g id="node44" class="node"><title>6374</title>
<polygon fill="#757d45" stroke="#757d45" points="1605,-180 1551,-180 1551,-144 1605,-144 1605,-180"/>
<text text-anchor="middle" x="1578" y="-158.3" font-family="Times New Roman,serif" font-size="14.00">6374</text>
</g>
<!-- 6363&#45;&#45;6374 -->
<g id="edge64" class="edge"><title>6363&#45;&#45;6374</title>
<path fill="none" stroke="black" d="M1542.65,-582.638C1498.15,-563.795 1415,-519.428 1415,-451 1415,-451 1415,-451 1415,-305 1415,-233.879 1504.32,-190.242 1550.72,-172.37"/>
</g>
<!-- 6364&#45;&#45;6366 -->
<g id="edge65" class="edge"><title>6364&#45;&#45;6366</title>
<path fill="none" stroke="black" d="M1632.85,-505.291C1612.92,-493.762 1585.97,-478.173 1566.06,-466.657"/>
</g>
<!-- 6364&#45;&#45;6368 -->
<g id="edge66" class="edge"><title>6364&#45;&#45;6368</title>
<path fill="none" stroke="black" d="M1651.32,-503.871C1637.48,-476.578 1610.57,-423.52 1596.72,-396.189"/>
</g>
<!-- 6364&#45;&#45;6370 -->
<g id="edge67" class="edge"><title>6364&#45;&#45;6370</title>
<path fill="none" stroke="black" d="M1669.54,-503.881C1674.73,-493.758 1680.73,-480.508 1684,-468 1697.35,-416.972 1698.65,-354.063 1698.39,-324.243"/>
</g>
<!-- 6364&#45;&#45;6372 -->
<g id="edge68" class="edge"><title>6364&#45;&#45;6372</title>
<path fill="none" stroke="black" d="M1657.84,-503.587C1653.73,-473.511 1643.41,-410.225 1624,-360 1610.72,-325.652 1601.85,-319.636 1583,-288 1575.79,-275.894 1567.39,-262.416 1560.87,-252.081"/>
</g>
<!-- 6364&#45;&#45;6374 -->
<g id="edge69" class="edge"><title>6364&#45;&#45;6374</title>
<path fill="none" stroke="black" d="M1687.32,-507.783C1726.77,-486.562 1795,-440.909 1795,-379 1795,-379 1795,-379 1795,-305 1795,-215.179 1663.22,-179.115 1605.04,-167.572"/>
</g>
<!-- 6366&#45;&#45;6368 -->
<g id="edge70" class="edge"><title>6366&#45;&#45;6368</title>
<path fill="none" stroke="black" d="M1551.11,-431.697C1558.71,-420.846 1568.46,-406.917 1576.03,-396.104"/>
</g>
<!-- 6366&#45;&#45;6370 -->
<g id="edge71" class="edge"><title>6366&#45;&#45;6370</title>
<path fill="none" stroke="black" d="M1566.16,-435.016C1583.64,-425.329 1606.31,-411.434 1624,-396 1649.14,-374.071 1672.79,-343.159 1686.31,-324.135"/>
</g>
<!-- 6366&#45;&#45;6372 -->
<g id="edge72" class="edge"><title>6366&#45;&#45;6372</title>
<path fill="none" stroke="black" d="M1539.88,-431.849C1541.94,-391.78 1547.05,-292.383 1549.11,-252.232"/>
</g>
<!-- 6366&#45;&#45;6374 -->
<g id="edge73" class="edge"><title>6366&#45;&#45;6374</title>
<path fill="none" stroke="black" d="M1531.34,-431.903C1514.63,-391.939 1479.11,-290.184 1514,-216 1521.67,-199.681 1537.11,-186.663 1550.9,-177.612"/>
</g>
<!-- 6368&#45;&#45;6370 -->
<g id="edge74" class="edge"><title>6368&#45;&#45;6370</title>
<path fill="none" stroke="black" d="M1614.91,-359.876C1631.95,-349.029 1653.92,-335.05 1670.99,-324.19"/>
</g>
<!-- 6368&#45;&#45;6372 -->
<g id="edge75" class="edge"><title>6368&#45;&#45;6372</title>
<path fill="none" stroke="black" d="M1583.42,-359.871C1576.11,-332.578 1561.91,-279.52 1554.6,-252.189"/>
</g>
<!-- 6368&#45;&#45;6374 -->
<g id="edge76" class="edge"><title>6368&#45;&#45;6374</title>
<path fill="none" stroke="black" d="M1588.57,-359.571C1589.35,-329.993 1590.24,-268.101 1586,-216 1585.02,-203.942 1582.97,-190.464 1581.19,-180.116"/>
</g>
<!-- 6370&#45;&#45;6372 -->
<g id="edge77" class="edge"><title>6370&#45;&#45;6372</title>
<path fill="none" stroke="black" d="M1670.85,-292.161C1644.23,-279.57 1603.87,-260.48 1577.22,-247.876"/>
</g>
<!-- 6370&#45;&#45;6374 -->
<g id="edge78" class="edge"><title>6370&#45;&#45;6374</title>
<path fill="none" stroke="black" d="M1683.53,-287.871C1660.46,-260.578 1615.62,-207.52 1592.53,-180.189"/>
</g>
<!-- 6372&#45;&#45;6374 -->
<g id="edge79" class="edge"><title>6372&#45;&#45;6374</title>
<path fill="none" stroke="black" d="M1556.92,-215.697C1561.26,-204.846 1566.83,-190.917 1571.16,-180.104"/>
</g>
<!-- 7573 -->
<g id="node45" class="node"><title>7573</title>
<polygon fill="#434246" stroke="#434246" points="2307,-612 2253,-612 2253,-576 2307,-576 2307,-612"/>
<text text-anchor="middle" x="2280" y="-590.3" font-family="Times New Roman,serif" font-size="14.00">7573</text>
</g>
<!-- 7574 -->
<g id="node46" class="node"><title>7574</title>
<polygon fill="#615a36" stroke="#615a36" points="2264,-540 2210,-540 2210,-504 2264,-504 2264,-540"/>
<text text-anchor="middle" x="2237" y="-518.3" font-family="Times New Roman,serif" font-size="14.00">7574</text>
</g>
<!-- 7573&#45;&#45;7574 -->
<g id="edge80" class="edge"><title>7573&#45;&#45;7574</title>
<path fill="none" stroke="black" d="M2269.37,-575.697C2262.71,-564.846 2254.15,-550.917 2247.51,-540.104"/>
</g>
<!-- 7576 -->
<g id="node47" class="node"><title>7576</title>
<polygon fill="#718f6f" stroke="#718f6f" points="2203,-468 2149,-468 2149,-432 2203,-432 2203,-468"/>
<text text-anchor="middle" x="2176" y="-446.3" font-family="Times New Roman,serif" font-size="14.00">7576</text>
</g>
<!-- 7573&#45;&#45;7576 -->
<g id="edge81" class="edge"><title>7573&#45;&#45;7576</title>
<path fill="none" stroke="black" d="M2252.88,-580.972C2235.65,-572.012 2214.18,-558.191 2201,-540 2185.37,-518.423 2179.5,-487.407 2177.3,-468.265"/>
</g>
<!-- 7578 -->
<g id="node48" class="node"><title>7578</title>
<polygon fill="#3b5778" stroke="#3b5778" points="2295,-396 2241,-396 2241,-360 2295,-360 2295,-396"/>
<text text-anchor="middle" x="2268" y="-374.3" font-family="Times New Roman,serif" font-size="14.00">7578</text>
</g>
<!-- 7573&#45;&#45;7578 -->
<g id="edge82" class="edge"><title>7573&#45;&#45;7578</title>
<path fill="none" stroke="black" d="M2279.04,-575.849C2276.79,-535.78 2271.22,-436.383 2268.97,-396.232"/>
</g>
<!-- 7580 -->
<g id="node49" class="node"><title>7580</title>
<polygon fill="#404f3c" stroke="#404f3c" points="2109,-324 2055,-324 2055,-288 2109,-288 2109,-324"/>
<text text-anchor="middle" x="2082" y="-302.3" font-family="Times New Roman,serif" font-size="14.00">7580</text>
</g>
<!-- 7573&#45;&#45;7580 -->
<g id="edge83" class="edge"><title>7573&#45;&#45;7580</title>
<path fill="none" stroke="black" d="M2252.97,-581.432C2232.24,-571.892 2203.46,-557.169 2181,-540 2146.03,-513.266 2135.84,-505.627 2113,-468 2084.94,-421.767 2081.45,-355.475 2081.52,-324.367"/>
</g>
<!-- 7582 -->
<g id="node50" class="node"><title>7582</title>
<polygon fill="#906677" stroke="#906677" points="2240,-252 2186,-252 2186,-216 2240,-216 2240,-252"/>
<text text-anchor="middle" x="2213" y="-230.3" font-family="Times New Roman,serif" font-size="14.00">7582</text>
</g>
<!-- 7573&#45;&#45;7582 -->
<g id="edge84" class="edge"><title>7573&#45;&#45;7582</title>
<path fill="none" stroke="black" d="M2288.33,-575.749C2306.05,-536.708 2344.04,-438.849 2321,-360 2307.41,-313.477 2264.69,-273.903 2237.23,-252.378"/>
</g>
<!-- 7584 -->
<g id="node51" class="node"><title>7584</title>
<polygon fill="#7d3932" stroke="#7d3932" points="2324,-180 2270,-180 2270,-144 2324,-144 2324,-180"/>
<text text-anchor="middle" x="2297" y="-158.3" font-family="Times New Roman,serif" font-size="14.00">7584</text>
</g>
<!-- 7573&#45;&#45;7584 -->
<g id="edge85" class="edge"><title>7573&#45;&#45;7584</title>
<path fill="none" stroke="black" d="M2307.31,-583.386C2353.25,-565.269 2441,-521.44 2441,-451 2441,-451 2441,-451 2441,-305 2441,-240.045 2365.8,-194.813 2324.09,-174.72"/>
</g>
<!-- 7586 -->
<g id="node52" class="node"><title>7586</title>
<polygon fill="#846a7e" stroke="#846a7e" points="2126,-108 2072,-108 2072,-72 2126,-72 2126,-108"/>
<text text-anchor="middle" x="2099" y="-86.3" font-family="Times New Roman,serif" font-size="14.00">7586</text>
</g>
<!-- 7573&#45;&#45;7586 -->
<g id="edge86" class="edge"><title>7573&#45;&#45;7586</title>
<path fill="none" stroke="black" d="M2252.85,-589.586C2161.5,-577.355 1871,-532.084 1871,-451 1871,-451 1871,-451 1871,-305 1871,-195.881 2011.56,-126.188 2071.95,-101.279"/>
</g>
<!-- 7588 -->
<g id="node53" class="node"><title>7588</title>
<polygon fill="#6e874b" stroke="#6e874b" points="2202,-36 2148,-36 2148,-0 2202,-0 2202,-36"/>
<text text-anchor="middle" x="2175" y="-14.3" font-family="Times New Roman,serif" font-size="14.00">7588</text>
</g>
<!-- 7573&#45;&#45;7588 -->
<g id="edge87" class="edge"><title>7573&#45;&#45;7588</title>
<path fill="none" stroke="black" d="M2307.19,-589.644C2369.44,-580.288 2517,-547.891 2517,-451 2517,-451 2517,-451 2517,-161 2517,-114.027 2498.97,-98.2318 2460,-72 2417.83,-43.6136 2264.76,-27.0257 2202.06,-21.2907"/>
</g>
<!-- 7574&#45;&#45;7576 -->
<g id="edge88" class="edge"><title>7574&#45;&#45;7576</title>
<path fill="none" stroke="black" d="M2221.92,-503.697C2212.47,-492.846 2200.33,-478.917 2190.91,-468.104"/>
</g>
<!-- 7574&#45;&#45;7578 -->
<g id="edge89" class="edge"><title>7574&#45;&#45;7578</title>
<path fill="none" stroke="black" d="M2240.74,-503.871C2246.7,-476.578 2258.28,-423.52 2264.25,-396.189"/>
</g>
<!-- 7574&#45;&#45;7580 -->
<g id="edge90" class="edge"><title>7574&#45;&#45;7580</title>
<path fill="none" stroke="black" d="M2209.64,-512.174C2188.02,-503.909 2158.48,-489.564 2140,-468 2102.88,-424.69 2088.81,-355.783 2084.1,-324.036"/>
</g>
<!-- 7574&#45;&#45;7582 -->
<g id="edge91" class="edge"><title>7574&#45;&#45;7582</title>
<path fill="none" stroke="black" d="M2253.08,-503.853C2278.4,-474.688 2322.83,-413.391 2304,-360 2297.17,-340.624 2287.32,-340.439 2275,-324 2256.7,-299.591 2236.73,-270.435 2224.54,-252.314"/>
</g>
<!-- 7574&#45;&#45;7584 -->
<g id="edge92" class="edge"><title>7574&#45;&#45;7584</title>
<path fill="none" stroke="black" d="M2264.04,-512.058C2311.08,-494.602 2403,-451.247 2403,-379 2403,-379 2403,-379 2403,-305 2403,-250.855 2352.9,-204.042 2321.58,-180.072"/>
</g>
<!-- 7574&#45;&#45;7586 -->
<g id="edge93" class="edge"><title>7574&#45;&#45;7586</title>
<path fill="none" stroke="black" d="M2209.55,-518.427C2144.24,-510.645 1985,-481.193 1985,-379 1985,-379 1985,-379 1985,-233 1985,-177.675 2038.27,-131.633 2071.98,-108.036"/>
</g>
<!-- 7574&#45;&#45;7588 -->
<g id="edge94" class="edge"><title>7574&#45;&#45;7588</title>
<path fill="none" stroke="black" d="M2209.87,-519.469C2119.28,-512.765 1833,-478.045 1833,-307 1833,-307 1833,-307 1833,-161 1833,-92.9334 2066.99,-40.3164 2147.88,-24.1602"/>
</g>
<!-- 7576&#45;&#45;7578 -->
<g id="edge95" class="edge"><title>7576&#45;&#45;7578</title>
<path fill="none" stroke="black" d="M2198.74,-431.697C2213,-420.846 2231.31,-406.917 2245.52,-396.104"/>
</g>
<!-- 7576&#45;&#45;7580 -->
<g id="edge96" class="edge"><title>7576&#45;&#45;7580</title>
<path fill="none" stroke="black" d="M2164.66,-431.871C2146.59,-404.578 2111.47,-351.52 2093.38,-324.189"/>
</g>
<!-- 7576&#45;&#45;7582 -->
<g id="edge97" class="edge"><title>7576&#45;&#45;7582</title>
<path fill="none" stroke="black" d="M2178.97,-431.849C2185.89,-391.78 2203.08,-292.383 2210.02,-252.232"/>
</g>
<!-- 7576&#45;&#45;7584 -->
<g id="edge98" class="edge"><title>7576&#45;&#45;7584</title>
<path fill="none" stroke="black" d="M2183.51,-431.835C2188.03,-421.471 2193.88,-407.991 2199,-396 2233.4,-315.493 2273.7,-218.962 2289.81,-180.274"/>
</g>
<!-- 7576&#45;&#45;7586 -->
<g id="edge99" class="edge"><title>7576&#45;&#45;7586</title>
<path fill="none" stroke="black" d="M2149,-438.535C2105.08,-419.538 2023,-374.95 2023,-307 2023,-307 2023,-307 2023,-233 2023,-182.949 2060.16,-133.466 2082.51,-108.228"/>
</g>
<!-- 7576&#45;&#45;7588 -->
<g id="edge100" class="edge"><title>7576&#45;&#45;7588</title>
<path fill="none" stroke="black" d="M2148.77,-445.941C2117.52,-440.969 2066.87,-428.194 2038,-396 2015.9,-371.361 2023.26,-356.82 2019,-324 2007.65,-236.531 2013.01,-113.935 2045,-72 2069.69,-39.6398 2117.49,-26.9453 2147.74,-22.0298"/>
</g>
<!-- 7578&#45;&#45;7580 -->
<g id="edge101" class="edge"><title>7578&#45;&#45;7580</title>
<path fill="none" stroke="black" d="M2240.88,-367.476C2211.65,-357.122 2163.83,-339.918 2123,-324 2118.55,-322.265 2113.85,-320.373 2109.28,-318.502"/>
</g>
<!-- 7578&#45;&#45;7582 -->
<g id="edge102" class="edge"><title>7578&#45;&#45;7582</title>
<path fill="none" stroke="black" d="M2256.45,-359.94C2250.02,-349.837 2242.27,-336.587 2237,-324 2226.93,-299.937 2219.95,-270.435 2216.21,-252.176"/>
</g>
<!-- 7578&#45;&#45;7584 -->
<g id="edge103" class="edge"><title>7578&#45;&#45;7584</title>
<path fill="none" stroke="black" d="M2295.07,-365.296C2311.62,-356.546 2331.4,-342.837 2341,-324 2362.8,-281.235 2357.3,-261.148 2341,-216 2336.05,-202.277 2325.82,-189.597 2316.47,-180.082"/>
</g>
<!-- 7578&#45;&#45;7586 -->
<g id="edge104" class="edge"><title>7578&#45;&#45;7586</title>
<path fill="none" stroke="black" d="M2251.52,-359.991C2242.11,-349.904 2230.36,-336.654 2221,-324 2166.27,-250.038 2122.11,-148.155 2105.79,-108.128"/>
</g>
<!-- 7578&#45;&#45;7588 -->
<g id="edge105" class="edge"><title>7578&#45;&#45;7588</title>
<path fill="none" stroke="black" d="M2295.15,-371.992C2352.14,-359.748 2479,-322.648 2479,-235 2479,-235 2479,-235 2479,-161 2479,-39.3997 2276.86,-21.693 2202.25,-19.2991"/>
</g>
<!-- 7580&#45;&#45;7582 -->
<g id="edge106" class="edge"><title>7580&#45;&#45;7582</title>
<path fill="none" stroke="black" d="M2109.14,-290.496C2131.63,-278.482 2163.42,-261.494 2185.89,-249.485"/>
</g>
<!-- 7580&#45;&#45;7584 -->
<g id="edge107" class="edge"><title>7580&#45;&#45;7584</title>
<path fill="none" stroke="black" d="M2097.05,-287.758C2114.68,-268.351 2145.52,-236.821 2177,-216 2206.63,-196.4 2244.71,-181.007 2269.94,-171.971"/>
</g>
<!-- 7580&#45;&#45;7586 -->
<g id="edge108" class="edge"><title>7580&#45;&#45;7586</title>
<path fill="none" stroke="black" d="M2083.36,-287.849C2086.55,-247.78 2094.44,-148.383 2097.63,-108.232"/>
</g>
<!-- 7580&#45;&#45;7588 -->
<g id="edge109" class="edge"><title>7580&#45;&#45;7588</title>
<path fill="none" stroke="black" d="M2074.1,-287.823C2056.51,-246.813 2019.04,-141.44 2063,-72 2081.53,-42.7376 2121.05,-29.3191 2147.83,-23.3898"/>
</g>
<!-- 7582&#45;&#45;7584 -->
<g id="edge110" class="edge"><title>7582&#45;&#45;7584</title>
<path fill="none" stroke="black" d="M2233.76,-215.697C2246.78,-204.846 2263.5,-190.917 2276.47,-180.104"/>
</g>
<!-- 7582&#45;&#45;7586 -->
<g id="edge111" class="edge"><title>7582&#45;&#45;7586</title>
<path fill="none" stroke="black" d="M2202.37,-215.99C2190.61,-197.614 2170.71,-167.776 2151,-144 2140.63,-131.496 2127.88,-118.461 2117.59,-108.448"/>
</g>
<!-- 7582&#45;&#45;7588 -->
<g id="edge112" class="edge"><title>7582&#45;&#45;7588</title>
<path fill="none" stroke="black" d="M2209.95,-215.849C2202.84,-175.78 2185.19,-76.3826 2178.06,-36.2325"/>
</g>
<!-- 7584&#45;&#45;7586 -->
<g id="edge113" class="edge"><title>7584&#45;&#45;7586</title>
<path fill="none" stroke="black" d="M2269.88,-151.414C2232.07,-138.046 2163.91,-113.948 2126.11,-100.583"/>
</g>
<!-- 7584&#45;&#45;7588 -->
<g id="edge114" class="edge"><title>7584&#45;&#45;7588</title>
<path fill="none" stroke="black" d="M2284.37,-143.825C2270.75,-125.566 2248.16,-96.065 2227,-72 2216.11,-59.608 2203.11,-46.358 2192.83,-36.206"/>
</g>
<!-- 7586&#45;&#45;7588 -->
<g id="edge115" class="edge"><title>7586&#45;&#45;7588</title>
<path fill="none" stroke="black" d="M2117.79,-71.6966C2129.57,-60.8463 2144.69,-46.9167 2156.43,-36.1043"/>
</g>
<!-- 8067 -->
<g id="node54" class="node"><title>8067</title>
<ellipse fill="none" stroke="black" cx="2574" cy="-594" rx="28.6953" ry="18"/>
<text text-anchor="middle" x="2574" y="-590.3" font-family="Times New Roman,serif" font-size="14.00">8067</text>
</g>
<!-- 8068 -->
<g id="node55" class="node"><title>8068</title>
<ellipse fill="none" stroke="black" cx="2574" cy="-522" rx="28.6953" ry="18"/>
<text text-anchor="middle" x="2574" y="-518.3" font-family="Times New Roman,serif" font-size="14.00">8068</text>
</g>
<!-- 8067&#45;&#45;8068 -->
<g id="edge116" class="edge"><title>8067&#45;&#45;8068</title>
<path fill="none" stroke="black" d="M2574,-575.697C2574,-564.846 2574,-550.917 2574,-540.104"/>
</g>
<!-- 8151 -->
<g id="node56" class="node"><title>8151</title>
<ellipse fill="none" stroke="black" cx="2688" cy="-594" rx="28.6953" ry="18"/>
<text text-anchor="middle" x="2688" y="-590.3" font-family="Times New Roman,serif" font-size="14.00">8151</text>
</g>
<!-- 8152 -->
<g id="node57" class="node"><title>8152</title>
<ellipse fill="none" stroke="black" cx="2688" cy="-522" rx="28.6953" ry="18"/>
<text text-anchor="middle" x="2688" y="-518.3" font-family="Times New Roman,serif" font-size="14.00">8152</text>
</g>
<!-- 8151&#45;&#45;8152 -->
<g id="edge117" class="edge"><title>8151&#45;&#45;8152</title>
<path fill="none" stroke="black" d="M2688,-575.697C2688,-564.846 2688,-550.917 2688,-540.104"/>
</g>
<!-- 8154 -->
<g id="node58" class="node"><title>8154</title>
<ellipse fill="none" stroke="black" cx="2640" cy="-450" rx="28.6953" ry="18"/>
<text text-anchor="middle" x="2640" y="-446.3" font-family="Times New Roman,serif" font-size="14.00">8154</text>
</g>
<!-- 8151&#45;&#45;8154 -->
<g id="edge118" class="edge"><title>8151&#45;&#45;8154</title>
<path fill="none" stroke="black" d="M2674.04,-578.011C2665.6,-568.019 2655.44,-554.161 2650,-540 2640.85,-516.198 2639.32,-486.367 2639.4,-467.999"/>
</g>
<!-- 8156 -->
<g id="node59" class="node"><title>8156</title>
<ellipse fill="none" stroke="black" cx="2697" cy="-378" rx="28.6953" ry="18"/>
<text text-anchor="middle" x="2697" y="-374.3" font-family="Times New Roman,serif" font-size="14.00">8156</text>
</g>
<!-- 8151&#45;&#45;8156 -->
<g id="edge119" class="edge"><title>8151&#45;&#45;8156</title>
<path fill="none" stroke="black" d="M2702.5,-578.203C2711.16,-568.288 2721.36,-554.444 2726,-540 2742.51,-488.627 2718.54,-424.825 2705.08,-395.342"/>
</g>
<!-- 8152&#45;&#45;8154 -->
<g id="edge120" class="edge"><title>8152&#45;&#45;8154</title>
<path fill="none" stroke="black" d="M2677.11,-505.116C2669.25,-493.66 2658.69,-478.263 2650.85,-466.821"/>
</g>
<!-- 8152&#45;&#45;8156 -->
<g id="edge121" class="edge"><title>8152&#45;&#45;8156</title>
<path fill="none" stroke="black" d="M2689.09,-503.871C2690.82,-476.578 2694.18,-423.52 2695.91,-396.189"/>
</g>
<!-- 8154&#45;&#45;8156 -->
<g id="edge122" class="edge"><title>8154&#45;&#45;8156</title>
<path fill="none" stroke="black" d="M2652.65,-433.465C2662.1,-421.865 2674.95,-406.082 2684.39,-394.492"/>
</g>
<!-- 8371 -->
<g id="node60" class="node"><title>8371</title>
<ellipse fill="none" stroke="black" cx="544" cy="-522" rx="28.6953" ry="18"/>
<text text-anchor="middle" x="544" y="-518.3" font-family="Times New Roman,serif" font-size="14.00">8371</text>
</g>
<!-- 8371&#45;&#45;784 -->
<g id="edge123" class="edge"><title>8371&#45;&#45;784</title>
<path fill="none" stroke="black" d="M539.643,-504.055C536.813,-493.049 533.139,-478.764 530.317,-467.789"/>
</g>
<!-- 8371&#45;&#45;786 -->
<g id="edge124" class="edge"><title>8371&#45;&#45;786</title>
<path fill="none" stroke="black" d="M550.918,-504.109C554.824,-493.842 559.425,-480.368 562,-468 571.799,-420.935 578.144,-406.992 568,-360 565.187,-346.967 558.894,-333.283 553.457,-323.085"/>
</g>
<!-- 8375 -->
<g id="node61" class="node"><title>8375</title>
<ellipse fill="none" stroke="black" cx="2840" cy="-594" rx="28.6953" ry="18"/>
<text text-anchor="middle" x="2840" y="-590.3" font-family="Times New Roman,serif" font-size="14.00">8375</text>
</g>
<!-- 8376 -->
<g id="node62" class="node"><title>8376</title>
<ellipse fill="none" stroke="black" cx="2802" cy="-522" rx="28.6953" ry="18"/>
<text text-anchor="middle" x="2802" y="-518.3" font-family="Times New Roman,serif" font-size="14.00">8376</text>
</g>
<!-- 8375&#45;&#45;8376 -->
<g id="edge125" class="edge"><title>8375&#45;&#45;8376</title>
<path fill="none" stroke="black" d="M2831.19,-576.765C2825.05,-565.456 2816.89,-550.437 2810.77,-539.147"/>
</g>
<!-- 8378 -->
<g id="node63" class="node"><title>8378</title>
<ellipse fill="none" stroke="black" cx="2830" cy="-450" rx="28.6953" ry="18"/>
<text text-anchor="middle" x="2830" y="-446.3" font-family="Times New Roman,serif" font-size="14.00">8378</text>
</g>
<!-- 8375&#45;&#45;8378 -->
<g id="edge126" class="edge"><title>8375&#45;&#45;8378</title>
<path fill="none" stroke="black" d="M2840.94,-575.894C2841.71,-557.943 2842.33,-528.923 2840,-504 2838.87,-491.88 2836.31,-478.402 2834.06,-468.071"/>
</g>
<!-- 8376&#45;&#45;8378 -->
<g id="edge127" class="edge"><title>8376&#45;&#45;8378</title>
<path fill="none" stroke="black" d="M2808.64,-504.411C2813.03,-493.414 2818.79,-479.027 2823.22,-467.956"/>
</g>
<!-- 9681 -->
<g id="node64" class="node"><title>9681</title>
<ellipse fill="none" stroke="black" cx="2934" cy="-594" rx="28.6953" ry="18"/>
<text text-anchor="middle" x="2934" y="-590.3" font-family="Times New Roman,serif" font-size="14.00">9681</text>
</g>
<!-- 9682 -->
<g id="node65" class="node"><title>9682</title>
<ellipse fill="none" stroke="black" cx="2934" cy="-522" rx="28.6953" ry="18"/>
<text text-anchor="middle" x="2934" y="-518.3" font-family="Times New Roman,serif" font-size="14.00">9682</text>
</g>
<!-- 9681&#45;&#45;9682 -->
<g id="edge128" class="edge"><title>9681&#45;&#45;9682</title>
<path fill="none" stroke="black" d="M2934,-575.697C2934,-564.846 2934,-550.917 2934,-540.104"/>
</g>
<!-- 9685 -->
<g id="node66" class="node"><title>9685</title>
<ellipse fill="none" stroke="black" cx="3009" cy="-594" rx="28.6953" ry="18"/>
<text text-anchor="middle" x="3009" y="-590.3" font-family="Times New Roman,serif" font-size="14.00">9685</text>
</g>
<!-- 9686 -->
<g id="node67" class="node"><title>9686</title>
<ellipse fill="none" stroke="black" cx="3009" cy="-522" rx="28.6953" ry="18"/>
<text text-anchor="middle" x="3009" y="-518.3" font-family="Times New Roman,serif" font-size="14.00">9686</text>
</g>
<!-- 9685&#45;&#45;9686 -->
<g id="edge129" class="edge"><title>9685&#45;&#45;9686</title>
<path fill="none" stroke="black" d="M3009,-575.697C3009,-564.846 3009,-550.917 3009,-540.104"/>
</g>
<!-- 10217 -->
<g id="node68" class="node"><title>10217</title>
<ellipse fill="none" stroke="black" cx="3088" cy="-594" rx="32.4942" ry="18"/>
<text text-anchor="middle" x="3088" y="-590.3" font-family="Times New Roman,serif" font-size="14.00">10217</text>
</g>
<!-- 10218 -->
<g id="node69" class="node"><title>10218</title>
<ellipse fill="none" stroke="black" cx="3129" cy="-522" rx="32.4942" ry="18"/>
<text text-anchor="middle" x="3129" y="-518.3" font-family="Times New Roman,serif" font-size="14.00">10218</text>
</g>
<!-- 10217&#45;&#45;10218 -->
<g id="edge130" class="edge"><title>10217&#45;&#45;10218</title>
<path fill="none" stroke="black" d="M3097.51,-576.765C3104.04,-565.618 3112.68,-550.865 3119.26,-539.633"/>
</g>
<!-- 10659 -->
<g id="node70" class="node"><title>10659</title>
<ellipse fill="none" stroke="black" cx="3171" cy="-594" rx="32.4942" ry="18"/>
<text text-anchor="middle" x="3171" y="-590.3" font-family="Times New Roman,serif" font-size="14.00">10659</text>
</g>
<!-- 10659&#45;&#45;10218 -->
<g id="edge131" class="edge"><title>10659&#45;&#45;10218</title>
<path fill="none" stroke="black" d="M3161.26,-576.765C3154.57,-565.618 3145.72,-550.865 3138.98,-539.633"/>
</g>
</g>
</svg>
