<svg width="552px" height="347px"
 viewBox="0.00 0.00 414.26 260.00" xmlns="http://www.w3.org/2000/svg" xmlns:xlink="http://www.w3.org/1999/xlink">
<g id="graph0" class="graph" transform="scale(1.000022500562514 1.000022500562514) rotate(0) translate(4 256)">
<title>G</title>
<polygon fill="white" stroke="none" points="-4,4 -4,-256 410.256,-256 410.256,4 -4,4"/>
<!-- 1279 -->
<g id="node1" class="node"><title>1279</title>
<ellipse fill="none" stroke="black" cx="28.5975" cy="-234" rx="28.6953" ry="18"/>
<text text-anchor="middle" x="28.5975" y="-230.3" font-family="Times New Roman,serif" font-size="14.00">1279</text>
</g>
<!-- 1280 -->
<g id="node2" class="node"><title>1280</title>
<ellipse fill="none" stroke="black" cx="28.5975" cy="-162" rx="28.6953" ry="18"/>
<text text-anchor="middle" x="28.5975" y="-158.3" font-family="Times New Roman,serif" font-size="14.00">1280</text>
</g>
<!-- 1279&#45;&#45;1280 -->
<g id="edge1" class="edge"><title>1279&#45;&#45;1280</title>
<path fill="none" stroke="black" d="M28.5975,-215.697C28.5975,-204.846 28.5975,-190.917 28.5975,-180.104"/>
</g>
<!-- 1349 -->
<g id="node3" class="node"><title>1349</title>
<polygon fill="#7f8694" stroke="#7f8694" points="156.597,-252 102.597,-252 102.597,-216 156.597,-216 156.597,-252"/>
<text text-anchor="middle" x="129.597" y="-230.3" font-family="Times New Roman,serif" font-size="14.00">1349</text>
</g>
<!-- 1350 -->
<g id="node4" class="node"><title>1350</title>
<polygon fill="#60447b" stroke="#60447b" points="129.597,-180 75.5975,-180 75.5975,-144 129.597,-144 129.597,-180"/>
<text text-anchor="middle" x="102.597" y="-158.3" font-family="Times New Roman,serif" font-size="14.00">1350</text>
</g>
<!-- 1349&#45;&#45;1350 -->
<g id="edge2" class="edge"><title>1349&#45;&#45;1350</title>
<path fill="none" stroke="black" d="M122.923,-215.697C118.738,-204.846 113.365,-190.917 109.195,-180.104"/>
</g>
<!-- 1352 -->
<g id="node5" class="node"><title>1352</title>
<polygon fill="#605a6d" stroke="#605a6d" points="147.597,-108 93.5975,-108 93.5975,-72 147.597,-72 147.597,-108"/>
<text text-anchor="middle" x="120.597" y="-86.3" font-family="Times New Roman,serif" font-size="14.00">1352</text>
</g>
<!-- 1349&#45;&#45;1352 -->
<g id="edge3" class="edge"><title>1349&#45;&#45;1352</title>
<path fill="none" stroke="black" d="M134.005,-215.854C138.004,-197.869 142.698,-168.823 138.597,-144 136.57,-131.728 132.07,-118.478 128.077,-108.296"/>
</g>
<!-- 1350&#45;&#45;1352 -->
<g id="edge4" class="edge"><title>1350&#45;&#45;1352</title>
<path fill="none" stroke="black" d="M107.047,-143.697C109.837,-132.846 113.419,-118.917 116.199,-108.104"/>
</g>
<!-- 5131 -->
<g id="node6" class="node"><title>5131</title>
<polygon fill="#72457d" stroke="#72457d" points="266.597,-252 212.597,-252 212.597,-216 266.597,-216 266.597,-252"/>
<text text-anchor="middle" x="239.597" y="-230.3" font-family="Times New Roman,serif" font-size="14.00">5131</text>
</g>
<!-- 5132 -->
<g id="node7" class="node"><title>5132</title>
<polygon fill="#359b33" stroke="#359b33" points="239.597,-180 185.597,-180 185.597,-144 239.597,-144 239.597,-180"/>
<text text-anchor="middle" x="212.597" y="-158.3" font-family="Times New Roman,serif" font-size="14.00">5132</text>
</g>
<!-- 5131&#45;&#45;5132 -->
<g id="edge5" class="edge"><title>5131&#45;&#45;5132</title>
<path fill="none" stroke="black" d="M232.923,-215.697C228.738,-204.846 223.365,-190.917 219.195,-180.104"/>
</g>
<!-- 5134 -->
<g id="node8" class="node"><title>5134</title>
<ellipse fill="#72457d" stroke="#72457d" cx="225.597" cy="-90" rx="28.6953" ry="18"/>
<text text-anchor="middle" x="225.597" y="-86.3" font-family="Times New Roman,serif" font-size="14.00">5134</text>
</g>
<!-- 5131&#45;&#45;5134 -->
<g id="edge6" class="edge"><title>5131&#45;&#45;5134</title>
<path fill="none" stroke="black" d="M244.415,-215.777C248.749,-197.73 253.712,-168.634 248.597,-144 245.906,-131.036 239.875,-117.35 234.664,-107.134"/>
</g>
<!-- 5132&#45;&#45;5134 -->
<g id="edge7" class="edge"><title>5132&#45;&#45;5134</title>
<path fill="none" stroke="black" d="M215.811,-143.697C217.826,-132.846 220.413,-118.917 222.421,-108.104"/>
</g>
<!-- 5307 -->
<g id="node9" class="node"><title>5307</title>
<ellipse fill="none" stroke="black" cx="362.597" cy="-234" rx="28.6953" ry="18"/>
<text text-anchor="middle" x="362.597" y="-230.3" font-family="Times New Roman,serif" font-size="14.00">5307</text>
</g>
<!-- 5308 -->
<g id="node10" class="node"><title>5308</title>
<ellipse fill="none" stroke="black" cx="362.597" cy="-162" rx="28.6953" ry="18"/>
<text text-anchor="middle" x="362.597" y="-158.3" font-family="Times New Roman,serif" font-size="14.00">5308</text>
</g>
<!-- 5307&#45;&#45;5308 -->
<g id="edge8" class="edge"><title>5307&#45;&#45;5308</title>
<path fill="none" stroke="black" d="M362.597,-215.697C362.597,-204.846 362.597,-190.917 362.597,-180.104"/>
</g>
<!-- 5310 -->
<g id="node11" class="node"><title>5310</title>
<ellipse fill="none" stroke="black" cx="314.597" cy="-90" rx="28.6953" ry="18"/>
<text text-anchor="middle" x="314.597" y="-86.3" font-family="Times New Roman,serif" font-size="14.00">5310</text>
</g>
<!-- 5307&#45;&#45;5310 -->
<g id="edge9" class="edge"><title>5307&#45;&#45;5310</title>
<path fill="none" stroke="black" d="M348.641,-218.011C340.197,-208.019 330.041,-194.161 324.597,-180 315.449,-156.198 313.918,-126.367 313.999,-107.999"/>
</g>
<!-- 5312 -->
<g id="node12" class="node"><title>5312</title>
<ellipse fill="none" stroke="black" cx="371.597" cy="-18" rx="28.6953" ry="18"/>
<text text-anchor="middle" x="371.597" y="-14.3" font-family="Times New Roman,serif" font-size="14.00">5312</text>
</g>
<!-- 5307&#45;&#45;5312 -->
<g id="edge10" class="edge"><title>5307&#45;&#45;5312</title>
<path fill="none" stroke="black" d="M377.099,-218.203C385.761,-208.288 395.955,-194.444 400.597,-180 417.111,-128.627 393.138,-64.825 379.679,-35.3419"/>
</g>
<!-- 5308&#45;&#45;5310 -->
<g id="edge11" class="edge"><title>5308&#45;&#45;5310</title>
<path fill="none" stroke="black" d="M351.706,-145.116C343.85,-133.66 333.292,-118.263 325.446,-106.821"/>
</g>
<!-- 5308&#45;&#45;5312 -->
<g id="edge12" class="edge"><title>5308&#45;&#45;5312</title>
<path fill="none" stroke="black" d="M363.683,-143.871C365.413,-116.578 368.776,-63.5205 370.508,-36.1893"/>
</g>
<!-- 5310&#45;&#45;5312 -->
<g id="edge13" class="edge"><title>5310&#45;&#45;5312</title>
<path fill="none" stroke="black" d="M327.248,-73.4647C336.693,-61.8645 349.545,-46.0816 358.983,-34.4918"/>
</g>
</g>
</svg>
