<svg width="1972px" height="539px"
 viewBox="0.00 0.00 1478.99 404.00" xmlns="http://www.w3.org/2000/svg" xmlns:xlink="http://www.w3.org/1999/xlink">
<g id="graph0" class="graph" transform="scale(1.000022500562514 1.000022500562514) rotate(0) translate(4 400)">
<title>G</title>
<polygon fill="white" stroke="none" points="-4,4 -4,-400 1474.99,-400 1474.99,4 -4,4"/>
<!-- 2507 -->
<g id="node1" class="node"><title>2507</title>
<ellipse fill="none" stroke="black" cx="317.497" cy="-234" rx="28.6953" ry="18"/>
<text text-anchor="middle" x="317.497" y="-230.3" font-family="Times New Roman,serif" font-size="14.00">2507</text>
</g>
<!-- 2508 -->
<g id="node2" class="node"><title>2508</title>
<ellipse fill="none" stroke="black" cx="298.497" cy="-162" rx="28.6953" ry="18"/>
<text text-anchor="middle" x="298.497" y="-158.3" font-family="Times New Roman,serif" font-size="14.00">2508</text>
</g>
<!-- 2507&#45;&#45;2508 -->
<g id="edge1" class="edge"><title>2507&#45;&#45;2508</title>
<path fill="none" stroke="black" d="M312.898,-216.055C309.91,-205.049 306.033,-190.764 303.054,-179.789"/>
</g>
<!-- 2510 -->
<g id="node5" class="node"><title>2510</title>
<polygon fill="#586877" stroke="#586877" points="486.497,-36 432.497,-36 432.497,-0 486.497,-0 486.497,-36"/>
<text text-anchor="middle" x="459.497" y="-14.3" font-family="Times New Roman,serif" font-size="14.00">2510</text>
</g>
<!-- 2507&#45;&#45;2510 -->
<g id="edge2" class="edge"><title>2507&#45;&#45;2510</title>
<path fill="none" stroke="black" d="M326.838,-216.611C343.868,-187.053 381.531,-123.136 417.497,-72 426.142,-59.7083 436.642,-46.4583 444.981,-36.2812"/>
</g>
<!-- 2514 -->
<g id="node3" class="node"><title>2514</title>
<polygon fill="#647b45" stroke="#647b45" points="175.497,-108 121.497,-108 121.497,-72 175.497,-72 175.497,-108"/>
<text text-anchor="middle" x="148.497" y="-86.3" font-family="Times New Roman,serif" font-size="14.00">2514</text>
</g>
<!-- 2508&#45;&#45;2514 -->
<g id="edge3" class="edge"><title>2508&#45;&#45;2514</title>
<path fill="none" stroke="black" d="M276.041,-150.52C249.234,-138.01 204.429,-117.102 175.688,-103.689"/>
</g>
<!-- 2522 -->
<g id="node4" class="node"><title>2522</title>
<ellipse fill="#647b45" stroke="#647b45" cx="176.497" cy="-18" rx="28.6953" ry="18"/>
<text text-anchor="middle" x="176.497" y="-14.3" font-family="Times New Roman,serif" font-size="14.00">2522</text>
</g>
<!-- 2508&#45;&#45;2522 -->
<g id="edge4" class="edge"><title>2508&#45;&#45;2522</title>
<path fill="none" stroke="black" d="M285.441,-145.804C261.959,-118.473 212.873,-61.3386 189.459,-34.0872"/>
</g>
<!-- 2508&#45;&#45;2510 -->
<g id="edge5" class="edge"><title>2508&#45;&#45;2510</title>
<path fill="none" stroke="black" d="M310.65,-145.443C325.662,-126.78 352.534,-95.1182 379.497,-72 395.939,-57.9026 416.312,-44.4555 432.384,-34.6337"/>
</g>
<!-- 9692 -->
<g id="node6" class="node"><title>9692</title>
<ellipse fill="none" stroke="black" cx="298.497" cy="-90" rx="28.6953" ry="18"/>
<text text-anchor="middle" x="298.497" y="-86.3" font-family="Times New Roman,serif" font-size="14.00">9692</text>
</g>
<!-- 2508&#45;&#45;9692 -->
<g id="edge6" class="edge"><title>2508&#45;&#45;9692</title>
<path fill="none" stroke="black" d="M298.497,-143.697C298.497,-132.846 298.497,-118.917 298.497,-108.104"/>
</g>
<!-- 2514&#45;&#45;2522 -->
<g id="edge7" class="edge"><title>2514&#45;&#45;2522</title>
<path fill="none" stroke="black" d="M155.418,-71.6966C159.823,-60.6843 165.497,-46.5002 169.848,-35.6223"/>
</g>
<!-- 2514&#45;&#45;2510 -->
<g id="edge8" class="edge"><title>2514&#45;&#45;2510</title>
<path fill="none" stroke="black" d="M175.552,-82.9104C234.37,-69.6718 373.322,-38.3964 432.283,-25.1254"/>
</g>
<!-- 2511 -->
<g id="node7" class="node"><title>2511</title>
<polygon fill="#928869" stroke="#928869" points="384.497,-324 330.497,-324 330.497,-288 384.497,-288 384.497,-324"/>
<text text-anchor="middle" x="357.497" y="-302.3" font-family="Times New Roman,serif" font-size="14.00">2511</text>
</g>
<!-- 2511&#45;&#45;2514 -->
<g id="edge10" class="edge"><title>2511&#45;&#45;2514</title>
<path fill="none" stroke="black" d="M330.445,-289.351C314.745,-279.623 295.061,-266.277 279.497,-252 229.043,-205.717 181.321,-139.45 160.068,-108.357"/>
</g>
<!-- 2511&#45;&#45;2510 -->
<g id="edge11" class="edge"><title>2511&#45;&#45;2510</title>
<path fill="none" stroke="black" d="M371.613,-287.762C388.191,-268.36 417.286,-236.833 447.497,-216 479.262,-194.096 502.207,-209.98 526.497,-180 557.044,-142.298 565.814,-114.554 542.497,-72 530.749,-50.559 506.227,-36.5342 486.869,-28.3305"/>
</g>
<!-- 2512 -->
<g id="node8" class="node"><title>2512</title>
<ellipse fill="#928869" stroke="#928869" cx="602.497" cy="-162" rx="28.6953" ry="18"/>
<text text-anchor="middle" x="602.497" y="-158.3" font-family="Times New Roman,serif" font-size="14.00">2512</text>
</g>
<!-- 2511&#45;&#45;2512 -->
<g id="edge9" class="edge"><title>2511&#45;&#45;2512</title>
<path fill="none" stroke="black" d="M384.652,-289.261C434.114,-260.594 537.846,-200.471 581.95,-174.909"/>
</g>
<!-- 6692 -->
<g id="node9" class="node"><title>6692</title>
<polygon fill="#715175" stroke="#715175" points="209.497,-252 155.497,-252 155.497,-216 209.497,-216 209.497,-252"/>
<text text-anchor="middle" x="182.497" y="-230.3" font-family="Times New Roman,serif" font-size="14.00">6692</text>
</g>
<!-- 2511&#45;&#45;6692 -->
<g id="edge12" class="edge"><title>2511&#45;&#45;6692</title>
<path fill="none" stroke="black" d="M330.496,-294.471C303.397,-283.868 260.481,-266.98 223.497,-252 219.069,-250.206 214.381,-248.284 209.819,-246.402"/>
</g>
<!-- 2512&#45;&#45;2510 -->
<g id="edge13" class="edge"><title>2512&#45;&#45;2510</title>
<path fill="none" stroke="black" d="M606.562,-144.127C610.183,-124.771 612.817,-93.0064 597.497,-72 571.713,-36.6453 519.061,-24.8746 486.767,-20.9558"/>
</g>
<!-- 6692&#45;&#45;2514 -->
<g id="edge14" class="edge"><title>6692&#45;&#45;2514</title>
<path fill="none" stroke="black" d="M178.396,-215.871C171.861,-188.578 159.157,-135.52 152.613,-108.189"/>
</g>
<!-- 6692&#45;&#45;2510 -->
<g id="edge15" class="edge"><title>6692&#45;&#45;2510</title>
<path fill="none" stroke="black" d="M185.829,-215.993C193.193,-183.036 214.025,-110.353 260.497,-72 310.959,-30.3543 390.966,-21.1659 432.491,-19.3119"/>
</g>
<!-- 6968 -->
<g id="node10" class="node"><title>6968</title>
<ellipse fill="none" stroke="black" cx="32.4971" cy="-162" rx="28.6953" ry="18"/>
<text text-anchor="middle" x="32.4971" y="-158.3" font-family="Times New Roman,serif" font-size="14.00">6968</text>
</g>
<!-- 6692&#45;&#45;6968 -->
<g id="edge16" class="edge"><title>6692&#45;&#45;6968</title>
<path fill="none" stroke="black" d="M155.333,-220.324C126.629,-206.928 81.8791,-186.045 55.0525,-173.526"/>
</g>
<!-- 6968&#45;&#45;2514 -->
<g id="edge17" class="edge"><title>6968&#45;&#45;2514</title>
<path fill="none" stroke="black" d="M52.4382,-148.967C71.4828,-137.474 100.329,-120.067 121.441,-107.327"/>
</g>
<!-- 11054 -->
<g id="node11" class="node"><title>11054</title>
<ellipse fill="none" stroke="black" cx="32.4971" cy="-90" rx="32.4942" ry="18"/>
<text text-anchor="middle" x="32.4971" y="-86.3" font-family="Times New Roman,serif" font-size="14.00">11054</text>
</g>
<!-- 6968&#45;&#45;11054 -->
<g id="edge18" class="edge"><title>6968&#45;&#45;11054</title>
<path fill="none" stroke="black" d="M32.4971,-143.697C32.4971,-132.846 32.4971,-118.917 32.4971,-108.104"/>
</g>
<!-- 5339 -->
<g id="node12" class="node"><title>5339</title>
<ellipse fill="none" stroke="black" cx="753.497" cy="-378" rx="28.6953" ry="18"/>
<text text-anchor="middle" x="753.497" y="-374.3" font-family="Times New Roman,serif" font-size="14.00">5339</text>
</g>
<!-- 5340 -->
<g id="node13" class="node"><title>5340</title>
<ellipse fill="none" stroke="black" cx="786.497" cy="-306" rx="28.6953" ry="18"/>
<text text-anchor="middle" x="786.497" y="-302.3" font-family="Times New Roman,serif" font-size="14.00">5340</text>
</g>
<!-- 5339&#45;&#45;5340 -->
<g id="edge19" class="edge"><title>5339&#45;&#45;5340</title>
<path fill="none" stroke="black" d="M761.318,-360.411C766.578,-349.252 773.484,-334.604 778.733,-323.47"/>
</g>
<!-- 5342 -->
<g id="node14" class="node"><title>5342</title>
<ellipse fill="none" stroke="black" cx="716.497" cy="-234" rx="28.6953" ry="18"/>
<text text-anchor="middle" x="716.497" y="-230.3" font-family="Times New Roman,serif" font-size="14.00">5342</text>
</g>
<!-- 5339&#45;&#45;5342 -->
<g id="edge20" class="edge"><title>5339&#45;&#45;5342</title>
<path fill="none" stroke="black" d="M749.107,-360.153C741.986,-332.824 727.998,-279.14 720.881,-251.825"/>
</g>
<!-- 5340&#45;&#45;5342 -->
<g id="edge21" class="edge"><title>5340&#45;&#45;5342</title>
<path fill="none" stroke="black" d="M771.652,-290.155C759.773,-278.276 743.195,-261.697 731.321,-249.824"/>
</g>
<!-- 7274 -->
<g id="node15" class="node"><title>7274</title>
<ellipse fill="none" stroke="black" cx="791.497" cy="-234" rx="28.6953" ry="18"/>
<text text-anchor="middle" x="791.497" y="-230.3" font-family="Times New Roman,serif" font-size="14.00">7274</text>
</g>
<!-- 5340&#45;&#45;7274 -->
<g id="edge22" class="edge"><title>5340&#45;&#45;7274</title>
<path fill="none" stroke="black" d="M787.733,-287.697C788.508,-276.846 789.503,-262.917 790.275,-252.104"/>
</g>
<!-- 7276 -->
<g id="node16" class="node"><title>7276</title>
<ellipse fill="none" stroke="black" cx="819.497" cy="-162" rx="28.6953" ry="18"/>
<text text-anchor="middle" x="819.497" y="-158.3" font-family="Times New Roman,serif" font-size="14.00">7276</text>
</g>
<!-- 5340&#45;&#45;7276 -->
<g id="edge23" class="edge"><title>5340&#45;&#45;7276</title>
<path fill="none" stroke="black" d="M802.434,-290.993C812.312,-281.196 824.111,-267.188 829.497,-252 838.02,-227.967 831.519,-198.201 825.746,-179.91"/>
</g>
<!-- 7274&#45;&#45;7276 -->
<g id="edge24" class="edge"><title>7274&#45;&#45;7276</title>
<path fill="none" stroke="black" d="M798.133,-216.411C802.531,-205.414 808.286,-191.027 812.715,-179.956"/>
</g>
<!-- 5961 -->
<g id="node17" class="node"><title>5961</title>
<ellipse fill="none" stroke="black" cx="861.497" cy="-378" rx="28.6953" ry="18"/>
<text text-anchor="middle" x="861.497" y="-374.3" font-family="Times New Roman,serif" font-size="14.00">5961</text>
</g>
<!-- 5962 -->
<g id="node18" class="node"><title>5962</title>
<ellipse fill="none" stroke="black" cx="861.497" cy="-306" rx="28.6953" ry="18"/>
<text text-anchor="middle" x="861.497" y="-302.3" font-family="Times New Roman,serif" font-size="14.00">5962</text>
</g>
<!-- 5961&#45;&#45;5962 -->
<g id="edge25" class="edge"><title>5961&#45;&#45;5962</title>
<path fill="none" stroke="black" d="M861.497,-359.697C861.497,-348.846 861.497,-334.917 861.497,-324.104"/>
</g>
<!-- 6689 -->
<g id="node19" class="node"><title>6689</title>
<polygon fill="#898f84" stroke="#898f84" points="421.497,-396 367.497,-396 367.497,-360 421.497,-360 421.497,-396"/>
<text text-anchor="middle" x="394.497" y="-374.3" font-family="Times New Roman,serif" font-size="14.00">6689</text>
</g>
<!-- 6689&#45;&#45;2510 -->
<g id="edge28" class="edge"><title>6689&#45;&#45;2510</title>
<path fill="none" stroke="black" d="M421.859,-375.078C489.566,-368.691 659.497,-342.001 659.497,-235 659.497,-235 659.497,-235 659.497,-161 659.497,-117.261 650.185,-101.062 617.497,-72 580.091,-38.7418 521.086,-26.2301 486.757,-21.613"/>
</g>
<!-- 6689&#45;&#45;2511 -->
<g id="edge26" class="edge"><title>6689&#45;&#45;2511</title>
<path fill="none" stroke="black" d="M385.351,-359.697C379.616,-348.846 372.253,-334.917 366.538,-324.104"/>
</g>
<!-- 6689&#45;&#45;6692 -->
<g id="edge27" class="edge"><title>6689&#45;&#45;6692</title>
<path fill="none" stroke="black" d="M368.925,-359.871C328.178,-332.578 248.964,-279.52 208.16,-252.189"/>
</g>
<!-- 7562 -->
<g id="node20" class="node"><title>7562</title>
<ellipse fill="#586877" stroke="#586877" cx="431.497" cy="-306" rx="28.6953" ry="18"/>
<text text-anchor="middle" x="431.497" y="-302.3" font-family="Times New Roman,serif" font-size="14.00">7562</text>
</g>
<!-- 6689&#45;&#45;7562 -->
<g id="edge29" class="edge"><title>6689&#45;&#45;7562</title>
<path fill="none" stroke="black" d="M403.643,-359.697C409.464,-348.684 416.961,-334.5 422.711,-323.622"/>
</g>
<!-- 7562&#45;&#45;2510 -->
<g id="edge30" class="edge"><title>7562&#45;&#45;2510</title>
<path fill="none" stroke="black" d="M432.377,-287.992C434.48,-249.448 440.394,-152.54 450.497,-72 452.007,-59.9613 454.304,-46.4821 456.2,-36.1299"/>
</g>
<!-- 6701 -->
<g id="node21" class="node"><title>6701</title>
<ellipse fill="#586877" stroke="#586877" cx="488.497" cy="-162" rx="28.6953" ry="18"/>
<text text-anchor="middle" x="488.497" y="-158.3" font-family="Times New Roman,serif" font-size="14.00">6701</text>
</g>
<!-- 6701&#45;&#45;2510 -->
<g id="edge32" class="edge"><title>6701&#45;&#45;2510</title>
<path fill="none" stroke="black" d="M502.694,-146.32C518.1,-128.52 538.94,-97.7085 526.497,-72 518.227,-54.9122 501.477,-41.6622 486.794,-32.6842"/>
</g>
<!-- 6702 -->
<g id="node22" class="node"><title>6702</title>
<ellipse fill="#586877" stroke="#586877" cx="488.497" cy="-90" rx="28.6953" ry="18"/>
<text text-anchor="middle" x="488.497" y="-86.3" font-family="Times New Roman,serif" font-size="14.00">6702</text>
</g>
<!-- 6701&#45;&#45;6702 -->
<g id="edge31" class="edge"><title>6701&#45;&#45;6702</title>
<path fill="none" stroke="black" d="M488.497,-143.697C488.497,-132.846 488.497,-118.917 488.497,-108.104"/>
</g>
<!-- 6702&#45;&#45;2510 -->
<g id="edge33" class="edge"><title>6702&#45;&#45;2510</title>
<path fill="none" stroke="black" d="M481.625,-72.411C477.136,-61.5758 471.283,-47.4498 466.725,-36.4468"/>
</g>
<!-- 6965 -->
<g id="node23" class="node"><title>6965</title>
<ellipse fill="none" stroke="black" cx="70.4971" cy="-306" rx="28.6953" ry="18"/>
<text text-anchor="middle" x="70.4971" y="-302.3" font-family="Times New Roman,serif" font-size="14.00">6965</text>
</g>
<!-- 6965&#45;&#45;2514 -->
<g id="edge36" class="edge"><title>6965&#45;&#45;2514</title>
<path fill="none" stroke="black" d="M83.8269,-289.746C92.0211,-279.649 102.134,-265.773 108.497,-252 131.326,-202.584 142.249,-138.379 146.403,-108.157"/>
</g>
<!-- 6965&#45;&#45;6968 -->
<g id="edge35" class="edge"><title>6965&#45;&#45;6968</title>
<path fill="none" stroke="black" d="M55.9954,-290.203C47.3339,-280.288 37.14,-266.444 32.4971,-252 24.7896,-228.023 26.8971,-198.497 29.4456,-180.21"/>
</g>
<!-- 6966 -->
<g id="node24" class="node"><title>6966</title>
<ellipse fill="none" stroke="black" cx="70.4971" cy="-234" rx="28.6953" ry="18"/>
<text text-anchor="middle" x="70.4971" y="-230.3" font-family="Times New Roman,serif" font-size="14.00">6966</text>
</g>
<!-- 6965&#45;&#45;6966 -->
<g id="edge34" class="edge"><title>6965&#45;&#45;6966</title>
<path fill="none" stroke="black" d="M70.4971,-287.697C70.4971,-276.846 70.4971,-262.917 70.4971,-252.104"/>
</g>
<!-- 6966&#45;&#45;2514 -->
<g id="edge38" class="edge"><title>6966&#45;&#45;2514</title>
<path fill="none" stroke="black" d="M77.7778,-216.258C85.8544,-198.111 99.5904,-168.467 113.497,-144 120.472,-131.729 129.222,-118.479 136.228,-108.297"/>
</g>
<!-- 6966&#45;&#45;6968 -->
<g id="edge37" class="edge"><title>6966&#45;&#45;6968</title>
<path fill="none" stroke="black" d="M61.6836,-216.765C55.5446,-205.456 47.3913,-190.437 41.2628,-179.147"/>
</g>
<!-- 9321 -->
<g id="node25" class="node"><title>9321</title>
<ellipse fill="none" stroke="black" cx="936.497" cy="-378" rx="28.6953" ry="18"/>
<text text-anchor="middle" x="936.497" y="-374.3" font-family="Times New Roman,serif" font-size="14.00">9321</text>
</g>
<!-- 9322 -->
<g id="node26" class="node"><title>9322</title>
<ellipse fill="none" stroke="black" cx="936.497" cy="-306" rx="28.6953" ry="18"/>
<text text-anchor="middle" x="936.497" y="-302.3" font-family="Times New Roman,serif" font-size="14.00">9322</text>
</g>
<!-- 9321&#45;&#45;9322 -->
<g id="edge39" class="edge"><title>9321&#45;&#45;9322</title>
<path fill="none" stroke="black" d="M936.497,-359.697C936.497,-348.846 936.497,-334.917 936.497,-324.104"/>
</g>
<!-- 10457 -->
<g id="node27" class="node"><title>10457</title>
<ellipse fill="none" stroke="black" cx="1126.5" cy="-378" rx="32.4942" ry="18"/>
<text text-anchor="middle" x="1126.5" y="-374.3" font-family="Times New Roman,serif" font-size="14.00">10457</text>
</g>
<!-- 10458 -->
<g id="node28" class="node"><title>10458</title>
<ellipse fill="none" stroke="black" cx="1126.5" cy="-306" rx="32.4942" ry="18"/>
<text text-anchor="middle" x="1126.5" y="-302.3" font-family="Times New Roman,serif" font-size="14.00">10458</text>
</g>
<!-- 10457&#45;&#45;10458 -->
<g id="edge40" class="edge"><title>10457&#45;&#45;10458</title>
<path fill="none" stroke="black" d="M1126.5,-359.697C1126.5,-348.846 1126.5,-334.917 1126.5,-324.104"/>
</g>
<!-- 10460 -->
<g id="node29" class="node"><title>10460</title>
<ellipse fill="none" stroke="black" cx="1205.5" cy="-234" rx="32.4942" ry="18"/>
<text text-anchor="middle" x="1205.5" y="-230.3" font-family="Times New Roman,serif" font-size="14.00">10460</text>
</g>
<!-- 10457&#45;&#45;10460 -->
<g id="edge41" class="edge"><title>10457&#45;&#45;10460</title>
<path fill="none" stroke="black" d="M1140.18,-361.521C1148.74,-351.333 1159.6,-337.442 1167.5,-324 1181.45,-300.24 1193.12,-270.397 1199.71,-252.016"/>
</g>
<!-- 10462 -->
<g id="node30" class="node"><title>10462</title>
<ellipse fill="none" stroke="black" cx="1205.5" cy="-162" rx="32.4942" ry="18"/>
<text text-anchor="middle" x="1205.5" y="-158.3" font-family="Times New Roman,serif" font-size="14.00">10462</text>
</g>
<!-- 10457&#45;&#45;10462 -->
<g id="edge42" class="edge"><title>10457&#45;&#45;10462</title>
<path fill="none" stroke="black" d="M1147.3,-364.033C1176.74,-344.209 1228.92,-303.218 1246.5,-252 1251.69,-236.866 1251.67,-231.141 1246.5,-216 1241.53,-201.469 1230.79,-187.832 1221.54,-178.03"/>
</g>
<!-- 10464 -->
<g id="node31" class="node"><title>10464</title>
<ellipse fill="none" stroke="black" cx="1137.5" cy="-90" rx="32.4942" ry="18"/>
<text text-anchor="middle" x="1137.5" y="-86.3" font-family="Times New Roman,serif" font-size="14.00">10464</text>
</g>
<!-- 10457&#45;&#45;10464 -->
<g id="edge43" class="edge"><title>10457&#45;&#45;10464</title>
<path fill="none" stroke="black" d="M1110.45,-361.97C1101.21,-352.168 1090.46,-338.531 1085.5,-324 1080.32,-308.859 1083.44,-303.867 1085.5,-288 1094.35,-219.772 1119.77,-141.501 1131.47,-107.833"/>
</g>
<!-- 10466 -->
<g id="node32" class="node"><title>10466</title>
<ellipse fill="none" stroke="black" cx="1137.5" cy="-18" rx="32.4942" ry="18"/>
<text text-anchor="middle" x="1137.5" y="-14.3" font-family="Times New Roman,serif" font-size="14.00">10466</text>
</g>
<!-- 10457&#45;&#45;10466 -->
<g id="edge44" class="edge"><title>10457&#45;&#45;10466</title>
<path fill="none" stroke="black" d="M1103.03,-365.544C1064.84,-345.068 993.497,-298.333 993.497,-235 993.497,-235 993.497,-235 993.497,-161 993.497,-94.9919 1071.16,-49.3517 1112.41,-29.7626"/>
</g>
<!-- 10458&#45;&#45;10460 -->
<g id="edge45" class="edge"><title>10458&#45;&#45;10460</title>
<path fill="none" stroke="black" d="M1143.25,-290.155C1156.75,-278.195 1175.62,-261.473 1189.04,-249.584"/>
</g>
<!-- 10458&#45;&#45;10462 -->
<g id="edge46" class="edge"><title>10458&#45;&#45;10462</title>
<path fill="none" stroke="black" d="M1132.29,-287.984C1138.87,-269.603 1150.54,-239.76 1164.5,-216 1172.39,-202.558 1183.25,-188.667 1191.82,-178.479"/>
</g>
<!-- 10458&#45;&#45;10464 -->
<g id="edge47" class="edge"><title>10458&#45;&#45;10464</title>
<path fill="none" stroke="black" d="M1127.38,-287.849C1129.44,-247.78 1134.55,-148.383 1136.61,-108.232"/>
</g>
<!-- 10458&#45;&#45;10466 -->
<g id="edge48" class="edge"><title>10458&#45;&#45;10466</title>
<path fill="none" stroke="black" d="M1119.38,-288.39C1103.77,-249.466 1069.93,-149.769 1096.5,-72 1101.46,-57.4688 1112.21,-43.8318 1121.45,-34.0303"/>
</g>
<!-- 10460&#45;&#45;10462 -->
<g id="edge49" class="edge"><title>10460&#45;&#45;10462</title>
<path fill="none" stroke="black" d="M1205.5,-215.697C1205.5,-204.846 1205.5,-190.917 1205.5,-180.104"/>
</g>
<!-- 10460&#45;&#45;10464 -->
<g id="edge50" class="edge"><title>10460&#45;&#45;10464</title>
<path fill="none" stroke="black" d="M1191.31,-217.8C1182.55,-207.724 1171.65,-193.852 1164.5,-180 1152.35,-156.469 1144.69,-126.561 1140.75,-108.104"/>
</g>
<!-- 10460&#45;&#45;10466 -->
<g id="edge51" class="edge"><title>10460&#45;&#45;10466</title>
<path fill="none" stroke="black" d="M1221.54,-217.97C1230.79,-208.168 1241.53,-194.531 1246.5,-180 1251.67,-164.859 1250.98,-159.358 1246.5,-144 1232.04,-94.5284 1184.51,-53.1264 1157.23,-32.6961"/>
</g>
<!-- 10462&#45;&#45;10464 -->
<g id="edge52" class="edge"><title>10462&#45;&#45;10464</title>
<path fill="none" stroke="black" d="M1190.74,-145.811C1179.34,-134.07 1163.62,-117.893 1152.22,-106.159"/>
</g>
<!-- 10462&#45;&#45;10466 -->
<g id="edge53" class="edge"><title>10462&#45;&#45;10466</title>
<path fill="none" stroke="black" d="M1202.25,-143.896C1198.31,-125.439 1190.64,-95.5311 1178.5,-72 1171.35,-58.1478 1160.45,-44.2759 1151.69,-34.2001"/>
</g>
<!-- 10464&#45;&#45;10466 -->
<g id="edge54" class="edge"><title>10464&#45;&#45;10466</title>
<path fill="none" stroke="black" d="M1137.5,-71.6966C1137.5,-60.8463 1137.5,-46.9167 1137.5,-36.1043"/>
</g>
<!-- 10697 -->
<g id="node33" class="node"><title>10697</title>
<ellipse fill="none" stroke="black" cx="1325.5" cy="-378" rx="32.4942" ry="18"/>
<text text-anchor="middle" x="1325.5" y="-374.3" font-family="Times New Roman,serif" font-size="14.00">10697</text>
</g>
<!-- 10698 -->
<g id="node34" class="node"><title>10698</title>
<ellipse fill="none" stroke="black" cx="1325.5" cy="-306" rx="32.4942" ry="18"/>
<text text-anchor="middle" x="1325.5" y="-302.3" font-family="Times New Roman,serif" font-size="14.00">10698</text>
</g>
<!-- 10697&#45;&#45;10698 -->
<g id="edge55" class="edge"><title>10697&#45;&#45;10698</title>
<path fill="none" stroke="black" d="M1325.5,-359.697C1325.5,-348.846 1325.5,-334.917 1325.5,-324.104"/>
</g>
<!-- 11099 -->
<g id="node35" class="node"><title>11099</title>
<ellipse fill="none" stroke="black" cx="1438.5" cy="-378" rx="32.4942" ry="18"/>
<text text-anchor="middle" x="1438.5" y="-374.3" font-family="Times New Roman,serif" font-size="14.00">11099</text>
</g>
<!-- 11100 -->
<g id="node36" class="node"><title>11100</title>
<ellipse fill="none" stroke="black" cx="1408.5" cy="-306" rx="32.4942" ry="18"/>
<text text-anchor="middle" x="1408.5" y="-302.3" font-family="Times New Roman,serif" font-size="14.00">11100</text>
</g>
<!-- 11099&#45;&#45;11100 -->
<g id="edge56" class="edge"><title>11099&#45;&#45;11100</title>
<path fill="none" stroke="black" d="M1431.39,-360.411C1426.67,-349.414 1420.51,-335.027 1415.76,-323.956"/>
</g>
<!-- 11102 -->
<g id="node37" class="node"><title>11102</title>
<ellipse fill="none" stroke="black" cx="1438.5" cy="-234" rx="32.4942" ry="18"/>
<text text-anchor="middle" x="1438.5" y="-230.3" font-family="Times New Roman,serif" font-size="14.00">11102</text>
</g>
<!-- 11099&#45;&#45;11102 -->
<g id="edge57" class="edge"><title>11099&#45;&#45;11102</title>
<path fill="none" stroke="black" d="M1442.96,-359.953C1445.43,-349.63 1448.25,-336.153 1449.5,-324 1451.13,-308.084 1451.13,-303.916 1449.5,-288 1448.25,-275.847 1445.43,-262.37 1442.96,-252.047"/>
</g>
<!-- 11100&#45;&#45;11102 -->
<g id="edge58" class="edge"><title>11100&#45;&#45;11102</title>
<path fill="none" stroke="black" d="M1415.61,-288.411C1420.32,-277.414 1426.49,-263.027 1431.23,-251.956"/>
</g>
</g>
</svg>
