<svg width="4258px" height="827px"
 viewBox="0.00 0.00 3193.50 620.00" xmlns="http://www.w3.org/2000/svg" xmlns:xlink="http://www.w3.org/1999/xlink">
<g id="graph0" class="graph" transform="scale(1.000022500562514 1.000022500562514) rotate(0) translate(4 616)">
<title>G</title>
<polygon fill="white" stroke="none" points="-4,4 -4,-616 3189.5,-616 3189.5,4 -4,4"/>
<!-- 145 -->
<g id="node1" class="node"><title>145</title>
<ellipse fill="none" stroke="black" cx="162" cy="-594" rx="27" ry="18"/>
<text text-anchor="middle" x="162" y="-590.3" font-family="Times New Roman,serif" font-size="14.00">145</text>
</g>
<!-- 146 -->
<g id="node2" class="node"><title>146</title>
<ellipse fill="cyan" stroke="cyan" cx="190" cy="-522" rx="27" ry="18"/>
<text text-anchor="middle" x="190" y="-518.3" font-family="Times New Roman,serif" font-size="14.00">146</text>
</g>
<!-- 145&#45;&#45;146 -->
<g id="edge1" class="edge"><title>145&#45;&#45;146</title>
<path fill="none" stroke="black" d="M168.636,-576.411C173.099,-565.252 178.959,-550.604 183.412,-539.47"/>
</g>
<!-- 148 -->
<g id="node3" class="node"><title>148</title>
<ellipse fill="none" stroke="black" cx="97" cy="-450" rx="27" ry="18"/>
<text text-anchor="middle" x="97" y="-446.3" font-family="Times New Roman,serif" font-size="14.00">148</text>
</g>
<!-- 145&#45;&#45;148 -->
<g id="edge2" class="edge"><title>145&#45;&#45;148</title>
<path fill="none" stroke="black" d="M154.416,-576.433C141.892,-549.071 117.028,-494.754 104.535,-467.462"/>
</g>
<!-- 150 -->
<g id="node4" class="node"><title>150</title>
<ellipse fill="cyan" stroke="cyan" cx="245" cy="-378" rx="27" ry="18"/>
<text text-anchor="middle" x="245" y="-374.3" font-family="Times New Roman,serif" font-size="14.00">150</text>
</g>
<!-- 145&#45;&#45;150 -->
<g id="edge3" class="edge"><title>145&#45;&#45;150</title>
<path fill="none" stroke="black" d="M182.33,-581.921C197.062,-572.736 216.071,-558.248 226,-540 251.558,-493.027 249.644,-427.094 246.959,-396.219"/>
</g>
<!-- 152 -->
<g id="node5" class="node"><title>152</title>
<ellipse fill="none" stroke="black" cx="131" cy="-306" rx="27" ry="18"/>
<text text-anchor="middle" x="131" y="-302.3" font-family="Times New Roman,serif" font-size="14.00">152</text>
</g>
<!-- 145&#45;&#45;152 -->
<g id="edge4" class="edge"><title>145&#45;&#45;152</title>
<path fill="none" stroke="black" d="M145.346,-579.381C121.212,-558.433 77.594,-515.695 61,-468 41.6703,-412.442 91.2724,-349.147 116.857,-321.358"/>
</g>
<!-- 154 -->
<g id="node6" class="node"><title>154</title>
<ellipse fill="none" stroke="black" cx="158" cy="-234" rx="27" ry="18"/>
<text text-anchor="middle" x="158" y="-230.3" font-family="Times New Roman,serif" font-size="14.00">154</text>
</g>
<!-- 145&#45;&#45;154 -->
<g id="edge5" class="edge"><title>145&#45;&#45;154</title>
<path fill="none" stroke="black" d="M138.444,-584.947C93.5135,-567.92 0,-523.743 0,-451 0,-451 0,-451 0,-377 0,-305.451 90.7362,-260.796 134.687,-243.363"/>
</g>
<!-- 5328 -->
<g id="node8" class="node"><title>5328</title>
<ellipse fill="cyan" stroke="cyan" cx="319" cy="-306" rx="28.6953" ry="18"/>
<text text-anchor="middle" x="319" y="-302.3" font-family="Times New Roman,serif" font-size="14.00">5328</text>
</g>
<!-- 145&#45;&#45;5328 -->
<g id="edge6" class="edge"><title>145&#45;&#45;5328</title>
<path fill="none" stroke="black" d="M184.68,-583.744C203.631,-574.983 230.182,-560.168 247,-540 302.181,-473.83 315.13,-365.627 318.12,-324.03"/>
</g>
<!-- 146&#45;&#45;148 -->
<g id="edge7" class="edge"><title>146&#45;&#45;148</title>
<path fill="none" stroke="black" d="M172.507,-507.834C155.88,-495.319 131.015,-476.603 114.414,-464.107"/>
</g>
<!-- 146&#45;&#45;150 -->
<g id="edge8" class="edge"><title>146&#45;&#45;150</title>
<path fill="none" stroke="black" d="M196.417,-504.433C206.958,-477.217 227.828,-423.334 238.454,-395.902"/>
</g>
<!-- 146&#45;&#45;152 -->
<g id="edge9" class="edge"><title>146&#45;&#45;152</title>
<path fill="none" stroke="black" d="M185.37,-504.208C174.368,-464.302 146.752,-364.134 135.69,-324.01"/>
</g>
<!-- 146&#45;&#45;154 -->
<g id="edge10" class="edge"><title>146&#45;&#45;154</title>
<path fill="none" stroke="black" d="M188.731,-503.997C185.765,-465.463 177.805,-368.575 167,-288 165.387,-275.975 163.092,-262.495 161.223,-252.14"/>
</g>
<!-- 6156 -->
<g id="node7" class="node"><title>6156</title>
<ellipse fill="none" stroke="black" cx="319" cy="-234" rx="28.6953" ry="18"/>
<text text-anchor="middle" x="319" y="-230.3" font-family="Times New Roman,serif" font-size="14.00">6156</text>
</g>
<!-- 146&#45;&#45;6156 -->
<g id="edge12" class="edge"><title>146&#45;&#45;6156</title>
<path fill="none" stroke="black" d="M209.194,-509.007C224.087,-499.131 244.704,-484.165 260,-468 313.036,-411.949 334.462,-397.801 357,-324 361.673,-308.698 361.896,-303.232 357,-288 352.357,-273.556 342.163,-259.712 333.502,-249.797"/>
</g>
<!-- 146&#45;&#45;5328 -->
<g id="edge11" class="edge"><title>146&#45;&#45;5328</title>
<path fill="none" stroke="black" d="M202.428,-505.92C210.95,-495.436 222.405,-481.055 232,-468 254.924,-436.811 262.424,-429.959 281,-396 294.223,-371.827 306.099,-342.1 312.928,-323.856"/>
</g>
<!-- 148&#45;&#45;150 -->
<g id="edge13" class="edge"><title>148&#45;&#45;150</title>
<path fill="none" stroke="black" d="M118.52,-438.821C146.58,-425.55 195.381,-402.468 223.454,-389.191"/>
</g>
<!-- 148&#45;&#45;152 -->
<g id="edge14" class="edge"><title>148&#45;&#45;152</title>
<path fill="none" stroke="black" d="M101.034,-432.153C107.577,-404.824 120.431,-351.14 126.971,-323.825"/>
</g>
<!-- 148&#45;&#45;154 -->
<g id="edge15" class="edge"><title>148&#45;&#45;154</title>
<path fill="none" stroke="black" d="M92.2001,-432.015C84.5438,-401.513 72.5846,-336.15 95,-288 103.687,-269.341 122.534,-254.904 137.363,-245.843"/>
</g>
<!-- 150&#45;&#45;152 -->
<g id="edge16" class="edge"><title>150&#45;&#45;152</title>
<path fill="none" stroke="black" d="M225.661,-365.125C204.698,-352.253 171.434,-331.828 150.433,-318.933"/>
</g>
<!-- 150&#45;&#45;154 -->
<g id="edge17" class="edge"><title>150&#45;&#45;154</title>
<path fill="none" stroke="black" d="M237.82,-360.38C229.639,-342.081 215.395,-312.065 200,-288 191.396,-274.55 180.08,-260.433 171.362,-250.153"/>
</g>
<!-- 150&#45;&#45;6156 -->
<g id="edge18" class="edge"><title>150&#45;&#45;6156</title>
<path fill="none" stroke="black" d="M250.499,-360.057C256.751,-341.737 267.818,-311.946 281,-288 288.316,-274.709 298.385,-260.811 306.32,-250.583"/>
</g>
<!-- 150&#45;&#45;5328 -->
<g id="edge19" class="edge"><title>150&#45;&#45;5328</title>
<path fill="none" stroke="black" d="M259.975,-362.834C272.729,-350.77 290.973,-333.512 303.793,-321.385"/>
</g>
<!-- 152&#45;&#45;154 -->
<g id="edge20" class="edge"><title>152&#45;&#45;154</title>
<path fill="none" stroke="black" d="M137.399,-288.411C141.64,-277.414 147.189,-263.027 151.46,-251.956"/>
</g>
<!-- 5328&#45;&#45;154 -->
<g id="edge21" class="edge"><title>5328&#45;&#45;154</title>
<path fill="none" stroke="black" d="M295.933,-294.971C264.979,-281.512 210.385,-257.776 179.991,-244.561"/>
</g>
<!-- 5328&#45;&#45;6156 -->
<g id="edge22" class="edge"><title>5328&#45;&#45;6156</title>
<path fill="none" stroke="black" d="M319,-287.697C319,-276.846 319,-262.917 319,-252.104"/>
</g>
<!-- 781 -->
<g id="node9" class="node"><title>781</title>
<ellipse fill="none" stroke="black" cx="470" cy="-594" rx="27" ry="18"/>
<text text-anchor="middle" x="470" y="-590.3" font-family="Times New Roman,serif" font-size="14.00">781</text>
</g>
<!-- 782 -->
<g id="node10" class="node"><title>782</title>
<ellipse fill="cyan" stroke="cyan" cx="470" cy="-522" rx="27" ry="18"/>
<text text-anchor="middle" x="470" y="-518.3" font-family="Times New Roman,serif" font-size="14.00">782</text>
</g>
<!-- 781&#45;&#45;782 -->
<g id="edge23" class="edge"><title>781&#45;&#45;782</title>
<path fill="none" stroke="black" d="M470,-575.697C470,-564.846 470,-550.917 470,-540.104"/>
</g>
<!-- 784 -->
<g id="node11" class="node"><title>784</title>
<ellipse fill="cyan" stroke="cyan" cx="526" cy="-450" rx="27" ry="18"/>
<text text-anchor="middle" x="526" y="-446.3" font-family="Times New Roman,serif" font-size="14.00">784</text>
</g>
<!-- 782&#45;&#45;784 -->
<g id="edge24" class="edge"><title>782&#45;&#45;784</title>
<path fill="none" stroke="black" d="M482.151,-505.811C491.544,-494.07 504.485,-477.893 513.873,-466.159"/>
</g>
<!-- 786 -->
<g id="node13" class="node"><title>786</title>
<ellipse fill="cyan" stroke="cyan" cx="543" cy="-306" rx="27" ry="18"/>
<text text-anchor="middle" x="543" y="-302.3" font-family="Times New Roman,serif" font-size="14.00">786</text>
</g>
<!-- 782&#45;&#45;786 -->
<g id="edge25" class="edge"><title>782&#45;&#45;786</title>
<path fill="none" stroke="black" d="M466.877,-503.89C462.146,-473.188 456.058,-407.519 480,-360 489.261,-341.619 508.037,-327.147 522.693,-318.002"/>
</g>
<!-- 788 -->
<g id="node12" class="node"><title>788</title>
<ellipse fill="none" stroke="black" cx="516" cy="-378" rx="27" ry="18"/>
<text text-anchor="middle" x="516" y="-374.3" font-family="Times New Roman,serif" font-size="14.00">788</text>
</g>
<!-- 784&#45;&#45;788 -->
<g id="edge26" class="edge"><title>784&#45;&#45;788</title>
<path fill="none" stroke="black" d="M523.579,-432.055C522.03,-421.211 520.026,-407.183 518.468,-396.275"/>
</g>
<!-- 784&#45;&#45;786 -->
<g id="edge27" class="edge"><title>784&#45;&#45;786</title>
<path fill="none" stroke="black" d="M536.238,-433.017C542.125,-422.858 548.942,-409.178 552,-396 557.723,-371.341 552.509,-342.002 547.966,-323.94"/>
</g>
<!-- 788&#45;&#45;786 -->
<g id="edge28" class="edge"><title>788&#45;&#45;786</title>
<path fill="none" stroke="black" d="M522.399,-360.411C526.64,-349.414 532.189,-335.027 536.46,-323.956"/>
</g>
<!-- 2061 -->
<g id="node14" class="node"><title>2061</title>
<ellipse fill="none" stroke="black" cx="619" cy="-594" rx="28.6953" ry="18"/>
<text text-anchor="middle" x="619" y="-590.3" font-family="Times New Roman,serif" font-size="14.00">2061</text>
</g>
<!-- 2062 -->
<g id="node15" class="node"><title>2062</title>
<ellipse fill="none" stroke="black" cx="619" cy="-522" rx="28.6953" ry="18"/>
<text text-anchor="middle" x="619" y="-518.3" font-family="Times New Roman,serif" font-size="14.00">2062</text>
</g>
<!-- 2061&#45;&#45;2062 -->
<g id="edge29" class="edge"><title>2061&#45;&#45;2062</title>
<path fill="none" stroke="black" d="M619,-575.697C619,-564.846 619,-550.917 619,-540.104"/>
</g>
<!-- 2071 -->
<g id="node16" class="node"><title>2071</title>
<ellipse fill="none" stroke="black" cx="761" cy="-594" rx="28.6953" ry="18"/>
<text text-anchor="middle" x="761" y="-590.3" font-family="Times New Roman,serif" font-size="14.00">2071</text>
</g>
<!-- 2072 -->
<g id="node17" class="node"><title>2072</title>
<ellipse fill="none" stroke="black" cx="790" cy="-522" rx="28.6953" ry="18"/>
<text text-anchor="middle" x="790" y="-518.3" font-family="Times New Roman,serif" font-size="14.00">2072</text>
</g>
<!-- 2071&#45;&#45;2072 -->
<g id="edge30" class="edge"><title>2071&#45;&#45;2072</title>
<path fill="none" stroke="black" d="M767.873,-576.411C772.428,-565.414 778.389,-551.027 782.975,-539.956"/>
</g>
<!-- 2074 -->
<g id="node18" class="node"><title>2074</title>
<ellipse fill="none" stroke="black" cx="733" cy="-450" rx="28.6953" ry="18"/>
<text text-anchor="middle" x="733" y="-446.3" font-family="Times New Roman,serif" font-size="14.00">2074</text>
</g>
<!-- 2071&#45;&#45;2074 -->
<g id="edge31" class="edge"><title>2071&#45;&#45;2074</title>
<path fill="none" stroke="black" d="M757.623,-575.871C752.241,-548.578 741.779,-495.52 736.389,-468.189"/>
</g>
<!-- 2076 -->
<g id="node19" class="node"><title>2076</title>
<ellipse fill="none" stroke="black" cx="847" cy="-378" rx="28.6953" ry="18"/>
<text text-anchor="middle" x="847" y="-374.3" font-family="Times New Roman,serif" font-size="14.00">2076</text>
</g>
<!-- 2071&#45;&#45;2076 -->
<g id="edge32" class="edge"><title>2071&#45;&#45;2076</title>
<path fill="none" stroke="black" d="M782.592,-581.959C797.962,-572.883 817.656,-558.515 828,-540 854.083,-493.316 851.915,-427.243 849.063,-396.277"/>
</g>
<!-- 2078 -->
<g id="node20" class="node"><title>2078</title>
<ellipse fill="cyan" stroke="cyan" cx="767" cy="-306" rx="28.6953" ry="18"/>
<text text-anchor="middle" x="767" y="-302.3" font-family="Times New Roman,serif" font-size="14.00">2078</text>
</g>
<!-- 2071&#45;&#45;2078 -->
<g id="edge33" class="edge"><title>2071&#45;&#45;2078</title>
<path fill="none" stroke="black" d="M747.513,-577.913C724.17,-549.927 680.095,-487.74 695,-432 706.581,-388.693 737.168,-344.835 754.52,-322.369"/>
</g>
<!-- 2072&#45;&#45;2074 -->
<g id="edge34" class="edge"><title>2072&#45;&#45;2074</title>
<path fill="none" stroke="black" d="M777.35,-505.465C767.904,-493.865 755.052,-478.082 745.615,-466.492"/>
</g>
<!-- 2072&#45;&#45;2076 -->
<g id="edge35" class="edge"><title>2072&#45;&#45;2076</title>
<path fill="none" stroke="black" d="M796.65,-504.433C807.575,-477.217 829.204,-423.334 840.215,-395.902"/>
</g>
<!-- 2072&#45;&#45;2078 -->
<g id="edge36" class="edge"><title>2072&#45;&#45;2078</title>
<path fill="none" stroke="black" d="M788.157,-503.849C783.85,-463.78 773.167,-364.383 768.852,-324.232"/>
</g>
<!-- 2074&#45;&#45;2076 -->
<g id="edge37" class="edge"><title>2074&#45;&#45;2076</title>
<path fill="none" stroke="black" d="M752.857,-436.807C773.654,-424.037 806.134,-404.093 826.988,-391.288"/>
</g>
<!-- 2074&#45;&#45;2078 -->
<g id="edge38" class="edge"><title>2074&#45;&#45;2078</title>
<path fill="none" stroke="black" d="M737.034,-432.153C743.577,-404.824 756.431,-351.14 762.971,-323.825"/>
</g>
<!-- 2076&#45;&#45;2078 -->
<g id="edge39" class="edge"><title>2076&#45;&#45;2078</title>
<path fill="none" stroke="black" d="M830.811,-362.834C816.931,-350.69 797.038,-333.283 783.165,-321.144"/>
</g>
<!-- 2092 -->
<g id="node21" class="node"><title>2092</title>
<ellipse fill="none" stroke="black" cx="730" cy="-234" rx="28.6953" ry="18"/>
<text text-anchor="middle" x="730" y="-230.3" font-family="Times New Roman,serif" font-size="14.00">2092</text>
</g>
<!-- 2078&#45;&#45;2092 -->
<g id="edge40" class="edge"><title>2078&#45;&#45;2092</title>
<path fill="none" stroke="black" d="M758.418,-288.765C752.526,-277.618 744.729,-262.865 738.792,-251.633"/>
</g>
<!-- 5160 -->
<g id="node22" class="node"><title>5160</title>
<ellipse fill="none" stroke="black" cx="805" cy="-234" rx="28.6953" ry="18"/>
<text text-anchor="middle" x="805" y="-230.3" font-family="Times New Roman,serif" font-size="14.00">5160</text>
</g>
<!-- 2078&#45;&#45;5160 -->
<g id="edge41" class="edge"><title>2078&#45;&#45;5160</title>
<path fill="none" stroke="black" d="M775.813,-288.765C781.952,-277.456 790.106,-262.437 796.234,-251.147"/>
</g>
<!-- 2345 -->
<g id="node23" class="node"><title>2345</title>
<ellipse fill="cyan" stroke="cyan" cx="1018" cy="-522" rx="28.6953" ry="18"/>
<text text-anchor="middle" x="1018" y="-518.3" font-family="Times New Roman,serif" font-size="14.00">2345</text>
</g>
<!-- 2346 -->
<g id="node24" class="node"><title>2346</title>
<ellipse fill="none" stroke="black" cx="961" cy="-450" rx="28.6953" ry="18"/>
<text text-anchor="middle" x="961" y="-446.3" font-family="Times New Roman,serif" font-size="14.00">2346</text>
</g>
<!-- 2345&#45;&#45;2346 -->
<g id="edge42" class="edge"><title>2345&#45;&#45;2346</title>
<path fill="none" stroke="black" d="M1005.35,-505.465C995.904,-493.865 983.052,-478.082 973.615,-466.492"/>
</g>
<!-- 2348 -->
<g id="node25" class="node"><title>2348</title>
<ellipse fill="cyan" stroke="cyan" cx="999" cy="-378" rx="28.6953" ry="18"/>
<text text-anchor="middle" x="999" y="-374.3" font-family="Times New Roman,serif" font-size="14.00">2348</text>
</g>
<!-- 2345&#45;&#45;2348 -->
<g id="edge43" class="edge"><title>2345&#45;&#45;2348</title>
<path fill="none" stroke="black" d="M1015.71,-503.871C1012.06,-476.578 1004.96,-423.52 1001.3,-396.189"/>
</g>
<!-- 2350 -->
<g id="node26" class="node"><title>2350</title>
<ellipse fill="none" stroke="black" cx="942" cy="-306" rx="28.6953" ry="18"/>
<text text-anchor="middle" x="942" y="-302.3" font-family="Times New Roman,serif" font-size="14.00">2350</text>
</g>
<!-- 2345&#45;&#45;2350 -->
<g id="edge44" class="edge"><title>2345&#45;&#45;2350</title>
<path fill="none" stroke="black" d="M991.788,-514.408C969.114,-507.165 937.727,-493.08 923,-468 895.637,-421.401 920.006,-354.138 933.901,-323.419"/>
</g>
<!-- 4768 -->
<g id="node27" class="node"><title>4768</title>
<ellipse fill="none" stroke="black" cx="1036" cy="-306" rx="28.6953" ry="18"/>
<text text-anchor="middle" x="1036" y="-302.3" font-family="Times New Roman,serif" font-size="14.00">4768</text>
</g>
<!-- 2345&#45;&#45;4768 -->
<g id="edge45" class="edge"><title>2345&#45;&#45;4768</title>
<path fill="none" stroke="black" d="M1021.4,-504.109C1026.02,-480.174 1034.06,-434.961 1037,-396 1038.21,-380.045 1037.15,-375.999 1037,-360 1036.89,-348.037 1036.63,-334.556 1036.41,-324.185"/>
</g>
<!-- 2346&#45;&#45;2348 -->
<g id="edge46" class="edge"><title>2346&#45;&#45;2348</title>
<path fill="none" stroke="black" d="M969.813,-432.765C975.952,-421.456 984.106,-406.437 990.234,-395.147"/>
</g>
<!-- 2346&#45;&#45;2350 -->
<g id="edge47" class="edge"><title>2346&#45;&#45;2350</title>
<path fill="none" stroke="black" d="M958.708,-431.871C955.056,-404.578 947.957,-351.52 944.3,-324.189"/>
</g>
<!-- 2348&#45;&#45;2350 -->
<g id="edge48" class="edge"><title>2348&#45;&#45;2350</title>
<path fill="none" stroke="black" d="M986.35,-361.465C976.904,-349.865 964.052,-334.082 954.615,-322.492"/>
</g>
<!-- 2348&#45;&#45;4768 -->
<g id="edge49" class="edge"><title>2348&#45;&#45;4768</title>
<path fill="none" stroke="black" d="M1007.58,-360.765C1013.47,-349.618 1021.27,-334.865 1027.21,-323.633"/>
</g>
<!-- 3085 -->
<g id="node28" class="node"><title>3085</title>
<ellipse fill="none" stroke="black" cx="1208" cy="-594" rx="28.6953" ry="18"/>
<text text-anchor="middle" x="1208" y="-590.3" font-family="Times New Roman,serif" font-size="14.00">3085</text>
</g>
<!-- 3086 -->
<g id="node29" class="node"><title>3086</title>
<ellipse fill="cyan" stroke="cyan" cx="1208" cy="-522" rx="28.6953" ry="18"/>
<text text-anchor="middle" x="1208" y="-518.3" font-family="Times New Roman,serif" font-size="14.00">3086</text>
</g>
<!-- 3085&#45;&#45;3086 -->
<g id="edge50" class="edge"><title>3085&#45;&#45;3086</title>
<path fill="none" stroke="black" d="M1208,-575.697C1208,-564.846 1208,-550.917 1208,-540.104"/>
</g>
<!-- 6040 -->
<g id="node30" class="node"><title>6040</title>
<ellipse fill="none" stroke="black" cx="1151" cy="-450" rx="28.6953" ry="18"/>
<text text-anchor="middle" x="1151" y="-446.3" font-family="Times New Roman,serif" font-size="14.00">6040</text>
</g>
<!-- 3086&#45;&#45;6040 -->
<g id="edge51" class="edge"><title>3086&#45;&#45;6040</title>
<path fill="none" stroke="black" d="M1195.35,-505.465C1185.9,-493.865 1173.05,-478.082 1163.61,-466.492"/>
</g>
<!-- 6042 -->
<g id="node31" class="node"><title>6042</title>
<ellipse fill="none" stroke="black" cx="1180" cy="-378" rx="28.6953" ry="18"/>
<text text-anchor="middle" x="1180" y="-374.3" font-family="Times New Roman,serif" font-size="14.00">6042</text>
</g>
<!-- 3086&#45;&#45;6042 -->
<g id="edge52" class="edge"><title>3086&#45;&#45;6042</title>
<path fill="none" stroke="black" d="M1204.62,-503.871C1199.24,-476.578 1188.78,-423.52 1183.39,-396.189"/>
</g>
<!-- 7542 -->
<g id="node32" class="node"><title>7542</title>
<ellipse fill="none" stroke="black" cx="1265" cy="-450" rx="28.6953" ry="18"/>
<text text-anchor="middle" x="1265" y="-446.3" font-family="Times New Roman,serif" font-size="14.00">7542</text>
</g>
<!-- 3086&#45;&#45;7542 -->
<g id="edge53" class="edge"><title>3086&#45;&#45;7542</title>
<path fill="none" stroke="black" d="M1220.65,-505.465C1230.1,-493.865 1242.95,-478.082 1252.39,-466.492"/>
</g>
<!-- 6040&#45;&#45;6042 -->
<g id="edge54" class="edge"><title>6040&#45;&#45;6042</title>
<path fill="none" stroke="black" d="M1157.87,-432.411C1162.43,-421.414 1168.39,-407.027 1172.98,-395.956"/>
</g>
<!-- 4763 -->
<g id="node33" class="node"><title>4763</title>
<ellipse fill="none" stroke="black" cx="1056" cy="-594" rx="28.6953" ry="18"/>
<text text-anchor="middle" x="1056" y="-590.3" font-family="Times New Roman,serif" font-size="14.00">4763</text>
</g>
<!-- 4763&#45;&#45;2345 -->
<g id="edge55" class="edge"><title>4763&#45;&#45;2345</title>
<path fill="none" stroke="black" d="M1047.19,-576.765C1041.05,-565.456 1032.89,-550.437 1026.77,-539.147"/>
</g>
<!-- 4763&#45;&#45;2348 -->
<g id="edge56" class="edge"><title>4763&#45;&#45;2348</title>
<path fill="none" stroke="black" d="M1058.12,-576.041C1059.88,-557.964 1061.35,-528.612 1056,-504 1046.99,-462.513 1022.95,-418.286 1009.14,-395.187"/>
</g>
<!-- 5345 -->
<g id="node34" class="node"><title>5345</title>
<ellipse fill="none" stroke="black" cx="1283" cy="-594" rx="28.6953" ry="18"/>
<text text-anchor="middle" x="1283" y="-590.3" font-family="Times New Roman,serif" font-size="14.00">5345</text>
</g>
<!-- 5346 -->
<g id="node35" class="node"><title>5346</title>
<ellipse fill="none" stroke="black" cx="1283" cy="-522" rx="28.6953" ry="18"/>
<text text-anchor="middle" x="1283" y="-518.3" font-family="Times New Roman,serif" font-size="14.00">5346</text>
</g>
<!-- 5345&#45;&#45;5346 -->
<g id="edge57" class="edge"><title>5345&#45;&#45;5346</title>
<path fill="none" stroke="black" d="M1283,-575.697C1283,-564.846 1283,-550.917 1283,-540.104"/>
</g>
<!-- 6073 -->
<g id="node36" class="node"><title>6073</title>
<ellipse fill="none" stroke="black" cx="1358" cy="-594" rx="28.6953" ry="18"/>
<text text-anchor="middle" x="1358" y="-590.3" font-family="Times New Roman,serif" font-size="14.00">6073</text>
</g>
<!-- 6074 -->
<g id="node37" class="node"><title>6074</title>
<ellipse fill="none" stroke="black" cx="1358" cy="-522" rx="28.6953" ry="18"/>
<text text-anchor="middle" x="1358" y="-518.3" font-family="Times New Roman,serif" font-size="14.00">6074</text>
</g>
<!-- 6073&#45;&#45;6074 -->
<g id="edge58" class="edge"><title>6073&#45;&#45;6074</title>
<path fill="none" stroke="black" d="M1358,-575.697C1358,-564.846 1358,-550.917 1358,-540.104"/>
</g>
<!-- 6363 -->
<g id="node38" class="node"><title>6363</title>
<ellipse fill="none" stroke="black" cx="1573" cy="-594" rx="28.6953" ry="18"/>
<text text-anchor="middle" x="1573" y="-590.3" font-family="Times New Roman,serif" font-size="14.00">6363</text>
</g>
<!-- 6364 -->
<g id="node39" class="node"><title>6364</title>
<ellipse fill="none" stroke="black" cx="1663" cy="-522" rx="28.6953" ry="18"/>
<text text-anchor="middle" x="1663" y="-518.3" font-family="Times New Roman,serif" font-size="14.00">6364</text>
</g>
<!-- 6363&#45;&#45;6364 -->
<g id="edge59" class="edge"><title>6363&#45;&#45;6364</title>
<path fill="none" stroke="black" d="M1590.35,-579.503C1606.29,-567.108 1629.78,-548.838 1645.7,-536.455"/>
</g>
<!-- 6366 -->
<g id="node40" class="node"><title>6366</title>
<ellipse fill="none" stroke="black" cx="1539" cy="-450" rx="28.6953" ry="18"/>
<text text-anchor="middle" x="1539" y="-446.3" font-family="Times New Roman,serif" font-size="14.00">6366</text>
</g>
<!-- 6363&#45;&#45;6366 -->
<g id="edge60" class="edge"><title>6363&#45;&#45;6366</title>
<path fill="none" stroke="black" d="M1568.97,-576.153C1562.42,-548.824 1549.57,-495.14 1543.03,-467.825"/>
</g>
<!-- 6368 -->
<g id="node41" class="node"><title>6368</title>
<ellipse fill="none" stroke="black" cx="1586" cy="-378" rx="28.6953" ry="18"/>
<text text-anchor="middle" x="1586" y="-374.3" font-family="Times New Roman,serif" font-size="14.00">6368</text>
</g>
<!-- 6363&#45;&#45;6368 -->
<g id="edge61" class="edge"><title>6363&#45;&#45;6368</title>
<path fill="none" stroke="black" d="M1574.04,-575.849C1576.48,-535.78 1582.51,-436.383 1584.95,-396.232"/>
</g>
<!-- 6370 -->
<g id="node42" class="node"><title>6370</title>
<ellipse fill="none" stroke="black" cx="1700" cy="-306" rx="28.6953" ry="18"/>
<text text-anchor="middle" x="1700" y="-302.3" font-family="Times New Roman,serif" font-size="14.00">6370</text>
</g>
<!-- 6363&#45;&#45;6370 -->
<g id="edge62" class="edge"><title>6363&#45;&#45;6370</title>
<path fill="none" stroke="black" d="M1600.88,-589.865C1630.91,-584.881 1677.53,-572.148 1701,-540 1749.66,-473.354 1720.13,-364.968 1706.13,-323.686"/>
</g>
<!-- 6372 -->
<g id="node43" class="node"><title>6372</title>
<ellipse fill="none" stroke="black" cx="1548" cy="-234" rx="28.6953" ry="18"/>
<text text-anchor="middle" x="1548" y="-230.3" font-family="Times New Roman,serif" font-size="14.00">6372</text>
</g>
<!-- 6363&#45;&#45;6372 -->
<g id="edge63" class="edge"><title>6363&#45;&#45;6372</title>
<path fill="none" stroke="black" d="M1560.52,-577.631C1543.17,-555.165 1512.58,-511.307 1501,-468 1479.52,-387.671 1520.97,-289.444 1539.6,-251.262"/>
</g>
<!-- 6374 -->
<g id="node44" class="node"><title>6374</title>
<ellipse fill="none" stroke="black" cx="1576" cy="-162" rx="28.6953" ry="18"/>
<text text-anchor="middle" x="1576" y="-158.3" font-family="Times New Roman,serif" font-size="14.00">6374</text>
</g>
<!-- 6363&#45;&#45;6374 -->
<g id="edge64" class="edge"><title>6363&#45;&#45;6374</title>
<path fill="none" stroke="black" d="M1548.66,-584.228C1504.34,-566.512 1415,-521.996 1415,-451 1415,-451 1415,-451 1415,-305 1415,-233.069 1506.51,-188.887 1551.55,-171.498"/>
</g>
<!-- 6364&#45;&#45;6366 -->
<g id="edge65" class="edge"><title>6364&#45;&#45;6366</title>
<path fill="none" stroke="black" d="M1642.25,-509.284C1619.36,-496.362 1582.74,-475.692 1559.82,-462.755"/>
</g>
<!-- 6364&#45;&#45;6368 -->
<g id="edge66" class="edge"><title>6364&#45;&#45;6368</title>
<path fill="none" stroke="black" d="M1654.17,-504.711C1639.39,-477.465 1609.83,-422.946 1594.97,-395.537"/>
</g>
<!-- 6364&#45;&#45;6370 -->
<g id="edge67" class="edge"><title>6364&#45;&#45;6370</title>
<path fill="none" stroke="black" d="M1671.67,-504.776C1676.74,-494.525 1682.75,-480.835 1686,-468 1698.95,-416.868 1700.43,-354.008 1700.3,-324.221"/>
</g>
<!-- 6364&#45;&#45;6372 -->
<g id="edge68" class="edge"><title>6364&#45;&#45;6372</title>
<path fill="none" stroke="black" d="M1660.61,-504.028C1656.02,-474.091 1644.57,-410.315 1624,-360 1609.9,-325.498 1600.41,-319.822 1581,-288 1573.44,-275.6 1564.75,-261.66 1558.19,-251.189"/>
</g>
<!-- 6364&#45;&#45;6374 -->
<g id="edge69" class="edge"><title>6364&#45;&#45;6374</title>
<path fill="none" stroke="black" d="M1684.8,-510.304C1722.29,-490.195 1795,-442.952 1795,-379 1795,-379 1795,-379 1795,-305 1795,-214.599 1662,-178.859 1603.29,-167.487"/>
</g>
<!-- 6366&#45;&#45;6368 -->
<g id="edge70" class="edge"><title>6366&#45;&#45;6368</title>
<path fill="none" stroke="black" d="M1549.67,-433.116C1557.36,-421.66 1567.7,-406.263 1575.38,-394.821"/>
</g>
<!-- 6366&#45;&#45;6370 -->
<g id="edge71" class="edge"><title>6366&#45;&#45;6370</title>
<path fill="none" stroke="black" d="M1560.48,-438.018C1578.45,-428.29 1604.23,-413.019 1624,-396 1650.18,-373.464 1675.1,-341.612 1688.89,-322.754"/>
</g>
<!-- 6366&#45;&#45;6372 -->
<g id="edge72" class="edge"><title>6366&#45;&#45;6372</title>
<path fill="none" stroke="black" d="M1539.72,-431.849C1541.41,-391.78 1545.59,-292.383 1547.28,-252.232"/>
</g>
<!-- 6366&#45;&#45;6374 -->
<g id="edge73" class="edge"><title>6366&#45;&#45;6374</title>
<path fill="none" stroke="black" d="M1531.05,-432.477C1513.23,-392.9 1474.31,-290.432 1510,-216 1519.09,-197.051 1538.61,-182.734 1554.09,-173.787"/>
</g>
<!-- 6368&#45;&#45;6370 -->
<g id="edge74" class="edge"><title>6368&#45;&#45;6370</title>
<path fill="none" stroke="black" d="M1605.86,-364.807C1626.65,-352.037 1659.13,-332.093 1679.99,-319.288"/>
</g>
<!-- 6368&#45;&#45;6372 -->
<g id="edge75" class="edge"><title>6368&#45;&#45;6372</title>
<path fill="none" stroke="black" d="M1581.49,-360.153C1574.18,-332.824 1559.81,-279.14 1552.5,-251.825"/>
</g>
<!-- 6368&#45;&#45;6374 -->
<g id="edge76" class="edge"><title>6368&#45;&#45;6374</title>
<path fill="none" stroke="black" d="M1587.06,-359.559C1588.62,-329.961 1590.87,-268.042 1586,-216 1584.87,-203.88 1582.31,-190.402 1580.06,-180.071"/>
</g>
<!-- 6370&#45;&#45;6372 -->
<g id="edge77" class="edge"><title>6370&#45;&#45;6372</title>
<path fill="none" stroke="black" d="M1677.57,-294.671C1648.83,-281.437 1599.3,-258.626 1570.52,-245.371"/>
</g>
<!-- 6370&#45;&#45;6374 -->
<g id="edge78" class="edge"><title>6370&#45;&#45;6374</title>
<path fill="none" stroke="black" d="M1686.73,-289.804C1662.86,-262.473 1612.97,-205.339 1589.17,-178.087"/>
</g>
<!-- 6372&#45;&#45;6374 -->
<g id="edge79" class="edge"><title>6372&#45;&#45;6374</title>
<path fill="none" stroke="black" d="M1554.64,-216.411C1559.03,-205.414 1564.79,-191.027 1569.22,-179.956"/>
</g>
<!-- 7573 -->
<g id="node45" class="node"><title>7573</title>
<ellipse fill="none" stroke="black" cx="2284" cy="-594" rx="28.6953" ry="18"/>
<text text-anchor="middle" x="2284" y="-590.3" font-family="Times New Roman,serif" font-size="14.00">7573</text>
</g>
<!-- 7574 -->
<g id="node46" class="node"><title>7574</title>
<ellipse fill="none" stroke="black" cx="2241" cy="-522" rx="28.6953" ry="18"/>
<text text-anchor="middle" x="2241" y="-518.3" font-family="Times New Roman,serif" font-size="14.00">7574</text>
</g>
<!-- 7573&#45;&#45;7574 -->
<g id="edge80" class="edge"><title>7573&#45;&#45;7574</title>
<path fill="none" stroke="black" d="M2274.03,-576.765C2267.08,-565.456 2257.85,-550.437 2250.92,-539.147"/>
</g>
<!-- 7576 -->
<g id="node47" class="node"><title>7576</title>
<ellipse fill="none" stroke="black" cx="2177" cy="-450" rx="28.6953" ry="18"/>
<text text-anchor="middle" x="2177" y="-446.3" font-family="Times New Roman,serif" font-size="14.00">7576</text>
</g>
<!-- 7573&#45;&#45;7576 -->
<g id="edge81" class="edge"><title>7573&#45;&#45;7576</title>
<path fill="none" stroke="black" d="M2260.82,-583.33C2242.57,-574.574 2217.81,-559.982 2203,-540 2187.09,-518.532 2180.88,-487.483 2178.48,-468.306"/>
</g>
<!-- 7578 -->
<g id="node48" class="node"><title>7578</title>
<ellipse fill="none" stroke="black" cx="2270" cy="-378" rx="28.6953" ry="18"/>
<text text-anchor="middle" x="2270" y="-374.3" font-family="Times New Roman,serif" font-size="14.00">7578</text>
</g>
<!-- 7573&#45;&#45;7578 -->
<g id="edge82" class="edge"><title>7573&#45;&#45;7578</title>
<path fill="none" stroke="black" d="M2283.12,-575.933C2282.18,-558.014 2280.6,-529.019 2279,-504 2276.54,-465.568 2273.18,-420.525 2271.34,-396.385"/>
</g>
<!-- 7580 -->
<g id="node49" class="node"><title>7580</title>
<ellipse fill="none" stroke="black" cx="2080" cy="-306" rx="28.6953" ry="18"/>
<text text-anchor="middle" x="2080" y="-302.3" font-family="Times New Roman,serif" font-size="14.00">7580</text>
</g>
<!-- 7573&#45;&#45;7580 -->
<g id="edge83" class="edge"><title>7573&#45;&#45;7580</title>
<path fill="none" stroke="black" d="M2260.76,-583.295C2239.48,-573.851 2207.66,-558.276 2183,-540 2146.89,-513.24 2135.97,-506.018 2112,-468 2083.12,-422.195 2079.48,-355.696 2079.53,-324.452"/>
</g>
<!-- 7582 -->
<g id="node50" class="node"><title>7582</title>
<ellipse fill="none" stroke="black" cx="2213" cy="-234" rx="28.6953" ry="18"/>
<text text-anchor="middle" x="2213" y="-230.3" font-family="Times New Roman,serif" font-size="14.00">7582</text>
</g>
<!-- 7573&#45;&#45;7582 -->
<g id="edge84" class="edge"><title>7573&#45;&#45;7582</title>
<path fill="none" stroke="black" d="M2292.15,-576.555C2310.13,-537.981 2349.73,-438.979 2325,-360 2309.24,-309.67 2259.78,-268.023 2232.15,-247.941"/>
</g>
<!-- 7584 -->
<g id="node51" class="node"><title>7584</title>
<ellipse fill="none" stroke="black" cx="2298" cy="-162" rx="28.6953" ry="18"/>
<text text-anchor="middle" x="2298" y="-158.3" font-family="Times New Roman,serif" font-size="14.00">7584</text>
</g>
<!-- 7573&#45;&#45;7584 -->
<g id="edge85" class="edge"><title>7573&#45;&#45;7584</title>
<path fill="none" stroke="black" d="M2308.19,-584.182C2352.23,-566.389 2441,-521.747 2441,-451 2441,-451 2441,-451 2441,-305 2441,-238.174 2361.4,-192.02 2320.98,-172.89"/>
</g>
<!-- 7586 -->
<g id="node52" class="node"><title>7586</title>
<ellipse fill="none" stroke="black" cx="2099" cy="-90" rx="28.6953" ry="18"/>
<text text-anchor="middle" x="2099" y="-86.3" font-family="Times New Roman,serif" font-size="14.00">7586</text>
</g>
<!-- 7573&#45;&#45;7586 -->
<g id="edge86" class="edge"><title>7573&#45;&#45;7586</title>
<path fill="none" stroke="black" d="M2256.26,-589.597C2163.66,-577.474 1871,-532.697 1871,-451 1871,-451 1871,-451 1871,-305 1871,-193.981 2016.49,-123.773 2075.03,-100.018"/>
</g>
<!-- 7588 -->
<g id="node53" class="node"><title>7588</title>
<ellipse fill="none" stroke="black" cx="2175" cy="-18" rx="28.6953" ry="18"/>
<text text-anchor="middle" x="2175" y="-14.3" font-family="Times New Roman,serif" font-size="14.00">7588</text>
</g>
<!-- 7573&#45;&#45;7588 -->
<g id="edge87" class="edge"><title>7573&#45;&#45;7588</title>
<path fill="none" stroke="black" d="M2311.64,-589.338C2373.36,-579.452 2517,-546.217 2517,-451 2517,-451 2517,-451 2517,-161 2517,-114.027 2498.97,-98.2318 2460,-72 2418.15,-43.8244 2267.03,-27.2727 2203.48,-21.4202"/>
</g>
<!-- 7574&#45;&#45;7576 -->
<g id="edge88" class="edge"><title>7574&#45;&#45;7576</title>
<path fill="none" stroke="black" d="M2227.43,-506.155C2216.71,-494.436 2201.82,-478.145 2191,-466.308"/>
</g>
<!-- 7574&#45;&#45;7578 -->
<g id="edge89" class="edge"><title>7574&#45;&#45;7578</title>
<path fill="none" stroke="black" d="M2244.5,-503.871C2250.07,-476.578 2260.91,-423.52 2266.49,-396.189"/>
</g>
<!-- 7574&#45;&#45;7580 -->
<g id="edge90" class="edge"><title>7574&#45;&#45;7580</title>
<path fill="none" stroke="black" d="M2215.44,-513.606C2192.51,-505.756 2159.43,-491.226 2139,-468 2101.25,-425.083 2086.94,-355.979 2082.14,-324.109"/>
</g>
<!-- 7574&#45;&#45;7582 -->
<g id="edge91" class="edge"><title>7574&#45;&#45;7582</title>
<path fill="none" stroke="black" d="M2255.42,-506.001C2280.85,-477.65 2329.07,-414.174 2308,-360 2300.13,-339.771 2288.57,-340.943 2275,-324 2255.34,-299.453 2234.95,-269.058 2223.14,-250.891"/>
</g>
<!-- 7574&#45;&#45;7584 -->
<g id="edge92" class="edge"><title>7574&#45;&#45;7584</title>
<path fill="none" stroke="black" d="M2265.6,-512.548C2310.92,-495.236 2403,-451.182 2403,-379 2403,-379 2403,-379 2403,-305 2403,-247.665 2346.97,-198.324 2316.77,-175.891"/>
</g>
<!-- 7574&#45;&#45;7586 -->
<g id="edge93" class="edge"><title>7574&#45;&#45;7586</title>
<path fill="none" stroke="black" d="M2212.63,-518.527C2145.97,-511.009 1985,-482.173 1985,-379 1985,-379 1985,-379 1985,-233 1985,-173.565 2046.48,-124.844 2079.14,-103.154"/>
</g>
<!-- 7574&#45;&#45;7588 -->
<g id="edge94" class="edge"><title>7574&#45;&#45;7588</title>
<path fill="none" stroke="black" d="M2212.63,-519.501C2120.11,-512.947 1833,-478.769 1833,-307 1833,-307 1833,-307 1833,-161 1833,-92.9334 2066.99,-40.3164 2147.88,-24.1602"/>
</g>
<!-- 7576&#45;&#45;7578 -->
<g id="edge95" class="edge"><title>7576&#45;&#45;7578</title>
<path fill="none" stroke="black" d="M2194.93,-435.503C2211.51,-423.028 2235.98,-404.603 2252.44,-392.218"/>
</g>
<!-- 7576&#45;&#45;7580 -->
<g id="edge96" class="edge"><title>7576&#45;&#45;7580</title>
<path fill="none" stroke="black" d="M2166.25,-433.261C2147.6,-405.966 2109.48,-350.154 2090.8,-322.81"/>
</g>
<!-- 7576&#45;&#45;7582 -->
<g id="edge97" class="edge"><title>7576&#45;&#45;7582</title>
<path fill="none" stroke="black" d="M2179.89,-431.849C2186.64,-391.68 2203.43,-291.89 2210.15,-251.935"/>
</g>
<!-- 7576&#45;&#45;7584 -->
<g id="edge98" class="edge"><title>7576&#45;&#45;7584</title>
<path fill="none" stroke="black" d="M2184.03,-432.387C2205.41,-381.839 2269.54,-230.268 2290.95,-179.659"/>
</g>
<!-- 7576&#45;&#45;7586 -->
<g id="edge99" class="edge"><title>7576&#45;&#45;7586</title>
<path fill="none" stroke="black" d="M2152.94,-439.905C2109.63,-421.788 2023,-376.825 2023,-307 2023,-307 2023,-307 2023,-233 2023,-181.271 2062.69,-130.15 2084.7,-105.772"/>
</g>
<!-- 7576&#45;&#45;7588 -->
<g id="edge100" class="edge"><title>7576&#45;&#45;7588</title>
<path fill="none" stroke="black" d="M2149.01,-445.739C2117.77,-440.611 2067.82,-427.722 2039,-396 2016.67,-371.419 2023.49,-356.907 2019,-324 2007.3,-238.178 2003.77,-122.405 2042,-72 2067.01,-39.0246 2115.75,-26.5235 2146.77,-21.8131"/>
</g>
<!-- 7578&#45;&#45;7580 -->
<g id="edge101" class="edge"><title>7578&#45;&#45;7580</title>
<path fill="none" stroke="black" d="M2245.47,-368.412C2216.21,-358.112 2165.89,-340.205 2123,-324 2116.69,-321.617 2109.89,-318.967 2103.61,-316.482"/>
</g>
<!-- 7578&#45;&#45;7582 -->
<g id="edge102" class="edge"><title>7578&#45;&#45;7582</title>
<path fill="none" stroke="black" d="M2258.61,-361.437C2251.56,-351.217 2242.79,-337.32 2237,-324 2226.6,-300.078 2219.71,-270.538 2216.08,-252.232"/>
</g>
<!-- 7578&#45;&#45;7584 -->
<g id="edge103" class="edge"><title>7578&#45;&#45;7584</title>
<path fill="none" stroke="black" d="M2292.83,-366.993C2309.55,-358.293 2331,-343.938 2341,-324 2362.51,-281.092 2357.04,-261.239 2341,-216 2335.61,-200.812 2323.81,-186.804 2313.94,-177.007"/>
</g>
<!-- 7578&#45;&#45;7586 -->
<g id="edge104" class="edge"><title>7578&#45;&#45;7586</title>
<path fill="none" stroke="black" d="M2255.1,-362.325C2244.98,-352.021 2231.57,-337.689 2221,-324 2164.5,-250.805 2121.05,-147.617 2105.36,-107.685"/>
</g>
<!-- 7578&#45;&#45;7588 -->
<g id="edge105" class="edge"><title>7578&#45;&#45;7588</title>
<path fill="none" stroke="black" d="M2297.32,-371.811C2353.98,-359.302 2479,-321.857 2479,-235 2479,-235 2479,-235 2479,-161 2479,-40.1279 2279.28,-21.9087 2203.6,-19.3438"/>
</g>
<!-- 7580&#45;&#45;7582 -->
<g id="edge106" class="edge"><title>7580&#45;&#45;7582</title>
<path fill="none" stroke="black" d="M2101.37,-293.753C2126.19,-280.691 2166.89,-259.27 2191.68,-246.219"/>
</g>
<!-- 7580&#45;&#45;7584 -->
<g id="edge107" class="edge"><title>7580&#45;&#45;7584</title>
<path fill="none" stroke="black" d="M2093.17,-289.755C2110.41,-270.535 2142.29,-237.421 2175,-216 2206.32,-195.49 2246.89,-179.815 2272.69,-171.005"/>
</g>
<!-- 7580&#45;&#45;7586 -->
<g id="edge108" class="edge"><title>7580&#45;&#45;7586</title>
<path fill="none" stroke="black" d="M2081.52,-287.849C2085.08,-247.78 2093.91,-148.383 2097.47,-108.232"/>
</g>
<!-- 7580&#45;&#45;7588 -->
<g id="edge109" class="edge"><title>7580&#45;&#45;7588</title>
<path fill="none" stroke="black" d="M2072.33,-288.407C2054.79,-247.793 2016.58,-141.632 2061,-72 2079.9,-42.3741 2120.12,-29.0493 2147.36,-23.2396"/>
</g>
<!-- 7582&#45;&#45;7584 -->
<g id="edge110" class="edge"><title>7582&#45;&#45;7584</title>
<path fill="none" stroke="black" d="M2229.79,-219.17C2244.69,-206.898 2266.35,-189.064 2281.24,-176.801"/>
</g>
<!-- 7582&#45;&#45;7586 -->
<g id="edge111" class="edge"><title>7582&#45;&#45;7586</title>
<path fill="none" stroke="black" d="M2203.01,-216.987C2191.34,-198.708 2171.07,-168.211 2151,-144 2139.48,-130.106 2125.01,-115.558 2114.26,-105.226"/>
</g>
<!-- 7582&#45;&#45;7588 -->
<g id="edge112" class="edge"><title>7582&#45;&#45;7588</title>
<path fill="none" stroke="black" d="M2209.95,-215.849C2202.82,-175.68 2185.1,-75.8902 2178.01,-35.9354"/>
</g>
<!-- 7584&#45;&#45;7586 -->
<g id="edge113" class="edge"><title>7584&#45;&#45;7586</title>
<path fill="none" stroke="black" d="M2273.6,-152.417C2235.3,-138.945 2161.52,-112.991 2123.29,-99.544"/>
</g>
<!-- 7584&#45;&#45;7588 -->
<g id="edge114" class="edge"><title>7584&#45;&#45;7588</title>
<path fill="none" stroke="black" d="M2286.4,-145.494C2272.71,-127.423 2249.01,-96.8634 2227,-72 2215.04,-58.4875 2200.61,-43.9034 2189.99,-33.4611"/>
</g>
<!-- 7586&#45;&#45;7588 -->
<g id="edge115" class="edge"><title>7586&#45;&#45;7588</title>
<path fill="none" stroke="black" d="M2114.75,-74.496C2127.88,-62.4021 2146.48,-45.2673 2159.53,-33.246"/>
</g>
<!-- 8067 -->
<g id="node54" class="node"><title>8067</title>
<ellipse fill="none" stroke="black" cx="2574" cy="-594" rx="28.6953" ry="18"/>
<text text-anchor="middle" x="2574" y="-590.3" font-family="Times New Roman,serif" font-size="14.00">8067</text>
</g>
<!-- 8068 -->
<g id="node55" class="node"><title>8068</title>
<ellipse fill="none" stroke="black" cx="2574" cy="-522" rx="28.6953" ry="18"/>
<text text-anchor="middle" x="2574" y="-518.3" font-family="Times New Roman,serif" font-size="14.00">8068</text>
</g>
<!-- 8067&#45;&#45;8068 -->
<g id="edge116" class="edge"><title>8067&#45;&#45;8068</title>
<path fill="none" stroke="black" d="M2574,-575.697C2574,-564.846 2574,-550.917 2574,-540.104"/>
</g>
<!-- 8151 -->
<g id="node56" class="node"><title>8151</title>
<ellipse fill="none" stroke="black" cx="2688" cy="-594" rx="28.6953" ry="18"/>
<text text-anchor="middle" x="2688" y="-590.3" font-family="Times New Roman,serif" font-size="14.00">8151</text>
</g>
<!-- 8152 -->
<g id="node57" class="node"><title>8152</title>
<ellipse fill="none" stroke="black" cx="2688" cy="-522" rx="28.6953" ry="18"/>
<text text-anchor="middle" x="2688" y="-518.3" font-family="Times New Roman,serif" font-size="14.00">8152</text>
</g>
<!-- 8151&#45;&#45;8152 -->
<g id="edge117" class="edge"><title>8151&#45;&#45;8152</title>
<path fill="none" stroke="black" d="M2688,-575.697C2688,-564.846 2688,-550.917 2688,-540.104"/>
</g>
<!-- 8154 -->
<g id="node58" class="node"><title>8154</title>
<ellipse fill="none" stroke="black" cx="2640" cy="-450" rx="28.6953" ry="18"/>
<text text-anchor="middle" x="2640" y="-446.3" font-family="Times New Roman,serif" font-size="14.00">8154</text>
</g>
<!-- 8151&#45;&#45;8154 -->
<g id="edge118" class="edge"><title>8151&#45;&#45;8154</title>
<path fill="none" stroke="black" d="M2674.04,-578.011C2665.6,-568.019 2655.44,-554.161 2650,-540 2640.85,-516.198 2639.32,-486.367 2639.4,-467.999"/>
</g>
<!-- 8156 -->
<g id="node59" class="node"><title>8156</title>
<ellipse fill="none" stroke="black" cx="2697" cy="-378" rx="28.6953" ry="18"/>
<text text-anchor="middle" x="2697" y="-374.3" font-family="Times New Roman,serif" font-size="14.00">8156</text>
</g>
<!-- 8151&#45;&#45;8156 -->
<g id="edge119" class="edge"><title>8151&#45;&#45;8156</title>
<path fill="none" stroke="black" d="M2702.5,-578.203C2711.16,-568.288 2721.36,-554.444 2726,-540 2742.51,-488.627 2718.54,-424.825 2705.08,-395.342"/>
</g>
<!-- 8152&#45;&#45;8154 -->
<g id="edge120" class="edge"><title>8152&#45;&#45;8154</title>
<path fill="none" stroke="black" d="M2677.11,-505.116C2669.25,-493.66 2658.69,-478.263 2650.85,-466.821"/>
</g>
<!-- 8152&#45;&#45;8156 -->
<g id="edge121" class="edge"><title>8152&#45;&#45;8156</title>
<path fill="none" stroke="black" d="M2689.09,-503.871C2690.82,-476.578 2694.18,-423.52 2695.91,-396.189"/>
</g>
<!-- 8154&#45;&#45;8156 -->
<g id="edge122" class="edge"><title>8154&#45;&#45;8156</title>
<path fill="none" stroke="black" d="M2652.65,-433.465C2662.1,-421.865 2674.95,-406.082 2684.39,-394.492"/>
</g>
<!-- 8371 -->
<g id="node60" class="node"><title>8371</title>
<ellipse fill="none" stroke="black" cx="544" cy="-522" rx="28.6953" ry="18"/>
<text text-anchor="middle" x="544" y="-518.3" font-family="Times New Roman,serif" font-size="14.00">8371</text>
</g>
<!-- 8371&#45;&#45;784 -->
<g id="edge123" class="edge"><title>8371&#45;&#45;784</title>
<path fill="none" stroke="black" d="M539.643,-504.055C536.813,-493.049 533.139,-478.764 530.317,-467.789"/>
</g>
<!-- 8371&#45;&#45;786 -->
<g id="edge124" class="edge"><title>8371&#45;&#45;786</title>
<path fill="none" stroke="black" d="M550.918,-504.109C554.824,-493.842 559.425,-480.368 562,-468 571.799,-420.935 578.509,-406.911 568,-360 565.064,-346.896 558.509,-333.214 552.848,-323.035"/>
</g>
<!-- 8375 -->
<g id="node61" class="node"><title>8375</title>
<ellipse fill="none" stroke="black" cx="2821" cy="-594" rx="28.6953" ry="18"/>
<text text-anchor="middle" x="2821" y="-590.3" font-family="Times New Roman,serif" font-size="14.00">8375</text>
</g>
<!-- 8376 -->
<g id="node62" class="node"><title>8376</title>
<ellipse fill="none" stroke="black" cx="2802" cy="-522" rx="28.6953" ry="18"/>
<text text-anchor="middle" x="2802" y="-518.3" font-family="Times New Roman,serif" font-size="14.00">8376</text>
</g>
<!-- 8375&#45;&#45;8376 -->
<g id="edge125" class="edge"><title>8375&#45;&#45;8376</title>
<path fill="none" stroke="black" d="M2816.4,-576.055C2813.41,-565.049 2809.54,-550.764 2806.56,-539.789"/>
</g>
<!-- 8378 -->
<g id="node63" class="node"><title>8378</title>
<ellipse fill="none" stroke="black" cx="2831" cy="-450" rx="28.6953" ry="18"/>
<text text-anchor="middle" x="2831" y="-446.3" font-family="Times New Roman,serif" font-size="14.00">8378</text>
</g>
<!-- 8375&#45;&#45;8378 -->
<g id="edge126" class="edge"><title>8375&#45;&#45;8378</title>
<path fill="none" stroke="black" d="M2828.7,-576.22C2832.96,-565.991 2837.82,-552.519 2840,-540 2844.34,-515.06 2839.5,-485.798 2835.42,-467.829"/>
</g>
<!-- 8376&#45;&#45;8378 -->
<g id="edge127" class="edge"><title>8376&#45;&#45;8378</title>
<path fill="none" stroke="black" d="M2808.87,-504.411C2813.43,-493.414 2819.39,-479.027 2823.98,-467.956"/>
</g>
<!-- 9681 -->
<g id="node64" class="node"><title>9681</title>
<ellipse fill="none" stroke="black" cx="2916" cy="-594" rx="28.6953" ry="18"/>
<text text-anchor="middle" x="2916" y="-590.3" font-family="Times New Roman,serif" font-size="14.00">9681</text>
</g>
<!-- 9682 -->
<g id="node65" class="node"><title>9682</title>
<ellipse fill="none" stroke="black" cx="2916" cy="-522" rx="28.6953" ry="18"/>
<text text-anchor="middle" x="2916" y="-518.3" font-family="Times New Roman,serif" font-size="14.00">9682</text>
</g>
<!-- 9681&#45;&#45;9682 -->
<g id="edge128" class="edge"><title>9681&#45;&#45;9682</title>
<path fill="none" stroke="black" d="M2916,-575.697C2916,-564.846 2916,-550.917 2916,-540.104"/>
</g>
<!-- 9685 -->
<g id="node66" class="node"><title>9685</title>
<ellipse fill="none" stroke="black" cx="2991" cy="-594" rx="28.6953" ry="18"/>
<text text-anchor="middle" x="2991" y="-590.3" font-family="Times New Roman,serif" font-size="14.00">9685</text>
</g>
<!-- 9686 -->
<g id="node67" class="node"><title>9686</title>
<ellipse fill="none" stroke="black" cx="2991" cy="-522" rx="28.6953" ry="18"/>
<text text-anchor="middle" x="2991" y="-518.3" font-family="Times New Roman,serif" font-size="14.00">9686</text>
</g>
<!-- 9685&#45;&#45;9686 -->
<g id="edge129" class="edge"><title>9685&#45;&#45;9686</title>
<path fill="none" stroke="black" d="M2991,-575.697C2991,-564.846 2991,-550.917 2991,-540.104"/>
</g>
<!-- 10217 -->
<g id="node68" class="node"><title>10217</title>
<ellipse fill="none" stroke="black" cx="3070" cy="-594" rx="32.4942" ry="18"/>
<text text-anchor="middle" x="3070" y="-590.3" font-family="Times New Roman,serif" font-size="14.00">10217</text>
</g>
<!-- 10218 -->
<g id="node69" class="node"><title>10218</title>
<ellipse fill="none" stroke="black" cx="3111" cy="-522" rx="32.4942" ry="18"/>
<text text-anchor="middle" x="3111" y="-518.3" font-family="Times New Roman,serif" font-size="14.00">10218</text>
</g>
<!-- 10217&#45;&#45;10218 -->
<g id="edge130" class="edge"><title>10217&#45;&#45;10218</title>
<path fill="none" stroke="black" d="M3079.51,-576.765C3086.04,-565.618 3094.68,-550.865 3101.26,-539.633"/>
</g>
<!-- 10659 -->
<g id="node70" class="node"><title>10659</title>
<ellipse fill="none" stroke="black" cx="3153" cy="-594" rx="32.4942" ry="18"/>
<text text-anchor="middle" x="3153" y="-590.3" font-family="Times New Roman,serif" font-size="14.00">10659</text>
</g>
<!-- 10659&#45;&#45;10218 -->
<g id="edge131" class="edge"><title>10659&#45;&#45;10218</title>
<path fill="none" stroke="black" d="M3143.26,-576.765C3136.57,-565.618 3127.72,-550.865 3120.98,-539.633"/>
</g>
</g>
</svg>
