<svg width="547px" height="347px"
 viewBox="0.00 0.00 410.00 260.00" xmlns="http://www.w3.org/2000/svg" xmlns:xlink="http://www.w3.org/1999/xlink">
<g id="graph0" class="graph" transform="scale(1.000022500562514 1.000022500562514) rotate(0) translate(4 256)">
<title>G</title>
<polygon fill="white" stroke="none" points="-4,4 -4,-256 406.001,-256 406.001,4 -4,4"/>
<!-- 1279 -->
<g id="node1" class="node"><title>1279</title>
<ellipse fill="none" stroke="black" cx="28.5975" cy="-234" rx="28.6953" ry="18"/>
<text text-anchor="middle" x="28.5975" y="-230.3" font-family="Times New Roman,serif" font-size="14.00">1279</text>
</g>
<!-- 1280 -->
<g id="node2" class="node"><title>1280</title>
<ellipse fill="none" stroke="black" cx="28.5975" cy="-162" rx="28.6953" ry="18"/>
<text text-anchor="middle" x="28.5975" y="-158.3" font-family="Times New Roman,serif" font-size="14.00">1280</text>
</g>
<!-- 1279&#45;&#45;1280 -->
<g id="edge1" class="edge"><title>1279&#45;&#45;1280</title>
<path fill="none" stroke="black" d="M28.5975,-215.697C28.5975,-204.846 28.5975,-190.917 28.5975,-180.104"/>
</g>
<!-- 1349 -->
<g id="node3" class="node"><title>1349</title>
<polygon fill="#974434" stroke="#974434" points="156.597,-252 102.597,-252 102.597,-216 156.597,-216 156.597,-252"/>
<text text-anchor="middle" x="129.597" y="-230.3" font-family="Times New Roman,serif" font-size="14.00">1349</text>
</g>
<!-- 1350 -->
<g id="node4" class="node"><title>1350</title>
<polygon fill="#53794d" stroke="#53794d" points="129.597,-180 75.5975,-180 75.5975,-144 129.597,-144 129.597,-180"/>
<text text-anchor="middle" x="102.597" y="-158.3" font-family="Times New Roman,serif" font-size="14.00">1350</text>
</g>
<!-- 1349&#45;&#45;1350 -->
<g id="edge2" class="edge"><title>1349&#45;&#45;1350</title>
<path fill="none" stroke="black" d="M122.923,-215.697C118.738,-204.846 113.365,-190.917 109.195,-180.104"/>
</g>
<!-- 1352 -->
<g id="node5" class="node"><title>1352</title>
<polygon fill="#425a6b" stroke="#425a6b" points="148.597,-108 94.5975,-108 94.5975,-72 148.597,-72 148.597,-108"/>
<text text-anchor="middle" x="121.597" y="-86.3" font-family="Times New Roman,serif" font-size="14.00">1352</text>
</g>
<!-- 1349&#45;&#45;1352 -->
<g id="edge3" class="edge"><title>1349&#45;&#45;1352</title>
<path fill="none" stroke="black" d="M133.92,-215.867C137.849,-197.894 142.486,-168.857 138.597,-144 136.686,-131.78 132.436,-118.53 128.664,-108.335"/>
</g>
<!-- 1350&#45;&#45;1352 -->
<g id="edge4" class="edge"><title>1350&#45;&#45;1352</title>
<path fill="none" stroke="black" d="M107.294,-143.697C110.239,-132.846 114.02,-118.917 116.955,-108.104"/>
</g>
<!-- 5131 -->
<g id="node6" class="node"><title>5131</title>
<polygon fill="#587a86" stroke="#587a86" points="266.597,-252 212.597,-252 212.597,-216 266.597,-216 266.597,-252"/>
<text text-anchor="middle" x="239.597" y="-230.3" font-family="Times New Roman,serif" font-size="14.00">5131</text>
</g>
<!-- 5132 -->
<g id="node7" class="node"><title>5132</title>
<polygon fill="#5e9438" stroke="#5e9438" points="239.597,-180 185.597,-180 185.597,-144 239.597,-144 239.597,-180"/>
<text text-anchor="middle" x="212.597" y="-158.3" font-family="Times New Roman,serif" font-size="14.00">5132</text>
</g>
<!-- 5131&#45;&#45;5132 -->
<g id="edge5" class="edge"><title>5131&#45;&#45;5132</title>
<path fill="none" stroke="black" d="M232.923,-215.697C228.738,-204.846 223.365,-190.917 219.195,-180.104"/>
</g>
<!-- 5134 -->
<g id="node8" class="node"><title>5134</title>
<polygon fill="#6a8e6f" stroke="#6a8e6f" points="253.597,-108 199.597,-108 199.597,-72 253.597,-72 253.597,-108"/>
<text text-anchor="middle" x="226.597" y="-86.3" font-family="Times New Roman,serif" font-size="14.00">5134</text>
</g>
<!-- 5131&#45;&#45;5134 -->
<g id="edge6" class="edge"><title>5131&#45;&#45;5134</title>
<path fill="none" stroke="black" d="M244.336,-215.793C248.605,-197.76 253.515,-168.674 248.597,-144 246.105,-131.494 240.605,-118.244 235.728,-108.12"/>
</g>
<!-- 5132&#45;&#45;5134 -->
<g id="edge7" class="edge"><title>5132&#45;&#45;5134</title>
<path fill="none" stroke="black" d="M216.058,-143.697C218.228,-132.846 221.014,-118.917 223.177,-108.104"/>
</g>
<!-- 5307 -->
<g id="node9" class="node"><title>5307</title>
<polygon fill="#7a335a" stroke="#7a335a" points="387.597,-252 333.597,-252 333.597,-216 387.597,-216 387.597,-252"/>
<text text-anchor="middle" x="360.597" y="-230.3" font-family="Times New Roman,serif" font-size="14.00">5307</text>
</g>
<!-- 5308 -->
<g id="node10" class="node"><title>5308</title>
<polygon fill="#8e8b35" stroke="#8e8b35" points="387.597,-180 333.597,-180 333.597,-144 387.597,-144 387.597,-180"/>
<text text-anchor="middle" x="360.597" y="-158.3" font-family="Times New Roman,serif" font-size="14.00">5308</text>
</g>
<!-- 5307&#45;&#45;5308 -->
<g id="edge8" class="edge"><title>5307&#45;&#45;5308</title>
<path fill="none" stroke="black" d="M360.597,-215.697C360.597,-204.846 360.597,-190.917 360.597,-180.104"/>
</g>
<!-- 5310 -->
<g id="node11" class="node"><title>5310</title>
<polygon fill="#898f8b" stroke="#898f8b" points="340.597,-108 286.597,-108 286.597,-72 340.597,-72 340.597,-108"/>
<text text-anchor="middle" x="313.597" y="-86.3" font-family="Times New Roman,serif" font-size="14.00">5310</text>
</g>
<!-- 5307&#45;&#45;5310 -->
<g id="edge9" class="edge"><title>5307&#45;&#45;5310</title>
<path fill="none" stroke="black" d="M345.628,-215.555C338.052,-205.748 329.454,-192.91 324.597,-180 315.662,-156.248 313.646,-126.661 313.36,-108.299"/>
</g>
<!-- 5312 -->
<g id="node12" class="node"><title>5312</title>
<polygon fill="#6d6e98" stroke="#6d6e98" points="395.597,-36 341.597,-36 341.597,-0 395.597,-0 395.597,-36"/>
<text text-anchor="middle" x="368.597" y="-14.3" font-family="Times New Roman,serif" font-size="14.00">5312</text>
</g>
<!-- 5307&#45;&#45;5312 -->
<g id="edge10" class="edge"><title>5307&#45;&#45;5312</title>
<path fill="none" stroke="black" d="M376.207,-215.774C383.97,-206.03 392.543,-193.184 396.597,-180 412.275,-129.019 389.825,-66.0878 376.793,-36.2528"/>
</g>
<!-- 5308&#45;&#45;5310 -->
<g id="edge11" class="edge"><title>5308&#45;&#45;5310</title>
<path fill="none" stroke="black" d="M348.979,-143.697C341.694,-132.846 332.342,-118.917 325.082,-108.104"/>
</g>
<!-- 5308&#45;&#45;5312 -->
<g id="edge12" class="edge"><title>5308&#45;&#45;5312</title>
<path fill="none" stroke="black" d="M361.562,-143.871C363.1,-116.578 366.089,-63.5205 367.629,-36.1893"/>
</g>
<!-- 5310&#45;&#45;5312 -->
<g id="edge13" class="edge"><title>5310&#45;&#45;5312</title>
<path fill="none" stroke="black" d="M327.193,-71.6966C335.718,-60.8463 346.663,-46.9167 355.158,-36.1043"/>
</g>
</g>
</svg>
