<svg width="562px" height="347px"
 viewBox="0.00 0.00 421.26 260.00" xmlns="http://www.w3.org/2000/svg" xmlns:xlink="http://www.w3.org/1999/xlink">
<g id="graph0" class="graph" transform="scale(1.000022500562514 1.000022500562514) rotate(0) translate(4 256)">
<title>G</title>
<polygon fill="white" stroke="none" points="-4,4 -4,-256 417.256,-256 417.256,4 -4,4"/>
<!-- 1279 -->
<g id="node1" class="node"><title>1279</title>
<ellipse fill="none" stroke="black" cx="28.5975" cy="-234" rx="28.6953" ry="18"/>
<text text-anchor="middle" x="28.5975" y="-230.3" font-family="Times New Roman,serif" font-size="14.00">1279</text>
</g>
<!-- 1280 -->
<g id="node2" class="node"><title>1280</title>
<ellipse fill="none" stroke="black" cx="28.5975" cy="-162" rx="28.6953" ry="18"/>
<text text-anchor="middle" x="28.5975" y="-158.3" font-family="Times New Roman,serif" font-size="14.00">1280</text>
</g>
<!-- 1279&#45;&#45;1280 -->
<g id="edge1" class="edge"><title>1279&#45;&#45;1280</title>
<path fill="none" stroke="black" d="M28.5975,-215.697C28.5975,-204.846 28.5975,-190.917 28.5975,-180.104"/>
</g>
<!-- 1349 -->
<g id="node3" class="node"><title>1349</title>
<ellipse fill="cyan" stroke="cyan" cx="131.597" cy="-234" rx="28.6953" ry="18"/>
<text text-anchor="middle" x="131.597" y="-230.3" font-family="Times New Roman,serif" font-size="14.00">1349</text>
</g>
<!-- 1350 -->
<g id="node4" class="node"><title>1350</title>
<ellipse fill="cyan" stroke="cyan" cx="103.597" cy="-162" rx="28.6953" ry="18"/>
<text text-anchor="middle" x="103.597" y="-158.3" font-family="Times New Roman,serif" font-size="14.00">1350</text>
</g>
<!-- 1349&#45;&#45;1350 -->
<g id="edge2" class="edge"><title>1349&#45;&#45;1350</title>
<path fill="none" stroke="black" d="M124.962,-216.411C120.563,-205.414 114.808,-191.027 110.38,-179.956"/>
</g>
<!-- 1352 -->
<g id="node5" class="node"><title>1352</title>
<ellipse fill="cyan" stroke="cyan" cx="122.597" cy="-90" rx="28.6953" ry="18"/>
<text text-anchor="middle" x="122.597" y="-86.3" font-family="Times New Roman,serif" font-size="14.00">1352</text>
</g>
<!-- 1349&#45;&#45;1352 -->
<g id="edge3" class="edge"><title>1349&#45;&#45;1352</title>
<path fill="none" stroke="black" d="M136.316,-216.183C140.697,-198.224 145.938,-168.97 141.597,-144 139.421,-131.481 134.556,-118.009 130.293,-107.78"/>
</g>
<!-- 1350&#45;&#45;1352 -->
<g id="edge4" class="edge"><title>1350&#45;&#45;1352</title>
<path fill="none" stroke="black" d="M108.197,-144.055C111.184,-133.049 115.062,-118.764 118.04,-107.789"/>
</g>
<!-- 5131 -->
<g id="node6" class="node"><title>5131</title>
<ellipse fill="cyan" stroke="cyan" cx="245.597" cy="-234" rx="28.6953" ry="18"/>
<text text-anchor="middle" x="245.597" y="-230.3" font-family="Times New Roman,serif" font-size="14.00">5131</text>
</g>
<!-- 5132 -->
<g id="node7" class="node"><title>5132</title>
<ellipse fill="cyan" stroke="cyan" cx="217.597" cy="-162" rx="28.6953" ry="18"/>
<text text-anchor="middle" x="217.597" y="-158.3" font-family="Times New Roman,serif" font-size="14.00">5132</text>
</g>
<!-- 5131&#45;&#45;5132 -->
<g id="edge5" class="edge"><title>5131&#45;&#45;5132</title>
<path fill="none" stroke="black" d="M238.962,-216.411C234.563,-205.414 228.808,-191.027 224.38,-179.956"/>
</g>
<!-- 5134 -->
<g id="node8" class="node"><title>5134</title>
<ellipse fill="none" stroke="black" cx="231.597" cy="-90" rx="28.6953" ry="18"/>
<text text-anchor="middle" x="231.597" y="-86.3" font-family="Times New Roman,serif" font-size="14.00">5134</text>
</g>
<!-- 5131&#45;&#45;5134 -->
<g id="edge6" class="edge"><title>5131&#45;&#45;5134</title>
<path fill="none" stroke="black" d="M250.715,-216.105C255.429,-198.081 260.945,-168.774 255.597,-144 252.784,-130.967 246.491,-117.283 241.055,-107.085"/>
</g>
<!-- 5132&#45;&#45;5134 -->
<g id="edge7" class="edge"><title>5132&#45;&#45;5134</title>
<path fill="none" stroke="black" d="M220.986,-144.055C223.155,-133.211 225.961,-119.183 228.142,-108.275"/>
</g>
<!-- 5307 -->
<g id="node9" class="node"><title>5307</title>
<ellipse fill="none" stroke="black" cx="369.597" cy="-234" rx="28.6953" ry="18"/>
<text text-anchor="middle" x="369.597" y="-230.3" font-family="Times New Roman,serif" font-size="14.00">5307</text>
</g>
<!-- 5308 -->
<g id="node10" class="node"><title>5308</title>
<ellipse fill="none" stroke="black" cx="369.597" cy="-162" rx="28.6953" ry="18"/>
<text text-anchor="middle" x="369.597" y="-158.3" font-family="Times New Roman,serif" font-size="14.00">5308</text>
</g>
<!-- 5307&#45;&#45;5308 -->
<g id="edge8" class="edge"><title>5307&#45;&#45;5308</title>
<path fill="none" stroke="black" d="M369.597,-215.697C369.597,-204.846 369.597,-190.917 369.597,-180.104"/>
</g>
<!-- 5310 -->
<g id="node11" class="node"><title>5310</title>
<ellipse fill="none" stroke="black" cx="321.597" cy="-90" rx="28.6953" ry="18"/>
<text text-anchor="middle" x="321.597" y="-86.3" font-family="Times New Roman,serif" font-size="14.00">5310</text>
</g>
<!-- 5307&#45;&#45;5310 -->
<g id="edge9" class="edge"><title>5307&#45;&#45;5310</title>
<path fill="none" stroke="black" d="M355.641,-218.011C347.197,-208.019 337.041,-194.161 331.597,-180 322.449,-156.198 320.918,-126.367 320.999,-107.999"/>
</g>
<!-- 5312 -->
<g id="node12" class="node"><title>5312</title>
<ellipse fill="none" stroke="black" cx="378.597" cy="-18" rx="28.6953" ry="18"/>
<text text-anchor="middle" x="378.597" y="-14.3" font-family="Times New Roman,serif" font-size="14.00">5312</text>
</g>
<!-- 5307&#45;&#45;5312 -->
<g id="edge10" class="edge"><title>5307&#45;&#45;5312</title>
<path fill="none" stroke="black" d="M384.099,-218.203C392.761,-208.288 402.955,-194.444 407.597,-180 424.111,-128.627 400.138,-64.825 386.679,-35.3419"/>
</g>
<!-- 5308&#45;&#45;5310 -->
<g id="edge11" class="edge"><title>5308&#45;&#45;5310</title>
<path fill="none" stroke="black" d="M358.706,-145.116C350.85,-133.66 340.292,-118.263 332.446,-106.821"/>
</g>
<!-- 5308&#45;&#45;5312 -->
<g id="edge12" class="edge"><title>5308&#45;&#45;5312</title>
<path fill="none" stroke="black" d="M370.683,-143.871C372.413,-116.578 375.776,-63.5205 377.508,-36.1893"/>
</g>
<!-- 5310&#45;&#45;5312 -->
<g id="edge13" class="edge"><title>5310&#45;&#45;5312</title>
<path fill="none" stroke="black" d="M334.248,-73.4647C343.693,-61.8645 356.545,-46.0816 365.983,-34.4918"/>
</g>
</g>
</svg>
