<svg width="916px" height="443px"
 viewBox="0.00 0.00 686.86 332.00" xmlns="http://www.w3.org/2000/svg" xmlns:xlink="http://www.w3.org/1999/xlink">
<g id="graph0" class="graph" transform="scale(1.000022500562514 1.000022500562514) rotate(0) translate(4 328)">
<title>G</title>
<polygon fill="white" stroke="none" points="-4,4 -4,-328 682.862,-328 682.862,4 -4,4"/>
<!-- 1449 -->
<g id="node1" class="node"><title>1449</title>
<polygon fill="#3d429a" stroke="#3d429a" points="59.4577,-324 5.45775,-324 5.45775,-288 59.4577,-288 59.4577,-324"/>
<text text-anchor="middle" x="32.4577" y="-302.3" font-family="Times New Roman,serif" font-size="14.00">1449</text>
</g>
<!-- 1450 -->
<g id="node2" class="node"><title>1450</title>
<polygon fill="#5d866f" stroke="#5d866f" points="68.4577,-180 14.4577,-180 14.4577,-144 68.4577,-144 68.4577,-180"/>
<text text-anchor="middle" x="41.4577" y="-158.3" font-family="Times New Roman,serif" font-size="14.00">1450</text>
</g>
<!-- 1449&#45;&#45;1450 -->
<g id="edge1" class="edge"><title>1449&#45;&#45;1450</title>
<path fill="none" stroke="black" d="M33.5434,-287.871C35.2732,-260.578 38.636,-207.52 40.3683,-180.189"/>
</g>
<!-- 1452 -->
<g id="node3" class="node"><title>1452</title>
<polygon fill="#7b953d" stroke="#7b953d" points="68.4577,-108 14.4577,-108 14.4577,-72 68.4577,-72 68.4577,-108"/>
<text text-anchor="middle" x="41.4577" y="-86.3" font-family="Times New Roman,serif" font-size="14.00">1452</text>
</g>
<!-- 1449&#45;&#45;1452 -->
<g id="edge2" class="edge"><title>1449&#45;&#45;1452</title>
<path fill="none" stroke="black" d="M24.4397,-287.736C11.6991,-257.884 -10.2033,-194.929 5.45775,-144 9.51182,-130.816 18.0848,-117.97 25.8478,-108.226"/>
</g>
<!-- 10132 -->
<g id="node4" class="node"><title>10132</title>
<polygon fill="#5d8a5e" stroke="#5d8a5e" points="114.458,-252 60.4577,-252 60.4577,-216 114.458,-216 114.458,-252"/>
<text text-anchor="middle" x="87.4577" y="-230.3" font-family="Times New Roman,serif" font-size="14.00">10132</text>
</g>
<!-- 1449&#45;&#45;10132 -->
<g id="edge3" class="edge"><title>1449&#45;&#45;10132</title>
<path fill="none" stroke="black" d="M46.0533,-287.697C54.5785,-276.846 65.5232,-262.917 74.0186,-252.104"/>
</g>
<!-- 1450&#45;&#45;1452 -->
<g id="edge4" class="edge"><title>1450&#45;&#45;1452</title>
<path fill="none" stroke="black" d="M41.4577,-143.697C41.4577,-132.846 41.4577,-118.917 41.4577,-108.104"/>
</g>
<!-- 10132&#45;&#45;1450 -->
<g id="edge5" class="edge"><title>10132&#45;&#45;1450</title>
<path fill="none" stroke="black" d="M76.087,-215.697C68.9567,-204.846 59.803,-190.917 52.6977,-180.104"/>
</g>
<!-- 10132&#45;&#45;1452 -->
<g id="edge6" class="edge"><title>10132&#45;&#45;1452</title>
<path fill="none" stroke="black" d="M87.9384,-215.708C87.8999,-197.352 86.2499,-167.77 77.4577,-144 72.6728,-131.064 64.077,-118.225 56.4847,-108.424"/>
</g>
<!-- 6715 -->
<g id="node5" class="node"><title>6715</title>
<polygon fill="#3a3788" stroke="#3a3788" points="186.458,-324 132.458,-324 132.458,-288 186.458,-288 186.458,-324"/>
<text text-anchor="middle" x="159.458" y="-302.3" font-family="Times New Roman,serif" font-size="14.00">6715</text>
</g>
<!-- 6716 -->
<g id="node6" class="node"><title>6716</title>
<polygon fill="#3b5388" stroke="#3b5388" points="186.458,-252 132.458,-252 132.458,-216 186.458,-216 186.458,-252"/>
<text text-anchor="middle" x="159.458" y="-230.3" font-family="Times New Roman,serif" font-size="14.00">6716</text>
</g>
<!-- 6715&#45;&#45;6716 -->
<g id="edge7" class="edge"><title>6715&#45;&#45;6716</title>
<path fill="none" stroke="black" d="M159.458,-287.697C159.458,-276.846 159.458,-262.917 159.458,-252.104"/>
</g>
<!-- 7847 -->
<g id="node7" class="node"><title>7847</title>
<polygon fill="#7f7c39" stroke="#7f7c39" points="258.458,-324 204.458,-324 204.458,-288 258.458,-288 258.458,-324"/>
<text text-anchor="middle" x="231.458" y="-302.3" font-family="Times New Roman,serif" font-size="14.00">7847</text>
</g>
<!-- 7848 -->
<g id="node8" class="node"><title>7848</title>
<polygon fill="#894d3e" stroke="#894d3e" points="258.458,-252 204.458,-252 204.458,-216 258.458,-216 258.458,-252"/>
<text text-anchor="middle" x="231.458" y="-230.3" font-family="Times New Roman,serif" font-size="14.00">7848</text>
</g>
<!-- 7847&#45;&#45;7848 -->
<g id="edge8" class="edge"><title>7847&#45;&#45;7848</title>
<path fill="none" stroke="black" d="M231.458,-287.697C231.458,-276.846 231.458,-262.917 231.458,-252.104"/>
</g>
<!-- 9769 -->
<g id="node9" class="node"><title>9769</title>
<polygon fill="#6e375b" stroke="#6e375b" points="395.458,-324 341.458,-324 341.458,-288 395.458,-288 395.458,-324"/>
<text text-anchor="middle" x="368.458" y="-302.3" font-family="Times New Roman,serif" font-size="14.00">9769</text>
</g>
<!-- 9770 -->
<g id="node10" class="node"><title>9770</title>
<polygon fill="#335242" stroke="#335242" points="423.458,-252 369.458,-252 369.458,-216 423.458,-216 423.458,-252"/>
<text text-anchor="middle" x="396.458" y="-230.3" font-family="Times New Roman,serif" font-size="14.00">9770</text>
</g>
<!-- 9769&#45;&#45;9770 -->
<g id="edge9" class="edge"><title>9769&#45;&#45;9770</title>
<path fill="none" stroke="black" d="M375.379,-287.697C379.719,-276.846 385.291,-262.917 389.616,-252.104"/>
</g>
<!-- 9772 -->
<g id="node11" class="node"><title>9772</title>
<polygon fill="#5c8790" stroke="#5c8790" points="368.458,-180 314.458,-180 314.458,-144 368.458,-144 368.458,-180"/>
<text text-anchor="middle" x="341.458" y="-158.3" font-family="Times New Roman,serif" font-size="14.00">9772</text>
</g>
<!-- 9769&#45;&#45;9772 -->
<g id="edge10" class="edge"><title>9769&#45;&#45;9772</title>
<path fill="none" stroke="black" d="M365.201,-287.871C360.011,-260.578 349.923,-207.52 344.726,-180.189"/>
</g>
<!-- 9774 -->
<g id="node12" class="node"><title>9774</title>
<polygon fill="#7e5270" stroke="#7e5270" points="478.458,-108 424.458,-108 424.458,-72 478.458,-72 478.458,-108"/>
<text text-anchor="middle" x="451.458" y="-86.3" font-family="Times New Roman,serif" font-size="14.00">9774</text>
</g>
<!-- 9769&#45;&#45;9774 -->
<g id="edge11" class="edge"><title>9769&#45;&#45;9774</title>
<path fill="none" stroke="black" d="M395.465,-289.569C408.871,-280.431 423.977,-267.587 432.458,-252 458.016,-205.027 456.102,-139.094 453.417,-108.219"/>
</g>
<!-- 9776 -->
<g id="node13" class="node"><title>9776</title>
<polygon fill="#436c96" stroke="#436c96" points="399.458,-36 345.458,-36 345.458,-0 399.458,-0 399.458,-36"/>
<text text-anchor="middle" x="372.458" y="-14.3" font-family="Times New Roman,serif" font-size="14.00">9776</text>
</g>
<!-- 9769&#45;&#45;9776 -->
<g id="edge12" class="edge"><title>9769&#45;&#45;9776</title>
<path fill="none" stroke="black" d="M353.853,-287.616C331.279,-258.603 291.861,-198.147 305.458,-144 315.952,-102.209 343.408,-59.1413 359.731,-36.0717"/>
</g>
<!-- 9770&#45;&#45;9772 -->
<g id="edge13" class="edge"><title>9770&#45;&#45;9772</title>
<path fill="none" stroke="black" d="M382.862,-215.697C374.337,-204.846 363.392,-190.917 354.897,-180.104"/>
</g>
<!-- 9770&#45;&#45;9774 -->
<g id="edge14" class="edge"><title>9770&#45;&#45;9774</title>
<path fill="none" stroke="black" d="M403.092,-215.871C413.663,-188.578 434.214,-135.52 444.8,-108.189"/>
</g>
<!-- 9770&#45;&#45;9776 -->
<g id="edge15" class="edge"><title>9770&#45;&#45;9776</title>
<path fill="none" stroke="black" d="M394.534,-215.849C390.041,-175.78 378.893,-76.3826 374.39,-36.2325"/>
</g>
<!-- 9772&#45;&#45;9774 -->
<g id="edge16" class="edge"><title>9772&#45;&#45;9774</title>
<path fill="none" stroke="black" d="M368.367,-143.876C385.413,-133.029 407.38,-119.05 424.445,-108.19"/>
</g>
<!-- 9772&#45;&#45;9776 -->
<g id="edge17" class="edge"><title>9772&#45;&#45;9776</title>
<path fill="none" stroke="black" d="M345.197,-143.871C351.155,-116.578 362.738,-63.5205 368.705,-36.1893"/>
</g>
<!-- 9774&#45;&#45;9776 -->
<g id="edge18" class="edge"><title>9774&#45;&#45;9776</title>
<path fill="none" stroke="black" d="M431.93,-71.6966C419.684,-60.8463 403.964,-46.9167 391.761,-36.1043"/>
</g>
<!-- 10795 -->
<g id="node14" class="node"><title>10795</title>
<polygon fill="#688761" stroke="#688761" points="554.458,-324 500.458,-324 500.458,-288 554.458,-288 554.458,-324"/>
<text text-anchor="middle" x="527.458" y="-302.3" font-family="Times New Roman,serif" font-size="14.00">10795</text>
</g>
<!-- 10796 -->
<g id="node15" class="node"><title>10796</title>
<polygon fill="#948f33" stroke="#948f33" points="554.458,-252 500.458,-252 500.458,-216 554.458,-216 554.458,-252"/>
<text text-anchor="middle" x="527.458" y="-230.3" font-family="Times New Roman,serif" font-size="14.00">10796</text>
</g>
<!-- 10795&#45;&#45;10796 -->
<g id="edge19" class="edge"><title>10795&#45;&#45;10796</title>
<path fill="none" stroke="black" d="M527.458,-287.697C527.458,-276.846 527.458,-262.917 527.458,-252.104"/>
</g>
<!-- 12149 -->
<g id="node16" class="node"><title>12149</title>
<polygon fill="#343353" stroke="#343353" points="664.458,-324 610.458,-324 610.458,-288 664.458,-288 664.458,-324"/>
<text text-anchor="middle" x="637.458" y="-302.3" font-family="Times New Roman,serif" font-size="14.00">12149</text>
</g>
<!-- 12150 -->
<g id="node17" class="node"><title>12150</title>
<polygon fill="#676737" stroke="#676737" points="664.458,-252 610.458,-252 610.458,-216 664.458,-216 664.458,-252"/>
<text text-anchor="middle" x="637.458" y="-230.3" font-family="Times New Roman,serif" font-size="14.00">12150</text>
</g>
<!-- 12149&#45;&#45;12150 -->
<g id="edge20" class="edge"><title>12149&#45;&#45;12150</title>
<path fill="none" stroke="black" d="M637.458,-287.697C637.458,-276.846 637.458,-262.917 637.458,-252.104"/>
</g>
<!-- 12152 -->
<g id="node18" class="node"><title>12152</title>
<polygon fill="#35537f" stroke="#35537f" points="617.458,-180 563.458,-180 563.458,-144 617.458,-144 617.458,-180"/>
<text text-anchor="middle" x="590.458" y="-158.3" font-family="Times New Roman,serif" font-size="14.00">12152</text>
</g>
<!-- 12149&#45;&#45;12152 -->
<g id="edge21" class="edge"><title>12149&#45;&#45;12152</title>
<path fill="none" stroke="black" d="M622.488,-287.555C614.912,-277.748 606.314,-264.91 601.458,-252 592.522,-228.248 590.506,-198.661 590.22,-180.299"/>
</g>
<!-- 12154 -->
<g id="node19" class="node"><title>12154</title>
<polygon fill="#489b80" stroke="#489b80" points="672.458,-108 618.458,-108 618.458,-72 672.458,-72 672.458,-108"/>
<text text-anchor="middle" x="645.458" y="-86.3" font-family="Times New Roman,serif" font-size="14.00">12154</text>
</g>
<!-- 12149&#45;&#45;12154 -->
<g id="edge22" class="edge"><title>12149&#45;&#45;12154</title>
<path fill="none" stroke="black" d="M653.068,-287.774C660.831,-278.03 669.404,-265.184 673.458,-252 689.135,-201.019 666.686,-138.088 653.653,-108.253"/>
</g>
<!-- 12150&#45;&#45;12152 -->
<g id="edge23" class="edge"><title>12150&#45;&#45;12152</title>
<path fill="none" stroke="black" d="M625.84,-215.697C618.555,-204.846 609.202,-190.917 601.942,-180.104"/>
</g>
<!-- 12150&#45;&#45;12154 -->
<g id="edge24" class="edge"><title>12150&#45;&#45;12154</title>
<path fill="none" stroke="black" d="M638.423,-215.871C639.96,-188.578 642.95,-135.52 644.489,-108.189"/>
</g>
<!-- 12152&#45;&#45;12154 -->
<g id="edge25" class="edge"><title>12152&#45;&#45;12154</title>
<path fill="none" stroke="black" d="M604.053,-143.697C612.579,-132.846 623.523,-118.917 632.019,-108.104"/>
</g>
</g>
</svg>
