<svg width="958px" height="443px"
 viewBox="0.00 0.00 718.48 332.00" xmlns="http://www.w3.org/2000/svg" xmlns:xlink="http://www.w3.org/1999/xlink">
<g id="graph0" class="graph" transform="scale(1.000022500562514 1.000022500562514) rotate(0) translate(4 328)">
<title>G</title>
<polygon fill="white" stroke="none" points="-4,4 -4,-328 714.484,-328 714.484,4 -4,4"/>
<!-- 1449 -->
<g id="node1" class="node"><title>1449</title>
<polygon fill="#6b668f" stroke="#6b668f" points="59.4577,-324 5.45775,-324 5.45775,-288 59.4577,-288 59.4577,-324"/>
<text text-anchor="middle" x="32.4577" y="-302.3" font-family="Times New Roman,serif" font-size="14.00">1449</text>
</g>
<!-- 1450 -->
<g id="node2" class="node"><title>1450</title>
<polygon fill="#62406a" stroke="#62406a" points="68.4577,-180 14.4577,-180 14.4577,-144 68.4577,-144 68.4577,-180"/>
<text text-anchor="middle" x="41.4577" y="-158.3" font-family="Times New Roman,serif" font-size="14.00">1450</text>
</g>
<!-- 1449&#45;&#45;1450 -->
<g id="edge1" class="edge"><title>1449&#45;&#45;1450</title>
<path fill="none" stroke="black" d="M33.5434,-287.871C35.2732,-260.578 38.636,-207.52 40.3683,-180.189"/>
</g>
<!-- 1452 -->
<g id="node3" class="node"><title>1452</title>
<polygon fill="#785259" stroke="#785259" points="68.4577,-108 14.4577,-108 14.4577,-72 68.4577,-72 68.4577,-108"/>
<text text-anchor="middle" x="41.4577" y="-86.3" font-family="Times New Roman,serif" font-size="14.00">1452</text>
</g>
<!-- 1449&#45;&#45;1452 -->
<g id="edge2" class="edge"><title>1449&#45;&#45;1452</title>
<path fill="none" stroke="black" d="M24.4397,-287.736C11.6991,-257.884 -10.2033,-194.929 5.45775,-144 9.51182,-130.816 18.0848,-117.97 25.8478,-108.226"/>
</g>
<!-- 10132 -->
<g id="node4" class="node"><title>10132</title>
<polygon fill="#6c6d51" stroke="#6c6d51" points="114.458,-252 60.4577,-252 60.4577,-216 114.458,-216 114.458,-252"/>
<text text-anchor="middle" x="87.4577" y="-230.3" font-family="Times New Roman,serif" font-size="14.00">10132</text>
</g>
<!-- 1449&#45;&#45;10132 -->
<g id="edge3" class="edge"><title>1449&#45;&#45;10132</title>
<path fill="none" stroke="black" d="M46.0533,-287.697C54.5785,-276.846 65.5232,-262.917 74.0186,-252.104"/>
</g>
<!-- 1450&#45;&#45;1452 -->
<g id="edge4" class="edge"><title>1450&#45;&#45;1452</title>
<path fill="none" stroke="black" d="M41.4577,-143.697C41.4577,-132.846 41.4577,-118.917 41.4577,-108.104"/>
</g>
<!-- 10132&#45;&#45;1450 -->
<g id="edge5" class="edge"><title>10132&#45;&#45;1450</title>
<path fill="none" stroke="black" d="M76.087,-215.697C68.9567,-204.846 59.803,-190.917 52.6977,-180.104"/>
</g>
<!-- 10132&#45;&#45;1452 -->
<g id="edge6" class="edge"><title>10132&#45;&#45;1452</title>
<path fill="none" stroke="black" d="M87.9384,-215.708C87.8999,-197.352 86.2499,-167.77 77.4577,-144 72.6728,-131.064 64.077,-118.225 56.4847,-108.424"/>
</g>
<!-- 6715 -->
<g id="node5" class="node"><title>6715</title>
<ellipse fill="none" stroke="black" cx="161.458" cy="-306" rx="28.6953" ry="18"/>
<text text-anchor="middle" x="161.458" y="-302.3" font-family="Times New Roman,serif" font-size="14.00">6715</text>
</g>
<!-- 6716 -->
<g id="node6" class="node"><title>6716</title>
<ellipse fill="none" stroke="black" cx="161.458" cy="-234" rx="28.6953" ry="18"/>
<text text-anchor="middle" x="161.458" y="-230.3" font-family="Times New Roman,serif" font-size="14.00">6716</text>
</g>
<!-- 6715&#45;&#45;6716 -->
<g id="edge7" class="edge"><title>6715&#45;&#45;6716</title>
<path fill="none" stroke="black" d="M161.458,-287.697C161.458,-276.846 161.458,-262.917 161.458,-252.104"/>
</g>
<!-- 7847 -->
<g id="node7" class="node"><title>7847</title>
<ellipse fill="none" stroke="black" cx="236.458" cy="-306" rx="28.6953" ry="18"/>
<text text-anchor="middle" x="236.458" y="-302.3" font-family="Times New Roman,serif" font-size="14.00">7847</text>
</g>
<!-- 7848 -->
<g id="node8" class="node"><title>7848</title>
<ellipse fill="none" stroke="black" cx="236.458" cy="-234" rx="28.6953" ry="18"/>
<text text-anchor="middle" x="236.458" y="-230.3" font-family="Times New Roman,serif" font-size="14.00">7848</text>
</g>
<!-- 7847&#45;&#45;7848 -->
<g id="edge8" class="edge"><title>7847&#45;&#45;7848</title>
<path fill="none" stroke="black" d="M236.458,-287.697C236.458,-276.846 236.458,-262.917 236.458,-252.104"/>
</g>
<!-- 9769 -->
<g id="node9" class="node"><title>9769</title>
<ellipse fill="#8a6d46" stroke="#8a6d46" cx="378.458" cy="-306" rx="28.6953" ry="18"/>
<text text-anchor="middle" x="378.458" y="-302.3" font-family="Times New Roman,serif" font-size="14.00">9769</text>
</g>
<!-- 9770 -->
<g id="node10" class="node"><title>9770</title>
<polygon fill="#8a6d46" stroke="#8a6d46" points="433.458,-252 379.458,-252 379.458,-216 433.458,-216 433.458,-252"/>
<text text-anchor="middle" x="406.458" y="-230.3" font-family="Times New Roman,serif" font-size="14.00">9770</text>
</g>
<!-- 9769&#45;&#45;9770 -->
<g id="edge9" class="edge"><title>9769&#45;&#45;9770</title>
<path fill="none" stroke="black" d="M385.093,-288.411C389.427,-277.576 395.078,-263.45 399.479,-252.447"/>
</g>
<!-- 9772 -->
<g id="node11" class="node"><title>9772</title>
<ellipse fill="#8a6d46" stroke="#8a6d46" cx="350.458" cy="-162" rx="28.6953" ry="18"/>
<text text-anchor="middle" x="350.458" y="-158.3" font-family="Times New Roman,serif" font-size="14.00">9772</text>
</g>
<!-- 9769&#45;&#45;9772 -->
<g id="edge10" class="edge"><title>9769&#45;&#45;9772</title>
<path fill="none" stroke="black" d="M375.08,-287.871C369.699,-260.578 359.236,-207.52 353.847,-180.189"/>
</g>
<!-- 9774 -->
<g id="node12" class="node"><title>9774</title>
<ellipse fill="none" stroke="black" cx="464.458" cy="-90" rx="28.6953" ry="18"/>
<text text-anchor="middle" x="464.458" y="-86.3" font-family="Times New Roman,serif" font-size="14.00">9774</text>
</g>
<!-- 9769&#45;&#45;9774 -->
<g id="edge11" class="edge"><title>9769&#45;&#45;9774</title>
<path fill="none" stroke="black" d="M399.306,-293.482C413.9,-284.253 432.502,-269.904 442.458,-252 468.506,-205.154 468.008,-139.159 466.019,-108.245"/>
</g>
<!-- 9776 -->
<g id="node13" class="node"><title>9776</title>
<ellipse fill="none" stroke="black" cx="383.458" cy="-18" rx="28.6953" ry="18"/>
<text text-anchor="middle" x="383.458" y="-14.3" font-family="Times New Roman,serif" font-size="14.00">9776</text>
</g>
<!-- 9769&#45;&#45;9776 -->
<g id="edge12" class="edge"><title>9769&#45;&#45;9776</title>
<path fill="none" stroke="black" d="M365.003,-289.922C341.713,-261.95 297.72,-199.785 312.458,-144 323.868,-100.807 354.034,-56.9036 371.149,-34.4003"/>
</g>
<!-- 9770&#45;&#45;9772 -->
<g id="edge13" class="edge"><title>9770&#45;&#45;9772</title>
<path fill="none" stroke="black" d="M392.615,-215.697C383.546,-204.36 371.788,-189.663 362.995,-178.671"/>
</g>
<!-- 9770&#45;&#45;9774 -->
<g id="edge14" class="edge"><title>9770&#45;&#45;9774</title>
<path fill="none" stroke="black" d="M413.454,-215.871C424.662,-188.431 446.508,-134.946 457.617,-107.748"/>
</g>
<!-- 9770&#45;&#45;9776 -->
<g id="edge15" class="edge"><title>9770&#45;&#45;9776</title>
<path fill="none" stroke="black" d="M404.614,-215.849C400.308,-175.78 389.625,-76.3826 385.31,-36.2325"/>
</g>
<!-- 9772&#45;&#45;9774 -->
<g id="edge16" class="edge"><title>9772&#45;&#45;9774</title>
<path fill="none" stroke="black" d="M370.315,-148.807C391.111,-136.037 423.591,-116.093 444.446,-103.288"/>
</g>
<!-- 9772&#45;&#45;9776 -->
<g id="edge17" class="edge"><title>9772&#45;&#45;9776</title>
<path fill="none" stroke="black" d="M354.373,-144.153C360.69,-116.971 373.066,-63.7165 379.445,-36.2678"/>
</g>
<!-- 9774&#45;&#45;9776 -->
<g id="edge18" class="edge"><title>9774&#45;&#45;9776</title>
<path fill="none" stroke="black" d="M448.066,-74.8345C433.921,-62.6099 413.606,-45.0538 399.549,-32.9056"/>
</g>
<!-- 10795 -->
<g id="node14" class="node"><title>10795</title>
<ellipse fill="none" stroke="black" cx="543.458" cy="-306" rx="32.4942" ry="18"/>
<text text-anchor="middle" x="543.458" y="-302.3" font-family="Times New Roman,serif" font-size="14.00">10795</text>
</g>
<!-- 10796 -->
<g id="node15" class="node"><title>10796</title>
<ellipse fill="none" stroke="black" cx="543.458" cy="-234" rx="32.4942" ry="18"/>
<text text-anchor="middle" x="543.458" y="-230.3" font-family="Times New Roman,serif" font-size="14.00">10796</text>
</g>
<!-- 10795&#45;&#45;10796 -->
<g id="edge19" class="edge"><title>10795&#45;&#45;10796</title>
<path fill="none" stroke="black" d="M543.458,-287.697C543.458,-276.846 543.458,-262.917 543.458,-252.104"/>
</g>
<!-- 12149 -->
<g id="node16" class="node"><title>12149</title>
<ellipse fill="none" stroke="black" cx="663.458" cy="-306" rx="32.4942" ry="18"/>
<text text-anchor="middle" x="663.458" y="-302.3" font-family="Times New Roman,serif" font-size="14.00">12149</text>
</g>
<!-- 12150 -->
<g id="node17" class="node"><title>12150</title>
<ellipse fill="none" stroke="black" cx="663.458" cy="-234" rx="32.4942" ry="18"/>
<text text-anchor="middle" x="663.458" y="-230.3" font-family="Times New Roman,serif" font-size="14.00">12150</text>
</g>
<!-- 12149&#45;&#45;12150 -->
<g id="edge20" class="edge"><title>12149&#45;&#45;12150</title>
<path fill="none" stroke="black" d="M663.458,-287.697C663.458,-276.846 663.458,-262.917 663.458,-252.104"/>
</g>
<!-- 12152 -->
<g id="node18" class="node"><title>12152</title>
<ellipse fill="none" stroke="black" cx="614.458" cy="-162" rx="32.4942" ry="18"/>
<text text-anchor="middle" x="614.458" y="-158.3" font-family="Times New Roman,serif" font-size="14.00">12152</text>
</g>
<!-- 12149&#45;&#45;12152 -->
<g id="edge21" class="edge"><title>12149&#45;&#45;12152</title>
<path fill="none" stroke="black" d="M647.867,-289.803C638.794,-279.939 628.068,-266.294 622.458,-252 613.162,-228.317 612.493,-198.452 613.213,-180.045"/>
</g>
<!-- 12154 -->
<g id="node19" class="node"><title>12154</title>
<ellipse fill="none" stroke="black" cx="674.458" cy="-90" rx="32.4942" ry="18"/>
<text text-anchor="middle" x="674.458" y="-86.3" font-family="Times New Roman,serif" font-size="14.00">12154</text>
</g>
<!-- 12149&#45;&#45;12154 -->
<g id="edge22" class="edge"><title>12149&#45;&#45;12154</title>
<path fill="none" stroke="black" d="M679.503,-289.97C688.748,-280.168 699.493,-266.531 704.458,-252 721.923,-200.879 696.938,-136.955 682.894,-107.392"/>
</g>
<!-- 12150&#45;&#45;12152 -->
<g id="edge23" class="edge"><title>12150&#45;&#45;12152</title>
<path fill="none" stroke="black" d="M652.093,-216.765C644.177,-205.456 633.663,-190.437 625.761,-179.147"/>
</g>
<!-- 12150&#45;&#45;12154 -->
<g id="edge24" class="edge"><title>12150&#45;&#45;12154</title>
<path fill="none" stroke="black" d="M664.785,-215.871C666.899,-188.578 671.009,-135.52 673.126,-108.189"/>
</g>
<!-- 12152&#45;&#45;12154 -->
<g id="edge25" class="edge"><title>12152&#45;&#45;12154</title>
<path fill="none" stroke="black" d="M627.774,-145.465C637.717,-133.865 651.245,-118.082 661.179,-106.492"/>
</g>
</g>
</svg>
