<svg width="4195px" height="827px"
 viewBox="0.00 0.00 3146.00 620.00" xmlns="http://www.w3.org/2000/svg" xmlns:xlink="http://www.w3.org/1999/xlink">
<g id="graph0" class="graph" transform="scale(1.000022500562514 1.000022500562514) rotate(0) translate(4 616)">
<title>G</title>
<polygon fill="white" stroke="none" points="-4,4 -4,-616 3142,-616 3142,4 -4,4"/>
<!-- 145 -->
<g id="node1" class="node"><title>145</title>
<polygon fill="#7d385c" stroke="#7d385c" points="170,-612 116,-612 116,-576 170,-576 170,-612"/>
<text text-anchor="middle" x="143" y="-590.3" font-family="Times New Roman,serif" font-size="14.00">145</text>
</g>
<!-- 146 -->
<g id="node2" class="node"><title>146</title>
<polygon fill="#327b93" stroke="#327b93" points="217,-540 163,-540 163,-504 217,-504 217,-540"/>
<text text-anchor="middle" x="190" y="-518.3" font-family="Times New Roman,serif" font-size="14.00">146</text>
</g>
<!-- 145&#45;&#45;146 -->
<g id="edge1" class="edge"><title>145&#45;&#45;146</title>
<path fill="none" stroke="black" d="M154.618,-575.697C161.903,-564.846 171.256,-550.917 178.516,-540.104"/>
</g>
<!-- 148 -->
<g id="node3" class="node"><title>148</title>
<polygon fill="#8e9b5b" stroke="#8e9b5b" points="124,-468 70,-468 70,-432 124,-432 124,-468"/>
<text text-anchor="middle" x="97" y="-446.3" font-family="Times New Roman,serif" font-size="14.00">148</text>
</g>
<!-- 145&#45;&#45;148 -->
<g id="edge2" class="edge"><title>145&#45;&#45;148</title>
<path fill="none" stroke="black" d="M137.451,-575.871C128.61,-548.578 111.422,-495.52 102.568,-468.189"/>
</g>
<!-- 150 -->
<g id="node4" class="node"><title>150</title>
<polygon fill="#94933a" stroke="#94933a" points="272,-396 218,-396 218,-360 272,-360 272,-396"/>
<text text-anchor="middle" x="245" y="-374.3" font-family="Times New Roman,serif" font-size="14.00">150</text>
</g>
<!-- 145&#45;&#45;150 -->
<g id="edge3" class="edge"><title>145&#45;&#45;150</title>
<path fill="none" stroke="black" d="M170.047,-583.067C188.977,-574.627 213.104,-560.57 226,-540 254.555,-494.453 251.077,-427.249 247.47,-396.058"/>
</g>
<!-- 152 -->
<g id="node5" class="node"><title>152</title>
<polygon fill="#8a788b" stroke="#8a788b" points="158,-324 104,-324 104,-288 158,-288 158,-324"/>
<text text-anchor="middle" x="131" y="-302.3" font-family="Times New Roman,serif" font-size="14.00">152</text>
</g>
<!-- 145&#45;&#45;152 -->
<g id="edge4" class="edge"><title>145&#45;&#45;152</title>
<path fill="none" stroke="black" d="M126.783,-575.668C106.781,-552.982 73.852,-511.022 61,-468 44.7733,-413.681 89.0785,-353.303 114.521,-324.346"/>
</g>
<!-- 154 -->
<g id="node6" class="node"><title>154</title>
<polygon fill="#54975f" stroke="#54975f" points="185,-252 131,-252 131,-216 185,-216 185,-252"/>
<text text-anchor="middle" x="158" y="-230.3" font-family="Times New Roman,serif" font-size="14.00">154</text>
</g>
<!-- 145&#45;&#45;154 -->
<g id="edge5" class="edge"><title>145&#45;&#45;154</title>
<path fill="none" stroke="black" d="M115.766,-581.063C74.2761,-560.815 0,-515.552 0,-451 0,-451 0,-451 0,-377 0,-307.48 85.6643,-263.349 130.839,-244.911"/>
</g>
<!-- 5328 -->
<g id="node8" class="node"><title>5328</title>
<polygon fill="#403563" stroke="#403563" points="344,-324 290,-324 290,-288 344,-288 344,-324"/>
<text text-anchor="middle" x="317" y="-302.3" font-family="Times New Roman,serif" font-size="14.00">5328</text>
</g>
<!-- 145&#45;&#45;5328 -->
<g id="edge6" class="edge"><title>145&#45;&#45;5328</title>
<path fill="none" stroke="black" d="M170.116,-585.399C193.597,-577.545 227,-563.132 248,-540 305.848,-476.278 315.316,-366.156 316.776,-324.048"/>
</g>
<!-- 146&#45;&#45;148 -->
<g id="edge7" class="edge"><title>146&#45;&#45;148</title>
<path fill="none" stroke="black" d="M167.011,-503.697C152.596,-492.846 134.089,-478.917 119.724,-468.104"/>
</g>
<!-- 146&#45;&#45;150 -->
<g id="edge8" class="edge"><title>146&#45;&#45;150</title>
<path fill="none" stroke="black" d="M196.634,-503.871C207.206,-476.578 227.756,-423.52 238.342,-396.189"/>
</g>
<!-- 146&#45;&#45;152 -->
<g id="edge9" class="edge"><title>146&#45;&#45;152</title>
<path fill="none" stroke="black" d="M185.272,-503.849C174.224,-463.78 146.82,-364.383 135.751,-324.232"/>
</g>
<!-- 146&#45;&#45;154 -->
<g id="edge10" class="edge"><title>146&#45;&#45;154</title>
<path fill="none" stroke="black" d="M188.731,-503.997C185.765,-465.463 177.805,-368.575 167,-288 165.387,-275.975 163.092,-262.495 161.223,-252.14"/>
</g>
<!-- 6156 -->
<g id="node7" class="node"><title>6156</title>
<polygon fill="#917776" stroke="#917776" points="344,-252 290,-252 290,-216 344,-216 344,-252"/>
<text text-anchor="middle" x="317" y="-230.3" font-family="Times New Roman,serif" font-size="14.00">6156</text>
</g>
<!-- 146&#45;&#45;6156 -->
<g id="edge12" class="edge"><title>146&#45;&#45;6156</title>
<path fill="none" stroke="black" d="M217.061,-503.842C230.859,-494.307 247.35,-481.631 260,-468 311.825,-412.156 331.454,-397.077 353,-324 357.525,-308.653 357.703,-303.293 353,-288 348.946,-274.816 340.373,-261.97 332.61,-252.226"/>
</g>
<!-- 146&#45;&#45;5328 -->
<g id="edge11" class="edge"><title>146&#45;&#45;5328</title>
<path fill="none" stroke="black" d="M204.325,-503.581C212.6,-493.359 223.1,-480.109 232,-468 254.924,-436.811 262.75,-430.135 281,-396 293.809,-372.041 304.901,-342.511 311.27,-324.217"/>
</g>
<!-- 148&#45;&#45;150 -->
<g id="edge13" class="edge"><title>148&#45;&#45;150</title>
<path fill="none" stroke="black" d="M124.145,-436.161C150.766,-423.57 191.129,-404.48 217.776,-391.876"/>
</g>
<!-- 148&#45;&#45;152 -->
<g id="edge14" class="edge"><title>148&#45;&#45;152</title>
<path fill="none" stroke="black" d="M101.101,-431.871C107.636,-404.578 120.34,-351.52 126.884,-324.189"/>
</g>
<!-- 148&#45;&#45;154 -->
<g id="edge15" class="edge"><title>148&#45;&#45;154</title>
<path fill="none" stroke="black" d="M92.0788,-431.531C84.4188,-400.825 72.7026,-335.896 95,-288 102.48,-271.932 117.495,-258.995 130.99,-249.926"/>
</g>
<!-- 150&#45;&#45;152 -->
<g id="edge16" class="edge"><title>150&#45;&#45;152</title>
<path fill="none" stroke="black" d="M217.984,-360.411C199.943,-349.333 176.3,-334.816 158.218,-323.713"/>
</g>
<!-- 150&#45;&#45;154 -->
<g id="edge17" class="edge"><title>150&#45;&#45;154</title>
<path fill="none" stroke="black" d="M237.52,-359.709C229.294,-341.354 215.209,-311.774 200,-288 191.902,-275.341 181.402,-262.091 172.926,-252.006"/>
</g>
<!-- 150&#45;&#45;6156 -->
<g id="edge18" class="edge"><title>150&#45;&#45;6156</title>
<path fill="none" stroke="black" d="M250.734,-359.785C257.106,-341.493 268.202,-311.965 281,-288 287.707,-275.441 296.707,-262.191 304.03,-252.081"/>
</g>
<!-- 150&#45;&#45;5328 -->
<g id="edge19" class="edge"><title>150&#45;&#45;5328</title>
<path fill="none" stroke="black" d="M262.798,-359.697C273.958,-348.846 288.286,-334.917 299.407,-324.104"/>
</g>
<!-- 152&#45;&#45;154 -->
<g id="edge20" class="edge"><title>152&#45;&#45;154</title>
<path fill="none" stroke="black" d="M137.674,-287.697C141.859,-276.846 147.232,-262.917 151.403,-252.104"/>
</g>
<!-- 5328&#45;&#45;154 -->
<g id="edge21" class="edge"><title>5328&#45;&#45;154</title>
<path fill="none" stroke="black" d="M289.667,-292.967C260.455,-280.106 214.419,-259.838 185.242,-246.993"/>
</g>
<!-- 5328&#45;&#45;6156 -->
<g id="edge22" class="edge"><title>5328&#45;&#45;6156</title>
<path fill="none" stroke="black" d="M317,-287.697C317,-276.846 317,-262.917 317,-252.104"/>
</g>
<!-- 781 -->
<g id="node9" class="node"><title>781</title>
<polygon fill="#866c71" stroke="#866c71" points="498,-612 444,-612 444,-576 498,-576 498,-612"/>
<text text-anchor="middle" x="471" y="-590.3" font-family="Times New Roman,serif" font-size="14.00">781</text>
</g>
<!-- 782 -->
<g id="node10" class="node"><title>782</title>
<polygon fill="#4c7d7f" stroke="#4c7d7f" points="498,-540 444,-540 444,-504 498,-504 498,-540"/>
<text text-anchor="middle" x="471" y="-518.3" font-family="Times New Roman,serif" font-size="14.00">782</text>
</g>
<!-- 781&#45;&#45;782 -->
<g id="edge23" class="edge"><title>781&#45;&#45;782</title>
<path fill="none" stroke="black" d="M471,-575.697C471,-564.846 471,-550.917 471,-540.104"/>
</g>
<!-- 784 -->
<g id="node11" class="node"><title>784</title>
<polygon fill="#6d6663" stroke="#6d6663" points="553,-468 499,-468 499,-432 553,-432 553,-468"/>
<text text-anchor="middle" x="526" y="-446.3" font-family="Times New Roman,serif" font-size="14.00">784</text>
</g>
<!-- 782&#45;&#45;784 -->
<g id="edge24" class="edge"><title>782&#45;&#45;784</title>
<path fill="none" stroke="black" d="M484.596,-503.697C493.121,-492.846 504.065,-478.917 512.561,-468.104"/>
</g>
<!-- 786 -->
<g id="node13" class="node"><title>786</title>
<polygon fill="#977a73" stroke="#977a73" points="570,-324 516,-324 516,-288 570,-288 570,-324"/>
<text text-anchor="middle" x="543" y="-302.3" font-family="Times New Roman,serif" font-size="14.00">786</text>
</g>
<!-- 782&#45;&#45;786 -->
<g id="edge25" class="edge"><title>782&#45;&#45;786</title>
<path fill="none" stroke="black" d="M467.743,-503.901C462.778,-473.217 456.214,-407.576 480,-360 487.798,-344.403 502.471,-331.635 515.696,-322.542"/>
</g>
<!-- 788 -->
<g id="node12" class="node"><title>788</title>
<polygon fill="#744f94" stroke="#744f94" points="543,-396 489,-396 489,-360 543,-360 543,-396"/>
<text text-anchor="middle" x="516" y="-374.3" font-family="Times New Roman,serif" font-size="14.00">788</text>
</g>
<!-- 784&#45;&#45;788 -->
<g id="edge26" class="edge"><title>784&#45;&#45;788</title>
<path fill="none" stroke="black" d="M523.528,-431.697C521.978,-420.846 519.988,-406.917 518.443,-396.104"/>
</g>
<!-- 784&#45;&#45;786 -->
<g id="edge27" class="edge"><title>784&#45;&#45;786</title>
<path fill="none" stroke="black" d="M537.046,-431.611C542.737,-421.615 549.081,-408.579 552,-396 557.688,-371.492 552.573,-342.362 548.05,-324.274"/>
</g>
<!-- 788&#45;&#45;786 -->
<g id="edge28" class="edge"><title>788&#45;&#45;786</title>
<path fill="none" stroke="black" d="M522.674,-359.697C526.859,-348.846 532.232,-334.917 536.403,-324.104"/>
</g>
<!-- 2061 -->
<g id="node14" class="node"><title>2061</title>
<polygon fill="#71687e" stroke="#71687e" points="643,-612 589,-612 589,-576 643,-576 643,-612"/>
<text text-anchor="middle" x="616" y="-590.3" font-family="Times New Roman,serif" font-size="14.00">2061</text>
</g>
<!-- 2062 -->
<g id="node15" class="node"><title>2062</title>
<polygon fill="#336a5f" stroke="#336a5f" points="643,-540 589,-540 589,-504 643,-504 643,-540"/>
<text text-anchor="middle" x="616" y="-518.3" font-family="Times New Roman,serif" font-size="14.00">2062</text>
</g>
<!-- 2061&#45;&#45;2062 -->
<g id="edge29" class="edge"><title>2061&#45;&#45;2062</title>
<path fill="none" stroke="black" d="M616,-575.697C616,-564.846 616,-550.917 616,-540.104"/>
</g>
<!-- 2071 -->
<g id="node16" class="node"><title>2071</title>
<polygon fill="#495346" stroke="#495346" points="780,-612 726,-612 726,-576 780,-576 780,-612"/>
<text text-anchor="middle" x="753" y="-590.3" font-family="Times New Roman,serif" font-size="14.00">2071</text>
</g>
<!-- 2072 -->
<g id="node17" class="node"><title>2072</title>
<polygon fill="#744c33" stroke="#744c33" points="808,-540 754,-540 754,-504 808,-504 808,-540"/>
<text text-anchor="middle" x="781" y="-518.3" font-family="Times New Roman,serif" font-size="14.00">2072</text>
</g>
<!-- 2071&#45;&#45;2072 -->
<g id="edge30" class="edge"><title>2071&#45;&#45;2072</title>
<path fill="none" stroke="black" d="M759.921,-575.697C764.261,-564.846 769.833,-550.917 774.158,-540.104"/>
</g>
<!-- 2074 -->
<g id="node18" class="node"><title>2074</title>
<polygon fill="#459467" stroke="#459467" points="753,-468 699,-468 699,-432 753,-432 753,-468"/>
<text text-anchor="middle" x="726" y="-446.3" font-family="Times New Roman,serif" font-size="14.00">2074</text>
</g>
<!-- 2071&#45;&#45;2074 -->
<g id="edge31" class="edge"><title>2071&#45;&#45;2074</title>
<path fill="none" stroke="black" d="M749.743,-575.871C744.554,-548.578 734.465,-495.52 729.268,-468.189"/>
</g>
<!-- 2076 -->
<g id="node19" class="node"><title>2076</title>
<polygon fill="#403865" stroke="#403865" points="863,-396 809,-396 809,-360 863,-360 863,-396"/>
<text text-anchor="middle" x="836" y="-374.3" font-family="Times New Roman,serif" font-size="14.00">2076</text>
</g>
<!-- 2071&#45;&#45;2076 -->
<g id="edge32" class="edge"><title>2071&#45;&#45;2076</title>
<path fill="none" stroke="black" d="M780.007,-577.569C793.414,-568.431 808.519,-555.587 817,-540 842.558,-493.027 840.644,-427.094 837.959,-396.219"/>
</g>
<!-- 2078 -->
<g id="node20" class="node"><title>2078</title>
<polygon fill="#338091" stroke="#338091" points="785,-324 731,-324 731,-288 785,-288 785,-324"/>
<text text-anchor="middle" x="758" y="-302.3" font-family="Times New Roman,serif" font-size="14.00">2078</text>
</g>
<!-- 2071&#45;&#45;2078 -->
<g id="edge33" class="edge"><title>2071&#45;&#45;2078</title>
<path fill="none" stroke="black" d="M738.357,-575.606C715.73,-546.579 676.236,-486.105 690,-432 700.659,-390.101 728.522,-347.073 745.086,-324.039"/>
</g>
<!-- 2072&#45;&#45;2074 -->
<g id="edge34" class="edge"><title>2072&#45;&#45;2074</title>
<path fill="none" stroke="black" d="M767.404,-503.697C758.879,-492.846 747.935,-478.917 739.439,-468.104"/>
</g>
<!-- 2072&#45;&#45;2076 -->
<g id="edge35" class="edge"><title>2072&#45;&#45;2076</title>
<path fill="none" stroke="black" d="M787.634,-503.871C798.206,-476.578 818.756,-423.52 829.342,-396.189"/>
</g>
<!-- 2072&#45;&#45;2078 -->
<g id="edge36" class="edge"><title>2072&#45;&#45;2078</title>
<path fill="none" stroke="black" d="M779.157,-503.849C774.85,-463.78 764.167,-364.383 759.852,-324.232"/>
</g>
<!-- 2074&#45;&#45;2076 -->
<g id="edge37" class="edge"><title>2074&#45;&#45;2076</title>
<path fill="none" stroke="black" d="M752.909,-431.876C769.955,-421.029 791.922,-407.05 808.988,-396.19"/>
</g>
<!-- 2074&#45;&#45;2078 -->
<g id="edge38" class="edge"><title>2074&#45;&#45;2078</title>
<path fill="none" stroke="black" d="M729.86,-431.871C736.01,-404.578 747.967,-351.52 754.126,-324.189"/>
</g>
<!-- 2076&#45;&#45;2078 -->
<g id="edge39" class="edge"><title>2076&#45;&#45;2078</title>
<path fill="none" stroke="black" d="M816.719,-359.697C804.629,-348.846 789.107,-334.917 777.059,-324.104"/>
</g>
<!-- 2092 -->
<g id="node21" class="node"><title>2092</title>
<polygon fill="#695676" stroke="#695676" points="749,-252 695,-252 695,-216 749,-216 749,-252"/>
<text text-anchor="middle" x="722" y="-230.3" font-family="Times New Roman,serif" font-size="14.00">2092</text>
</g>
<!-- 2078&#45;&#45;2092 -->
<g id="edge40" class="edge"><title>2078&#45;&#45;2092</title>
<path fill="none" stroke="black" d="M749.101,-287.697C743.521,-276.846 736.357,-262.917 730.797,-252.104"/>
</g>
<!-- 5160 -->
<g id="node22" class="node"><title>5160</title>
<polygon fill="#8b9694" stroke="#8b9694" points="821,-252 767,-252 767,-216 821,-216 821,-252"/>
<text text-anchor="middle" x="794" y="-230.3" font-family="Times New Roman,serif" font-size="14.00">5160</text>
</g>
<!-- 2078&#45;&#45;5160 -->
<g id="edge41" class="edge"><title>2078&#45;&#45;5160</title>
<path fill="none" stroke="black" d="M766.899,-287.697C772.479,-276.846 779.643,-262.917 785.203,-252.104"/>
</g>
<!-- 2345 -->
<g id="node23" class="node"><title>2345</title>
<polygon fill="#5b467a" stroke="#5b467a" points="1032,-540 978,-540 978,-504 1032,-504 1032,-540"/>
<text text-anchor="middle" x="1005" y="-518.3" font-family="Times New Roman,serif" font-size="14.00">2345</text>
</g>
<!-- 2346 -->
<g id="node24" class="node"><title>2346</title>
<polygon fill="#46758e" stroke="#46758e" points="977,-468 923,-468 923,-432 977,-432 977,-468"/>
<text text-anchor="middle" x="950" y="-446.3" font-family="Times New Roman,serif" font-size="14.00">2346</text>
</g>
<!-- 2345&#45;&#45;2346 -->
<g id="edge42" class="edge"><title>2345&#45;&#45;2346</title>
<path fill="none" stroke="black" d="M991.404,-503.697C982.879,-492.846 971.935,-478.917 963.439,-468.104"/>
</g>
<!-- 2348 -->
<g id="node25" class="node"><title>2348</title>
<polygon fill="#6d698a" stroke="#6d698a" points="1015,-396 961,-396 961,-360 1015,-360 1015,-396"/>
<text text-anchor="middle" x="988" y="-374.3" font-family="Times New Roman,serif" font-size="14.00">2348</text>
</g>
<!-- 2345&#45;&#45;2348 -->
<g id="edge43" class="edge"><title>2345&#45;&#45;2348</title>
<path fill="none" stroke="black" d="M1002.95,-503.871C999.682,-476.578 993.33,-423.52 990.058,-396.189"/>
</g>
<!-- 2350 -->
<g id="node26" class="node"><title>2350</title>
<polygon fill="#3c6e8d" stroke="#3c6e8d" points="960,-324 906,-324 906,-288 960,-288 960,-324"/>
<text text-anchor="middle" x="933" y="-302.3" font-family="Times New Roman,serif" font-size="14.00">2350</text>
</g>
<!-- 2345&#45;&#45;2350 -->
<g id="edge44" class="edge"><title>2345&#45;&#45;2350</title>
<path fill="none" stroke="black" d="M977.712,-513.341C956.176,-505.697 927.576,-491.618 914,-468 887.35,-421.638 910.724,-355.409 924.548,-324.341"/>
</g>
<!-- 4768 -->
<g id="node27" class="node"><title>4768</title>
<polygon fill="#629b52" stroke="#629b52" points="1051,-324 997,-324 997,-288 1051,-288 1051,-324"/>
<text text-anchor="middle" x="1024" y="-302.3" font-family="Times New Roman,serif" font-size="14.00">4768</text>
</g>
<!-- 2345&#45;&#45;4768 -->
<g id="edge45" class="edge"><title>2345&#45;&#45;4768</title>
<path fill="none" stroke="black" d="M1008.48,-503.704C1013.11,-479.667 1021.07,-434.742 1024,-396 1025.89,-371.04 1025.39,-342.03 1024.76,-324.091"/>
</g>
<!-- 2346&#45;&#45;2348 -->
<g id="edge46" class="edge"><title>2346&#45;&#45;2348</title>
<path fill="none" stroke="black" d="M959.393,-431.697C965.283,-420.846 972.845,-406.917 978.715,-396.104"/>
</g>
<!-- 2346&#45;&#45;2350 -->
<g id="edge47" class="edge"><title>2346&#45;&#45;2350</title>
<path fill="none" stroke="black" d="M947.949,-431.871C944.682,-404.578 938.33,-351.52 935.058,-324.189"/>
</g>
<!-- 2348&#45;&#45;2350 -->
<g id="edge48" class="edge"><title>2348&#45;&#45;2350</title>
<path fill="none" stroke="black" d="M974.404,-359.697C965.879,-348.846 954.935,-334.917 946.439,-324.104"/>
</g>
<!-- 2348&#45;&#45;4768 -->
<g id="edge49" class="edge"><title>2348&#45;&#45;4768</title>
<path fill="none" stroke="black" d="M996.899,-359.697C1002.48,-348.846 1009.64,-334.917 1015.2,-324.104"/>
</g>
<!-- 3085 -->
<g id="node28" class="node"><title>3085</title>
<polygon fill="#3e9558" stroke="#3e9558" points="1218,-612 1164,-612 1164,-576 1218,-576 1218,-612"/>
<text text-anchor="middle" x="1191" y="-590.3" font-family="Times New Roman,serif" font-size="14.00">3085</text>
</g>
<!-- 3086 -->
<g id="node29" class="node"><title>3086</title>
<polygon fill="#6b9b52" stroke="#6b9b52" points="1218,-540 1164,-540 1164,-504 1218,-504 1218,-540"/>
<text text-anchor="middle" x="1191" y="-518.3" font-family="Times New Roman,serif" font-size="14.00">3086</text>
</g>
<!-- 3085&#45;&#45;3086 -->
<g id="edge50" class="edge"><title>3085&#45;&#45;3086</title>
<path fill="none" stroke="black" d="M1191,-575.697C1191,-564.846 1191,-550.917 1191,-540.104"/>
</g>
<!-- 6040 -->
<g id="node30" class="node"><title>6040</title>
<polygon fill="#89327f" stroke="#89327f" points="1163,-468 1109,-468 1109,-432 1163,-432 1163,-468"/>
<text text-anchor="middle" x="1136" y="-446.3" font-family="Times New Roman,serif" font-size="14.00">6040</text>
</g>
<!-- 3086&#45;&#45;6040 -->
<g id="edge51" class="edge"><title>3086&#45;&#45;6040</title>
<path fill="none" stroke="black" d="M1177.4,-503.697C1168.88,-492.846 1157.93,-478.917 1149.44,-468.104"/>
</g>
<!-- 6042 -->
<g id="node31" class="node"><title>6042</title>
<polygon fill="#923b3b" stroke="#923b3b" points="1190,-396 1136,-396 1136,-360 1190,-360 1190,-396"/>
<text text-anchor="middle" x="1163" y="-374.3" font-family="Times New Roman,serif" font-size="14.00">6042</text>
</g>
<!-- 3086&#45;&#45;6042 -->
<g id="edge52" class="edge"><title>3086&#45;&#45;6042</title>
<path fill="none" stroke="black" d="M1187.62,-503.871C1182.24,-476.578 1171.78,-423.52 1166.39,-396.189"/>
</g>
<!-- 7542 -->
<g id="node32" class="node"><title>7542</title>
<polygon fill="#449557" stroke="#449557" points="1273,-468 1219,-468 1219,-432 1273,-432 1273,-468"/>
<text text-anchor="middle" x="1246" y="-446.3" font-family="Times New Roman,serif" font-size="14.00">7542</text>
</g>
<!-- 3086&#45;&#45;7542 -->
<g id="edge53" class="edge"><title>3086&#45;&#45;7542</title>
<path fill="none" stroke="black" d="M1204.6,-503.697C1213.12,-492.846 1224.07,-478.917 1232.56,-468.104"/>
</g>
<!-- 6040&#45;&#45;6042 -->
<g id="edge54" class="edge"><title>6040&#45;&#45;6042</title>
<path fill="none" stroke="black" d="M1142.67,-431.697C1146.86,-420.846 1152.23,-406.917 1156.4,-396.104"/>
</g>
<!-- 4763 -->
<g id="node33" class="node"><title>4763</title>
<polygon fill="#474a3a" stroke="#474a3a" points="1070,-612 1016,-612 1016,-576 1070,-576 1070,-612"/>
<text text-anchor="middle" x="1043" y="-590.3" font-family="Times New Roman,serif" font-size="14.00">4763</text>
</g>
<!-- 4763&#45;&#45;2345 -->
<g id="edge55" class="edge"><title>4763&#45;&#45;2345</title>
<path fill="none" stroke="black" d="M1033.61,-575.697C1027.72,-564.846 1020.15,-550.917 1014.29,-540.104"/>
</g>
<!-- 4763&#45;&#45;2348 -->
<g id="edge56" class="edge"><title>4763&#45;&#45;2348</title>
<path fill="none" stroke="black" d="M1044.49,-575.721C1045.61,-557.628 1046.19,-528.495 1041,-504 1033.82,-470.085 1024.57,-463.902 1011,-432 1005.9,-420.001 1000.05,-406.521 995.522,-396.158"/>
</g>
<!-- 5345 -->
<g id="node34" class="node"><title>5345</title>
<polygon fill="#69629a" stroke="#69629a" points="1290,-612 1236,-612 1236,-576 1290,-576 1290,-612"/>
<text text-anchor="middle" x="1263" y="-590.3" font-family="Times New Roman,serif" font-size="14.00">5345</text>
</g>
<!-- 5346 -->
<g id="node35" class="node"><title>5346</title>
<polygon fill="#399297" stroke="#399297" points="1290,-540 1236,-540 1236,-504 1290,-504 1290,-540"/>
<text text-anchor="middle" x="1263" y="-518.3" font-family="Times New Roman,serif" font-size="14.00">5346</text>
</g>
<!-- 5345&#45;&#45;5346 -->
<g id="edge57" class="edge"><title>5345&#45;&#45;5346</title>
<path fill="none" stroke="black" d="M1263,-575.697C1263,-564.846 1263,-550.917 1263,-540.104"/>
</g>
<!-- 6073 -->
<g id="node36" class="node"><title>6073</title>
<polygon fill="#888551" stroke="#888551" points="1362,-612 1308,-612 1308,-576 1362,-576 1362,-612"/>
<text text-anchor="middle" x="1335" y="-590.3" font-family="Times New Roman,serif" font-size="14.00">6073</text>
</g>
<!-- 6074 -->
<g id="node37" class="node"><title>6074</title>
<polygon fill="#9b443e" stroke="#9b443e" points="1362,-540 1308,-540 1308,-504 1362,-504 1362,-540"/>
<text text-anchor="middle" x="1335" y="-518.3" font-family="Times New Roman,serif" font-size="14.00">6074</text>
</g>
<!-- 6073&#45;&#45;6074 -->
<g id="edge58" class="edge"><title>6073&#45;&#45;6074</title>
<path fill="none" stroke="black" d="M1335,-575.697C1335,-564.846 1335,-550.917 1335,-540.104"/>
</g>
<!-- 6363 -->
<g id="node38" class="node"><title>6363</title>
<polygon fill="#577c7f" stroke="#577c7f" points="1573,-612 1519,-612 1519,-576 1573,-576 1573,-612"/>
<text text-anchor="middle" x="1546" y="-590.3" font-family="Times New Roman,serif" font-size="14.00">6363</text>
</g>
<!-- 6364 -->
<g id="node39" class="node"><title>6364</title>
<polygon fill="#4a4048" stroke="#4a4048" points="1663,-540 1609,-540 1609,-504 1663,-504 1663,-540"/>
<text text-anchor="middle" x="1636" y="-518.3" font-family="Times New Roman,serif" font-size="14.00">6364</text>
</g>
<!-- 6363&#45;&#45;6364 -->
<g id="edge59" class="edge"><title>6363&#45;&#45;6364</title>
<path fill="none" stroke="black" d="M1568.25,-575.697C1582.2,-564.846 1600.11,-550.917 1614.01,-540.104"/>
</g>
<!-- 6366 -->
<g id="node40" class="node"><title>6366</title>
<polygon fill="#589b7b" stroke="#589b7b" points="1542,-468 1488,-468 1488,-432 1542,-432 1542,-468"/>
<text text-anchor="middle" x="1515" y="-446.3" font-family="Times New Roman,serif" font-size="14.00">6366</text>
</g>
<!-- 6363&#45;&#45;6366 -->
<g id="edge60" class="edge"><title>6363&#45;&#45;6366</title>
<path fill="none" stroke="black" d="M1542.26,-575.871C1536.3,-548.578 1524.72,-495.52 1518.75,-468.189"/>
</g>
<!-- 6368 -->
<g id="node41" class="node"><title>6368</title>
<polygon fill="#7a6040" stroke="#7a6040" points="1590,-396 1536,-396 1536,-360 1590,-360 1590,-396"/>
<text text-anchor="middle" x="1563" y="-374.3" font-family="Times New Roman,serif" font-size="14.00">6368</text>
</g>
<!-- 6363&#45;&#45;6368 -->
<g id="edge61" class="edge"><title>6363&#45;&#45;6368</title>
<path fill="none" stroke="black" d="M1547.36,-575.849C1550.55,-535.78 1558.44,-436.383 1561.63,-396.232"/>
</g>
<!-- 6370 -->
<g id="node42" class="node"><title>6370</title>
<polygon fill="#566f95" stroke="#566f95" points="1700,-324 1646,-324 1646,-288 1700,-288 1700,-324"/>
<text text-anchor="middle" x="1673" y="-302.3" font-family="Times New Roman,serif" font-size="14.00">6370</text>
</g>
<!-- 6363&#45;&#45;6370 -->
<g id="edge62" class="edge"><title>6363&#45;&#45;6370</title>
<path fill="none" stroke="black" d="M1573.07,-589.686C1602.52,-584.532 1648.53,-571.64 1672,-540 1721.04,-473.884 1692.75,-365.649 1679.08,-324.037"/>
</g>
<!-- 6372 -->
<g id="node43" class="node"><title>6372</title>
<polygon fill="#3c643f" stroke="#3c643f" points="1552,-252 1498,-252 1498,-216 1552,-216 1552,-252"/>
<text text-anchor="middle" x="1525" y="-230.3" font-family="Times New Roman,serif" font-size="14.00">6372</text>
</g>
<!-- 6363&#45;&#45;6372 -->
<g id="edge63" class="edge"><title>6363&#45;&#45;6372</title>
<path fill="none" stroke="black" d="M1533.27,-575.928C1516.95,-552.859 1489.49,-509.791 1479,-468 1458.92,-388.019 1498.29,-290.796 1516.48,-252.089"/>
</g>
<!-- 6374 -->
<g id="node44" class="node"><title>6374</title>
<polygon fill="#594679" stroke="#594679" points="1579,-180 1525,-180 1525,-144 1579,-144 1579,-180"/>
<text text-anchor="middle" x="1552" y="-158.3" font-family="Times New Roman,serif" font-size="14.00">6374</text>
</g>
<!-- 6363&#45;&#45;6374 -->
<g id="edge64" class="edge"><title>6363&#45;&#45;6374</title>
<path fill="none" stroke="black" d="M1518.83,-582.839C1474.13,-564.159 1390,-519.852 1390,-451 1390,-451 1390,-451 1390,-305 1390,-234.127 1478.77,-190.371 1524.88,-172.42"/>
</g>
<!-- 6364&#45;&#45;6366 -->
<g id="edge65" class="edge"><title>6364&#45;&#45;6366</title>
<path fill="none" stroke="black" d="M1608.85,-505.291C1588.92,-493.762 1561.97,-478.173 1542.06,-466.657"/>
</g>
<!-- 6364&#45;&#45;6368 -->
<g id="edge66" class="edge"><title>6364&#45;&#45;6368</title>
<path fill="none" stroke="black" d="M1627.19,-503.871C1613.16,-476.578 1585.89,-423.52 1571.84,-396.189"/>
</g>
<!-- 6364&#45;&#45;6370 -->
<g id="edge67" class="edge"><title>6364&#45;&#45;6370</title>
<path fill="none" stroke="black" d="M1645.57,-503.888C1650.77,-493.768 1656.77,-480.518 1660,-468 1673.19,-416.957 1674.02,-354.055 1673.53,-324.24"/>
</g>
<!-- 6364&#45;&#45;6372 -->
<g id="edge68" class="edge"><title>6364&#45;&#45;6372</title>
<path fill="none" stroke="black" d="M1633.7,-503.589C1629.36,-473.516 1618.59,-410.235 1599,-360 1585.62,-325.691 1576.85,-319.636 1558,-288 1550.79,-275.894 1542.39,-262.416 1535.87,-252.081"/>
</g>
<!-- 6364&#45;&#45;6374 -->
<g id="edge69" class="edge"><title>6364&#45;&#45;6374</title>
<path fill="none" stroke="black" d="M1663.12,-507.728C1702.27,-486.437 1770,-440.692 1770,-379 1770,-379 1770,-379 1770,-305 1770,-214.889 1637.61,-178.987 1579.17,-167.529"/>
</g>
<!-- 6366&#45;&#45;6368 -->
<g id="edge70" class="edge"><title>6366&#45;&#45;6368</title>
<path fill="none" stroke="black" d="M1526.87,-431.697C1534.31,-420.846 1543.86,-406.917 1551.27,-396.104"/>
</g>
<!-- 6366&#45;&#45;6370 -->
<g id="edge71" class="edge"><title>6366&#45;&#45;6370</title>
<path fill="none" stroke="black" d="M1542.21,-434.743C1559.43,-425.043 1581.63,-411.236 1599,-396 1624.08,-374.004 1647.75,-343.112 1661.29,-324.11"/>
</g>
<!-- 6366&#45;&#45;6372 -->
<g id="edge72" class="edge"><title>6366&#45;&#45;6372</title>
<path fill="none" stroke="black" d="M1515.8,-431.849C1517.67,-391.78 1522.32,-292.383 1524.19,-252.232"/>
</g>
<!-- 6366&#45;&#45;6374 -->
<g id="edge73" class="edge"><title>6366&#45;&#45;6374</title>
<path fill="none" stroke="black" d="M1507.26,-431.926C1490.37,-392.011 1454.39,-290.353 1489,-216 1496.48,-199.932 1511.49,-186.995 1524.99,-177.926"/>
</g>
<!-- 6368&#45;&#45;6370 -->
<g id="edge74" class="edge"><title>6368&#45;&#45;6370</title>
<path fill="none" stroke="black" d="M1589.91,-359.876C1606.95,-349.029 1628.92,-335.05 1645.99,-324.19"/>
</g>
<!-- 6368&#45;&#45;6372 -->
<g id="edge75" class="edge"><title>6368&#45;&#45;6372</title>
<path fill="none" stroke="black" d="M1558.42,-359.871C1551.11,-332.578 1536.91,-279.52 1529.6,-252.189"/>
</g>
<!-- 6368&#45;&#45;6374 -->
<g id="edge76" class="edge"><title>6368&#45;&#45;6374</title>
<path fill="none" stroke="black" d="M1563.67,-359.562C1564.61,-329.971 1565.71,-268.06 1561,-216 1559.91,-203.916 1557.6,-190.438 1555.6,-180.097"/>
</g>
<!-- 6370&#45;&#45;6372 -->
<g id="edge77" class="edge"><title>6370&#45;&#45;6372</title>
<path fill="none" stroke="black" d="M1645.85,-292.161C1619.23,-279.57 1578.87,-260.48 1552.22,-247.876"/>
</g>
<!-- 6370&#45;&#45;6374 -->
<g id="edge78" class="edge"><title>6370&#45;&#45;6374</title>
<path fill="none" stroke="black" d="M1658.4,-287.871C1635.15,-260.578 1589.94,-207.52 1566.65,-180.189"/>
</g>
<!-- 6372&#45;&#45;6374 -->
<g id="edge79" class="edge"><title>6372&#45;&#45;6374</title>
<path fill="none" stroke="black" d="M1531.67,-215.697C1535.86,-204.846 1541.23,-190.917 1545.4,-180.104"/>
</g>
<!-- 7573 -->
<g id="node45" class="node"><title>7573</title>
<polygon fill="#945a69" stroke="#945a69" points="2282,-612 2228,-612 2228,-576 2282,-576 2282,-612"/>
<text text-anchor="middle" x="2255" y="-590.3" font-family="Times New Roman,serif" font-size="14.00">7573</text>
</g>
<!-- 7574 -->
<g id="node46" class="node"><title>7574</title>
<polygon fill="#63446d" stroke="#63446d" points="2239,-540 2185,-540 2185,-504 2239,-504 2239,-540"/>
<text text-anchor="middle" x="2212" y="-518.3" font-family="Times New Roman,serif" font-size="14.00">7574</text>
</g>
<!-- 7573&#45;&#45;7574 -->
<g id="edge80" class="edge"><title>7573&#45;&#45;7574</title>
<path fill="none" stroke="black" d="M2244.37,-575.697C2237.71,-564.846 2229.15,-550.917 2222.51,-540.104"/>
</g>
<!-- 7576 -->
<g id="node47" class="node"><title>7576</title>
<polygon fill="#547444" stroke="#547444" points="2178,-468 2124,-468 2124,-432 2178,-432 2178,-468"/>
<text text-anchor="middle" x="2151" y="-446.3" font-family="Times New Roman,serif" font-size="14.00">7576</text>
</g>
<!-- 7573&#45;&#45;7576 -->
<g id="edge81" class="edge"><title>7573&#45;&#45;7576</title>
<path fill="none" stroke="black" d="M2227.88,-580.972C2210.65,-572.012 2189.18,-558.191 2176,-540 2160.37,-518.423 2154.5,-487.407 2152.3,-468.265"/>
</g>
<!-- 7578 -->
<g id="node48" class="node"><title>7578</title>
<polygon fill="#49548e" stroke="#49548e" points="2270,-396 2216,-396 2216,-360 2270,-360 2270,-396"/>
<text text-anchor="middle" x="2243" y="-374.3" font-family="Times New Roman,serif" font-size="14.00">7578</text>
</g>
<!-- 7573&#45;&#45;7578 -->
<g id="edge82" class="edge"><title>7573&#45;&#45;7578</title>
<path fill="none" stroke="black" d="M2254.04,-575.849C2251.79,-535.78 2246.22,-436.383 2243.97,-396.232"/>
</g>
<!-- 7580 -->
<g id="node49" class="node"><title>7580</title>
<polygon fill="#4b4564" stroke="#4b4564" points="2084,-324 2030,-324 2030,-288 2084,-288 2084,-324"/>
<text text-anchor="middle" x="2057" y="-302.3" font-family="Times New Roman,serif" font-size="14.00">7580</text>
</g>
<!-- 7573&#45;&#45;7580 -->
<g id="edge83" class="edge"><title>7573&#45;&#45;7580</title>
<path fill="none" stroke="black" d="M2227.97,-581.432C2207.24,-571.892 2178.46,-557.169 2156,-540 2121.03,-513.266 2110.84,-505.627 2088,-468 2059.94,-421.767 2056.45,-355.475 2056.52,-324.367"/>
</g>
<!-- 7582 -->
<g id="node50" class="node"><title>7582</title>
<polygon fill="#5d4a6d" stroke="#5d4a6d" points="2215,-252 2161,-252 2161,-216 2215,-216 2215,-252"/>
<text text-anchor="middle" x="2188" y="-230.3" font-family="Times New Roman,serif" font-size="14.00">7582</text>
</g>
<!-- 7573&#45;&#45;7582 -->
<g id="edge84" class="edge"><title>7573&#45;&#45;7582</title>
<path fill="none" stroke="black" d="M2263.15,-575.757C2280.49,-536.733 2317.63,-438.905 2295,-360 2281.61,-313.319 2238.82,-273.514 2211.58,-252.038"/>
</g>
<!-- 7584 -->
<g id="node51" class="node"><title>7584</title>
<polygon fill="#5f8e6a" stroke="#5f8e6a" points="2300,-180 2246,-180 2246,-144 2300,-144 2300,-180"/>
<text text-anchor="middle" x="2273" y="-158.3" font-family="Times New Roman,serif" font-size="14.00">7584</text>
</g>
<!-- 7573&#45;&#45;7584 -->
<g id="edge85" class="edge"><title>7573&#45;&#45;7584</title>
<path fill="none" stroke="black" d="M2282.31,-583.386C2328.25,-565.269 2416,-521.44 2416,-451 2416,-451 2416,-451 2416,-305 2416,-240.448 2341.72,-195.185 2300.23,-174.937"/>
</g>
<!-- 7586 -->
<g id="node52" class="node"><title>7586</title>
<polygon fill="#375597" stroke="#375597" points="2101,-108 2047,-108 2047,-72 2101,-72 2101,-108"/>
<text text-anchor="middle" x="2074" y="-86.3" font-family="Times New Roman,serif" font-size="14.00">7586</text>
</g>
<!-- 7573&#45;&#45;7586 -->
<g id="edge86" class="edge"><title>7573&#45;&#45;7586</title>
<path fill="none" stroke="black" d="M2227.85,-589.586C2136.5,-577.355 1846,-532.084 1846,-451 1846,-451 1846,-451 1846,-305 1846,-195.881 1986.56,-126.188 2046.95,-101.279"/>
</g>
<!-- 7588 -->
<g id="node53" class="node"><title>7588</title>
<polygon fill="#733e79" stroke="#733e79" points="2177,-36 2123,-36 2123,-0 2177,-0 2177,-36"/>
<text text-anchor="middle" x="2150" y="-14.3" font-family="Times New Roman,serif" font-size="14.00">7588</text>
</g>
<!-- 7573&#45;&#45;7588 -->
<g id="edge87" class="edge"><title>7573&#45;&#45;7588</title>
<path fill="none" stroke="black" d="M2282.19,-589.644C2344.44,-580.288 2492,-547.891 2492,-451 2492,-451 2492,-451 2492,-161 2492,-113.786 2473.26,-98.2234 2434,-72 2391.98,-43.933 2240.16,-27.2139 2177.42,-21.3673"/>
</g>
<!-- 7574&#45;&#45;7576 -->
<g id="edge88" class="edge"><title>7574&#45;&#45;7576</title>
<path fill="none" stroke="black" d="M2196.92,-503.697C2187.47,-492.846 2175.33,-478.917 2165.91,-468.104"/>
</g>
<!-- 7574&#45;&#45;7578 -->
<g id="edge89" class="edge"><title>7574&#45;&#45;7578</title>
<path fill="none" stroke="black" d="M2215.74,-503.871C2221.7,-476.578 2233.28,-423.52 2239.25,-396.189"/>
</g>
<!-- 7574&#45;&#45;7580 -->
<g id="edge90" class="edge"><title>7574&#45;&#45;7580</title>
<path fill="none" stroke="black" d="M2184.64,-512.174C2163.02,-503.909 2133.48,-489.564 2115,-468 2077.88,-424.69 2063.81,-355.783 2059.1,-324.036"/>
</g>
<!-- 7574&#45;&#45;7582 -->
<g id="edge91" class="edge"><title>7574&#45;&#45;7582</title>
<path fill="none" stroke="black" d="M2228.08,-503.853C2253.4,-474.688 2297.83,-413.391 2279,-360 2272.17,-340.624 2262.32,-340.439 2250,-324 2231.7,-299.591 2211.73,-270.435 2199.54,-252.314"/>
</g>
<!-- 7574&#45;&#45;7584 -->
<g id="edge92" class="edge"><title>7574&#45;&#45;7584</title>
<path fill="none" stroke="black" d="M2239.04,-512.058C2286.08,-494.602 2378,-451.247 2378,-379 2378,-379 2378,-379 2378,-305 2378,-251.038 2328.37,-204.156 2297.35,-180.125"/>
</g>
<!-- 7574&#45;&#45;7586 -->
<g id="edge93" class="edge"><title>7574&#45;&#45;7586</title>
<path fill="none" stroke="black" d="M2184.55,-518.427C2119.24,-510.645 1960,-481.193 1960,-379 1960,-379 1960,-379 1960,-233 1960,-177.675 2013.27,-131.633 2046.98,-108.036"/>
</g>
<!-- 7574&#45;&#45;7588 -->
<g id="edge94" class="edge"><title>7574&#45;&#45;7588</title>
<path fill="none" stroke="black" d="M2184.87,-519.469C2094.28,-512.765 1808,-478.045 1808,-307 1808,-307 1808,-307 1808,-161 1808,-92.9334 2041.99,-40.3164 2122.88,-24.1602"/>
</g>
<!-- 7576&#45;&#45;7578 -->
<g id="edge95" class="edge"><title>7576&#45;&#45;7578</title>
<path fill="none" stroke="black" d="M2173.74,-431.697C2188,-420.846 2206.31,-406.917 2220.52,-396.104"/>
</g>
<!-- 7576&#45;&#45;7580 -->
<g id="edge96" class="edge"><title>7576&#45;&#45;7580</title>
<path fill="none" stroke="black" d="M2139.66,-431.871C2121.59,-404.578 2086.47,-351.52 2068.38,-324.189"/>
</g>
<!-- 7576&#45;&#45;7582 -->
<g id="edge97" class="edge"><title>7576&#45;&#45;7582</title>
<path fill="none" stroke="black" d="M2153.97,-431.849C2160.89,-391.78 2178.08,-292.383 2185.02,-252.232"/>
</g>
<!-- 7576&#45;&#45;7584 -->
<g id="edge98" class="edge"><title>7576&#45;&#45;7584</title>
<path fill="none" stroke="black" d="M2158.49,-431.829C2163,-421.462 2168.85,-407.982 2174,-396 2208.6,-315.431 2249.39,-218.935 2265.72,-180.265"/>
</g>
<!-- 7576&#45;&#45;7586 -->
<g id="edge99" class="edge"><title>7576&#45;&#45;7586</title>
<path fill="none" stroke="black" d="M2124,-438.535C2080.08,-419.538 1998,-374.95 1998,-307 1998,-307 1998,-307 1998,-233 1998,-182.949 2035.16,-133.466 2057.51,-108.228"/>
</g>
<!-- 7576&#45;&#45;7588 -->
<g id="edge100" class="edge"><title>7576&#45;&#45;7588</title>
<path fill="none" stroke="black" d="M2123.77,-445.941C2092.52,-440.969 2041.87,-428.194 2013,-396 1990.9,-371.361 1998.26,-356.82 1994,-324 1982.65,-236.531 1988.01,-113.935 2020,-72 2044.69,-39.6398 2092.49,-26.9453 2122.74,-22.0298"/>
</g>
<!-- 7578&#45;&#45;7580 -->
<g id="edge101" class="edge"><title>7578&#45;&#45;7580</title>
<path fill="none" stroke="black" d="M2215.88,-367.476C2186.65,-357.122 2138.83,-339.918 2098,-324 2093.55,-322.265 2088.85,-320.373 2084.28,-318.502"/>
</g>
<!-- 7578&#45;&#45;7582 -->
<g id="edge102" class="edge"><title>7578&#45;&#45;7582</title>
<path fill="none" stroke="black" d="M2231.45,-359.94C2225.02,-349.837 2217.27,-336.587 2212,-324 2201.93,-299.937 2194.95,-270.435 2191.21,-252.176"/>
</g>
<!-- 7578&#45;&#45;7584 -->
<g id="edge103" class="edge"><title>7578&#45;&#45;7584</title>
<path fill="none" stroke="black" d="M2270.07,-365.296C2286.62,-356.546 2306.4,-342.837 2316,-324 2337.8,-281.235 2332.04,-261.239 2316,-216 2311.17,-202.376 2301.18,-189.7 2292.04,-180.163"/>
</g>
<!-- 7578&#45;&#45;7586 -->
<g id="edge104" class="edge"><title>7578&#45;&#45;7586</title>
<path fill="none" stroke="black" d="M2226.52,-359.991C2217.11,-349.904 2205.36,-336.654 2196,-324 2141.27,-250.038 2097.11,-148.155 2080.79,-108.128"/>
</g>
<!-- 7578&#45;&#45;7588 -->
<g id="edge105" class="edge"><title>7578&#45;&#45;7588</title>
<path fill="none" stroke="black" d="M2270.15,-371.992C2327.14,-359.748 2454,-322.648 2454,-235 2454,-235 2454,-235 2454,-161 2454,-39.3997 2251.86,-21.693 2177.25,-19.2991"/>
</g>
<!-- 7580&#45;&#45;7582 -->
<g id="edge106" class="edge"><title>7580&#45;&#45;7582</title>
<path fill="none" stroke="black" d="M2084.14,-290.496C2106.63,-278.482 2138.42,-261.494 2160.89,-249.485"/>
</g>
<!-- 7580&#45;&#45;7584 -->
<g id="edge107" class="edge"><title>7580&#45;&#45;7584</title>
<path fill="none" stroke="black" d="M2072.04,-287.741C2089.66,-268.318 2120.49,-236.773 2152,-216 2181.87,-196.309 2220.27,-180.936 2245.71,-171.93"/>
</g>
<!-- 7580&#45;&#45;7586 -->
<g id="edge108" class="edge"><title>7580&#45;&#45;7586</title>
<path fill="none" stroke="black" d="M2058.36,-287.849C2061.55,-247.78 2069.44,-148.383 2072.63,-108.232"/>
</g>
<!-- 7580&#45;&#45;7588 -->
<g id="edge109" class="edge"><title>7580&#45;&#45;7588</title>
<path fill="none" stroke="black" d="M2049.1,-287.823C2031.51,-246.813 1994.04,-141.44 2038,-72 2056.53,-42.7376 2096.05,-29.3191 2122.83,-23.3898"/>
</g>
<!-- 7582&#45;&#45;7584 -->
<g id="edge110" class="edge"><title>7582&#45;&#45;7584</title>
<path fill="none" stroke="black" d="M2209.01,-215.697C2222.19,-204.846 2239.1,-190.917 2252.23,-180.104"/>
</g>
<!-- 7582&#45;&#45;7586 -->
<g id="edge111" class="edge"><title>7582&#45;&#45;7586</title>
<path fill="none" stroke="black" d="M2177.37,-215.99C2165.61,-197.614 2145.71,-167.776 2126,-144 2115.63,-131.496 2102.88,-118.461 2092.59,-108.448"/>
</g>
<!-- 7582&#45;&#45;7588 -->
<g id="edge112" class="edge"><title>7582&#45;&#45;7588</title>
<path fill="none" stroke="black" d="M2184.95,-215.849C2177.84,-175.78 2160.19,-76.3826 2153.06,-36.2325"/>
</g>
<!-- 7584&#45;&#45;7586 -->
<g id="edge113" class="edge"><title>7584&#45;&#45;7586</title>
<path fill="none" stroke="black" d="M2245.75,-151.414C2207.75,-138.046 2139.24,-113.948 2101.24,-100.583"/>
</g>
<!-- 7584&#45;&#45;7588 -->
<g id="edge114" class="edge"><title>7584&#45;&#45;7588</title>
<path fill="none" stroke="black" d="M2260.15,-143.848C2246.3,-125.609 2223.36,-96.1234 2202,-72 2191.06,-59.6457 2178.06,-46.3957 2167.8,-36.2343"/>
</g>
<!-- 7586&#45;&#45;7588 -->
<g id="edge115" class="edge"><title>7586&#45;&#45;7588</title>
<path fill="none" stroke="black" d="M2092.79,-71.6966C2104.57,-60.8463 2119.69,-46.9167 2131.43,-36.1043"/>
</g>
<!-- 8067 -->
<g id="node54" class="node"><title>8067</title>
<polygon fill="#326895" stroke="#326895" points="2574,-612 2520,-612 2520,-576 2574,-576 2574,-612"/>
<text text-anchor="middle" x="2547" y="-590.3" font-family="Times New Roman,serif" font-size="14.00">8067</text>
</g>
<!-- 8068 -->
<g id="node55" class="node"><title>8068</title>
<polygon fill="#3f8993" stroke="#3f8993" points="2574,-540 2520,-540 2520,-504 2574,-504 2574,-540"/>
<text text-anchor="middle" x="2547" y="-518.3" font-family="Times New Roman,serif" font-size="14.00">8068</text>
</g>
<!-- 8067&#45;&#45;8068 -->
<g id="edge116" class="edge"><title>8067&#45;&#45;8068</title>
<path fill="none" stroke="black" d="M2547,-575.697C2547,-564.846 2547,-550.917 2547,-540.104"/>
</g>
<!-- 8151 -->
<g id="node56" class="node"><title>8151</title>
<polygon fill="#639858" stroke="#639858" points="2684,-612 2630,-612 2630,-576 2684,-576 2684,-612"/>
<text text-anchor="middle" x="2657" y="-590.3" font-family="Times New Roman,serif" font-size="14.00">8151</text>
</g>
<!-- 8152 -->
<g id="node57" class="node"><title>8152</title>
<polygon fill="#337398" stroke="#337398" points="2684,-540 2630,-540 2630,-504 2684,-504 2684,-540"/>
<text text-anchor="middle" x="2657" y="-518.3" font-family="Times New Roman,serif" font-size="14.00">8152</text>
</g>
<!-- 8151&#45;&#45;8152 -->
<g id="edge117" class="edge"><title>8151&#45;&#45;8152</title>
<path fill="none" stroke="black" d="M2657,-575.697C2657,-564.846 2657,-550.917 2657,-540.104"/>
</g>
<!-- 8154 -->
<g id="node58" class="node"><title>8154</title>
<polygon fill="#3c6f44" stroke="#3c6f44" points="2637,-468 2583,-468 2583,-432 2637,-432 2637,-468"/>
<text text-anchor="middle" x="2610" y="-446.3" font-family="Times New Roman,serif" font-size="14.00">8154</text>
</g>
<!-- 8151&#45;&#45;8154 -->
<g id="edge118" class="edge"><title>8151&#45;&#45;8154</title>
<path fill="none" stroke="black" d="M2642.03,-575.555C2634.45,-565.748 2625.86,-552.91 2621,-540 2612.06,-516.248 2610.05,-486.661 2609.76,-468.299"/>
</g>
<!-- 8156 -->
<g id="node59" class="node"><title>8156</title>
<polygon fill="#5d5e85" stroke="#5d5e85" points="2692,-396 2638,-396 2638,-360 2692,-360 2692,-396"/>
<text text-anchor="middle" x="2665" y="-374.3" font-family="Times New Roman,serif" font-size="14.00">8156</text>
</g>
<!-- 8151&#45;&#45;8156 -->
<g id="edge119" class="edge"><title>8151&#45;&#45;8156</title>
<path fill="none" stroke="black" d="M2672.61,-575.774C2680.37,-566.03 2688.95,-553.184 2693,-540 2708.68,-489.019 2686.23,-426.088 2673.2,-396.253"/>
</g>
<!-- 8152&#45;&#45;8154 -->
<g id="edge120" class="edge"><title>8152&#45;&#45;8154</title>
<path fill="none" stroke="black" d="M2645.38,-503.697C2638.1,-492.846 2628.74,-478.917 2621.48,-468.104"/>
</g>
<!-- 8152&#45;&#45;8156 -->
<g id="edge121" class="edge"><title>8152&#45;&#45;8156</title>
<path fill="none" stroke="black" d="M2657.96,-503.871C2659.5,-476.578 2662.49,-423.52 2664.03,-396.189"/>
</g>
<!-- 8154&#45;&#45;8156 -->
<g id="edge122" class="edge"><title>8154&#45;&#45;8156</title>
<path fill="none" stroke="black" d="M2623.6,-431.697C2632.12,-420.846 2643.07,-406.917 2651.56,-396.104"/>
</g>
<!-- 8371 -->
<g id="node60" class="node"><title>8371</title>
<polygon fill="#648e7d" stroke="#648e7d" points="571,-540 517,-540 517,-504 571,-504 571,-540"/>
<text text-anchor="middle" x="544" y="-518.3" font-family="Times New Roman,serif" font-size="14.00">8371</text>
</g>
<!-- 8371&#45;&#45;784 -->
<g id="edge123" class="edge"><title>8371&#45;&#45;784</title>
<path fill="none" stroke="black" d="M539.551,-503.697C536.76,-492.846 533.179,-478.917 530.398,-468.104"/>
</g>
<!-- 8371&#45;&#45;786 -->
<g id="edge124" class="edge"><title>8371&#45;&#45;786</title>
<path fill="none" stroke="black" d="M551.098,-503.633C554.965,-493.427 559.465,-480.177 562,-468 571.799,-420.935 578.509,-406.911 568,-360 565.198,-347.491 559.098,-334.457 553.625,-324.444"/>
</g>
<!-- 8375 -->
<g id="node61" class="node"><title>8375</title>
<polygon fill="#604961" stroke="#604961" points="2831,-612 2777,-612 2777,-576 2831,-576 2831,-612"/>
<text text-anchor="middle" x="2804" y="-590.3" font-family="Times New Roman,serif" font-size="14.00">8375</text>
</g>
<!-- 8376 -->
<g id="node62" class="node"><title>8376</title>
<polygon fill="#694387" stroke="#694387" points="2794,-540 2740,-540 2740,-504 2794,-504 2794,-540"/>
<text text-anchor="middle" x="2767" y="-518.3" font-family="Times New Roman,serif" font-size="14.00">8376</text>
</g>
<!-- 8375&#45;&#45;8376 -->
<g id="edge125" class="edge"><title>8375&#45;&#45;8376</title>
<path fill="none" stroke="black" d="M2794.85,-575.697C2789.12,-564.846 2781.76,-550.917 2776.04,-540.104"/>
</g>
<!-- 8378 -->
<g id="node63" class="node"><title>8378</title>
<polygon fill="#32828a" stroke="#32828a" points="2821,-468 2767,-468 2767,-432 2821,-432 2821,-468"/>
<text text-anchor="middle" x="2794" y="-446.3" font-family="Times New Roman,serif" font-size="14.00">8378</text>
</g>
<!-- 8375&#45;&#45;8378 -->
<g id="edge126" class="edge"><title>8375&#45;&#45;8378</title>
<path fill="none" stroke="black" d="M2804.6,-575.898C2805.05,-557.95 2805.24,-528.932 2803,-504 2801.91,-491.916 2799.61,-478.437 2797.6,-468.097"/>
</g>
<!-- 8376&#45;&#45;8378 -->
<g id="edge127" class="edge"><title>8376&#45;&#45;8378</title>
<path fill="none" stroke="black" d="M2773.67,-503.697C2777.86,-492.846 2783.23,-478.917 2787.4,-468.104"/>
</g>
<!-- 9681 -->
<g id="node64" class="node"><title>9681</title>
<polygon fill="#444c6a" stroke="#444c6a" points="2922,-612 2868,-612 2868,-576 2922,-576 2922,-612"/>
<text text-anchor="middle" x="2895" y="-590.3" font-family="Times New Roman,serif" font-size="14.00">9681</text>
</g>
<!-- 9682 -->
<g id="node65" class="node"><title>9682</title>
<polygon fill="#3c8a43" stroke="#3c8a43" points="2922,-540 2868,-540 2868,-504 2922,-504 2922,-540"/>
<text text-anchor="middle" x="2895" y="-518.3" font-family="Times New Roman,serif" font-size="14.00">9682</text>
</g>
<!-- 9681&#45;&#45;9682 -->
<g id="edge128" class="edge"><title>9681&#45;&#45;9682</title>
<path fill="none" stroke="black" d="M2895,-575.697C2895,-564.846 2895,-550.917 2895,-540.104"/>
</g>
<!-- 9685 -->
<g id="node66" class="node"><title>9685</title>
<polygon fill="#848a40" stroke="#848a40" points="2994,-612 2940,-612 2940,-576 2994,-576 2994,-612"/>
<text text-anchor="middle" x="2967" y="-590.3" font-family="Times New Roman,serif" font-size="14.00">9685</text>
</g>
<!-- 9686 -->
<g id="node67" class="node"><title>9686</title>
<polygon fill="#7d7270" stroke="#7d7270" points="2994,-540 2940,-540 2940,-504 2994,-504 2994,-540"/>
<text text-anchor="middle" x="2967" y="-518.3" font-family="Times New Roman,serif" font-size="14.00">9686</text>
</g>
<!-- 9685&#45;&#45;9686 -->
<g id="edge129" class="edge"><title>9685&#45;&#45;9686</title>
<path fill="none" stroke="black" d="M2967,-575.697C2967,-564.846 2967,-550.917 2967,-540.104"/>
</g>
<!-- 10217 -->
<g id="node68" class="node"><title>10217</title>
<polygon fill="#81393c" stroke="#81393c" points="3066,-612 3012,-612 3012,-576 3066,-576 3066,-612"/>
<text text-anchor="middle" x="3039" y="-590.3" font-family="Times New Roman,serif" font-size="14.00">10217</text>
</g>
<!-- 10218 -->
<g id="node69" class="node"><title>10218</title>
<polygon fill="#545985" stroke="#545985" points="3102,-540 3048,-540 3048,-504 3102,-504 3102,-540"/>
<text text-anchor="middle" x="3075" y="-518.3" font-family="Times New Roman,serif" font-size="14.00">10218</text>
</g>
<!-- 10217&#45;&#45;10218 -->
<g id="edge130" class="edge"><title>10217&#45;&#45;10218</title>
<path fill="none" stroke="black" d="M3047.9,-575.697C3053.48,-564.846 3060.64,-550.917 3066.2,-540.104"/>
</g>
<!-- 10659 -->
<g id="node70" class="node"><title>10659</title>
<polygon fill="#64554c" stroke="#64554c" points="3138,-612 3084,-612 3084,-576 3138,-576 3138,-612"/>
<text text-anchor="middle" x="3111" y="-590.3" font-family="Times New Roman,serif" font-size="14.00">10659</text>
</g>
<!-- 10659&#45;&#45;10218 -->
<g id="edge131" class="edge"><title>10659&#45;&#45;10218</title>
<path fill="none" stroke="black" d="M3102.1,-575.697C3096.52,-564.846 3089.36,-550.917 3083.8,-540.104"/>
</g>
</g>
</svg>
