<svg width="3997px" height="731px"
 viewBox="0.00 0.00 2998.00 548.00" xmlns="http://www.w3.org/2000/svg" xmlns:xlink="http://www.w3.org/1999/xlink">
<g id="graph0" class="graph" transform="scale(1.000022500562514 1.000022500562514) rotate(0) translate(4 544)">
<title>G</title>
<polygon fill="white" stroke="none" points="-4,4 -4,-544 2994,-544 2994,4 -4,4"/>
<!-- 217 -->
<g id="node1" class="node"><title>217</title>
<polygon fill="#5a6739" stroke="#5a6739" points="82,-396 28,-396 28,-360 82,-360 82,-396"/>
<text text-anchor="middle" x="55" y="-374.3" font-family="Times New Roman,serif" font-size="14.00">217</text>
</g>
<!-- 218 -->
<g id="node2" class="node"><title>218</title>
<polygon fill="#9a6e45" stroke="#9a6e45" points="110,-324 56,-324 56,-288 110,-288 110,-324"/>
<text text-anchor="middle" x="83" y="-302.3" font-family="Times New Roman,serif" font-size="14.00">218</text>
</g>
<!-- 217&#45;&#45;218 -->
<g id="edge1" class="edge"><title>217&#45;&#45;218</title>
<path fill="none" stroke="black" d="M61.9214,-359.697C66.2615,-348.846 71.8333,-334.917 76.1583,-324.104"/>
</g>
<!-- 220 -->
<g id="node3" class="node"><title>220</title>
<polygon fill="#917f8c" stroke="#917f8c" points="82,-252 28,-252 28,-216 82,-216 82,-252"/>
<text text-anchor="middle" x="55" y="-230.3" font-family="Times New Roman,serif" font-size="14.00">220</text>
</g>
<!-- 217&#45;&#45;220 -->
<g id="edge2" class="edge"><title>217&#45;&#45;220</title>
<path fill="none" stroke="black" d="M51.7517,-359.888C49.9542,-349.542 47.9053,-336.063 47,-324 45.8026,-308.045 45.8026,-303.955 47,-288 47.9053,-275.937 49.9542,-262.458 51.7517,-252.112"/>
</g>
<!-- 218&#45;&#45;220 -->
<g id="edge3" class="edge"><title>218&#45;&#45;220</title>
<path fill="none" stroke="black" d="M76.0786,-287.697C71.7385,-276.846 66.1667,-262.917 61.8417,-252.104"/>
</g>
<!-- 617 -->
<g id="node4" class="node"><title>617</title>
<polygon fill="#82484a" stroke="#82484a" points="655,-540 601,-540 601,-504 655,-504 655,-540"/>
<text text-anchor="middle" x="628" y="-518.3" font-family="Times New Roman,serif" font-size="14.00">617</text>
</g>
<!-- 618 -->
<g id="node5" class="node"><title>618</title>
<polygon fill="#8b8d68" stroke="#8b8d68" points="628,-468 574,-468 574,-432 628,-432 628,-468"/>
<text text-anchor="middle" x="601" y="-446.3" font-family="Times New Roman,serif" font-size="14.00">618</text>
</g>
<!-- 617&#45;&#45;618 -->
<g id="edge4" class="edge"><title>617&#45;&#45;618</title>
<path fill="none" stroke="black" d="M621.326,-503.697C617.141,-492.846 611.768,-478.917 607.597,-468.104"/>
</g>
<!-- 620 -->
<g id="node6" class="node"><title>620</title>
<polygon fill="#618b47" stroke="#618b47" points="651,-396 597,-396 597,-360 651,-360 651,-396"/>
<text text-anchor="middle" x="624" y="-374.3" font-family="Times New Roman,serif" font-size="14.00">620</text>
</g>
<!-- 617&#45;&#45;620 -->
<g id="edge5" class="edge"><title>617&#45;&#45;620</title>
<path fill="none" stroke="black" d="M631.97,-503.916C635.613,-485.983 640.019,-456.977 637,-432 635.545,-419.961 632.295,-406.711 629.409,-396.471"/>
</g>
<!-- 618&#45;&#45;620 -->
<g id="edge6" class="edge"><title>618&#45;&#45;620</title>
<path fill="none" stroke="black" d="M606.685,-431.697C610.251,-420.846 614.827,-406.917 618.38,-396.104"/>
</g>
<!-- 1111 -->
<g id="node7" class="node"><title>1111</title>
<polygon fill="#7f735a" stroke="#7f735a" points="54,-540 0,-540 0,-504 54,-504 54,-540"/>
<text text-anchor="middle" x="27" y="-518.3" font-family="Times New Roman,serif" font-size="14.00">1111</text>
</g>
<!-- 1111&#45;&#45;217 -->
<g id="edge8" class="edge"><title>1111&#45;&#45;217</title>
<path fill="none" stroke="black" d="M30.3775,-503.871C35.7592,-476.578 46.2213,-423.52 51.6106,-396.189"/>
</g>
<!-- 1111&#45;&#45;218 -->
<g id="edge9" class="edge"><title>1111&#45;&#45;218</title>
<path fill="none" stroke="black" d="M21.0176,-503.524C11.5785,-472.809 -3.50876,-407.865 19,-360 26.674,-343.681 42.1126,-330.663 55.9036,-321.612"/>
</g>
<!-- 1111&#45;&#45;220 -->
<g id="edge10" class="edge"><title>1111&#45;&#45;220</title>
<path fill="none" stroke="black" d="M17.4575,-503.928C12.3601,-493.821 6.61006,-480.571 4,-468 1.15911,-454.317 0.873212,-380.655 5,-360 13.0596,-319.661 33.67,-275.706 45.7645,-252.174"/>
</g>
<!-- 1112 -->
<g id="node8" class="node"><title>1112</title>
<polygon fill="#3e8f80" stroke="#3e8f80" points="247,-468 193,-468 193,-432 247,-432 247,-468"/>
<text text-anchor="middle" x="220" y="-446.3" font-family="Times New Roman,serif" font-size="14.00">1112</text>
</g>
<!-- 1111&#45;&#45;1112 -->
<g id="edge7" class="edge"><title>1111&#45;&#45;1112</title>
<path fill="none" stroke="black" d="M54.2428,-511.119C91.0261,-497.778 156.184,-474.146 192.896,-460.831"/>
</g>
<!-- 1112&#45;&#45;217 -->
<g id="edge11" class="edge"><title>1112&#45;&#45;217</title>
<path fill="none" stroke="black" d="M192.754,-437.441C162.09,-424.432 112.58,-403.428 82.0126,-390.46"/>
</g>
<!-- 1112&#45;&#45;218 -->
<g id="edge12" class="edge"><title>1112&#45;&#45;218</title>
<path fill="none" stroke="black" d="M192.992,-438.211C173.299,-429.264 147.016,-414.946 129,-396 108.984,-374.95 95.5075,-343.49 88.556,-324.159"/>
</g>
<!-- 1112&#45;&#45;220 -->
<g id="edge13" class="edge"><title>1112&#45;&#45;220</title>
<path fill="none" stroke="black" d="M219.503,-431.783C218.267,-412.961 214.185,-382.489 201,-360 171.887,-310.345 115.718,-270.852 82.1736,-250.372"/>
</g>
<!-- 1432 -->
<g id="node9" class="node"><title>1432</title>
<polygon fill="#75505c" stroke="#75505c" points="484,-324 430,-324 430,-288 484,-288 484,-324"/>
<text text-anchor="middle" x="457" y="-302.3" font-family="Times New Roman,serif" font-size="14.00">1432</text>
</g>
<!-- 1112&#45;&#45;1432 -->
<g id="edge14" class="edge"><title>1112&#45;&#45;1432</title>
<path fill="none" stroke="black" d="M226.529,-431.955C235.101,-411.826 252.051,-378.722 277,-360 323.38,-325.196 392.286,-313.168 429.969,-309.069"/>
</g>
<!-- 6024 -->
<g id="node10" class="node"><title>6024</title>
<polygon fill="#857452" stroke="#857452" points="192,-396 138,-396 138,-360 192,-360 192,-396"/>
<text text-anchor="middle" x="165" y="-374.3" font-family="Times New Roman,serif" font-size="14.00">6024</text>
</g>
<!-- 1112&#45;&#45;6024 -->
<g id="edge15" class="edge"><title>1112&#45;&#45;6024</title>
<path fill="none" stroke="black" d="M206.404,-431.697C197.879,-420.846 186.935,-406.917 178.439,-396.104"/>
</g>
<!-- 6026 -->
<g id="node11" class="node"><title>6026</title>
<polygon fill="#417a38" stroke="#417a38" points="340,-396 286,-396 286,-360 340,-360 340,-396"/>
<text text-anchor="middle" x="313" y="-374.3" font-family="Times New Roman,serif" font-size="14.00">6026</text>
</g>
<!-- 1112&#45;&#45;6026 -->
<g id="edge16" class="edge"><title>1112&#45;&#45;6026</title>
<path fill="none" stroke="black" d="M242.989,-431.697C257.404,-420.846 275.911,-406.917 290.276,-396.104"/>
</g>
<!-- 6028 -->
<g id="node12" class="node"><title>6028</title>
<polygon fill="#354890" stroke="#354890" points="412,-396 358,-396 358,-360 412,-360 412,-396"/>
<text text-anchor="middle" x="385" y="-374.3" font-family="Times New Roman,serif" font-size="14.00">6028</text>
</g>
<!-- 1112&#45;&#45;6028 -->
<g id="edge17" class="edge"><title>1112&#45;&#45;6028</title>
<path fill="none" stroke="black" d="M247.351,-438.236C273.582,-427.802 314.221,-411.344 349,-396 351.909,-394.717 354.935,-393.346 357.942,-391.96"/>
</g>
<!-- 9678 -->
<g id="node13" class="node"><title>9678</title>
<polygon fill="#5d4b7c" stroke="#5d4b7c" points="484,-396 430,-396 430,-360 484,-360 484,-396"/>
<text text-anchor="middle" x="457" y="-374.3" font-family="Times New Roman,serif" font-size="14.00">9678</text>
</g>
<!-- 1112&#45;&#45;9678 -->
<g id="edge18" class="edge"><title>1112&#45;&#45;9678</title>
<path fill="none" stroke="black" d="M247.141,-443.503C286.219,-435.219 360.307,-418.12 421,-396 423.857,-394.959 426.796,-393.773 429.703,-392.524"/>
</g>
<!-- 9678&#45;&#45;1432 -->
<g id="edge19" class="edge"><title>9678&#45;&#45;1432</title>
<path fill="none" stroke="black" d="M457,-359.697C457,-348.846 457,-334.917 457,-324.104"/>
</g>
<!-- 1429 -->
<g id="node14" class="node"><title>1429</title>
<polygon fill="#79525a" stroke="#79525a" points="556,-468 502,-468 502,-432 556,-432 556,-468"/>
<text text-anchor="middle" x="529" y="-446.3" font-family="Times New Roman,serif" font-size="14.00">1429</text>
</g>
<!-- 1430 -->
<g id="node15" class="node"><title>1430</title>
<polygon fill="#778888" stroke="#778888" points="556,-396 502,-396 502,-360 556,-360 556,-396"/>
<text text-anchor="middle" x="529" y="-374.3" font-family="Times New Roman,serif" font-size="14.00">1430</text>
</g>
<!-- 1429&#45;&#45;1430 -->
<g id="edge20" class="edge"><title>1429&#45;&#45;1430</title>
<path fill="none" stroke="black" d="M529,-431.697C529,-420.846 529,-406.917 529,-396.104"/>
</g>
<!-- 1430&#45;&#45;1432 -->
<g id="edge21" class="edge"><title>1430&#45;&#45;1432</title>
<path fill="none" stroke="black" d="M511.202,-359.697C500.042,-348.846 485.714,-334.917 474.593,-324.104"/>
</g>
<!-- 2359 -->
<g id="node16" class="node"><title>2359</title>
<polygon fill="#578564" stroke="#578564" points="953,-540 899,-540 899,-504 953,-504 953,-540"/>
<text text-anchor="middle" x="926" y="-518.3" font-family="Times New Roman,serif" font-size="14.00">2359</text>
</g>
<!-- 2360 -->
<g id="node17" class="node"><title>2360</title>
<polygon fill="#4e3792" stroke="#4e3792" points="1008,-468 954,-468 954,-432 1008,-432 1008,-468"/>
<text text-anchor="middle" x="981" y="-446.3" font-family="Times New Roman,serif" font-size="14.00">2360</text>
</g>
<!-- 2359&#45;&#45;2360 -->
<g id="edge22" class="edge"><title>2359&#45;&#45;2360</title>
<path fill="none" stroke="black" d="M939.596,-503.697C948.121,-492.846 959.065,-478.917 967.561,-468.104"/>
</g>
<!-- 2362 -->
<g id="node18" class="node"><title>2362</title>
<polygon fill="#708495" stroke="#708495" points="1084,-396 1030,-396 1030,-360 1084,-360 1084,-396"/>
<text text-anchor="middle" x="1057" y="-374.3" font-family="Times New Roman,serif" font-size="14.00">2362</text>
</g>
<!-- 2359&#45;&#45;2362 -->
<g id="edge23" class="edge"><title>2359&#45;&#45;2362</title>
<path fill="none" stroke="black" d="M953.315,-510.495C973.164,-501.692 999.509,-487.432 1017,-468 1035.93,-446.974 1047.18,-415.506 1052.72,-396.167"/>
</g>
<!-- 2364 -->
<g id="node19" class="node"><title>2364</title>
<polygon fill="#818e5f" stroke="#818e5f" points="898,-324 844,-324 844,-288 898,-288 898,-324"/>
<text text-anchor="middle" x="871" y="-302.3" font-family="Times New Roman,serif" font-size="14.00">2364</text>
</g>
<!-- 2359&#45;&#45;2364 -->
<g id="edge24" class="edge"><title>2359&#45;&#45;2364</title>
<path fill="none" stroke="black" d="M921.422,-503.824C918.668,-493.456 915.106,-479.976 912,-468 898.457,-415.791 882.822,-353.949 875.378,-324.405"/>
</g>
<!-- 2366 -->
<g id="node20" class="node"><title>2366</title>
<polygon fill="#9b6e35" stroke="#9b6e35" points="974,-252 920,-252 920,-216 974,-216 974,-252"/>
<text text-anchor="middle" x="947" y="-230.3" font-family="Times New Roman,serif" font-size="14.00">2366</text>
</g>
<!-- 2359&#45;&#45;2366 -->
<g id="edge25" class="edge"><title>2359&#45;&#45;2366</title>
<path fill="none" stroke="black" d="M927.251,-503.966C930.977,-453.218 941.977,-303.407 945.729,-252.306"/>
</g>
<!-- 2368 -->
<g id="node21" class="node"><title>2368</title>
<polygon fill="#668389" stroke="#668389" points="1029,-180 975,-180 975,-144 1029,-144 1029,-180"/>
<text text-anchor="middle" x="1002" y="-158.3" font-family="Times New Roman,serif" font-size="14.00">2368</text>
</g>
<!-- 2359&#45;&#45;2368 -->
<g id="edge26" class="edge"><title>2359&#45;&#45;2368</title>
<path fill="none" stroke="black" d="M953.093,-513.14C978.139,-504.89 1015.39,-490.027 1042,-468 1072.21,-442.992 1081.11,-433.367 1093,-396 1119.21,-313.651 1049.68,-218.536 1017.42,-180.262"/>
</g>
<!-- 2370 -->
<g id="node22" class="node"><title>2370</title>
<polygon fill="#614c71" stroke="#614c71" points="919,-108 865,-108 865,-72 919,-72 919,-108"/>
<text text-anchor="middle" x="892" y="-86.3" font-family="Times New Roman,serif" font-size="14.00">2370</text>
</g>
<!-- 2359&#45;&#45;2370 -->
<g id="edge27" class="edge"><title>2359&#45;&#45;2370</title>
<path fill="none" stroke="black" d="M898.954,-514.033C847.367,-498.935 740,-458.019 740,-379 740,-379 740,-379 740,-233 740,-165.469 821.105,-120.828 864.825,-101.669"/>
</g>
<!-- 2372 -->
<g id="node23" class="node"><title>2372</title>
<polygon fill="#7d3578" stroke="#7d3578" points="974,-36 920,-36 920,-0 974,-0 974,-36"/>
<text text-anchor="middle" x="947" y="-14.3" font-family="Times New Roman,serif" font-size="14.00">2372</text>
</g>
<!-- 2359&#45;&#45;2372 -->
<g id="edge28" class="edge"><title>2359&#45;&#45;2372</title>
<path fill="none" stroke="black" d="M898.819,-518.49C862.771,-513.932 798.734,-501.429 756,-468 719.558,-439.493 702,-425.267 702,-379 702,-379 702,-379 702,-161 702,-61.1999 856.056,-30.387 919.845,-21.9062"/>
</g>
<!-- 2360&#45;&#45;2362 -->
<g id="edge29" class="edge"><title>2360&#45;&#45;2362</title>
<path fill="none" stroke="black" d="M999.787,-431.697C1011.57,-420.846 1026.69,-406.917 1038.43,-396.104"/>
</g>
<!-- 2360&#45;&#45;2364 -->
<g id="edge30" class="edge"><title>2360&#45;&#45;2364</title>
<path fill="none" stroke="black" d="M967.731,-431.871C946.589,-404.578 905.488,-351.52 884.316,-324.189"/>
</g>
<!-- 2360&#45;&#45;2366 -->
<g id="edge31" class="edge"><title>2360&#45;&#45;2366</title>
<path fill="none" stroke="black" d="M978.275,-431.849C971.909,-391.78 956.117,-292.383 949.738,-252.232"/>
</g>
<!-- 2360&#45;&#45;2368 -->
<g id="edge32" class="edge"><title>2360&#45;&#45;2368</title>
<path fill="none" stroke="black" d="M982.251,-431.966C985.977,-381.218 996.977,-231.407 1000.73,-180.306"/>
</g>
<!-- 2360&#45;&#45;2370 -->
<g id="edge33" class="edge"><title>2360&#45;&#45;2370</title>
<path fill="none" stroke="black" d="M953.754,-439.87C906.889,-422.245 816,-378.808 816,-307 816,-307 816,-307 816,-233 816,-182.949 853.157,-133.466 875.509,-108.228"/>
</g>
<!-- 2360&#45;&#45;2372 -->
<g id="edge34" class="edge"><title>2360&#45;&#45;2372</title>
<path fill="none" stroke="black" d="M1008.12,-446.311C1072.66,-438.267 1230,-408.271 1230,-307 1230,-307 1230,-307 1230,-161 1230,-47.212 1044.97,-24.5975 974.135,-20.1092"/>
</g>
<!-- 2362&#45;&#45;2364 -->
<g id="edge35" class="edge"><title>2362&#45;&#45;2364</title>
<path fill="none" stroke="black" d="M1029.95,-366.821C994.69,-353.55 933.359,-330.468 898.079,-317.191"/>
</g>
<!-- 2362&#45;&#45;2366 -->
<g id="edge36" class="edge"><title>2362&#45;&#45;2366</title>
<path fill="none" stroke="black" d="M1043.73,-359.871C1022.59,-332.578 981.488,-279.52 960.316,-252.189"/>
</g>
<!-- 2362&#45;&#45;2368 -->
<g id="edge37" class="edge"><title>2362&#45;&#45;2368</title>
<path fill="none" stroke="black" d="M1052.62,-359.595C1045.18,-330.051 1029.54,-268.209 1016,-216 1012.89,-204.024 1009.33,-190.544 1006.58,-180.176"/>
</g>
<!-- 2362&#45;&#45;2370 -->
<g id="edge38" class="edge"><title>2362&#45;&#45;2370</title>
<path fill="none" stroke="black" d="M1061.35,-359.833C1070.86,-317.928 1088.85,-209.085 1038,-144 1009.28,-107.238 952.702,-95.9578 919.033,-92.508"/>
</g>
<!-- 2362&#45;&#45;2372 -->
<g id="edge39" class="edge"><title>2362&#45;&#45;2372</title>
<path fill="none" stroke="black" d="M1084.32,-363.783C1123.77,-342.562 1192,-296.909 1192,-235 1192,-235 1192,-235 1192,-161 1192,-61.1999 1037.94,-30.387 974.155,-21.9062"/>
</g>
<!-- 2364&#45;&#45;2366 -->
<g id="edge40" class="edge"><title>2364&#45;&#45;2366</title>
<path fill="none" stroke="black" d="M889.787,-287.697C901.567,-276.846 916.69,-262.917 928.43,-252.104"/>
</g>
<!-- 2364&#45;&#45;2368 -->
<g id="edge41" class="edge"><title>2364&#45;&#45;2368</title>
<path fill="none" stroke="black" d="M875.279,-287.833C880.818,-268.494 892.073,-237.026 911,-216 928.491,-196.568 954.836,-182.308 974.685,-173.505"/>
</g>
<!-- 2364&#45;&#45;2370 -->
<g id="edge42" class="edge"><title>2364&#45;&#45;2370</title>
<path fill="none" stroke="black" d="M872.683,-287.849C876.615,-247.78 886.369,-148.383 890.309,-108.232"/>
</g>
<!-- 2364&#45;&#45;2372 -->
<g id="edge43" class="edge"><title>2364&#45;&#45;2372</title>
<path fill="none" stroke="black" d="M863.832,-287.748C848.124,-247.019 815.194,-142.988 856,-72 869.576,-48.3825 898.176,-34.3029 919.712,-26.6592"/>
</g>
<!-- 2366&#45;&#45;2368 -->
<g id="edge44" class="edge"><title>2366&#45;&#45;2368</title>
<path fill="none" stroke="black" d="M960.596,-215.697C969.121,-204.846 980.065,-190.917 988.561,-180.104"/>
</g>
<!-- 2366&#45;&#45;2370 -->
<g id="edge45" class="edge"><title>2366&#45;&#45;2370</title>
<path fill="none" stroke="black" d="M940.366,-215.871C929.794,-188.578 909.244,-135.52 898.658,-108.189"/>
</g>
<!-- 2366&#45;&#45;2372 -->
<g id="edge46" class="edge"><title>2366&#45;&#45;2372</title>
<path fill="none" stroke="black" d="M947,-215.849C947,-175.78 947,-76.3826 947,-36.2325"/>
</g>
<!-- 2368&#45;&#45;2370 -->
<g id="edge47" class="edge"><title>2368&#45;&#45;2370</title>
<path fill="none" stroke="black" d="M975.091,-143.876C958.045,-133.029 936.078,-119.05 919.012,-108.19"/>
</g>
<!-- 2368&#45;&#45;2372 -->
<g id="edge48" class="edge"><title>2368&#45;&#45;2372</title>
<path fill="none" stroke="black" d="M995.366,-143.871C984.794,-116.578 964.244,-63.5205 953.658,-36.1893"/>
</g>
<!-- 2370&#45;&#45;2372 -->
<g id="edge49" class="edge"><title>2370&#45;&#45;2372</title>
<path fill="none" stroke="black" d="M905.596,-71.6966C914.121,-60.8463 925.065,-46.9167 933.561,-36.1043"/>
</g>
<!-- 3315 -->
<g id="node24" class="node"><title>3315</title>
<polygon fill="#724c48" stroke="#724c48" points="1420,-540 1366,-540 1366,-504 1420,-504 1420,-540"/>
<text text-anchor="middle" x="1393" y="-518.3" font-family="Times New Roman,serif" font-size="14.00">3315</text>
</g>
<!-- 3316 -->
<g id="node25" class="node"><title>3316</title>
<polygon fill="#7b545f" stroke="#7b545f" points="1420,-468 1366,-468 1366,-432 1420,-432 1420,-468"/>
<text text-anchor="middle" x="1393" y="-446.3" font-family="Times New Roman,serif" font-size="14.00">3316</text>
</g>
<!-- 3315&#45;&#45;3316 -->
<g id="edge50" class="edge"><title>3315&#45;&#45;3316</title>
<path fill="none" stroke="black" d="M1393,-503.697C1393,-492.846 1393,-478.917 1393,-468.104"/>
</g>
<!-- 3318 -->
<g id="node26" class="node"><title>3318</title>
<polygon fill="#98418e" stroke="#98418e" points="1557,-396 1503,-396 1503,-360 1557,-360 1557,-396"/>
<text text-anchor="middle" x="1530" y="-374.3" font-family="Times New Roman,serif" font-size="14.00">3318</text>
</g>
<!-- 3315&#45;&#45;3318 -->
<g id="edge51" class="edge"><title>3315&#45;&#45;3318</title>
<path fill="none" stroke="black" d="M1420.24,-506.447C1436.47,-496.918 1456.8,-483.401 1472,-468 1493.5,-446.208 1511.51,-415.255 1521.51,-396.185"/>
</g>
<!-- 3320 -->
<g id="node27" class="node"><title>3320</title>
<polygon fill="#7b5b6a" stroke="#7b5b6a" points="1464,-324 1410,-324 1410,-288 1464,-288 1464,-324"/>
<text text-anchor="middle" x="1437" y="-302.3" font-family="Times New Roman,serif" font-size="14.00">3320</text>
</g>
<!-- 3315&#45;&#45;3320 -->
<g id="edge52" class="edge"><title>3315&#45;&#45;3320</title>
<path fill="none" stroke="black" d="M1408.35,-503.69C1416.04,-493.922 1424.62,-481.079 1429,-468 1445.8,-417.845 1442.15,-353.992 1439.09,-324.005"/>
</g>
<!-- 3322 -->
<g id="node28" class="node"><title>3322</title>
<polygon fill="#73834e" stroke="#73834e" points="1409,-252 1355,-252 1355,-216 1409,-216 1409,-252"/>
<text text-anchor="middle" x="1382" y="-230.3" font-family="Times New Roman,serif" font-size="14.00">3322</text>
</g>
<!-- 3315&#45;&#45;3322 -->
<g id="edge53" class="edge"><title>3315&#45;&#45;3322</title>
<path fill="none" stroke="black" d="M1377.39,-503.774C1369.63,-494.03 1361.05,-481.184 1357,-468 1333.02,-390.033 1361.94,-291.27 1375.6,-252.112"/>
</g>
<!-- 3324 -->
<g id="node29" class="node"><title>3324</title>
<polygon fill="#677668" stroke="#677668" points="1409,-180 1355,-180 1355,-144 1409,-144 1409,-180"/>
<text text-anchor="middle" x="1382" y="-158.3" font-family="Times New Roman,serif" font-size="14.00">3324</text>
</g>
<!-- 3315&#45;&#45;3324 -->
<g id="edge54" class="edge"><title>3315&#45;&#45;3324</title>
<path fill="none" stroke="black" d="M1365.88,-506.144C1329.11,-483.791 1268,-437.79 1268,-379 1268,-379 1268,-379 1268,-305 1268,-249.675 1321.27,-203.633 1354.98,-180.036"/>
</g>
<!-- 3316&#45;&#45;3318 -->
<g id="edge55" class="edge"><title>3316&#45;&#45;3318</title>
<path fill="none" stroke="black" d="M1420.07,-435.17C1444.08,-422.898 1478.99,-405.064 1502.99,-392.801"/>
</g>
<!-- 3316&#45;&#45;3320 -->
<g id="edge56" class="edge"><title>3316&#45;&#45;3320</title>
<path fill="none" stroke="black" d="M1398.31,-431.871C1406.76,-404.578 1423.2,-351.52 1431.67,-324.189"/>
</g>
<!-- 3316&#45;&#45;3322 -->
<g id="edge57" class="edge"><title>3316&#45;&#45;3322</title>
<path fill="none" stroke="black" d="M1392.12,-431.849C1390.06,-391.78 1384.95,-292.383 1382.89,-252.232"/>
</g>
<!-- 3316&#45;&#45;3324 -->
<g id="edge58" class="edge"><title>3316&#45;&#45;3324</title>
<path fill="none" stroke="black" d="M1383.75,-431.754C1364.07,-392.725 1321.74,-294.887 1346,-216 1350.05,-202.816 1358.63,-189.97 1366.39,-180.226"/>
</g>
<!-- 3318&#45;&#45;3320 -->
<g id="edge59" class="edge"><title>3318&#45;&#45;3320</title>
<path fill="none" stroke="black" d="M1507.01,-359.697C1492.6,-348.846 1474.09,-334.917 1459.72,-324.104"/>
</g>
<!-- 3318&#45;&#45;3322 -->
<g id="edge60" class="edge"><title>3318&#45;&#45;3322</title>
<path fill="none" stroke="black" d="M1522.14,-359.897C1512.64,-340.618 1495.12,-309.205 1473,-288 1454.39,-270.161 1428.67,-255.894 1409.33,-246.677"/>
</g>
<!-- 3318&#45;&#45;3324 -->
<g id="edge61" class="edge"><title>3318&#45;&#45;3324</title>
<path fill="none" stroke="black" d="M1526.59,-359.735C1522.43,-341.142 1514.26,-311.118 1501,-288 1475.36,-243.297 1430.45,-202.237 1403.75,-180.104"/>
</g>
<!-- 6012 -->
<g id="node30" class="node"><title>6012</title>
<polygon fill="#3d9493" stroke="#3d9493" points="1612,-324 1558,-324 1558,-288 1612,-288 1612,-324"/>
<text text-anchor="middle" x="1585" y="-302.3" font-family="Times New Roman,serif" font-size="14.00">6012</text>
</g>
<!-- 3318&#45;&#45;6012 -->
<g id="edge62" class="edge"><title>3318&#45;&#45;6012</title>
<path fill="none" stroke="black" d="M1543.6,-359.697C1552.12,-348.846 1563.07,-334.917 1571.56,-324.104"/>
</g>
<!-- 9244 -->
<g id="node31" class="node"><title>9244</title>
<polygon fill="#735776" stroke="#735776" points="1684,-324 1630,-324 1630,-288 1684,-288 1684,-324"/>
<text text-anchor="middle" x="1657" y="-302.3" font-family="Times New Roman,serif" font-size="14.00">9244</text>
</g>
<!-- 3318&#45;&#45;9244 -->
<g id="edge63" class="edge"><title>3318&#45;&#45;9244</title>
<path fill="none" stroke="black" d="M1557.24,-361.983C1578.67,-350.173 1608.38,-333.796 1629.8,-321.992"/>
</g>
<!-- 3320&#45;&#45;3322 -->
<g id="edge64" class="edge"><title>3320&#45;&#45;3322</title>
<path fill="none" stroke="black" d="M1423.4,-287.697C1414.88,-276.846 1403.93,-262.917 1395.44,-252.104"/>
</g>
<!-- 3320&#45;&#45;3324 -->
<g id="edge65" class="edge"><title>3320&#45;&#45;3324</title>
<path fill="none" stroke="black" d="M1435.3,-287.674C1433.05,-269.29 1428.11,-239.685 1418,-216 1412.5,-203.11 1403.69,-190.07 1396.16,-180.149"/>
</g>
<!-- 3322&#45;&#45;3324 -->
<g id="edge66" class="edge"><title>3322&#45;&#45;3324</title>
<path fill="none" stroke="black" d="M1382,-215.697C1382,-204.846 1382,-190.917 1382,-180.104"/>
</g>
<!-- 5077 -->
<g id="node32" class="node"><title>5077</title>
<polygon fill="#6c5737" stroke="#6c5737" points="1899,-540 1845,-540 1845,-504 1899,-504 1899,-540"/>
<text text-anchor="middle" x="1872" y="-518.3" font-family="Times New Roman,serif" font-size="14.00">5077</text>
</g>
<!-- 5078 -->
<g id="node33" class="node"><title>5078</title>
<polygon fill="#508871" stroke="#508871" points="1984,-468 1930,-468 1930,-432 1984,-432 1984,-468"/>
<text text-anchor="middle" x="1957" y="-446.3" font-family="Times New Roman,serif" font-size="14.00">5078</text>
</g>
<!-- 5077&#45;&#45;5078 -->
<g id="edge67" class="edge"><title>5077&#45;&#45;5078</title>
<path fill="none" stroke="black" d="M1893.01,-503.697C1906.19,-492.846 1923.1,-478.917 1936.23,-468.104"/>
</g>
<!-- 5080 -->
<g id="node34" class="node"><title>5080</title>
<polygon fill="#858664" stroke="#858664" points="1864,-396 1810,-396 1810,-360 1864,-360 1864,-396"/>
<text text-anchor="middle" x="1837" y="-374.3" font-family="Times New Roman,serif" font-size="14.00">5080</text>
</g>
<!-- 5077&#45;&#45;5080 -->
<g id="edge68" class="edge"><title>5077&#45;&#45;5080</title>
<path fill="none" stroke="black" d="M1867.78,-503.871C1861.05,-476.578 1847.97,-423.52 1841.24,-396.189"/>
</g>
<!-- 5082 -->
<g id="node35" class="node"><title>5082</title>
<polygon fill="#796b6a" stroke="#796b6a" points="1912,-324 1858,-324 1858,-288 1912,-288 1912,-324"/>
<text text-anchor="middle" x="1885" y="-302.3" font-family="Times New Roman,serif" font-size="14.00">5082</text>
</g>
<!-- 5077&#45;&#45;5082 -->
<g id="edge69" class="edge"><title>5077&#45;&#45;5082</title>
<path fill="none" stroke="black" d="M1873.04,-503.849C1875.48,-463.78 1881.51,-364.383 1883.95,-324.232"/>
</g>
<!-- 5084 -->
<g id="node36" class="node"><title>5084</title>
<polygon fill="#838749" stroke="#838749" points="2022,-252 1968,-252 1968,-216 2022,-216 2022,-252"/>
<text text-anchor="middle" x="1995" y="-230.3" font-family="Times New Roman,serif" font-size="14.00">5084</text>
</g>
<!-- 5077&#45;&#45;5084 -->
<g id="edge70" class="edge"><title>5077&#45;&#45;5084</title>
<path fill="none" stroke="black" d="M1899.05,-517.152C1927.4,-511.581 1970.81,-498.372 1993,-468 2041.44,-401.688 2014.31,-294.032 2001.01,-252.298"/>
</g>
<!-- 5086 -->
<g id="node37" class="node"><title>5086</title>
<polygon fill="#6f4452" stroke="#6f4452" points="1874,-180 1820,-180 1820,-144 1874,-144 1874,-180"/>
<text text-anchor="middle" x="1847" y="-158.3" font-family="Times New Roman,serif" font-size="14.00">5086</text>
</g>
<!-- 5077&#45;&#45;5086 -->
<g id="edge71" class="edge"><title>5077&#45;&#45;5086</title>
<path fill="none" stroke="black" d="M1858.23,-503.664C1840.91,-480.644 1812.09,-437.986 1801,-396 1779.94,-316.271 1819.86,-218.907 1838.34,-180.125"/>
</g>
<!-- 5088 -->
<g id="node38" class="node"><title>5088</title>
<polygon fill="#98977b" stroke="#98977b" points="1901,-108 1847,-108 1847,-72 1901,-72 1901,-108"/>
<text text-anchor="middle" x="1874" y="-86.3" font-family="Times New Roman,serif" font-size="14.00">5088</text>
</g>
<!-- 5077&#45;&#45;5088 -->
<g id="edge72" class="edge"><title>5077&#45;&#45;5088</title>
<path fill="none" stroke="black" d="M1844.86,-511.336C1799.21,-493.141 1712,-449.194 1712,-379 1712,-379 1712,-379 1712,-233 1712,-162.127 1800.77,-118.371 1846.88,-100.42"/>
</g>
<!-- 5078&#45;&#45;5080 -->
<g id="edge73" class="edge"><title>5078&#45;&#45;5080</title>
<path fill="none" stroke="black" d="M1929.77,-433.116C1910.13,-421.66 1883.74,-406.263 1864.12,-394.821"/>
</g>
<!-- 5078&#45;&#45;5082 -->
<g id="edge74" class="edge"><title>5078&#45;&#45;5082</title>
<path fill="none" stroke="black" d="M1948.32,-431.871C1934.48,-404.578 1907.57,-351.52 1893.72,-324.189"/>
</g>
<!-- 5078&#45;&#45;5084 -->
<g id="edge75" class="edge"><title>5078&#45;&#45;5084</title>
<path fill="none" stroke="black" d="M1966.98,-431.937C1972.39,-421.832 1978.64,-408.582 1982,-396 1995.59,-345.061 1996.23,-282.11 1995.61,-252.262"/>
</g>
<!-- 5078&#45;&#45;5086 -->
<g id="edge76" class="edge"><title>5078&#45;&#45;5086</title>
<path fill="none" stroke="black" d="M1954.84,-431.587C1950.73,-401.511 1940.41,-338.225 1921,-288 1907.72,-253.652 1898.85,-247.636 1880,-216 1872.79,-203.894 1864.39,-190.416 1857.87,-180.081"/>
</g>
<!-- 5078&#45;&#45;5088 -->
<g id="edge77" class="edge"><title>5078&#45;&#45;5088</title>
<path fill="none" stroke="black" d="M1984.32,-435.783C2023.77,-414.562 2092,-368.909 2092,-307 2092,-307 2092,-307 2092,-233 2092,-142.889 1959.61,-106.987 1901.17,-95.5294"/>
</g>
<!-- 5080&#45;&#45;5082 -->
<g id="edge78" class="edge"><title>5080&#45;&#45;5082</title>
<path fill="none" stroke="black" d="M1848.87,-359.697C1856.31,-348.846 1865.86,-334.917 1873.27,-324.104"/>
</g>
<!-- 5080&#45;&#45;5084 -->
<g id="edge79" class="edge"><title>5080&#45;&#45;5084</title>
<path fill="none" stroke="black" d="M1864.21,-362.743C1881.43,-353.043 1903.63,-339.236 1921,-324 1946.08,-302.004 1969.75,-271.112 1983.29,-252.11"/>
</g>
<!-- 5080&#45;&#45;5086 -->
<g id="edge80" class="edge"><title>5080&#45;&#45;5086</title>
<path fill="none" stroke="black" d="M1837.8,-359.849C1839.67,-319.78 1844.32,-220.383 1846.19,-180.232"/>
</g>
<!-- 5080&#45;&#45;5088 -->
<g id="edge81" class="edge"><title>5080&#45;&#45;5088</title>
<path fill="none" stroke="black" d="M1829.26,-359.926C1812.37,-320.011 1776.39,-218.353 1811,-144 1818.48,-127.932 1833.49,-114.995 1846.99,-105.926"/>
</g>
<!-- 5082&#45;&#45;5084 -->
<g id="edge82" class="edge"><title>5082&#45;&#45;5084</title>
<path fill="none" stroke="black" d="M1911.91,-287.876C1928.95,-277.029 1950.92,-263.05 1967.99,-252.19"/>
</g>
<!-- 5082&#45;&#45;5086 -->
<g id="edge83" class="edge"><title>5082&#45;&#45;5086</title>
<path fill="none" stroke="black" d="M1880.42,-287.871C1873.11,-260.578 1858.91,-207.52 1851.6,-180.189"/>
</g>
<!-- 5082&#45;&#45;5088 -->
<g id="edge84" class="edge"><title>5082&#45;&#45;5088</title>
<path fill="none" stroke="black" d="M1885.67,-287.562C1886.61,-257.971 1887.71,-196.06 1883,-144 1881.91,-131.916 1879.6,-118.438 1877.6,-108.097"/>
</g>
<!-- 5084&#45;&#45;5086 -->
<g id="edge85" class="edge"><title>5084&#45;&#45;5086</title>
<path fill="none" stroke="black" d="M1967.85,-220.161C1941.23,-207.57 1900.87,-188.48 1874.22,-175.876"/>
</g>
<!-- 5084&#45;&#45;5088 -->
<g id="edge86" class="edge"><title>5084&#45;&#45;5088</title>
<path fill="none" stroke="black" d="M1980.4,-215.871C1957.15,-188.578 1911.94,-135.52 1888.65,-108.189"/>
</g>
<!-- 5086&#45;&#45;5088 -->
<g id="edge87" class="edge"><title>5086&#45;&#45;5088</title>
<path fill="none" stroke="black" d="M1853.67,-143.697C1857.86,-132.846 1863.23,-118.917 1867.4,-108.104"/>
</g>
<!-- 5319 -->
<g id="node39" class="node"><title>5319</title>
<polygon fill="#7e3b68" stroke="#7e3b68" points="2166,-468 2112,-468 2112,-432 2166,-432 2166,-468"/>
<text text-anchor="middle" x="2139" y="-446.3" font-family="Times New Roman,serif" font-size="14.00">5319</text>
</g>
<!-- 5320 -->
<g id="node40" class="node"><title>5320</title>
<polygon fill="#553b63" stroke="#553b63" points="2212,-324 2158,-324 2158,-288 2212,-288 2212,-324"/>
<text text-anchor="middle" x="2185" y="-302.3" font-family="Times New Roman,serif" font-size="14.00">5320</text>
</g>
<!-- 5319&#45;&#45;5320 -->
<g id="edge88" class="edge"><title>5319&#45;&#45;5320</title>
<path fill="none" stroke="black" d="M2138.52,-431.708C2138.56,-413.352 2140.21,-383.77 2149,-360 2153.78,-347.064 2162.38,-334.225 2169.97,-324.424"/>
</g>
<!-- 10784 -->
<g id="node41" class="node"><title>10784</title>
<polygon fill="#4c6f8a" stroke="#4c6f8a" points="2212,-396 2158,-396 2158,-360 2212,-360 2212,-396"/>
<text text-anchor="middle" x="2185" y="-374.3" font-family="Times New Roman,serif" font-size="14.00">10784</text>
</g>
<!-- 5319&#45;&#45;10784 -->
<g id="edge89" class="edge"><title>5319&#45;&#45;10784</title>
<path fill="none" stroke="black" d="M2150.37,-431.697C2157.5,-420.846 2166.65,-406.917 2173.76,-396.104"/>
</g>
<!-- 10784&#45;&#45;5320 -->
<g id="edge90" class="edge"><title>10784&#45;&#45;5320</title>
<path fill="none" stroke="black" d="M2185,-359.697C2185,-348.846 2185,-334.917 2185,-324.104"/>
</g>
<!-- 6009 -->
<g id="node42" class="node"><title>6009</title>
<polygon fill="#8b6d8c" stroke="#8b6d8c" points="1589,-468 1535,-468 1535,-432 1589,-432 1589,-468"/>
<text text-anchor="middle" x="1562" y="-446.3" font-family="Times New Roman,serif" font-size="14.00">6009</text>
</g>
<!-- 6009&#45;&#45;3318 -->
<g id="edge91" class="edge"><title>6009&#45;&#45;3318</title>
<path fill="none" stroke="black" d="M1554.09,-431.697C1549.13,-420.846 1542.76,-406.917 1537.82,-396.104"/>
</g>
<!-- 6009&#45;&#45;6012 -->
<g id="edge92" class="edge"><title>6009&#45;&#45;6012</title>
<path fill="none" stroke="black" d="M1564.77,-431.871C1569.2,-404.578 1577.79,-351.52 1582.22,-324.189"/>
</g>
<!-- 6015 -->
<g id="node43" class="node"><title>6015</title>
<polygon fill="#70558a" stroke="#70558a" points="2322,-540 2268,-540 2268,-504 2322,-504 2322,-540"/>
<text text-anchor="middle" x="2295" y="-518.3" font-family="Times New Roman,serif" font-size="14.00">6015</text>
</g>
<!-- 6016 -->
<g id="node44" class="node"><title>6016</title>
<polygon fill="#4f6596" stroke="#4f6596" points="2322,-468 2268,-468 2268,-432 2322,-432 2322,-468"/>
<text text-anchor="middle" x="2295" y="-446.3" font-family="Times New Roman,serif" font-size="14.00">6016</text>
</g>
<!-- 6015&#45;&#45;6016 -->
<g id="edge93" class="edge"><title>6015&#45;&#45;6016</title>
<path fill="none" stroke="black" d="M2295,-503.697C2295,-492.846 2295,-478.917 2295,-468.104"/>
</g>
<!-- 7675 -->
<g id="node45" class="node"><title>7675</title>
<polygon fill="#8d7138" stroke="#8d7138" points="2432,-540 2378,-540 2378,-504 2432,-504 2432,-540"/>
<text text-anchor="middle" x="2405" y="-518.3" font-family="Times New Roman,serif" font-size="14.00">7675</text>
</g>
<!-- 7676 -->
<g id="node46" class="node"><title>7676</title>
<polygon fill="#429557" stroke="#429557" points="2432,-468 2378,-468 2378,-432 2432,-432 2432,-468"/>
<text text-anchor="middle" x="2405" y="-446.3" font-family="Times New Roman,serif" font-size="14.00">7676</text>
</g>
<!-- 7675&#45;&#45;7676 -->
<g id="edge94" class="edge"><title>7675&#45;&#45;7676</title>
<path fill="none" stroke="black" d="M2405,-503.697C2405,-492.846 2405,-478.917 2405,-468.104"/>
</g>
<!-- 7678 -->
<g id="node47" class="node"><title>7678</title>
<polygon fill="#613750" stroke="#613750" points="2394,-396 2340,-396 2340,-360 2394,-360 2394,-396"/>
<text text-anchor="middle" x="2367" y="-374.3" font-family="Times New Roman,serif" font-size="14.00">7678</text>
</g>
<!-- 7675&#45;&#45;7678 -->
<g id="edge95" class="edge"><title>7675&#45;&#45;7678</title>
<path fill="none" stroke="black" d="M2389.51,-503.737C2381.78,-493.983 2373.2,-481.137 2369,-468 2361.33,-444.005 2362.61,-414.485 2364.56,-396.203"/>
</g>
<!-- 7680 -->
<g id="node48" class="node"><title>7680</title>
<polygon fill="#85573c" stroke="#85573c" points="2468,-324 2414,-324 2414,-288 2468,-288 2468,-324"/>
<text text-anchor="middle" x="2441" y="-302.3" font-family="Times New Roman,serif" font-size="14.00">7680</text>
</g>
<!-- 7675&#45;&#45;7680 -->
<g id="edge96" class="edge"><title>7675&#45;&#45;7680</title>
<path fill="none" stroke="black" d="M2420.61,-503.774C2428.37,-494.03 2436.95,-481.184 2441,-468 2456.45,-417.773 2449.21,-354.488 2444.27,-324.412"/>
</g>
<!-- 7676&#45;&#45;7678 -->
<g id="edge97" class="edge"><title>7676&#45;&#45;7678</title>
<path fill="none" stroke="black" d="M2395.61,-431.697C2389.72,-420.846 2382.15,-406.917 2376.29,-396.104"/>
</g>
<!-- 7676&#45;&#45;7680 -->
<g id="edge98" class="edge"><title>7676&#45;&#45;7680</title>
<path fill="none" stroke="black" d="M2409.34,-431.871C2416.26,-404.578 2429.71,-351.52 2436.64,-324.189"/>
</g>
<!-- 7678&#45;&#45;7680 -->
<g id="edge99" class="edge"><title>7678&#45;&#45;7680</title>
<path fill="none" stroke="black" d="M2385.29,-359.697C2396.76,-348.846 2411.49,-334.917 2422.92,-324.104"/>
</g>
<!-- 7795 -->
<g id="node49" class="node"><title>7795</title>
<polygon fill="#384f91" stroke="#384f91" points="2542,-396 2488,-396 2488,-360 2542,-360 2542,-396"/>
<text text-anchor="middle" x="2515" y="-374.3" font-family="Times New Roman,serif" font-size="14.00">7795</text>
</g>
<!-- 7795&#45;&#45;7680 -->
<g id="edge100" class="edge"><title>7795&#45;&#45;7680</title>
<path fill="none" stroke="black" d="M2496.71,-359.697C2485.24,-348.846 2470.51,-334.917 2459.08,-324.104"/>
</g>
<!-- 8201 -->
<g id="node50" class="node"><title>8201</title>
<polygon fill="#99784f" stroke="#99784f" points="2660,-540 2606,-540 2606,-504 2660,-504 2660,-540"/>
<text text-anchor="middle" x="2633" y="-518.3" font-family="Times New Roman,serif" font-size="14.00">8201</text>
</g>
<!-- 8202 -->
<g id="node51" class="node"><title>8202</title>
<polygon fill="#543584" stroke="#543584" points="2660,-468 2606,-468 2606,-432 2660,-432 2660,-468"/>
<text text-anchor="middle" x="2633" y="-446.3" font-family="Times New Roman,serif" font-size="14.00">8202</text>
</g>
<!-- 8201&#45;&#45;8202 -->
<g id="edge101" class="edge"><title>8201&#45;&#45;8202</title>
<path fill="none" stroke="black" d="M2633,-503.697C2633,-492.846 2633,-478.917 2633,-468.104"/>
</g>
<!-- 8204 -->
<g id="node52" class="node"><title>8204</title>
<polygon fill="#793350" stroke="#793350" points="2614,-396 2560,-396 2560,-360 2614,-360 2614,-396"/>
<text text-anchor="middle" x="2587" y="-374.3" font-family="Times New Roman,serif" font-size="14.00">8204</text>
</g>
<!-- 8201&#45;&#45;8204 -->
<g id="edge102" class="edge"><title>8201&#45;&#45;8204</title>
<path fill="none" stroke="black" d="M2617.97,-503.576C2610.38,-493.775 2601.78,-480.936 2597,-468 2588.21,-444.23 2586.56,-414.648 2586.52,-396.292"/>
</g>
<!-- 8206 -->
<g id="node53" class="node"><title>8206</title>
<polygon fill="#7e6b44" stroke="#7e6b44" points="2669,-324 2615,-324 2615,-288 2669,-288 2669,-324"/>
<text text-anchor="middle" x="2642" y="-302.3" font-family="Times New Roman,serif" font-size="14.00">8206</text>
</g>
<!-- 8201&#45;&#45;8206 -->
<g id="edge103" class="edge"><title>8201&#45;&#45;8206</title>
<path fill="none" stroke="black" d="M2648.61,-503.774C2656.37,-494.03 2664.95,-481.184 2669,-468 2684.66,-417.071 2662.76,-354.116 2650.02,-324.264"/>
</g>
<!-- 8202&#45;&#45;8204 -->
<g id="edge104" class="edge"><title>8202&#45;&#45;8204</title>
<path fill="none" stroke="black" d="M2621.63,-431.697C2614.5,-420.846 2605.35,-406.917 2598.24,-396.104"/>
</g>
<!-- 8202&#45;&#45;8206 -->
<g id="edge105" class="edge"><title>8202&#45;&#45;8206</title>
<path fill="none" stroke="black" d="M2634.09,-431.871C2635.82,-404.578 2639.18,-351.52 2640.91,-324.189"/>
</g>
<!-- 8204&#45;&#45;8206 -->
<g id="edge106" class="edge"><title>8204&#45;&#45;8206</title>
<path fill="none" stroke="black" d="M2600.6,-359.697C2609.12,-348.846 2620.07,-334.917 2628.56,-324.104"/>
</g>
<!-- 9241 -->
<g id="node54" class="node"><title>9241</title>
<polygon fill="#70875c" stroke="#70875c" points="1678,-468 1624,-468 1624,-432 1678,-432 1678,-468"/>
<text text-anchor="middle" x="1651" y="-446.3" font-family="Times New Roman,serif" font-size="14.00">9241</text>
</g>
<!-- 9241&#45;&#45;3318 -->
<g id="edge107" class="edge"><title>9241&#45;&#45;3318</title>
<path fill="none" stroke="black" d="M1623.85,-433.291C1603.92,-421.762 1576.97,-406.173 1557.06,-394.657"/>
</g>
<!-- 9241&#45;&#45;9244 -->
<g id="edge108" class="edge"><title>9241&#45;&#45;9244</title>
<path fill="none" stroke="black" d="M1651.72,-431.871C1652.88,-404.578 1655.12,-351.52 1656.27,-324.189"/>
</g>
<!-- 9583 -->
<g id="node55" class="node"><title>9583</title>
<polygon fill="#8c7169" stroke="#8c7169" points="2770,-540 2716,-540 2716,-504 2770,-504 2770,-540"/>
<text text-anchor="middle" x="2743" y="-518.3" font-family="Times New Roman,serif" font-size="14.00">9583</text>
</g>
<!-- 9584 -->
<g id="node56" class="node"><title>9584</title>
<polygon fill="#946b87" stroke="#946b87" points="2770,-468 2716,-468 2716,-432 2770,-432 2770,-468"/>
<text text-anchor="middle" x="2743" y="-446.3" font-family="Times New Roman,serif" font-size="14.00">9584</text>
</g>
<!-- 9583&#45;&#45;9584 -->
<g id="edge109" class="edge"><title>9583&#45;&#45;9584</title>
<path fill="none" stroke="black" d="M2743,-503.697C2743,-492.846 2743,-478.917 2743,-468.104"/>
</g>
<!-- 9713 -->
<g id="node57" class="node"><title>9713</title>
<polygon fill="#966c3a" stroke="#966c3a" points="2907,-540 2853,-540 2853,-504 2907,-504 2907,-540"/>
<text text-anchor="middle" x="2880" y="-518.3" font-family="Times New Roman,serif" font-size="14.00">9713</text>
</g>
<!-- 9714 -->
<g id="node58" class="node"><title>9714</title>
<polygon fill="#5c9086" stroke="#5c9086" points="2935,-468 2881,-468 2881,-432 2935,-432 2935,-468"/>
<text text-anchor="middle" x="2908" y="-446.3" font-family="Times New Roman,serif" font-size="14.00">9714</text>
</g>
<!-- 9713&#45;&#45;9714 -->
<g id="edge110" class="edge"><title>9713&#45;&#45;9714</title>
<path fill="none" stroke="black" d="M2886.92,-503.697C2891.26,-492.846 2896.83,-478.917 2901.16,-468.104"/>
</g>
<!-- 9716 -->
<g id="node59" class="node"><title>9716</title>
<polygon fill="#493374" stroke="#493374" points="2880,-396 2826,-396 2826,-360 2880,-360 2880,-396"/>
<text text-anchor="middle" x="2853" y="-374.3" font-family="Times New Roman,serif" font-size="14.00">9716</text>
</g>
<!-- 9713&#45;&#45;9716 -->
<g id="edge111" class="edge"><title>9713&#45;&#45;9716</title>
<path fill="none" stroke="black" d="M2876.74,-503.871C2871.55,-476.578 2861.47,-423.52 2856.27,-396.189"/>
</g>
<!-- 9718 -->
<g id="node60" class="node"><title>9718</title>
<polygon fill="#594473" stroke="#594473" points="2990,-324 2936,-324 2936,-288 2990,-288 2990,-324"/>
<text text-anchor="middle" x="2963" y="-302.3" font-family="Times New Roman,serif" font-size="14.00">9718</text>
</g>
<!-- 9713&#45;&#45;9718 -->
<g id="edge112" class="edge"><title>9713&#45;&#45;9718</title>
<path fill="none" stroke="black" d="M2907.01,-505.569C2920.41,-496.431 2935.52,-483.587 2944,-468 2969.56,-421.027 2967.64,-355.094 2964.96,-324.219"/>
</g>
<!-- 9720 -->
<g id="node61" class="node"><title>9720</title>
<polygon fill="#505265" stroke="#505265" points="2911,-252 2857,-252 2857,-216 2911,-216 2911,-252"/>
<text text-anchor="middle" x="2884" y="-230.3" font-family="Times New Roman,serif" font-size="14.00">9720</text>
</g>
<!-- 9713&#45;&#45;9720 -->
<g id="edge113" class="edge"><title>9713&#45;&#45;9720</title>
<path fill="none" stroke="black" d="M2865.4,-503.616C2842.82,-474.603 2803.4,-414.147 2817,-360 2827.49,-318.209 2854.95,-275.141 2871.27,-252.072"/>
</g>
<!-- 9714&#45;&#45;9716 -->
<g id="edge114" class="edge"><title>9714&#45;&#45;9716</title>
<path fill="none" stroke="black" d="M2894.4,-431.697C2885.88,-420.846 2874.93,-406.917 2866.44,-396.104"/>
</g>
<!-- 9714&#45;&#45;9718 -->
<g id="edge115" class="edge"><title>9714&#45;&#45;9718</title>
<path fill="none" stroke="black" d="M2914.63,-431.871C2925.21,-404.578 2945.76,-351.52 2956.34,-324.189"/>
</g>
<!-- 9714&#45;&#45;9720 -->
<g id="edge116" class="edge"><title>9714&#45;&#45;9720</title>
<path fill="none" stroke="black" d="M2906.08,-431.849C2901.58,-391.78 2890.44,-292.383 2885.93,-252.232"/>
</g>
<!-- 9716&#45;&#45;9718 -->
<g id="edge117" class="edge"><title>9716&#45;&#45;9718</title>
<path fill="none" stroke="black" d="M2879.91,-359.876C2896.95,-349.029 2918.92,-335.05 2935.99,-324.19"/>
</g>
<!-- 9716&#45;&#45;9720 -->
<g id="edge118" class="edge"><title>9716&#45;&#45;9720</title>
<path fill="none" stroke="black" d="M2856.74,-359.871C2862.7,-332.578 2874.28,-279.52 2880.25,-252.189"/>
</g>
<!-- 9718&#45;&#45;9720 -->
<g id="edge119" class="edge"><title>9718&#45;&#45;9720</title>
<path fill="none" stroke="black" d="M2943.47,-287.697C2931.23,-276.846 2915.51,-262.917 2903.3,-252.104"/>
</g>
<!-- 10781 -->
<g id="node62" class="node"><title>10781</title>
<polygon fill="#87917d" stroke="#87917d" points="2221,-540 2167,-540 2167,-504 2221,-504 2221,-540"/>
<text text-anchor="middle" x="2194" y="-518.3" font-family="Times New Roman,serif" font-size="14.00">10781</text>
</g>
<!-- 10781&#45;&#45;5319 -->
<g id="edge120" class="edge"><title>10781&#45;&#45;5319</title>
<path fill="none" stroke="black" d="M2180.4,-503.697C2171.88,-492.846 2160.93,-478.917 2152.44,-468.104"/>
</g>
<!-- 10781&#45;&#45;5320 -->
<g id="edge122" class="edge"><title>10781&#45;&#45;5320</title>
<path fill="none" stroke="black" d="M2202.02,-503.736C2214.76,-473.884 2236.66,-410.929 2221,-360 2216.95,-346.816 2208.37,-333.97 2200.61,-324.226"/>
</g>
<!-- 10781&#45;&#45;10784 -->
<g id="edge121" class="edge"><title>10781&#45;&#45;10784</title>
<path fill="none" stroke="black" d="M2192.91,-503.871C2191.18,-476.578 2187.82,-423.52 2186.09,-396.189"/>
</g>
</g>
</svg>
