<svg width="2661px" height="539px"
 viewBox="0.00 0.00 1996.04 404.00" xmlns="http://www.w3.org/2000/svg" xmlns:xlink="http://www.w3.org/1999/xlink">
<g id="graph0" class="graph" transform="scale(1.000022500562514 1.000022500562514) rotate(0) translate(4 400)">
<title>G</title>
<polygon fill="white" stroke="none" points="-4,4 -4,-400 1992.04,-400 1992.04,4 -4,4"/>
<!-- 127 -->
<g id="node1" class="node"><title>127</title>
<polygon fill="#616b6a" stroke="#616b6a" points="144.037,-396 90.0367,-396 90.0367,-360 144.037,-360 144.037,-396"/>
<text text-anchor="middle" x="117.037" y="-374.3" font-family="Times New Roman,serif" font-size="14.00">127</text>
</g>
<!-- 128 -->
<g id="node2" class="node"><title>128</title>
<polygon fill="#4b4741" stroke="#4b4741" points="144.037,-324 90.0367,-324 90.0367,-288 144.037,-288 144.037,-324"/>
<text text-anchor="middle" x="117.037" y="-302.3" font-family="Times New Roman,serif" font-size="14.00">128</text>
</g>
<!-- 127&#45;&#45;128 -->
<g id="edge1" class="edge"><title>127&#45;&#45;128</title>
<path fill="none" stroke="black" d="M117.037,-359.697C117.037,-348.846 117.037,-334.917 117.037,-324.104"/>
</g>
<!-- 130 -->
<g id="node3" class="node"><title>130</title>
<polygon fill="#7d816d" stroke="#7d816d" points="80.0367,-252 26.0367,-252 26.0367,-216 80.0367,-216 80.0367,-252"/>
<text text-anchor="middle" x="53.0367" y="-230.3" font-family="Times New Roman,serif" font-size="14.00">130</text>
</g>
<!-- 127&#45;&#45;130 -->
<g id="edge2" class="edge"><title>127&#45;&#45;130</title>
<path fill="none" stroke="black" d="M89.8668,-372.61C63.0851,-366.681 23.5627,-353.262 5.0367,-324 -10.2699,-299.823 13.3752,-270.352 32.5749,-252.131"/>
</g>
<!-- 5822 -->
<g id="node4" class="node"><title>5822</title>
<polygon fill="#963686" stroke="#963686" points="144.037,-180 90.0367,-180 90.0367,-144 144.037,-144 144.037,-180"/>
<text text-anchor="middle" x="117.037" y="-158.3" font-family="Times New Roman,serif" font-size="14.00">5822</text>
</g>
<!-- 127&#45;&#45;5822 -->
<g id="edge3" class="edge"><title>127&#45;&#45;5822</title>
<path fill="none" stroke="black" d="M132.647,-359.774C140.41,-350.03 148.983,-337.184 153.037,-324 168.863,-272.532 142.03,-209.829 126.657,-180.15"/>
</g>
<!-- 128&#45;&#45;130 -->
<g id="edge4" class="edge"><title>128&#45;&#45;130</title>
<path fill="none" stroke="black" d="M101.216,-287.697C91.2962,-276.846 78.5606,-262.917 68.6749,-252.104"/>
</g>
<!-- 128&#45;&#45;5822 -->
<g id="edge5" class="edge"><title>128&#45;&#45;5822</title>
<path fill="none" stroke="black" d="M117.037,-287.871C117.037,-260.578 117.037,-207.52 117.037,-180.189"/>
</g>
<!-- 130&#45;&#45;5822 -->
<g id="edge6" class="edge"><title>130&#45;&#45;5822</title>
<path fill="none" stroke="black" d="M68.8569,-215.697C78.7772,-204.846 91.5128,-190.917 101.398,-180.104"/>
</g>
<!-- 1125 -->
<g id="node5" class="node"><title>1125</title>
<polygon fill="#398584" stroke="#398584" points="561.037,-396 507.037,-396 507.037,-360 561.037,-360 561.037,-396"/>
<text text-anchor="middle" x="534.037" y="-374.3" font-family="Times New Roman,serif" font-size="14.00">1125</text>
</g>
<!-- 1126 -->
<g id="node6" class="node"><title>1126</title>
<polygon fill="#3c4655" stroke="#3c4655" points="296.037,-324 242.037,-324 242.037,-288 296.037,-288 296.037,-324"/>
<text text-anchor="middle" x="269.037" y="-302.3" font-family="Times New Roman,serif" font-size="14.00">1126</text>
</g>
<!-- 1125&#45;&#45;1126 -->
<g id="edge7" class="edge"><title>1125&#45;&#45;1126</title>
<path fill="none" stroke="black" d="M506.756,-372.017C464.186,-363.913 379.622,-346.497 310.037,-324 305.491,-322.53 300.742,-320.775 296.155,-318.96"/>
</g>
<!-- 1128 -->
<g id="node7" class="node"><title>1128</title>
<polygon fill="#8e3655" stroke="#8e3655" points="488.037,-252 434.037,-252 434.037,-216 488.037,-216 488.037,-252"/>
<text text-anchor="middle" x="461.037" y="-230.3" font-family="Times New Roman,serif" font-size="14.00">1128</text>
</g>
<!-- 1125&#45;&#45;1128 -->
<g id="edge8" class="edge"><title>1125&#45;&#45;1128</title>
<path fill="none" stroke="black" d="M518.511,-359.821C510.129,-349.891 500.087,-336.851 493.037,-324 480.084,-300.391 470.594,-270.506 465.446,-252.074"/>
</g>
<!-- 1130 -->
<g id="node8" class="node"><title>1130</title>
<polygon fill="#538548" stroke="#538548" points="562.037,-180 508.037,-180 508.037,-144 562.037,-144 562.037,-180"/>
<text text-anchor="middle" x="535.037" y="-158.3" font-family="Times New Roman,serif" font-size="14.00">1130</text>
</g>
<!-- 1125&#45;&#45;1130 -->
<g id="edge9" class="edge"><title>1125&#45;&#45;1130</title>
<path fill="none" stroke="black" d="M530.788,-359.888C528.991,-349.542 526.942,-336.063 526.037,-324 522.119,-271.796 528.727,-209.952 532.574,-180.406"/>
</g>
<!-- 1132 -->
<g id="node9" class="node"><title>1132</title>
<polygon fill="#8b8f41" stroke="#8b8f41" points="456.037,-108 402.037,-108 402.037,-72 456.037,-72 456.037,-108"/>
<text text-anchor="middle" x="429.037" y="-86.3" font-family="Times New Roman,serif" font-size="14.00">1132</text>
</g>
<!-- 1125&#45;&#45;1132 -->
<g id="edge10" class="edge"><title>1125&#45;&#45;1132</title>
<path fill="none" stroke="black" d="M506.868,-368.617C463.036,-353.447 378.094,-316.841 343.037,-252 314.778,-199.733 374.048,-137.662 407.79,-108.186"/>
</g>
<!-- 1134 -->
<g id="node10" class="node"><title>1134</title>
<polygon fill="#8a6c5b" stroke="#8a6c5b" points="824.037,-36 770.037,-36 770.037,-0 824.037,-0 824.037,-36"/>
<text text-anchor="middle" x="797.037" y="-14.3" font-family="Times New Roman,serif" font-size="14.00">1134</text>
</g>
<!-- 1125&#45;&#45;1134 -->
<g id="edge11" class="edge"><title>1125&#45;&#45;1134</title>
<path fill="none" stroke="black" d="M561.081,-374.055C624.61,-365.487 778.037,-334.495 778.037,-235 778.037,-235 778.037,-235 778.037,-161 778.037,-115.732 787.64,-63.0581 793.192,-36.3884"/>
</g>
<!-- 3138 -->
<g id="node11" class="node"><title>3138</title>
<polygon fill="#9b7344" stroke="#9b7344" points="589.037,-324 535.037,-324 535.037,-288 589.037,-288 589.037,-324"/>
<text text-anchor="middle" x="562.037" y="-302.3" font-family="Times New Roman,serif" font-size="14.00">3138</text>
</g>
<!-- 1125&#45;&#45;3138 -->
<g id="edge12" class="edge"><title>1125&#45;&#45;3138</title>
<path fill="none" stroke="black" d="M540.958,-359.697C545.298,-348.846 550.87,-334.917 555.195,-324.104"/>
</g>
<!-- 10391 -->
<g id="node12" class="node"><title>10391</title>
<polygon fill="#60498a" stroke="#60498a" points="661.037,-324 607.037,-324 607.037,-288 661.037,-288 661.037,-324"/>
<text text-anchor="middle" x="634.037" y="-302.3" font-family="Times New Roman,serif" font-size="14.00">10391</text>
</g>
<!-- 1125&#45;&#45;10391 -->
<g id="edge13" class="edge"><title>1125&#45;&#45;10391</title>
<path fill="none" stroke="black" d="M558.499,-359.876C573.996,-349.029 593.966,-335.05 609.48,-324.19"/>
</g>
<!-- 10392 -->
<g id="node13" class="node"><title>10392</title>
<polygon fill="#924f6d" stroke="#924f6d" points="674.037,-252 620.037,-252 620.037,-216 674.037,-216 674.037,-252"/>
<text text-anchor="middle" x="647.037" y="-230.3" font-family="Times New Roman,serif" font-size="14.00">10392</text>
</g>
<!-- 1125&#45;&#45;10392 -->
<g id="edge14" class="edge"><title>1125&#45;&#45;10392</title>
<path fill="none" stroke="black" d="M561.255,-375.149C593.424,-371.335 645.655,-359.669 670.037,-324 684.986,-302.129 670.877,-271.2 659.109,-252.156"/>
</g>
<!-- 1126&#45;&#45;1128 -->
<g id="edge15" class="edge"><title>1126&#45;&#45;1128</title>
<path fill="none" stroke="black" d="M296.153,-296.818C327.543,-287.11 380.621,-269.964 425.037,-252 427.856,-250.86 430.77,-249.609 433.662,-248.32"/>
</g>
<!-- 1126&#45;&#45;1130 -->
<g id="edge16" class="edge"><title>1126&#45;&#45;1130</title>
<path fill="none" stroke="black" d="M278.763,-287.889C291.121,-267.695 314.337,-234.528 343.037,-216 395.185,-182.335 468.599,-169.823 507.818,-165.351"/>
</g>
<!-- 1126&#45;&#45;1132 -->
<g id="edge17" class="edge"><title>1126&#45;&#45;1132</title>
<path fill="none" stroke="black" d="M268.749,-287.782C269.124,-255.731 274.336,-186.336 310.037,-144 333.583,-116.078 374.78,-102.292 401.987,-95.9197"/>
</g>
<!-- 1126&#45;&#45;1134 -->
<g id="edge18" class="edge"><title>1126&#45;&#45;1134</title>
<path fill="none" stroke="black" d="M265.671,-287.863C260.469,-256.248 254.051,-187.969 285.037,-144 318.268,-96.8443 339.03,-92.2803 393.037,-72 527.804,-21.3929 703.6,-17.7524 770.036,-18.3877"/>
</g>
<!-- 1128&#45;&#45;1130 -->
<g id="edge19" class="edge"><title>1128&#45;&#45;1130</title>
<path fill="none" stroke="black" d="M479.329,-215.697C490.799,-204.846 505.525,-190.917 516.955,-180.104"/>
</g>
<!-- 1130&#45;&#45;1132 -->
<g id="edge20" class="edge"><title>1130&#45;&#45;1132</title>
<path fill="none" stroke="black" d="M509.106,-143.876C492.68,-133.029 471.512,-119.05 455.067,-108.19"/>
</g>
<!-- 1130&#45;&#45;1134 -->
<g id="edge21" class="edge"><title>1130&#45;&#45;1134</title>
<path fill="none" stroke="black" d="M562.088,-146.338C612.294,-119.128 719.35,-61.1052 769.74,-33.7946"/>
</g>
<!-- 1132&#45;&#45;1134 -->
<g id="edge22" class="edge"><title>1132&#45;&#45;1134</title>
<path fill="none" stroke="black" d="M456.097,-83.8527C524.151,-70.9076 701.84,-37.108 769.937,-24.1548"/>
</g>
<!-- 3138&#45;&#45;1130 -->
<g id="edge23" class="edge"><title>3138&#45;&#45;1130</title>
<path fill="none" stroke="black" d="M558.78,-287.871C553.59,-260.578 543.502,-207.52 538.305,-180.189"/>
</g>
<!-- 10391&#45;&#45;1130 -->
<g id="edge25" class="edge"><title>10391&#45;&#45;1130</title>
<path fill="none" stroke="black" d="M622.095,-287.871C603.067,-260.578 566.076,-207.52 547.021,-180.189"/>
</g>
<!-- 10391&#45;&#45;10392 -->
<g id="edge24" class="edge"><title>10391&#45;&#45;10392</title>
<path fill="none" stroke="black" d="M637.25,-287.697C639.265,-276.846 641.852,-262.917 643.86,-252.104"/>
</g>
<!-- 10392&#45;&#45;1130 -->
<g id="edge26" class="edge"><title>10392&#45;&#45;1130</title>
<path fill="none" stroke="black" d="M619.925,-216.055C602.445,-205.13 579.794,-190.973 562.287,-180.032"/>
</g>
<!-- 1135 -->
<g id="node14" class="node"><title>1135</title>
<polygon fill="#95634e" stroke="#95634e" points="860.037,-180 806.037,-180 806.037,-144 860.037,-144 860.037,-180"/>
<text text-anchor="middle" x="833.037" y="-158.3" font-family="Times New Roman,serif" font-size="14.00">1135</text>
</g>
<!-- 1135&#45;&#45;1134 -->
<g id="edge28" class="edge"><title>1135&#45;&#45;1134</title>
<path fill="none" stroke="black" d="M828.694,-143.871C821.775,-116.578 808.324,-63.5205 801.395,-36.1893"/>
</g>
<!-- 1136 -->
<g id="node15" class="node"><title>1136</title>
<polygon fill="#578e55" stroke="#578e55" points="898.037,-108 844.037,-108 844.037,-72 898.037,-72 898.037,-108"/>
<text text-anchor="middle" x="871.037" y="-86.3" font-family="Times New Roman,serif" font-size="14.00">1136</text>
</g>
<!-- 1135&#45;&#45;1136 -->
<g id="edge27" class="edge"><title>1135&#45;&#45;1136</title>
<path fill="none" stroke="black" d="M842.43,-143.697C848.32,-132.846 855.882,-118.917 861.751,-108.104"/>
</g>
<!-- 1136&#45;&#45;1134 -->
<g id="edge29" class="edge"><title>1136&#45;&#45;1134</title>
<path fill="none" stroke="black" d="M852.745,-71.6966C841.274,-60.8463 826.549,-46.9167 815.118,-36.1043"/>
</g>
<!-- 1149 -->
<g id="node16" class="node"><title>1149</title>
<ellipse fill="#538548" stroke="#538548" cx="721.037" cy="-234" rx="28.6953" ry="18"/>
<text text-anchor="middle" x="721.037" y="-230.3" font-family="Times New Roman,serif" font-size="14.00">1149</text>
</g>
<!-- 1149&#45;&#45;1130 -->
<g id="edge30" class="edge"><title>1149&#45;&#45;1130</title>
<path fill="none" stroke="black" d="M698.654,-222.644C693.552,-220.38 688.133,-218.049 683.037,-216 641.381,-199.253 592.15,-182.144 562.278,-172.054"/>
</g>
<!-- 2267 -->
<g id="node17" class="node"><title>2267</title>
<ellipse fill="none" stroke="black" cx="1055.04" cy="-378" rx="28.6953" ry="18"/>
<text text-anchor="middle" x="1055.04" y="-374.3" font-family="Times New Roman,serif" font-size="14.00">2267</text>
</g>
<!-- 2268 -->
<g id="node18" class="node"><title>2268</title>
<ellipse fill="none" stroke="black" cx="1055.04" cy="-306" rx="28.6953" ry="18"/>
<text text-anchor="middle" x="1055.04" y="-302.3" font-family="Times New Roman,serif" font-size="14.00">2268</text>
</g>
<!-- 2267&#45;&#45;2268 -->
<g id="edge31" class="edge"><title>2267&#45;&#45;2268</title>
<path fill="none" stroke="black" d="M1055.04,-359.697C1055.04,-348.846 1055.04,-334.917 1055.04,-324.104"/>
</g>
<!-- 2270 -->
<g id="node19" class="node"><title>2270</title>
<ellipse fill="none" stroke="black" cx="1008.04" cy="-234" rx="28.6953" ry="18"/>
<text text-anchor="middle" x="1008.04" y="-230.3" font-family="Times New Roman,serif" font-size="14.00">2270</text>
</g>
<!-- 2267&#45;&#45;2270 -->
<g id="edge32" class="edge"><title>2267&#45;&#45;2270</title>
<path fill="none" stroke="black" d="M1041.03,-362.031C1032.56,-352.048 1022.4,-338.191 1017.04,-324 1008.09,-300.321 1006.88,-270.714 1007.19,-252.328"/>
</g>
<!-- 2272 -->
<g id="node20" class="node"><title>2272</title>
<ellipse fill="none" stroke="black" cx="1065.04" cy="-162" rx="28.6953" ry="18"/>
<text text-anchor="middle" x="1065.04" y="-158.3" font-family="Times New Roman,serif" font-size="14.00">2272</text>
</g>
<!-- 2267&#45;&#45;2272 -->
<g id="edge33" class="edge"><title>2267&#45;&#45;2272</title>
<path fill="none" stroke="black" d="M1069.54,-362.203C1078.2,-352.288 1088.39,-338.444 1093.04,-324 1109.53,-272.681 1086.12,-208.853 1072.95,-179.353"/>
</g>
<!-- 2268&#45;&#45;2270 -->
<g id="edge34" class="edge"><title>2268&#45;&#45;2270</title>
<path fill="none" stroke="black" d="M1044.37,-289.116C1036.68,-277.66 1026.34,-262.263 1018.66,-250.821"/>
</g>
<!-- 2268&#45;&#45;2272 -->
<g id="edge35" class="edge"><title>2268&#45;&#45;2272</title>
<path fill="none" stroke="black" d="M1056.24,-287.871C1058.16,-260.578 1061.9,-207.52 1063.83,-180.189"/>
</g>
<!-- 2270&#45;&#45;2272 -->
<g id="edge36" class="edge"><title>2270&#45;&#45;2272</title>
<path fill="none" stroke="black" d="M1020.69,-217.465C1030.13,-205.865 1042.98,-190.082 1052.42,-178.492"/>
</g>
<!-- 3253 -->
<g id="node21" class="node"><title>3253</title>
<ellipse fill="none" stroke="black" cx="1169.04" cy="-378" rx="28.6953" ry="18"/>
<text text-anchor="middle" x="1169.04" y="-374.3" font-family="Times New Roman,serif" font-size="14.00">3253</text>
</g>
<!-- 3254 -->
<g id="node22" class="node"><title>3254</title>
<ellipse fill="none" stroke="black" cx="1169.04" cy="-306" rx="28.6953" ry="18"/>
<text text-anchor="middle" x="1169.04" y="-302.3" font-family="Times New Roman,serif" font-size="14.00">3254</text>
</g>
<!-- 3253&#45;&#45;3254 -->
<g id="edge37" class="edge"><title>3253&#45;&#45;3254</title>
<path fill="none" stroke="black" d="M1169.04,-359.697C1169.04,-348.846 1169.04,-334.917 1169.04,-324.104"/>
</g>
<!-- 3269 -->
<g id="node23" class="node"><title>3269</title>
<ellipse fill="#578e55" stroke="#578e55" cx="907.037" cy="-162" rx="28.6953" ry="18"/>
<text text-anchor="middle" x="907.037" y="-158.3" font-family="Times New Roman,serif" font-size="14.00">3269</text>
</g>
<!-- 3269&#45;&#45;1136 -->
<g id="edge38" class="edge"><title>3269&#45;&#45;1136</title>
<path fill="none" stroke="black" d="M898.687,-144.765C893.037,-133.779 885.587,-119.292 879.843,-108.124"/>
</g>
<!-- 4079 -->
<g id="node24" class="node"><title>4079</title>
<ellipse fill="none" stroke="black" cx="1244.04" cy="-378" rx="28.6953" ry="18"/>
<text text-anchor="middle" x="1244.04" y="-374.3" font-family="Times New Roman,serif" font-size="14.00">4079</text>
</g>
<!-- 4080 -->
<g id="node25" class="node"><title>4080</title>
<ellipse fill="none" stroke="black" cx="1244.04" cy="-306" rx="28.6953" ry="18"/>
<text text-anchor="middle" x="1244.04" y="-302.3" font-family="Times New Roman,serif" font-size="14.00">4080</text>
</g>
<!-- 4079&#45;&#45;4080 -->
<g id="edge39" class="edge"><title>4079&#45;&#45;4080</title>
<path fill="none" stroke="black" d="M1244.04,-359.697C1244.04,-348.846 1244.04,-334.917 1244.04,-324.104"/>
</g>
<!-- 4735 -->
<g id="node26" class="node"><title>4735</title>
<ellipse fill="none" stroke="black" cx="1319.04" cy="-378" rx="28.6953" ry="18"/>
<text text-anchor="middle" x="1319.04" y="-374.3" font-family="Times New Roman,serif" font-size="14.00">4735</text>
</g>
<!-- 4736 -->
<g id="node27" class="node"><title>4736</title>
<ellipse fill="none" stroke="black" cx="1319.04" cy="-306" rx="28.6953" ry="18"/>
<text text-anchor="middle" x="1319.04" y="-302.3" font-family="Times New Roman,serif" font-size="14.00">4736</text>
</g>
<!-- 4735&#45;&#45;4736 -->
<g id="edge40" class="edge"><title>4735&#45;&#45;4736</title>
<path fill="none" stroke="black" d="M1319.04,-359.697C1319.04,-348.846 1319.04,-334.917 1319.04,-324.104"/>
</g>
<!-- 5481 -->
<g id="node28" class="node"><title>5481</title>
<ellipse fill="none" stroke="black" cx="1394.04" cy="-378" rx="28.6953" ry="18"/>
<text text-anchor="middle" x="1394.04" y="-374.3" font-family="Times New Roman,serif" font-size="14.00">5481</text>
</g>
<!-- 5482 -->
<g id="node29" class="node"><title>5482</title>
<ellipse fill="none" stroke="black" cx="1394.04" cy="-306" rx="28.6953" ry="18"/>
<text text-anchor="middle" x="1394.04" y="-302.3" font-family="Times New Roman,serif" font-size="14.00">5482</text>
</g>
<!-- 5481&#45;&#45;5482 -->
<g id="edge41" class="edge"><title>5481&#45;&#45;5482</title>
<path fill="none" stroke="black" d="M1394.04,-359.697C1394.04,-348.846 1394.04,-334.917 1394.04,-324.104"/>
</g>
<!-- 5823 -->
<g id="node30" class="node"><title>5823</title>
<ellipse fill="#7d816d" stroke="#7d816d" cx="43.0367" cy="-306" rx="28.6953" ry="18"/>
<text text-anchor="middle" x="43.0367" y="-302.3" font-family="Times New Roman,serif" font-size="14.00">5823</text>
</g>
<!-- 5823&#45;&#45;130 -->
<g id="edge42" class="edge"><title>5823&#45;&#45;130</title>
<path fill="none" stroke="black" d="M45.4574,-288.055C47.0065,-277.211 49.0106,-263.183 50.5688,-252.275"/>
</g>
<!-- 7569 -->
<g id="node31" class="node"><title>7569</title>
<ellipse fill="none" stroke="black" cx="1469.04" cy="-378" rx="28.6953" ry="18"/>
<text text-anchor="middle" x="1469.04" y="-374.3" font-family="Times New Roman,serif" font-size="14.00">7569</text>
</g>
<!-- 7570 -->
<g id="node32" class="node"><title>7570</title>
<ellipse fill="none" stroke="black" cx="1469.04" cy="-306" rx="28.6953" ry="18"/>
<text text-anchor="middle" x="1469.04" y="-302.3" font-family="Times New Roman,serif" font-size="14.00">7570</text>
</g>
<!-- 7569&#45;&#45;7570 -->
<g id="edge43" class="edge"><title>7569&#45;&#45;7570</title>
<path fill="none" stroke="black" d="M1469.04,-359.697C1469.04,-348.846 1469.04,-334.917 1469.04,-324.104"/>
</g>
<!-- 7755 -->
<g id="node33" class="node"><title>7755</title>
<ellipse fill="none" stroke="black" cx="1544.04" cy="-378" rx="28.6953" ry="18"/>
<text text-anchor="middle" x="1544.04" y="-374.3" font-family="Times New Roman,serif" font-size="14.00">7755</text>
</g>
<!-- 7756 -->
<g id="node34" class="node"><title>7756</title>
<ellipse fill="none" stroke="black" cx="1544.04" cy="-306" rx="28.6953" ry="18"/>
<text text-anchor="middle" x="1544.04" y="-302.3" font-family="Times New Roman,serif" font-size="14.00">7756</text>
</g>
<!-- 7755&#45;&#45;7756 -->
<g id="edge44" class="edge"><title>7755&#45;&#45;7756</title>
<path fill="none" stroke="black" d="M1544.04,-359.697C1544.04,-348.846 1544.04,-334.917 1544.04,-324.104"/>
</g>
<!-- 7783 -->
<g id="node35" class="node"><title>7783</title>
<ellipse fill="none" stroke="black" cx="1619.04" cy="-378" rx="28.6953" ry="18"/>
<text text-anchor="middle" x="1619.04" y="-374.3" font-family="Times New Roman,serif" font-size="14.00">7783</text>
</g>
<!-- 7784 -->
<g id="node36" class="node"><title>7784</title>
<ellipse fill="none" stroke="black" cx="1619.04" cy="-306" rx="28.6953" ry="18"/>
<text text-anchor="middle" x="1619.04" y="-302.3" font-family="Times New Roman,serif" font-size="14.00">7784</text>
</g>
<!-- 7783&#45;&#45;7784 -->
<g id="edge45" class="edge"><title>7783&#45;&#45;7784</title>
<path fill="none" stroke="black" d="M1619.04,-359.697C1619.04,-348.846 1619.04,-334.917 1619.04,-324.104"/>
</g>
<!-- 9607 -->
<g id="node37" class="node"><title>9607</title>
<ellipse fill="#3c4655" stroke="#3c4655" cx="269.037" cy="-378" rx="28.6953" ry="18"/>
<text text-anchor="middle" x="269.037" y="-374.3" font-family="Times New Roman,serif" font-size="14.00">9607</text>
</g>
<!-- 9607&#45;&#45;1126 -->
<g id="edge46" class="edge"><title>9607&#45;&#45;1126</title>
<path fill="none" stroke="black" d="M269.037,-359.697C269.037,-348.846 269.037,-334.917 269.037,-324.104"/>
</g>
<!-- 10405 -->
<g id="node38" class="node"><title>10405</title>
<ellipse fill="#8a6c5b" stroke="#8a6c5b" cx="986.037" cy="-162" rx="32.4942" ry="18"/>
<text text-anchor="middle" x="986.037" y="-158.3" font-family="Times New Roman,serif" font-size="14.00">10405</text>
</g>
<!-- 10405&#45;&#45;1134 -->
<g id="edge48" class="edge"><title>10405&#45;&#45;1134</title>
<path fill="none" stroke="black" d="M973.206,-145.089C954.903,-122.655 921.874,-83.2075 907.037,-72 881.495,-52.7068 847.814,-37.734 824.482,-28.6973"/>
</g>
<!-- 10406 -->
<g id="node39" class="node"><title>10406</title>
<ellipse fill="none" stroke="black" cx="986.037" cy="-90" rx="32.4942" ry="18"/>
<text text-anchor="middle" x="986.037" y="-86.3" font-family="Times New Roman,serif" font-size="14.00">10406</text>
</g>
<!-- 10405&#45;&#45;10406 -->
<g id="edge47" class="edge"><title>10405&#45;&#45;10406</title>
<path fill="none" stroke="black" d="M986.037,-143.697C986.037,-132.846 986.037,-118.917 986.037,-108.104"/>
</g>
<!-- 10406&#45;&#45;1134 -->
<g id="edge49" class="edge"><title>10406&#45;&#45;1134</title>
<path fill="none" stroke="black" d="M959.757,-79.2668C924.054,-66.0434 860.532,-42.5167 824.317,-29.1038"/>
</g>
<!-- 10645 -->
<g id="node40" class="node"><title>10645</title>
<ellipse fill="none" stroke="black" cx="1728.04" cy="-378" rx="32.4942" ry="18"/>
<text text-anchor="middle" x="1728.04" y="-374.3" font-family="Times New Roman,serif" font-size="14.00">10645</text>
</g>
<!-- 10646 -->
<g id="node41" class="node"><title>10646</title>
<ellipse fill="none" stroke="black" cx="1698.04" cy="-306" rx="32.4942" ry="18"/>
<text text-anchor="middle" x="1698.04" y="-302.3" font-family="Times New Roman,serif" font-size="14.00">10646</text>
</g>
<!-- 10645&#45;&#45;10646 -->
<g id="edge50" class="edge"><title>10645&#45;&#45;10646</title>
<path fill="none" stroke="black" d="M1720.93,-360.411C1716.21,-349.414 1710.05,-335.027 1705.3,-323.956"/>
</g>
<!-- 10648 -->
<g id="node42" class="node"><title>10648</title>
<ellipse fill="none" stroke="black" cx="1717.04" cy="-234" rx="32.4942" ry="18"/>
<text text-anchor="middle" x="1717.04" y="-230.3" font-family="Times New Roman,serif" font-size="14.00">10648</text>
</g>
<!-- 10645&#45;&#45;10648 -->
<g id="edge51" class="edge"><title>10645&#45;&#45;10648</title>
<path fill="none" stroke="black" d="M1733.3,-360.151C1738.18,-342.164 1744,-312.888 1739.04,-288 1736.51,-275.298 1730.87,-261.83 1725.94,-251.648"/>
</g>
<!-- 10646&#45;&#45;10648 -->
<g id="edge52" class="edge"><title>10646&#45;&#45;10648</title>
<path fill="none" stroke="black" d="M1702.64,-288.055C1705.58,-277.211 1709.39,-263.183 1712.35,-252.275"/>
</g>
<!-- 10863 -->
<g id="node43" class="node"><title>10863</title>
<ellipse fill="#538548" stroke="#538548" cx="384.037" cy="-234" rx="32.4942" ry="18"/>
<text text-anchor="middle" x="384.037" y="-230.3" font-family="Times New Roman,serif" font-size="14.00">10863</text>
</g>
<!-- 10863&#45;&#45;1130 -->
<g id="edge53" class="edge"><title>10863&#45;&#45;1130</title>
<path fill="none" stroke="black" d="M408.297,-221.753C435.559,-209.116 479.695,-188.655 508.031,-175.519"/>
</g>
<!-- 11133 -->
<g id="node44" class="node"><title>11133</title>
<polygon fill="#445c8c" stroke="#445c8c" points="1905.04,-396 1851.04,-396 1851.04,-360 1905.04,-360 1905.04,-396"/>
<text text-anchor="middle" x="1878.04" y="-374.3" font-family="Times New Roman,serif" font-size="14.00">11133</text>
</g>
<!-- 11134 -->
<g id="node45" class="node"><title>11134</title>
<polygon fill="#5e743a" stroke="#5e743a" points="1933.04,-324 1879.04,-324 1879.04,-288 1933.04,-288 1933.04,-324"/>
<text text-anchor="middle" x="1906.04" y="-302.3" font-family="Times New Roman,serif" font-size="14.00">11134</text>
</g>
<!-- 11133&#45;&#45;11134 -->
<g id="edge54" class="edge"><title>11133&#45;&#45;11134</title>
<path fill="none" stroke="black" d="M1884.96,-359.697C1889.3,-348.846 1894.87,-334.917 1899.19,-324.104"/>
</g>
<!-- 11136 -->
<g id="node46" class="node"><title>11136</title>
<polygon fill="#7d4b4e" stroke="#7d4b4e" points="1878.04,-252 1824.04,-252 1824.04,-216 1878.04,-216 1878.04,-252"/>
<text text-anchor="middle" x="1851.04" y="-230.3" font-family="Times New Roman,serif" font-size="14.00">11136</text>
</g>
<!-- 11133&#45;&#45;11136 -->
<g id="edge55" class="edge"><title>11133&#45;&#45;11136</title>
<path fill="none" stroke="black" d="M1874.78,-359.871C1869.59,-332.578 1859.5,-279.52 1854.31,-252.189"/>
</g>
<!-- 11138 -->
<g id="node47" class="node"><title>11138</title>
<polygon fill="#6f756d" stroke="#6f756d" points="1988.04,-180 1934.04,-180 1934.04,-144 1988.04,-144 1988.04,-180"/>
<text text-anchor="middle" x="1961.04" y="-158.3" font-family="Times New Roman,serif" font-size="14.00">11138</text>
</g>
<!-- 11133&#45;&#45;11138 -->
<g id="edge56" class="edge"><title>11133&#45;&#45;11138</title>
<path fill="none" stroke="black" d="M1905.04,-361.569C1918.45,-352.431 1933.56,-339.587 1942.04,-324 1967.59,-277.027 1965.68,-211.094 1963,-180.219"/>
</g>
<!-- 11140 -->
<g id="node48" class="node"><title>11140</title>
<polygon fill="#7e756a" stroke="#7e756a" points="1909.04,-108 1855.04,-108 1855.04,-72 1909.04,-72 1909.04,-108"/>
<text text-anchor="middle" x="1882.04" y="-86.3" font-family="Times New Roman,serif" font-size="14.00">11140</text>
</g>
<!-- 11133&#45;&#45;11140 -->
<g id="edge57" class="edge"><title>11133&#45;&#45;11140</title>
<path fill="none" stroke="black" d="M1863.43,-359.616C1840.86,-330.603 1801.44,-270.147 1815.04,-216 1825.53,-174.209 1852.99,-131.141 1869.31,-108.072"/>
</g>
<!-- 11134&#45;&#45;11136 -->
<g id="edge58" class="edge"><title>11134&#45;&#45;11136</title>
<path fill="none" stroke="black" d="M1892.44,-287.697C1883.92,-276.846 1872.97,-262.917 1864.48,-252.104"/>
</g>
<!-- 11134&#45;&#45;11138 -->
<g id="edge59" class="edge"><title>11134&#45;&#45;11138</title>
<path fill="none" stroke="black" d="M1912.67,-287.871C1923.24,-260.578 1943.79,-207.52 1954.38,-180.189"/>
</g>
<!-- 11134&#45;&#45;11140 -->
<g id="edge60" class="edge"><title>11134&#45;&#45;11140</title>
<path fill="none" stroke="black" d="M1904.11,-287.849C1899.62,-247.78 1888.47,-148.383 1883.97,-108.232"/>
</g>
<!-- 11136&#45;&#45;11138 -->
<g id="edge61" class="edge"><title>11136&#45;&#45;11138</title>
<path fill="none" stroke="black" d="M1877.95,-215.876C1894.99,-205.029 1916.96,-191.05 1934.02,-180.19"/>
</g>
<!-- 11136&#45;&#45;11140 -->
<g id="edge62" class="edge"><title>11136&#45;&#45;11140</title>
<path fill="none" stroke="black" d="M1854.78,-215.871C1860.73,-188.578 1872.32,-135.52 1878.28,-108.189"/>
</g>
<!-- 11138&#45;&#45;11140 -->
<g id="edge63" class="edge"><title>11138&#45;&#45;11140</title>
<path fill="none" stroke="black" d="M1941.51,-143.697C1929.26,-132.846 1913.54,-118.917 1901.34,-108.104"/>
</g>
</g>
</svg>
