<svg width="3418px" height="827px"
 viewBox="0.00 0.00 2563.64 620.00" xmlns="http://www.w3.org/2000/svg" xmlns:xlink="http://www.w3.org/1999/xlink">
<g id="graph0" class="graph" transform="scale(1.000022500562514 1.000022500562514) rotate(0) translate(4 616)">
<title>G</title>
<polygon fill="white" stroke="none" points="-4,4 -4,-616 2559.64,-616 2559.64,4 -4,4"/>
<!-- 133 -->
<g id="node1" class="node"><title>133</title>
<polygon fill="#5c408b" stroke="#5c408b" points="122,-540 68,-540 68,-504 122,-504 122,-540"/>
<text text-anchor="middle" x="95" y="-518.3" font-family="Times New Roman,serif" font-size="14.00">133</text>
</g>
<!-- 134 -->
<g id="node2" class="node"><title>134</title>
<polygon fill="#437877" stroke="#437877" points="136,-396 82,-396 82,-360 136,-360 136,-396"/>
<text text-anchor="middle" x="109" y="-374.3" font-family="Times New Roman,serif" font-size="14.00">134</text>
</g>
<!-- 133&#45;&#45;134 -->
<g id="edge1" class="edge"><title>133&#45;&#45;134</title>
<path fill="none" stroke="black" d="M90.5693,-503.783C86.5961,-485.741 82.0877,-456.647 87,-432 89.4925,-419.494 94.9925,-406.244 99.8694,-396.12"/>
</g>
<!-- 11162 -->
<g id="node6" class="node"><title>11162</title>
<polygon fill="#345e52" stroke="#345e52" points="150,-468 96,-468 96,-432 150,-432 150,-468"/>
<text text-anchor="middle" x="123" y="-446.3" font-family="Times New Roman,serif" font-size="14.00">11162</text>
</g>
<!-- 133&#45;&#45;11162 -->
<g id="edge2" class="edge"><title>133&#45;&#45;11162</title>
<path fill="none" stroke="black" d="M101.921,-503.697C106.261,-492.846 111.833,-478.917 116.158,-468.104"/>
</g>
<!-- 6164 -->
<g id="node3" class="node"><title>6164</title>
<polygon fill="#635645" stroke="#635645" points="198,-324 144,-324 144,-288 198,-288 198,-324"/>
<text text-anchor="middle" x="171" y="-302.3" font-family="Times New Roman,serif" font-size="14.00">6164</text>
</g>
<!-- 134&#45;&#45;6164 -->
<g id="edge3" class="edge"><title>134&#45;&#45;6164</title>
<path fill="none" stroke="black" d="M124.326,-359.697C133.936,-348.846 146.274,-334.917 155.85,-324.104"/>
</g>
<!-- 10236 -->
<g id="node4" class="node"><title>10236</title>
<polygon fill="#927932" stroke="#927932" points="54,-324 0,-324 0,-288 54,-288 54,-324"/>
<text text-anchor="middle" x="27" y="-302.3" font-family="Times New Roman,serif" font-size="14.00">10236</text>
</g>
<!-- 134&#45;&#45;10236 -->
<g id="edge4" class="edge"><title>134&#45;&#45;10236</title>
<path fill="none" stroke="black" d="M88.7303,-359.697C76.0199,-348.846 59.7024,-334.917 47.0365,-324.104"/>
</g>
<!-- 11020 -->
<g id="node5" class="node"><title>11020</title>
<polygon fill="#919265" stroke="#919265" points="126,-324 72,-324 72,-288 126,-288 126,-324"/>
<text text-anchor="middle" x="99" y="-302.3" font-family="Times New Roman,serif" font-size="14.00">11020</text>
</g>
<!-- 134&#45;&#45;11020 -->
<g id="edge5" class="edge"><title>134&#45;&#45;11020</title>
<path fill="none" stroke="black" d="M106.528,-359.697C104.978,-348.846 102.988,-334.917 101.443,-324.104"/>
</g>
<!-- 11162&#45;&#45;134 -->
<g id="edge6" class="edge"><title>11162&#45;&#45;134</title>
<path fill="none" stroke="black" d="M119.539,-431.697C117.369,-420.846 114.583,-406.917 112.421,-396.104"/>
</g>
<!-- 223 -->
<g id="node7" class="node"><title>223</title>
<polygon fill="#3e6d3e" stroke="#3e6d3e" points="1389,-612 1335,-612 1335,-576 1389,-576 1389,-612"/>
<text text-anchor="middle" x="1362" y="-590.3" font-family="Times New Roman,serif" font-size="14.00">223</text>
</g>
<!-- 224 -->
<g id="node8" class="node"><title>224</title>
<polygon fill="#3a383a" stroke="#3a383a" points="1389,-540 1335,-540 1335,-504 1389,-504 1389,-540"/>
<text text-anchor="middle" x="1362" y="-518.3" font-family="Times New Roman,serif" font-size="14.00">224</text>
</g>
<!-- 223&#45;&#45;224 -->
<g id="edge7" class="edge"><title>223&#45;&#45;224</title>
<path fill="none" stroke="black" d="M1362,-575.697C1362,-564.846 1362,-550.917 1362,-540.104"/>
</g>
<!-- 1241 -->
<g id="node9" class="node"><title>1241</title>
<polygon fill="#4d5874" stroke="#4d5874" points="249,-468 195,-468 195,-432 249,-432 249,-468"/>
<text text-anchor="middle" x="222" y="-446.3" font-family="Times New Roman,serif" font-size="14.00">1241</text>
</g>
<!-- 1241&#45;&#45;134 -->
<g id="edge10" class="edge"><title>1241&#45;&#45;134</title>
<path fill="none" stroke="black" d="M194.934,-432.233C177.174,-421.232 154.031,-406.895 136.237,-395.873"/>
</g>
<!-- 1242 -->
<g id="node10" class="node"><title>1242</title>
<polygon fill="#7f867b" stroke="#7f867b" points="308,-396 254,-396 254,-360 308,-360 308,-396"/>
<text text-anchor="middle" x="281" y="-374.3" font-family="Times New Roman,serif" font-size="14.00">1242</text>
</g>
<!-- 1241&#45;&#45;1242 -->
<g id="edge8" class="edge"><title>1241&#45;&#45;1242</title>
<path fill="none" stroke="black" d="M236.584,-431.697C245.73,-420.846 257.47,-406.917 266.583,-396.104"/>
</g>
<!-- 5338 -->
<g id="node11" class="node"><title>5338</title>
<polygon fill="#398084" stroke="#398084" points="574,-252 520,-252 520,-216 574,-216 574,-252"/>
<text text-anchor="middle" x="547" y="-230.3" font-family="Times New Roman,serif" font-size="14.00">5338</text>
</g>
<!-- 1241&#45;&#45;5338 -->
<g id="edge9" class="edge"><title>1241&#45;&#45;5338</title>
<path fill="none" stroke="black" d="M222.049,-431.853C223.001,-412.24 227.409,-380.234 245,-360 319.086,-274.78 460.479,-246.518 519.77,-238.157"/>
</g>
<!-- 6734 -->
<g id="node12" class="node"><title>6734</title>
<polygon fill="#7c7e62" stroke="#7c7e62" points="464,-180 410,-180 410,-144 464,-144 464,-180"/>
<text text-anchor="middle" x="437" y="-158.3" font-family="Times New Roman,serif" font-size="14.00">6734</text>
</g>
<!-- 5338&#45;&#45;6734 -->
<g id="edge11" class="edge"><title>5338&#45;&#45;6734</title>
<path fill="none" stroke="black" d="M520.091,-215.876C503.045,-205.029 481.078,-191.05 464.012,-180.19"/>
</g>
<!-- 6736 -->
<g id="node13" class="node"><title>6736</title>
<polygon fill="#605b99" stroke="#605b99" points="574,-108 520,-108 520,-72 574,-72 574,-108"/>
<text text-anchor="middle" x="547" y="-86.3" font-family="Times New Roman,serif" font-size="14.00">6736</text>
</g>
<!-- 5338&#45;&#45;6736 -->
<g id="edge12" class="edge"><title>5338&#45;&#45;6736</title>
<path fill="none" stroke="black" d="M547,-215.871C547,-188.578 547,-135.52 547,-108.189"/>
</g>
<!-- 1385 -->
<g id="node14" class="node"><title>1385</title>
<polygon fill="#4e6c64" stroke="#4e6c64" points="979,-180 925,-180 925,-144 979,-144 979,-180"/>
<text text-anchor="middle" x="952" y="-158.3" font-family="Times New Roman,serif" font-size="14.00">1385</text>
</g>
<!-- 5338&#45;&#45;1385 -->
<g id="edge13" class="edge"><title>5338&#45;&#45;1385</title>
<path fill="none" stroke="black" d="M574.202,-228.298C647.982,-215.546 851.275,-180.409 924.916,-167.681"/>
</g>
<!-- 2552 -->
<g id="node17" class="node"><title>2552</title>
<polygon fill="#3a9a5d" stroke="#3a9a5d" points="814,-108 760,-108 760,-72 814,-72 814,-108"/>
<text text-anchor="middle" x="787" y="-86.3" font-family="Times New Roman,serif" font-size="14.00">2552</text>
</g>
<!-- 5338&#45;&#45;2552 -->
<g id="edge14" class="edge"><title>5338&#45;&#45;2552</title>
<path fill="none" stroke="black" d="M574.065,-216.987C620.158,-189.715 713.389,-134.553 759.666,-107.173"/>
</g>
<!-- 6734&#45;&#45;6736 -->
<g id="edge15" class="edge"><title>6734&#45;&#45;6736</title>
<path fill="none" stroke="black" d="M463.909,-143.876C480.955,-133.029 502.922,-119.05 519.988,-108.19"/>
</g>
<!-- 1386 -->
<g id="node15" class="node"><title>1386</title>
<polygon fill="#979697" stroke="#979697" points="1006,-108 952,-108 952,-72 1006,-72 1006,-108"/>
<text text-anchor="middle" x="979" y="-86.3" font-family="Times New Roman,serif" font-size="14.00">1386</text>
</g>
<!-- 1385&#45;&#45;1386 -->
<g id="edge16" class="edge"><title>1385&#45;&#45;1386</title>
<path fill="none" stroke="black" d="M958.674,-143.697C962.859,-132.846 968.232,-118.917 972.403,-108.104"/>
</g>
<!-- 1388 -->
<g id="node16" class="node"><title>1388</title>
<polygon fill="#8b5243" stroke="#8b5243" points="978,-36 924,-36 924,-0 978,-0 978,-36"/>
<text text-anchor="middle" x="951" y="-14.3" font-family="Times New Roman,serif" font-size="14.00">1388</text>
</g>
<!-- 1385&#45;&#45;1388 -->
<g id="edge17" class="edge"><title>1385&#45;&#45;1388</title>
<path fill="none" stroke="black" d="M948.346,-143.908C946.324,-133.569 944.019,-120.09 943,-108 941.656,-92.0566 941.803,-87.9551 943,-72 943.905,-59.9366 945.954,-46.4578 947.752,-36.1119"/>
</g>
<!-- 1385&#45;&#45;2552 -->
<g id="edge18" class="edge"><title>1385&#45;&#45;2552</title>
<path fill="none" stroke="black" d="M924.754,-149.441C894.09,-136.432 844.58,-115.428 814.013,-102.46"/>
</g>
<!-- 11038 -->
<g id="node18" class="node"><title>11038</title>
<polygon fill="#898b35" stroke="#898b35" points="1186,-108 1132,-108 1132,-72 1186,-72 1186,-108"/>
<text text-anchor="middle" x="1159" y="-86.3" font-family="Times New Roman,serif" font-size="14.00">11038</text>
</g>
<!-- 1385&#45;&#45;11038 -->
<g id="edge19" class="edge"><title>1385&#45;&#45;11038</title>
<path fill="none" stroke="black" d="M979.062,-151.849C1018.73,-138.433 1092.26,-113.57 1131.93,-100.154"/>
</g>
<!-- 1386&#45;&#45;1388 -->
<g id="edge20" class="edge"><title>1386&#45;&#45;1388</title>
<path fill="none" stroke="black" d="M972.079,-71.6966C967.739,-60.8463 962.167,-46.9167 957.842,-36.1043"/>
</g>
<!-- 1243 -->
<g id="node19" class="node"><title>1243</title>
<polygon fill="#614044" stroke="#614044" points="431,-468 377,-468 377,-432 431,-432 431,-468"/>
<text text-anchor="middle" x="404" y="-446.3" font-family="Times New Roman,serif" font-size="14.00">1243</text>
</g>
<!-- 1243&#45;&#45;1242 -->
<g id="edge21" class="edge"><title>1243&#45;&#45;1242</title>
<path fill="none" stroke="black" d="M376.702,-433.465C356.319,-421.865 328.586,-406.082 308.221,-394.492"/>
</g>
<!-- 4140 -->
<g id="node20" class="node"><title>4140</title>
<polygon fill="#7e377c" stroke="#7e377c" points="380,-396 326,-396 326,-360 380,-360 380,-396"/>
<text text-anchor="middle" x="353" y="-374.3" font-family="Times New Roman,serif" font-size="14.00">4140</text>
</g>
<!-- 1243&#45;&#45;4140 -->
<g id="edge22" class="edge"><title>1243&#45;&#45;4140</title>
<path fill="none" stroke="black" d="M391.393,-431.697C383.488,-420.846 373.339,-406.917 365.462,-396.104"/>
</g>
<!-- 1967 -->
<g id="node21" class="node"><title>1967</title>
<polygon fill="#51893f" stroke="#51893f" points="1461,-612 1407,-612 1407,-576 1461,-576 1461,-612"/>
<text text-anchor="middle" x="1434" y="-590.3" font-family="Times New Roman,serif" font-size="14.00">1967</text>
</g>
<!-- 1968 -->
<g id="node22" class="node"><title>1968</title>
<polygon fill="#469a70" stroke="#469a70" points="1461,-540 1407,-540 1407,-504 1461,-504 1461,-540"/>
<text text-anchor="middle" x="1434" y="-518.3" font-family="Times New Roman,serif" font-size="14.00">1968</text>
</g>
<!-- 1967&#45;&#45;1968 -->
<g id="edge23" class="edge"><title>1967&#45;&#45;1968</title>
<path fill="none" stroke="black" d="M1434,-575.697C1434,-564.846 1434,-550.917 1434,-540.104"/>
</g>
<!-- 2357 -->
<g id="node23" class="node"><title>2357</title>
<polygon fill="#3a6256" stroke="#3a6256" points="359,-468 305,-468 305,-432 359,-432 359,-468"/>
<text text-anchor="middle" x="332" y="-446.3" font-family="Times New Roman,serif" font-size="14.00">2357</text>
</g>
<!-- 2357&#45;&#45;1242 -->
<g id="edge24" class="edge"><title>2357&#45;&#45;1242</title>
<path fill="none" stroke="black" d="M319.393,-431.697C311.488,-420.846 301.339,-406.917 293.462,-396.104"/>
</g>
<!-- 4139 -->
<g id="node24" class="node"><title>4139</title>
<polygon fill="#3f6583" stroke="#3f6583" points="724,-540 670,-540 670,-504 724,-504 724,-540"/>
<text text-anchor="middle" x="697" y="-518.3" font-family="Times New Roman,serif" font-size="14.00">4139</text>
</g>
<!-- 4139&#45;&#45;1242 -->
<g id="edge27" class="edge"><title>4139&#45;&#45;1242</title>
<path fill="none" stroke="black" d="M669.994,-521.425C588.849,-522.11 349.499,-519.63 296,-468 276.832,-449.502 276.507,-416.325 278.452,-396.121"/>
</g>
<!-- 4139&#45;&#45;1385 -->
<g id="edge31" class="edge"><title>4139&#45;&#45;1385</title>
<path fill="none" stroke="black" d="M693.155,-503.612C687.603,-476.942 678,-424.268 678,-379 678,-379 678,-379 678,-305 678,-194.629 855.421,-169.938 924.726,-164.504"/>
</g>
<!-- 4139&#45;&#45;1243 -->
<g id="edge32" class="edge"><title>4139&#45;&#45;1243</title>
<path fill="none" stroke="black" d="M669.728,-516.971C623.037,-509.696 525.078,-492.786 445,-468 440.436,-466.587 435.678,-464.862 431.087,-463.058"/>
</g>
<!-- 4139&#45;&#45;4140 -->
<g id="edge25" class="edge"><title>4139&#45;&#45;4140</title>
<path fill="none" stroke="black" d="M669.781,-518.939C626.707,-514.716 541.238,-502.376 478,-468 457.56,-456.889 458.481,-446.13 440,-432 421.032,-417.498 397.876,-403.552 380.223,-393.609"/>
</g>
<!-- 5802 -->
<g id="node25" class="node"><title>5802</title>
<polygon fill="#503d9a" stroke="#503d9a" points="979,-252 925,-252 925,-216 979,-216 979,-252"/>
<text text-anchor="middle" x="952" y="-230.3" font-family="Times New Roman,serif" font-size="14.00">5802</text>
</g>
<!-- 4139&#45;&#45;5802 -->
<g id="edge26" class="edge"><title>4139&#45;&#45;5802</title>
<path fill="none" stroke="black" d="M698.36,-503.907C701.656,-472.366 712.539,-404.203 747,-360 794.542,-299.017 880.822,-260.779 924.738,-244.344"/>
</g>
<!-- 6128 -->
<g id="node26" class="node"><title>6128</title>
<polygon fill="#405580" stroke="#405580" points="946,-468 892,-468 892,-432 946,-432 946,-468"/>
<text text-anchor="middle" x="919" y="-446.3" font-family="Times New Roman,serif" font-size="14.00">6128</text>
</g>
<!-- 4139&#45;&#45;6128 -->
<g id="edge28" class="edge"><title>4139&#45;&#45;6128</title>
<path fill="none" stroke="black" d="M724.222,-512.417C766.945,-498.945 849.257,-472.991 891.903,-459.544"/>
</g>
<!-- 6130 -->
<g id="node27" class="node"><title>6130</title>
<polygon fill="#8f6e4f" stroke="#8f6e4f" points="836,-396 782,-396 782,-360 836,-360 836,-396"/>
<text text-anchor="middle" x="809" y="-374.3" font-family="Times New Roman,serif" font-size="14.00">6130</text>
</g>
<!-- 4139&#45;&#45;6130 -->
<g id="edge29" class="edge"><title>4139&#45;&#45;6130</title>
<path fill="none" stroke="black" d="M724.243,-505.307C738.689,-495.93 755.901,-482.943 768,-468 785.771,-446.052 797.734,-415.146 803.95,-396.128"/>
</g>
<!-- 5927 -->
<g id="node28" class="node"><title>5927</title>
<polygon fill="#6c7691" stroke="#6c7691" points="929,-324 875,-324 875,-288 929,-288 929,-324"/>
<text text-anchor="middle" x="902" y="-302.3" font-family="Times New Roman,serif" font-size="14.00">5927</text>
</g>
<!-- 4139&#45;&#45;5927 -->
<g id="edge30" class="edge"><title>4139&#45;&#45;5927</title>
<path fill="none" stroke="black" d="M708.807,-503.787C715.492,-493.633 723.742,-480.383 730,-468 753.302,-421.889 736.668,-396.731 773,-360 800.924,-331.769 846.012,-317.958 874.813,-311.677"/>
</g>
<!-- 5802&#45;&#45;1385 -->
<g id="edge33" class="edge"><title>5802&#45;&#45;1385</title>
<path fill="none" stroke="black" d="M952,-215.697C952,-204.846 952,-190.917 952,-180.104"/>
</g>
<!-- 6128&#45;&#45;1385 -->
<g id="edge36" class="edge"><title>6128&#45;&#45;1385</title>
<path fill="none" stroke="black" d="M946.17,-444.61C972.952,-438.681 1012.47,-425.262 1031,-396 1077.04,-323.281 1001.66,-220.685 967.477,-180.297"/>
</g>
<!-- 6128&#45;&#45;11038 -->
<g id="edge37" class="edge"><title>6128&#45;&#45;11038</title>
<path fill="none" stroke="black" d="M946.167,-444.996C975.996,-439.224 1023.44,-425.779 1052,-396 1133.96,-310.545 1153.5,-158.759 1157.84,-108.038"/>
</g>
<!-- 6128&#45;&#45;6130 -->
<g id="edge34" class="edge"><title>6128&#45;&#45;6130</title>
<path fill="none" stroke="black" d="M892.091,-431.876C875.045,-421.029 853.078,-407.05 836.012,-396.19"/>
</g>
<!-- 6128&#45;&#45;5927 -->
<g id="edge35" class="edge"><title>6128&#45;&#45;5927</title>
<path fill="none" stroke="black" d="M916.949,-431.871C913.682,-404.578 907.33,-351.52 904.058,-324.189"/>
</g>
<!-- 6130&#45;&#45;1385 -->
<g id="edge39" class="edge"><title>6130&#45;&#45;1385</title>
<path fill="none" stroke="black" d="M817.466,-359.791C832.711,-329.489 866.599,-265.164 903,-216 912.396,-203.31 924.413,-190.273 934.194,-180.304"/>
</g>
<!-- 6130&#45;&#45;5927 -->
<g id="edge38" class="edge"><title>6130&#45;&#45;5927</title>
<path fill="none" stroke="black" d="M831.989,-359.697C846.404,-348.846 864.911,-334.917 879.276,-324.104"/>
</g>
<!-- 5927&#45;&#45;1385 -->
<g id="edge40" class="edge"><title>5927&#45;&#45;1385</title>
<path fill="none" stroke="black" d="M902.491,-287.685C903.516,-269.309 906.63,-239.711 916,-216 921.151,-202.965 929.952,-189.923 937.563,-180.037"/>
</g>
<!-- 5927&#45;&#45;11038 -->
<g id="edge42" class="edge"><title>5927&#45;&#45;11038</title>
<path fill="none" stroke="black" d="M929.269,-290.101C946.657,-280.145 969.345,-266.293 988,-252 1049.5,-204.881 1113.9,-139.018 1143.03,-108.19"/>
</g>
<!-- 5927&#45;&#45;5802 -->
<g id="edge41" class="edge"><title>5927&#45;&#45;5802</title>
<path fill="none" stroke="black" d="M914.36,-287.697C922.11,-276.846 932.059,-262.917 939.783,-252.104"/>
</g>
<!-- 4485 -->
<g id="node29" class="node"><title>4485</title>
<polygon fill="#515961" stroke="#515961" points="1533,-612 1479,-612 1479,-576 1533,-576 1533,-612"/>
<text text-anchor="middle" x="1506" y="-590.3" font-family="Times New Roman,serif" font-size="14.00">4485</text>
</g>
<!-- 4486 -->
<g id="node30" class="node"><title>4486</title>
<polygon fill="#604e72" stroke="#604e72" points="1533,-540 1479,-540 1479,-504 1533,-504 1533,-540"/>
<text text-anchor="middle" x="1506" y="-518.3" font-family="Times New Roman,serif" font-size="14.00">4486</text>
</g>
<!-- 4485&#45;&#45;4486 -->
<g id="edge43" class="edge"><title>4485&#45;&#45;4486</title>
<path fill="none" stroke="black" d="M1506,-575.697C1506,-564.846 1506,-550.917 1506,-540.104"/>
</g>
<!-- 4803 -->
<g id="node31" class="node"><title>4803</title>
<polygon fill="#95423f" stroke="#95423f" points="1717,-612 1663,-612 1663,-576 1717,-576 1717,-612"/>
<text text-anchor="middle" x="1690" y="-590.3" font-family="Times New Roman,serif" font-size="14.00">4803</text>
</g>
<!-- 4804 -->
<g id="node32" class="node"><title>4804</title>
<polygon fill="#4d7943" stroke="#4d7943" points="1662,-540 1608,-540 1608,-504 1662,-504 1662,-540"/>
<text text-anchor="middle" x="1635" y="-518.3" font-family="Times New Roman,serif" font-size="14.00">4804</text>
</g>
<!-- 4803&#45;&#45;4804 -->
<g id="edge44" class="edge"><title>4803&#45;&#45;4804</title>
<path fill="none" stroke="black" d="M1676.4,-575.697C1667.88,-564.846 1656.93,-550.917 1648.44,-540.104"/>
</g>
<!-- 4806 -->
<g id="node33" class="node"><title>4806</title>
<polygon fill="#839b67" stroke="#839b67" points="1681,-468 1627,-468 1627,-432 1681,-432 1681,-468"/>
<text text-anchor="middle" x="1654" y="-446.3" font-family="Times New Roman,serif" font-size="14.00">4806</text>
</g>
<!-- 4803&#45;&#45;4806 -->
<g id="edge45" class="edge"><title>4803&#45;&#45;4806</title>
<path fill="none" stroke="black" d="M1686.86,-575.817C1683.45,-557.803 1677.59,-528.733 1671,-504 1667.77,-491.861 1663.43,-478.384 1659.95,-468.057"/>
</g>
<!-- 4808 -->
<g id="node34" class="node"><title>4808</title>
<polygon fill="#923f35" stroke="#923f35" points="1766,-396 1712,-396 1712,-360 1766,-360 1766,-396"/>
<text text-anchor="middle" x="1739" y="-374.3" font-family="Times New Roman,serif" font-size="14.00">4808</text>
</g>
<!-- 4803&#45;&#45;4808 -->
<g id="edge46" class="edge"><title>4803&#45;&#45;4808</title>
<path fill="none" stroke="black" d="M1693.93,-575.849C1703.1,-535.78 1725.86,-436.383 1735.05,-396.232"/>
</g>
<!-- 4810 -->
<g id="node35" class="node"><title>4810</title>
<polygon fill="#9b5c83" stroke="#9b5c83" points="1653,-324 1599,-324 1599,-288 1653,-288 1653,-324"/>
<text text-anchor="middle" x="1626" y="-302.3" font-family="Times New Roman,serif" font-size="14.00">4810</text>
</g>
<!-- 4803&#45;&#45;4810 -->
<g id="edge47" class="edge"><title>4803&#45;&#45;4810</title>
<path fill="none" stroke="black" d="M1662.71,-585.341C1641.18,-577.697 1612.58,-563.618 1599,-540 1558.01,-468.684 1598.52,-364.843 1617.43,-324.209"/>
</g>
<!-- 4812 -->
<g id="node36" class="node"><title>4812</title>
<polygon fill="#69767f" stroke="#69767f" points="1708,-252 1654,-252 1654,-216 1708,-216 1708,-252"/>
<text text-anchor="middle" x="1681" y="-230.3" font-family="Times New Roman,serif" font-size="14.00">4812</text>
</g>
<!-- 4803&#45;&#45;4812 -->
<g id="edge48" class="edge"><title>4803&#45;&#45;4812</title>
<path fill="none" stroke="black" d="M1717.27,-591.233C1756.05,-587.486 1827.77,-575.863 1876,-540 1913.69,-511.972 1933,-497.973 1933,-451 1933,-451 1933,-451 1933,-377 1933,-274.807 1773.76,-245.355 1708.45,-237.573"/>
</g>
<!-- 4804&#45;&#45;4806 -->
<g id="edge49" class="edge"><title>4804&#45;&#45;4806</title>
<path fill="none" stroke="black" d="M1639.7,-503.697C1642.64,-492.846 1646.42,-478.917 1649.36,-468.104"/>
</g>
<!-- 4804&#45;&#45;4808 -->
<g id="edge50" class="edge"><title>4804&#45;&#45;4808</title>
<path fill="none" stroke="black" d="M1655.55,-503.906C1666.57,-494.104 1679.92,-481.159 1690,-468 1707.59,-445.035 1722.75,-414.968 1731.38,-396.324"/>
</g>
<!-- 4804&#45;&#45;4810 -->
<g id="edge51" class="edge"><title>4804&#45;&#45;4810</title>
<path fill="none" stroke="black" d="M1627.93,-503.665C1624.16,-493.47 1619.91,-480.22 1618,-468 1609.87,-416.019 1617.99,-353.557 1622.89,-324.041"/>
</g>
<!-- 4804&#45;&#45;4812 -->
<g id="edge52" class="edge"><title>4804&#45;&#45;4812</title>
<path fill="none" stroke="black" d="M1624.3,-503.903C1600.52,-463.509 1548.53,-360.151 1590,-288 1603.58,-264.382 1632.18,-250.303 1653.71,-242.659"/>
</g>
<!-- 4806&#45;&#45;4808 -->
<g id="edge53" class="edge"><title>4806&#45;&#45;4808</title>
<path fill="none" stroke="black" d="M1675.01,-431.697C1688.19,-420.846 1705.1,-406.917 1718.23,-396.104"/>
</g>
<!-- 4806&#45;&#45;4810 -->
<g id="edge54" class="edge"><title>4806&#45;&#45;4810</title>
<path fill="none" stroke="black" d="M1650.62,-431.871C1645.24,-404.578 1634.78,-351.52 1629.39,-324.189"/>
</g>
<!-- 4806&#45;&#45;4812 -->
<g id="edge55" class="edge"><title>4806&#45;&#45;4812</title>
<path fill="none" stroke="black" d="M1656.16,-431.849C1661.22,-391.78 1673.76,-292.383 1678.83,-252.232"/>
</g>
<!-- 4808&#45;&#45;4810 -->
<g id="edge56" class="edge"><title>4808&#45;&#45;4810</title>
<path fill="none" stroke="black" d="M1711.93,-360.233C1694.17,-349.232 1671.03,-334.895 1653.24,-323.873"/>
</g>
<!-- 4808&#45;&#45;4812 -->
<g id="edge57" class="edge"><title>4808&#45;&#45;4812</title>
<path fill="none" stroke="black" d="M1732,-359.871C1720.86,-332.578 1699.18,-279.52 1688.02,-252.189"/>
</g>
<!-- 4832 -->
<g id="node37" class="node"><title>4832</title>
<polygon fill="#906547" stroke="#906547" points="1867,-324 1813,-324 1813,-288 1867,-288 1867,-324"/>
<text text-anchor="middle" x="1840" y="-302.3" font-family="Times New Roman,serif" font-size="14.00">4832</text>
</g>
<!-- 4808&#45;&#45;4832 -->
<g id="edge58" class="edge"><title>4808&#45;&#45;4832</title>
<path fill="none" stroke="black" d="M1763.71,-359.876C1779.36,-349.029 1799.53,-335.05 1815.2,-324.19"/>
</g>
<!-- 4810&#45;&#45;4812 -->
<g id="edge59" class="edge"><title>4810&#45;&#45;4812</title>
<path fill="none" stroke="black" d="M1639.6,-287.697C1648.12,-276.846 1659.07,-262.917 1667.56,-252.104"/>
</g>
<!-- 4827 -->
<g id="node38" class="node"><title>4827</title>
<polygon fill="#595e8d" stroke="#595e8d" points="1867,-540 1813,-540 1813,-504 1867,-504 1867,-540"/>
<text text-anchor="middle" x="1840" y="-518.3" font-family="Times New Roman,serif" font-size="14.00">4827</text>
</g>
<!-- 4827&#45;&#45;4808 -->
<g id="edge61" class="edge"><title>4827&#45;&#45;4808</title>
<path fill="none" stroke="black" d="M1827.82,-503.871C1808.4,-476.578 1770.67,-423.52 1751.23,-396.189"/>
</g>
<!-- 4827&#45;&#45;4832 -->
<g id="edge62" class="edge"><title>4827&#45;&#45;4832</title>
<path fill="none" stroke="black" d="M1855.61,-503.774C1863.37,-494.03 1871.95,-481.184 1876,-468 1891.83,-416.532 1864.99,-353.829 1849.62,-324.15"/>
</g>
<!-- 4828 -->
<g id="node39" class="node"><title>4828</title>
<polygon fill="#40936a" stroke="#40936a" points="1867,-468 1813,-468 1813,-432 1867,-432 1867,-468"/>
<text text-anchor="middle" x="1840" y="-446.3" font-family="Times New Roman,serif" font-size="14.00">4828</text>
</g>
<!-- 4827&#45;&#45;4828 -->
<g id="edge60" class="edge"><title>4827&#45;&#45;4828</title>
<path fill="none" stroke="black" d="M1840,-503.697C1840,-492.846 1840,-478.917 1840,-468.104"/>
</g>
<!-- 4828&#45;&#45;4808 -->
<g id="edge63" class="edge"><title>4828&#45;&#45;4808</title>
<path fill="none" stroke="black" d="M1815.29,-431.876C1799.64,-421.029 1779.47,-407.05 1763.8,-396.19"/>
</g>
<!-- 4828&#45;&#45;4832 -->
<g id="edge64" class="edge"><title>4828&#45;&#45;4832</title>
<path fill="none" stroke="black" d="M1840,-431.871C1840,-404.578 1840,-351.52 1840,-324.189"/>
</g>
<!-- 5845 -->
<g id="node40" class="node"><title>5845</title>
<polygon fill="#936f68" stroke="#936f68" points="1164,-612 1110,-612 1110,-576 1164,-576 1164,-612"/>
<text text-anchor="middle" x="1137" y="-590.3" font-family="Times New Roman,serif" font-size="14.00">5845</text>
</g>
<!-- 5845&#45;&#45;1385 -->
<g id="edge66" class="edge"><title>5845&#45;&#45;1385</title>
<path fill="none" stroke="black" d="M1140.82,-575.886C1144.29,-557.928 1148.39,-528.902 1145,-504 1131.54,-405.278 1121.8,-380.591 1085,-288 1071.64,-254.375 1072.29,-241.881 1047,-216 1027.86,-196.412 999.927,-182.01 979.299,-173.204"/>
</g>
<!-- 5845&#45;&#45;11038 -->
<g id="edge70" class="edge"><title>5845&#45;&#45;11038</title>
<path fill="none" stroke="black" d="M1164.31,-584.391C1212.37,-567.344 1307,-524.45 1307,-451 1307,-451 1307,-451 1307,-233 1307,-166.768 1228.87,-121.819 1186.15,-102.189"/>
</g>
<!-- 5845&#45;&#45;6128 -->
<g id="edge68" class="edge"><title>5845&#45;&#45;6128</title>
<path fill="none" stroke="black" d="M1110.7,-575.871C1068.8,-548.578 987.348,-495.52 945.389,-468.189"/>
</g>
<!-- 5845&#45;&#45;5927 -->
<g id="edge69" class="edge"><title>5845&#45;&#45;5927</title>
<path fill="none" stroke="black" d="M1109.82,-589.559C1054.47,-580.878 929.948,-552.396 883,-468 857.004,-421.268 880.062,-355.218 893.679,-324.267"/>
</g>
<!-- 5846 -->
<g id="node41" class="node"><title>5846</title>
<polygon fill="#3d8d4d" stroke="#3d8d4d" points="1241,-252 1187,-252 1187,-216 1241,-216 1241,-252"/>
<text text-anchor="middle" x="1214" y="-230.3" font-family="Times New Roman,serif" font-size="14.00">5846</text>
</g>
<!-- 5845&#45;&#45;5846 -->
<g id="edge65" class="edge"><title>5845&#45;&#45;5846</title>
<path fill="none" stroke="black" d="M1152.84,-575.655C1174.31,-550.273 1210,-500.618 1210,-451 1210,-451 1210,-451 1210,-377 1210,-331.868 1212.04,-278.698 1213.21,-252.045"/>
</g>
<!-- 11032 -->
<g id="node42" class="node"><title>11032</title>
<polygon fill="#78745d" stroke="#78745d" points="1136,-540 1082,-540 1082,-504 1136,-504 1136,-540"/>
<text text-anchor="middle" x="1109" y="-518.3" font-family="Times New Roman,serif" font-size="14.00">11032</text>
</g>
<!-- 5845&#45;&#45;11032 -->
<g id="edge67" class="edge"><title>5845&#45;&#45;11032</title>
<path fill="none" stroke="black" d="M1130.08,-575.697C1125.74,-564.846 1120.17,-550.917 1115.84,-540.104"/>
</g>
<!-- 5846&#45;&#45;1385 -->
<g id="edge71" class="edge"><title>5846&#45;&#45;1385</title>
<path fill="none" stroke="black" d="M1186.95,-225.772C1136.74,-212.359 1029.69,-183.756 979.297,-170.293"/>
</g>
<!-- 11032&#45;&#45;1385 -->
<g id="edge74" class="edge"><title>11032&#45;&#45;1385</title>
<path fill="none" stroke="black" d="M1108.48,-503.763C1106.13,-453.767 1093.12,-306.514 1021,-216 1009.42,-201.469 993.041,-188.667 979.145,-179.286"/>
</g>
<!-- 11032&#45;&#45;11038 -->
<g id="edge75" class="edge"><title>11032&#45;&#45;11038</title>
<path fill="none" stroke="black" d="M1136.14,-511.336C1181.79,-493.141 1269,-449.194 1269,-379 1269,-379 1269,-379 1269,-233 1269,-178.271 1217.3,-131.845 1184.79,-108.058"/>
</g>
<!-- 11032&#45;&#45;6128 -->
<g id="edge72" class="edge"><title>11032&#45;&#45;6128</title>
<path fill="none" stroke="black" d="M1081.93,-511.839C1051.96,-501.586 1002.28,-484.272 960,-468 955.541,-466.284 950.837,-464.402 946.269,-462.535"/>
</g>
<!-- 11032&#45;&#45;5927 -->
<g id="edge73" class="edge"><title>11032&#45;&#45;5927</title>
<path fill="none" stroke="black" d="M1084.16,-503.97C1052.66,-481.603 997.795,-439.979 959,-396 938.972,-373.296 921.083,-342.886 910.895,-324.136"/>
</g>
<!-- 6651 -->
<g id="node43" class="node"><title>6651</title>
<polygon fill="#853b8e" stroke="#853b8e" points="2061,-612 2007,-612 2007,-576 2061,-576 2061,-612"/>
<text text-anchor="middle" x="2034" y="-590.3" font-family="Times New Roman,serif" font-size="14.00">6651</text>
</g>
<!-- 6652 -->
<g id="node44" class="node"><title>6652</title>
<polygon fill="#917b67" stroke="#917b67" points="2061,-540 2007,-540 2007,-504 2061,-504 2061,-540"/>
<text text-anchor="middle" x="2034" y="-518.3" font-family="Times New Roman,serif" font-size="14.00">6652</text>
</g>
<!-- 6651&#45;&#45;6652 -->
<g id="edge76" class="edge"><title>6651&#45;&#45;6652</title>
<path fill="none" stroke="black" d="M2034,-575.697C2034,-564.846 2034,-550.917 2034,-540.104"/>
</g>
<!-- 6654 -->
<g id="node45" class="node"><title>6654</title>
<polygon fill="#3c4f78" stroke="#3c4f78" points="2015,-468 1961,-468 1961,-432 2015,-432 2015,-468"/>
<text text-anchor="middle" x="1988" y="-446.3" font-family="Times New Roman,serif" font-size="14.00">6654</text>
</g>
<!-- 6651&#45;&#45;6654 -->
<g id="edge77" class="edge"><title>6651&#45;&#45;6654</title>
<path fill="none" stroke="black" d="M2018.97,-575.576C2011.38,-565.775 2002.78,-552.936 1998,-540 1989.21,-516.23 1987.56,-486.648 1987.52,-468.292"/>
</g>
<!-- 6656 -->
<g id="node46" class="node"><title>6656</title>
<polygon fill="#504f99" stroke="#504f99" points="2070,-396 2016,-396 2016,-360 2070,-360 2070,-396"/>
<text text-anchor="middle" x="2043" y="-374.3" font-family="Times New Roman,serif" font-size="14.00">6656</text>
</g>
<!-- 6651&#45;&#45;6656 -->
<g id="edge78" class="edge"><title>6651&#45;&#45;6656</title>
<path fill="none" stroke="black" d="M2049.61,-575.774C2057.37,-566.03 2065.95,-553.184 2070,-540 2085.66,-489.071 2063.76,-426.116 2051.02,-396.264"/>
</g>
<!-- 6652&#45;&#45;6654 -->
<g id="edge79" class="edge"><title>6652&#45;&#45;6654</title>
<path fill="none" stroke="black" d="M2022.63,-503.697C2015.5,-492.846 2006.35,-478.917 1999.24,-468.104"/>
</g>
<!-- 6652&#45;&#45;6656 -->
<g id="edge80" class="edge"><title>6652&#45;&#45;6656</title>
<path fill="none" stroke="black" d="M2035.09,-503.871C2036.82,-476.578 2040.18,-423.52 2041.91,-396.189"/>
</g>
<!-- 6654&#45;&#45;6656 -->
<g id="edge81" class="edge"><title>6654&#45;&#45;6656</title>
<path fill="none" stroke="black" d="M2001.6,-431.697C2010.12,-420.846 2021.07,-406.917 2029.56,-396.104"/>
</g>
<!-- 6727 -->
<g id="node47" class="node"><title>6727</title>
<polygon fill="#369699" stroke="#369699" points="541,-468 487,-468 487,-432 541,-432 541,-468"/>
<text text-anchor="middle" x="514" y="-446.3" font-family="Times New Roman,serif" font-size="14.00">6727</text>
</g>
<!-- 6727&#45;&#45;5338 -->
<g id="edge84" class="edge"><title>6727&#45;&#45;5338</title>
<path fill="none" stroke="black" d="M527.083,-431.891C533.841,-421.983 541.407,-408.942 545,-396 559.06,-345.363 553.548,-282.271 549.628,-252.326"/>
</g>
<!-- 6727&#45;&#45;6734 -->
<g id="edge85" class="edge"><title>6727&#45;&#45;6734</title>
<path fill="none" stroke="black" d="M494.493,-431.942C470.994,-409.856 433.044,-368.844 420,-324 406.591,-277.902 409.778,-263.299 418,-216 420.143,-203.673 424.893,-190.423 429.107,-180.255"/>
</g>
<!-- 6727&#45;&#45;6736 -->
<g id="edge86" class="edge"><title>6727&#45;&#45;6736</title>
<path fill="none" stroke="black" d="M541.03,-434.386C578.053,-412.171 640,-366.161 640,-307 640,-307 640,-307 640,-233 640,-180.839 595.542,-132.925 568.103,-108.32"/>
</g>
<!-- 6728 -->
<g id="node48" class="node"><title>6728</title>
<polygon fill="#8d857a" stroke="#8d857a" points="536,-396 482,-396 482,-360 536,-360 536,-396"/>
<text text-anchor="middle" x="509" y="-374.3" font-family="Times New Roman,serif" font-size="14.00">6728</text>
</g>
<!-- 6727&#45;&#45;6728 -->
<g id="edge82" class="edge"><title>6727&#45;&#45;6728</title>
<path fill="none" stroke="black" d="M512.764,-431.697C511.989,-420.846 510.994,-406.917 510.222,-396.104"/>
</g>
<!-- 6730 -->
<g id="node49" class="node"><title>6730</title>
<polygon fill="#473397" stroke="#473397" points="498,-324 444,-324 444,-288 498,-288 498,-324"/>
<text text-anchor="middle" x="471" y="-302.3" font-family="Times New Roman,serif" font-size="14.00">6730</text>
</g>
<!-- 6727&#45;&#45;6730 -->
<g id="edge83" class="edge"><title>6727&#45;&#45;6730</title>
<path fill="none" stroke="black" d="M495.955,-431.634C487.273,-422.042 477.739,-409.378 473,-396 464.588,-372.254 466.077,-342.665 468.27,-324.301"/>
</g>
<!-- 6728&#45;&#45;5338 -->
<g id="edge88" class="edge"><title>6728&#45;&#45;5338</title>
<path fill="none" stroke="black" d="M513.584,-359.871C520.887,-332.578 535.086,-279.52 542.4,-252.189"/>
</g>
<!-- 6728&#45;&#45;6734 -->
<g id="edge89" class="edge"><title>6728&#45;&#45;6734</title>
<path fill="none" stroke="black" d="M481.939,-365.582C465.093,-356.879 444.822,-343.116 435,-324 410.727,-276.759 423.586,-210.956 431.83,-180.166"/>
</g>
<!-- 6728&#45;&#45;6736 -->
<g id="edge90" class="edge"><title>6728&#45;&#45;6736</title>
<path fill="none" stroke="black" d="M523.456,-359.798C541.619,-336.922 571.769,-294.42 583,-252 596.782,-199.947 570.906,-137.519 556.188,-108.026"/>
</g>
<!-- 6728&#45;&#45;6730 -->
<g id="edge87" class="edge"><title>6728&#45;&#45;6730</title>
<path fill="none" stroke="black" d="M499.607,-359.697C493.717,-348.846 486.155,-334.917 480.285,-324.104"/>
</g>
<!-- 6730&#45;&#45;5338 -->
<g id="edge91" class="edge"><title>6730&#45;&#45;5338</title>
<path fill="none" stroke="black" d="M489.787,-287.697C501.567,-276.846 516.69,-262.917 528.43,-252.104"/>
</g>
<!-- 6730&#45;&#45;6734 -->
<g id="edge92" class="edge"><title>6730&#45;&#45;6734</title>
<path fill="none" stroke="black" d="M466.899,-287.871C460.364,-260.578 447.66,-207.52 441.116,-180.189"/>
</g>
<!-- 6730&#45;&#45;6736 -->
<g id="edge93" class="edge"><title>6730&#45;&#45;6736</title>
<path fill="none" stroke="black" d="M477.091,-287.849C491.321,-247.78 526.621,-148.383 540.88,-108.232"/>
</g>
<!-- 9395 -->
<g id="node50" class="node"><title>9395</title>
<polygon fill="#7e4c7b" stroke="#7e4c7b" points="2171,-612 2117,-612 2117,-576 2171,-576 2171,-612"/>
<text text-anchor="middle" x="2144" y="-590.3" font-family="Times New Roman,serif" font-size="14.00">9395</text>
</g>
<!-- 9396 -->
<g id="node51" class="node"><title>9396</title>
<polygon fill="#988c9a" stroke="#988c9a" points="2171,-540 2117,-540 2117,-504 2171,-504 2171,-540"/>
<text text-anchor="middle" x="2144" y="-518.3" font-family="Times New Roman,serif" font-size="14.00">9396</text>
</g>
<!-- 9395&#45;&#45;9396 -->
<g id="edge94" class="edge"><title>9395&#45;&#45;9396</title>
<path fill="none" stroke="black" d="M2144,-575.697C2144,-564.846 2144,-550.917 2144,-540.104"/>
</g>
<!-- 9847 -->
<g id="node52" class="node"><title>9847</title>
<polygon fill="#73906a" stroke="#73906a" points="2270,-612 2216,-612 2216,-576 2270,-576 2270,-612"/>
<text text-anchor="middle" x="2243" y="-590.3" font-family="Times New Roman,serif" font-size="14.00">9847</text>
</g>
<!-- 9848 -->
<g id="node53" class="node"><title>9848</title>
<polygon fill="#896b42" stroke="#896b42" points="2243,-540 2189,-540 2189,-504 2243,-504 2243,-540"/>
<text text-anchor="middle" x="2216" y="-518.3" font-family="Times New Roman,serif" font-size="14.00">9848</text>
</g>
<!-- 9847&#45;&#45;9848 -->
<g id="edge95" class="edge"><title>9847&#45;&#45;9848</title>
<path fill="none" stroke="black" d="M2236.33,-575.697C2232.14,-564.846 2226.77,-550.917 2222.6,-540.104"/>
</g>
<!-- 9850 -->
<g id="node54" class="node"><title>9850</title>
<polygon fill="#5e5c61" stroke="#5e5c61" points="2262,-468 2208,-468 2208,-432 2262,-432 2262,-468"/>
<text text-anchor="middle" x="2235" y="-446.3" font-family="Times New Roman,serif" font-size="14.00">9850</text>
</g>
<!-- 9847&#45;&#45;9850 -->
<g id="edge96" class="edge"><title>9847&#45;&#45;9850</title>
<path fill="none" stroke="black" d="M2247.32,-575.867C2251.25,-557.894 2255.89,-528.857 2252,-504 2250.09,-491.78 2245.84,-478.53 2242.07,-468.335"/>
</g>
<!-- 9848&#45;&#45;9850 -->
<g id="edge97" class="edge"><title>9848&#45;&#45;9850</title>
<path fill="none" stroke="black" d="M2220.7,-503.697C2223.64,-492.846 2227.42,-478.917 2230.36,-468.104"/>
</g>
<!-- 10175 -->
<g id="node55" class="node"><title>10175</title>
<polygon fill="#5f9987" stroke="#5f9987" points="2469,-612 2415,-612 2415,-576 2469,-576 2469,-612"/>
<text text-anchor="middle" x="2442" y="-590.3" font-family="Times New Roman,serif" font-size="14.00">10175</text>
</g>
<!-- 10176 -->
<g id="node56" class="node"><title>10176</title>
<polygon fill="#795f64" stroke="#795f64" points="2469,-540 2415,-540 2415,-504 2469,-504 2469,-540"/>
<text text-anchor="middle" x="2442" y="-518.3" font-family="Times New Roman,serif" font-size="14.00">10176</text>
</g>
<!-- 10175&#45;&#45;10176 -->
<g id="edge98" class="edge"><title>10175&#45;&#45;10176</title>
<path fill="none" stroke="black" d="M2442,-575.697C2442,-564.846 2442,-550.917 2442,-540.104"/>
</g>
<!-- 10178 -->
<g id="node57" class="node"><title>10178</title>
<polygon fill="#39953b" stroke="#39953b" points="2543,-468 2489,-468 2489,-432 2543,-432 2543,-468"/>
<text text-anchor="middle" x="2516" y="-446.3" font-family="Times New Roman,serif" font-size="14.00">10178</text>
</g>
<!-- 10175&#45;&#45;10178 -->
<g id="edge99" class="edge"><title>10175&#45;&#45;10178</title>
<path fill="none" stroke="black" d="M2454.88,-575.871C2462.17,-565.744 2471.17,-552.494 2478,-540 2491.13,-515.968 2502.95,-486.458 2509.8,-468.188"/>
</g>
<!-- 10180 -->
<g id="node58" class="node"><title>10180</title>
<polygon fill="#91558c" stroke="#91558c" points="2543,-396 2489,-396 2489,-360 2543,-360 2543,-396"/>
<text text-anchor="middle" x="2516" y="-374.3" font-family="Times New Roman,serif" font-size="14.00">10180</text>
</g>
<!-- 10175&#45;&#45;10180 -->
<g id="edge100" class="edge"><title>10175&#45;&#45;10180</title>
<path fill="none" stroke="black" d="M2465.78,-575.989C2493.33,-554.539 2536.88,-514.759 2552,-468 2556.92,-452.776 2556.7,-447.293 2552,-432 2547.95,-418.816 2539.37,-405.97 2531.61,-396.226"/>
</g>
<!-- 10182 -->
<g id="node59" class="node"><title>10182</title>
<polygon fill="#6e9b7a" stroke="#6e9b7a" points="2477,-324 2423,-324 2423,-288 2477,-288 2477,-324"/>
<text text-anchor="middle" x="2450" y="-302.3" font-family="Times New Roman,serif" font-size="14.00">10182</text>
</g>
<!-- 10175&#45;&#45;10182 -->
<g id="edge101" class="edge"><title>10175&#45;&#45;10182</title>
<path fill="none" stroke="black" d="M2426.39,-575.774C2418.63,-566.03 2410.05,-553.184 2406,-540 2381.8,-461.304 2422.27,-363.359 2441.13,-324.273"/>
</g>
<!-- 10184 -->
<g id="node60" class="node"><title>10184</title>
<polygon fill="#629969" stroke="#629969" points="2477,-252 2423,-252 2423,-216 2477,-216 2477,-252"/>
<text text-anchor="middle" x="2450" y="-230.3" font-family="Times New Roman,serif" font-size="14.00">10184</text>
</g>
<!-- 10175&#45;&#45;10184 -->
<g id="edge102" class="edge"><title>10175&#45;&#45;10184</title>
<path fill="none" stroke="black" d="M2414.76,-579.498C2375.85,-558.06 2309,-512.306 2309,-451 2309,-451 2309,-451 2309,-377 2309,-313.075 2381.84,-267.685 2422.81,-247.209"/>
</g>
<!-- 10176&#45;&#45;10178 -->
<g id="edge103" class="edge"><title>10176&#45;&#45;10178</title>
<path fill="none" stroke="black" d="M2460.29,-503.697C2471.76,-492.846 2486.49,-478.917 2497.92,-468.104"/>
</g>
<!-- 10176&#45;&#45;10180 -->
<g id="edge104" class="edge"><title>10176&#45;&#45;10180</title>
<path fill="none" stroke="black" d="M2448.2,-503.812C2455.05,-485.542 2466.87,-456.032 2480,-432 2486.83,-419.506 2495.83,-406.256 2503.12,-396.129"/>
</g>
<!-- 10176&#45;&#45;10182 -->
<g id="edge105" class="edge"><title>10176&#45;&#45;10182</title>
<path fill="none" stroke="black" d="M2442.64,-503.849C2444.14,-463.78 2447.85,-364.383 2449.36,-324.232"/>
</g>
<!-- 10176&#45;&#45;10184 -->
<g id="edge106" class="edge"><title>10176&#45;&#45;10184</title>
<path fill="none" stroke="black" d="M2435.24,-503.904C2420.76,-464.779 2389.99,-366.08 2414,-288 2418.05,-274.816 2426.63,-261.97 2434.39,-252.226"/>
</g>
<!-- 10178&#45;&#45;10180 -->
<g id="edge107" class="edge"><title>10178&#45;&#45;10180</title>
<path fill="none" stroke="black" d="M2516,-431.697C2516,-420.846 2516,-406.917 2516,-396.104"/>
</g>
<!-- 10178&#45;&#45;10182 -->
<g id="edge108" class="edge"><title>10178&#45;&#45;10182</title>
<path fill="none" stroke="black" d="M2502.4,-431.59C2495.05,-421.588 2486.23,-408.553 2480,-396 2468.18,-372.195 2459.25,-342.623 2454.32,-324.278"/>
</g>
<!-- 10178&#45;&#45;10184 -->
<g id="edge109" class="edge"><title>10178&#45;&#45;10184</title>
<path fill="none" stroke="black" d="M2531.61,-431.774C2539.37,-422.03 2547.95,-409.184 2552,-396 2556.7,-380.707 2556.41,-375.38 2552,-360 2538.87,-314.229 2498.2,-274.125 2472.36,-252.346"/>
</g>
<!-- 10180&#45;&#45;10182 -->
<g id="edge110" class="edge"><title>10180&#45;&#45;10182</title>
<path fill="none" stroke="black" d="M2499.69,-359.697C2489.46,-348.846 2476.32,-334.917 2466.13,-324.104"/>
</g>
<!-- 10180&#45;&#45;10184 -->
<g id="edge111" class="edge"><title>10180&#45;&#45;10184</title>
<path fill="none" stroke="black" d="M2511.68,-359.722C2506.75,-341.377 2497.82,-311.805 2486,-288 2479.77,-275.447 2470.95,-262.412 2463.6,-252.41"/>
</g>
<!-- 10182&#45;&#45;10184 -->
<g id="edge112" class="edge"><title>10182&#45;&#45;10184</title>
<path fill="none" stroke="black" d="M2450,-287.697C2450,-276.846 2450,-262.917 2450,-252.104"/>
</g>
<!-- 10367 -->
<g id="node61" class="node"><title>10367</title>
<polygon fill="#7d9240" stroke="#7d9240" points="1022,-396 968,-396 968,-360 1022,-360 1022,-396"/>
<text text-anchor="middle" x="995" y="-374.3" font-family="Times New Roman,serif" font-size="14.00">10367</text>
</g>
<!-- 10367&#45;&#45;5802 -->
<g id="edge114" class="edge"><title>10367&#45;&#45;5802</title>
<path fill="none" stroke="black" d="M989.813,-359.871C981.548,-332.578 965.482,-279.52 957.205,-252.189"/>
</g>
<!-- 10367&#45;&#45;5927 -->
<g id="edge113" class="edge"><title>10367&#45;&#45;5927</title>
<path fill="none" stroke="black" d="M972.011,-359.697C957.596,-348.846 939.089,-334.917 924.724,-324.104"/>
</g>
</g>
</svg>
