<svg width="3523px" height="827px"
 viewBox="0.00 0.00 2642.10 620.00" xmlns="http://www.w3.org/2000/svg" xmlns:xlink="http://www.w3.org/1999/xlink">
<g id="graph0" class="graph" transform="scale(1.000022500562514 1.000022500562514) rotate(0) translate(4 616)">
<title>G</title>
<polygon fill="white" stroke="none" points="-4,4 -4,-616 2638.1,-616 2638.1,4 -4,4"/>
<!-- 133 -->
<g id="node1" class="node"><title>133</title>
<ellipse fill="none" stroke="black" cx="109.497" cy="-522" rx="27" ry="18"/>
<text text-anchor="middle" x="109.497" y="-518.3" font-family="Times New Roman,serif" font-size="14.00">133</text>
</g>
<!-- 134 -->
<g id="node2" class="node"><title>134</title>
<ellipse fill="none" stroke="black" cx="127.497" cy="-378" rx="27" ry="18"/>
<text text-anchor="middle" x="127.497" y="-374.3" font-family="Times New Roman,serif" font-size="14.00">134</text>
</g>
<!-- 133&#45;&#45;134 -->
<g id="edge1" class="edge"><title>133&#45;&#45;134</title>
<path fill="none" stroke="black" d="M103.806,-504.363C98.4652,-486.306 92.1719,-456.737 98.4971,-432 101.927,-418.586 109.53,-404.915 116.091,-394.817"/>
</g>
<!-- 11162 -->
<g id="node6" class="node"><title>11162</title>
<ellipse fill="none" stroke="black" cx="139.497" cy="-450" rx="32.4942" ry="18"/>
<text text-anchor="middle" x="139.497" y="-446.3" font-family="Times New Roman,serif" font-size="14.00">11162</text>
</g>
<!-- 133&#45;&#45;11162 -->
<g id="edge2" class="edge"><title>133&#45;&#45;11162</title>
<path fill="none" stroke="black" d="M116.607,-504.411C121.32,-493.414 127.485,-479.027 132.23,-467.956"/>
</g>
<!-- 6164 -->
<g id="node3" class="node"><title>6164</title>
<ellipse fill="none" stroke="black" cx="194.497" cy="-306" rx="28.6953" ry="18"/>
<text text-anchor="middle" x="194.497" y="-302.3" font-family="Times New Roman,serif" font-size="14.00">6164</text>
</g>
<!-- 134&#45;&#45;6164 -->
<g id="edge3" class="edge"><title>134&#45;&#45;6164</title>
<path fill="none" stroke="black" d="M141.38,-362.496C152.725,-350.642 168.706,-333.946 180.17,-321.968"/>
</g>
<!-- 10236 -->
<g id="node4" class="node"><title>10236</title>
<ellipse fill="none" stroke="black" cx="32.4971" cy="-306" rx="32.4942" ry="18"/>
<text text-anchor="middle" x="32.4971" y="-302.3" font-family="Times New Roman,serif" font-size="14.00">10236</text>
</g>
<!-- 134&#45;&#45;10236 -->
<g id="edge4" class="edge"><title>134&#45;&#45;10236</title>
<path fill="none" stroke="black" d="M110.073,-364.161C93.4673,-351.925 68.5314,-333.552 51.4401,-320.958"/>
</g>
<!-- 11020 -->
<g id="node5" class="node"><title>11020</title>
<ellipse fill="none" stroke="black" cx="115.497" cy="-306" rx="32.4942" ry="18"/>
<text text-anchor="middle" x="115.497" y="-302.3" font-family="Times New Roman,serif" font-size="14.00">11020</text>
</g>
<!-- 134&#45;&#45;11020 -->
<g id="edge5" class="edge"><title>134&#45;&#45;11020</title>
<path fill="none" stroke="black" d="M124.592,-360.055C122.733,-349.211 120.328,-335.183 118.459,-324.275"/>
</g>
<!-- 11162&#45;&#45;134 -->
<g id="edge6" class="edge"><title>11162&#45;&#45;134</title>
<path fill="none" stroke="black" d="M136.592,-432.055C134.733,-421.211 132.328,-407.183 130.459,-396.275"/>
</g>
<!-- 223 -->
<g id="node7" class="node"><title>223</title>
<ellipse fill="none" stroke="black" cx="1404.5" cy="-594" rx="27" ry="18"/>
<text text-anchor="middle" x="1404.5" y="-590.3" font-family="Times New Roman,serif" font-size="14.00">223</text>
</g>
<!-- 224 -->
<g id="node8" class="node"><title>224</title>
<ellipse fill="none" stroke="black" cx="1404.5" cy="-522" rx="27" ry="18"/>
<text text-anchor="middle" x="1404.5" y="-518.3" font-family="Times New Roman,serif" font-size="14.00">224</text>
</g>
<!-- 223&#45;&#45;224 -->
<g id="edge7" class="edge"><title>223&#45;&#45;224</title>
<path fill="none" stroke="black" d="M1404.5,-575.697C1404.5,-564.846 1404.5,-550.917 1404.5,-540.104"/>
</g>
<!-- 1241 -->
<g id="node9" class="node"><title>1241</title>
<ellipse fill="#437296" stroke="#437296" cx="246.497" cy="-450" rx="28.6953" ry="18"/>
<text text-anchor="middle" x="246.497" y="-446.3" font-family="Times New Roman,serif" font-size="14.00">1241</text>
</g>
<!-- 1241&#45;&#45;134 -->
<g id="edge10" class="edge"><title>1241&#45;&#45;134</title>
<path fill="none" stroke="black" d="M226.31,-437.125C204.163,-424.097 168.86,-403.331 146.991,-390.467"/>
</g>
<!-- 1242 -->
<g id="node10" class="node"><title>1242</title>
<ellipse fill="none" stroke="black" cx="308.497" cy="-378" rx="28.6953" ry="18"/>
<text text-anchor="middle" x="308.497" y="-374.3" font-family="Times New Roman,serif" font-size="14.00">1242</text>
</g>
<!-- 1241&#45;&#45;1242 -->
<g id="edge8" class="edge"><title>1241&#45;&#45;1242</title>
<path fill="none" stroke="black" d="M259.95,-433.811C270.35,-422.07 284.677,-405.893 295.07,-394.159"/>
</g>
<!-- 5338 -->
<g id="node11" class="node"><title>5338</title>
<polygon fill="#437296" stroke="#437296" points="607.497,-252 553.497,-252 553.497,-216 607.497,-216 607.497,-252"/>
<text text-anchor="middle" x="580.497" y="-230.3" font-family="Times New Roman,serif" font-size="14.00">5338</text>
</g>
<!-- 1241&#45;&#45;5338 -->
<g id="edge9" class="edge"><title>1241&#45;&#45;5338</title>
<path fill="none" stroke="black" d="M246.732,-431.811C247.898,-412.159 252.659,-380.116 270.497,-360 347.308,-273.381 492.666,-245.853 553.086,-237.921"/>
</g>
<!-- 6734 -->
<g id="node12" class="node"><title>6734</title>
<polygon fill="#333a39" stroke="#333a39" points="497.497,-180 443.497,-180 443.497,-144 497.497,-144 497.497,-180"/>
<text text-anchor="middle" x="470.497" y="-158.3" font-family="Times New Roman,serif" font-size="14.00">6734</text>
</g>
<!-- 5338&#45;&#45;6734 -->
<g id="edge11" class="edge"><title>5338&#45;&#45;6734</title>
<path fill="none" stroke="black" d="M553.588,-215.876C536.542,-205.029 514.575,-191.05 497.51,-180.19"/>
</g>
<!-- 6736 -->
<g id="node13" class="node"><title>6736</title>
<polygon fill="#506081" stroke="#506081" points="607.497,-108 553.497,-108 553.497,-72 607.497,-72 607.497,-108"/>
<text text-anchor="middle" x="580.497" y="-86.3" font-family="Times New Roman,serif" font-size="14.00">6736</text>
</g>
<!-- 5338&#45;&#45;6736 -->
<g id="edge12" class="edge"><title>5338&#45;&#45;6736</title>
<path fill="none" stroke="black" d="M580.497,-215.871C580.497,-188.578 580.497,-135.52 580.497,-108.189"/>
</g>
<!-- 1385 -->
<g id="node14" class="node"><title>1385</title>
<polygon fill="#77756e" stroke="#77756e" points="1015.5,-180 961.497,-180 961.497,-144 1015.5,-144 1015.5,-180"/>
<text text-anchor="middle" x="988.497" y="-158.3" font-family="Times New Roman,serif" font-size="14.00">1385</text>
</g>
<!-- 5338&#45;&#45;1385 -->
<g id="edge13" class="edge"><title>5338&#45;&#45;1385</title>
<path fill="none" stroke="black" d="M607.583,-228.353C681.711,-215.635 887.304,-180.362 961.421,-167.645"/>
</g>
<!-- 2552 -->
<g id="node17" class="node"><title>2552</title>
<ellipse fill="#77756e" stroke="#77756e" cx="821.497" cy="-90" rx="28.6953" ry="18"/>
<text text-anchor="middle" x="821.497" y="-86.3" font-family="Times New Roman,serif" font-size="14.00">2552</text>
</g>
<!-- 5338&#45;&#45;2552 -->
<g id="edge14" class="edge"><title>5338&#45;&#45;2552</title>
<path fill="none" stroke="black" d="M607.674,-216.987C656.545,-188.191 758.185,-128.304 801.378,-102.855"/>
</g>
<!-- 6734&#45;&#45;6736 -->
<g id="edge15" class="edge"><title>6734&#45;&#45;6736</title>
<path fill="none" stroke="black" d="M497.406,-143.876C514.452,-133.029 536.419,-119.05 553.485,-108.19"/>
</g>
<!-- 1386 -->
<g id="node15" class="node"><title>1386</title>
<ellipse fill="#77756e" stroke="#77756e" cx="1016.5" cy="-90" rx="28.6953" ry="18"/>
<text text-anchor="middle" x="1016.5" y="-86.3" font-family="Times New Roman,serif" font-size="14.00">1386</text>
</g>
<!-- 1385&#45;&#45;1386 -->
<g id="edge16" class="edge"><title>1385&#45;&#45;1386</title>
<path fill="none" stroke="black" d="M995.418,-143.697C999.823,-132.684 1005.5,-118.5 1009.85,-107.622"/>
</g>
<!-- 1388 -->
<g id="node16" class="node"><title>1388</title>
<ellipse fill="#77756e" stroke="#77756e" cx="987.497" cy="-18" rx="28.6953" ry="18"/>
<text text-anchor="middle" x="987.497" y="-14.3" font-family="Times New Roman,serif" font-size="14.00">1388</text>
</g>
<!-- 1385&#45;&#45;1388 -->
<g id="edge17" class="edge"><title>1385&#45;&#45;1388</title>
<path fill="none" stroke="black" d="M984.438,-143.929C982.192,-133.598 979.631,-120.12 978.497,-108 977.007,-92.0695 977.153,-87.9434 978.497,-72 979.516,-59.9098 981.821,-46.4315 983.843,-36.0925"/>
</g>
<!-- 1385&#45;&#45;2552 -->
<g id="edge18" class="edge"><title>1385&#45;&#45;2552</title>
<path fill="none" stroke="black" d="M961.294,-149.597C928.853,-135.999 875.191,-113.506 844.65,-100.705"/>
</g>
<!-- 11038 -->
<g id="node18" class="node"><title>11038</title>
<polygon fill="#799058" stroke="#799058" points="1224.5,-108 1170.5,-108 1170.5,-72 1224.5,-72 1224.5,-108"/>
<text text-anchor="middle" x="1197.5" y="-86.3" font-family="Times New Roman,serif" font-size="14.00">11038</text>
</g>
<!-- 1385&#45;&#45;11038 -->
<g id="edge19" class="edge"><title>1385&#45;&#45;11038</title>
<path fill="none" stroke="black" d="M1015.82,-151.849C1055.87,-138.433 1130.11,-113.57 1170.17,-100.154"/>
</g>
<!-- 1386&#45;&#45;1388 -->
<g id="edge20" class="edge"><title>1386&#45;&#45;1388</title>
<path fill="none" stroke="black" d="M1009.62,-72.411C1005.07,-61.4141 999.108,-47.0274 994.522,-35.9562"/>
</g>
<!-- 1243 -->
<g id="node19" class="node"><title>1243</title>
<ellipse fill="#5b6a74" stroke="#5b6a74" cx="435.497" cy="-450" rx="28.6953" ry="18"/>
<text text-anchor="middle" x="435.497" y="-446.3" font-family="Times New Roman,serif" font-size="14.00">1243</text>
</g>
<!-- 1243&#45;&#45;1242 -->
<g id="edge21" class="edge"><title>1243&#45;&#45;1242</title>
<path fill="none" stroke="black" d="M414.526,-437.441C390.995,-424.471 353.044,-403.553 329.5,-390.576"/>
</g>
<!-- 4140 -->
<g id="node20" class="node"><title>4140</title>
<ellipse fill="none" stroke="black" cx="383.497" cy="-378" rx="28.6953" ry="18"/>
<text text-anchor="middle" x="383.497" y="-374.3" font-family="Times New Roman,serif" font-size="14.00">4140</text>
</g>
<!-- 1243&#45;&#45;4140 -->
<g id="edge22" class="edge"><title>1243&#45;&#45;4140</title>
<path fill="none" stroke="black" d="M423.957,-433.465C415.339,-421.865 403.615,-406.082 395.005,-394.492"/>
</g>
<!-- 1967 -->
<g id="node21" class="node"><title>1967</title>
<ellipse fill="none" stroke="black" cx="1478.5" cy="-594" rx="28.6953" ry="18"/>
<text text-anchor="middle" x="1478.5" y="-590.3" font-family="Times New Roman,serif" font-size="14.00">1967</text>
</g>
<!-- 1968 -->
<g id="node22" class="node"><title>1968</title>
<ellipse fill="none" stroke="black" cx="1478.5" cy="-522" rx="28.6953" ry="18"/>
<text text-anchor="middle" x="1478.5" y="-518.3" font-family="Times New Roman,serif" font-size="14.00">1968</text>
</g>
<!-- 1967&#45;&#45;1968 -->
<g id="edge23" class="edge"><title>1967&#45;&#45;1968</title>
<path fill="none" stroke="black" d="M1478.5,-575.697C1478.5,-564.846 1478.5,-550.917 1478.5,-540.104"/>
</g>
<!-- 2357 -->
<g id="node23" class="node"><title>2357</title>
<ellipse fill="none" stroke="black" cx="360.497" cy="-450" rx="28.6953" ry="18"/>
<text text-anchor="middle" x="360.497" y="-446.3" font-family="Times New Roman,serif" font-size="14.00">2357</text>
</g>
<!-- 2357&#45;&#45;1242 -->
<g id="edge24" class="edge"><title>2357&#45;&#45;1242</title>
<path fill="none" stroke="black" d="M348.957,-433.465C340.339,-421.865 328.615,-406.082 320.005,-394.492"/>
</g>
<!-- 4139 -->
<g id="node24" class="node"><title>4139</title>
<polygon fill="#5b6a74" stroke="#5b6a74" points="757.497,-540 703.497,-540 703.497,-504 757.497,-504 757.497,-540"/>
<text text-anchor="middle" x="730.497" y="-518.3" font-family="Times New Roman,serif" font-size="14.00">4139</text>
</g>
<!-- 4139&#45;&#45;1242 -->
<g id="edge27" class="edge"><title>4139&#45;&#45;1242</title>
<path fill="none" stroke="black" d="M703.29,-521.522C620.949,-522.502 376.749,-520.815 322.497,-468 303.444,-449.452 303.522,-416.291 305.725,-396.104"/>
</g>
<!-- 4139&#45;&#45;1385 -->
<g id="edge31" class="edge"><title>4139&#45;&#45;1385</title>
<path fill="none" stroke="black" d="M726.652,-503.612C721.1,-476.942 711.497,-424.268 711.497,-379 711.497,-379 711.497,-379 711.497,-305 711.497,-193.405 891.732,-169.449 961.433,-164.357"/>
</g>
<!-- 4139&#45;&#45;1243 -->
<g id="edge32" class="edge"><title>4139&#45;&#45;1243</title>
<path fill="none" stroke="black" d="M703.268,-516.828C656.643,-509.341 558.777,-492.122 478.497,-468 471.885,-466.013 464.863,-463.443 458.453,-460.905"/>
</g>
<!-- 4139&#45;&#45;4140 -->
<g id="edge25" class="edge"><title>4139&#45;&#45;4140</title>
<path fill="none" stroke="black" d="M703.278,-518.939C660.204,-514.716 574.736,-502.376 511.497,-468 491.057,-456.889 492.084,-445.992 473.497,-432 451.477,-415.423 423.877,-399.847 405.087,-389.927"/>
</g>
<!-- 5802 -->
<g id="node25" class="node"><title>5802</title>
<ellipse fill="#5b6386" stroke="#5b6386" cx="988.497" cy="-234" rx="28.6953" ry="18"/>
<text text-anchor="middle" x="988.497" y="-230.3" font-family="Times New Roman,serif" font-size="14.00">5802</text>
</g>
<!-- 4139&#45;&#45;5802 -->
<g id="edge26" class="edge"><title>4139&#45;&#45;5802</title>
<path fill="none" stroke="black" d="M731.843,-503.896C735.115,-472.336 745.96,-404.144 780.497,-360 829.692,-297.121 920.028,-258.839 963.641,-243.193"/>
</g>
<!-- 6128 -->
<g id="node26" class="node"><title>6128</title>
<polygon fill="#6a5264" stroke="#6a5264" points="979.497,-468 925.497,-468 925.497,-432 979.497,-432 979.497,-468"/>
<text text-anchor="middle" x="952.497" y="-446.3" font-family="Times New Roman,serif" font-size="14.00">6128</text>
</g>
<!-- 4139&#45;&#45;6128 -->
<g id="edge28" class="edge"><title>4139&#45;&#45;6128</title>
<path fill="none" stroke="black" d="M757.719,-512.417C800.442,-498.945 882.754,-472.991 925.4,-459.544"/>
</g>
<!-- 6130 -->
<g id="node27" class="node"><title>6130</title>
<polygon fill="#369661" stroke="#369661" points="869.497,-396 815.497,-396 815.497,-360 869.497,-360 869.497,-396"/>
<text text-anchor="middle" x="842.497" y="-374.3" font-family="Times New Roman,serif" font-size="14.00">6130</text>
</g>
<!-- 4139&#45;&#45;6130 -->
<g id="edge29" class="edge"><title>4139&#45;&#45;6130</title>
<path fill="none" stroke="black" d="M757.74,-505.307C772.186,-495.93 789.398,-482.943 801.497,-468 819.268,-446.052 831.232,-415.146 837.447,-396.128"/>
</g>
<!-- 5927 -->
<g id="node28" class="node"><title>5927</title>
<polygon fill="#5b6386" stroke="#5b6386" points="962.497,-324 908.497,-324 908.497,-288 962.497,-288 962.497,-324"/>
<text text-anchor="middle" x="935.497" y="-302.3" font-family="Times New Roman,serif" font-size="14.00">5927</text>
</g>
<!-- 4139&#45;&#45;5927 -->
<g id="edge30" class="edge"><title>4139&#45;&#45;5927</title>
<path fill="none" stroke="black" d="M742.304,-503.787C748.99,-493.633 757.24,-480.383 763.497,-468 786.799,-421.889 770.165,-396.731 806.497,-360 834.421,-331.769 879.509,-317.958 908.31,-311.677"/>
</g>
<!-- 5802&#45;&#45;1385 -->
<g id="edge33" class="edge"><title>5802&#45;&#45;1385</title>
<path fill="none" stroke="black" d="M988.497,-215.697C988.497,-204.846 988.497,-190.917 988.497,-180.104"/>
</g>
<!-- 6128&#45;&#45;1385 -->
<g id="edge36" class="edge"><title>6128&#45;&#45;1385</title>
<path fill="none" stroke="black" d="M979.599,-445.794C1008.69,-440.747 1053.54,-427.958 1074.5,-396 1122.27,-323.167 1041.1,-220.203 1004.74,-180.006"/>
</g>
<!-- 6128&#45;&#45;11038 -->
<g id="edge37" class="edge"><title>6128&#45;&#45;11038</title>
<path fill="none" stroke="black" d="M979.75,-445.979C1011.71,-441.022 1064.28,-428.24 1095.5,-396 1177.45,-311.366 1193.6,-159.048 1196.75,-108.114"/>
</g>
<!-- 6128&#45;&#45;6130 -->
<g id="edge34" class="edge"><title>6128&#45;&#45;6130</title>
<path fill="none" stroke="black" d="M925.588,-431.876C908.542,-421.029 886.575,-407.05 869.51,-396.19"/>
</g>
<!-- 6128&#45;&#45;5927 -->
<g id="edge35" class="edge"><title>6128&#45;&#45;5927</title>
<path fill="none" stroke="black" d="M950.447,-431.871C947.179,-404.578 940.827,-351.52 937.555,-324.189"/>
</g>
<!-- 6130&#45;&#45;1385 -->
<g id="edge39" class="edge"><title>6130&#45;&#45;1385</title>
<path fill="none" stroke="black" d="M850.814,-359.679C865.828,-329.203 899.371,-264.619 936.497,-216 946.355,-203.091 959.106,-190.05 969.514,-180.135"/>
</g>
<!-- 6130&#45;&#45;5927 -->
<g id="edge38" class="edge"><title>6130&#45;&#45;5927</title>
<path fill="none" stroke="black" d="M865.486,-359.697C879.901,-348.846 898.408,-334.917 912.773,-324.104"/>
</g>
<!-- 5927&#45;&#45;1385 -->
<g id="edge40" class="edge"><title>5927&#45;&#45;1385</title>
<path fill="none" stroke="black" d="M936.09,-287.97C937.242,-269.577 940.62,-239.724 950.497,-216 955.893,-203.039 964.977,-190.199 972.911,-180.404"/>
</g>
<!-- 5927&#45;&#45;11038 -->
<g id="edge42" class="edge"><title>5927&#45;&#45;11038</title>
<path fill="none" stroke="black" d="M962.79,-291.22C981.416,-281.316 1006.28,-267.094 1026.5,-252 1088.58,-205.65 1152.7,-139.415 1181.64,-108.344"/>
</g>
<!-- 5927&#45;&#45;5802 -->
<g id="edge41" class="edge"><title>5927&#45;&#45;5802</title>
<path fill="none" stroke="black" d="M948.598,-287.697C957.181,-276.36 968.309,-261.663 976.632,-250.671"/>
</g>
<!-- 4485 -->
<g id="node29" class="node"><title>4485</title>
<ellipse fill="none" stroke="black" cx="1553.5" cy="-594" rx="28.6953" ry="18"/>
<text text-anchor="middle" x="1553.5" y="-590.3" font-family="Times New Roman,serif" font-size="14.00">4485</text>
</g>
<!-- 4486 -->
<g id="node30" class="node"><title>4486</title>
<ellipse fill="none" stroke="black" cx="1553.5" cy="-522" rx="28.6953" ry="18"/>
<text text-anchor="middle" x="1553.5" y="-518.3" font-family="Times New Roman,serif" font-size="14.00">4486</text>
</g>
<!-- 4485&#45;&#45;4486 -->
<g id="edge43" class="edge"><title>4485&#45;&#45;4486</title>
<path fill="none" stroke="black" d="M1553.5,-575.697C1553.5,-564.846 1553.5,-550.917 1553.5,-540.104"/>
</g>
<!-- 4803 -->
<g id="node31" class="node"><title>4803</title>
<ellipse fill="none" stroke="black" cx="1743.5" cy="-594" rx="28.6953" ry="18"/>
<text text-anchor="middle" x="1743.5" y="-590.3" font-family="Times New Roman,serif" font-size="14.00">4803</text>
</g>
<!-- 4804 -->
<g id="node32" class="node"><title>4804</title>
<ellipse fill="none" stroke="black" cx="1686.5" cy="-522" rx="28.6953" ry="18"/>
<text text-anchor="middle" x="1686.5" y="-518.3" font-family="Times New Roman,serif" font-size="14.00">4804</text>
</g>
<!-- 4803&#45;&#45;4804 -->
<g id="edge44" class="edge"><title>4803&#45;&#45;4804</title>
<path fill="none" stroke="black" d="M1730.85,-577.465C1721.4,-565.865 1708.55,-550.082 1699.11,-538.492"/>
</g>
<!-- 4806 -->
<g id="node33" class="node"><title>4806</title>
<ellipse fill="none" stroke="black" cx="1705.5" cy="-450" rx="28.6953" ry="18"/>
<text text-anchor="middle" x="1705.5" y="-446.3" font-family="Times New Roman,serif" font-size="14.00">4806</text>
</g>
<!-- 4803&#45;&#45;4806 -->
<g id="edge45" class="edge"><title>4803&#45;&#45;4806</title>
<path fill="none" stroke="black" d="M1740.53,-575.771C1737.25,-557.719 1731.5,-528.618 1724.5,-504 1720.97,-491.59 1716.02,-477.887 1712.07,-467.523"/>
</g>
<!-- 4808 -->
<g id="node34" class="node"><title>4808</title>
<ellipse fill="none" stroke="black" cx="1791.5" cy="-378" rx="28.6953" ry="18"/>
<text text-anchor="middle" x="1791.5" y="-374.3" font-family="Times New Roman,serif" font-size="14.00">4808</text>
</g>
<!-- 4803&#45;&#45;4808 -->
<g id="edge46" class="edge"><title>4803&#45;&#45;4808</title>
<path fill="none" stroke="black" d="M1747.34,-575.849C1756.35,-535.68 1778.74,-435.89 1787.7,-395.935"/>
</g>
<!-- 4810 -->
<g id="node35" class="node"><title>4810</title>
<ellipse fill="none" stroke="black" cx="1675.5" cy="-306" rx="28.6953" ry="18"/>
<text text-anchor="middle" x="1675.5" y="-302.3" font-family="Times New Roman,serif" font-size="14.00">4810</text>
</g>
<!-- 4803&#45;&#45;4810 -->
<g id="edge47" class="edge"><title>4803&#45;&#45;4810</title>
<path fill="none" stroke="black" d="M1717.28,-586.408C1694.61,-579.165 1663.22,-565.08 1648.5,-540 1606.54,-468.54 1648.35,-363.457 1667.26,-323.362"/>
</g>
<!-- 4812 -->
<g id="node36" class="node"><title>4812</title>
<ellipse fill="none" stroke="black" cx="1732.5" cy="-234" rx="28.6953" ry="18"/>
<text text-anchor="middle" x="1732.5" y="-230.3" font-family="Times New Roman,serif" font-size="14.00">4812</text>
</g>
<!-- 4803&#45;&#45;4812 -->
<g id="edge48" class="edge"><title>4803&#45;&#45;4812</title>
<path fill="none" stroke="black" d="M1772.01,-591.33C1811.77,-587.705 1884.48,-576.237 1933.5,-540 1971.27,-512.077 1990.5,-497.973 1990.5,-451 1990.5,-451 1990.5,-451 1990.5,-377 1990.5,-272.955 1827.47,-244.595 1760.6,-237.339"/>
</g>
<!-- 4804&#45;&#45;4806 -->
<g id="edge49" class="edge"><title>4804&#45;&#45;4806</title>
<path fill="none" stroke="black" d="M1691.1,-504.055C1694.08,-493.049 1697.96,-478.764 1700.94,-467.789"/>
</g>
<!-- 4804&#45;&#45;4808 -->
<g id="edge50" class="edge"><title>4804&#45;&#45;4808</title>
<path fill="none" stroke="black" d="M1703.87,-507.434C1715.96,-497.414 1731.93,-482.966 1743.5,-468 1761.32,-444.946 1776.21,-414.368 1784.48,-395.717"/>
</g>
<!-- 4804&#45;&#45;4810 -->
<g id="edge51" class="edge"><title>4804&#45;&#45;4810</title>
<path fill="none" stroke="black" d="M1678.8,-504.22C1674.54,-493.991 1669.67,-480.519 1667.5,-468 1658.49,-416.164 1667.02,-353.634 1672.2,-324.072"/>
</g>
<!-- 4804&#45;&#45;4812 -->
<g id="edge52" class="edge"><title>4804&#45;&#45;4812</title>
<path fill="none" stroke="black" d="M1675.97,-505.066C1651.27,-465.498 1594.8,-360.716 1637.5,-288 1652.22,-262.92 1683.61,-248.835 1706.28,-241.592"/>
</g>
<!-- 4806&#45;&#45;4808 -->
<g id="edge53" class="edge"><title>4806&#45;&#45;4808</title>
<path fill="none" stroke="black" d="M1722.49,-435.17C1737.56,-422.898 1759.48,-405.064 1774.54,-392.801"/>
</g>
<!-- 4806&#45;&#45;4810 -->
<g id="edge54" class="edge"><title>4806&#45;&#45;4810</title>
<path fill="none" stroke="black" d="M1701.88,-431.871C1696.11,-404.578 1684.9,-351.52 1679.13,-324.189"/>
</g>
<!-- 4806&#45;&#45;4812 -->
<g id="edge55" class="edge"><title>4806&#45;&#45;4812</title>
<path fill="none" stroke="black" d="M1707.66,-431.849C1712.72,-391.78 1725.26,-292.383 1730.32,-252.232"/>
</g>
<!-- 4808&#45;&#45;4810 -->
<g id="edge56" class="edge"><title>4808&#45;&#45;4810</title>
<path fill="none" stroke="black" d="M1771.56,-364.967C1750.31,-352.145 1716.86,-331.962 1695.57,-319.111"/>
</g>
<!-- 4808&#45;&#45;4812 -->
<g id="edge57" class="edge"><title>4808&#45;&#45;4812</title>
<path fill="none" stroke="black" d="M1784.61,-360.433C1773.31,-333.217 1750.92,-279.334 1739.52,-251.902"/>
</g>
<!-- 4832 -->
<g id="node37" class="node"><title>4832</title>
<ellipse fill="none" stroke="black" cx="1895.5" cy="-306" rx="28.6953" ry="18"/>
<text text-anchor="middle" x="1895.5" y="-302.3" font-family="Times New Roman,serif" font-size="14.00">4832</text>
</g>
<!-- 4808&#45;&#45;4832 -->
<g id="edge58" class="edge"><title>4808&#45;&#45;4832</title>
<path fill="none" stroke="black" d="M1810.57,-364.161C1829.34,-351.531 1857.82,-332.36 1876.54,-319.758"/>
</g>
<!-- 4810&#45;&#45;4812 -->
<g id="edge59" class="edge"><title>4810&#45;&#45;4812</title>
<path fill="none" stroke="black" d="M1688.15,-289.465C1697.59,-277.865 1710.44,-262.082 1719.88,-250.492"/>
</g>
<!-- 4827 -->
<g id="node38" class="node"><title>4827</title>
<ellipse fill="none" stroke="black" cx="1895.5" cy="-522" rx="28.6953" ry="18"/>
<text text-anchor="middle" x="1895.5" y="-518.3" font-family="Times New Roman,serif" font-size="14.00">4827</text>
</g>
<!-- 4827&#45;&#45;4808 -->
<g id="edge61" class="edge"><title>4827&#45;&#45;4808</title>
<path fill="none" stroke="black" d="M1883.97,-505.261C1863.98,-477.966 1823.1,-422.154 1803.08,-394.81"/>
</g>
<!-- 4827&#45;&#45;4832 -->
<g id="edge62" class="edge"><title>4827&#45;&#45;4832</title>
<path fill="none" stroke="black" d="M1910,-506.203C1918.66,-496.288 1928.85,-482.444 1933.5,-468 1950.2,-416.051 1921.18,-352.528 1905.1,-323.227"/>
</g>
<!-- 4828 -->
<g id="node39" class="node"><title>4828</title>
<ellipse fill="none" stroke="black" cx="1895.5" cy="-450" rx="28.6953" ry="18"/>
<text text-anchor="middle" x="1895.5" y="-446.3" font-family="Times New Roman,serif" font-size="14.00">4828</text>
</g>
<!-- 4827&#45;&#45;4828 -->
<g id="edge60" class="edge"><title>4827&#45;&#45;4828</title>
<path fill="none" stroke="black" d="M1895.5,-503.697C1895.5,-492.846 1895.5,-478.917 1895.5,-468.104"/>
</g>
<!-- 4828&#45;&#45;4808 -->
<g id="edge63" class="edge"><title>4828&#45;&#45;4808</title>
<path fill="none" stroke="black" d="M1876.42,-436.161C1857.66,-423.531 1829.17,-404.36 1810.45,-391.758"/>
</g>
<!-- 4828&#45;&#45;4832 -->
<g id="edge64" class="edge"><title>4828&#45;&#45;4832</title>
<path fill="none" stroke="black" d="M1895.5,-431.871C1895.5,-404.578 1895.5,-351.52 1895.5,-324.189"/>
</g>
<!-- 5845 -->
<g id="node40" class="node"><title>5845</title>
<polygon fill="#483548" stroke="#483548" points="1206.5,-612 1152.5,-612 1152.5,-576 1206.5,-576 1206.5,-612"/>
<text text-anchor="middle" x="1179.5" y="-590.3" font-family="Times New Roman,serif" font-size="14.00">5845</text>
</g>
<!-- 5845&#45;&#45;1385 -->
<g id="edge66" class="edge"><title>5845&#45;&#45;1385</title>
<path fill="none" stroke="black" d="M1183.62,-575.897C1187.39,-557.947 1191.9,-528.928 1188.5,-504 1175.01,-405.039 1164.57,-380.335 1126.5,-288 1112.7,-254.549 1114.06,-241.608 1088.5,-216 1067.95,-195.419 1037.74,-180.921 1015.9,-172.351"/>
</g>
<!-- 5845&#45;&#45;11038 -->
<g id="edge70" class="edge"><title>5845&#45;&#45;11038</title>
<path fill="none" stroke="black" d="M1206.81,-584.391C1254.87,-567.344 1349.5,-524.45 1349.5,-451 1349.5,-451 1349.5,-451 1349.5,-233 1349.5,-165.469 1268.39,-120.828 1224.67,-101.669"/>
</g>
<!-- 5845&#45;&#45;6128 -->
<g id="edge68" class="edge"><title>5845&#45;&#45;6128</title>
<path fill="none" stroke="black" d="M1152.12,-575.871C1108.37,-548.505 1023.21,-495.233 979.622,-467.968"/>
</g>
<!-- 5845&#45;&#45;5927 -->
<g id="edge69" class="edge"><title>5845&#45;&#45;5927</title>
<path fill="none" stroke="black" d="M1152.25,-590.026C1095.44,-582.149 965.53,-554.976 916.497,-468 890.236,-421.416 913.422,-355.295 927.123,-324.297"/>
</g>
<!-- 5846 -->
<g id="node41" class="node"><title>5846</title>
<ellipse fill="#483548" stroke="#483548" cx="1254.5" cy="-234" rx="28.6953" ry="18"/>
<text text-anchor="middle" x="1254.5" y="-230.3" font-family="Times New Roman,serif" font-size="14.00">5846</text>
</g>
<!-- 5845&#45;&#45;5846 -->
<g id="edge65" class="edge"><title>5845&#45;&#45;5846</title>
<path fill="none" stroke="black" d="M1195.53,-575.935C1204.15,-566.041 1214.44,-552.999 1221.5,-540 1241.42,-503.32 1251.5,-492.742 1251.5,-451 1251.5,-451 1251.5,-451 1251.5,-377 1251.5,-331.875 1253.03,-278.703 1253.9,-252.047"/>
</g>
<!-- 11032 -->
<g id="node42" class="node"><title>11032</title>
<polygon fill="#6f4164" stroke="#6f4164" points="1179.5,-540 1125.5,-540 1125.5,-504 1179.5,-504 1179.5,-540"/>
<text text-anchor="middle" x="1152.5" y="-518.3" font-family="Times New Roman,serif" font-size="14.00">11032</text>
</g>
<!-- 5845&#45;&#45;11032 -->
<g id="edge67" class="edge"><title>5845&#45;&#45;11032</title>
<path fill="none" stroke="black" d="M1172.82,-575.697C1168.64,-564.846 1163.26,-550.917 1159.09,-540.104"/>
</g>
<!-- 5846&#45;&#45;1385 -->
<g id="edge71" class="edge"><title>5846&#45;&#45;1385</title>
<path fill="none" stroke="black" d="M1228.51,-226.161C1178.05,-212.881 1067.26,-183.726 1015.78,-170.18"/>
</g>
<!-- 11032&#45;&#45;1385 -->
<g id="edge74" class="edge"><title>11032&#45;&#45;1385</title>
<path fill="none" stroke="black" d="M1151.91,-503.65C1149.34,-453.348 1135.54,-305.349 1061.5,-216 1048.81,-200.685 1030.74,-187.522 1015.76,-178.144"/>
</g>
<!-- 11032&#45;&#45;11038 -->
<g id="edge75" class="edge"><title>11032&#45;&#45;11038</title>
<path fill="none" stroke="black" d="M1179.83,-511.14C1225.29,-492.779 1311.5,-448.764 1311.5,-379 1311.5,-379 1311.5,-379 1311.5,-233 1311.5,-177.675 1258.22,-131.633 1224.51,-108.036"/>
</g>
<!-- 11032&#45;&#45;6128 -->
<g id="edge72" class="edge"><title>11032&#45;&#45;6128</title>
<path fill="none" stroke="black" d="M1125.28,-512.58C1093.46,-502.583 1039.29,-485.102 993.497,-468 989.021,-466.329 984.309,-464.47 979.737,-462.612"/>
</g>
<!-- 11032&#45;&#45;5927 -->
<g id="edge73" class="edge"><title>11032&#45;&#45;5927</title>
<path fill="none" stroke="black" d="M1125.31,-503.937C1091.51,-481.847 1033.32,-440.83 992.497,-396 972.114,-373.614 954.327,-343.113 944.257,-324.257"/>
</g>
<!-- 6651 -->
<g id="node43" class="node"><title>6651</title>
<ellipse fill="none" stroke="black" cx="2094.5" cy="-594" rx="28.6953" ry="18"/>
<text text-anchor="middle" x="2094.5" y="-590.3" font-family="Times New Roman,serif" font-size="14.00">6651</text>
</g>
<!-- 6652 -->
<g id="node44" class="node"><title>6652</title>
<ellipse fill="none" stroke="black" cx="2094.5" cy="-522" rx="28.6953" ry="18"/>
<text text-anchor="middle" x="2094.5" y="-518.3" font-family="Times New Roman,serif" font-size="14.00">6652</text>
</g>
<!-- 6651&#45;&#45;6652 -->
<g id="edge76" class="edge"><title>6651&#45;&#45;6652</title>
<path fill="none" stroke="black" d="M2094.5,-575.697C2094.5,-564.846 2094.5,-550.917 2094.5,-540.104"/>
</g>
<!-- 6654 -->
<g id="node45" class="node"><title>6654</title>
<ellipse fill="none" stroke="black" cx="2047.5" cy="-450" rx="28.6953" ry="18"/>
<text text-anchor="middle" x="2047.5" y="-446.3" font-family="Times New Roman,serif" font-size="14.00">6654</text>
</g>
<!-- 6651&#45;&#45;6654 -->
<g id="edge77" class="edge"><title>6651&#45;&#45;6654</title>
<path fill="none" stroke="black" d="M2080.49,-578.031C2072.02,-568.048 2061.86,-554.191 2056.5,-540 2047.55,-516.321 2046.35,-486.714 2046.65,-468.328"/>
</g>
<!-- 6656 -->
<g id="node46" class="node"><title>6656</title>
<ellipse fill="none" stroke="black" cx="2104.5" cy="-378" rx="28.6953" ry="18"/>
<text text-anchor="middle" x="2104.5" y="-374.3" font-family="Times New Roman,serif" font-size="14.00">6656</text>
</g>
<!-- 6651&#45;&#45;6656 -->
<g id="edge78" class="edge"><title>6651&#45;&#45;6656</title>
<path fill="none" stroke="black" d="M2109,-578.203C2117.66,-568.288 2127.85,-554.444 2132.5,-540 2148.99,-488.681 2125.58,-424.853 2112.41,-395.353"/>
</g>
<!-- 6652&#45;&#45;6654 -->
<g id="edge79" class="edge"><title>6652&#45;&#45;6654</title>
<path fill="none" stroke="black" d="M2083.83,-505.116C2076.14,-493.66 2065.8,-478.263 2058.12,-466.821"/>
</g>
<!-- 6652&#45;&#45;6656 -->
<g id="edge80" class="edge"><title>6652&#45;&#45;6656</title>
<path fill="none" stroke="black" d="M2095.7,-503.871C2097.63,-476.578 2101.36,-423.52 2103.29,-396.189"/>
</g>
<!-- 6654&#45;&#45;6656 -->
<g id="edge81" class="edge"><title>6654&#45;&#45;6656</title>
<path fill="none" stroke="black" d="M2060.15,-433.465C2069.59,-421.865 2082.44,-406.082 2091.88,-394.492"/>
</g>
<!-- 6727 -->
<g id="node47" class="node"><title>6727</title>
<polygon fill="#3a3941" stroke="#3a3941" points="574.497,-468 520.497,-468 520.497,-432 574.497,-432 574.497,-468"/>
<text text-anchor="middle" x="547.497" y="-446.3" font-family="Times New Roman,serif" font-size="14.00">6727</text>
</g>
<!-- 6727&#45;&#45;5338 -->
<g id="edge84" class="edge"><title>6727&#45;&#45;5338</title>
<path fill="none" stroke="black" d="M560.58,-431.891C567.338,-421.983 574.904,-408.942 578.497,-396 592.557,-345.363 587.045,-282.271 583.125,-252.326"/>
</g>
<!-- 6727&#45;&#45;6734 -->
<g id="edge85" class="edge"><title>6727&#45;&#45;6734</title>
<path fill="none" stroke="black" d="M527.99,-431.942C504.491,-409.856 466.542,-368.844 453.497,-324 440.088,-277.902 443.275,-263.299 451.497,-216 453.64,-203.673 458.39,-190.423 462.604,-180.255"/>
</g>
<!-- 6727&#45;&#45;6736 -->
<g id="edge86" class="edge"><title>6727&#45;&#45;6736</title>
<path fill="none" stroke="black" d="M574.527,-434.386C611.55,-412.171 673.497,-366.161 673.497,-307 673.497,-307 673.497,-307 673.497,-233 673.497,-180.839 629.039,-132.925 601.6,-108.32"/>
</g>
<!-- 6728 -->
<g id="node48" class="node"><title>6728</title>
<polygon fill="#68708e" stroke="#68708e" points="569.497,-396 515.497,-396 515.497,-360 569.497,-360 569.497,-396"/>
<text text-anchor="middle" x="542.497" y="-374.3" font-family="Times New Roman,serif" font-size="14.00">6728</text>
</g>
<!-- 6727&#45;&#45;6728 -->
<g id="edge82" class="edge"><title>6727&#45;&#45;6728</title>
<path fill="none" stroke="black" d="M546.261,-431.697C545.486,-420.846 544.491,-406.917 543.719,-396.104"/>
</g>
<!-- 6730 -->
<g id="node49" class="node"><title>6730</title>
<polygon fill="#764f97" stroke="#764f97" points="531.497,-324 477.497,-324 477.497,-288 531.497,-288 531.497,-324"/>
<text text-anchor="middle" x="504.497" y="-302.3" font-family="Times New Roman,serif" font-size="14.00">6730</text>
</g>
<!-- 6727&#45;&#45;6730 -->
<g id="edge83" class="edge"><title>6727&#45;&#45;6730</title>
<path fill="none" stroke="black" d="M529.452,-431.634C520.77,-422.042 511.236,-409.378 506.497,-396 498.085,-372.254 499.575,-342.665 501.767,-324.301"/>
</g>
<!-- 6728&#45;&#45;5338 -->
<g id="edge88" class="edge"><title>6728&#45;&#45;5338</title>
<path fill="none" stroke="black" d="M547.081,-359.871C554.385,-332.578 568.583,-279.52 575.897,-252.189"/>
</g>
<!-- 6728&#45;&#45;6734 -->
<g id="edge89" class="edge"><title>6728&#45;&#45;6734</title>
<path fill="none" stroke="black" d="M515.436,-365.582C498.59,-356.879 478.319,-343.116 468.497,-324 444.224,-276.759 457.083,-210.956 465.327,-180.166"/>
</g>
<!-- 6728&#45;&#45;6736 -->
<g id="edge90" class="edge"><title>6728&#45;&#45;6736</title>
<path fill="none" stroke="black" d="M556.954,-359.798C575.116,-336.922 605.266,-294.42 616.497,-252 630.279,-199.947 604.404,-137.519 589.685,-108.026"/>
</g>
<!-- 6728&#45;&#45;6730 -->
<g id="edge87" class="edge"><title>6728&#45;&#45;6730</title>
<path fill="none" stroke="black" d="M533.104,-359.697C527.214,-348.846 519.652,-334.917 513.782,-324.104"/>
</g>
<!-- 6730&#45;&#45;5338 -->
<g id="edge91" class="edge"><title>6730&#45;&#45;5338</title>
<path fill="none" stroke="black" d="M523.284,-287.697C535.064,-276.846 550.188,-262.917 561.927,-252.104"/>
</g>
<!-- 6730&#45;&#45;6734 -->
<g id="edge92" class="edge"><title>6730&#45;&#45;6734</title>
<path fill="none" stroke="black" d="M500.396,-287.871C493.861,-260.578 481.157,-207.52 474.613,-180.189"/>
</g>
<!-- 6730&#45;&#45;6736 -->
<g id="edge93" class="edge"><title>6730&#45;&#45;6736</title>
<path fill="none" stroke="black" d="M510.588,-287.849C524.818,-247.78 560.118,-148.383 574.377,-108.232"/>
</g>
<!-- 9395 -->
<g id="node50" class="node"><title>9395</title>
<ellipse fill="none" stroke="black" cx="2208.5" cy="-594" rx="28.6953" ry="18"/>
<text text-anchor="middle" x="2208.5" y="-590.3" font-family="Times New Roman,serif" font-size="14.00">9395</text>
</g>
<!-- 9396 -->
<g id="node51" class="node"><title>9396</title>
<ellipse fill="none" stroke="black" cx="2208.5" cy="-522" rx="28.6953" ry="18"/>
<text text-anchor="middle" x="2208.5" y="-518.3" font-family="Times New Roman,serif" font-size="14.00">9396</text>
</g>
<!-- 9395&#45;&#45;9396 -->
<g id="edge94" class="edge"><title>9395&#45;&#45;9396</title>
<path fill="none" stroke="black" d="M2208.5,-575.697C2208.5,-564.846 2208.5,-550.917 2208.5,-540.104"/>
</g>
<!-- 9847 -->
<g id="node52" class="node"><title>9847</title>
<ellipse fill="none" stroke="black" cx="2312.5" cy="-594" rx="28.6953" ry="18"/>
<text text-anchor="middle" x="2312.5" y="-590.3" font-family="Times New Roman,serif" font-size="14.00">9847</text>
</g>
<!-- 9848 -->
<g id="node53" class="node"><title>9848</title>
<ellipse fill="none" stroke="black" cx="2283.5" cy="-522" rx="28.6953" ry="18"/>
<text text-anchor="middle" x="2283.5" y="-518.3" font-family="Times New Roman,serif" font-size="14.00">9848</text>
</g>
<!-- 9847&#45;&#45;9848 -->
<g id="edge95" class="edge"><title>9847&#45;&#45;9848</title>
<path fill="none" stroke="black" d="M2305.62,-576.411C2301.07,-565.414 2295.11,-551.027 2290.52,-539.956"/>
</g>
<!-- 9850 -->
<g id="node54" class="node"><title>9850</title>
<ellipse fill="none" stroke="black" cx="2307.5" cy="-450" rx="28.6953" ry="18"/>
<text text-anchor="middle" x="2307.5" y="-446.3" font-family="Times New Roman,serif" font-size="14.00">9850</text>
</g>
<!-- 9847&#45;&#45;9850 -->
<g id="edge96" class="edge"><title>9847&#45;&#45;9850</title>
<path fill="none" stroke="black" d="M2316.56,-575.905C2320.27,-557.962 2324.74,-528.949 2321.5,-504 2319.9,-491.731 2316.32,-478.255 2313.18,-467.962"/>
</g>
<!-- 9848&#45;&#45;9850 -->
<g id="edge97" class="edge"><title>9848&#45;&#45;9850</title>
<path fill="none" stroke="black" d="M2289.31,-504.055C2293.08,-493.049 2297.98,-478.764 2301.74,-467.789"/>
</g>
<!-- 10175 -->
<g id="node55" class="node"><title>10175</title>
<polygon fill="#76665c" stroke="#76665c" points="2547.5,-612 2493.5,-612 2493.5,-576 2547.5,-576 2547.5,-612"/>
<text text-anchor="middle" x="2520.5" y="-590.3" font-family="Times New Roman,serif" font-size="14.00">10175</text>
</g>
<!-- 10176 -->
<g id="node56" class="node"><title>10176</title>
<polygon fill="#633b7f" stroke="#633b7f" points="2547.5,-540 2493.5,-540 2493.5,-504 2547.5,-504 2547.5,-540"/>
<text text-anchor="middle" x="2520.5" y="-518.3" font-family="Times New Roman,serif" font-size="14.00">10176</text>
</g>
<!-- 10175&#45;&#45;10176 -->
<g id="edge98" class="edge"><title>10175&#45;&#45;10176</title>
<path fill="none" stroke="black" d="M2520.5,-575.697C2520.5,-564.846 2520.5,-550.917 2520.5,-540.104"/>
</g>
<!-- 10178 -->
<g id="node57" class="node"><title>10178</title>
<polygon fill="#956883" stroke="#956883" points="2621.5,-468 2567.5,-468 2567.5,-432 2621.5,-432 2621.5,-468"/>
<text text-anchor="middle" x="2594.5" y="-446.3" font-family="Times New Roman,serif" font-size="14.00">10178</text>
</g>
<!-- 10175&#45;&#45;10178 -->
<g id="edge99" class="edge"><title>10175&#45;&#45;10178</title>
<path fill="none" stroke="black" d="M2533.38,-575.871C2540.67,-565.744 2549.67,-552.494 2556.5,-540 2569.63,-515.968 2581.44,-486.458 2588.29,-468.188"/>
</g>
<!-- 10180 -->
<g id="node58" class="node"><title>10180</title>
<polygon fill="#623a8d" stroke="#623a8d" points="2621.5,-396 2567.5,-396 2567.5,-360 2621.5,-360 2621.5,-396"/>
<text text-anchor="middle" x="2594.5" y="-374.3" font-family="Times New Roman,serif" font-size="14.00">10180</text>
</g>
<!-- 10175&#45;&#45;10180 -->
<g id="edge100" class="edge"><title>10175&#45;&#45;10180</title>
<path fill="none" stroke="black" d="M2544.84,-575.632C2572.49,-554.117 2615.68,-514.553 2630.5,-468 2635.35,-452.754 2635.2,-447.293 2630.5,-432 2626.44,-418.816 2617.87,-405.97 2610.11,-396.226"/>
</g>
<!-- 10182 -->
<g id="node59" class="node"><title>10182</title>
<polygon fill="#786b66" stroke="#786b66" points="2555.5,-324 2501.5,-324 2501.5,-288 2555.5,-288 2555.5,-324"/>
<text text-anchor="middle" x="2528.5" y="-302.3" font-family="Times New Roman,serif" font-size="14.00">10182</text>
</g>
<!-- 10175&#45;&#45;10182 -->
<g id="edge101" class="edge"><title>10175&#45;&#45;10182</title>
<path fill="none" stroke="black" d="M2504.89,-575.774C2497.12,-566.03 2488.55,-553.184 2484.5,-540 2460.3,-461.304 2500.77,-363.359 2519.63,-324.273"/>
</g>
<!-- 10184 -->
<g id="node60" class="node"><title>10184</title>
<polygon fill="#8e589b" stroke="#8e589b" points="2555.5,-252 2501.5,-252 2501.5,-216 2555.5,-216 2555.5,-252"/>
<text text-anchor="middle" x="2528.5" y="-230.3" font-family="Times New Roman,serif" font-size="14.00">10184</text>
</g>
<!-- 10175&#45;&#45;10184 -->
<g id="edge102" class="edge"><title>10175&#45;&#45;10184</title>
<path fill="none" stroke="black" d="M2493.26,-579.498C2454.35,-558.06 2387.5,-512.306 2387.5,-451 2387.5,-451 2387.5,-451 2387.5,-377 2387.5,-313.075 2460.34,-267.685 2501.31,-247.209"/>
</g>
<!-- 10176&#45;&#45;10178 -->
<g id="edge103" class="edge"><title>10176&#45;&#45;10178</title>
<path fill="none" stroke="black" d="M2538.79,-503.697C2550.26,-492.846 2564.99,-478.917 2576.42,-468.104"/>
</g>
<!-- 10176&#45;&#45;10180 -->
<g id="edge104" class="edge"><title>10176&#45;&#45;10180</title>
<path fill="none" stroke="black" d="M2526.7,-503.812C2533.55,-485.542 2545.37,-456.032 2558.5,-432 2565.32,-419.506 2574.32,-406.256 2581.62,-396.129"/>
</g>
<!-- 10176&#45;&#45;10182 -->
<g id="edge105" class="edge"><title>10176&#45;&#45;10182</title>
<path fill="none" stroke="black" d="M2521.14,-503.849C2522.64,-463.78 2526.35,-364.383 2527.85,-324.232"/>
</g>
<!-- 10176&#45;&#45;10184 -->
<g id="edge106" class="edge"><title>10176&#45;&#45;10184</title>
<path fill="none" stroke="black" d="M2513.73,-503.904C2499.26,-464.779 2468.49,-366.08 2492.5,-288 2496.55,-274.816 2505.12,-261.97 2512.89,-252.226"/>
</g>
<!-- 10178&#45;&#45;10180 -->
<g id="edge107" class="edge"><title>10178&#45;&#45;10180</title>
<path fill="none" stroke="black" d="M2594.5,-431.697C2594.5,-420.846 2594.5,-406.917 2594.5,-396.104"/>
</g>
<!-- 10178&#45;&#45;10182 -->
<g id="edge108" class="edge"><title>10178&#45;&#45;10182</title>
<path fill="none" stroke="black" d="M2580.9,-431.59C2573.55,-421.588 2564.73,-408.553 2558.5,-396 2546.68,-372.195 2537.75,-342.623 2532.82,-324.278"/>
</g>
<!-- 10178&#45;&#45;10184 -->
<g id="edge109" class="edge"><title>10178&#45;&#45;10184</title>
<path fill="none" stroke="black" d="M2610.11,-431.774C2617.87,-422.03 2626.44,-409.184 2630.5,-396 2635.2,-380.707 2634.83,-375.402 2630.5,-360 2617.6,-314.164 2576.85,-274.081 2550.93,-252.324"/>
</g>
<!-- 10180&#45;&#45;10182 -->
<g id="edge110" class="edge"><title>10180&#45;&#45;10182</title>
<path fill="none" stroke="black" d="M2578.18,-359.697C2567.95,-348.846 2554.82,-334.917 2544.62,-324.104"/>
</g>
<!-- 10180&#45;&#45;10184 -->
<g id="edge111" class="edge"><title>10180&#45;&#45;10184</title>
<path fill="none" stroke="black" d="M2590.18,-359.722C2585.25,-341.377 2576.32,-311.805 2564.5,-288 2558.26,-275.447 2549.45,-262.412 2542.1,-252.41"/>
</g>
<!-- 10182&#45;&#45;10184 -->
<g id="edge112" class="edge"><title>10182&#45;&#45;10184</title>
<path fill="none" stroke="black" d="M2528.5,-287.697C2528.5,-276.846 2528.5,-262.917 2528.5,-252.104"/>
</g>
<!-- 10367 -->
<g id="node61" class="node"><title>10367</title>
<ellipse fill="#5b6386" stroke="#5b6386" cx="1033.5" cy="-378" rx="32.4942" ry="18"/>
<text text-anchor="middle" x="1033.5" y="-374.3" font-family="Times New Roman,serif" font-size="14.00">10367</text>
</g>
<!-- 10367&#45;&#45;5802 -->
<g id="edge114" class="edge"><title>10367&#45;&#45;5802</title>
<path fill="none" stroke="black" d="M1028.16,-360.153C1019.5,-332.824 1002.49,-279.14 993.829,-251.825"/>
</g>
<!-- 10367&#45;&#45;5927 -->
<g id="edge113" class="edge"><title>10367&#45;&#45;5927</title>
<path fill="none" stroke="black" d="M1014.14,-363.17C998.405,-351.934 976.147,-336.036 959.324,-324.019"/>
</g>
</g>
</svg>
