<svg width="1930px" height="539px"
 viewBox="0.00 0.00 1447.50 404.00" xmlns="http://www.w3.org/2000/svg" xmlns:xlink="http://www.w3.org/1999/xlink">
<g id="graph0" class="graph" transform="scale(1.000022500562514 1.000022500562514) rotate(0) translate(4 400)">
<title>G</title>
<polygon fill="white" stroke="none" points="-4,4 -4,-400 1443.5,-400 1443.5,4 -4,4"/>
<!-- 2507 -->
<g id="node1" class="node"><title>2507</title>
<polygon fill="#328a89" stroke="#328a89" points="342.497,-252 288.497,-252 288.497,-216 342.497,-216 342.497,-252"/>
<text text-anchor="middle" x="315.497" y="-230.3" font-family="Times New Roman,serif" font-size="14.00">2507</text>
</g>
<!-- 2508 -->
<g id="node2" class="node"><title>2508</title>
<polygon fill="#639575" stroke="#639575" points="322.497,-180 268.497,-180 268.497,-144 322.497,-144 322.497,-180"/>
<text text-anchor="middle" x="295.497" y="-158.3" font-family="Times New Roman,serif" font-size="14.00">2508</text>
</g>
<!-- 2507&#45;&#45;2508 -->
<g id="edge1" class="edge"><title>2507&#45;&#45;2508</title>
<path fill="none" stroke="black" d="M310.553,-215.697C307.453,-204.846 303.473,-190.917 300.384,-180.104"/>
</g>
<!-- 2510 -->
<g id="node5" class="node"><title>2510</title>
<polygon fill="#3a6952" stroke="#3a6952" points="482.497,-36 428.497,-36 428.497,-0 482.497,-0 482.497,-36"/>
<text text-anchor="middle" x="455.497" y="-14.3" font-family="Times New Roman,serif" font-size="14.00">2510</text>
</g>
<!-- 2507&#45;&#45;2510 -->
<g id="edge2" class="edge"><title>2507&#45;&#45;2510</title>
<path fill="none" stroke="black" d="M325.316,-215.697C342.47,-185.786 379.418,-122.743 414.497,-72 422.965,-59.7514 433.215,-46.5014 441.348,-36.3135"/>
</g>
<!-- 2514 -->
<g id="node3" class="node"><title>2514</title>
<polygon fill="#4f949b" stroke="#4f949b" points="172.497,-108 118.497,-108 118.497,-72 172.497,-72 172.497,-108"/>
<text text-anchor="middle" x="145.497" y="-86.3" font-family="Times New Roman,serif" font-size="14.00">2514</text>
</g>
<!-- 2508&#45;&#45;2514 -->
<g id="edge3" class="edge"><title>2508&#45;&#45;2514</title>
<path fill="none" stroke="black" d="M268.333,-148.324C241.233,-135.677 199.83,-116.356 172.712,-103.7"/>
</g>
<!-- 2522 -->
<g id="node4" class="node"><title>2522</title>
<ellipse fill="none" stroke="black" cx="173.497" cy="-18" rx="28.6953" ry="18"/>
<text text-anchor="middle" x="173.497" y="-14.3" font-family="Times New Roman,serif" font-size="14.00">2522</text>
</g>
<!-- 2508&#45;&#45;2522 -->
<g id="edge4" class="edge"><title>2508&#45;&#45;2522</title>
<path fill="none" stroke="black" d="M280.781,-143.871C256.825,-115.988 209.766,-61.214 186.774,-34.453"/>
</g>
<!-- 2508&#45;&#45;2510 -->
<g id="edge5" class="edge"><title>2508&#45;&#45;2510</title>
<path fill="none" stroke="black" d="M309.03,-143.792C324.289,-124.979 350.392,-94.5141 376.497,-72 392.631,-58.0854 412.565,-44.7363 428.372,-34.9159"/>
</g>
<!-- 9692 -->
<g id="node6" class="node"><title>9692</title>
<ellipse fill="#639575" stroke="#639575" cx="295.497" cy="-90" rx="28.6953" ry="18"/>
<text text-anchor="middle" x="295.497" y="-86.3" font-family="Times New Roman,serif" font-size="14.00">9692</text>
</g>
<!-- 2508&#45;&#45;9692 -->
<g id="edge6" class="edge"><title>2508&#45;&#45;9692</title>
<path fill="none" stroke="black" d="M295.497,-143.697C295.497,-132.846 295.497,-118.917 295.497,-108.104"/>
</g>
<!-- 2514&#45;&#45;2522 -->
<g id="edge7" class="edge"><title>2514&#45;&#45;2522</title>
<path fill="none" stroke="black" d="M152.418,-71.6966C156.823,-60.6843 162.497,-46.5002 166.848,-35.6223"/>
</g>
<!-- 2514&#45;&#45;2510 -->
<g id="edge8" class="edge"><title>2514&#45;&#45;2510</title>
<path fill="none" stroke="black" d="M172.736,-82.8493C231.539,-69.5713 369.784,-38.3546 428.431,-25.1118"/>
</g>
<!-- 2511 -->
<g id="node7" class="node"><title>2511</title>
<polygon fill="#70768f" stroke="#70768f" points="383.497,-324 329.497,-324 329.497,-288 383.497,-288 383.497,-324"/>
<text text-anchor="middle" x="356.497" y="-302.3" font-family="Times New Roman,serif" font-size="14.00">2511</text>
</g>
<!-- 2511&#45;&#45;2514 -->
<g id="edge10" class="edge"><title>2511&#45;&#45;2514</title>
<path fill="none" stroke="black" d="M329.143,-288.773C313.79,-279.046 294.721,-265.894 279.497,-252 228.461,-205.422 179.369,-139.298 157.448,-108.298"/>
</g>
<!-- 2511&#45;&#45;2510 -->
<g id="edge11" class="edge"><title>2511&#45;&#45;2510</title>
<path fill="none" stroke="black" d="M370.296,-287.846C386.503,-268.52 414.948,-237.063 444.497,-216 474.605,-194.538 496.508,-208.959 519.497,-180 549.667,-141.995 558.455,-114.749 535.497,-72 524.383,-51.3046 501.243,-37.3284 482.696,-28.9479"/>
</g>
<!-- 2512 -->
<g id="node8" class="node"><title>2512</title>
<polygon fill="#8c8335" stroke="#8c8335" points="623.497,-180 569.497,-180 569.497,-144 623.497,-144 623.497,-180"/>
<text text-anchor="middle" x="596.497" y="-158.3" font-family="Times New Roman,serif" font-size="14.00">2512</text>
</g>
<!-- 2511&#45;&#45;2512 -->
<g id="edge9" class="edge"><title>2511&#45;&#45;2512</title>
<path fill="none" stroke="black" d="M383.562,-288.987C429.655,-261.715 522.887,-206.553 569.163,-179.173"/>
</g>
<!-- 6692 -->
<g id="node9" class="node"><title>6692</title>
<polygon fill="#563783" stroke="#563783" points="207.497,-252 153.497,-252 153.497,-216 207.497,-216 207.497,-252"/>
<text text-anchor="middle" x="180.497" y="-230.3" font-family="Times New Roman,serif" font-size="14.00">6692</text>
</g>
<!-- 2511&#45;&#45;6692 -->
<g id="edge12" class="edge"><title>2511&#45;&#45;6692</title>
<path fill="none" stroke="black" d="M329.287,-294.492C301.979,-283.905 258.739,-267.03 221.497,-252 217.067,-250.212 212.378,-248.293 207.815,-246.411"/>
</g>
<!-- 2512&#45;&#45;2510 -->
<g id="edge13" class="edge"><title>2512&#45;&#45;2510</title>
<path fill="none" stroke="black" d="M600.366,-143.775C603.674,-124.383 605.776,-92.867 590.497,-72 565.284,-37.5651 514.276,-25.4949 482.685,-21.2696"/>
</g>
<!-- 6692&#45;&#45;2514 -->
<g id="edge14" class="edge"><title>6692&#45;&#45;2514</title>
<path fill="none" stroke="black" d="M176.275,-215.871C169.548,-188.578 156.47,-135.52 149.734,-108.189"/>
</g>
<!-- 6692&#45;&#45;2510 -->
<g id="edge15" class="edge"><title>6692&#45;&#45;2510</title>
<path fill="none" stroke="black" d="M183.778,-215.746C190.986,-182.687 211.378,-110.307 257.497,-72 307.455,-30.5054 386.81,-21.2377 428.259,-19.3365"/>
</g>
<!-- 6968 -->
<g id="node10" class="node"><title>6968</title>
<polygon fill="#385269" stroke="#385269" points="59.4971,-180 5.49712,-180 5.49712,-144 59.4971,-144 59.4971,-180"/>
<text text-anchor="middle" x="32.4971" y="-158.3" font-family="Times New Roman,serif" font-size="14.00">6968</text>
</g>
<!-- 6692&#45;&#45;6968 -->
<g id="edge16" class="edge"><title>6692&#45;&#45;6968</title>
<path fill="none" stroke="black" d="M153.352,-220.161C126.731,-207.57 86.3681,-188.48 59.7207,-175.876"/>
</g>
<!-- 6968&#45;&#45;2514 -->
<g id="edge17" class="edge"><title>6968&#45;&#45;2514</title>
<path fill="none" stroke="black" d="M59.5634,-144.233C77.3231,-133.232 100.466,-118.895 118.26,-107.873"/>
</g>
<!-- 11054 -->
<g id="node11" class="node"><title>11054</title>
<ellipse fill="#385269" stroke="#385269" cx="32.4971" cy="-90" rx="32.4942" ry="18"/>
<text text-anchor="middle" x="32.4971" y="-86.3" font-family="Times New Roman,serif" font-size="14.00">11054</text>
</g>
<!-- 6968&#45;&#45;11054 -->
<g id="edge18" class="edge"><title>6968&#45;&#45;11054</title>
<path fill="none" stroke="black" d="M32.4971,-143.697C32.4971,-132.846 32.4971,-118.917 32.4971,-108.104"/>
</g>
<!-- 5339 -->
<g id="node12" class="node"><title>5339</title>
<ellipse fill="none" stroke="black" cx="746.497" cy="-378" rx="28.6953" ry="18"/>
<text text-anchor="middle" x="746.497" y="-374.3" font-family="Times New Roman,serif" font-size="14.00">5339</text>
</g>
<!-- 5340 -->
<g id="node13" class="node"><title>5340</title>
<ellipse fill="none" stroke="black" cx="779.497" cy="-306" rx="28.6953" ry="18"/>
<text text-anchor="middle" x="779.497" y="-302.3" font-family="Times New Roman,serif" font-size="14.00">5340</text>
</g>
<!-- 5339&#45;&#45;5340 -->
<g id="edge19" class="edge"><title>5339&#45;&#45;5340</title>
<path fill="none" stroke="black" d="M754.318,-360.411C759.578,-349.252 766.484,-334.604 771.733,-323.47"/>
</g>
<!-- 5342 -->
<g id="node14" class="node"><title>5342</title>
<ellipse fill="none" stroke="black" cx="709.497" cy="-234" rx="28.6953" ry="18"/>
<text text-anchor="middle" x="709.497" y="-230.3" font-family="Times New Roman,serif" font-size="14.00">5342</text>
</g>
<!-- 5339&#45;&#45;5342 -->
<g id="edge20" class="edge"><title>5339&#45;&#45;5342</title>
<path fill="none" stroke="black" d="M742.107,-360.153C734.986,-332.824 720.998,-279.14 713.881,-251.825"/>
</g>
<!-- 5340&#45;&#45;5342 -->
<g id="edge21" class="edge"><title>5340&#45;&#45;5342</title>
<path fill="none" stroke="black" d="M764.652,-290.155C752.773,-278.276 736.195,-261.697 724.321,-249.824"/>
</g>
<!-- 7274 -->
<g id="node15" class="node"><title>7274</title>
<ellipse fill="none" stroke="black" cx="784.497" cy="-234" rx="28.6953" ry="18"/>
<text text-anchor="middle" x="784.497" y="-230.3" font-family="Times New Roman,serif" font-size="14.00">7274</text>
</g>
<!-- 5340&#45;&#45;7274 -->
<g id="edge22" class="edge"><title>5340&#45;&#45;7274</title>
<path fill="none" stroke="black" d="M780.733,-287.697C781.508,-276.846 782.503,-262.917 783.275,-252.104"/>
</g>
<!-- 7276 -->
<g id="node16" class="node"><title>7276</title>
<ellipse fill="none" stroke="black" cx="812.497" cy="-162" rx="28.6953" ry="18"/>
<text text-anchor="middle" x="812.497" y="-158.3" font-family="Times New Roman,serif" font-size="14.00">7276</text>
</g>
<!-- 5340&#45;&#45;7276 -->
<g id="edge23" class="edge"><title>5340&#45;&#45;7276</title>
<path fill="none" stroke="black" d="M795.434,-290.993C805.312,-281.196 817.111,-267.188 822.497,-252 831.02,-227.967 824.519,-198.201 818.746,-179.91"/>
</g>
<!-- 7274&#45;&#45;7276 -->
<g id="edge24" class="edge"><title>7274&#45;&#45;7276</title>
<path fill="none" stroke="black" d="M791.133,-216.411C795.531,-205.414 801.286,-191.027 805.715,-179.956"/>
</g>
<!-- 5961 -->
<g id="node17" class="node"><title>5961</title>
<ellipse fill="none" stroke="black" cx="854.497" cy="-378" rx="28.6953" ry="18"/>
<text text-anchor="middle" x="854.497" y="-374.3" font-family="Times New Roman,serif" font-size="14.00">5961</text>
</g>
<!-- 5962 -->
<g id="node18" class="node"><title>5962</title>
<ellipse fill="none" stroke="black" cx="854.497" cy="-306" rx="28.6953" ry="18"/>
<text text-anchor="middle" x="854.497" y="-302.3" font-family="Times New Roman,serif" font-size="14.00">5962</text>
</g>
<!-- 5961&#45;&#45;5962 -->
<g id="edge25" class="edge"><title>5961&#45;&#45;5962</title>
<path fill="none" stroke="black" d="M854.497,-359.697C854.497,-348.846 854.497,-334.917 854.497,-324.104"/>
</g>
<!-- 6689 -->
<g id="node19" class="node"><title>6689</title>
<polygon fill="#5f403e" stroke="#5f403e" points="419.497,-396 365.497,-396 365.497,-360 419.497,-360 419.497,-396"/>
<text text-anchor="middle" x="392.497" y="-374.3" font-family="Times New Roman,serif" font-size="14.00">6689</text>
</g>
<!-- 6689&#45;&#45;2510 -->
<g id="edge28" class="edge"><title>6689&#45;&#45;2510</title>
<path fill="none" stroke="black" d="M419.83,-374.842C486.584,-367.932 652.497,-340.179 652.497,-235 652.497,-235 652.497,-235 652.497,-161 652.497,-117.261 643.1,-101.157 610.497,-72 573.93,-39.2967 516.266,-26.6019 482.539,-21.7997"/>
</g>
<!-- 6689&#45;&#45;2511 -->
<g id="edge26" class="edge"><title>6689&#45;&#45;2511</title>
<path fill="none" stroke="black" d="M383.598,-359.697C378.018,-348.846 370.854,-334.917 365.294,-324.104"/>
</g>
<!-- 6689&#45;&#45;6692 -->
<g id="edge27" class="edge"><title>6689&#45;&#45;6692</title>
<path fill="none" stroke="black" d="M366.925,-359.871C326.178,-332.578 246.964,-279.52 206.16,-252.189"/>
</g>
<!-- 7562 -->
<g id="node20" class="node"><title>7562</title>
<polygon fill="#914034" stroke="#914034" points="455.497,-324 401.497,-324 401.497,-288 455.497,-288 455.497,-324"/>
<text text-anchor="middle" x="428.497" y="-302.3" font-family="Times New Roman,serif" font-size="14.00">7562</text>
</g>
<!-- 6689&#45;&#45;7562 -->
<g id="edge29" class="edge"><title>6689&#45;&#45;7562</title>
<path fill="none" stroke="black" d="M401.396,-359.697C406.976,-348.846 414.14,-334.917 419.701,-324.104"/>
</g>
<!-- 7562&#45;&#45;2510 -->
<g id="edge30" class="edge"><title>7562&#45;&#45;2510</title>
<path fill="none" stroke="black" d="M429.5,-287.714C431.836,-249.003 438.159,-152.428 447.497,-72 448.892,-59.9834 450.934,-46.5039 452.605,-36.146"/>
</g>
<!-- 6701 -->
<g id="node21" class="node"><title>6701</title>
<polygon fill="#3a4965" stroke="#3a4965" points="510.497,-180 456.497,-180 456.497,-144 510.497,-144 510.497,-180"/>
<text text-anchor="middle" x="483.497" y="-158.3" font-family="Times New Roman,serif" font-size="14.00">6701</text>
</g>
<!-- 6701&#45;&#45;2510 -->
<g id="edge32" class="edge"><title>6701&#45;&#45;2510</title>
<path fill="none" stroke="black" d="M499.142,-143.697C513.519,-125.584 530.988,-96.4346 519.497,-72 511.823,-55.6813 496.384,-42.6626 482.593,-33.612"/>
</g>
<!-- 6702 -->
<g id="node22" class="node"><title>6702</title>
<polygon fill="#4e5f35" stroke="#4e5f35" points="510.497,-108 456.497,-108 456.497,-72 510.497,-72 510.497,-108"/>
<text text-anchor="middle" x="483.497" y="-86.3" font-family="Times New Roman,serif" font-size="14.00">6702</text>
</g>
<!-- 6701&#45;&#45;6702 -->
<g id="edge31" class="edge"><title>6701&#45;&#45;6702</title>
<path fill="none" stroke="black" d="M483.497,-143.697C483.497,-132.846 483.497,-118.917 483.497,-108.104"/>
</g>
<!-- 6702&#45;&#45;2510 -->
<g id="edge33" class="edge"><title>6702&#45;&#45;2510</title>
<path fill="none" stroke="black" d="M476.576,-71.6966C472.236,-60.8463 466.664,-46.9167 462.339,-36.1043"/>
</g>
<!-- 6965 -->
<g id="node23" class="node"><title>6965</title>
<polygon fill="#837739" stroke="#837739" points="97.4971,-324 43.4971,-324 43.4971,-288 97.4971,-288 97.4971,-324"/>
<text text-anchor="middle" x="70.4971" y="-302.3" font-family="Times New Roman,serif" font-size="14.00">6965</text>
</g>
<!-- 6965&#45;&#45;2514 -->
<g id="edge36" class="edge"><title>6965&#45;&#45;2514</title>
<path fill="none" stroke="black" d="M84.5259,-287.792C92.0089,-277.853 100.819,-264.813 106.497,-252 128.52,-202.305 139.282,-138.233 143.407,-108.1"/>
</g>
<!-- 6965&#45;&#45;6968 -->
<g id="edge35" class="edge"><title>6965&#45;&#45;6968</title>
<path fill="none" stroke="black" d="M55.0051,-287.737C47.2766,-277.983 38.699,-265.137 34.4971,-252 26.8225,-228.005 28.1102,-198.485 30.0586,-180.203"/>
</g>
<!-- 6966 -->
<g id="node24" class="node"><title>6966</title>
<polygon fill="#393774" stroke="#393774" points="97.4971,-252 43.4971,-252 43.4971,-216 97.4971,-216 97.4971,-252"/>
<text text-anchor="middle" x="70.4971" y="-230.3" font-family="Times New Roman,serif" font-size="14.00">6966</text>
</g>
<!-- 6965&#45;&#45;6966 -->
<g id="edge34" class="edge"><title>6965&#45;&#45;6966</title>
<path fill="none" stroke="black" d="M70.4971,-287.697C70.4971,-276.846 70.4971,-262.917 70.4971,-252.104"/>
</g>
<!-- 6966&#45;&#45;2514 -->
<g id="edge38" class="edge"><title>6966&#45;&#45;2514</title>
<path fill="none" stroke="black" d="M77.525,-215.926C85.1977,-197.753 98.1775,-168.321 111.497,-144 118.218,-131.727 126.718,-118.477 133.538,-108.295"/>
</g>
<!-- 6966&#45;&#45;6968 -->
<g id="edge37" class="edge"><title>6966&#45;&#45;6968</title>
<path fill="none" stroke="black" d="M61.1039,-215.697C55.2137,-204.846 47.6519,-190.917 41.7823,-180.104"/>
</g>
<!-- 9321 -->
<g id="node25" class="node"><title>9321</title>
<ellipse fill="none" stroke="black" cx="929.497" cy="-378" rx="28.6953" ry="18"/>
<text text-anchor="middle" x="929.497" y="-374.3" font-family="Times New Roman,serif" font-size="14.00">9321</text>
</g>
<!-- 9322 -->
<g id="node26" class="node"><title>9322</title>
<ellipse fill="none" stroke="black" cx="929.497" cy="-306" rx="28.6953" ry="18"/>
<text text-anchor="middle" x="929.497" y="-302.3" font-family="Times New Roman,serif" font-size="14.00">9322</text>
</g>
<!-- 9321&#45;&#45;9322 -->
<g id="edge39" class="edge"><title>9321&#45;&#45;9322</title>
<path fill="none" stroke="black" d="M929.497,-359.697C929.497,-348.846 929.497,-334.917 929.497,-324.104"/>
</g>
<!-- 10457 -->
<g id="node27" class="node"><title>10457</title>
<polygon fill="#8f9491" stroke="#8f9491" points="1136.5,-396 1082.5,-396 1082.5,-360 1136.5,-360 1136.5,-396"/>
<text text-anchor="middle" x="1109.5" y="-374.3" font-family="Times New Roman,serif" font-size="14.00">10457</text>
</g>
<!-- 10458 -->
<g id="node28" class="node"><title>10458</title>
<ellipse fill="#8f9491" stroke="#8f9491" cx="1109.5" cy="-306" rx="32.4942" ry="18"/>
<text text-anchor="middle" x="1109.5" y="-302.3" font-family="Times New Roman,serif" font-size="14.00">10458</text>
</g>
<!-- 10457&#45;&#45;10458 -->
<g id="edge40" class="edge"><title>10457&#45;&#45;10458</title>
<path fill="none" stroke="black" d="M1109.5,-359.697C1109.5,-348.846 1109.5,-334.917 1109.5,-324.104"/>
</g>
<!-- 10460 -->
<g id="node29" class="node"><title>10460</title>
<polygon fill="#66928f" stroke="#66928f" points="1220.5,-252 1166.5,-252 1166.5,-216 1220.5,-216 1220.5,-252"/>
<text text-anchor="middle" x="1193.5" y="-230.3" font-family="Times New Roman,serif" font-size="14.00">10460</text>
</g>
<!-- 10457&#45;&#45;10460 -->
<g id="edge41" class="edge"><title>10457&#45;&#45;10460</title>
<path fill="none" stroke="black" d="M1124.12,-359.996C1132.41,-349.911 1142.66,-336.661 1150.5,-324 1165.22,-300.216 1178.63,-270.638 1186.42,-252.286"/>
</g>
<!-- 10462 -->
<g id="node30" class="node"><title>10462</title>
<ellipse fill="#4d5a8d" stroke="#4d5a8d" cx="1198.5" cy="-162" rx="32.4942" ry="18"/>
<text text-anchor="middle" x="1198.5" y="-158.3" font-family="Times New Roman,serif" font-size="14.00">10462</text>
</g>
<!-- 10457&#45;&#45;10462 -->
<g id="edge42" class="edge"><title>10457&#45;&#45;10462</title>
<path fill="none" stroke="black" d="M1136.55,-359.814C1166.68,-338.747 1213.3,-299.875 1229.5,-252 1234.62,-236.844 1233.68,-231.443 1229.5,-216 1225.82,-202.419 1217.69,-188.752 1210.68,-178.699"/>
</g>
<!-- 10464 -->
<g id="node31" class="node"><title>10464</title>
<polygon fill="#4d5a8d" stroke="#4d5a8d" points="1154.5,-108 1100.5,-108 1100.5,-72 1154.5,-72 1154.5,-108"/>
<text text-anchor="middle" x="1127.5" y="-86.3" font-family="Times New Roman,serif" font-size="14.00">10464</text>
</g>
<!-- 10457&#45;&#45;10464 -->
<g id="edge43" class="edge"><title>10457&#45;&#45;10464</title>
<path fill="none" stroke="black" d="M1091.33,-359.677C1082.61,-350.097 1073.09,-337.43 1068.5,-324 1063.32,-308.859 1066.18,-303.831 1068.5,-288 1078.54,-219.469 1107.24,-141.672 1120.56,-108.009"/>
</g>
<!-- 10466 -->
<g id="node32" class="node"><title>10466</title>
<ellipse fill="#4d5a8d" stroke="#4d5a8d" cx="1127.5" cy="-18" rx="32.4942" ry="18"/>
<text text-anchor="middle" x="1127.5" y="-14.3" font-family="Times New Roman,serif" font-size="14.00">10466</text>
</g>
<!-- 10457&#45;&#45;10466 -->
<g id="edge44" class="edge"><title>10457&#45;&#45;10466</title>
<path fill="none" stroke="black" d="M1082.2,-361.654C1045.96,-339.029 986.497,-293.055 986.497,-235 986.497,-235 986.497,-235 986.497,-161 986.497,-95.6855 1062.54,-49.7201 1102.94,-29.9094"/>
</g>
<!-- 10458&#45;&#45;10460 -->
<g id="edge45" class="edge"><title>10458&#45;&#45;10460</title>
<path fill="none" stroke="black" d="M1126.9,-290.496C1140.26,-279.363 1158.75,-263.959 1172.85,-252.204"/>
</g>
<!-- 10458&#45;&#45;10462 -->
<g id="edge46" class="edge"><title>10458&#45;&#45;10462</title>
<path fill="none" stroke="black" d="M1117.4,-288.463C1126.33,-270.237 1141.71,-240.284 1157.5,-216 1165.99,-202.931 1176.83,-189.022 1185.23,-178.734"/>
</g>
<!-- 10458&#45;&#45;10464 -->
<g id="edge47" class="edge"><title>10458&#45;&#45;10464</title>
<path fill="none" stroke="black" d="M1110.94,-287.849C1114.31,-247.78 1122.67,-148.383 1126.05,-108.232"/>
</g>
<!-- 10458&#45;&#45;10466 -->
<g id="edge48" class="edge"><title>10458&#45;&#45;10466</title>
<path fill="none" stroke="black" d="M1104.04,-288.151C1092.29,-249.131 1067.53,-149.947 1091.5,-72 1095.81,-57.9658 1105.25,-44.3133 1113.38,-34.3801"/>
</g>
<!-- 10460&#45;&#45;10462 -->
<g id="edge49" class="edge"><title>10460&#45;&#45;10462</title>
<path fill="none" stroke="black" d="M1194.73,-215.697C1195.51,-204.846 1196.5,-190.917 1197.28,-180.104"/>
</g>
<!-- 10460&#45;&#45;10464 -->
<g id="edge50" class="edge"><title>10460&#45;&#45;10464</title>
<path fill="none" stroke="black" d="M1179.9,-215.59C1172.55,-205.588 1163.73,-192.553 1157.5,-180 1145.68,-156.195 1136.75,-126.623 1131.82,-108.278"/>
</g>
<!-- 10460&#45;&#45;10466 -->
<g id="edge51" class="edge"><title>10460&#45;&#45;10466</title>
<path fill="none" stroke="black" d="M1214.32,-215.615C1223.96,-206.198 1234.38,-193.697 1239.5,-180 1245.09,-165.011 1244.49,-159.201 1239.5,-144 1223.23,-94.4458 1174.95,-53.0767 1147.38,-32.6737"/>
</g>
<!-- 10462&#45;&#45;10464 -->
<g id="edge52" class="edge"><title>10462&#45;&#45;10464</title>
<path fill="none" stroke="black" d="M1183.09,-145.811C1171.83,-134.713 1156.56,-119.653 1144.87,-108.127"/>
</g>
<!-- 10462&#45;&#45;10466 -->
<g id="edge53" class="edge"><title>10462&#45;&#45;10466</title>
<path fill="none" stroke="black" d="M1193.11,-144.108C1187,-125.834 1176.21,-96.0806 1163.5,-72 1156.64,-59.0151 1147.29,-45.3298 1139.83,-35.1187"/>
</g>
<!-- 10464&#45;&#45;10466 -->
<g id="edge54" class="edge"><title>10464&#45;&#45;10466</title>
<path fill="none" stroke="black" d="M1127.5,-71.6966C1127.5,-60.8463 1127.5,-46.9167 1127.5,-36.1043"/>
</g>
<!-- 10697 -->
<g id="node33" class="node"><title>10697</title>
<ellipse fill="none" stroke="black" cx="1308.5" cy="-378" rx="32.4942" ry="18"/>
<text text-anchor="middle" x="1308.5" y="-374.3" font-family="Times New Roman,serif" font-size="14.00">10697</text>
</g>
<!-- 10698 -->
<g id="node34" class="node"><title>10698</title>
<ellipse fill="none" stroke="black" cx="1308.5" cy="-306" rx="32.4942" ry="18"/>
<text text-anchor="middle" x="1308.5" y="-302.3" font-family="Times New Roman,serif" font-size="14.00">10698</text>
</g>
<!-- 10697&#45;&#45;10698 -->
<g id="edge55" class="edge"><title>10697&#45;&#45;10698</title>
<path fill="none" stroke="black" d="M1308.5,-359.697C1308.5,-348.846 1308.5,-334.917 1308.5,-324.104"/>
</g>
<!-- 11099 -->
<g id="node35" class="node"><title>11099</title>
<polygon fill="#85645c" stroke="#85645c" points="1439.5,-396 1385.5,-396 1385.5,-360 1439.5,-360 1439.5,-396"/>
<text text-anchor="middle" x="1412.5" y="-374.3" font-family="Times New Roman,serif" font-size="14.00">11099</text>
</g>
<!-- 11100 -->
<g id="node36" class="node"><title>11100</title>
<polygon fill="#719898" stroke="#719898" points="1412.5,-324 1358.5,-324 1358.5,-288 1412.5,-288 1412.5,-324"/>
<text text-anchor="middle" x="1385.5" y="-302.3" font-family="Times New Roman,serif" font-size="14.00">11100</text>
</g>
<!-- 11099&#45;&#45;11100 -->
<g id="edge56" class="edge"><title>11099&#45;&#45;11100</title>
<path fill="none" stroke="black" d="M1405.82,-359.697C1401.64,-348.846 1396.26,-334.917 1392.09,-324.104"/>
</g>
<!-- 11102 -->
<g id="node37" class="node"><title>11102</title>
<polygon fill="#633554" stroke="#633554" points="1439.5,-252 1385.5,-252 1385.5,-216 1439.5,-216 1439.5,-252"/>
<text text-anchor="middle" x="1412.5" y="-230.3" font-family="Times New Roman,serif" font-size="14.00">11102</text>
</g>
<!-- 11099&#45;&#45;11102 -->
<g id="edge57" class="edge"><title>11099&#45;&#45;11102</title>
<path fill="none" stroke="black" d="M1416.15,-359.908C1418.17,-349.569 1420.48,-336.09 1421.5,-324 1422.84,-308.057 1422.84,-303.943 1421.5,-288 1420.48,-275.91 1418.17,-262.431 1416.15,-252.092"/>
</g>
<!-- 11100&#45;&#45;11102 -->
<g id="edge58" class="edge"><title>11100&#45;&#45;11102</title>
<path fill="none" stroke="black" d="M1392.17,-287.697C1396.36,-276.846 1401.73,-262.917 1405.9,-252.104"/>
</g>
</g>
</svg>
