<svg width="3535px" height="827px"
 viewBox="0.00 0.00 2651.39 620.00" xmlns="http://www.w3.org/2000/svg" xmlns:xlink="http://www.w3.org/1999/xlink">
<g id="graph0" class="graph" transform="scale(1.000022500562514 1.000022500562514) rotate(0) translate(4 616)">
<title>G</title>
<polygon fill="white" stroke="none" points="-4,4 -4,-616 2647.39,-616 2647.39,4 -4,4"/>
<!-- 133 -->
<g id="node1" class="node"><title>133</title>
<ellipse fill="none" stroke="black" cx="109.497" cy="-522" rx="27" ry="18"/>
<text text-anchor="middle" x="109.497" y="-518.3" font-family="Times New Roman,serif" font-size="14.00">133</text>
</g>
<!-- 134 -->
<g id="node2" class="node"><title>134</title>
<ellipse fill="none" stroke="black" cx="127.497" cy="-378" rx="27" ry="18"/>
<text text-anchor="middle" x="127.497" y="-374.3" font-family="Times New Roman,serif" font-size="14.00">134</text>
</g>
<!-- 133&#45;&#45;134 -->
<g id="edge1" class="edge"><title>133&#45;&#45;134</title>
<path fill="none" stroke="black" d="M103.806,-504.363C98.4652,-486.306 92.1719,-456.737 98.4971,-432 101.927,-418.586 109.53,-404.915 116.091,-394.817"/>
</g>
<!-- 11162 -->
<g id="node6" class="node"><title>11162</title>
<ellipse fill="none" stroke="black" cx="139.497" cy="-450" rx="32.4942" ry="18"/>
<text text-anchor="middle" x="139.497" y="-446.3" font-family="Times New Roman,serif" font-size="14.00">11162</text>
</g>
<!-- 133&#45;&#45;11162 -->
<g id="edge2" class="edge"><title>133&#45;&#45;11162</title>
<path fill="none" stroke="black" d="M116.607,-504.411C121.32,-493.414 127.485,-479.027 132.23,-467.956"/>
</g>
<!-- 6164 -->
<g id="node3" class="node"><title>6164</title>
<ellipse fill="none" stroke="black" cx="194.497" cy="-306" rx="28.6953" ry="18"/>
<text text-anchor="middle" x="194.497" y="-302.3" font-family="Times New Roman,serif" font-size="14.00">6164</text>
</g>
<!-- 134&#45;&#45;6164 -->
<g id="edge3" class="edge"><title>134&#45;&#45;6164</title>
<path fill="none" stroke="black" d="M141.38,-362.496C152.725,-350.642 168.706,-333.946 180.17,-321.968"/>
</g>
<!-- 10236 -->
<g id="node4" class="node"><title>10236</title>
<ellipse fill="none" stroke="black" cx="32.4971" cy="-306" rx="32.4942" ry="18"/>
<text text-anchor="middle" x="32.4971" y="-302.3" font-family="Times New Roman,serif" font-size="14.00">10236</text>
</g>
<!-- 134&#45;&#45;10236 -->
<g id="edge4" class="edge"><title>134&#45;&#45;10236</title>
<path fill="none" stroke="black" d="M110.073,-364.161C93.4673,-351.925 68.5314,-333.552 51.4401,-320.958"/>
</g>
<!-- 11020 -->
<g id="node5" class="node"><title>11020</title>
<ellipse fill="none" stroke="black" cx="115.497" cy="-306" rx="32.4942" ry="18"/>
<text text-anchor="middle" x="115.497" y="-302.3" font-family="Times New Roman,serif" font-size="14.00">11020</text>
</g>
<!-- 134&#45;&#45;11020 -->
<g id="edge5" class="edge"><title>134&#45;&#45;11020</title>
<path fill="none" stroke="black" d="M124.592,-360.055C122.733,-349.211 120.328,-335.183 118.459,-324.275"/>
</g>
<!-- 11162&#45;&#45;134 -->
<g id="edge6" class="edge"><title>11162&#45;&#45;134</title>
<path fill="none" stroke="black" d="M136.592,-432.055C134.733,-421.211 132.328,-407.183 130.459,-396.275"/>
</g>
<!-- 223 -->
<g id="node7" class="node"><title>223</title>
<ellipse fill="none" stroke="black" cx="1412.5" cy="-594" rx="27" ry="18"/>
<text text-anchor="middle" x="1412.5" y="-590.3" font-family="Times New Roman,serif" font-size="14.00">223</text>
</g>
<!-- 224 -->
<g id="node8" class="node"><title>224</title>
<ellipse fill="none" stroke="black" cx="1412.5" cy="-522" rx="27" ry="18"/>
<text text-anchor="middle" x="1412.5" y="-518.3" font-family="Times New Roman,serif" font-size="14.00">224</text>
</g>
<!-- 223&#45;&#45;224 -->
<g id="edge7" class="edge"><title>223&#45;&#45;224</title>
<path fill="none" stroke="black" d="M1412.5,-575.697C1412.5,-564.846 1412.5,-550.917 1412.5,-540.104"/>
</g>
<!-- 1241 -->
<g id="node9" class="node"><title>1241</title>
<ellipse fill="none" stroke="black" cx="246.497" cy="-450" rx="28.6953" ry="18"/>
<text text-anchor="middle" x="246.497" y="-446.3" font-family="Times New Roman,serif" font-size="14.00">1241</text>
</g>
<!-- 1241&#45;&#45;134 -->
<g id="edge10" class="edge"><title>1241&#45;&#45;134</title>
<path fill="none" stroke="black" d="M226.31,-437.125C204.163,-424.097 168.86,-403.331 146.991,-390.467"/>
</g>
<!-- 1242 -->
<g id="node10" class="node"><title>1242</title>
<ellipse fill="none" stroke="black" cx="308.497" cy="-378" rx="28.6953" ry="18"/>
<text text-anchor="middle" x="308.497" y="-374.3" font-family="Times New Roman,serif" font-size="14.00">1242</text>
</g>
<!-- 1241&#45;&#45;1242 -->
<g id="edge8" class="edge"><title>1241&#45;&#45;1242</title>
<path fill="none" stroke="black" d="M259.95,-433.811C270.35,-422.07 284.677,-405.893 295.07,-394.159"/>
</g>
<!-- 5338 -->
<g id="node11" class="node"><title>5338</title>
<ellipse fill="none" stroke="black" cx="582.497" cy="-234" rx="28.6953" ry="18"/>
<text text-anchor="middle" x="582.497" y="-230.3" font-family="Times New Roman,serif" font-size="14.00">5338</text>
</g>
<!-- 1241&#45;&#45;5338 -->
<g id="edge9" class="edge"><title>1241&#45;&#45;5338</title>
<path fill="none" stroke="black" d="M246.724,-431.804C247.882,-412.145 252.637,-380.096 270.497,-360 347.637,-273.204 493.379,-245.816 554.455,-237.922"/>
</g>
<!-- 6734 -->
<g id="node12" class="node"><title>6734</title>
<ellipse fill="none" stroke="black" cx="468.497" cy="-162" rx="28.6953" ry="18"/>
<text text-anchor="middle" x="468.497" y="-158.3" font-family="Times New Roman,serif" font-size="14.00">6734</text>
</g>
<!-- 5338&#45;&#45;6734 -->
<g id="edge11" class="edge"><title>5338&#45;&#45;6734</title>
<path fill="none" stroke="black" d="M562.64,-220.807C541.843,-208.037 509.364,-188.093 488.509,-175.288"/>
</g>
<!-- 6736 -->
<g id="node13" class="node"><title>6736</title>
<ellipse fill="none" stroke="black" cx="582.497" cy="-90" rx="28.6953" ry="18"/>
<text text-anchor="middle" x="582.497" y="-86.3" font-family="Times New Roman,serif" font-size="14.00">6736</text>
</g>
<!-- 5338&#45;&#45;6736 -->
<g id="edge12" class="edge"><title>5338&#45;&#45;6736</title>
<path fill="none" stroke="black" d="M582.497,-215.871C582.497,-188.578 582.497,-135.52 582.497,-108.189"/>
</g>
<!-- 1385 -->
<g id="node14" class="node"><title>1385</title>
<polygon fill="#953560" stroke="#953560" points="1023.5,-180 969.497,-180 969.497,-144 1023.5,-144 1023.5,-180"/>
<text text-anchor="middle" x="996.497" y="-158.3" font-family="Times New Roman,serif" font-size="14.00">1385</text>
</g>
<!-- 5338&#45;&#45;1385 -->
<g id="edge13" class="edge"><title>5338&#45;&#45;1385</title>
<path fill="none" stroke="black" d="M609.981,-228.353C685.29,-215.62 894.317,-180.277 969.293,-167.6"/>
</g>
<!-- 2552 -->
<g id="node17" class="node"><title>2552</title>
<ellipse fill="#953560" stroke="#953560" cx="827.497" cy="-90" rx="28.6953" ry="18"/>
<text text-anchor="middle" x="827.497" y="-86.3" font-family="Times New Roman,serif" font-size="14.00">2552</text>
</g>
<!-- 5338&#45;&#45;2552 -->
<g id="edge14" class="edge"><title>5338&#45;&#45;2552</title>
<path fill="none" stroke="black" d="M602.964,-221.137C649.197,-194.341 761.248,-129.398 807.261,-102.729"/>
</g>
<!-- 6734&#45;&#45;6736 -->
<g id="edge15" class="edge"><title>6734&#45;&#45;6736</title>
<path fill="none" stroke="black" d="M488.354,-148.807C509.151,-136.037 541.631,-116.093 562.485,-103.288"/>
</g>
<!-- 1386 -->
<g id="node15" class="node"><title>1386</title>
<ellipse fill="#953560" stroke="#953560" cx="1024.5" cy="-90" rx="28.6953" ry="18"/>
<text text-anchor="middle" x="1024.5" y="-86.3" font-family="Times New Roman,serif" font-size="14.00">1386</text>
</g>
<!-- 1385&#45;&#45;1386 -->
<g id="edge16" class="edge"><title>1385&#45;&#45;1386</title>
<path fill="none" stroke="black" d="M1003.42,-143.697C1007.82,-132.684 1013.5,-118.5 1017.85,-107.622"/>
</g>
<!-- 1388 -->
<g id="node16" class="node"><title>1388</title>
<ellipse fill="none" stroke="black" cx="995.497" cy="-18" rx="28.6953" ry="18"/>
<text text-anchor="middle" x="995.497" y="-14.3" font-family="Times New Roman,serif" font-size="14.00">1388</text>
</g>
<!-- 1385&#45;&#45;1388 -->
<g id="edge17" class="edge"><title>1385&#45;&#45;1388</title>
<path fill="none" stroke="black" d="M992.438,-143.929C990.192,-133.598 987.631,-120.12 986.497,-108 985.007,-92.0695 985.153,-87.9434 986.497,-72 987.516,-59.9098 989.821,-46.4315 991.843,-36.0925"/>
</g>
<!-- 1385&#45;&#45;2552 -->
<g id="edge18" class="edge"><title>1385&#45;&#45;2552</title>
<path fill="none" stroke="black" d="M969.344,-149.753C936.501,-136.149 881.772,-113.481 850.774,-100.641"/>
</g>
<!-- 11038 -->
<g id="node18" class="node"><title>11038</title>
<ellipse fill="#953560" stroke="#953560" cx="1205.5" cy="-90" rx="32.4942" ry="18"/>
<text text-anchor="middle" x="1205.5" y="-86.3" font-family="Times New Roman,serif" font-size="14.00">11038</text>
</g>
<!-- 1385&#45;&#45;11038 -->
<g id="edge19" class="edge"><title>1385&#45;&#45;11038</title>
<path fill="none" stroke="black" d="M1023.82,-151.849C1063.99,-138.396 1138.52,-113.433 1178.5,-100.043"/>
</g>
<!-- 1386&#45;&#45;1388 -->
<g id="edge20" class="edge"><title>1386&#45;&#45;1388</title>
<path fill="none" stroke="black" d="M1017.62,-72.411C1013.07,-61.4141 1007.11,-47.0274 1002.52,-35.9562"/>
</g>
<!-- 1243 -->
<g id="node19" class="node"><title>1243</title>
<ellipse fill="none" stroke="black" cx="435.497" cy="-450" rx="28.6953" ry="18"/>
<text text-anchor="middle" x="435.497" y="-446.3" font-family="Times New Roman,serif" font-size="14.00">1243</text>
</g>
<!-- 1243&#45;&#45;1242 -->
<g id="edge21" class="edge"><title>1243&#45;&#45;1242</title>
<path fill="none" stroke="black" d="M414.526,-437.441C390.995,-424.471 353.044,-403.553 329.5,-390.576"/>
</g>
<!-- 4140 -->
<g id="node20" class="node"><title>4140</title>
<ellipse fill="#549480" stroke="#549480" cx="383.497" cy="-378" rx="28.6953" ry="18"/>
<text text-anchor="middle" x="383.497" y="-374.3" font-family="Times New Roman,serif" font-size="14.00">4140</text>
</g>
<!-- 1243&#45;&#45;4140 -->
<g id="edge22" class="edge"><title>1243&#45;&#45;4140</title>
<path fill="none" stroke="black" d="M423.957,-433.465C415.339,-421.865 403.615,-406.082 395.005,-394.492"/>
</g>
<!-- 1967 -->
<g id="node21" class="node"><title>1967</title>
<ellipse fill="none" stroke="black" cx="1486.5" cy="-594" rx="28.6953" ry="18"/>
<text text-anchor="middle" x="1486.5" y="-590.3" font-family="Times New Roman,serif" font-size="14.00">1967</text>
</g>
<!-- 1968 -->
<g id="node22" class="node"><title>1968</title>
<ellipse fill="none" stroke="black" cx="1486.5" cy="-522" rx="28.6953" ry="18"/>
<text text-anchor="middle" x="1486.5" y="-518.3" font-family="Times New Roman,serif" font-size="14.00">1968</text>
</g>
<!-- 1967&#45;&#45;1968 -->
<g id="edge23" class="edge"><title>1967&#45;&#45;1968</title>
<path fill="none" stroke="black" d="M1486.5,-575.697C1486.5,-564.846 1486.5,-550.917 1486.5,-540.104"/>
</g>
<!-- 2357 -->
<g id="node23" class="node"><title>2357</title>
<ellipse fill="none" stroke="black" cx="360.497" cy="-450" rx="28.6953" ry="18"/>
<text text-anchor="middle" x="360.497" y="-446.3" font-family="Times New Roman,serif" font-size="14.00">2357</text>
</g>
<!-- 2357&#45;&#45;1242 -->
<g id="edge24" class="edge"><title>2357&#45;&#45;1242</title>
<path fill="none" stroke="black" d="M348.957,-433.465C340.339,-421.865 328.615,-406.082 320.005,-394.492"/>
</g>
<!-- 4139 -->
<g id="node24" class="node"><title>4139</title>
<polygon fill="#549480" stroke="#549480" points="761.497,-540 707.497,-540 707.497,-504 761.497,-504 761.497,-540"/>
<text text-anchor="middle" x="734.497" y="-518.3" font-family="Times New Roman,serif" font-size="14.00">4139</text>
</g>
<!-- 4139&#45;&#45;1242 -->
<g id="edge27" class="edge"><title>4139&#45;&#45;1242</title>
<path fill="none" stroke="black" d="M707.319,-521.56C624.465,-522.668 377.37,-521.353 322.497,-468 303.433,-449.464 303.515,-416.299 305.721,-396.108"/>
</g>
<!-- 4139&#45;&#45;1385 -->
<g id="edge31" class="edge"><title>4139&#45;&#45;1385</title>
<path fill="none" stroke="black" d="M730.652,-503.612C725.1,-476.942 715.497,-424.268 715.497,-379 715.497,-379 715.497,-379 715.497,-305 715.497,-191.991 898.778,-168.899 969.298,-164.197"/>
</g>
<!-- 4139&#45;&#45;1243 -->
<g id="edge32" class="edge"><title>4139&#45;&#45;1243</title>
<path fill="none" stroke="black" d="M707.211,-516.938C659.993,-509.559 560.254,-492.426 478.497,-468 471.882,-466.024 464.859,-463.457 458.448,-460.919"/>
</g>
<!-- 4139&#45;&#45;4140 -->
<g id="edge25" class="edge"><title>4139&#45;&#45;4140</title>
<path fill="none" stroke="black" d="M707.495,-519.114C663.872,-515.107 576.249,-503.027 511.497,-468 491.035,-456.931 492.084,-445.992 473.497,-432 451.477,-415.423 423.877,-399.847 405.087,-389.927"/>
</g>
<!-- 5802 -->
<g id="node25" class="node"><title>5802</title>
<ellipse fill="#953560" stroke="#953560" cx="996.497" cy="-234" rx="28.6953" ry="18"/>
<text text-anchor="middle" x="996.497" y="-230.3" font-family="Times New Roman,serif" font-size="14.00">5802</text>
</g>
<!-- 4139&#45;&#45;5802 -->
<g id="edge26" class="edge"><title>4139&#45;&#45;5802</title>
<path fill="none" stroke="black" d="M735.795,-503.858C738.989,-472.237 749.71,-403.947 784.497,-360 834.883,-296.347 927.256,-258.324 971.537,-242.949"/>
</g>
<!-- 6128 -->
<g id="node26" class="node"><title>6128</title>
<polygon fill="#43913d" stroke="#43913d" points="987.497,-468 933.497,-468 933.497,-432 987.497,-432 987.497,-468"/>
<text text-anchor="middle" x="960.497" y="-446.3" font-family="Times New Roman,serif" font-size="14.00">6128</text>
</g>
<!-- 4139&#45;&#45;6128 -->
<g id="edge28" class="edge"><title>4139&#45;&#45;6128</title>
<path fill="none" stroke="black" d="M761.758,-512.556C805.314,-499.066 890.097,-472.805 933.491,-459.365"/>
</g>
<!-- 6130 -->
<g id="node27" class="node"><title>6130</title>
<ellipse fill="#953560" stroke="#953560" cx="848.497" cy="-378" rx="28.6953" ry="18"/>
<text text-anchor="middle" x="848.497" y="-374.3" font-family="Times New Roman,serif" font-size="14.00">6130</text>
</g>
<!-- 4139&#45;&#45;6130 -->
<g id="edge29" class="edge"><title>4139&#45;&#45;6130</title>
<path fill="none" stroke="black" d="M761.633,-505.22C776.046,-495.815 793.261,-482.831 805.497,-468 823.735,-445.894 836.477,-414.756 843.132,-395.776"/>
</g>
<!-- 5927 -->
<g id="node28" class="node"><title>5927</title>
<polygon fill="#6f868f" stroke="#6f868f" points="970.497,-324 916.497,-324 916.497,-288 970.497,-288 970.497,-324"/>
<text text-anchor="middle" x="943.497" y="-302.3" font-family="Times New Roman,serif" font-size="14.00">5927</text>
</g>
<!-- 4139&#45;&#45;5927 -->
<g id="edge30" class="edge"><title>4139&#45;&#45;5927</title>
<path fill="none" stroke="black" d="M746.304,-503.787C752.99,-493.633 761.24,-480.383 767.497,-468 790.799,-421.889 773.97,-396.538 810.497,-360 839.581,-330.907 886.647,-317.28 916.289,-311.28"/>
</g>
<!-- 5802&#45;&#45;1385 -->
<g id="edge33" class="edge"><title>5802&#45;&#45;1385</title>
<path fill="none" stroke="black" d="M996.497,-215.697C996.497,-204.846 996.497,-190.917 996.497,-180.104"/>
</g>
<!-- 6128&#45;&#45;1385 -->
<g id="edge36" class="edge"><title>6128&#45;&#45;1385</title>
<path fill="none" stroke="black" d="M987.599,-445.794C1016.69,-440.747 1061.54,-427.958 1082.5,-396 1130.27,-323.167 1049.1,-220.203 1012.74,-180.006"/>
</g>
<!-- 6128&#45;&#45;11038 -->
<g id="edge37" class="edge"><title>6128&#45;&#45;11038</title>
<path fill="none" stroke="black" d="M987.75,-445.979C1019.71,-441.022 1072.28,-428.24 1103.5,-396 1185.45,-311.366 1201.6,-159.048 1204.75,-108.114"/>
</g>
<!-- 6128&#45;&#45;6130 -->
<g id="edge34" class="edge"><title>6128&#45;&#45;6130</title>
<path fill="none" stroke="black" d="M933.385,-432.055C913.186,-419.431 886.083,-402.491 867.99,-391.183"/>
</g>
<!-- 6128&#45;&#45;5927 -->
<g id="edge35" class="edge"><title>6128&#45;&#45;5927</title>
<path fill="none" stroke="black" d="M958.447,-431.871C955.179,-404.578 948.827,-351.52 945.555,-324.189"/>
</g>
<!-- 6130&#45;&#45;1385 -->
<g id="edge39" class="edge"><title>6130&#45;&#45;1385</title>
<path fill="none" stroke="black" d="M856.581,-360.653C871.786,-330.619 906.546,-265.227 944.497,-216 954.414,-203.137 967.166,-190.097 977.56,-180.17"/>
</g>
<!-- 6130&#45;&#45;5927 -->
<g id="edge38" class="edge"><title>6130&#45;&#45;5927</title>
<path fill="none" stroke="black" d="M866.366,-363.834C881.63,-352.586 903.692,-336.33 920.314,-324.082"/>
</g>
<!-- 5927&#45;&#45;1385 -->
<g id="edge40" class="edge"><title>5927&#45;&#45;1385</title>
<path fill="none" stroke="black" d="M944.09,-287.97C945.242,-269.577 948.62,-239.724 958.497,-216 963.893,-203.039 972.977,-190.199 980.911,-180.404"/>
</g>
<!-- 5927&#45;&#45;11038 -->
<g id="edge42" class="edge"><title>5927&#45;&#45;11038</title>
<path fill="none" stroke="black" d="M970.79,-291.22C989.416,-281.316 1014.28,-267.094 1034.5,-252 1097.88,-204.674 1163.4,-136.618 1191.42,-106.428"/>
</g>
<!-- 5927&#45;&#45;5802 -->
<g id="edge41" class="edge"><title>5927&#45;&#45;5802</title>
<path fill="none" stroke="black" d="M956.598,-287.697C965.181,-276.36 976.309,-261.663 984.632,-250.671"/>
</g>
<!-- 4485 -->
<g id="node29" class="node"><title>4485</title>
<ellipse fill="none" stroke="black" cx="1561.5" cy="-594" rx="28.6953" ry="18"/>
<text text-anchor="middle" x="1561.5" y="-590.3" font-family="Times New Roman,serif" font-size="14.00">4485</text>
</g>
<!-- 4486 -->
<g id="node30" class="node"><title>4486</title>
<ellipse fill="none" stroke="black" cx="1561.5" cy="-522" rx="28.6953" ry="18"/>
<text text-anchor="middle" x="1561.5" y="-518.3" font-family="Times New Roman,serif" font-size="14.00">4486</text>
</g>
<!-- 4485&#45;&#45;4486 -->
<g id="edge43" class="edge"><title>4485&#45;&#45;4486</title>
<path fill="none" stroke="black" d="M1561.5,-575.697C1561.5,-564.846 1561.5,-550.917 1561.5,-540.104"/>
</g>
<!-- 4803 -->
<g id="node31" class="node"><title>4803</title>
<ellipse fill="none" stroke="black" cx="1751.5" cy="-594" rx="28.6953" ry="18"/>
<text text-anchor="middle" x="1751.5" y="-590.3" font-family="Times New Roman,serif" font-size="14.00">4803</text>
</g>
<!-- 4804 -->
<g id="node32" class="node"><title>4804</title>
<ellipse fill="none" stroke="black" cx="1694.5" cy="-522" rx="28.6953" ry="18"/>
<text text-anchor="middle" x="1694.5" y="-518.3" font-family="Times New Roman,serif" font-size="14.00">4804</text>
</g>
<!-- 4803&#45;&#45;4804 -->
<g id="edge44" class="edge"><title>4803&#45;&#45;4804</title>
<path fill="none" stroke="black" d="M1738.85,-577.465C1729.4,-565.865 1716.55,-550.082 1707.11,-538.492"/>
</g>
<!-- 4806 -->
<g id="node33" class="node"><title>4806</title>
<ellipse fill="none" stroke="black" cx="1713.5" cy="-450" rx="28.6953" ry="18"/>
<text text-anchor="middle" x="1713.5" y="-446.3" font-family="Times New Roman,serif" font-size="14.00">4806</text>
</g>
<!-- 4803&#45;&#45;4806 -->
<g id="edge45" class="edge"><title>4803&#45;&#45;4806</title>
<path fill="none" stroke="black" d="M1748.53,-575.771C1745.25,-557.719 1739.5,-528.618 1732.5,-504 1728.97,-491.59 1724.02,-477.887 1720.07,-467.523"/>
</g>
<!-- 4808 -->
<g id="node34" class="node"><title>4808</title>
<ellipse fill="none" stroke="black" cx="1799.5" cy="-378" rx="28.6953" ry="18"/>
<text text-anchor="middle" x="1799.5" y="-374.3" font-family="Times New Roman,serif" font-size="14.00">4808</text>
</g>
<!-- 4803&#45;&#45;4808 -->
<g id="edge46" class="edge"><title>4803&#45;&#45;4808</title>
<path fill="none" stroke="black" d="M1755.34,-575.849C1764.35,-535.68 1786.74,-435.89 1795.7,-395.935"/>
</g>
<!-- 4810 -->
<g id="node35" class="node"><title>4810</title>
<ellipse fill="none" stroke="black" cx="1683.5" cy="-306" rx="28.6953" ry="18"/>
<text text-anchor="middle" x="1683.5" y="-302.3" font-family="Times New Roman,serif" font-size="14.00">4810</text>
</g>
<!-- 4803&#45;&#45;4810 -->
<g id="edge47" class="edge"><title>4803&#45;&#45;4810</title>
<path fill="none" stroke="black" d="M1725.28,-586.408C1702.61,-579.165 1671.22,-565.08 1656.5,-540 1614.54,-468.54 1656.35,-363.457 1675.26,-323.362"/>
</g>
<!-- 4812 -->
<g id="node36" class="node"><title>4812</title>
<ellipse fill="none" stroke="black" cx="1740.5" cy="-234" rx="28.6953" ry="18"/>
<text text-anchor="middle" x="1740.5" y="-230.3" font-family="Times New Roman,serif" font-size="14.00">4812</text>
</g>
<!-- 4803&#45;&#45;4812 -->
<g id="edge48" class="edge"><title>4803&#45;&#45;4812</title>
<path fill="none" stroke="black" d="M1780.01,-591.33C1819.77,-587.705 1892.48,-576.237 1941.5,-540 1979.27,-512.077 1998.5,-497.973 1998.5,-451 1998.5,-451 1998.5,-451 1998.5,-377 1998.5,-272.955 1835.47,-244.595 1768.6,-237.339"/>
</g>
<!-- 4804&#45;&#45;4806 -->
<g id="edge49" class="edge"><title>4804&#45;&#45;4806</title>
<path fill="none" stroke="black" d="M1699.1,-504.055C1702.08,-493.049 1705.96,-478.764 1708.94,-467.789"/>
</g>
<!-- 4804&#45;&#45;4808 -->
<g id="edge50" class="edge"><title>4804&#45;&#45;4808</title>
<path fill="none" stroke="black" d="M1711.87,-507.434C1723.96,-497.414 1739.93,-482.966 1751.5,-468 1769.32,-444.946 1784.21,-414.368 1792.48,-395.717"/>
</g>
<!-- 4804&#45;&#45;4810 -->
<g id="edge51" class="edge"><title>4804&#45;&#45;4810</title>
<path fill="none" stroke="black" d="M1686.8,-504.22C1682.54,-493.991 1677.67,-480.519 1675.5,-468 1666.49,-416.164 1675.02,-353.634 1680.2,-324.072"/>
</g>
<!-- 4804&#45;&#45;4812 -->
<g id="edge52" class="edge"><title>4804&#45;&#45;4812</title>
<path fill="none" stroke="black" d="M1683.97,-505.066C1659.27,-465.498 1602.8,-360.716 1645.5,-288 1660.22,-262.92 1691.61,-248.835 1714.28,-241.592"/>
</g>
<!-- 4806&#45;&#45;4808 -->
<g id="edge53" class="edge"><title>4806&#45;&#45;4808</title>
<path fill="none" stroke="black" d="M1730.49,-435.17C1745.56,-422.898 1767.48,-405.064 1782.54,-392.801"/>
</g>
<!-- 4806&#45;&#45;4810 -->
<g id="edge54" class="edge"><title>4806&#45;&#45;4810</title>
<path fill="none" stroke="black" d="M1709.88,-431.871C1704.11,-404.578 1692.9,-351.52 1687.13,-324.189"/>
</g>
<!-- 4806&#45;&#45;4812 -->
<g id="edge55" class="edge"><title>4806&#45;&#45;4812</title>
<path fill="none" stroke="black" d="M1715.66,-431.849C1720.72,-391.78 1733.26,-292.383 1738.32,-252.232"/>
</g>
<!-- 4808&#45;&#45;4810 -->
<g id="edge56" class="edge"><title>4808&#45;&#45;4810</title>
<path fill="none" stroke="black" d="M1779.56,-364.967C1758.31,-352.145 1724.86,-331.962 1703.57,-319.111"/>
</g>
<!-- 4808&#45;&#45;4812 -->
<g id="edge57" class="edge"><title>4808&#45;&#45;4812</title>
<path fill="none" stroke="black" d="M1792.61,-360.433C1781.31,-333.217 1758.92,-279.334 1747.52,-251.902"/>
</g>
<!-- 4832 -->
<g id="node37" class="node"><title>4832</title>
<ellipse fill="none" stroke="black" cx="1903.5" cy="-306" rx="28.6953" ry="18"/>
<text text-anchor="middle" x="1903.5" y="-302.3" font-family="Times New Roman,serif" font-size="14.00">4832</text>
</g>
<!-- 4808&#45;&#45;4832 -->
<g id="edge58" class="edge"><title>4808&#45;&#45;4832</title>
<path fill="none" stroke="black" d="M1818.57,-364.161C1837.34,-351.531 1865.82,-332.36 1884.54,-319.758"/>
</g>
<!-- 4810&#45;&#45;4812 -->
<g id="edge59" class="edge"><title>4810&#45;&#45;4812</title>
<path fill="none" stroke="black" d="M1696.15,-289.465C1705.59,-277.865 1718.44,-262.082 1727.88,-250.492"/>
</g>
<!-- 4827 -->
<g id="node38" class="node"><title>4827</title>
<ellipse fill="none" stroke="black" cx="1903.5" cy="-522" rx="28.6953" ry="18"/>
<text text-anchor="middle" x="1903.5" y="-518.3" font-family="Times New Roman,serif" font-size="14.00">4827</text>
</g>
<!-- 4827&#45;&#45;4808 -->
<g id="edge61" class="edge"><title>4827&#45;&#45;4808</title>
<path fill="none" stroke="black" d="M1891.97,-505.261C1871.98,-477.966 1831.1,-422.154 1811.08,-394.81"/>
</g>
<!-- 4827&#45;&#45;4832 -->
<g id="edge62" class="edge"><title>4827&#45;&#45;4832</title>
<path fill="none" stroke="black" d="M1918,-506.203C1926.66,-496.288 1936.85,-482.444 1941.5,-468 1958.2,-416.051 1929.18,-352.528 1913.1,-323.227"/>
</g>
<!-- 4828 -->
<g id="node39" class="node"><title>4828</title>
<ellipse fill="none" stroke="black" cx="1903.5" cy="-450" rx="28.6953" ry="18"/>
<text text-anchor="middle" x="1903.5" y="-446.3" font-family="Times New Roman,serif" font-size="14.00">4828</text>
</g>
<!-- 4827&#45;&#45;4828 -->
<g id="edge60" class="edge"><title>4827&#45;&#45;4828</title>
<path fill="none" stroke="black" d="M1903.5,-503.697C1903.5,-492.846 1903.5,-478.917 1903.5,-468.104"/>
</g>
<!-- 4828&#45;&#45;4808 -->
<g id="edge63" class="edge"><title>4828&#45;&#45;4808</title>
<path fill="none" stroke="black" d="M1884.42,-436.161C1865.66,-423.531 1837.17,-404.36 1818.45,-391.758"/>
</g>
<!-- 4828&#45;&#45;4832 -->
<g id="edge64" class="edge"><title>4828&#45;&#45;4832</title>
<path fill="none" stroke="black" d="M1903.5,-431.871C1903.5,-404.578 1903.5,-351.52 1903.5,-324.189"/>
</g>
<!-- 5845 -->
<g id="node40" class="node"><title>5845</title>
<polygon fill="#6a7982" stroke="#6a7982" points="1212.5,-612 1158.5,-612 1158.5,-576 1212.5,-576 1212.5,-612"/>
<text text-anchor="middle" x="1185.5" y="-590.3" font-family="Times New Roman,serif" font-size="14.00">5845</text>
</g>
<!-- 5845&#45;&#45;1385 -->
<g id="edge66" class="edge"><title>5845&#45;&#45;1385</title>
<path fill="none" stroke="black" d="M1190.3,-575.913C1194.71,-557.976 1200.06,-528.968 1196.5,-504 1182.35,-405.005 1170.52,-380.894 1133.5,-288 1120.18,-254.578 1121.78,-241.601 1096.5,-216 1075.93,-195.168 1045.43,-180.631 1023.52,-172.119"/>
</g>
<!-- 5845&#45;&#45;11038 -->
<g id="edge70" class="edge"><title>5845&#45;&#45;11038</title>
<path fill="none" stroke="black" d="M1212.75,-584.622C1261.25,-567.826 1357.5,-525.154 1357.5,-451 1357.5,-451 1357.5,-451 1357.5,-233 1357.5,-164.747 1274.65,-119.875 1231.28,-101.063"/>
</g>
<!-- 5845&#45;&#45;6128 -->
<g id="edge68" class="edge"><title>5845&#45;&#45;6128</title>
<path fill="none" stroke="black" d="M1158.36,-575.871C1115.11,-548.578 1031.04,-495.52 987.734,-468.189"/>
</g>
<!-- 5845&#45;&#45;5927 -->
<g id="edge69" class="edge"><title>5845&#45;&#45;5927</title>
<path fill="none" stroke="black" d="M1158.45,-589.956C1102.04,-581.945 973.064,-554.528 924.497,-468 898.323,-421.367 921.467,-355.269 935.14,-324.287"/>
</g>
<!-- 5846 -->
<g id="node41" class="node"><title>5846</title>
<ellipse fill="#953560" stroke="#953560" cx="1262.5" cy="-234" rx="28.6953" ry="18"/>
<text text-anchor="middle" x="1262.5" y="-230.3" font-family="Times New Roman,serif" font-size="14.00">5846</text>
</g>
<!-- 5845&#45;&#45;5846 -->
<g id="edge65" class="edge"><title>5845&#45;&#45;5846</title>
<path fill="none" stroke="black" d="M1202.76,-575.587C1211.72,-565.789 1222.27,-552.949 1229.5,-540 1249.84,-503.549 1259.5,-492.742 1259.5,-451 1259.5,-451 1259.5,-451 1259.5,-377 1259.5,-331.875 1261.03,-278.703 1261.9,-252.047"/>
</g>
<!-- 11032 -->
<g id="node42" class="node"><title>11032</title>
<ellipse fill="none" stroke="black" cx="1155.5" cy="-522" rx="32.4942" ry="18"/>
<text text-anchor="middle" x="1155.5" y="-518.3" font-family="Times New Roman,serif" font-size="14.00">11032</text>
</g>
<!-- 5845&#45;&#45;11032 -->
<g id="edge67" class="edge"><title>5845&#45;&#45;11032</title>
<path fill="none" stroke="black" d="M1178.08,-575.697C1173.36,-564.684 1167.28,-550.5 1162.62,-539.622"/>
</g>
<!-- 5846&#45;&#45;1385 -->
<g id="edge71" class="edge"><title>5846&#45;&#45;1385</title>
<path fill="none" stroke="black" d="M1236.51,-226.161C1186.05,-212.881 1075.26,-183.726 1023.78,-170.18"/>
</g>
<!-- 11032&#45;&#45;1385 -->
<g id="edge74" class="edge"><title>11032&#45;&#45;1385</title>
<path fill="none" stroke="black" d="M1155.32,-503.971C1153.91,-453.914 1143.39,-305.17 1069.5,-216 1056.81,-200.685 1038.74,-187.522 1023.76,-178.144"/>
</g>
<!-- 11032&#45;&#45;11038 -->
<g id="edge75" class="edge"><title>11032&#45;&#45;11038</title>
<path fill="none" stroke="black" d="M1182.58,-511.82C1229.16,-494.117 1319.5,-450.558 1319.5,-379 1319.5,-379 1319.5,-379 1319.5,-233 1319.5,-174.197 1259.32,-125.881 1226.41,-103.855"/>
</g>
<!-- 11032&#45;&#45;6128 -->
<g id="edge72" class="edge"><title>11032&#45;&#45;6128</title>
<path fill="none" stroke="black" d="M1128.05,-512.122C1097.11,-501.981 1045.39,-484.634 1001.5,-468 997.03,-466.307 992.321,-464.437 987.751,-462.575"/>
</g>
<!-- 11032&#45;&#45;5927 -->
<g id="edge73" class="edge"><title>11032&#45;&#45;5927</title>
<path fill="none" stroke="black" d="M1135.18,-507.795C1103.79,-486.74 1042.73,-443.105 1000.5,-396 980.288,-373.457 962.45,-343.001 952.323,-324.197"/>
</g>
<!-- 6651 -->
<g id="node43" class="node"><title>6651</title>
<ellipse fill="none" stroke="black" cx="2102.5" cy="-594" rx="28.6953" ry="18"/>
<text text-anchor="middle" x="2102.5" y="-590.3" font-family="Times New Roman,serif" font-size="14.00">6651</text>
</g>
<!-- 6652 -->
<g id="node44" class="node"><title>6652</title>
<ellipse fill="none" stroke="black" cx="2102.5" cy="-522" rx="28.6953" ry="18"/>
<text text-anchor="middle" x="2102.5" y="-518.3" font-family="Times New Roman,serif" font-size="14.00">6652</text>
</g>
<!-- 6651&#45;&#45;6652 -->
<g id="edge76" class="edge"><title>6651&#45;&#45;6652</title>
<path fill="none" stroke="black" d="M2102.5,-575.697C2102.5,-564.846 2102.5,-550.917 2102.5,-540.104"/>
</g>
<!-- 6654 -->
<g id="node45" class="node"><title>6654</title>
<ellipse fill="none" stroke="black" cx="2055.5" cy="-450" rx="28.6953" ry="18"/>
<text text-anchor="middle" x="2055.5" y="-446.3" font-family="Times New Roman,serif" font-size="14.00">6654</text>
</g>
<!-- 6651&#45;&#45;6654 -->
<g id="edge77" class="edge"><title>6651&#45;&#45;6654</title>
<path fill="none" stroke="black" d="M2088.49,-578.031C2080.02,-568.048 2069.86,-554.191 2064.5,-540 2055.55,-516.321 2054.35,-486.714 2054.65,-468.328"/>
</g>
<!-- 6656 -->
<g id="node46" class="node"><title>6656</title>
<ellipse fill="none" stroke="black" cx="2112.5" cy="-378" rx="28.6953" ry="18"/>
<text text-anchor="middle" x="2112.5" y="-374.3" font-family="Times New Roman,serif" font-size="14.00">6656</text>
</g>
<!-- 6651&#45;&#45;6656 -->
<g id="edge78" class="edge"><title>6651&#45;&#45;6656</title>
<path fill="none" stroke="black" d="M2117,-578.203C2125.66,-568.288 2135.85,-554.444 2140.5,-540 2156.99,-488.681 2133.58,-424.853 2120.41,-395.353"/>
</g>
<!-- 6652&#45;&#45;6654 -->
<g id="edge79" class="edge"><title>6652&#45;&#45;6654</title>
<path fill="none" stroke="black" d="M2091.83,-505.116C2084.14,-493.66 2073.8,-478.263 2066.12,-466.821"/>
</g>
<!-- 6652&#45;&#45;6656 -->
<g id="edge80" class="edge"><title>6652&#45;&#45;6656</title>
<path fill="none" stroke="black" d="M2103.7,-503.871C2105.63,-476.578 2109.36,-423.52 2111.29,-396.189"/>
</g>
<!-- 6654&#45;&#45;6656 -->
<g id="edge81" class="edge"><title>6654&#45;&#45;6656</title>
<path fill="none" stroke="black" d="M2068.15,-433.465C2077.59,-421.865 2090.44,-406.082 2099.88,-394.492"/>
</g>
<!-- 6727 -->
<g id="node47" class="node"><title>6727</title>
<ellipse fill="none" stroke="black" cx="549.497" cy="-450" rx="28.6953" ry="18"/>
<text text-anchor="middle" x="549.497" y="-446.3" font-family="Times New Roman,serif" font-size="14.00">6727</text>
</g>
<!-- 6727&#45;&#45;5338 -->
<g id="edge84" class="edge"><title>6727&#45;&#45;5338</title>
<path fill="none" stroke="black" d="M562.456,-433.425C569.914,-423.418 578.564,-409.757 582.497,-396 596.941,-345.475 590.17,-282.33 585.554,-252.35"/>
</g>
<!-- 6727&#45;&#45;6734 -->
<g id="edge85" class="edge"><title>6727&#45;&#45;6734</title>
<path fill="none" stroke="black" d="M532.925,-434.951C509.463,-413.778 467.822,-371.124 453.497,-324 439.532,-278.057 442.672,-263.377 450.497,-216 452.556,-203.536 457.165,-190.063 461.204,-179.821"/>
</g>
<!-- 6727&#45;&#45;6736 -->
<g id="edge86" class="edge"><title>6727&#45;&#45;6736</title>
<path fill="none" stroke="black" d="M570.921,-437.965C607.36,-417.485 677.497,-369.895 677.497,-307 677.497,-307 677.497,-307 677.497,-233 677.497,-177.83 627.347,-127.868 599.922,-104.67"/>
</g>
<!-- 6728 -->
<g id="node48" class="node"><title>6728</title>
<ellipse fill="none" stroke="black" cx="544.497" cy="-378" rx="28.6953" ry="18"/>
<text text-anchor="middle" x="544.497" y="-374.3" font-family="Times New Roman,serif" font-size="14.00">6728</text>
</g>
<!-- 6727&#45;&#45;6728 -->
<g id="edge82" class="edge"><title>6727&#45;&#45;6728</title>
<path fill="none" stroke="black" d="M548.261,-431.697C547.486,-420.846 546.491,-406.917 545.719,-396.104"/>
</g>
<!-- 6730 -->
<g id="node49" class="node"><title>6730</title>
<ellipse fill="none" stroke="black" cx="506.497" cy="-306" rx="28.6953" ry="18"/>
<text text-anchor="middle" x="506.497" y="-302.3" font-family="Times New Roman,serif" font-size="14.00">6730</text>
</g>
<!-- 6727&#45;&#45;6730 -->
<g id="edge83" class="edge"><title>6727&#45;&#45;6730</title>
<path fill="none" stroke="black" d="M533.561,-434.993C523.682,-425.196 511.883,-411.188 506.497,-396 498.027,-372.117 500.409,-342.309 503.215,-323.968"/>
</g>
<!-- 6728&#45;&#45;5338 -->
<g id="edge88" class="edge"><title>6728&#45;&#45;5338</title>
<path fill="none" stroke="black" d="M549.005,-360.153C556.319,-332.824 570.685,-279.14 577.995,-251.825"/>
</g>
<!-- 6728&#45;&#45;6734 -->
<g id="edge89" class="edge"><title>6728&#45;&#45;6734</title>
<path fill="none" stroke="black" d="M520.845,-367.759C502.871,-359.328 479.436,-344.964 468.497,-324 443.93,-276.916 455.83,-211.037 463.598,-180.197"/>
</g>
<!-- 6728&#45;&#45;6736 -->
<g id="edge90" class="edge"><title>6728&#45;&#45;6736</title>
<path fill="none" stroke="black" d="M557.707,-361.771C576.067,-339.477 608.407,-295.825 620.497,-252 635.009,-199.398 607.048,-136.192 591.666,-107.097"/>
</g>
<!-- 6728&#45;&#45;6730 -->
<g id="edge87" class="edge"><title>6728&#45;&#45;6730</title>
<path fill="none" stroke="black" d="M535.684,-360.765C529.545,-349.456 521.391,-334.437 515.263,-323.147"/>
</g>
<!-- 6730&#45;&#45;5338 -->
<g id="edge91" class="edge"><title>6730&#45;&#45;5338</title>
<path fill="none" stroke="black" d="M522.244,-290.496C535.375,-278.402 553.978,-261.267 567.03,-249.246"/>
</g>
<!-- 6730&#45;&#45;6734 -->
<g id="edge92" class="edge"><title>6730&#45;&#45;6734</title>
<path fill="none" stroke="black" d="M501.989,-288.153C494.675,-260.824 480.309,-207.14 473,-179.825"/>
</g>
<!-- 6730&#45;&#45;6736 -->
<g id="edge93" class="edge"><title>6730&#45;&#45;6736</title>
<path fill="none" stroke="black" d="M512.461,-288.208C526.668,-248.204 562.382,-147.639 576.561,-107.714"/>
</g>
<!-- 9395 -->
<g id="node50" class="node"><title>9395</title>
<ellipse fill="none" stroke="black" cx="2216.5" cy="-594" rx="28.6953" ry="18"/>
<text text-anchor="middle" x="2216.5" y="-590.3" font-family="Times New Roman,serif" font-size="14.00">9395</text>
</g>
<!-- 9396 -->
<g id="node51" class="node"><title>9396</title>
<ellipse fill="none" stroke="black" cx="2216.5" cy="-522" rx="28.6953" ry="18"/>
<text text-anchor="middle" x="2216.5" y="-518.3" font-family="Times New Roman,serif" font-size="14.00">9396</text>
</g>
<!-- 9395&#45;&#45;9396 -->
<g id="edge94" class="edge"><title>9395&#45;&#45;9396</title>
<path fill="none" stroke="black" d="M2216.5,-575.697C2216.5,-564.846 2216.5,-550.917 2216.5,-540.104"/>
</g>
<!-- 9847 -->
<g id="node52" class="node"><title>9847</title>
<ellipse fill="none" stroke="black" cx="2320.5" cy="-594" rx="28.6953" ry="18"/>
<text text-anchor="middle" x="2320.5" y="-590.3" font-family="Times New Roman,serif" font-size="14.00">9847</text>
</g>
<!-- 9848 -->
<g id="node53" class="node"><title>9848</title>
<ellipse fill="none" stroke="black" cx="2291.5" cy="-522" rx="28.6953" ry="18"/>
<text text-anchor="middle" x="2291.5" y="-518.3" font-family="Times New Roman,serif" font-size="14.00">9848</text>
</g>
<!-- 9847&#45;&#45;9848 -->
<g id="edge95" class="edge"><title>9847&#45;&#45;9848</title>
<path fill="none" stroke="black" d="M2313.62,-576.411C2309.07,-565.414 2303.11,-551.027 2298.52,-539.956"/>
</g>
<!-- 9850 -->
<g id="node54" class="node"><title>9850</title>
<ellipse fill="none" stroke="black" cx="2310.5" cy="-450" rx="28.6953" ry="18"/>
<text text-anchor="middle" x="2310.5" y="-446.3" font-family="Times New Roman,serif" font-size="14.00">9850</text>
</g>
<!-- 9847&#45;&#45;9850 -->
<g id="edge96" class="edge"><title>9847&#45;&#45;9850</title>
<path fill="none" stroke="black" d="M2324.91,-576.171C2329,-558.202 2333.83,-528.94 2329.5,-504 2327.32,-491.481 2322.46,-478.009 2318.19,-467.78"/>
</g>
<!-- 9848&#45;&#45;9850 -->
<g id="edge97" class="edge"><title>9848&#45;&#45;9850</title>
<path fill="none" stroke="black" d="M2296.1,-504.055C2299.08,-493.049 2302.96,-478.764 2305.94,-467.789"/>
</g>
<!-- 10175 -->
<g id="node55" class="node"><title>10175</title>
<ellipse fill="none" stroke="black" cx="2519.5" cy="-594" rx="32.4942" ry="18"/>
<text text-anchor="middle" x="2519.5" y="-590.3" font-family="Times New Roman,serif" font-size="14.00">10175</text>
</g>
<!-- 10176 -->
<g id="node56" class="node"><title>10176</title>
<ellipse fill="none" stroke="black" cx="2519.5" cy="-522" rx="32.4942" ry="18"/>
<text text-anchor="middle" x="2519.5" y="-518.3" font-family="Times New Roman,serif" font-size="14.00">10176</text>
</g>
<!-- 10175&#45;&#45;10176 -->
<g id="edge98" class="edge"><title>10175&#45;&#45;10176</title>
<path fill="none" stroke="black" d="M2519.5,-575.697C2519.5,-564.846 2519.5,-550.917 2519.5,-540.104"/>
</g>
<!-- 10178 -->
<g id="node57" class="node"><title>10178</title>
<ellipse fill="none" stroke="black" cx="2598.5" cy="-450" rx="32.4942" ry="18"/>
<text text-anchor="middle" x="2598.5" y="-446.3" font-family="Times New Roman,serif" font-size="14.00">10178</text>
</g>
<!-- 10175&#45;&#45;10178 -->
<g id="edge99" class="edge"><title>10175&#45;&#45;10178</title>
<path fill="none" stroke="black" d="M2533.18,-577.521C2541.74,-567.333 2552.6,-553.442 2560.5,-540 2574.45,-516.24 2586.12,-486.397 2592.71,-468.016"/>
</g>
<!-- 10180 -->
<g id="node58" class="node"><title>10180</title>
<ellipse fill="none" stroke="black" cx="2598.5" cy="-378" rx="32.4942" ry="18"/>
<text text-anchor="middle" x="2598.5" y="-374.3" font-family="Times New Roman,serif" font-size="14.00">10180</text>
</g>
<!-- 10175&#45;&#45;10180 -->
<g id="edge100" class="edge"><title>10175&#45;&#45;10180</title>
<path fill="none" stroke="black" d="M2540.3,-580.033C2569.74,-560.209 2621.92,-519.218 2639.5,-468 2644.69,-452.866 2644.67,-447.141 2639.5,-432 2634.53,-417.469 2623.79,-403.832 2614.54,-394.03"/>
</g>
<!-- 10182 -->
<g id="node59" class="node"><title>10182</title>
<ellipse fill="none" stroke="black" cx="2530.5" cy="-306" rx="32.4942" ry="18"/>
<text text-anchor="middle" x="2530.5" y="-302.3" font-family="Times New Roman,serif" font-size="14.00">10182</text>
</g>
<!-- 10175&#45;&#45;10182 -->
<g id="edge101" class="edge"><title>10175&#45;&#45;10182</title>
<path fill="none" stroke="black" d="M2503.45,-577.97C2494.21,-568.168 2483.46,-554.531 2478.5,-540 2473.32,-524.859 2476.44,-519.867 2478.5,-504 2487.35,-435.772 2512.77,-357.501 2524.47,-323.833"/>
</g>
<!-- 10184 -->
<g id="node60" class="node"><title>10184</title>
<ellipse fill="none" stroke="black" cx="2530.5" cy="-234" rx="32.4942" ry="18"/>
<text text-anchor="middle" x="2530.5" y="-230.3" font-family="Times New Roman,serif" font-size="14.00">10184</text>
</g>
<!-- 10175&#45;&#45;10184 -->
<g id="edge102" class="edge"><title>10175&#45;&#45;10184</title>
<path fill="none" stroke="black" d="M2496.03,-581.544C2457.84,-561.068 2386.5,-514.333 2386.5,-451 2386.5,-451 2386.5,-451 2386.5,-377 2386.5,-310.992 2464.16,-265.352 2505.41,-245.763"/>
</g>
<!-- 10176&#45;&#45;10178 -->
<g id="edge103" class="edge"><title>10176&#45;&#45;10178</title>
<path fill="none" stroke="black" d="M2536.25,-506.155C2549.75,-494.195 2568.62,-477.473 2582.04,-465.584"/>
</g>
<!-- 10176&#45;&#45;10180 -->
<g id="edge104" class="edge"><title>10176&#45;&#45;10180</title>
<path fill="none" stroke="black" d="M2525.29,-503.984C2531.87,-485.603 2543.54,-455.76 2557.5,-432 2565.39,-418.558 2576.25,-404.667 2584.82,-394.479"/>
</g>
<!-- 10176&#45;&#45;10182 -->
<g id="edge105" class="edge"><title>10176&#45;&#45;10182</title>
<path fill="none" stroke="black" d="M2520.38,-503.849C2522.44,-463.78 2527.55,-364.383 2529.61,-324.232"/>
</g>
<!-- 10176&#45;&#45;10184 -->
<g id="edge106" class="edge"><title>10176&#45;&#45;10184</title>
<path fill="none" stroke="black" d="M2512.38,-504.39C2496.77,-465.466 2462.93,-365.769 2489.5,-288 2494.46,-273.469 2505.21,-259.832 2514.45,-250.03"/>
</g>
<!-- 10178&#45;&#45;10180 -->
<g id="edge107" class="edge"><title>10178&#45;&#45;10180</title>
<path fill="none" stroke="black" d="M2598.5,-431.697C2598.5,-420.846 2598.5,-406.917 2598.5,-396.104"/>
</g>
<!-- 10178&#45;&#45;10182 -->
<g id="edge108" class="edge"><title>10178&#45;&#45;10182</title>
<path fill="none" stroke="black" d="M2584.31,-433.8C2575.55,-423.724 2564.65,-409.852 2557.5,-396 2545.35,-372.469 2537.69,-342.561 2533.75,-324.104"/>
</g>
<!-- 10178&#45;&#45;10184 -->
<g id="edge109" class="edge"><title>10178&#45;&#45;10184</title>
<path fill="none" stroke="black" d="M2614.54,-433.97C2623.79,-424.168 2634.53,-410.531 2639.5,-396 2644.67,-380.859 2643.98,-375.358 2639.5,-360 2625.04,-310.528 2577.51,-269.126 2550.23,-248.696"/>
</g>
<!-- 10180&#45;&#45;10182 -->
<g id="edge110" class="edge"><title>10180&#45;&#45;10182</title>
<path fill="none" stroke="black" d="M2583.74,-361.811C2572.34,-350.07 2556.62,-333.893 2545.22,-322.159"/>
</g>
<!-- 10180&#45;&#45;10184 -->
<g id="edge111" class="edge"><title>10180&#45;&#45;10184</title>
<path fill="none" stroke="black" d="M2595.25,-359.896C2591.31,-341.439 2583.64,-311.531 2571.5,-288 2564.35,-274.148 2553.45,-260.276 2544.69,-250.2"/>
</g>
<!-- 10182&#45;&#45;10184 -->
<g id="edge112" class="edge"><title>10182&#45;&#45;10184</title>
<path fill="none" stroke="black" d="M2530.5,-287.697C2530.5,-276.846 2530.5,-262.917 2530.5,-252.104"/>
</g>
<!-- 10367 -->
<g id="node61" class="node"><title>10367</title>
<ellipse fill="#6f868f" stroke="#6f868f" cx="1041.5" cy="-378" rx="32.4942" ry="18"/>
<text text-anchor="middle" x="1041.5" y="-374.3" font-family="Times New Roman,serif" font-size="14.00">10367</text>
</g>
<!-- 10367&#45;&#45;5802 -->
<g id="edge114" class="edge"><title>10367&#45;&#45;5802</title>
<path fill="none" stroke="black" d="M1036.16,-360.153C1027.5,-332.824 1010.49,-279.14 1001.83,-251.825"/>
</g>
<!-- 10367&#45;&#45;5927 -->
<g id="edge113" class="edge"><title>10367&#45;&#45;5927</title>
<path fill="none" stroke="black" d="M1022.14,-363.17C1006.41,-351.934 984.147,-336.036 967.324,-324.019"/>
</g>
</g>
</svg>
