<svg width="1968px" height="539px"
 viewBox="0.00 0.00 1475.99 404.00" xmlns="http://www.w3.org/2000/svg" xmlns:xlink="http://www.w3.org/1999/xlink">
<g id="graph0" class="graph" transform="scale(1.000022500562514 1.000022500562514) rotate(0) translate(4 400)">
<title>G</title>
<polygon fill="white" stroke="none" points="-4,4 -4,-400 1471.99,-400 1471.99,4 -4,4"/>
<!-- 2507 -->
<g id="node1" class="node"><title>2507</title>
<polygon fill="#947541" stroke="#947541" points="342.497,-252 288.497,-252 288.497,-216 342.497,-216 342.497,-252"/>
<text text-anchor="middle" x="315.497" y="-230.3" font-family="Times New Roman,serif" font-size="14.00">2507</text>
</g>
<!-- 2508 -->
<g id="node2" class="node"><title>2508</title>
<polygon fill="#6c3e62" stroke="#6c3e62" points="322.497,-180 268.497,-180 268.497,-144 322.497,-144 322.497,-180"/>
<text text-anchor="middle" x="295.497" y="-158.3" font-family="Times New Roman,serif" font-size="14.00">2508</text>
</g>
<!-- 2507&#45;&#45;2508 -->
<g id="edge1" class="edge"><title>2507&#45;&#45;2508</title>
<path fill="none" stroke="black" d="M310.553,-215.697C307.453,-204.846 303.473,-190.917 300.384,-180.104"/>
</g>
<!-- 2510 -->
<g id="node5" class="node"><title>2510</title>
<polygon fill="#4e5b36" stroke="#4e5b36" points="483.497,-36 429.497,-36 429.497,-0 483.497,-0 483.497,-36"/>
<text text-anchor="middle" x="456.497" y="-14.3" font-family="Times New Roman,serif" font-size="14.00">2510</text>
</g>
<!-- 2507&#45;&#45;2510 -->
<g id="edge2" class="edge"><title>2507&#45;&#45;2510</title>
<path fill="none" stroke="black" d="M325.254,-215.653C342.313,-185.676 379.122,-122.537 414.497,-72 423.115,-59.6889 433.615,-46.4389 441.96,-36.2666"/>
</g>
<!-- 2514 -->
<g id="node3" class="node"><title>2514</title>
<polygon fill="#8b497b" stroke="#8b497b" points="172.497,-108 118.497,-108 118.497,-72 172.497,-72 172.497,-108"/>
<text text-anchor="middle" x="145.497" y="-86.3" font-family="Times New Roman,serif" font-size="14.00">2514</text>
</g>
<!-- 2508&#45;&#45;2514 -->
<g id="edge3" class="edge"><title>2508&#45;&#45;2514</title>
<path fill="none" stroke="black" d="M268.333,-148.324C241.233,-135.677 199.83,-116.356 172.712,-103.7"/>
</g>
<!-- 2522 -->
<g id="node4" class="node"><title>2522</title>
<ellipse fill="#6c3e62" stroke="#6c3e62" cx="173.497" cy="-18" rx="28.6953" ry="18"/>
<text text-anchor="middle" x="173.497" y="-14.3" font-family="Times New Roman,serif" font-size="14.00">2522</text>
</g>
<!-- 2508&#45;&#45;2522 -->
<g id="edge4" class="edge"><title>2508&#45;&#45;2522</title>
<path fill="none" stroke="black" d="M280.781,-143.871C256.825,-115.988 209.766,-61.214 186.774,-34.453"/>
</g>
<!-- 2508&#45;&#45;2510 -->
<g id="edge5" class="edge"><title>2508&#45;&#45;2510</title>
<path fill="none" stroke="black" d="M309.005,-143.763C324.242,-124.925 350.327,-94.4383 376.497,-72 392.939,-57.9026 413.312,-44.4555 429.384,-34.6337"/>
</g>
<!-- 9692 -->
<g id="node6" class="node"><title>9692</title>
<ellipse fill="#6c3e62" stroke="#6c3e62" cx="295.497" cy="-90" rx="28.6953" ry="18"/>
<text text-anchor="middle" x="295.497" y="-86.3" font-family="Times New Roman,serif" font-size="14.00">9692</text>
</g>
<!-- 2508&#45;&#45;9692 -->
<g id="edge6" class="edge"><title>2508&#45;&#45;9692</title>
<path fill="none" stroke="black" d="M295.497,-143.697C295.497,-132.846 295.497,-118.917 295.497,-108.104"/>
</g>
<!-- 2514&#45;&#45;2522 -->
<g id="edge7" class="edge"><title>2514&#45;&#45;2522</title>
<path fill="none" stroke="black" d="M152.418,-71.6966C156.823,-60.6843 162.497,-46.5002 166.848,-35.6223"/>
</g>
<!-- 2514&#45;&#45;2510 -->
<g id="edge8" class="edge"><title>2514&#45;&#45;2510</title>
<path fill="none" stroke="black" d="M172.552,-82.9104C231.37,-69.6718 370.322,-38.3964 429.283,-25.1254"/>
</g>
<!-- 2511 -->
<g id="node7" class="node"><title>2511</title>
<polygon fill="#8a6b87" stroke="#8a6b87" points="383.497,-324 329.497,-324 329.497,-288 383.497,-288 383.497,-324"/>
<text text-anchor="middle" x="356.497" y="-302.3" font-family="Times New Roman,serif" font-size="14.00">2511</text>
</g>
<!-- 2511&#45;&#45;2514 -->
<g id="edge10" class="edge"><title>2511&#45;&#45;2514</title>
<path fill="none" stroke="black" d="M329.143,-288.773C313.79,-279.046 294.721,-265.894 279.497,-252 228.461,-205.422 179.369,-139.298 157.448,-108.298"/>
</g>
<!-- 2511&#45;&#45;2510 -->
<g id="edge11" class="edge"><title>2511&#45;&#45;2510</title>
<path fill="none" stroke="black" d="M370.435,-287.777C386.81,-268.387 415.564,-236.872 445.497,-216 476.816,-194.162 499.533,-209.724 523.497,-180 553.953,-142.224 562.814,-114.554 539.497,-72 527.749,-50.559 503.227,-36.5342 483.869,-28.3305"/>
</g>
<!-- 2512 -->
<g id="node8" class="node"><title>2512</title>
<polygon fill="#6b6f33" stroke="#6b6f33" points="627.497,-180 573.497,-180 573.497,-144 627.497,-144 627.497,-180"/>
<text text-anchor="middle" x="600.497" y="-158.3" font-family="Times New Roman,serif" font-size="14.00">2512</text>
</g>
<!-- 2511&#45;&#45;2512 -->
<g id="edge9" class="edge"><title>2511&#45;&#45;2512</title>
<path fill="none" stroke="black" d="M383.542,-289.261C430.443,-261.966 526.345,-206.154 573.331,-178.81"/>
</g>
<!-- 6692 -->
<g id="node9" class="node"><title>6692</title>
<polygon fill="#749b72" stroke="#749b72" points="207.497,-252 153.497,-252 153.497,-216 207.497,-216 207.497,-252"/>
<text text-anchor="middle" x="180.497" y="-230.3" font-family="Times New Roman,serif" font-size="14.00">6692</text>
</g>
<!-- 2511&#45;&#45;6692 -->
<g id="edge12" class="edge"><title>2511&#45;&#45;6692</title>
<path fill="none" stroke="black" d="M329.287,-294.492C301.979,-283.905 258.739,-267.03 221.497,-252 217.067,-250.212 212.378,-248.293 207.815,-246.411"/>
</g>
<!-- 2512&#45;&#45;2510 -->
<g id="edge13" class="edge"><title>2512&#45;&#45;2510</title>
<path fill="none" stroke="black" d="M604.394,-143.754C607.728,-124.344 609.853,-92.8102 594.497,-72 568.516,-36.7901 515.929,-24.9713 483.7,-21.0043"/>
</g>
<!-- 6692&#45;&#45;2514 -->
<g id="edge14" class="edge"><title>6692&#45;&#45;2514</title>
<path fill="none" stroke="black" d="M176.275,-215.871C169.548,-188.578 156.47,-135.52 149.734,-108.189"/>
</g>
<!-- 6692&#45;&#45;2510 -->
<g id="edge15" class="edge"><title>6692&#45;&#45;2510</title>
<path fill="none" stroke="black" d="M183.718,-215.997C190.869,-183.048 211.234,-110.376 257.497,-72 307.854,-30.2272 387.906,-21.0934 429.465,-19.2809"/>
</g>
<!-- 6968 -->
<g id="node10" class="node"><title>6968</title>
<polygon fill="#48363a" stroke="#48363a" points="59.4971,-180 5.49712,-180 5.49712,-144 59.4971,-144 59.4971,-180"/>
<text text-anchor="middle" x="32.4971" y="-158.3" font-family="Times New Roman,serif" font-size="14.00">6968</text>
</g>
<!-- 6692&#45;&#45;6968 -->
<g id="edge16" class="edge"><title>6692&#45;&#45;6968</title>
<path fill="none" stroke="black" d="M153.352,-220.161C126.731,-207.57 86.3681,-188.48 59.7207,-175.876"/>
</g>
<!-- 6968&#45;&#45;2514 -->
<g id="edge17" class="edge"><title>6968&#45;&#45;2514</title>
<path fill="none" stroke="black" d="M59.5634,-144.233C77.3231,-133.232 100.466,-118.895 118.26,-107.873"/>
</g>
<!-- 11054 -->
<g id="node11" class="node"><title>11054</title>
<ellipse fill="#48363a" stroke="#48363a" cx="32.4971" cy="-90" rx="32.4942" ry="18"/>
<text text-anchor="middle" x="32.4971" y="-86.3" font-family="Times New Roman,serif" font-size="14.00">11054</text>
</g>
<!-- 6968&#45;&#45;11054 -->
<g id="edge18" class="edge"><title>6968&#45;&#45;11054</title>
<path fill="none" stroke="black" d="M32.4971,-143.697C32.4971,-132.846 32.4971,-118.917 32.4971,-108.104"/>
</g>
<!-- 5339 -->
<g id="node12" class="node"><title>5339</title>
<ellipse fill="none" stroke="black" cx="750.497" cy="-378" rx="28.6953" ry="18"/>
<text text-anchor="middle" x="750.497" y="-374.3" font-family="Times New Roman,serif" font-size="14.00">5339</text>
</g>
<!-- 5340 -->
<g id="node13" class="node"><title>5340</title>
<ellipse fill="none" stroke="black" cx="783.497" cy="-306" rx="28.6953" ry="18"/>
<text text-anchor="middle" x="783.497" y="-302.3" font-family="Times New Roman,serif" font-size="14.00">5340</text>
</g>
<!-- 5339&#45;&#45;5340 -->
<g id="edge19" class="edge"><title>5339&#45;&#45;5340</title>
<path fill="none" stroke="black" d="M758.318,-360.411C763.578,-349.252 770.484,-334.604 775.733,-323.47"/>
</g>
<!-- 5342 -->
<g id="node14" class="node"><title>5342</title>
<ellipse fill="none" stroke="black" cx="713.497" cy="-234" rx="28.6953" ry="18"/>
<text text-anchor="middle" x="713.497" y="-230.3" font-family="Times New Roman,serif" font-size="14.00">5342</text>
</g>
<!-- 5339&#45;&#45;5342 -->
<g id="edge20" class="edge"><title>5339&#45;&#45;5342</title>
<path fill="none" stroke="black" d="M746.107,-360.153C738.986,-332.824 724.998,-279.14 717.881,-251.825"/>
</g>
<!-- 5340&#45;&#45;5342 -->
<g id="edge21" class="edge"><title>5340&#45;&#45;5342</title>
<path fill="none" stroke="black" d="M768.652,-290.155C756.773,-278.276 740.195,-261.697 728.321,-249.824"/>
</g>
<!-- 7274 -->
<g id="node15" class="node"><title>7274</title>
<ellipse fill="none" stroke="black" cx="788.497" cy="-234" rx="28.6953" ry="18"/>
<text text-anchor="middle" x="788.497" y="-230.3" font-family="Times New Roman,serif" font-size="14.00">7274</text>
</g>
<!-- 5340&#45;&#45;7274 -->
<g id="edge22" class="edge"><title>5340&#45;&#45;7274</title>
<path fill="none" stroke="black" d="M784.733,-287.697C785.508,-276.846 786.503,-262.917 787.275,-252.104"/>
</g>
<!-- 7276 -->
<g id="node16" class="node"><title>7276</title>
<ellipse fill="none" stroke="black" cx="817.497" cy="-162" rx="28.6953" ry="18"/>
<text text-anchor="middle" x="817.497" y="-158.3" font-family="Times New Roman,serif" font-size="14.00">7276</text>
</g>
<!-- 5340&#45;&#45;7276 -->
<g id="edge23" class="edge"><title>5340&#45;&#45;7276</title>
<path fill="none" stroke="black" d="M799.434,-290.993C809.312,-281.196 821.111,-267.188 826.497,-252 835.01,-227.995 828.922,-198.221 823.447,-179.921"/>
</g>
<!-- 7274&#45;&#45;7276 -->
<g id="edge24" class="edge"><title>7274&#45;&#45;7276</title>
<path fill="none" stroke="black" d="M795.37,-216.411C799.926,-205.414 805.886,-191.027 810.472,-179.956"/>
</g>
<!-- 5961 -->
<g id="node17" class="node"><title>5961</title>
<ellipse fill="none" stroke="black" cx="858.497" cy="-378" rx="28.6953" ry="18"/>
<text text-anchor="middle" x="858.497" y="-374.3" font-family="Times New Roman,serif" font-size="14.00">5961</text>
</g>
<!-- 5962 -->
<g id="node18" class="node"><title>5962</title>
<ellipse fill="none" stroke="black" cx="858.497" cy="-306" rx="28.6953" ry="18"/>
<text text-anchor="middle" x="858.497" y="-302.3" font-family="Times New Roman,serif" font-size="14.00">5962</text>
</g>
<!-- 5961&#45;&#45;5962 -->
<g id="edge25" class="edge"><title>5961&#45;&#45;5962</title>
<path fill="none" stroke="black" d="M858.497,-359.697C858.497,-348.846 858.497,-334.917 858.497,-324.104"/>
</g>
<!-- 6689 -->
<g id="node19" class="node"><title>6689</title>
<polygon fill="#8a943f" stroke="#8a943f" points="419.497,-396 365.497,-396 365.497,-360 419.497,-360 419.497,-396"/>
<text text-anchor="middle" x="392.497" y="-374.3" font-family="Times New Roman,serif" font-size="14.00">6689</text>
</g>
<!-- 6689&#45;&#45;2510 -->
<g id="edge28" class="edge"><title>6689&#45;&#45;2510</title>
<path fill="none" stroke="black" d="M419.755,-375.041C487.207,-368.566 656.497,-341.688 656.497,-235 656.497,-235 656.497,-235 656.497,-161 656.497,-117.261 647.185,-101.062 614.497,-72 577.091,-38.7418 518.086,-26.2301 483.757,-21.613"/>
</g>
<!-- 6689&#45;&#45;2511 -->
<g id="edge26" class="edge"><title>6689&#45;&#45;2511</title>
<path fill="none" stroke="black" d="M383.598,-359.697C378.018,-348.846 370.854,-334.917 365.294,-324.104"/>
</g>
<!-- 6689&#45;&#45;6692 -->
<g id="edge27" class="edge"><title>6689&#45;&#45;6692</title>
<path fill="none" stroke="black" d="M366.925,-359.871C326.178,-332.578 246.964,-279.52 206.16,-252.189"/>
</g>
<!-- 7562 -->
<g id="node20" class="node"><title>7562</title>
<polygon fill="#669075" stroke="#669075" points="455.497,-324 401.497,-324 401.497,-288 455.497,-288 455.497,-324"/>
<text text-anchor="middle" x="428.497" y="-302.3" font-family="Times New Roman,serif" font-size="14.00">7562</text>
</g>
<!-- 6689&#45;&#45;7562 -->
<g id="edge29" class="edge"><title>6689&#45;&#45;7562</title>
<path fill="none" stroke="black" d="M401.396,-359.697C406.976,-348.846 414.14,-334.917 419.701,-324.104"/>
</g>
<!-- 7562&#45;&#45;2510 -->
<g id="edge30" class="edge"><title>7562&#45;&#45;2510</title>
<path fill="none" stroke="black" d="M429.377,-287.992C431.48,-249.448 437.394,-152.54 447.497,-72 449.007,-59.9613 451.304,-46.4821 453.2,-36.1299"/>
</g>
<!-- 6701 -->
<g id="node21" class="node"><title>6701</title>
<ellipse fill="#4e5b36" stroke="#4e5b36" cx="485.497" cy="-162" rx="28.6953" ry="18"/>
<text text-anchor="middle" x="485.497" y="-158.3" font-family="Times New Roman,serif" font-size="14.00">6701</text>
</g>
<!-- 6701&#45;&#45;2510 -->
<g id="edge32" class="edge"><title>6701&#45;&#45;2510</title>
<path fill="none" stroke="black" d="M499.694,-146.32C515.1,-128.52 535.94,-97.7085 523.497,-72 515.227,-54.9122 498.477,-41.6622 483.794,-32.6842"/>
</g>
<!-- 6702 -->
<g id="node22" class="node"><title>6702</title>
<ellipse fill="#4e5b36" stroke="#4e5b36" cx="485.497" cy="-90" rx="28.6953" ry="18"/>
<text text-anchor="middle" x="485.497" y="-86.3" font-family="Times New Roman,serif" font-size="14.00">6702</text>
</g>
<!-- 6701&#45;&#45;6702 -->
<g id="edge31" class="edge"><title>6701&#45;&#45;6702</title>
<path fill="none" stroke="black" d="M485.497,-143.697C485.497,-132.846 485.497,-118.917 485.497,-108.104"/>
</g>
<!-- 6702&#45;&#45;2510 -->
<g id="edge33" class="edge"><title>6702&#45;&#45;2510</title>
<path fill="none" stroke="black" d="M478.625,-72.411C474.136,-61.5758 468.283,-47.4498 463.725,-36.4468"/>
</g>
<!-- 6965 -->
<g id="node23" class="node"><title>6965</title>
<ellipse fill="#48363a" stroke="#48363a" cx="68.4971" cy="-306" rx="28.6953" ry="18"/>
<text text-anchor="middle" x="68.4971" y="-302.3" font-family="Times New Roman,serif" font-size="14.00">6965</text>
</g>
<!-- 6965&#45;&#45;2514 -->
<g id="edge36" class="edge"><title>6965&#45;&#45;2514</title>
<path fill="none" stroke="black" d="M81.8545,-289.758C90.0595,-279.666 100.175,-265.791 106.497,-252 129.149,-202.589 139.611,-138.382 143.536,-108.158"/>
</g>
<!-- 6965&#45;&#45;6968 -->
<g id="edge35" class="edge"><title>6965&#45;&#45;6968</title>
<path fill="none" stroke="black" d="M53.9954,-290.203C45.3339,-280.288 35.14,-266.444 30.4971,-252 22.7877,-228.017 25.7065,-198.493 28.8447,-180.207"/>
</g>
<!-- 6966 -->
<g id="node24" class="node"><title>6966</title>
<ellipse fill="#48363a" stroke="#48363a" cx="68.4971" cy="-234" rx="28.6953" ry="18"/>
<text text-anchor="middle" x="68.4971" y="-230.3" font-family="Times New Roman,serif" font-size="14.00">6966</text>
</g>
<!-- 6965&#45;&#45;6966 -->
<g id="edge34" class="edge"><title>6965&#45;&#45;6966</title>
<path fill="none" stroke="black" d="M68.4971,-287.697C68.4971,-276.846 68.4971,-262.917 68.4971,-252.104"/>
</g>
<!-- 6966&#45;&#45;2514 -->
<g id="edge38" class="edge"><title>6966&#45;&#45;2514</title>
<path fill="none" stroke="black" d="M75.8407,-216.294C83.9712,-198.177 97.7528,-168.558 111.497,-144 118.331,-131.789 126.831,-118.539 133.622,-108.342"/>
</g>
<!-- 6966&#45;&#45;6968 -->
<g id="edge37" class="edge"><title>6966&#45;&#45;6968</title>
<path fill="none" stroke="black" d="M60.1475,-216.765C54.4978,-205.779 47.0472,-191.292 41.3037,-180.124"/>
</g>
<!-- 9321 -->
<g id="node25" class="node"><title>9321</title>
<ellipse fill="none" stroke="black" cx="933.497" cy="-378" rx="28.6953" ry="18"/>
<text text-anchor="middle" x="933.497" y="-374.3" font-family="Times New Roman,serif" font-size="14.00">9321</text>
</g>
<!-- 9322 -->
<g id="node26" class="node"><title>9322</title>
<ellipse fill="none" stroke="black" cx="933.497" cy="-306" rx="28.6953" ry="18"/>
<text text-anchor="middle" x="933.497" y="-302.3" font-family="Times New Roman,serif" font-size="14.00">9322</text>
</g>
<!-- 9321&#45;&#45;9322 -->
<g id="edge39" class="edge"><title>9321&#45;&#45;9322</title>
<path fill="none" stroke="black" d="M933.497,-359.697C933.497,-348.846 933.497,-334.917 933.497,-324.104"/>
</g>
<!-- 10457 -->
<g id="node27" class="node"><title>10457</title>
<ellipse fill="none" stroke="black" cx="1123.5" cy="-378" rx="32.4942" ry="18"/>
<text text-anchor="middle" x="1123.5" y="-374.3" font-family="Times New Roman,serif" font-size="14.00">10457</text>
</g>
<!-- 10458 -->
<g id="node28" class="node"><title>10458</title>
<ellipse fill="none" stroke="black" cx="1123.5" cy="-306" rx="32.4942" ry="18"/>
<text text-anchor="middle" x="1123.5" y="-302.3" font-family="Times New Roman,serif" font-size="14.00">10458</text>
</g>
<!-- 10457&#45;&#45;10458 -->
<g id="edge40" class="edge"><title>10457&#45;&#45;10458</title>
<path fill="none" stroke="black" d="M1123.5,-359.697C1123.5,-348.846 1123.5,-334.917 1123.5,-324.104"/>
</g>
<!-- 10460 -->
<g id="node29" class="node"><title>10460</title>
<ellipse fill="none" stroke="black" cx="1202.5" cy="-234" rx="32.4942" ry="18"/>
<text text-anchor="middle" x="1202.5" y="-230.3" font-family="Times New Roman,serif" font-size="14.00">10460</text>
</g>
<!-- 10457&#45;&#45;10460 -->
<g id="edge41" class="edge"><title>10457&#45;&#45;10460</title>
<path fill="none" stroke="black" d="M1137.18,-361.521C1145.74,-351.333 1156.6,-337.442 1164.5,-324 1178.45,-300.24 1190.12,-270.397 1196.71,-252.016"/>
</g>
<!-- 10462 -->
<g id="node30" class="node"><title>10462</title>
<ellipse fill="none" stroke="black" cx="1202.5" cy="-162" rx="32.4942" ry="18"/>
<text text-anchor="middle" x="1202.5" y="-158.3" font-family="Times New Roman,serif" font-size="14.00">10462</text>
</g>
<!-- 10457&#45;&#45;10462 -->
<g id="edge42" class="edge"><title>10457&#45;&#45;10462</title>
<path fill="none" stroke="black" d="M1144.3,-364.033C1173.74,-344.209 1225.92,-303.218 1243.5,-252 1248.69,-236.866 1248.67,-231.141 1243.5,-216 1238.53,-201.469 1227.79,-187.832 1218.54,-178.03"/>
</g>
<!-- 10464 -->
<g id="node31" class="node"><title>10464</title>
<ellipse fill="none" stroke="black" cx="1134.5" cy="-90" rx="32.4942" ry="18"/>
<text text-anchor="middle" x="1134.5" y="-86.3" font-family="Times New Roman,serif" font-size="14.00">10464</text>
</g>
<!-- 10457&#45;&#45;10464 -->
<g id="edge43" class="edge"><title>10457&#45;&#45;10464</title>
<path fill="none" stroke="black" d="M1107.45,-361.97C1098.21,-352.168 1087.46,-338.531 1082.5,-324 1077.32,-308.859 1080.44,-303.867 1082.5,-288 1091.35,-219.772 1116.77,-141.501 1128.47,-107.833"/>
</g>
<!-- 10466 -->
<g id="node32" class="node"><title>10466</title>
<ellipse fill="none" stroke="black" cx="1134.5" cy="-18" rx="32.4942" ry="18"/>
<text text-anchor="middle" x="1134.5" y="-14.3" font-family="Times New Roman,serif" font-size="14.00">10466</text>
</g>
<!-- 10457&#45;&#45;10466 -->
<g id="edge44" class="edge"><title>10457&#45;&#45;10466</title>
<path fill="none" stroke="black" d="M1100.03,-365.544C1061.84,-345.068 990.497,-298.333 990.497,-235 990.497,-235 990.497,-235 990.497,-161 990.497,-94.9919 1068.16,-49.3517 1109.41,-29.7626"/>
</g>
<!-- 10458&#45;&#45;10460 -->
<g id="edge45" class="edge"><title>10458&#45;&#45;10460</title>
<path fill="none" stroke="black" d="M1140.25,-290.155C1153.75,-278.195 1172.62,-261.473 1186.04,-249.584"/>
</g>
<!-- 10458&#45;&#45;10462 -->
<g id="edge46" class="edge"><title>10458&#45;&#45;10462</title>
<path fill="none" stroke="black" d="M1129.29,-287.984C1135.87,-269.603 1147.54,-239.76 1161.5,-216 1169.39,-202.558 1180.25,-188.667 1188.82,-178.479"/>
</g>
<!-- 10458&#45;&#45;10464 -->
<g id="edge47" class="edge"><title>10458&#45;&#45;10464</title>
<path fill="none" stroke="black" d="M1124.38,-287.849C1126.44,-247.78 1131.55,-148.383 1133.61,-108.232"/>
</g>
<!-- 10458&#45;&#45;10466 -->
<g id="edge48" class="edge"><title>10458&#45;&#45;10466</title>
<path fill="none" stroke="black" d="M1116.38,-288.39C1100.77,-249.466 1066.93,-149.769 1093.5,-72 1098.46,-57.4688 1109.21,-43.8318 1118.45,-34.0303"/>
</g>
<!-- 10460&#45;&#45;10462 -->
<g id="edge49" class="edge"><title>10460&#45;&#45;10462</title>
<path fill="none" stroke="black" d="M1202.5,-215.697C1202.5,-204.846 1202.5,-190.917 1202.5,-180.104"/>
</g>
<!-- 10460&#45;&#45;10464 -->
<g id="edge50" class="edge"><title>10460&#45;&#45;10464</title>
<path fill="none" stroke="black" d="M1188.31,-217.8C1179.55,-207.724 1168.65,-193.852 1161.5,-180 1149.35,-156.469 1141.69,-126.561 1137.75,-108.104"/>
</g>
<!-- 10460&#45;&#45;10466 -->
<g id="edge51" class="edge"><title>10460&#45;&#45;10466</title>
<path fill="none" stroke="black" d="M1218.54,-217.97C1227.79,-208.168 1238.53,-194.531 1243.5,-180 1248.67,-164.859 1247.98,-159.358 1243.5,-144 1229.04,-94.5284 1181.51,-53.1264 1154.23,-32.6961"/>
</g>
<!-- 10462&#45;&#45;10464 -->
<g id="edge52" class="edge"><title>10462&#45;&#45;10464</title>
<path fill="none" stroke="black" d="M1187.74,-145.811C1176.34,-134.07 1160.62,-117.893 1149.22,-106.159"/>
</g>
<!-- 10462&#45;&#45;10466 -->
<g id="edge53" class="edge"><title>10462&#45;&#45;10466</title>
<path fill="none" stroke="black" d="M1199.25,-143.896C1195.31,-125.439 1187.64,-95.5311 1175.5,-72 1168.35,-58.1478 1157.45,-44.2759 1148.69,-34.2001"/>
</g>
<!-- 10464&#45;&#45;10466 -->
<g id="edge54" class="edge"><title>10464&#45;&#45;10466</title>
<path fill="none" stroke="black" d="M1134.5,-71.6966C1134.5,-60.8463 1134.5,-46.9167 1134.5,-36.1043"/>
</g>
<!-- 10697 -->
<g id="node33" class="node"><title>10697</title>
<ellipse fill="none" stroke="black" cx="1322.5" cy="-378" rx="32.4942" ry="18"/>
<text text-anchor="middle" x="1322.5" y="-374.3" font-family="Times New Roman,serif" font-size="14.00">10697</text>
</g>
<!-- 10698 -->
<g id="node34" class="node"><title>10698</title>
<ellipse fill="none" stroke="black" cx="1322.5" cy="-306" rx="32.4942" ry="18"/>
<text text-anchor="middle" x="1322.5" y="-302.3" font-family="Times New Roman,serif" font-size="14.00">10698</text>
</g>
<!-- 10697&#45;&#45;10698 -->
<g id="edge55" class="edge"><title>10697&#45;&#45;10698</title>
<path fill="none" stroke="black" d="M1322.5,-359.697C1322.5,-348.846 1322.5,-334.917 1322.5,-324.104"/>
</g>
<!-- 11099 -->
<g id="node35" class="node"><title>11099</title>
<ellipse fill="none" stroke="black" cx="1435.5" cy="-378" rx="32.4942" ry="18"/>
<text text-anchor="middle" x="1435.5" y="-374.3" font-family="Times New Roman,serif" font-size="14.00">11099</text>
</g>
<!-- 11100 -->
<g id="node36" class="node"><title>11100</title>
<ellipse fill="none" stroke="black" cx="1405.5" cy="-306" rx="32.4942" ry="18"/>
<text text-anchor="middle" x="1405.5" y="-302.3" font-family="Times New Roman,serif" font-size="14.00">11100</text>
</g>
<!-- 11099&#45;&#45;11100 -->
<g id="edge56" class="edge"><title>11099&#45;&#45;11100</title>
<path fill="none" stroke="black" d="M1428.39,-360.411C1423.67,-349.414 1417.51,-335.027 1412.76,-323.956"/>
</g>
<!-- 11102 -->
<g id="node37" class="node"><title>11102</title>
<ellipse fill="none" stroke="black" cx="1435.5" cy="-234" rx="32.4942" ry="18"/>
<text text-anchor="middle" x="1435.5" y="-230.3" font-family="Times New Roman,serif" font-size="14.00">11102</text>
</g>
<!-- 11099&#45;&#45;11102 -->
<g id="edge57" class="edge"><title>11099&#45;&#45;11102</title>
<path fill="none" stroke="black" d="M1439.96,-359.953C1442.43,-349.63 1445.25,-336.153 1446.5,-324 1448.13,-308.084 1448.13,-303.916 1446.5,-288 1445.25,-275.847 1442.43,-262.37 1439.96,-252.047"/>
</g>
<!-- 11100&#45;&#45;11102 -->
<g id="edge58" class="edge"><title>11100&#45;&#45;11102</title>
<path fill="none" stroke="black" d="M1412.61,-288.411C1417.32,-277.414 1423.49,-263.027 1428.23,-251.956"/>
</g>
</g>
</svg>
