<svg width="3531px" height="827px"
 viewBox="0.00 0.00 2648.39 620.00" xmlns="http://www.w3.org/2000/svg" xmlns:xlink="http://www.w3.org/1999/xlink">
<g id="graph0" class="graph" transform="scale(1.000022500562514 1.000022500562514) rotate(0) translate(4 616)">
<title>G</title>
<polygon fill="white" stroke="none" points="-4,4 -4,-616 2644.39,-616 2644.39,4 -4,4"/>
<!-- 133 -->
<g id="node1" class="node"><title>133</title>
<ellipse fill="none" stroke="black" cx="109.497" cy="-522" rx="27" ry="18"/>
<text text-anchor="middle" x="109.497" y="-518.3" font-family="Times New Roman,serif" font-size="14.00">133</text>
</g>
<!-- 134 -->
<g id="node2" class="node"><title>134</title>
<ellipse fill="none" stroke="black" cx="127.497" cy="-378" rx="27" ry="18"/>
<text text-anchor="middle" x="127.497" y="-374.3" font-family="Times New Roman,serif" font-size="14.00">134</text>
</g>
<!-- 133&#45;&#45;134 -->
<g id="edge1" class="edge"><title>133&#45;&#45;134</title>
<path fill="none" stroke="black" d="M103.806,-504.363C98.4652,-486.306 92.1719,-456.737 98.4971,-432 101.927,-418.586 109.53,-404.915 116.091,-394.817"/>
</g>
<!-- 11162 -->
<g id="node6" class="node"><title>11162</title>
<ellipse fill="none" stroke="black" cx="139.497" cy="-450" rx="32.4942" ry="18"/>
<text text-anchor="middle" x="139.497" y="-446.3" font-family="Times New Roman,serif" font-size="14.00">11162</text>
</g>
<!-- 133&#45;&#45;11162 -->
<g id="edge2" class="edge"><title>133&#45;&#45;11162</title>
<path fill="none" stroke="black" d="M116.607,-504.411C121.32,-493.414 127.485,-479.027 132.23,-467.956"/>
</g>
<!-- 6164 -->
<g id="node3" class="node"><title>6164</title>
<ellipse fill="none" stroke="black" cx="194.497" cy="-306" rx="28.6953" ry="18"/>
<text text-anchor="middle" x="194.497" y="-302.3" font-family="Times New Roman,serif" font-size="14.00">6164</text>
</g>
<!-- 134&#45;&#45;6164 -->
<g id="edge3" class="edge"><title>134&#45;&#45;6164</title>
<path fill="none" stroke="black" d="M141.38,-362.496C152.725,-350.642 168.706,-333.946 180.17,-321.968"/>
</g>
<!-- 10236 -->
<g id="node4" class="node"><title>10236</title>
<ellipse fill="none" stroke="black" cx="32.4971" cy="-306" rx="32.4942" ry="18"/>
<text text-anchor="middle" x="32.4971" y="-302.3" font-family="Times New Roman,serif" font-size="14.00">10236</text>
</g>
<!-- 134&#45;&#45;10236 -->
<g id="edge4" class="edge"><title>134&#45;&#45;10236</title>
<path fill="none" stroke="black" d="M110.073,-364.161C93.4673,-351.925 68.5314,-333.552 51.4401,-320.958"/>
</g>
<!-- 11020 -->
<g id="node5" class="node"><title>11020</title>
<ellipse fill="none" stroke="black" cx="115.497" cy="-306" rx="32.4942" ry="18"/>
<text text-anchor="middle" x="115.497" y="-302.3" font-family="Times New Roman,serif" font-size="14.00">11020</text>
</g>
<!-- 134&#45;&#45;11020 -->
<g id="edge5" class="edge"><title>134&#45;&#45;11020</title>
<path fill="none" stroke="black" d="M124.592,-360.055C122.733,-349.211 120.328,-335.183 118.459,-324.275"/>
</g>
<!-- 11162&#45;&#45;134 -->
<g id="edge6" class="edge"><title>11162&#45;&#45;134</title>
<path fill="none" stroke="black" d="M136.592,-432.055C134.733,-421.211 132.328,-407.183 130.459,-396.275"/>
</g>
<!-- 223 -->
<g id="node7" class="node"><title>223</title>
<ellipse fill="none" stroke="black" cx="1409.5" cy="-594" rx="27" ry="18"/>
<text text-anchor="middle" x="1409.5" y="-590.3" font-family="Times New Roman,serif" font-size="14.00">223</text>
</g>
<!-- 224 -->
<g id="node8" class="node"><title>224</title>
<ellipse fill="none" stroke="black" cx="1409.5" cy="-522" rx="27" ry="18"/>
<text text-anchor="middle" x="1409.5" y="-518.3" font-family="Times New Roman,serif" font-size="14.00">224</text>
</g>
<!-- 223&#45;&#45;224 -->
<g id="edge7" class="edge"><title>223&#45;&#45;224</title>
<path fill="none" stroke="black" d="M1409.5,-575.697C1409.5,-564.846 1409.5,-550.917 1409.5,-540.104"/>
</g>
<!-- 1241 -->
<g id="node9" class="node"><title>1241</title>
<ellipse fill="none" stroke="black" cx="246.497" cy="-450" rx="28.6953" ry="18"/>
<text text-anchor="middle" x="246.497" y="-446.3" font-family="Times New Roman,serif" font-size="14.00">1241</text>
</g>
<!-- 1241&#45;&#45;134 -->
<g id="edge10" class="edge"><title>1241&#45;&#45;134</title>
<path fill="none" stroke="black" d="M226.31,-437.125C204.163,-424.097 168.86,-403.331 146.991,-390.467"/>
</g>
<!-- 1242 -->
<g id="node10" class="node"><title>1242</title>
<ellipse fill="none" stroke="black" cx="308.497" cy="-378" rx="28.6953" ry="18"/>
<text text-anchor="middle" x="308.497" y="-374.3" font-family="Times New Roman,serif" font-size="14.00">1242</text>
</g>
<!-- 1241&#45;&#45;1242 -->
<g id="edge8" class="edge"><title>1241&#45;&#45;1242</title>
<path fill="none" stroke="black" d="M259.95,-433.811C270.35,-422.07 284.677,-405.893 295.07,-394.159"/>
</g>
<!-- 5338 -->
<g id="node11" class="node"><title>5338</title>
<polygon fill="#4c7c45" stroke="#4c7c45" points="608.497,-252 554.497,-252 554.497,-216 608.497,-216 608.497,-252"/>
<text text-anchor="middle" x="581.497" y="-230.3" font-family="Times New Roman,serif" font-size="14.00">5338</text>
</g>
<!-- 1241&#45;&#45;5338 -->
<g id="edge9" class="edge"><title>1241&#45;&#45;5338</title>
<path fill="none" stroke="black" d="M246.728,-431.808C247.89,-412.152 252.648,-380.106 270.497,-360 347.762,-272.966 494.12,-245.629 554.454,-237.833"/>
</g>
<!-- 6734 -->
<g id="node12" class="node"><title>6734</title>
<ellipse fill="none" stroke="black" cx="469.497" cy="-162" rx="28.6953" ry="18"/>
<text text-anchor="middle" x="469.497" y="-158.3" font-family="Times New Roman,serif" font-size="14.00">6734</text>
</g>
<!-- 5338&#45;&#45;6734 -->
<g id="edge11" class="edge"><title>5338&#45;&#45;6734</title>
<path fill="none" stroke="black" d="M554.385,-216.055C534.186,-203.431 507.083,-186.491 488.99,-175.183"/>
</g>
<!-- 6736 -->
<g id="node13" class="node"><title>6736</title>
<ellipse fill="#3b8968" stroke="#3b8968" cx="581.497" cy="-90" rx="28.6953" ry="18"/>
<text text-anchor="middle" x="581.497" y="-86.3" font-family="Times New Roman,serif" font-size="14.00">6736</text>
</g>
<!-- 5338&#45;&#45;6736 -->
<g id="edge12" class="edge"><title>5338&#45;&#45;6736</title>
<path fill="none" stroke="black" d="M581.497,-215.871C581.497,-188.578 581.497,-135.52 581.497,-108.189"/>
</g>
<!-- 1385 -->
<g id="node14" class="node"><title>1385</title>
<polygon fill="#7c6755" stroke="#7c6755" points="1020.5,-180 966.497,-180 966.497,-144 1020.5,-144 1020.5,-180"/>
<text text-anchor="middle" x="993.497" y="-158.3" font-family="Times New Roman,serif" font-size="14.00">1385</text>
</g>
<!-- 5338&#45;&#45;1385 -->
<g id="edge13" class="edge"><title>5338&#45;&#45;1385</title>
<path fill="none" stroke="black" d="M608.53,-228.407C683.181,-215.724 891.594,-180.314 966.365,-167.61"/>
</g>
<!-- 2552 -->
<g id="node17" class="node"><title>2552</title>
<ellipse fill="#7c6755" stroke="#7c6755" cx="824.497" cy="-90" rx="28.6953" ry="18"/>
<text text-anchor="middle" x="824.497" y="-86.3" font-family="Times New Roman,serif" font-size="14.00">2552</text>
</g>
<!-- 5338&#45;&#45;2552 -->
<g id="edge14" class="edge"><title>5338&#45;&#45;2552</title>
<path fill="none" stroke="black" d="M608.9,-216.987C658.177,-188.191 760.66,-128.304 804.211,-102.855"/>
</g>
<!-- 6734&#45;&#45;6736 -->
<g id="edge15" class="edge"><title>6734&#45;&#45;6736</title>
<path fill="none" stroke="black" d="M489.006,-148.807C509.438,-136.037 541.348,-116.093 561.836,-103.288"/>
</g>
<!-- 1386 -->
<g id="node15" class="node"><title>1386</title>
<ellipse fill="none" stroke="black" cx="1021.5" cy="-90" rx="28.6953" ry="18"/>
<text text-anchor="middle" x="1021.5" y="-86.3" font-family="Times New Roman,serif" font-size="14.00">1386</text>
</g>
<!-- 1385&#45;&#45;1386 -->
<g id="edge16" class="edge"><title>1385&#45;&#45;1386</title>
<path fill="none" stroke="black" d="M1000.42,-143.697C1004.82,-132.684 1010.5,-118.5 1014.85,-107.622"/>
</g>
<!-- 1388 -->
<g id="node16" class="node"><title>1388</title>
<ellipse fill="none" stroke="black" cx="992.497" cy="-18" rx="28.6953" ry="18"/>
<text text-anchor="middle" x="992.497" y="-14.3" font-family="Times New Roman,serif" font-size="14.00">1388</text>
</g>
<!-- 1385&#45;&#45;1388 -->
<g id="edge17" class="edge"><title>1385&#45;&#45;1388</title>
<path fill="none" stroke="black" d="M989.438,-143.929C987.192,-133.598 984.631,-120.12 983.497,-108 982.007,-92.0695 982.153,-87.9434 983.497,-72 984.516,-59.9098 986.821,-46.4315 988.843,-36.0925"/>
</g>
<!-- 1385&#45;&#45;2552 -->
<g id="edge18" class="edge"><title>1385&#45;&#45;2552</title>
<path fill="none" stroke="black" d="M966.344,-149.753C933.501,-136.149 878.772,-113.481 847.774,-100.641"/>
</g>
<!-- 11038 -->
<g id="node18" class="node"><title>11038</title>
<polygon fill="#719384" stroke="#719384" points="1229.5,-108 1175.5,-108 1175.5,-72 1229.5,-72 1229.5,-108"/>
<text text-anchor="middle" x="1202.5" y="-86.3" font-family="Times New Roman,serif" font-size="14.00">11038</text>
</g>
<!-- 1385&#45;&#45;11038 -->
<g id="edge19" class="edge"><title>1385&#45;&#45;11038</title>
<path fill="none" stroke="black" d="M1020.82,-151.849C1060.87,-138.433 1135.11,-113.57 1175.17,-100.154"/>
</g>
<!-- 1386&#45;&#45;1388 -->
<g id="edge20" class="edge"><title>1386&#45;&#45;1388</title>
<path fill="none" stroke="black" d="M1014.62,-72.411C1010.07,-61.4141 1004.11,-47.0274 999.522,-35.9562"/>
</g>
<!-- 1243 -->
<g id="node19" class="node"><title>1243</title>
<ellipse fill="none" stroke="black" cx="435.497" cy="-450" rx="28.6953" ry="18"/>
<text text-anchor="middle" x="435.497" y="-446.3" font-family="Times New Roman,serif" font-size="14.00">1243</text>
</g>
<!-- 1243&#45;&#45;1242 -->
<g id="edge21" class="edge"><title>1243&#45;&#45;1242</title>
<path fill="none" stroke="black" d="M414.526,-437.441C390.995,-424.471 353.044,-403.553 329.5,-390.576"/>
</g>
<!-- 4140 -->
<g id="node20" class="node"><title>4140</title>
<ellipse fill="none" stroke="black" cx="383.497" cy="-378" rx="28.6953" ry="18"/>
<text text-anchor="middle" x="383.497" y="-374.3" font-family="Times New Roman,serif" font-size="14.00">4140</text>
</g>
<!-- 1243&#45;&#45;4140 -->
<g id="edge22" class="edge"><title>1243&#45;&#45;4140</title>
<path fill="none" stroke="black" d="M423.957,-433.465C415.339,-421.865 403.615,-406.082 395.005,-394.492"/>
</g>
<!-- 1967 -->
<g id="node21" class="node"><title>1967</title>
<ellipse fill="none" stroke="black" cx="1483.5" cy="-594" rx="28.6953" ry="18"/>
<text text-anchor="middle" x="1483.5" y="-590.3" font-family="Times New Roman,serif" font-size="14.00">1967</text>
</g>
<!-- 1968 -->
<g id="node22" class="node"><title>1968</title>
<ellipse fill="none" stroke="black" cx="1483.5" cy="-522" rx="28.6953" ry="18"/>
<text text-anchor="middle" x="1483.5" y="-518.3" font-family="Times New Roman,serif" font-size="14.00">1968</text>
</g>
<!-- 1967&#45;&#45;1968 -->
<g id="edge23" class="edge"><title>1967&#45;&#45;1968</title>
<path fill="none" stroke="black" d="M1483.5,-575.697C1483.5,-564.846 1483.5,-550.917 1483.5,-540.104"/>
</g>
<!-- 2357 -->
<g id="node23" class="node"><title>2357</title>
<ellipse fill="none" stroke="black" cx="360.497" cy="-450" rx="28.6953" ry="18"/>
<text text-anchor="middle" x="360.497" y="-446.3" font-family="Times New Roman,serif" font-size="14.00">2357</text>
</g>
<!-- 2357&#45;&#45;1242 -->
<g id="edge24" class="edge"><title>2357&#45;&#45;1242</title>
<path fill="none" stroke="black" d="M348.957,-433.465C340.339,-421.865 328.615,-406.082 320.005,-394.492"/>
</g>
<!-- 4139 -->
<g id="node24" class="node"><title>4139</title>
<polygon fill="#433649" stroke="#433649" points="758.497,-540 704.497,-540 704.497,-504 758.497,-504 758.497,-540"/>
<text text-anchor="middle" x="731.497" y="-518.3" font-family="Times New Roman,serif" font-size="14.00">4139</text>
</g>
<!-- 4139&#45;&#45;1242 -->
<g id="edge27" class="edge"><title>4139&#45;&#45;1242</title>
<path fill="none" stroke="black" d="M704.224,-521.532C621.682,-522.543 376.888,-520.933 322.497,-468 303.441,-449.455 303.52,-416.293 305.724,-396.105"/>
</g>
<!-- 4139&#45;&#45;1385 -->
<g id="edge31" class="edge"><title>4139&#45;&#45;1385</title>
<path fill="none" stroke="black" d="M727.652,-503.612C722.1,-476.942 712.497,-424.268 712.497,-379 712.497,-379 712.497,-379 712.497,-305 712.497,-191.991 895.778,-168.899 966.298,-164.197"/>
</g>
<!-- 4139&#45;&#45;1243 -->
<g id="edge32" class="edge"><title>4139&#45;&#45;1243</title>
<path fill="none" stroke="black" d="M704.159,-516.841C657.348,-509.372 559.092,-492.182 478.497,-468 471.885,-466.016 464.862,-463.446 458.452,-460.909"/>
</g>
<!-- 4139&#45;&#45;4140 -->
<g id="edge25" class="edge"><title>4139&#45;&#45;4140</title>
<path fill="none" stroke="black" d="M704.155,-518.966C660.885,-514.781 575.026,-502.491 511.497,-468 491.052,-456.9 492.084,-445.992 473.497,-432 451.477,-415.423 423.877,-399.847 405.087,-389.927"/>
</g>
<!-- 5802 -->
<g id="node25" class="node"><title>5802</title>
<ellipse fill="#7c798c" stroke="#7c798c" cx="993.497" cy="-234" rx="28.6953" ry="18"/>
<text text-anchor="middle" x="993.497" y="-230.3" font-family="Times New Roman,serif" font-size="14.00">5802</text>
</g>
<!-- 4139&#45;&#45;5802 -->
<g id="edge26" class="edge"><title>4139&#45;&#45;5802</title>
<path fill="none" stroke="black" d="M732.795,-503.858C735.989,-472.237 746.71,-403.947 781.497,-360 831.883,-296.347 924.256,-258.324 968.537,-242.949"/>
</g>
<!-- 6128 -->
<g id="node26" class="node"><title>6128</title>
<polygon fill="#53804c" stroke="#53804c" points="984.497,-468 930.497,-468 930.497,-432 984.497,-432 984.497,-468"/>
<text text-anchor="middle" x="957.497" y="-446.3" font-family="Times New Roman,serif" font-size="14.00">6128</text>
</g>
<!-- 4139&#45;&#45;6128 -->
<g id="edge28" class="edge"><title>4139&#45;&#45;6128</title>
<path fill="none" stroke="black" d="M758.758,-512.556C802.314,-499.066 887.097,-472.805 930.491,-459.365"/>
</g>
<!-- 6130 -->
<g id="node27" class="node"><title>6130</title>
<ellipse fill="#53804c" stroke="#53804c" cx="845.497" cy="-378" rx="28.6953" ry="18"/>
<text text-anchor="middle" x="845.497" y="-374.3" font-family="Times New Roman,serif" font-size="14.00">6130</text>
</g>
<!-- 4139&#45;&#45;6130 -->
<g id="edge29" class="edge"><title>4139&#45;&#45;6130</title>
<path fill="none" stroke="black" d="M758.633,-505.22C773.046,-495.815 790.261,-482.831 802.497,-468 820.735,-445.894 833.477,-414.756 840.132,-395.776"/>
</g>
<!-- 5927 -->
<g id="node28" class="node"><title>5927</title>
<polygon fill="#7c798c" stroke="#7c798c" points="967.497,-324 913.497,-324 913.497,-288 967.497,-288 967.497,-324"/>
<text text-anchor="middle" x="940.497" y="-302.3" font-family="Times New Roman,serif" font-size="14.00">5927</text>
</g>
<!-- 4139&#45;&#45;5927 -->
<g id="edge30" class="edge"><title>4139&#45;&#45;5927</title>
<path fill="none" stroke="black" d="M743.304,-503.787C749.99,-493.633 758.24,-480.383 764.497,-468 787.799,-421.889 770.97,-396.538 807.497,-360 836.581,-330.907 883.647,-317.28 913.289,-311.28"/>
</g>
<!-- 5802&#45;&#45;1385 -->
<g id="edge33" class="edge"><title>5802&#45;&#45;1385</title>
<path fill="none" stroke="black" d="M993.497,-215.697C993.497,-204.846 993.497,-190.917 993.497,-180.104"/>
</g>
<!-- 6128&#45;&#45;1385 -->
<g id="edge36" class="edge"><title>6128&#45;&#45;1385</title>
<path fill="none" stroke="black" d="M984.599,-445.794C1013.69,-440.747 1058.54,-427.958 1079.5,-396 1127.27,-323.167 1046.1,-220.203 1009.74,-180.006"/>
</g>
<!-- 6128&#45;&#45;11038 -->
<g id="edge37" class="edge"><title>6128&#45;&#45;11038</title>
<path fill="none" stroke="black" d="M984.75,-445.979C1016.71,-441.022 1069.28,-428.24 1100.5,-396 1182.45,-311.366 1198.6,-159.048 1201.75,-108.114"/>
</g>
<!-- 6128&#45;&#45;6130 -->
<g id="edge34" class="edge"><title>6128&#45;&#45;6130</title>
<path fill="none" stroke="black" d="M930.385,-432.055C910.186,-419.431 883.083,-402.491 864.99,-391.183"/>
</g>
<!-- 6128&#45;&#45;5927 -->
<g id="edge35" class="edge"><title>6128&#45;&#45;5927</title>
<path fill="none" stroke="black" d="M955.447,-431.871C952.179,-404.578 945.827,-351.52 942.555,-324.189"/>
</g>
<!-- 6130&#45;&#45;1385 -->
<g id="edge39" class="edge"><title>6130&#45;&#45;1385</title>
<path fill="none" stroke="black" d="M853.581,-360.653C868.786,-330.619 903.546,-265.227 941.497,-216 951.414,-203.137 964.166,-190.097 974.56,-180.17"/>
</g>
<!-- 6130&#45;&#45;5927 -->
<g id="edge38" class="edge"><title>6130&#45;&#45;5927</title>
<path fill="none" stroke="black" d="M863.366,-363.834C878.63,-352.586 900.692,-336.33 917.314,-324.082"/>
</g>
<!-- 5927&#45;&#45;1385 -->
<g id="edge40" class="edge"><title>5927&#45;&#45;1385</title>
<path fill="none" stroke="black" d="M941.09,-287.97C942.242,-269.577 945.62,-239.724 955.497,-216 960.893,-203.039 969.977,-190.199 977.911,-180.404"/>
</g>
<!-- 5927&#45;&#45;11038 -->
<g id="edge42" class="edge"><title>5927&#45;&#45;11038</title>
<path fill="none" stroke="black" d="M967.79,-291.22C986.416,-281.316 1011.28,-267.094 1031.5,-252 1093.58,-205.65 1157.7,-139.415 1186.64,-108.344"/>
</g>
<!-- 5927&#45;&#45;5802 -->
<g id="edge41" class="edge"><title>5927&#45;&#45;5802</title>
<path fill="none" stroke="black" d="M953.598,-287.697C962.181,-276.36 973.309,-261.663 981.632,-250.671"/>
</g>
<!-- 4485 -->
<g id="node29" class="node"><title>4485</title>
<ellipse fill="none" stroke="black" cx="1558.5" cy="-594" rx="28.6953" ry="18"/>
<text text-anchor="middle" x="1558.5" y="-590.3" font-family="Times New Roman,serif" font-size="14.00">4485</text>
</g>
<!-- 4486 -->
<g id="node30" class="node"><title>4486</title>
<ellipse fill="none" stroke="black" cx="1558.5" cy="-522" rx="28.6953" ry="18"/>
<text text-anchor="middle" x="1558.5" y="-518.3" font-family="Times New Roman,serif" font-size="14.00">4486</text>
</g>
<!-- 4485&#45;&#45;4486 -->
<g id="edge43" class="edge"><title>4485&#45;&#45;4486</title>
<path fill="none" stroke="black" d="M1558.5,-575.697C1558.5,-564.846 1558.5,-550.917 1558.5,-540.104"/>
</g>
<!-- 4803 -->
<g id="node31" class="node"><title>4803</title>
<ellipse fill="none" stroke="black" cx="1748.5" cy="-594" rx="28.6953" ry="18"/>
<text text-anchor="middle" x="1748.5" y="-590.3" font-family="Times New Roman,serif" font-size="14.00">4803</text>
</g>
<!-- 4804 -->
<g id="node32" class="node"><title>4804</title>
<ellipse fill="none" stroke="black" cx="1691.5" cy="-522" rx="28.6953" ry="18"/>
<text text-anchor="middle" x="1691.5" y="-518.3" font-family="Times New Roman,serif" font-size="14.00">4804</text>
</g>
<!-- 4803&#45;&#45;4804 -->
<g id="edge44" class="edge"><title>4803&#45;&#45;4804</title>
<path fill="none" stroke="black" d="M1735.85,-577.465C1726.4,-565.865 1713.55,-550.082 1704.11,-538.492"/>
</g>
<!-- 4806 -->
<g id="node33" class="node"><title>4806</title>
<ellipse fill="none" stroke="black" cx="1710.5" cy="-450" rx="28.6953" ry="18"/>
<text text-anchor="middle" x="1710.5" y="-446.3" font-family="Times New Roman,serif" font-size="14.00">4806</text>
</g>
<!-- 4803&#45;&#45;4806 -->
<g id="edge45" class="edge"><title>4803&#45;&#45;4806</title>
<path fill="none" stroke="black" d="M1745.53,-575.771C1742.25,-557.719 1736.5,-528.618 1729.5,-504 1725.97,-491.59 1721.02,-477.887 1717.07,-467.523"/>
</g>
<!-- 4808 -->
<g id="node34" class="node"><title>4808</title>
<ellipse fill="none" stroke="black" cx="1796.5" cy="-378" rx="28.6953" ry="18"/>
<text text-anchor="middle" x="1796.5" y="-374.3" font-family="Times New Roman,serif" font-size="14.00">4808</text>
</g>
<!-- 4803&#45;&#45;4808 -->
<g id="edge46" class="edge"><title>4803&#45;&#45;4808</title>
<path fill="none" stroke="black" d="M1752.34,-575.849C1761.35,-535.68 1783.74,-435.89 1792.7,-395.935"/>
</g>
<!-- 4810 -->
<g id="node35" class="node"><title>4810</title>
<ellipse fill="none" stroke="black" cx="1680.5" cy="-306" rx="28.6953" ry="18"/>
<text text-anchor="middle" x="1680.5" y="-302.3" font-family="Times New Roman,serif" font-size="14.00">4810</text>
</g>
<!-- 4803&#45;&#45;4810 -->
<g id="edge47" class="edge"><title>4803&#45;&#45;4810</title>
<path fill="none" stroke="black" d="M1722.28,-586.408C1699.61,-579.165 1668.22,-565.08 1653.5,-540 1611.54,-468.54 1653.35,-363.457 1672.26,-323.362"/>
</g>
<!-- 4812 -->
<g id="node36" class="node"><title>4812</title>
<ellipse fill="none" stroke="black" cx="1737.5" cy="-234" rx="28.6953" ry="18"/>
<text text-anchor="middle" x="1737.5" y="-230.3" font-family="Times New Roman,serif" font-size="14.00">4812</text>
</g>
<!-- 4803&#45;&#45;4812 -->
<g id="edge48" class="edge"><title>4803&#45;&#45;4812</title>
<path fill="none" stroke="black" d="M1777.01,-591.33C1816.77,-587.705 1889.48,-576.237 1938.5,-540 1976.27,-512.077 1995.5,-497.973 1995.5,-451 1995.5,-451 1995.5,-451 1995.5,-377 1995.5,-272.955 1832.47,-244.595 1765.6,-237.339"/>
</g>
<!-- 4804&#45;&#45;4806 -->
<g id="edge49" class="edge"><title>4804&#45;&#45;4806</title>
<path fill="none" stroke="black" d="M1696.1,-504.055C1699.08,-493.049 1702.96,-478.764 1705.94,-467.789"/>
</g>
<!-- 4804&#45;&#45;4808 -->
<g id="edge50" class="edge"><title>4804&#45;&#45;4808</title>
<path fill="none" stroke="black" d="M1708.87,-507.434C1720.96,-497.414 1736.93,-482.966 1748.5,-468 1766.32,-444.946 1781.21,-414.368 1789.48,-395.717"/>
</g>
<!-- 4804&#45;&#45;4810 -->
<g id="edge51" class="edge"><title>4804&#45;&#45;4810</title>
<path fill="none" stroke="black" d="M1683.8,-504.22C1679.54,-493.991 1674.67,-480.519 1672.5,-468 1663.49,-416.164 1672.02,-353.634 1677.2,-324.072"/>
</g>
<!-- 4804&#45;&#45;4812 -->
<g id="edge52" class="edge"><title>4804&#45;&#45;4812</title>
<path fill="none" stroke="black" d="M1680.97,-505.066C1656.27,-465.498 1599.8,-360.716 1642.5,-288 1657.22,-262.92 1688.61,-248.835 1711.28,-241.592"/>
</g>
<!-- 4806&#45;&#45;4808 -->
<g id="edge53" class="edge"><title>4806&#45;&#45;4808</title>
<path fill="none" stroke="black" d="M1727.49,-435.17C1742.56,-422.898 1764.48,-405.064 1779.54,-392.801"/>
</g>
<!-- 4806&#45;&#45;4810 -->
<g id="edge54" class="edge"><title>4806&#45;&#45;4810</title>
<path fill="none" stroke="black" d="M1706.88,-431.871C1701.11,-404.578 1689.9,-351.52 1684.13,-324.189"/>
</g>
<!-- 4806&#45;&#45;4812 -->
<g id="edge55" class="edge"><title>4806&#45;&#45;4812</title>
<path fill="none" stroke="black" d="M1712.66,-431.849C1717.72,-391.78 1730.26,-292.383 1735.32,-252.232"/>
</g>
<!-- 4808&#45;&#45;4810 -->
<g id="edge56" class="edge"><title>4808&#45;&#45;4810</title>
<path fill="none" stroke="black" d="M1776.56,-364.967C1755.31,-352.145 1721.86,-331.962 1700.57,-319.111"/>
</g>
<!-- 4808&#45;&#45;4812 -->
<g id="edge57" class="edge"><title>4808&#45;&#45;4812</title>
<path fill="none" stroke="black" d="M1789.61,-360.433C1778.31,-333.217 1755.92,-279.334 1744.52,-251.902"/>
</g>
<!-- 4832 -->
<g id="node37" class="node"><title>4832</title>
<ellipse fill="none" stroke="black" cx="1900.5" cy="-306" rx="28.6953" ry="18"/>
<text text-anchor="middle" x="1900.5" y="-302.3" font-family="Times New Roman,serif" font-size="14.00">4832</text>
</g>
<!-- 4808&#45;&#45;4832 -->
<g id="edge58" class="edge"><title>4808&#45;&#45;4832</title>
<path fill="none" stroke="black" d="M1815.57,-364.161C1834.34,-351.531 1862.82,-332.36 1881.54,-319.758"/>
</g>
<!-- 4810&#45;&#45;4812 -->
<g id="edge59" class="edge"><title>4810&#45;&#45;4812</title>
<path fill="none" stroke="black" d="M1693.15,-289.465C1702.59,-277.865 1715.44,-262.082 1724.88,-250.492"/>
</g>
<!-- 4827 -->
<g id="node38" class="node"><title>4827</title>
<ellipse fill="none" stroke="black" cx="1900.5" cy="-522" rx="28.6953" ry="18"/>
<text text-anchor="middle" x="1900.5" y="-518.3" font-family="Times New Roman,serif" font-size="14.00">4827</text>
</g>
<!-- 4827&#45;&#45;4808 -->
<g id="edge61" class="edge"><title>4827&#45;&#45;4808</title>
<path fill="none" stroke="black" d="M1888.97,-505.261C1868.98,-477.966 1828.1,-422.154 1808.08,-394.81"/>
</g>
<!-- 4827&#45;&#45;4832 -->
<g id="edge62" class="edge"><title>4827&#45;&#45;4832</title>
<path fill="none" stroke="black" d="M1915,-506.203C1923.66,-496.288 1933.85,-482.444 1938.5,-468 1955.2,-416.051 1926.18,-352.528 1910.1,-323.227"/>
</g>
<!-- 4828 -->
<g id="node39" class="node"><title>4828</title>
<ellipse fill="none" stroke="black" cx="1900.5" cy="-450" rx="28.6953" ry="18"/>
<text text-anchor="middle" x="1900.5" y="-446.3" font-family="Times New Roman,serif" font-size="14.00">4828</text>
</g>
<!-- 4827&#45;&#45;4828 -->
<g id="edge60" class="edge"><title>4827&#45;&#45;4828</title>
<path fill="none" stroke="black" d="M1900.5,-503.697C1900.5,-492.846 1900.5,-478.917 1900.5,-468.104"/>
</g>
<!-- 4828&#45;&#45;4808 -->
<g id="edge63" class="edge"><title>4828&#45;&#45;4808</title>
<path fill="none" stroke="black" d="M1881.42,-436.161C1862.66,-423.531 1834.17,-404.36 1815.45,-391.758"/>
</g>
<!-- 4828&#45;&#45;4832 -->
<g id="edge64" class="edge"><title>4828&#45;&#45;4832</title>
<path fill="none" stroke="black" d="M1900.5,-431.871C1900.5,-404.578 1900.5,-351.52 1900.5,-324.189"/>
</g>
<!-- 5845 -->
<g id="node40" class="node"><title>5845</title>
<polygon fill="#988297" stroke="#988297" points="1211.5,-612 1157.5,-612 1157.5,-576 1211.5,-576 1211.5,-612"/>
<text text-anchor="middle" x="1184.5" y="-590.3" font-family="Times New Roman,serif" font-size="14.00">5845</text>
</g>
<!-- 5845&#45;&#45;1385 -->
<g id="edge66" class="edge"><title>5845&#45;&#45;1385</title>
<path fill="none" stroke="black" d="M1188.62,-575.897C1192.39,-557.947 1196.9,-528.928 1193.5,-504 1180.01,-405.039 1169.57,-380.335 1131.5,-288 1117.7,-254.549 1119.06,-241.608 1093.5,-216 1072.95,-195.419 1042.74,-180.921 1020.9,-172.351"/>
</g>
<!-- 5845&#45;&#45;11038 -->
<g id="edge70" class="edge"><title>5845&#45;&#45;11038</title>
<path fill="none" stroke="black" d="M1211.81,-584.391C1259.87,-567.344 1354.5,-524.45 1354.5,-451 1354.5,-451 1354.5,-451 1354.5,-233 1354.5,-165.469 1273.39,-120.828 1229.67,-101.669"/>
</g>
<!-- 5845&#45;&#45;6128 -->
<g id="edge68" class="edge"><title>5845&#45;&#45;6128</title>
<path fill="none" stroke="black" d="M1157.12,-575.871C1113.37,-548.505 1028.21,-495.233 984.622,-467.968"/>
</g>
<!-- 5845&#45;&#45;5927 -->
<g id="edge69" class="edge"><title>5845&#45;&#45;5927</title>
<path fill="none" stroke="black" d="M1157.25,-590.026C1100.44,-582.149 970.53,-554.976 921.497,-468 895.236,-421.416 918.422,-355.295 932.123,-324.297"/>
</g>
<!-- 5846 -->
<g id="node41" class="node"><title>5846</title>
<ellipse fill="none" stroke="black" cx="1259.5" cy="-234" rx="28.6953" ry="18"/>
<text text-anchor="middle" x="1259.5" y="-230.3" font-family="Times New Roman,serif" font-size="14.00">5846</text>
</g>
<!-- 5845&#45;&#45;5846 -->
<g id="edge65" class="edge"><title>5845&#45;&#45;5846</title>
<path fill="none" stroke="black" d="M1200.53,-575.935C1209.15,-566.041 1219.44,-552.999 1226.5,-540 1246.42,-503.32 1256.5,-492.742 1256.5,-451 1256.5,-451 1256.5,-451 1256.5,-377 1256.5,-331.875 1258.03,-278.703 1258.9,-252.047"/>
</g>
<!-- 11032 -->
<g id="node42" class="node"><title>11032</title>
<polygon fill="#7a698a" stroke="#7a698a" points="1184.5,-540 1130.5,-540 1130.5,-504 1184.5,-504 1184.5,-540"/>
<text text-anchor="middle" x="1157.5" y="-518.3" font-family="Times New Roman,serif" font-size="14.00">11032</text>
</g>
<!-- 5845&#45;&#45;11032 -->
<g id="edge67" class="edge"><title>5845&#45;&#45;11032</title>
<path fill="none" stroke="black" d="M1177.82,-575.697C1173.64,-564.846 1168.26,-550.917 1164.09,-540.104"/>
</g>
<!-- 5846&#45;&#45;1385 -->
<g id="edge71" class="edge"><title>5846&#45;&#45;1385</title>
<path fill="none" stroke="black" d="M1233.51,-226.161C1183.05,-212.881 1072.26,-183.726 1020.78,-170.18"/>
</g>
<!-- 11032&#45;&#45;1385 -->
<g id="edge74" class="edge"><title>11032&#45;&#45;1385</title>
<path fill="none" stroke="black" d="M1156.91,-503.65C1154.34,-453.348 1140.54,-305.349 1066.5,-216 1053.81,-200.685 1035.74,-187.522 1020.76,-178.144"/>
</g>
<!-- 11032&#45;&#45;11038 -->
<g id="edge75" class="edge"><title>11032&#45;&#45;11038</title>
<path fill="none" stroke="black" d="M1184.83,-511.14C1230.29,-492.779 1316.5,-448.764 1316.5,-379 1316.5,-379 1316.5,-379 1316.5,-233 1316.5,-177.675 1263.22,-131.633 1229.51,-108.036"/>
</g>
<!-- 11032&#45;&#45;6128 -->
<g id="edge72" class="edge"><title>11032&#45;&#45;6128</title>
<path fill="none" stroke="black" d="M1130.28,-512.58C1098.46,-502.583 1044.29,-485.102 998.497,-468 994.021,-466.329 989.309,-464.47 984.737,-462.612"/>
</g>
<!-- 11032&#45;&#45;5927 -->
<g id="edge73" class="edge"><title>11032&#45;&#45;5927</title>
<path fill="none" stroke="black" d="M1130.31,-503.937C1096.51,-481.847 1038.32,-440.83 997.497,-396 977.114,-373.614 959.327,-343.113 949.257,-324.257"/>
</g>
<!-- 6651 -->
<g id="node43" class="node"><title>6651</title>
<ellipse fill="none" stroke="black" cx="2099.5" cy="-594" rx="28.6953" ry="18"/>
<text text-anchor="middle" x="2099.5" y="-590.3" font-family="Times New Roman,serif" font-size="14.00">6651</text>
</g>
<!-- 6652 -->
<g id="node44" class="node"><title>6652</title>
<ellipse fill="none" stroke="black" cx="2099.5" cy="-522" rx="28.6953" ry="18"/>
<text text-anchor="middle" x="2099.5" y="-518.3" font-family="Times New Roman,serif" font-size="14.00">6652</text>
</g>
<!-- 6651&#45;&#45;6652 -->
<g id="edge76" class="edge"><title>6651&#45;&#45;6652</title>
<path fill="none" stroke="black" d="M2099.5,-575.697C2099.5,-564.846 2099.5,-550.917 2099.5,-540.104"/>
</g>
<!-- 6654 -->
<g id="node45" class="node"><title>6654</title>
<ellipse fill="none" stroke="black" cx="2052.5" cy="-450" rx="28.6953" ry="18"/>
<text text-anchor="middle" x="2052.5" y="-446.3" font-family="Times New Roman,serif" font-size="14.00">6654</text>
</g>
<!-- 6651&#45;&#45;6654 -->
<g id="edge77" class="edge"><title>6651&#45;&#45;6654</title>
<path fill="none" stroke="black" d="M2085.49,-578.031C2077.02,-568.048 2066.86,-554.191 2061.5,-540 2052.55,-516.321 2051.35,-486.714 2051.65,-468.328"/>
</g>
<!-- 6656 -->
<g id="node46" class="node"><title>6656</title>
<ellipse fill="none" stroke="black" cx="2109.5" cy="-378" rx="28.6953" ry="18"/>
<text text-anchor="middle" x="2109.5" y="-374.3" font-family="Times New Roman,serif" font-size="14.00">6656</text>
</g>
<!-- 6651&#45;&#45;6656 -->
<g id="edge78" class="edge"><title>6651&#45;&#45;6656</title>
<path fill="none" stroke="black" d="M2114,-578.203C2122.66,-568.288 2132.85,-554.444 2137.5,-540 2153.99,-488.681 2130.58,-424.853 2117.41,-395.353"/>
</g>
<!-- 6652&#45;&#45;6654 -->
<g id="edge79" class="edge"><title>6652&#45;&#45;6654</title>
<path fill="none" stroke="black" d="M2088.83,-505.116C2081.14,-493.66 2070.8,-478.263 2063.12,-466.821"/>
</g>
<!-- 6652&#45;&#45;6656 -->
<g id="edge80" class="edge"><title>6652&#45;&#45;6656</title>
<path fill="none" stroke="black" d="M2100.7,-503.871C2102.63,-476.578 2106.36,-423.52 2108.29,-396.189"/>
</g>
<!-- 6654&#45;&#45;6656 -->
<g id="edge81" class="edge"><title>6654&#45;&#45;6656</title>
<path fill="none" stroke="black" d="M2065.15,-433.465C2074.59,-421.865 2087.44,-406.082 2096.88,-394.492"/>
</g>
<!-- 6727 -->
<g id="node47" class="node"><title>6727</title>
<ellipse fill="#3b8968" stroke="#3b8968" cx="549.497" cy="-450" rx="28.6953" ry="18"/>
<text text-anchor="middle" x="549.497" y="-446.3" font-family="Times New Roman,serif" font-size="14.00">6727</text>
</g>
<!-- 6727&#45;&#45;5338 -->
<g id="edge84" class="edge"><title>6727&#45;&#45;5338</title>
<path fill="none" stroke="black" d="M561.233,-433.226C567.996,-423.144 575.859,-409.474 579.497,-396 593.198,-345.265 587.854,-282.218 584.049,-252.305"/>
</g>
<!-- 6727&#45;&#45;6734 -->
<g id="edge85" class="edge"><title>6727&#45;&#45;6734</title>
<path fill="none" stroke="black" d="M533.06,-434.922C509.794,-413.713 468.527,-371.015 454.497,-324 440.766,-277.987 443.672,-263.377 451.497,-216 453.556,-203.536 458.165,-190.063 462.204,-179.821"/>
</g>
<!-- 6727&#45;&#45;6736 -->
<g id="edge86" class="edge"><title>6727&#45;&#45;6736</title>
<path fill="none" stroke="black" d="M570.702,-437.667C606.365,-416.891 674.497,-369.075 674.497,-307 674.497,-307 674.497,-307 674.497,-233 674.497,-178.187 625.403,-128.063 598.555,-104.75"/>
</g>
<!-- 6728 -->
<g id="node48" class="node"><title>6728</title>
<polygon fill="#3b8968" stroke="#3b8968" points="570.497,-396 516.497,-396 516.497,-360 570.497,-360 570.497,-396"/>
<text text-anchor="middle" x="543.497" y="-374.3" font-family="Times New Roman,serif" font-size="14.00">6728</text>
</g>
<!-- 6727&#45;&#45;6728 -->
<g id="edge82" class="edge"><title>6727&#45;&#45;6728</title>
<path fill="none" stroke="black" d="M548.014,-431.697C547.084,-420.846 545.89,-406.917 544.963,-396.104"/>
</g>
<!-- 6730 -->
<g id="node49" class="node"><title>6730</title>
<polygon fill="#5e746c" stroke="#5e746c" points="532.497,-324 478.497,-324 478.497,-288 532.497,-288 532.497,-324"/>
<text text-anchor="middle" x="505.497" y="-302.3" font-family="Times New Roman,serif" font-size="14.00">6730</text>
</g>
<!-- 6727&#45;&#45;6730 -->
<g id="edge83" class="edge"><title>6727&#45;&#45;6730</title>
<path fill="none" stroke="black" d="M533.611,-434.444C524.094,-424.626 512.837,-410.798 507.497,-396 498.947,-372.303 500.474,-342.701 502.712,-324.321"/>
</g>
<!-- 6728&#45;&#45;5338 -->
<g id="edge88" class="edge"><title>6728&#45;&#45;5338</title>
<path fill="none" stroke="black" d="M548.081,-359.871C555.385,-332.578 569.583,-279.52 576.897,-252.189"/>
</g>
<!-- 6728&#45;&#45;6734 -->
<g id="edge89" class="edge"><title>6728&#45;&#45;6734</title>
<path fill="none" stroke="black" d="M516.436,-365.582C499.59,-356.879 479.319,-343.116 469.497,-324 445.226,-276.763 456.982,-210.958 464.657,-180.167"/>
</g>
<!-- 6728&#45;&#45;6736 -->
<g id="edge90" class="edge"><title>6728&#45;&#45;6736</title>
<path fill="none" stroke="black" d="M557.954,-359.798C576.116,-336.922 606.266,-294.42 617.497,-252 631.352,-199.67 605.127,-136.854 590.451,-107.558"/>
</g>
<!-- 6728&#45;&#45;6730 -->
<g id="edge87" class="edge"><title>6728&#45;&#45;6730</title>
<path fill="none" stroke="black" d="M534.104,-359.697C528.214,-348.846 520.652,-334.917 514.782,-324.104"/>
</g>
<!-- 6730&#45;&#45;5338 -->
<g id="edge91" class="edge"><title>6730&#45;&#45;5338</title>
<path fill="none" stroke="black" d="M524.284,-287.697C536.064,-276.846 551.188,-262.917 562.927,-252.104"/>
</g>
<!-- 6730&#45;&#45;6734 -->
<g id="edge92" class="edge"><title>6730&#45;&#45;6734</title>
<path fill="none" stroke="black" d="M501.155,-287.871C494.235,-260.578 480.784,-207.52 473.855,-180.189"/>
</g>
<!-- 6730&#45;&#45;6736 -->
<g id="edge93" class="edge"><title>6730&#45;&#45;6736</title>
<path fill="none" stroke="black" d="M511.588,-287.849C525.889,-247.581 561.468,-147.397 575.587,-107.641"/>
</g>
<!-- 9395 -->
<g id="node50" class="node"><title>9395</title>
<ellipse fill="none" stroke="black" cx="2213.5" cy="-594" rx="28.6953" ry="18"/>
<text text-anchor="middle" x="2213.5" y="-590.3" font-family="Times New Roman,serif" font-size="14.00">9395</text>
</g>
<!-- 9396 -->
<g id="node51" class="node"><title>9396</title>
<ellipse fill="none" stroke="black" cx="2213.5" cy="-522" rx="28.6953" ry="18"/>
<text text-anchor="middle" x="2213.5" y="-518.3" font-family="Times New Roman,serif" font-size="14.00">9396</text>
</g>
<!-- 9395&#45;&#45;9396 -->
<g id="edge94" class="edge"><title>9395&#45;&#45;9396</title>
<path fill="none" stroke="black" d="M2213.5,-575.697C2213.5,-564.846 2213.5,-550.917 2213.5,-540.104"/>
</g>
<!-- 9847 -->
<g id="node52" class="node"><title>9847</title>
<ellipse fill="none" stroke="black" cx="2317.5" cy="-594" rx="28.6953" ry="18"/>
<text text-anchor="middle" x="2317.5" y="-590.3" font-family="Times New Roman,serif" font-size="14.00">9847</text>
</g>
<!-- 9848 -->
<g id="node53" class="node"><title>9848</title>
<ellipse fill="none" stroke="black" cx="2288.5" cy="-522" rx="28.6953" ry="18"/>
<text text-anchor="middle" x="2288.5" y="-518.3" font-family="Times New Roman,serif" font-size="14.00">9848</text>
</g>
<!-- 9847&#45;&#45;9848 -->
<g id="edge95" class="edge"><title>9847&#45;&#45;9848</title>
<path fill="none" stroke="black" d="M2310.62,-576.411C2306.07,-565.414 2300.11,-551.027 2295.52,-539.956"/>
</g>
<!-- 9850 -->
<g id="node54" class="node"><title>9850</title>
<ellipse fill="none" stroke="black" cx="2307.5" cy="-450" rx="28.6953" ry="18"/>
<text text-anchor="middle" x="2307.5" y="-446.3" font-family="Times New Roman,serif" font-size="14.00">9850</text>
</g>
<!-- 9847&#45;&#45;9850 -->
<g id="edge96" class="edge"><title>9847&#45;&#45;9850</title>
<path fill="none" stroke="black" d="M2321.91,-576.171C2326,-558.202 2330.83,-528.94 2326.5,-504 2324.32,-491.481 2319.46,-478.009 2315.19,-467.78"/>
</g>
<!-- 9848&#45;&#45;9850 -->
<g id="edge97" class="edge"><title>9848&#45;&#45;9850</title>
<path fill="none" stroke="black" d="M2293.1,-504.055C2296.08,-493.049 2299.96,-478.764 2302.94,-467.789"/>
</g>
<!-- 10175 -->
<g id="node55" class="node"><title>10175</title>
<ellipse fill="none" stroke="black" cx="2516.5" cy="-594" rx="32.4942" ry="18"/>
<text text-anchor="middle" x="2516.5" y="-590.3" font-family="Times New Roman,serif" font-size="14.00">10175</text>
</g>
<!-- 10176 -->
<g id="node56" class="node"><title>10176</title>
<ellipse fill="none" stroke="black" cx="2516.5" cy="-522" rx="32.4942" ry="18"/>
<text text-anchor="middle" x="2516.5" y="-518.3" font-family="Times New Roman,serif" font-size="14.00">10176</text>
</g>
<!-- 10175&#45;&#45;10176 -->
<g id="edge98" class="edge"><title>10175&#45;&#45;10176</title>
<path fill="none" stroke="black" d="M2516.5,-575.697C2516.5,-564.846 2516.5,-550.917 2516.5,-540.104"/>
</g>
<!-- 10178 -->
<g id="node57" class="node"><title>10178</title>
<ellipse fill="none" stroke="black" cx="2595.5" cy="-450" rx="32.4942" ry="18"/>
<text text-anchor="middle" x="2595.5" y="-446.3" font-family="Times New Roman,serif" font-size="14.00">10178</text>
</g>
<!-- 10175&#45;&#45;10178 -->
<g id="edge99" class="edge"><title>10175&#45;&#45;10178</title>
<path fill="none" stroke="black" d="M2530.18,-577.521C2538.74,-567.333 2549.6,-553.442 2557.5,-540 2571.45,-516.24 2583.12,-486.397 2589.71,-468.016"/>
</g>
<!-- 10180 -->
<g id="node58" class="node"><title>10180</title>
<ellipse fill="none" stroke="black" cx="2595.5" cy="-378" rx="32.4942" ry="18"/>
<text text-anchor="middle" x="2595.5" y="-374.3" font-family="Times New Roman,serif" font-size="14.00">10180</text>
</g>
<!-- 10175&#45;&#45;10180 -->
<g id="edge100" class="edge"><title>10175&#45;&#45;10180</title>
<path fill="none" stroke="black" d="M2537.3,-580.033C2566.74,-560.209 2618.92,-519.218 2636.5,-468 2641.69,-452.866 2641.67,-447.141 2636.5,-432 2631.53,-417.469 2620.79,-403.832 2611.54,-394.03"/>
</g>
<!-- 10182 -->
<g id="node59" class="node"><title>10182</title>
<ellipse fill="none" stroke="black" cx="2527.5" cy="-306" rx="32.4942" ry="18"/>
<text text-anchor="middle" x="2527.5" y="-302.3" font-family="Times New Roman,serif" font-size="14.00">10182</text>
</g>
<!-- 10175&#45;&#45;10182 -->
<g id="edge101" class="edge"><title>10175&#45;&#45;10182</title>
<path fill="none" stroke="black" d="M2500.45,-577.97C2491.21,-568.168 2480.46,-554.531 2475.5,-540 2470.32,-524.859 2473.44,-519.867 2475.5,-504 2484.35,-435.772 2509.77,-357.501 2521.47,-323.833"/>
</g>
<!-- 10184 -->
<g id="node60" class="node"><title>10184</title>
<ellipse fill="none" stroke="black" cx="2527.5" cy="-234" rx="32.4942" ry="18"/>
<text text-anchor="middle" x="2527.5" y="-230.3" font-family="Times New Roman,serif" font-size="14.00">10184</text>
</g>
<!-- 10175&#45;&#45;10184 -->
<g id="edge102" class="edge"><title>10175&#45;&#45;10184</title>
<path fill="none" stroke="black" d="M2493.03,-581.544C2454.84,-561.068 2383.5,-514.333 2383.5,-451 2383.5,-451 2383.5,-451 2383.5,-377 2383.5,-310.992 2461.16,-265.352 2502.41,-245.763"/>
</g>
<!-- 10176&#45;&#45;10178 -->
<g id="edge103" class="edge"><title>10176&#45;&#45;10178</title>
<path fill="none" stroke="black" d="M2533.25,-506.155C2546.75,-494.195 2565.62,-477.473 2579.04,-465.584"/>
</g>
<!-- 10176&#45;&#45;10180 -->
<g id="edge104" class="edge"><title>10176&#45;&#45;10180</title>
<path fill="none" stroke="black" d="M2522.29,-503.984C2528.87,-485.603 2540.54,-455.76 2554.5,-432 2562.39,-418.558 2573.25,-404.667 2581.82,-394.479"/>
</g>
<!-- 10176&#45;&#45;10182 -->
<g id="edge105" class="edge"><title>10176&#45;&#45;10182</title>
<path fill="none" stroke="black" d="M2517.38,-503.849C2519.44,-463.78 2524.55,-364.383 2526.61,-324.232"/>
</g>
<!-- 10176&#45;&#45;10184 -->
<g id="edge106" class="edge"><title>10176&#45;&#45;10184</title>
<path fill="none" stroke="black" d="M2509.38,-504.39C2493.77,-465.466 2459.93,-365.769 2486.5,-288 2491.46,-273.469 2502.21,-259.832 2511.45,-250.03"/>
</g>
<!-- 10178&#45;&#45;10180 -->
<g id="edge107" class="edge"><title>10178&#45;&#45;10180</title>
<path fill="none" stroke="black" d="M2595.5,-431.697C2595.5,-420.846 2595.5,-406.917 2595.5,-396.104"/>
</g>
<!-- 10178&#45;&#45;10182 -->
<g id="edge108" class="edge"><title>10178&#45;&#45;10182</title>
<path fill="none" stroke="black" d="M2581.31,-433.8C2572.55,-423.724 2561.65,-409.852 2554.5,-396 2542.35,-372.469 2534.69,-342.561 2530.75,-324.104"/>
</g>
<!-- 10178&#45;&#45;10184 -->
<g id="edge109" class="edge"><title>10178&#45;&#45;10184</title>
<path fill="none" stroke="black" d="M2611.54,-433.97C2620.79,-424.168 2631.53,-410.531 2636.5,-396 2641.67,-380.859 2640.98,-375.358 2636.5,-360 2622.04,-310.528 2574.51,-269.126 2547.23,-248.696"/>
</g>
<!-- 10180&#45;&#45;10182 -->
<g id="edge110" class="edge"><title>10180&#45;&#45;10182</title>
<path fill="none" stroke="black" d="M2580.74,-361.811C2569.34,-350.07 2553.62,-333.893 2542.22,-322.159"/>
</g>
<!-- 10180&#45;&#45;10184 -->
<g id="edge111" class="edge"><title>10180&#45;&#45;10184</title>
<path fill="none" stroke="black" d="M2592.25,-359.896C2588.31,-341.439 2580.64,-311.531 2568.5,-288 2561.35,-274.148 2550.45,-260.276 2541.69,-250.2"/>
</g>
<!-- 10182&#45;&#45;10184 -->
<g id="edge112" class="edge"><title>10182&#45;&#45;10184</title>
<path fill="none" stroke="black" d="M2527.5,-287.697C2527.5,-276.846 2527.5,-262.917 2527.5,-252.104"/>
</g>
<!-- 10367 -->
<g id="node61" class="node"><title>10367</title>
<ellipse fill="#7c798c" stroke="#7c798c" cx="1038.5" cy="-378" rx="32.4942" ry="18"/>
<text text-anchor="middle" x="1038.5" y="-374.3" font-family="Times New Roman,serif" font-size="14.00">10367</text>
</g>
<!-- 10367&#45;&#45;5802 -->
<g id="edge114" class="edge"><title>10367&#45;&#45;5802</title>
<path fill="none" stroke="black" d="M1033.16,-360.153C1024.5,-332.824 1007.49,-279.14 998.829,-251.825"/>
</g>
<!-- 10367&#45;&#45;5927 -->
<g id="edge113" class="edge"><title>10367&#45;&#45;5927</title>
<path fill="none" stroke="black" d="M1019.14,-363.17C1003.41,-351.934 981.147,-336.036 964.324,-324.019"/>
</g>
</g>
</svg>
