<svg width="593px" height="539px"
 viewBox="0.00 0.00 444.63 404.00" xmlns="http://www.w3.org/2000/svg" xmlns:xlink="http://www.w3.org/1999/xlink">
<g id="graph0" class="graph" transform="scale(1.000022500562514 1.000022500562514) rotate(0) translate(4 400)">
<title>G</title>
<polygon fill="white" stroke="none" points="-4,4 -4,-400 440.633,-400 440.633,4 -4,4"/>
<!-- 11515 -->
<g id="node1" class="node"><title>11515</title>
<ellipse fill="none" stroke="black" cx="81.4971" cy="-378" rx="32.4942" ry="18"/>
<text text-anchor="middle" x="81.4971" y="-374.3" font-family="Times New Roman,serif" font-size="14.00">11515</text>
</g>
<!-- 11516 -->
<g id="node2" class="node"><title>11516</title>
<ellipse fill="none" stroke="black" cx="81.4971" cy="-306" rx="32.4942" ry="18"/>
<text text-anchor="middle" x="81.4971" y="-302.3" font-family="Times New Roman,serif" font-size="14.00">11516</text>
</g>
<!-- 11515&#45;&#45;11516 -->
<g id="edge1" class="edge"><title>11515&#45;&#45;11516</title>
<path fill="none" stroke="black" d="M81.4971,-359.697C81.4971,-348.846 81.4971,-334.917 81.4971,-324.104"/>
</g>
<!-- 11518 -->
<g id="node3" class="node"><title>11518</title>
<ellipse fill="none" stroke="black" cx="32.4971" cy="-234" rx="32.4942" ry="18"/>
<text text-anchor="middle" x="32.4971" y="-230.3" font-family="Times New Roman,serif" font-size="14.00">11518</text>
</g>
<!-- 11515&#45;&#45;11518 -->
<g id="edge2" class="edge"><title>11515&#45;&#45;11518</title>
<path fill="none" stroke="black" d="M65.9068,-361.803C56.8331,-351.939 46.1078,-338.294 40.4971,-324 31.2011,-300.317 30.5324,-270.452 31.2523,-252.045"/>
</g>
<!-- 11520 -->
<g id="node4" class="node"><title>11520</title>
<ellipse fill="none" stroke="black" cx="92.4971" cy="-162" rx="32.4942" ry="18"/>
<text text-anchor="middle" x="92.4971" y="-158.3" font-family="Times New Roman,serif" font-size="14.00">11520</text>
</g>
<!-- 11515&#45;&#45;11520 -->
<g id="edge3" class="edge"><title>11515&#45;&#45;11520</title>
<path fill="none" stroke="black" d="M97.5422,-361.97C106.787,-352.168 117.533,-338.531 122.497,-324 139.962,-272.879 114.977,-208.955 100.934,-179.392"/>
</g>
<!-- 11516&#45;&#45;11518 -->
<g id="edge4" class="edge"><title>11516&#45;&#45;11518</title>
<path fill="none" stroke="black" d="M70.1324,-288.765C62.2163,-277.456 51.7028,-262.437 43.8002,-251.147"/>
</g>
<!-- 11516&#45;&#45;11520 -->
<g id="edge5" class="edge"><title>11516&#45;&#45;11520</title>
<path fill="none" stroke="black" d="M82.824,-287.871C84.9382,-260.578 89.0483,-207.52 91.1656,-180.189"/>
</g>
<!-- 11518&#45;&#45;11520 -->
<g id="edge6" class="edge"><title>11518&#45;&#45;11520</title>
<path fill="none" stroke="black" d="M45.8131,-217.465C55.7561,-205.865 69.2843,-190.082 79.2184,-178.492"/>
</g>
<!-- 11891 -->
<g id="node5" class="node"><title>11891</title>
<ellipse fill="none" stroke="black" cx="302.497" cy="-378" rx="32.4942" ry="18"/>
<text text-anchor="middle" x="302.497" y="-374.3" font-family="Times New Roman,serif" font-size="14.00">11891</text>
</g>
<!-- 11892 -->
<g id="node6" class="node"><title>11892</title>
<ellipse fill="none" stroke="black" cx="302.497" cy="-306" rx="32.4942" ry="18"/>
<text text-anchor="middle" x="302.497" y="-302.3" font-family="Times New Roman,serif" font-size="14.00">11892</text>
</g>
<!-- 11891&#45;&#45;11892 -->
<g id="edge7" class="edge"><title>11891&#45;&#45;11892</title>
<path fill="none" stroke="black" d="M302.497,-359.697C302.497,-348.846 302.497,-334.917 302.497,-324.104"/>
</g>
<!-- 11894 -->
<g id="node7" class="node"><title>11894</title>
<ellipse fill="none" stroke="black" cx="391.497" cy="-234" rx="32.4942" ry="18"/>
<text text-anchor="middle" x="391.497" y="-230.3" font-family="Times New Roman,serif" font-size="14.00">11894</text>
</g>
<!-- 11891&#45;&#45;11894 -->
<g id="edge8" class="edge"><title>11891&#45;&#45;11894</title>
<path fill="none" stroke="black" d="M315.767,-361.266C324.165,-350.978 335,-337.069 343.497,-324 359.287,-299.716 374.663,-269.763 383.599,-251.537"/>
</g>
<!-- 11896 -->
<g id="node8" class="node"><title>11896</title>
<ellipse fill="none" stroke="black" cx="391.497" cy="-162" rx="32.4942" ry="18"/>
<text text-anchor="middle" x="391.497" y="-158.3" font-family="Times New Roman,serif" font-size="14.00">11896</text>
</g>
<!-- 11891&#45;&#45;11896 -->
<g id="edge9" class="edge"><title>11891&#45;&#45;11896</title>
<path fill="none" stroke="black" d="M324.509,-364.58C356.023,-345.301 412.413,-304.826 432.497,-252 438.183,-237.044 437.67,-231.141 432.497,-216 427.533,-201.469 416.787,-187.832 407.542,-178.03"/>
</g>
<!-- 11898 -->
<g id="node9" class="node"><title>11898</title>
<ellipse fill="none" stroke="black" cx="319.497" cy="-90" rx="32.4942" ry="18"/>
<text text-anchor="middle" x="319.497" y="-86.3" font-family="Times New Roman,serif" font-size="14.00">11898</text>
</g>
<!-- 11891&#45;&#45;11898 -->
<g id="edge10" class="edge"><title>11891&#45;&#45;11898</title>
<path fill="none" stroke="black" d="M286.452,-361.97C277.207,-352.168 266.462,-338.531 261.497,-324 256.324,-308.859 259.214,-303.836 261.497,-288 271.391,-219.365 299.731,-141.306 312.776,-107.762"/>
</g>
<!-- 11900 -->
<g id="node10" class="node"><title>11900</title>
<ellipse fill="none" stroke="black" cx="319.497" cy="-18" rx="32.4942" ry="18"/>
<text text-anchor="middle" x="319.497" y="-14.3" font-family="Times New Roman,serif" font-size="14.00">11900</text>
</g>
<!-- 11891&#45;&#45;11900 -->
<g id="edge11" class="edge"><title>11891&#45;&#45;11900</title>
<path fill="none" stroke="black" d="M280.223,-364.735C244.778,-343.392 179.497,-295.828 179.497,-235 179.497,-235 179.497,-235 179.497,-161 179.497,-95.9151 255,-49.8421 295.111,-29.958"/>
</g>
<!-- 11892&#45;&#45;11894 -->
<g id="edge12" class="edge"><title>11892&#45;&#45;11894</title>
<path fill="none" stroke="black" d="M320.508,-290.834C335.949,-278.69 358.08,-261.283 373.513,-249.144"/>
</g>
<!-- 11892&#45;&#45;11896 -->
<g id="edge13" class="edge"><title>11892&#45;&#45;11896</title>
<path fill="none" stroke="black" d="M310.395,-288.463C319.331,-270.237 334.707,-240.284 350.497,-216 358.995,-202.931 369.83,-189.022 378.227,-178.734"/>
</g>
<!-- 11892&#45;&#45;11898 -->
<g id="edge14" class="edge"><title>11892&#45;&#45;11898</title>
<path fill="none" stroke="black" d="M303.86,-287.849C307.043,-247.78 314.939,-148.383 318.128,-108.232"/>
</g>
<!-- 11892&#45;&#45;11900 -->
<g id="edge15" class="edge"><title>11892&#45;&#45;11900</title>
<path fill="none" stroke="black" d="M295.991,-288.068C281.938,-248.873 252.072,-149.348 278.497,-72 283.462,-57.4688 294.207,-43.8318 303.452,-34.0303"/>
</g>
<!-- 11894&#45;&#45;11896 -->
<g id="edge16" class="edge"><title>11894&#45;&#45;11896</title>
<path fill="none" stroke="black" d="M391.497,-215.697C391.497,-204.846 391.497,-190.917 391.497,-180.104"/>
</g>
<!-- 11894&#45;&#45;11898 -->
<g id="edge17" class="edge"><title>11894&#45;&#45;11898</title>
<path fill="none" stroke="black" d="M377.5,-217.699C368.812,-207.583 357.927,-193.704 350.497,-180 337.708,-156.41 328.582,-126.519 323.675,-108.082"/>
</g>
<!-- 11894&#45;&#45;11900 -->
<g id="edge18" class="edge"><title>11894&#45;&#45;11900</title>
<path fill="none" stroke="black" d="M407.542,-217.97C416.787,-208.168 427.533,-194.531 432.497,-180 437.67,-164.859 437.279,-159.269 432.497,-144 416.847,-94.0279 367.836,-52.8253 339.769,-32.5603"/>
</g>
<!-- 11896&#45;&#45;11898 -->
<g id="edge19" class="edge"><title>11896&#45;&#45;11898</title>
<path fill="none" stroke="black" d="M375.874,-145.811C363.797,-134.07 347.159,-117.893 335.09,-106.159"/>
</g>
<!-- 11896&#45;&#45;11900 -->
<g id="edge20" class="edge"><title>11896&#45;&#45;11900</title>
<path fill="none" stroke="black" d="M387.319,-143.918C382.412,-125.481 373.286,-95.5896 360.497,-72 353.067,-58.2959 342.182,-44.417 333.495,-34.301"/>
</g>
<!-- 11898&#45;&#45;11900 -->
<g id="edge21" class="edge"><title>11898&#45;&#45;11900</title>
<path fill="none" stroke="black" d="M319.497,-71.6966C319.497,-60.8463 319.497,-46.9167 319.497,-36.1043"/>
</g>
</g>
</svg>
