<svg width="256px" height="443px"
 viewBox="0.00 0.00 191.69 332.00" xmlns="http://www.w3.org/2000/svg" xmlns:xlink="http://www.w3.org/1999/xlink">
<g id="graph0" class="graph" transform="scale(1.000022500562514 1.000022500562514) rotate(0) translate(4 328)">
<title>G</title>
<polygon fill="white" stroke="none" points="-4,4 -4,-328 187.688,-328 187.688,4 -4,4"/>
<!-- 7329 -->
<g id="node1" class="node"><title>7329</title>
<ellipse fill="none" stroke="black" cx="69.0906" cy="-306" rx="28.6953" ry="18"/>
<text text-anchor="middle" x="69.0906" y="-302.3" font-family="Times New Roman,serif" font-size="14.00">7329</text>
</g>
<!-- 7330 -->
<g id="node2" class="node"><title>7330</title>
<ellipse fill="none" stroke="black" cx="98.0906" cy="-234" rx="28.6953" ry="18"/>
<text text-anchor="middle" x="98.0906" y="-230.3" font-family="Times New Roman,serif" font-size="14.00">7330</text>
</g>
<!-- 7329&#45;&#45;7330 -->
<g id="edge1" class="edge"><title>7329&#45;&#45;7330</title>
<path fill="none" stroke="black" d="M75.9632,-288.411C80.5191,-277.414 86.4793,-263.027 91.0659,-251.956"/>
</g>
<!-- 7332 -->
<g id="node3" class="node"><title>7332</title>
<ellipse fill="none" stroke="black" cx="41.0906" cy="-162" rx="28.6953" ry="18"/>
<text text-anchor="middle" x="41.0906" y="-158.3" font-family="Times New Roman,serif" font-size="14.00">7332</text>
</g>
<!-- 7329&#45;&#45;7332 -->
<g id="edge2" class="edge"><title>7329&#45;&#45;7332</title>
<path fill="none" stroke="black" d="M65.7132,-287.871C60.3314,-260.578 49.8693,-207.52 44.4801,-180.189"/>
</g>
<!-- 7334 -->
<g id="node4" class="node"><title>7334</title>
<ellipse fill="none" stroke="black" cx="155.091" cy="-90" rx="28.6953" ry="18"/>
<text text-anchor="middle" x="155.091" y="-86.3" font-family="Times New Roman,serif" font-size="14.00">7334</text>
</g>
<!-- 7329&#45;&#45;7334 -->
<g id="edge3" class="edge"><title>7329&#45;&#45;7334</title>
<path fill="none" stroke="black" d="M90.6824,-293.959C106.053,-284.883 125.746,-270.515 136.091,-252 162.173,-205.316 160.006,-139.243 157.154,-108.277"/>
</g>
<!-- 7336 -->
<g id="node5" class="node"><title>7336</title>
<ellipse fill="none" stroke="black" cx="74.0906" cy="-18" rx="28.6953" ry="18"/>
<text text-anchor="middle" x="74.0906" y="-14.3" font-family="Times New Roman,serif" font-size="14.00">7336</text>
</g>
<!-- 7329&#45;&#45;7336 -->
<g id="edge4" class="edge"><title>7329&#45;&#45;7336</title>
<path fill="none" stroke="black" d="M55.6363,-289.922C32.3462,-261.95 -11.6466,-199.785 3.09063,-144 14.5012,-100.807 44.6672,-56.9036 61.7816,-34.4003"/>
</g>
<!-- 7330&#45;&#45;7332 -->
<g id="edge5" class="edge"><title>7330&#45;&#45;7332</title>
<path fill="none" stroke="black" d="M85.4405,-217.465C75.9946,-205.865 63.1428,-190.082 53.7054,-178.492"/>
</g>
<!-- 7330&#45;&#45;7334 -->
<g id="edge6" class="edge"><title>7330&#45;&#45;7334</title>
<path fill="none" stroke="black" d="M104.741,-216.433C115.665,-189.217 137.295,-135.334 148.306,-107.902"/>
</g>
<!-- 7330&#45;&#45;7336 -->
<g id="edge7" class="edge"><title>7330&#45;&#45;7336</title>
<path fill="none" stroke="black" d="M96.1672,-215.849C91.6734,-175.78 80.5261,-76.3826 76.0232,-36.2325"/>
</g>
<!-- 7332&#45;&#45;7334 -->
<g id="edge8" class="edge"><title>7332&#45;&#45;7334</title>
<path fill="none" stroke="black" d="M60.9479,-148.807C81.7443,-136.037 114.224,-116.093 135.078,-103.288"/>
</g>
<!-- 7332&#45;&#45;7336 -->
<g id="edge9" class="edge"><title>7332&#45;&#45;7336</title>
<path fill="none" stroke="black" d="M45.0058,-144.153C51.3227,-116.971 63.6988,-63.7165 70.0777,-36.2678"/>
</g>
<!-- 7334&#45;&#45;7336 -->
<g id="edge10" class="edge"><title>7334&#45;&#45;7336</title>
<path fill="none" stroke="black" d="M138.699,-74.8345C124.553,-62.6099 104.239,-45.0538 90.1814,-32.9056"/>
</g>
</g>
</svg>
