<svg width="170px" height="347px"
 viewBox="0.00 0.00 127.31 260.00" xmlns="http://www.w3.org/2000/svg" xmlns:xlink="http://www.w3.org/1999/xlink">
<g id="graph0" class="graph" transform="scale(1.000022500562514 1.000022500562514) rotate(0) translate(4 256)">
<title>G</title>
<polygon fill="white" stroke="none" points="-4,4 -4,-256 123.311,-256 123.311,4 -4,4"/>
<!-- 3043 -->
<g id="node1" class="node"><title>3043</title>
<ellipse fill="none" stroke="black" cx="75.5975" cy="-234" rx="28.6953" ry="18"/>
<text text-anchor="middle" x="75.5975" y="-230.3" font-family="Times New Roman,serif" font-size="14.00">3043</text>
</g>
<!-- 3044 -->
<g id="node2" class="node"><title>3044</title>
<ellipse fill="none" stroke="black" cx="75.5975" cy="-162" rx="28.6953" ry="18"/>
<text text-anchor="middle" x="75.5975" y="-158.3" font-family="Times New Roman,serif" font-size="14.00">3044</text>
</g>
<!-- 3043&#45;&#45;3044 -->
<g id="edge1" class="edge"><title>3043&#45;&#45;3044</title>
<path fill="none" stroke="black" d="M75.5975,-215.697C75.5975,-204.846 75.5975,-190.917 75.5975,-180.104"/>
</g>
<!-- 3046 -->
<g id="node3" class="node"><title>3046</title>
<ellipse fill="none" stroke="black" cx="28.5975" cy="-90" rx="28.6953" ry="18"/>
<text text-anchor="middle" x="28.5975" y="-86.3" font-family="Times New Roman,serif" font-size="14.00">3046</text>
</g>
<!-- 3043&#45;&#45;3046 -->
<g id="edge2" class="edge"><title>3043&#45;&#45;3046</title>
<path fill="none" stroke="black" d="M61.5875,-218.031C53.122,-208.048 42.962,-194.191 37.5975,-180 28.6466,-156.321 27.4454,-126.714 27.7539,-108.328"/>
</g>
<!-- 3048 -->
<g id="node4" class="node"><title>3048</title>
<ellipse fill="none" stroke="black" cx="85.5975" cy="-18" rx="28.6953" ry="18"/>
<text text-anchor="middle" x="85.5975" y="-14.3" font-family="Times New Roman,serif" font-size="14.00">3048</text>
</g>
<!-- 3043&#45;&#45;3048 -->
<g id="edge3" class="edge"><title>3043&#45;&#45;3048</title>
<path fill="none" stroke="black" d="M90.0991,-218.203C98.7607,-208.288 108.955,-194.444 113.597,-180 130.094,-128.681 106.68,-64.8532 93.5105,-35.3528"/>
</g>
<!-- 3044&#45;&#45;3046 -->
<g id="edge4" class="edge"><title>3044&#45;&#45;3046</title>
<path fill="none" stroke="black" d="M64.9324,-145.116C57.2406,-133.66 46.9024,-118.263 39.2203,-106.821"/>
</g>
<!-- 3044&#45;&#45;3048 -->
<g id="edge5" class="edge"><title>3044&#45;&#45;3048</title>
<path fill="none" stroke="black" d="M76.8037,-143.871C78.7257,-116.578 82.4622,-63.5205 84.387,-36.1893"/>
</g>
<!-- 3046&#45;&#45;3048 -->
<g id="edge6" class="edge"><title>3046&#45;&#45;3048</title>
<path fill="none" stroke="black" d="M41.2476,-73.4647C50.6935,-61.8645 63.5453,-46.0816 72.9827,-34.4918"/>
</g>
</g>
</svg>
