<svg width="345px" height="539px"
 viewBox="0.00 0.00 259.01 404.00" xmlns="http://www.w3.org/2000/svg" xmlns:xlink="http://www.w3.org/1999/xlink">
<g id="graph0" class="graph" transform="scale(1.000022500562514 1.000022500562514) rotate(0) translate(4 400)">
<title>G</title>
<polygon fill="white" stroke="none" points="-4,4 -4,-400 255.008,-400 255.008,4 -4,4"/>
<!-- 5495 -->
<g id="node1" class="node"><title>5495</title>
<ellipse fill="none" stroke="black" cx="123" cy="-378" rx="28.6953" ry="18"/>
<text text-anchor="middle" x="123" y="-374.3" font-family="Times New Roman,serif" font-size="14.00">5495</text>
</g>
<!-- 5496 -->
<g id="node2" class="node"><title>5496</title>
<ellipse fill="none" stroke="black" cx="123" cy="-306" rx="28.6953" ry="18"/>
<text text-anchor="middle" x="123" y="-302.3" font-family="Times New Roman,serif" font-size="14.00">5496</text>
</g>
<!-- 5495&#45;&#45;5496 -->
<g id="edge1" class="edge"><title>5495&#45;&#45;5496</title>
<path fill="none" stroke="black" d="M123,-359.697C123,-348.846 123,-334.917 123,-324.104"/>
</g>
<!-- 5498 -->
<g id="node3" class="node"><title>5498</title>
<ellipse fill="none" stroke="black" cx="209" cy="-234" rx="28.6953" ry="18"/>
<text text-anchor="middle" x="209" y="-230.3" font-family="Times New Roman,serif" font-size="14.00">5498</text>
</g>
<!-- 5495&#45;&#45;5498 -->
<g id="edge2" class="edge"><title>5495&#45;&#45;5498</title>
<path fill="none" stroke="black" d="M134.844,-361.59C142.628,-351.202 152.843,-337.06 161,-324 176.345,-299.432 191.85,-269.562 200.933,-251.43"/>
</g>
<!-- 5500 -->
<g id="node4" class="node"><title>5500</title>
<ellipse fill="none" stroke="black" cx="209" cy="-162" rx="28.6953" ry="18"/>
<text text-anchor="middle" x="209" y="-158.3" font-family="Times New Roman,serif" font-size="14.00">5500</text>
</g>
<!-- 5495&#45;&#45;5500 -->
<g id="edge3" class="edge"><title>5495&#45;&#45;5500</title>
<path fill="none" stroke="black" d="M143.24,-364.778C173.133,-345.332 227.639,-304.156 247,-252 252.568,-237 251.896,-231.232 247,-216 242.357,-201.556 232.163,-187.712 223.502,-177.797"/>
</g>
<!-- 5502 -->
<g id="node5" class="node"><title>5502</title>
<ellipse fill="none" stroke="black" cx="142" cy="-90" rx="28.6953" ry="18"/>
<text text-anchor="middle" x="142" y="-86.3" font-family="Times New Roman,serif" font-size="14.00">5502</text>
</g>
<!-- 5495&#45;&#45;5502 -->
<g id="edge4" class="edge"><title>5495&#45;&#45;5502</title>
<path fill="none" stroke="black" d="M108.498,-362.203C99.8368,-352.288 89.6429,-338.444 85,-324 80.1036,-308.768 82.7543,-303.842 85,-288 94.7199,-219.435 122.573,-141.34 135.395,-107.774"/>
</g>
<!-- 5504 -->
<g id="node6" class="node"><title>5504</title>
<ellipse fill="none" stroke="black" cx="142" cy="-18" rx="28.6953" ry="18"/>
<text text-anchor="middle" x="142" y="-14.3" font-family="Times New Roman,serif" font-size="14.00">5504</text>
</g>
<!-- 5495&#45;&#45;5504 -->
<g id="edge5" class="edge"><title>5495&#45;&#45;5504</title>
<path fill="none" stroke="black" d="M102.135,-365.579C67.0423,-344.665 0,-296.643 0,-235 0,-235 0,-235 0,-161 0,-94.4092 79.0451,-48.1392 119.185,-28.9358"/>
</g>
<!-- 5496&#45;&#45;5498 -->
<g id="edge6" class="edge"><title>5496&#45;&#45;5498</title>
<path fill="none" stroke="black" d="M139.991,-291.17C155.068,-278.898 176.978,-261.064 192.044,-248.801"/>
</g>
<!-- 5496&#45;&#45;5500 -->
<g id="edge7" class="edge"><title>5496&#45;&#45;5500</title>
<path fill="none" stroke="black" d="M131.067,-288.57C140.15,-270.438 155.655,-240.568 171,-216 179.157,-202.94 189.372,-188.798 197.156,-178.41"/>
</g>
<!-- 5496&#45;&#45;5502 -->
<g id="edge8" class="edge"><title>5496&#45;&#45;5502</title>
<path fill="none" stroke="black" d="M124.523,-287.849C128.08,-247.78 136.905,-148.383 140.47,-108.232"/>
</g>
<!-- 5496&#45;&#45;5504 -->
<g id="edge9" class="edge"><title>5496&#45;&#45;5504</title>
<path fill="none" stroke="black" d="M117.289,-288.111C104.986,-249.009 79.0353,-149.663 104,-72 108.643,-57.5563 118.837,-43.7121 127.498,-33.7971"/>
</g>
<!-- 5498&#45;&#45;5500 -->
<g id="edge10" class="edge"><title>5498&#45;&#45;5500</title>
<path fill="none" stroke="black" d="M209,-215.697C209,-204.846 209,-190.917 209,-180.104"/>
</g>
<!-- 5498&#45;&#45;5502 -->
<g id="edge11" class="edge"><title>5498&#45;&#45;5502</title>
<path fill="none" stroke="black" d="M196.003,-217.585C187.941,-207.423 177.851,-193.537 171,-180 158.965,-156.22 150.448,-126.383 145.881,-108.008"/>
</g>
<!-- 5498&#45;&#45;5504 -->
<g id="edge12" class="edge"><title>5498&#45;&#45;5504</title>
<path fill="none" stroke="black" d="M223.502,-218.203C232.163,-208.288 242.357,-194.444 247,-180 251.896,-164.768 251.411,-159.38 247,-144 232.858,-94.6894 186.225,-52.6204 160.115,-32.203"/>
</g>
<!-- 5500&#45;&#45;5502 -->
<g id="edge13" class="edge"><title>5500&#45;&#45;5502</title>
<path fill="none" stroke="black" d="M194.791,-146.155C183.421,-134.276 167.553,-117.697 156.188,-105.824"/>
</g>
<!-- 5500&#45;&#45;5504 -->
<g id="edge14" class="edge"><title>5500&#45;&#45;5504</title>
<path fill="none" stroke="black" d="M205.119,-143.992C200.552,-125.617 192.035,-95.7796 180,-72 173.149,-58.4633 163.059,-44.5766 154.997,-34.4151"/>
</g>
<!-- 5502&#45;&#45;5504 -->
<g id="edge15" class="edge"><title>5502&#45;&#45;5504</title>
<path fill="none" stroke="black" d="M142,-71.6966C142,-60.8463 142,-46.9167 142,-36.1043"/>
</g>
</g>
</svg>
