<svg width="822px" height="539px"

 viewBox="0.00 0.00 616.49 404.00" xmlns="http://www.w3.org/2000/svg" xmlns:xlink="http://www.w3.org/1999/xlink">
<g id="graph0" class="graph" transform="scale(1.000022500562514 1.000022500562514) rotate(0) translate(4 400)">
<title>G</title>
<polygon fill="white" stroke="none" points="-4,4 -4,-400 612.487,-400 612.487,4 -4,4"/>
<!-- 6101 -->
<g id="node1" class="node"><title>6101</title>
<ellipse fill="none" stroke="black" cx="57.5975" cy="-378" rx="28.6953" ry="18"/>
<text text-anchor="middle" x="57.5975" y="-374.3" font-family="Times New Roman,serif" font-size="14.00">6101</text>
</g>
<!-- 6102 -->
<g id="node2" class="node"><title>6102</title>
<ellipse fill="none" stroke="black" cx="28.5975" cy="-306" rx="28.6953" ry="18"/>
<text text-anchor="middle" x="28.5975" y="-302.3" font-family="Times New Roman,serif" font-size="14.00">6102</text>
</g>
<!-- 6101&#45;&#45;6102 -->
<g id="edge1" class="edge"><title>6101&#45;&#45;6102</title>
<path fill="none" stroke="black" d="M50.7249,-360.411C46.169,-349.414 40.2088,-335.027 35.6222,-323.956"/>
</g>
<!-- 6104 -->
<g id="node3" class="node"><title>6104</title>
<ellipse fill="none" stroke="black" cx="38.5975" cy="-234" rx="28.6953" ry="18"/>
<text text-anchor="middle" x="38.5975" y="-230.3" font-family="Times New Roman,serif" font-size="14.00">6104</text>
</g>
<!-- 6101&#45;&#45;6104 -->
<g id="edge2" class="edge"><title>6101&#45;&#45;6104</title>
<path fill="none" stroke="black" d="M62.7095,-360.025C67.3745,-341.933 72.6888,-312.57 66.5975,-288 63.292,-274.667 55.951,-260.993 49.6149,-250.874"/>
</g>
<!-- 6102&#45;&#45;6104 -->
<g id="edge3" class="edge"><title>6102&#45;&#45;6104</title>
<path fill="none" stroke="black" d="M31.0182,-288.055C32.5673,-277.211 34.5713,-263.183 36.1296,-252.275"/>
</g>
<!-- 6855 -->
<g id="node4" class="node"><title>6855</title>
<ellipse fill="none" stroke="black" cx="180.597" cy="-378" rx="28.6953" ry="18"/>
<text text-anchor="middle" x="180.597" y="-374.3" font-family="Times New Roman,serif" font-size="14.00">6855</text>
</g>
<!-- 6856 -->
<g id="node5" class="node"><title>6856</title>
<ellipse fill="none" stroke="black" cx="180.597" cy="-306" rx="28.6953" ry="18"/>
<text text-anchor="middle" x="180.597" y="-302.3" font-family="Times New Roman,serif" font-size="14.00">6856</text>
</g>
<!-- 6855&#45;&#45;6856 -->
<g id="edge4" class="edge"><title>6855&#45;&#45;6856</title>
<path fill="none" stroke="black" d="M180.597,-359.697C180.597,-348.846 180.597,-334.917 180.597,-324.104"/>
</g>
<!-- 6858 -->
<g id="node6" class="node"><title>6858</title>
<ellipse fill="none" stroke="black" cx="132.597" cy="-234" rx="28.6953" ry="18"/>
<text text-anchor="middle" x="132.597" y="-230.3" font-family="Times New Roman,serif" font-size="14.00">6858</text>
</g>
<!-- 6855&#45;&#45;6858 -->
<g id="edge5" class="edge"><title>6855&#45;&#45;6858</title>
<path fill="none" stroke="black" d="M166.641,-362.011C158.197,-352.019 148.041,-338.161 142.597,-324 133.449,-300.198 131.918,-270.367 131.999,-251.999"/>
</g>
<!-- 6860 -->
<g id="node7" class="node"><title>6860</title>
<ellipse fill="none" stroke="black" cx="189.597" cy="-162" rx="28.6953" ry="18"/>
<text text-anchor="middle" x="189.597" y="-158.3" font-family="Times New Roman,serif" font-size="14.00">6860</text>
</g>
<!-- 6855&#45;&#45;6860 -->
<g id="edge6" class="edge"><title>6855&#45;&#45;6860</title>
<path fill="none" stroke="black" d="M195.099,-362.203C203.761,-352.288 213.955,-338.444 218.597,-324 235.111,-272.627 211.138,-208.825 197.679,-179.342"/>
</g>
<!-- 6856&#45;&#45;6858 -->
<g id="edge7" class="edge"><title>6856&#45;&#45;6858</title>
<path fill="none" stroke="black" d="M169.706,-289.116C161.85,-277.66 151.292,-262.263 143.446,-250.821"/>
</g>
<!-- 6856&#45;&#45;6860 -->
<g id="edge8" class="edge"><title>6856&#45;&#45;6860</title>
<path fill="none" stroke="black" d="M181.683,-287.871C183.413,-260.578 186.776,-207.52 188.508,-180.189"/>
</g>
<!-- 6858&#45;&#45;6860 -->
<g id="edge9" class="edge"><title>6858&#45;&#45;6860</title>
<path fill="none" stroke="black" d="M145.248,-217.465C154.693,-205.865 167.545,-190.082 176.983,-178.492"/>
</g>
<!-- 7123 -->
<g id="node8" class="node"><title>7123</title>
<ellipse fill="none" stroke="black" cx="294.597" cy="-378" rx="28.6953" ry="18"/>
<text text-anchor="middle" x="294.597" y="-374.3" font-family="Times New Roman,serif" font-size="14.00">7123</text>
</g>
<!-- 7124 -->
<g id="node9" class="node"><title>7124</title>
<ellipse fill="none" stroke="black" cx="294.597" cy="-306" rx="28.6953" ry="18"/>
<text text-anchor="middle" x="294.597" y="-302.3" font-family="Times New Roman,serif" font-size="14.00">7124</text>
</g>
<!-- 7123&#45;&#45;7124 -->
<g id="edge10" class="edge"><title>7123&#45;&#45;7124</title>
<path fill="none" stroke="black" d="M294.597,-359.697C294.597,-348.846 294.597,-334.917 294.597,-324.104"/>
</g>
<!-- 10417 -->
<g id="node10" class="node"><title>10417</title>
<ellipse fill="none" stroke="black" cx="484.597" cy="-378" rx="32.4942" ry="18"/>
<text text-anchor="middle" x="484.597" y="-374.3" font-family="Times New Roman,serif" font-size="14.00">10417</text>
</g>
<!-- 10418 -->
<g id="node11" class="node"><title>10418</title>
<ellipse fill="none" stroke="black" cx="484.597" cy="-306" rx="32.4942" ry="18"/>
<text text-anchor="middle" x="484.597" y="-302.3" font-family="Times New Roman,serif" font-size="14.00">10418</text>
</g>
<!-- 10417&#45;&#45;10418 -->
<g id="edge11" class="edge"><title>10417&#45;&#45;10418</title>
<path fill="none" stroke="black" d="M484.597,-359.697C484.597,-348.846 484.597,-334.917 484.597,-324.104"/>
</g>
<!-- 10420 -->
<g id="node12" class="node"><title>10420</title>
<ellipse fill="none" stroke="black" cx="563.597" cy="-234" rx="32.4942" ry="18"/>
<text text-anchor="middle" x="563.597" y="-230.3" font-family="Times New Roman,serif" font-size="14.00">10420</text>
</g>
<!-- 10417&#45;&#45;10420 -->
<g id="edge12" class="edge"><title>10417&#45;&#45;10420</title>
<path fill="none" stroke="black" d="M498.279,-361.521C506.84,-351.333 517.704,-337.442 525.597,-324 539.55,-300.24 551.221,-270.397 557.808,-252.016"/>
</g>
<!-- 10422 -->
<g id="node13" class="node"><title>10422</title>
<ellipse fill="none" stroke="black" cx="563.597" cy="-162" rx="32.4942" ry="18"/>
<text text-anchor="middle" x="563.597" y="-158.3" font-family="Times New Roman,serif" font-size="14.00">10422</text>
</g>
<!-- 10417&#45;&#45;10422 -->
<g id="edge13" class="edge"><title>10417&#45;&#45;10422</title>
<path fill="none" stroke="black" d="M505.4,-364.033C534.837,-344.209 587.024,-303.218 604.597,-252 609.79,-236.866 609.77,-231.141 604.597,-216 599.633,-201.469 588.887,-187.832 579.643,-178.03"/>
</g>
<!-- 10424 -->
<g id="node14" class="node"><title>10424</title>
<ellipse fill="none" stroke="black" cx="491.597" cy="-90" rx="32.4942" ry="18"/>
<text text-anchor="middle" x="491.597" y="-86.3" font-family="Times New Roman,serif" font-size="14.00">10424</text>
</g>
<!-- 10417&#45;&#45;10424 -->
<g id="edge14" class="edge"><title>10417&#45;&#45;10424</title>
<path fill="none" stroke="black" d="M468.552,-361.97C459.307,-352.168 448.562,-338.531 443.597,-324 416.692,-245.248 461.88,-146.116 482.339,-107.476"/>
</g>
<!-- 10426 -->
<g id="node15" class="node"><title>10426</title>
<ellipse fill="none" stroke="black" cx="491.597" cy="-18" rx="32.4942" ry="18"/>
<text text-anchor="middle" x="491.597" y="-14.3" font-family="Times New Roman,serif" font-size="14.00">10426</text>
</g>
<!-- 10417&#45;&#45;10426 -->
<g id="edge15" class="edge"><title>10417&#45;&#45;10426</title>
<path fill="none" stroke="black" d="M461.126,-365.544C422.944,-345.068 351.597,-298.333 351.597,-235 351.597,-235 351.597,-235 351.597,-161 351.597,-95.9151 427.1,-49.8421 467.211,-29.958"/>
</g>
<!-- 10418&#45;&#45;10420 -->
<g id="edge16" class="edge"><title>10418&#45;&#45;10420</title>
<path fill="none" stroke="black" d="M501.351,-290.155C514.848,-278.195 533.721,-261.473 547.139,-249.584"/>
</g>
<!-- 10418&#45;&#45;10422 -->
<g id="edge17" class="edge"><title>10418&#45;&#45;10422</title>
<path fill="none" stroke="black" d="M490.387,-287.984C496.974,-269.603 508.645,-239.76 522.597,-216 530.491,-202.558 541.355,-188.667 549.916,-178.479"/>
</g>
<!-- 10418&#45;&#45;10424 -->
<g id="edge18" class="edge"><title>10418&#45;&#45;10424</title>
<path fill="none" stroke="black" d="M485.158,-287.849C486.469,-247.78 489.72,-148.383 491.034,-108.232"/>
</g>
<!-- 10418&#45;&#45;10426 -->
<g id="edge19" class="edge"><title>10418&#45;&#45;10426</title>
<path fill="none" stroke="black" d="M477.01,-288.414C460.323,-249.542 423.966,-149.949 450.597,-72 455.562,-57.4688 466.307,-43.8318 475.552,-34.0303"/>
</g>
<!-- 10420&#45;&#45;10422 -->
<g id="edge20" class="edge"><title>10420&#45;&#45;10422</title>
<path fill="none" stroke="black" d="M563.597,-215.697C563.597,-204.846 563.597,-190.917 563.597,-180.104"/>
</g>
<!-- 10420&#45;&#45;10424 -->
<g id="edge21" class="edge"><title>10420&#45;&#45;10424</title>
<path fill="none" stroke="black" d="M549.6,-217.699C540.912,-207.583 530.027,-193.704 522.597,-180 509.808,-156.41 500.683,-126.519 495.776,-108.082"/>
</g>
<!-- 10420&#45;&#45;10426 -->
<g id="edge22" class="edge"><title>10420&#45;&#45;10426</title>
<path fill="none" stroke="black" d="M579.643,-217.97C588.887,-208.168 599.633,-194.531 604.597,-180 609.77,-164.859 609.379,-159.269 604.597,-144 588.948,-94.0279 539.937,-52.8253 511.869,-32.5603"/>
</g>
<!-- 10422&#45;&#45;10424 -->
<g id="edge23" class="edge"><title>10422&#45;&#45;10424</title>
<path fill="none" stroke="black" d="M547.975,-145.811C535.898,-134.07 519.259,-117.893 507.19,-106.159"/>
</g>
<!-- 10422&#45;&#45;10426 -->
<g id="edge24" class="edge"><title>10422&#45;&#45;10426</title>
<path fill="none" stroke="black" d="M559.419,-143.918C554.512,-125.481 545.387,-95.5896 532.597,-72 525.168,-58.2959 514.283,-44.417 505.595,-34.301"/>
</g>
<!-- 10424&#45;&#45;10426 -->
<g id="edge25" class="edge"><title>10424&#45;&#45;10426</title>
<path fill="none" stroke="black" d="M491.597,-71.6966C491.597,-60.8463 491.597,-46.9167 491.597,-36.1043"/>
</g>
</g>
</svg>
