<svg width="584px" height="347px"
 viewBox="0.00 0.00 438.19 260.00" xmlns="http://www.w3.org/2000/svg" xmlns:xlink="http://www.w3.org/1999/xlink">
<g id="graph0" class="graph" transform="scale(1.000022500562514 1.000022500562514) rotate(0) translate(4 256)">
<title>G</title>
<polygon fill="white" stroke="none" points="-4,4 -4,-256 434.195,-256 434.195,4 -4,4"/>
<!-- 2657 -->
<g id="node1" class="node"><title>2657</title>
<ellipse fill="none" stroke="black" cx="28.5975" cy="-234" rx="28.6953" ry="18"/>
<text text-anchor="middle" x="28.5975" y="-230.3" font-family="Times New Roman,serif" font-size="14.00">2657</text>
</g>
<!-- 2658 -->
<g id="node2" class="node"><title>2658</title>
<ellipse fill="none" stroke="black" cx="28.5975" cy="-162" rx="28.6953" ry="18"/>
<text text-anchor="middle" x="28.5975" y="-158.3" font-family="Times New Roman,serif" font-size="14.00">2658</text>
</g>
<!-- 2657&#45;&#45;2658 -->
<g id="edge1" class="edge"><title>2657&#45;&#45;2658</title>
<path fill="none" stroke="black" d="M28.5975,-215.697C28.5975,-204.846 28.5975,-190.917 28.5975,-180.104"/>
</g>
<!-- 2907 -->
<g id="node3" class="node"><title>2907</title>
<ellipse fill="none" stroke="black" cx="131.597" cy="-234" rx="28.6953" ry="18"/>
<text text-anchor="middle" x="131.597" y="-230.3" font-family="Times New Roman,serif" font-size="14.00">2907</text>
</g>
<!-- 2908 -->
<g id="node4" class="node"><title>2908</title>
<ellipse fill="none" stroke="black" cx="117.597" cy="-162" rx="28.6953" ry="18"/>
<text text-anchor="middle" x="117.597" y="-158.3" font-family="Times New Roman,serif" font-size="14.00">2908</text>
</g>
<!-- 2907&#45;&#45;2908 -->
<g id="edge2" class="edge"><title>2907&#45;&#45;2908</title>
<path fill="none" stroke="black" d="M128.208,-216.055C126.04,-205.211 123.234,-191.183 121.053,-180.275"/>
</g>
<!-- 2910 -->
<g id="node5" class="node"><title>2910</title>
<ellipse fill="none" stroke="black" cx="145.597" cy="-90" rx="28.6953" ry="18"/>
<text text-anchor="middle" x="145.597" y="-86.3" font-family="Times New Roman,serif" font-size="14.00">2910</text>
</g>
<!-- 2907&#45;&#45;2910 -->
<g id="edge3" class="edge"><title>2907&#45;&#45;2910</title>
<path fill="none" stroke="black" d="M141.055,-216.915C146.491,-206.717 152.784,-193.033 155.597,-180 160.945,-155.226 155.429,-125.919 150.715,-107.895"/>
</g>
<!-- 2908&#45;&#45;2910 -->
<g id="edge4" class="edge"><title>2908&#45;&#45;2910</title>
<path fill="none" stroke="black" d="M124.233,-144.411C128.632,-133.414 134.386,-119.027 138.815,-107.956"/>
</g>
<!-- 2914 -->
<g id="node6" class="node"><title>2914</title>
<ellipse fill="none" stroke="black" cx="145.597" cy="-18" rx="28.6953" ry="18"/>
<text text-anchor="middle" x="145.597" y="-14.3" font-family="Times New Roman,serif" font-size="14.00">2914</text>
</g>
<!-- 2910&#45;&#45;2914 -->
<g id="edge5" class="edge"><title>2910&#45;&#45;2914</title>
<path fill="none" stroke="black" d="M145.597,-71.6966C145.597,-60.8463 145.597,-46.9167 145.597,-36.1043"/>
</g>
<!-- 6573 -->
<g id="node7" class="node"><title>6573</title>
<ellipse fill="none" stroke="black" cx="287.597" cy="-234" rx="28.6953" ry="18"/>
<text text-anchor="middle" x="287.597" y="-230.3" font-family="Times New Roman,serif" font-size="14.00">6573</text>
</g>
<!-- 6574 -->
<g id="node8" class="node"><title>6574</title>
<ellipse fill="none" stroke="black" cx="287.597" cy="-162" rx="28.6953" ry="18"/>
<text text-anchor="middle" x="287.597" y="-158.3" font-family="Times New Roman,serif" font-size="14.00">6574</text>
</g>
<!-- 6573&#45;&#45;6574 -->
<g id="edge6" class="edge"><title>6573&#45;&#45;6574</title>
<path fill="none" stroke="black" d="M287.597,-215.697C287.597,-204.846 287.597,-190.917 287.597,-180.104"/>
</g>
<!-- 6576 -->
<g id="node9" class="node"><title>6576</title>
<ellipse fill="none" stroke="black" cx="239.597" cy="-90" rx="28.6953" ry="18"/>
<text text-anchor="middle" x="239.597" y="-86.3" font-family="Times New Roman,serif" font-size="14.00">6576</text>
</g>
<!-- 6573&#45;&#45;6576 -->
<g id="edge7" class="edge"><title>6573&#45;&#45;6576</title>
<path fill="none" stroke="black" d="M273.641,-218.011C265.197,-208.019 255.041,-194.161 249.597,-180 240.449,-156.198 238.918,-126.367 238.999,-107.999"/>
</g>
<!-- 6578 -->
<g id="node10" class="node"><title>6578</title>
<ellipse fill="none" stroke="black" cx="296.597" cy="-18" rx="28.6953" ry="18"/>
<text text-anchor="middle" x="296.597" y="-14.3" font-family="Times New Roman,serif" font-size="14.00">6578</text>
</g>
<!-- 6573&#45;&#45;6578 -->
<g id="edge8" class="edge"><title>6573&#45;&#45;6578</title>
<path fill="none" stroke="black" d="M302.099,-218.203C310.761,-208.288 320.955,-194.444 325.597,-180 342.111,-128.627 318.138,-64.825 304.679,-35.3419"/>
</g>
<!-- 6574&#45;&#45;6576 -->
<g id="edge9" class="edge"><title>6574&#45;&#45;6576</title>
<path fill="none" stroke="black" d="M276.706,-145.116C268.85,-133.66 258.292,-118.263 250.446,-106.821"/>
</g>
<!-- 6574&#45;&#45;6578 -->
<g id="edge10" class="edge"><title>6574&#45;&#45;6578</title>
<path fill="none" stroke="black" d="M288.683,-143.871C290.413,-116.578 293.776,-63.5205 295.508,-36.1893"/>
</g>
<!-- 6576&#45;&#45;6578 -->
<g id="edge11" class="edge"><title>6576&#45;&#45;6578</title>
<path fill="none" stroke="black" d="M252.248,-73.4647C261.693,-61.8645 274.545,-46.0816 283.983,-34.4918"/>
</g>
<!-- 8605 -->
<g id="node11" class="node"><title>8605</title>
<ellipse fill="none" stroke="black" cx="401.597" cy="-234" rx="28.6953" ry="18"/>
<text text-anchor="middle" x="401.597" y="-230.3" font-family="Times New Roman,serif" font-size="14.00">8605</text>
</g>
<!-- 8606 -->
<g id="node12" class="node"><title>8606</title>
<ellipse fill="none" stroke="black" cx="401.597" cy="-162" rx="28.6953" ry="18"/>
<text text-anchor="middle" x="401.597" y="-158.3" font-family="Times New Roman,serif" font-size="14.00">8606</text>
</g>
<!-- 8605&#45;&#45;8606 -->
<g id="edge12" class="edge"><title>8605&#45;&#45;8606</title>
<path fill="none" stroke="black" d="M401.597,-215.697C401.597,-204.846 401.597,-190.917 401.597,-180.104"/>
</g>
</g>
</svg>
