<svg width="1687px" height="827px"
 viewBox="0.00 0.00 1265.60 620.00" xmlns="http://www.w3.org/2000/svg" xmlns:xlink="http://www.w3.org/1999/xlink">
<g id="graph0" class="graph" transform="scale(1.000022500562514 1.000022500562514) rotate(0) translate(4 616)">
<title>G</title>
<polygon fill="white" stroke="none" points="-4,4 -4,-616 1261.6,-616 1261.6,4 -4,4"/>
<!-- 2885 -->
<g id="node1" class="node"><title>2885</title>
<ellipse fill="none" stroke="black" cx="57.5975" cy="-594" rx="28.6953" ry="18"/>
<text text-anchor="middle" x="57.5975" y="-590.3" font-family="Times New Roman,serif" font-size="14.00">2885</text>
</g>
<!-- 2886 -->
<g id="node2" class="node"><title>2886</title>
<ellipse fill="none" stroke="black" cx="28.5975" cy="-522" rx="28.6953" ry="18"/>
<text text-anchor="middle" x="28.5975" y="-518.3" font-family="Times New Roman,serif" font-size="14.00">2886</text>
</g>
<!-- 2885&#45;&#45;2886 -->
<g id="edge1" class="edge"><title>2885&#45;&#45;2886</title>
<path fill="none" stroke="black" d="M50.7249,-576.411C46.169,-565.414 40.2088,-551.027 35.6222,-539.956"/>
</g>
<!-- 2888 -->
<g id="node3" class="node"><title>2888</title>
<ellipse fill="none" stroke="black" cx="47.5975" cy="-450" rx="28.6953" ry="18"/>
<text text-anchor="middle" x="47.5975" y="-446.3" font-family="Times New Roman,serif" font-size="14.00">2888</text>
</g>
<!-- 2885&#45;&#45;2888 -->
<g id="edge2" class="edge"><title>2885&#45;&#45;2888</title>
<path fill="none" stroke="black" d="M62.0142,-576.171C66.0987,-558.202 70.9328,-528.94 66.5975,-504 64.4212,-491.481 59.5556,-478.009 55.2932,-467.78"/>
</g>
<!-- 2886&#45;&#45;2888 -->
<g id="edge3" class="edge"><title>2886&#45;&#45;2888</title>
<path fill="none" stroke="black" d="M33.1968,-504.055C36.1841,-493.049 40.0616,-478.764 43.0404,-467.789"/>
</g>
<!-- 8069 -->
<g id="node4" class="node"><title>8069</title>
<ellipse fill="none" stroke="black" cx="180.597" cy="-594" rx="28.6953" ry="18"/>
<text text-anchor="middle" x="180.597" y="-590.3" font-family="Times New Roman,serif" font-size="14.00">8069</text>
</g>
<!-- 8070 -->
<g id="node5" class="node"><title>8070</title>
<ellipse fill="none" stroke="black" cx="180.597" cy="-522" rx="28.6953" ry="18"/>
<text text-anchor="middle" x="180.597" y="-518.3" font-family="Times New Roman,serif" font-size="14.00">8070</text>
</g>
<!-- 8069&#45;&#45;8070 -->
<g id="edge4" class="edge"><title>8069&#45;&#45;8070</title>
<path fill="none" stroke="black" d="M180.597,-575.697C180.597,-564.846 180.597,-550.917 180.597,-540.104"/>
</g>
<!-- 8072 -->
<g id="node6" class="node"><title>8072</title>
<ellipse fill="none" stroke="black" cx="133.597" cy="-450" rx="28.6953" ry="18"/>
<text text-anchor="middle" x="133.597" y="-446.3" font-family="Times New Roman,serif" font-size="14.00">8072</text>
</g>
<!-- 8069&#45;&#45;8072 -->
<g id="edge5" class="edge"><title>8069&#45;&#45;8072</title>
<path fill="none" stroke="black" d="M166.587,-578.031C158.122,-568.048 147.962,-554.191 142.597,-540 133.647,-516.321 132.445,-486.714 132.754,-468.328"/>
</g>
<!-- 8074 -->
<g id="node7" class="node"><title>8074</title>
<ellipse fill="none" stroke="black" cx="190.597" cy="-378" rx="28.6953" ry="18"/>
<text text-anchor="middle" x="190.597" y="-374.3" font-family="Times New Roman,serif" font-size="14.00">8074</text>
</g>
<!-- 8069&#45;&#45;8074 -->
<g id="edge6" class="edge"><title>8069&#45;&#45;8074</title>
<path fill="none" stroke="black" d="M195.099,-578.203C203.761,-568.288 213.955,-554.444 218.597,-540 235.094,-488.681 211.68,-424.853 198.51,-395.353"/>
</g>
<!-- 8070&#45;&#45;8072 -->
<g id="edge7" class="edge"><title>8070&#45;&#45;8072</title>
<path fill="none" stroke="black" d="M169.932,-505.116C162.241,-493.66 151.902,-478.263 144.22,-466.821"/>
</g>
<!-- 8070&#45;&#45;8074 -->
<g id="edge8" class="edge"><title>8070&#45;&#45;8074</title>
<path fill="none" stroke="black" d="M181.804,-503.871C183.726,-476.578 187.462,-423.52 189.387,-396.189"/>
</g>
<!-- 8072&#45;&#45;8074 -->
<g id="edge9" class="edge"><title>8072&#45;&#45;8074</title>
<path fill="none" stroke="black" d="M146.248,-433.465C155.693,-421.865 168.545,-406.082 177.983,-394.492"/>
</g>
<!-- 8213 -->
<g id="node8" class="node"><title>8213</title>
<ellipse fill="none" stroke="black" cx="351.597" cy="-594" rx="28.6953" ry="18"/>
<text text-anchor="middle" x="351.597" y="-590.3" font-family="Times New Roman,serif" font-size="14.00">8213</text>
</g>
<!-- 8214 -->
<g id="node9" class="node"><title>8214</title>
<ellipse fill="none" stroke="black" cx="351.597" cy="-522" rx="28.6953" ry="18"/>
<text text-anchor="middle" x="351.597" y="-518.3" font-family="Times New Roman,serif" font-size="14.00">8214</text>
</g>
<!-- 8213&#45;&#45;8214 -->
<g id="edge10" class="edge"><title>8213&#45;&#45;8214</title>
<path fill="none" stroke="black" d="M351.597,-575.697C351.597,-564.846 351.597,-550.917 351.597,-540.104"/>
</g>
<!-- 8216 -->
<g id="node10" class="node"><title>8216</title>
<ellipse fill="none" stroke="black" cx="408.597" cy="-450" rx="28.6953" ry="18"/>
<text text-anchor="middle" x="408.597" y="-446.3" font-family="Times New Roman,serif" font-size="14.00">8216</text>
</g>
<!-- 8213&#45;&#45;8216 -->
<g id="edge11" class="edge"><title>8213&#45;&#45;8216</title>
<path fill="none" stroke="black" d="M365.084,-577.816C373.34,-567.747 383.464,-553.877 389.597,-540 400.073,-516.3 404.924,-486.44 407.058,-468.039"/>
</g>
<!-- 8218 -->
<g id="node11" class="node"><title>8218</title>
<ellipse fill="none" stroke="black" cx="313.597" cy="-378" rx="28.6953" ry="18"/>
<text text-anchor="middle" x="313.597" y="-374.3" font-family="Times New Roman,serif" font-size="14.00">8218</text>
</g>
<!-- 8213&#45;&#45;8218 -->
<g id="edge12" class="edge"><title>8213&#45;&#45;8218</title>
<path fill="none" stroke="black" d="M337.096,-578.203C328.434,-568.288 318.24,-554.444 313.597,-540 297.431,-489.706 305.135,-425.92 310.275,-395.977"/>
</g>
<!-- 8214&#45;&#45;8216 -->
<g id="edge13" class="edge"><title>8214&#45;&#45;8216</title>
<path fill="none" stroke="black" d="M364.248,-505.465C373.693,-493.865 386.545,-478.082 395.983,-466.492"/>
</g>
<!-- 8214&#45;&#45;8218 -->
<g id="edge14" class="edge"><title>8214&#45;&#45;8218</title>
<path fill="none" stroke="black" d="M347.089,-504.153C339.776,-476.824 325.41,-423.14 318.1,-395.825"/>
</g>
<!-- 9758 -->
<g id="node12" class="node"><title>9758</title>
<ellipse fill="none" stroke="black" cx="398.597" cy="-378" rx="28.6953" ry="18"/>
<text text-anchor="middle" x="398.597" y="-374.3" font-family="Times New Roman,serif" font-size="14.00">9758</text>
</g>
<!-- 8214&#45;&#45;9758 -->
<g id="edge15" class="edge"><title>8214&#45;&#45;9758</title>
<path fill="none" stroke="black" d="M353.819,-503.881C356.511,-485.67 361.811,-456.208 370.597,-432 375.284,-419.088 382.582,-405.4 388.552,-395.17"/>
</g>
<!-- 8216&#45;&#45;8218 -->
<g id="edge16" class="edge"><title>8216&#45;&#45;8218</title>
<path fill="none" stroke="black" d="M390.729,-435.834C373.744,-423.319 348.344,-404.603 331.386,-392.107"/>
</g>
<!-- 8216&#45;&#45;9758 -->
<g id="edge17" class="edge"><title>8216&#45;&#45;9758</title>
<path fill="none" stroke="black" d="M406.177,-432.055C404.628,-421.211 402.624,-407.183 401.065,-396.275"/>
</g>
<!-- 10129 -->
<g id="node13" class="node"><title>10129</title>
<ellipse fill="none" stroke="black" cx="468.597" cy="-594" rx="32.4942" ry="18"/>
<text text-anchor="middle" x="468.597" y="-590.3" font-family="Times New Roman,serif" font-size="14.00">10129</text>
</g>
<!-- 10130 -->
<g id="node14" class="node"><title>10130</title>
<ellipse fill="none" stroke="black" cx="468.597" cy="-522" rx="32.4942" ry="18"/>
<text text-anchor="middle" x="468.597" y="-518.3" font-family="Times New Roman,serif" font-size="14.00">10130</text>
</g>
<!-- 10129&#45;&#45;10130 -->
<g id="edge18" class="edge"><title>10129&#45;&#45;10130</title>
<path fill="none" stroke="black" d="M468.597,-575.697C468.597,-564.846 468.597,-550.917 468.597,-540.104"/>
</g>
<!-- 10573 -->
<g id="node15" class="node"><title>10573</title>
<ellipse fill="none" stroke="black" cx="551.597" cy="-594" rx="32.4942" ry="18"/>
<text text-anchor="middle" x="551.597" y="-590.3" font-family="Times New Roman,serif" font-size="14.00">10573</text>
</g>
<!-- 10574 -->
<g id="node16" class="node"><title>10574</title>
<ellipse fill="none" stroke="black" cx="551.597" cy="-522" rx="32.4942" ry="18"/>
<text text-anchor="middle" x="551.597" y="-518.3" font-family="Times New Roman,serif" font-size="14.00">10574</text>
</g>
<!-- 10573&#45;&#45;10574 -->
<g id="edge19" class="edge"><title>10573&#45;&#45;10574</title>
<path fill="none" stroke="black" d="M551.597,-575.697C551.597,-564.846 551.597,-550.917 551.597,-540.104"/>
</g>
<!-- 12033 -->
<g id="node17" class="node"><title>12033</title>
<ellipse fill="none" stroke="black" cx="1026.6" cy="-594" rx="32.4942" ry="18"/>
<text text-anchor="middle" x="1026.6" y="-590.3" font-family="Times New Roman,serif" font-size="14.00">12033</text>
</g>
<!-- 12034 -->
<g id="node18" class="node"><title>12034</title>
<ellipse fill="none" stroke="black" cx="986.597" cy="-522" rx="32.4942" ry="18"/>
<text text-anchor="middle" x="986.597" y="-518.3" font-family="Times New Roman,serif" font-size="14.00">12034</text>
</g>
<!-- 12033&#45;&#45;12034 -->
<g id="edge20" class="edge"><title>12033&#45;&#45;12034</title>
<path fill="none" stroke="black" d="M1017.12,-576.411C1010.74,-565.252 1002.37,-550.604 996.009,-539.47"/>
</g>
<!-- 12036 -->
<g id="node19" class="node"><title>12036</title>
<ellipse fill="none" stroke="black" cx="920.597" cy="-450" rx="32.4942" ry="18"/>
<text text-anchor="middle" x="920.597" y="-446.3" font-family="Times New Roman,serif" font-size="14.00">12036</text>
</g>
<!-- 12033&#45;&#45;12036 -->
<g id="edge21" class="edge"><title>12033&#45;&#45;12036</title>
<path fill="none" stroke="black" d="M1001.49,-582.466C983.415,-573.647 959.806,-559.381 945.597,-540 929.845,-518.514 924.01,-487.47 921.854,-468.299"/>
</g>
<!-- 12038 -->
<g id="node20" class="node"><title>12038</title>
<ellipse fill="none" stroke="black" cx="1007.6" cy="-378" rx="32.4942" ry="18"/>
<text text-anchor="middle" x="1007.6" y="-374.3" font-family="Times New Roman,serif" font-size="14.00">12038</text>
</g>
<!-- 12033&#45;&#45;12038 -->
<g id="edge22" class="edge"><title>12033&#45;&#45;12038</title>
<path fill="none" stroke="black" d="M1027,-575.815C1027.23,-565.444 1027.48,-551.963 1027.6,-540 1027.75,-524.001 1028.87,-519.95 1027.6,-504 1024.51,-465.222 1016.13,-420.312 1011.26,-396.286"/>
</g>
<!-- 12040 -->
<g id="node21" class="node"><title>12040</title>
<ellipse fill="none" stroke="black" cx="817.597" cy="-306" rx="32.4942" ry="18"/>
<text text-anchor="middle" x="817.597" y="-302.3" font-family="Times New Roman,serif" font-size="14.00">12040</text>
</g>
<!-- 12033&#45;&#45;12040 -->
<g id="edge23" class="edge"><title>12033&#45;&#45;12040</title>
<path fill="none" stroke="black" d="M1001.36,-582.234C980.186,-572.638 949.643,-557.439 925.597,-540 888.451,-513.059 876.704,-506.41 851.597,-468 821.743,-422.327 817.511,-355.185 817.286,-324.034"/>
</g>
<!-- 12042 -->
<g id="node22" class="node"><title>12042</title>
<ellipse fill="none" stroke="black" cx="953.597" cy="-234" rx="32.4942" ry="18"/>
<text text-anchor="middle" x="953.597" y="-230.3" font-family="Times New Roman,serif" font-size="14.00">12042</text>
</g>
<!-- 12033&#45;&#45;12042 -->
<g id="edge24" class="edge"><title>12033&#45;&#45;12042</title>
<path fill="none" stroke="black" d="M1034.51,-576.539C1051.95,-537.933 1090.3,-438.867 1065.6,-360 1050.01,-310.226 1001.46,-268.945 973.669,-248.614"/>
</g>
<!-- 12044 -->
<g id="node23" class="node"><title>12044</title>
<ellipse fill="none" stroke="black" cx="1040.6" cy="-162" rx="32.4942" ry="18"/>
<text text-anchor="middle" x="1040.6" y="-158.3" font-family="Times New Roman,serif" font-size="14.00">12044</text>
</g>
<!-- 12033&#45;&#45;12044 -->
<g id="edge25" class="edge"><title>12033&#45;&#45;12044</title>
<path fill="none" stroke="black" d="M1052.89,-583.085C1097.11,-564.503 1181.6,-519.976 1181.6,-451 1181.6,-451 1181.6,-451 1181.6,-305 1181.6,-239.686 1105.56,-193.72 1065.16,-173.909"/>
</g>
<!-- 12046 -->
<g id="node24" class="node"><title>12046</title>
<ellipse fill="none" stroke="black" cx="839.597" cy="-90" rx="32.4942" ry="18"/>
<text text-anchor="middle" x="839.597" y="-86.3" font-family="Times New Roman,serif" font-size="14.00">12046</text>
</g>
<!-- 12033&#45;&#45;12046 -->
<g id="edge26" class="edge"><title>12033&#45;&#45;12046</title>
<path fill="none" stroke="black" d="M995.064,-589.147C898.218,-576.443 611.597,-532.004 611.597,-451 611.597,-451 611.597,-451 611.597,-305 611.597,-195.339 753.555,-125.496 813.443,-100.91"/>
</g>
<!-- 12048 -->
<g id="node25" class="node"><title>12048</title>
<ellipse fill="none" stroke="black" cx="896.597" cy="-18" rx="32.4942" ry="18"/>
<text text-anchor="middle" x="896.597" y="-14.3" font-family="Times New Roman,serif" font-size="14.00">12048</text>
</g>
<!-- 12033&#45;&#45;12048 -->
<g id="edge27" class="edge"><title>12033&#45;&#45;12048</title>
<path fill="none" stroke="black" d="M1057.75,-588.627C1120.8,-577.836 1257.6,-543.739 1257.6,-451 1257.6,-451 1257.6,-451 1257.6,-161 1257.6,-114.027 1239.71,-98.012 1200.6,-72 1156.27,-42.5178 997.535,-26.8681 928.757,-21.343"/>
</g>
<!-- 12034&#45;&#45;12036 -->
<g id="edge28" class="edge"><title>12034&#45;&#45;12036</title>
<path fill="none" stroke="black" d="M972.276,-505.811C961.358,-494.231 946.371,-478.336 935.348,-466.644"/>
</g>
<!-- 12034&#45;&#45;12038 -->
<g id="edge29" class="edge"><title>12034&#45;&#45;12038</title>
<path fill="none" stroke="black" d="M989.131,-503.871C993.167,-476.578 1001.01,-423.52 1005.06,-396.189"/>
</g>
<!-- 12034&#45;&#45;12040 -->
<g id="edge30" class="edge"><title>12034&#45;&#45;12040</title>
<path fill="none" stroke="black" d="M958.006,-513.24C934.124,-505.415 900.687,-491.132 879.597,-468 840.852,-425.502 825.35,-356.189 820.02,-324.188"/>
</g>
<!-- 12034&#45;&#45;12042 -->
<g id="edge31" class="edge"><title>12034&#45;&#45;12042</title>
<path fill="none" stroke="black" d="M1000.57,-505.444C1024.62,-476.697 1069.34,-413.317 1048.6,-360 1040.73,-339.771 1029.16,-340.943 1015.6,-324 996.059,-299.599 975.79,-269.421 963.954,-251.218"/>
</g>
<!-- 12034&#45;&#45;12044 -->
<g id="edge32" class="edge"><title>12034&#45;&#45;12044</title>
<path fill="none" stroke="black" d="M1012.88,-511.331C1057.57,-492.991 1143.6,-448.645 1143.6,-379 1143.6,-379 1143.6,-379 1143.6,-305 1143.6,-248.658 1089.81,-199.591 1059.97,-176.708"/>
</g>
<!-- 12034&#45;&#45;12046 -->
<g id="edge33" class="edge"><title>12034&#45;&#45;12046</title>
<path fill="none" stroke="black" d="M956.905,-514.323C927.895,-506.716 883.558,-492.11 851.597,-468 791.719,-422.83 779.591,-397.28 763.597,-324 746.412,-245.258 744.211,-213.158 785.597,-144 794.771,-128.67 809.438,-114.67 821.173,-104.914"/>
</g>
<!-- 12034&#45;&#45;12048 -->
<g id="edge34" class="edge"><title>12034&#45;&#45;12048</title>
<path fill="none" stroke="black" d="M954.19,-519.38C856.829,-512.61 573.597,-478.201 573.597,-307 573.597,-307 573.597,-307 573.597,-161 573.597,-35.1185 781.733,-19.8335 863.849,-18.7016"/>
</g>
<!-- 12036&#45;&#45;12038 -->
<g id="edge35" class="edge"><title>12036&#45;&#45;12038</title>
<path fill="none" stroke="black" d="M938.203,-434.834C953.297,-422.69 974.931,-405.283 990.018,-393.144"/>
</g>
<!-- 12036&#45;&#45;12040 -->
<g id="edge36" class="edge"><title>12036&#45;&#45;12040</title>
<path fill="none" stroke="black" d="M908.982,-432.987C889.2,-405.715 849.189,-350.553 829.328,-323.173"/>
</g>
<!-- 12036&#45;&#45;12042 -->
<g id="edge37" class="edge"><title>12036&#45;&#45;12042</title>
<path fill="none" stroke="black" d="M923.021,-431.928C925.581,-414.004 929.771,-385.006 933.597,-360 939.515,-321.33 946.873,-276.003 950.807,-251.972"/>
</g>
<!-- 12036&#45;&#45;12044 -->
<g id="edge38" class="edge"><title>12036&#45;&#45;12044</title>
<path fill="none" stroke="black" d="M927.568,-432.387C948.777,-381.839 1012.37,-230.268 1033.61,-179.659"/>
</g>
<!-- 12036&#45;&#45;12046 -->
<g id="edge39" class="edge"><title>12036&#45;&#45;12046</title>
<path fill="none" stroke="black" d="M897.187,-437.407C862.903,-418.913 800.519,-379.119 776.597,-324 742.814,-246.159 801.897,-145.676 828.067,-107.076"/>
</g>
<!-- 12036&#45;&#45;12048 -->
<g id="edge40" class="edge"><title>12036&#45;&#45;12048</title>
<path fill="none" stroke="black" d="M890.59,-442.725C863.078,-435.594 822.754,-421.489 796.597,-396 771.387,-371.433 771.103,-358.391 763.597,-324 747.05,-248.18 704.926,-180.181 780.597,-72 800.269,-43.8779 838.644,-30.3805 865.863,-24.1076"/>
</g>
<!-- 12038&#45;&#45;12040 -->
<g id="edge41" class="edge"><title>12038&#45;&#45;12040</title>
<path fill="none" stroke="black" d="M981.317,-367.339C952.447,-356.724 904.712,-339.164 863.597,-324 857.207,-321.643 850.318,-319.099 843.867,-316.715"/>
</g>
<!-- 12038&#45;&#45;12042 -->
<g id="edge42" class="edge"><title>12038&#45;&#45;12042</title>
<path fill="none" stroke="black" d="M997.028,-360.83C990.704,-350.6 982.894,-336.913 977.597,-324 967.699,-299.866 960.675,-270.383 956.879,-252.148"/>
</g>
<!-- 12038&#45;&#45;12044 -->
<g id="edge43" class="edge"><title>12038&#45;&#45;12044</title>
<path fill="none" stroke="black" d="M1032.82,-366.521C1050,-357.884 1071.41,-343.818 1081.6,-324 1103.53,-281.306 1097.12,-261.422 1081.6,-216 1076.63,-201.469 1065.89,-187.832 1056.64,-178.03"/>
</g>
<!-- 12038&#45;&#45;12046 -->
<g id="edge44" class="edge"><title>12038&#45;&#45;12046</title>
<path fill="none" stroke="black" d="M993.415,-361.635C984.057,-351.266 971.707,-337.129 961.597,-324 937.982,-293.331 931.548,-285.751 912.597,-252 884.199,-201.423 857.943,-137.771 846.145,-107.918"/>
</g>
<!-- 12038&#45;&#45;12048 -->
<g id="edge45" class="edge"><title>12038&#45;&#45;12048</title>
<path fill="none" stroke="black" d="M1037.97,-371.369C1096.59,-358.558 1219.6,-321.383 1219.6,-235 1219.6,-235 1219.6,-235 1219.6,-161 1219.6,-35.1185 1011.46,-19.8335 929.346,-18.7016"/>
</g>
<!-- 12040&#45;&#45;12042 -->
<g id="edge46" class="edge"><title>12040&#45;&#45;12042</title>
<path fill="none" stroke="black" d="M840.668,-293.125C865.677,-280.253 905.361,-259.828 930.414,-246.933"/>
</g>
<!-- 12040&#45;&#45;12044 -->
<g id="edge47" class="edge"><title>12040&#45;&#45;12044</title>
<path fill="none" stroke="black" d="M831.018,-289.345C848.273,-270 879.927,-237.065 912.597,-216 944.536,-195.407 985.808,-180.045 1012.73,-171.301"/>
</g>
<!-- 12040&#45;&#45;12046 -->
<g id="edge48" class="edge"><title>12040&#45;&#45;12046</title>
<path fill="none" stroke="black" d="M819.361,-287.849C823.48,-247.78 833.698,-148.383 837.826,-108.232"/>
</g>
<!-- 12040&#45;&#45;12048 -->
<g id="edge49" class="edge"><title>12040&#45;&#45;12048</title>
<path fill="none" stroke="black" d="M810.067,-288.275C793.078,-247.814 756.414,-142.771 798.597,-72 813.354,-47.2436 844.131,-33.3509 867.282,-26.0624"/>
</g>
<!-- 12042&#45;&#45;12044 -->
<g id="edge50" class="edge"><title>12042&#45;&#45;12044</title>
<path fill="none" stroke="black" d="M971.203,-218.834C986.297,-206.69 1007.93,-189.283 1023.02,-177.144"/>
</g>
<!-- 12042&#45;&#45;12046 -->
<g id="edge51" class="edge"><title>12042&#45;&#45;12046</title>
<path fill="none" stroke="black" d="M943.394,-216.657C931.694,-198.343 911.547,-168.066 891.597,-144 880.409,-130.503 866.432,-116.389 855.788,-106.122"/>
</g>
<!-- 12042&#45;&#45;12048 -->
<g id="edge52" class="edge"><title>12042&#45;&#45;12048</title>
<path fill="none" stroke="black" d="M949.029,-215.849C938.33,-175.68 911.75,-75.8902 901.108,-35.9354"/>
</g>
<!-- 12044&#45;&#45;12046 -->
<g id="edge53" class="edge"><title>12044&#45;&#45;12046</title>
<path fill="none" stroke="black" d="M1013.91,-151.705C975.462,-138.316 904.904,-113.744 866.399,-100.334"/>
</g>
<!-- 12044&#45;&#45;12048 -->
<g id="edge54" class="edge"><title>12044&#45;&#45;12048</title>
<path fill="none" stroke="black" d="M1029.26,-144.901C1015.73,-126.273 991.874,-95.1912 967.597,-72 951.804,-56.9121 931.686,-42.2554 916.901,-32.1937"/>
</g>
<!-- 12046&#45;&#45;12048 -->
<g id="edge55" class="edge"><title>12046&#45;&#45;12048</title>
<path fill="none" stroke="black" d="M852.532,-73.1159C861.86,-61.66 874.398,-46.2627 883.714,-34.8212"/>
</g>
</g>
</svg>
