<svg width="4094px" height="731px"
 viewBox="0.00 0.00 3070.19 548.00" xmlns="http://www.w3.org/2000/svg" xmlns:xlink="http://www.w3.org/1999/xlink">
<g id="graph0" class="graph" transform="scale(1.000022500562514 1.000022500562514) rotate(0) translate(4 544)">
<title>G</title>
<polygon fill="white" stroke="none" points="-4,4 -4,-544 3066.19,-544 3066.19,4 -4,4"/>
<!-- 217 -->
<g id="node1" class="node"><title>217</title>
<ellipse fill="none" stroke="black" cx="60.5975" cy="-378" rx="27" ry="18"/>
<text text-anchor="middle" x="60.5975" y="-374.3" font-family="Times New Roman,serif" font-size="14.00">217</text>
</g>
<!-- 218 -->
<g id="node2" class="node"><title>218</title>
<ellipse fill="none" stroke="black" cx="87.5975" cy="-306" rx="27" ry="18"/>
<text text-anchor="middle" x="87.5975" y="-302.3" font-family="Times New Roman,serif" font-size="14.00">218</text>
</g>
<!-- 217&#45;&#45;218 -->
<g id="edge1" class="edge"><title>217&#45;&#45;218</title>
<path fill="none" stroke="black" d="M66.9961,-360.411C71.2377,-349.414 76.7869,-335.027 81.0572,-323.956"/>
</g>
<!-- 220 -->
<g id="node3" class="node"><title>220</title>
<ellipse fill="none" stroke="black" cx="59.5975" cy="-234" rx="27" ry="18"/>
<text text-anchor="middle" x="59.5975" y="-230.3" font-family="Times New Roman,serif" font-size="14.00">220</text>
</g>
<!-- 217&#45;&#45;220 -->
<g id="edge2" class="edge"><title>217&#45;&#45;220</title>
<path fill="none" stroke="black" d="M56.9436,-359.908C54.9216,-349.569 52.6167,-336.09 51.5975,-324 50.2534,-308.057 50.4001,-303.955 51.5975,-288 52.5028,-275.937 54.5516,-262.458 56.3491,-252.112"/>
</g>
<!-- 218&#45;&#45;220 -->
<g id="edge3" class="edge"><title>218&#45;&#45;220</title>
<path fill="none" stroke="black" d="M80.9619,-288.411C76.4984,-277.252 70.6389,-262.604 66.1854,-251.47"/>
</g>
<!-- 617 -->
<g id="node4" class="node"><title>617</title>
<ellipse fill="none" stroke="black" cx="650.597" cy="-522" rx="27" ry="18"/>
<text text-anchor="middle" x="650.597" y="-518.3" font-family="Times New Roman,serif" font-size="14.00">617</text>
</g>
<!-- 618 -->
<g id="node5" class="node"><title>618</title>
<ellipse fill="none" stroke="black" cx="623.597" cy="-450" rx="27" ry="18"/>
<text text-anchor="middle" x="623.597" y="-446.3" font-family="Times New Roman,serif" font-size="14.00">618</text>
</g>
<!-- 617&#45;&#45;618 -->
<g id="edge4" class="edge"><title>617&#45;&#45;618</title>
<path fill="none" stroke="black" d="M644.199,-504.411C639.957,-493.414 634.408,-479.027 630.138,-467.956"/>
</g>
<!-- 620 -->
<g id="node6" class="node"><title>620</title>
<ellipse fill="none" stroke="black" cx="670.597" cy="-378" rx="27" ry="18"/>
<text text-anchor="middle" x="670.597" y="-374.3" font-family="Times New Roman,serif" font-size="14.00">620</text>
</g>
<!-- 617&#45;&#45;620 -->
<g id="edge5" class="edge"><title>617&#45;&#45;620</title>
<path fill="none" stroke="black" d="M653.713,-503.845C655.544,-493.484 657.837,-480.005 659.597,-468 663.257,-443.045 666.69,-414.034 668.717,-396.093"/>
</g>
<!-- 618&#45;&#45;620 -->
<g id="edge6" class="edge"><title>618&#45;&#45;620</title>
<path fill="none" stroke="black" d="M634.262,-433.116C641.954,-421.66 652.293,-406.263 659.975,-394.821"/>
</g>
<!-- 1111 -->
<g id="node7" class="node"><title>1111</title>
<ellipse fill="none" stroke="black" cx="28.5975" cy="-522" rx="28.6953" ry="18"/>
<text text-anchor="middle" x="28.5975" y="-518.3" font-family="Times New Roman,serif" font-size="14.00">1111</text>
</g>
<!-- 1111&#45;&#45;217 -->
<g id="edge8" class="edge"><title>1111&#45;&#45;217</title>
<path fill="none" stroke="black" d="M32.3939,-504.153C38.5526,-476.824 50.6504,-423.14 56.8059,-395.825"/>
</g>
<!-- 1111&#45;&#45;218 -->
<g id="edge9" class="edge"><title>1111&#45;&#45;218</title>
<path fill="none" stroke="black" d="M23.4662,-504.018C15.2402,-473.519 2.17691,-408.161 24.5975,-360 33.284,-341.341 52.1318,-326.904 66.9609,-317.843"/>
</g>
<!-- 1111&#45;&#45;220 -->
<g id="edge10" class="edge"><title>1111&#45;&#45;220</title>
<path fill="none" stroke="black" d="M20.4991,-504.262C16.0133,-494.048 10.8916,-480.578 8.59746,-468 5.55076,-451.297 7.61265,-374.673 10.5975,-360 18.868,-319.342 39.3268,-274.792 51.0261,-251.418"/>
</g>
<!-- 1112 -->
<g id="node8" class="node"><title>1112</title>
<ellipse fill="none" stroke="black" cx="229.597" cy="-450" rx="28.6953" ry="18"/>
<text text-anchor="middle" x="229.597" y="-446.3" font-family="Times New Roman,serif" font-size="14.00">1112</text>
</g>
<!-- 1111&#45;&#45;1112 -->
<g id="edge7" class="edge"><title>1111&#45;&#45;1112</title>
<path fill="none" stroke="black" d="M53.244,-512.417C91.9262,-498.945 166.452,-472.991 205.064,-459.544"/>
</g>
<!-- 1112&#45;&#45;217 -->
<g id="edge11" class="edge"><title>1112&#45;&#45;217</title>
<path fill="none" stroke="black" d="M206.005,-439.235C180.321,-428.604 138.038,-411.099 101.597,-396 95.6177,-393.522 89.1478,-390.84 83.1533,-388.355"/>
</g>
<!-- 1112&#45;&#45;218 -->
<g id="edge12" class="edge"><title>1112&#45;&#45;218</title>
<path fill="none" stroke="black" d="M205.234,-440.031C184.391,-431.366 154.661,-416.531 134.597,-396 114.08,-375.005 100.251,-343.237 93.1672,-323.877"/>
</g>
<!-- 1112&#45;&#45;220 -->
<g id="edge13" class="edge"><title>1112&#45;&#45;220</title>
<path fill="none" stroke="black" d="M229.224,-431.709C228.096,-412.823 224.108,-382.295 210.597,-360 177.879,-306.01 113.293,-264.631 80.2015,-245.935"/>
</g>
<!-- 1432 -->
<g id="node9" class="node"><title>1432</title>
<ellipse fill="none" stroke="black" cx="474.597" cy="-306" rx="28.6953" ry="18"/>
<text text-anchor="middle" x="474.597" y="-302.3" font-family="Times New Roman,serif" font-size="14.00">1432</text>
</g>
<!-- 1112&#45;&#45;1432 -->
<g id="edge14" class="edge"><title>1112&#45;&#45;1432</title>
<path fill="none" stroke="black" d="M235.94,-432.261C244.428,-412.119 261.393,-378.687 286.597,-360 334.95,-324.151 406.632,-312.535 446.046,-308.782"/>
</g>
<!-- 6024 -->
<g id="node10" class="node"><title>6024</title>
<ellipse fill="none" stroke="black" cx="172.597" cy="-378" rx="28.6953" ry="18"/>
<text text-anchor="middle" x="172.597" y="-374.3" font-family="Times New Roman,serif" font-size="14.00">6024</text>
</g>
<!-- 1112&#45;&#45;6024 -->
<g id="edge15" class="edge"><title>1112&#45;&#45;6024</title>
<path fill="none" stroke="black" d="M216.947,-433.465C207.501,-421.865 194.65,-406.082 185.212,-394.492"/>
</g>
<!-- 6026 -->
<g id="node11" class="node"><title>6026</title>
<ellipse fill="none" stroke="black" cx="324.597" cy="-378" rx="28.6953" ry="18"/>
<text text-anchor="middle" x="324.597" y="-374.3" font-family="Times New Roman,serif" font-size="14.00">6026</text>
</g>
<!-- 1112&#45;&#45;6026 -->
<g id="edge16" class="edge"><title>1112&#45;&#45;6026</title>
<path fill="none" stroke="black" d="M247.466,-435.834C264.451,-423.319 289.851,-404.603 306.809,-392.107"/>
</g>
<!-- 6028 -->
<g id="node12" class="node"><title>6028</title>
<ellipse fill="none" stroke="black" cx="399.597" cy="-378" rx="28.6953" ry="18"/>
<text text-anchor="middle" x="399.597" y="-374.3" font-family="Times New Roman,serif" font-size="14.00">6028</text>
</g>
<!-- 1112&#45;&#45;6028 -->
<g id="edge17" class="edge"><title>1112&#45;&#45;6028</title>
<path fill="none" stroke="black" d="M253.777,-439.795C280.547,-429.505 324.902,-412.158 362.597,-396 367.406,-393.939 372.526,-391.649 377.375,-389.435"/>
</g>
<!-- 9678 -->
<g id="node13" class="node"><title>9678</title>
<ellipse fill="none" stroke="black" cx="474.597" cy="-378" rx="28.6953" ry="18"/>
<text text-anchor="middle" x="474.597" y="-374.3" font-family="Times New Roman,serif" font-size="14.00">9678</text>
</g>
<!-- 1112&#45;&#45;9678 -->
<g id="edge18" class="edge"><title>1112&#45;&#45;9678</title>
<path fill="none" stroke="black" d="M256.655,-443.744C296.791,-435.583 374.187,-418.437 437.597,-396 442.529,-394.255 447.701,-392.098 452.563,-389.914"/>
</g>
<!-- 9678&#45;&#45;1432 -->
<g id="edge19" class="edge"><title>9678&#45;&#45;1432</title>
<path fill="none" stroke="black" d="M474.597,-359.697C474.597,-348.846 474.597,-334.917 474.597,-324.104"/>
</g>
<!-- 1429 -->
<g id="node14" class="node"><title>1429</title>
<ellipse fill="none" stroke="black" cx="549.597" cy="-450" rx="28.6953" ry="18"/>
<text text-anchor="middle" x="549.597" y="-446.3" font-family="Times New Roman,serif" font-size="14.00">1429</text>
</g>
<!-- 1430 -->
<g id="node15" class="node"><title>1430</title>
<ellipse fill="none" stroke="black" cx="549.597" cy="-378" rx="28.6953" ry="18"/>
<text text-anchor="middle" x="549.597" y="-374.3" font-family="Times New Roman,serif" font-size="14.00">1430</text>
</g>
<!-- 1429&#45;&#45;1430 -->
<g id="edge20" class="edge"><title>1429&#45;&#45;1430</title>
<path fill="none" stroke="black" d="M549.597,-431.697C549.597,-420.846 549.597,-406.917 549.597,-396.104"/>
</g>
<!-- 1430&#45;&#45;1432 -->
<g id="edge21" class="edge"><title>1430&#45;&#45;1432</title>
<path fill="none" stroke="black" d="M534.057,-362.496C521.1,-350.402 502.741,-333.267 489.861,-321.246"/>
</g>
<!-- 2359 -->
<g id="node16" class="node"><title>2359</title>
<polygon fill="#808674" stroke="#808674" points="976.597,-540 922.597,-540 922.597,-504 976.597,-504 976.597,-540"/>
<text text-anchor="middle" x="949.597" y="-518.3" font-family="Times New Roman,serif" font-size="14.00">2359</text>
</g>
<!-- 2360 -->
<g id="node17" class="node"><title>2360</title>
<ellipse fill="none" stroke="black" cx="1006.6" cy="-450" rx="28.6953" ry="18"/>
<text text-anchor="middle" x="1006.6" y="-446.3" font-family="Times New Roman,serif" font-size="14.00">2360</text>
</g>
<!-- 2359&#45;&#45;2360 -->
<g id="edge22" class="edge"><title>2359&#45;&#45;2360</title>
<path fill="none" stroke="black" d="M963.687,-503.697C972.918,-492.36 984.886,-477.663 993.837,-466.671"/>
</g>
<!-- 2362 -->
<g id="node18" class="node"><title>2362</title>
<ellipse fill="#7c4934" stroke="#7c4934" cx="1082.6" cy="-378" rx="28.6953" ry="18"/>
<text text-anchor="middle" x="1082.6" y="-374.3" font-family="Times New Roman,serif" font-size="14.00">2362</text>
</g>
<!-- 2359&#45;&#45;2362 -->
<g id="edge23" class="edge"><title>2359&#45;&#45;2362</title>
<path fill="none" stroke="black" d="M976.928,-511.406C997.848,-502.853 1026.15,-488.497 1044.6,-468 1063.48,-447.018 1073.94,-415.246 1078.91,-395.882"/>
</g>
<!-- 2364 -->
<g id="node19" class="node"><title>2364</title>
<polygon fill="#7c4934" stroke="#7c4934" points="921.597,-324 867.597,-324 867.597,-288 921.597,-288 921.597,-324"/>
<text text-anchor="middle" x="894.597" y="-302.3" font-family="Times New Roman,serif" font-size="14.00">2364</text>
</g>
<!-- 2359&#45;&#45;2364 -->
<g id="edge24" class="edge"><title>2359&#45;&#45;2364</title>
<path fill="none" stroke="black" d="M945.019,-503.824C942.266,-493.456 938.704,-479.976 935.597,-468 922.054,-415.791 906.42,-353.949 898.976,-324.405"/>
</g>
<!-- 2366 -->
<g id="node20" class="node"><title>2366</title>
<polygon fill="#3c7686" stroke="#3c7686" points="997.597,-252 943.597,-252 943.597,-216 997.597,-216 997.597,-252"/>
<text text-anchor="middle" x="970.597" y="-230.3" font-family="Times New Roman,serif" font-size="14.00">2366</text>
</g>
<!-- 2359&#45;&#45;2366 -->
<g id="edge25" class="edge"><title>2359&#45;&#45;2366</title>
<path fill="none" stroke="black" d="M950.848,-503.966C954.574,-453.218 965.575,-303.407 969.327,-252.306"/>
</g>
<!-- 2368 -->
<g id="node21" class="node"><title>2368</title>
<ellipse fill="#808674" stroke="#808674" cx="1025.6" cy="-162" rx="28.6953" ry="18"/>
<text text-anchor="middle" x="1025.6" y="-158.3" font-family="Times New Roman,serif" font-size="14.00">2368</text>
</g>
<!-- 2359&#45;&#45;2368 -->
<g id="edge26" class="edge"><title>2359&#45;&#45;2368</title>
<path fill="none" stroke="black" d="M976.641,-513.657C1002.55,-505.623 1041.74,-490.772 1069.6,-468 1099.96,-443.184 1108.7,-433.367 1120.6,-396 1147.49,-311.498 1072,-214.5 1039.59,-177.96"/>
</g>
<!-- 2370 -->
<g id="node22" class="node"><title>2370</title>
<ellipse fill="#7c4934" stroke="#7c4934" cx="911.597" cy="-90" rx="28.6953" ry="18"/>
<text text-anchor="middle" x="911.597" y="-86.3" font-family="Times New Roman,serif" font-size="14.00">2370</text>
</g>
<!-- 2359&#45;&#45;2370 -->
<g id="edge27" class="edge"><title>2359&#45;&#45;2370</title>
<path fill="none" stroke="black" d="M922.551,-514.033C870.965,-498.935 763.597,-458.019 763.597,-379 763.597,-379 763.597,-379 763.597,-233 763.597,-164.81 846.414,-119.179 888.146,-100.514"/>
</g>
<!-- 2372 -->
<g id="node23" class="node"><title>2372</title>
<ellipse fill="#3c7686" stroke="#3c7686" cx="968.597" cy="-18" rx="28.6953" ry="18"/>
<text text-anchor="middle" x="968.597" y="-14.3" font-family="Times New Roman,serif" font-size="14.00">2372</text>
</g>
<!-- 2359&#45;&#45;2372 -->
<g id="edge28" class="edge"><title>2359&#45;&#45;2372</title>
<path fill="none" stroke="black" d="M922.417,-518.49C886.369,-513.932 822.332,-501.429 779.597,-468 743.156,-439.493 725.597,-425.267 725.597,-379 725.597,-379 725.597,-379 725.597,-161 725.597,-62.2977 876.894,-30.948 940.722,-22.114"/>
</g>
<!-- 2360&#45;&#45;2362 -->
<g id="edge29" class="edge"><title>2360&#45;&#45;2362</title>
<path fill="none" stroke="black" d="M1022.34,-434.496C1035.48,-422.402 1054.08,-405.267 1067.13,-393.246"/>
</g>
<!-- 2360&#45;&#45;2364 -->
<g id="edge30" class="edge"><title>2360&#45;&#45;2364</title>
<path fill="none" stroke="black" d="M994.398,-433.533C973.308,-406.793 930.18,-352.114 908.172,-324.21"/>
</g>
<!-- 2360&#45;&#45;2366 -->
<g id="edge31" class="edge"><title>2360&#45;&#45;2366</title>
<path fill="none" stroke="black" d="M1003.71,-431.849C996.972,-391.78 980.251,-292.383 973.496,-252.232"/>
</g>
<!-- 2360&#45;&#45;2368 -->
<g id="edge32" class="edge"><title>2360&#45;&#45;2368</title>
<path fill="none" stroke="black" d="M1007.73,-431.966C1011.1,-381.218 1021.05,-231.407 1024.45,-180.306"/>
</g>
<!-- 2360&#45;&#45;2370 -->
<g id="edge33" class="edge"><title>2360&#45;&#45;2370</title>
<path fill="none" stroke="black" d="M981.596,-440.909C935.008,-424.085 839.597,-380.641 839.597,-307 839.597,-307 839.597,-307 839.597,-233 839.597,-181.865 877.198,-130.479 898.055,-105.909"/>
</g>
<!-- 2360&#45;&#45;2372 -->
<g id="edge34" class="edge"><title>2360&#45;&#45;2372</title>
<path fill="none" stroke="black" d="M1034.93,-446.048C1099.81,-437.564 1253.6,-406.916 1253.6,-307 1253.6,-307 1253.6,-307 1253.6,-161 1253.6,-47.2601 1069.5,-24.6231 997.229,-20.1187"/>
</g>
<!-- 2362&#45;&#45;2364 -->
<g id="edge35" class="edge"><title>2362&#45;&#45;2364</title>
<path fill="none" stroke="black" d="M1058.4,-367.992C1023.3,-354.92 958.43,-330.768 921.738,-317.106"/>
</g>
<!-- 2362&#45;&#45;2366 -->
<g id="edge36" class="edge"><title>2362&#45;&#45;2366</title>
<path fill="none" stroke="black" d="M1070.4,-361.533C1049.31,-334.793 1006.18,-280.114 984.172,-252.21"/>
</g>
<!-- 2362&#45;&#45;2368 -->
<g id="edge37" class="edge"><title>2362&#45;&#45;2368</title>
<path fill="none" stroke="black" d="M1078.12,-360.208C1067.5,-320.302 1040.82,-220.134 1030.13,-180.01"/>
</g>
<!-- 2362&#45;&#45;2370 -->
<g id="edge38" class="edge"><title>2362&#45;&#45;2370</title>
<path fill="none" stroke="black" d="M1086.9,-360.122C1096.45,-318.403 1114.76,-209.096 1063.6,-144 1033.81,-106.097 975.15,-95.2097 940.054,-92.14"/>
</g>
<!-- 2362&#45;&#45;2372 -->
<g id="edge39" class="edge"><title>2362&#45;&#45;2372</title>
<path fill="none" stroke="black" d="M1104.56,-366.349C1142.34,-346.311 1215.6,-299.177 1215.6,-235 1215.6,-235 1215.6,-235 1215.6,-161 1215.6,-61.0841 1061.81,-30.436 996.932,-21.952"/>
</g>
<!-- 2364&#45;&#45;2366 -->
<g id="edge40" class="edge"><title>2364&#45;&#45;2366</title>
<path fill="none" stroke="black" d="M913.384,-287.697C925.164,-276.846 940.288,-262.917 952.027,-252.104"/>
</g>
<!-- 2364&#45;&#45;2368 -->
<g id="edge41" class="edge"><title>2364&#45;&#45;2368</title>
<path fill="none" stroke="black" d="M898.877,-287.833C904.415,-268.494 915.671,-237.026 934.597,-216 953.067,-195.481 981.409,-180.729 1001.55,-172.079"/>
</g>
<!-- 2364&#45;&#45;2370 -->
<g id="edge42" class="edge"><title>2364&#45;&#45;2370</title>
<path fill="none" stroke="black" d="M895.96,-287.849C899.143,-247.78 907.039,-148.383 910.229,-108.232"/>
</g>
<!-- 2364&#45;&#45;2372 -->
<g id="edge43" class="edge"><title>2364&#45;&#45;2372</title>
<path fill="none" stroke="black" d="M886.643,-287.716C869.146,-246.917 832.054,-142.748 873.597,-72 888.325,-46.9196 919.712,-32.8346 942.385,-25.5921"/>
</g>
<!-- 2366&#45;&#45;2368 -->
<g id="edge44" class="edge"><title>2366&#45;&#45;2368</title>
<path fill="none" stroke="black" d="M984.193,-215.697C993.1,-204.36 1004.65,-189.663 1013.28,-178.671"/>
</g>
<!-- 2366&#45;&#45;2370 -->
<g id="edge45" class="edge"><title>2366&#45;&#45;2370</title>
<path fill="none" stroke="black" d="M963.481,-215.871C952.079,-188.431 929.857,-134.946 918.556,-107.748"/>
</g>
<!-- 2366&#45;&#45;2372 -->
<g id="edge46" class="edge"><title>2366&#45;&#45;2372</title>
<path fill="none" stroke="black" d="M970.437,-215.849C970.063,-175.78 969.134,-76.3826 968.759,-36.2325"/>
</g>
<!-- 2368&#45;&#45;2370 -->
<g id="edge47" class="edge"><title>2368&#45;&#45;2370</title>
<path fill="none" stroke="black" d="M1005.74,-148.807C984.944,-136.037 952.464,-116.093 931.61,-103.288"/>
</g>
<!-- 2368&#45;&#45;2372 -->
<g id="edge48" class="edge"><title>2368&#45;&#45;2372</title>
<path fill="none" stroke="black" d="M1018.95,-144.433C1008.02,-117.217 986.394,-63.3342 975.382,-35.9017"/>
</g>
<!-- 2370&#45;&#45;2372 -->
<g id="edge49" class="edge"><title>2370&#45;&#45;2372</title>
<path fill="none" stroke="black" d="M924.248,-73.4647C933.693,-61.8645 946.545,-46.0816 955.983,-34.4918"/>
</g>
<!-- 3315 -->
<g id="node24" class="node"><title>3315</title>
<ellipse fill="none" stroke="black" cx="1414.6" cy="-522" rx="28.6953" ry="18"/>
<text text-anchor="middle" x="1414.6" y="-518.3" font-family="Times New Roman,serif" font-size="14.00">3315</text>
</g>
<!-- 3316 -->
<g id="node25" class="node"><title>3316</title>
<ellipse fill="none" stroke="black" cx="1414.6" cy="-450" rx="28.6953" ry="18"/>
<text text-anchor="middle" x="1414.6" y="-446.3" font-family="Times New Roman,serif" font-size="14.00">3316</text>
</g>
<!-- 3315&#45;&#45;3316 -->
<g id="edge50" class="edge"><title>3315&#45;&#45;3316</title>
<path fill="none" stroke="black" d="M1414.6,-503.697C1414.6,-492.846 1414.6,-478.917 1414.6,-468.104"/>
</g>
<!-- 3318 -->
<g id="node26" class="node"><title>3318</title>
<ellipse fill="none" stroke="black" cx="1557.6" cy="-378" rx="28.6953" ry="18"/>
<text text-anchor="middle" x="1557.6" y="-374.3" font-family="Times New Roman,serif" font-size="14.00">3318</text>
</g>
<!-- 3315&#45;&#45;3318 -->
<g id="edge51" class="edge"><title>3315&#45;&#45;3318</title>
<path fill="none" stroke="black" d="M1436.16,-509.913C1453.47,-500.336 1477.76,-485.33 1495.6,-468 1518.43,-445.826 1538.13,-414.142 1548.89,-395.167"/>
</g>
<!-- 3320 -->
<g id="node27" class="node"><title>3320</title>
<ellipse fill="none" stroke="black" cx="1462.6" cy="-306" rx="28.6953" ry="18"/>
<text text-anchor="middle" x="1462.6" y="-302.3" font-family="Times New Roman,serif" font-size="14.00">3320</text>
</g>
<!-- 3315&#45;&#45;3320 -->
<g id="edge52" class="edge"><title>3315&#45;&#45;3320</title>
<path fill="none" stroke="black" d="M1428.8,-506.1C1437.34,-496.144 1447.51,-482.293 1452.6,-468 1470.35,-418.136 1467.34,-354.145 1464.55,-324.065"/>
</g>
<!-- 3322 -->
<g id="node28" class="node"><title>3322</title>
<ellipse fill="none" stroke="black" cx="1405.6" cy="-234" rx="28.6953" ry="18"/>
<text text-anchor="middle" x="1405.6" y="-230.3" font-family="Times New Roman,serif" font-size="14.00">3322</text>
</g>
<!-- 3315&#45;&#45;3322 -->
<g id="edge53" class="edge"><title>3315&#45;&#45;3322</title>
<path fill="none" stroke="black" d="M1400.1,-506.203C1391.43,-496.288 1381.24,-482.444 1376.6,-468 1351.46,-389.802 1383.86,-290.352 1398.8,-251.552"/>
</g>
<!-- 3324 -->
<g id="node29" class="node"><title>3324</title>
<ellipse fill="none" stroke="black" cx="1405.6" cy="-162" rx="28.6953" ry="18"/>
<text text-anchor="middle" x="1405.6" y="-158.3" font-family="Times New Roman,serif" font-size="14.00">3324</text>
</g>
<!-- 3315&#45;&#45;3324 -->
<g id="edge54" class="edge"><title>3315&#45;&#45;3324</title>
<path fill="none" stroke="black" d="M1393.73,-509.579C1358.64,-488.665 1291.6,-440.643 1291.6,-379 1291.6,-379 1291.6,-379 1291.6,-305 1291.6,-245.565 1353.08,-196.844 1385.74,-175.154"/>
</g>
<!-- 3316&#45;&#45;3318 -->
<g id="edge55" class="edge"><title>3316&#45;&#45;3318</title>
<path fill="none" stroke="black" d="M1436.63,-438.216C1463.58,-425.023 1508.92,-402.827 1535.78,-389.681"/>
</g>
<!-- 3316&#45;&#45;3320 -->
<g id="edge56" class="edge"><title>3316&#45;&#45;3320</title>
<path fill="none" stroke="black" d="M1420.29,-432.153C1429.53,-404.824 1447.68,-351.14 1456.91,-323.825"/>
</g>
<!-- 3316&#45;&#45;3322 -->
<g id="edge57" class="edge"><title>3316&#45;&#45;3322</title>
<path fill="none" stroke="black" d="M1413.88,-431.849C1412.19,-391.78 1408.01,-292.383 1406.32,-252.232"/>
</g>
<!-- 3316&#45;&#45;3324 -->
<g id="edge58" class="edge"><title>3316&#45;&#45;3324</title>
<path fill="none" stroke="black" d="M1405.8,-432.865C1386.1,-394.55 1342.09,-295.358 1367.6,-216 1372.24,-201.556 1382.43,-187.712 1391.1,-177.797"/>
</g>
<!-- 3318&#45;&#45;3320 -->
<g id="edge59" class="edge"><title>3318&#45;&#45;3320</title>
<path fill="none" stroke="black" d="M1539.73,-363.834C1522.74,-351.319 1497.34,-332.603 1480.39,-320.107"/>
</g>
<!-- 3318&#45;&#45;3322 -->
<g id="edge60" class="edge"><title>3318&#45;&#45;3322</title>
<path fill="none" stroke="black" d="M1550.15,-360.513C1540.79,-341.231 1523.18,-309.251 1500.6,-288 1479.69,-268.327 1450.12,-253.331 1429.54,-244.394"/>
</g>
<!-- 3318&#45;&#45;3324 -->
<g id="edge61" class="edge"><title>3318&#45;&#45;3324</title>
<path fill="none" stroke="black" d="M1554.56,-360.033C1550.73,-341.43 1542.96,-311.149 1529.6,-288 1501.79,-239.814 1450.85,-196.963 1423.72,-176.217"/>
</g>
<!-- 6012 -->
<g id="node30" class="node"><title>6012</title>
<ellipse fill="none" stroke="black" cx="1614.6" cy="-306" rx="28.6953" ry="18"/>
<text text-anchor="middle" x="1614.6" y="-302.3" font-family="Times New Roman,serif" font-size="14.00">6012</text>
</g>
<!-- 3318&#45;&#45;6012 -->
<g id="edge62" class="edge"><title>3318&#45;&#45;6012</title>
<path fill="none" stroke="black" d="M1570.25,-361.465C1579.69,-349.865 1592.55,-334.082 1601.98,-322.492"/>
</g>
<!-- 9244 -->
<g id="node31" class="node"><title>9244</title>
<ellipse fill="none" stroke="black" cx="1689.6" cy="-306" rx="28.6953" ry="18"/>
<text text-anchor="middle" x="1689.6" y="-302.3" font-family="Times New Roman,serif" font-size="14.00">9244</text>
</g>
<!-- 3318&#45;&#45;9244 -->
<g id="edge63" class="edge"><title>3318&#45;&#45;9244</title>
<path fill="none" stroke="black" d="M1578.81,-365.753C1603.44,-352.691 1643.83,-331.27 1668.44,-318.219"/>
</g>
<!-- 3320&#45;&#45;3322 -->
<g id="edge64" class="edge"><title>3320&#45;&#45;3322</title>
<path fill="none" stroke="black" d="M1449.95,-289.465C1440.5,-277.865 1427.65,-262.082 1418.21,-250.492"/>
</g>
<!-- 3320&#45;&#45;3324 -->
<g id="edge65" class="edge"><title>3320&#45;&#45;3324</title>
<path fill="none" stroke="black" d="M1461.06,-287.961C1458.92,-269.56 1454.07,-239.7 1443.6,-216 1437.46,-202.123 1427.34,-188.253 1419.08,-178.184"/>
</g>
<!-- 3322&#45;&#45;3324 -->
<g id="edge66" class="edge"><title>3322&#45;&#45;3324</title>
<path fill="none" stroke="black" d="M1405.6,-215.697C1405.6,-204.846 1405.6,-190.917 1405.6,-180.104"/>
</g>
<!-- 5077 -->
<g id="node32" class="node"><title>5077</title>
<polygon fill="#5b6666" stroke="#5b6666" points="1929.6,-540 1875.6,-540 1875.6,-504 1929.6,-504 1929.6,-540"/>
<text text-anchor="middle" x="1902.6" y="-518.3" font-family="Times New Roman,serif" font-size="14.00">5077</text>
</g>
<!-- 5078 -->
<g id="node33" class="node"><title>5078</title>
<polygon fill="#755183" stroke="#755183" points="2017.6,-468 1963.6,-468 1963.6,-432 2017.6,-432 2017.6,-468"/>
<text text-anchor="middle" x="1990.6" y="-446.3" font-family="Times New Roman,serif" font-size="14.00">5078</text>
</g>
<!-- 5077&#45;&#45;5078 -->
<g id="edge67" class="edge"><title>5077&#45;&#45;5078</title>
<path fill="none" stroke="black" d="M1924.35,-503.697C1937.99,-492.846 1955.5,-478.917 1969.09,-468.104"/>
</g>
<!-- 5080 -->
<g id="node34" class="node"><title>5080</title>
<polygon fill="#7e6e6f" stroke="#7e6e6f" points="1897.6,-396 1843.6,-396 1843.6,-360 1897.6,-360 1897.6,-396"/>
<text text-anchor="middle" x="1870.6" y="-374.3" font-family="Times New Roman,serif" font-size="14.00">5080</text>
</g>
<!-- 5077&#45;&#45;5080 -->
<g id="edge68" class="edge"><title>5077&#45;&#45;5080</title>
<path fill="none" stroke="black" d="M1898.74,-503.871C1892.59,-476.578 1880.63,-423.52 1874.47,-396.189"/>
</g>
<!-- 5082 -->
<g id="node35" class="node"><title>5082</title>
<polygon fill="#7f378e" stroke="#7f378e" points="1946.6,-324 1892.6,-324 1892.6,-288 1946.6,-288 1946.6,-324"/>
<text text-anchor="middle" x="1919.6" y="-302.3" font-family="Times New Roman,serif" font-size="14.00">5082</text>
</g>
<!-- 5077&#45;&#45;5082 -->
<g id="edge69" class="edge"><title>5077&#45;&#45;5082</title>
<path fill="none" stroke="black" d="M1903.96,-503.849C1907.14,-463.78 1915.04,-364.383 1918.23,-324.232"/>
</g>
<!-- 5084 -->
<g id="node36" class="node"><title>5084</title>
<polygon fill="#6b6f6b" stroke="#6b6f6b" points="2056.6,-252 2002.6,-252 2002.6,-216 2056.6,-216 2056.6,-252"/>
<text text-anchor="middle" x="2029.6" y="-230.3" font-family="Times New Roman,serif" font-size="14.00">5084</text>
</g>
<!-- 5077&#45;&#45;5084 -->
<g id="edge70" class="edge"><title>5077&#45;&#45;5084</title>
<path fill="none" stroke="black" d="M1929.69,-517.396C1958.64,-512.009 2003.46,-498.934 2026.6,-468 2075.91,-402.075 2048.72,-293.728 2035.49,-252.061"/>
</g>
<!-- 5086 -->
<g id="node37" class="node"><title>5086</title>
<polygon fill="#74783d" stroke="#74783d" points="1908.6,-180 1854.6,-180 1854.6,-144 1908.6,-144 1908.6,-180"/>
<text text-anchor="middle" x="1881.6" y="-158.3" font-family="Times New Roman,serif" font-size="14.00">5086</text>
</g>
<!-- 5077&#45;&#45;5086 -->
<g id="edge71" class="edge"><title>5077&#45;&#45;5086</title>
<path fill="none" stroke="black" d="M1889.68,-503.961C1873.12,-480.927 1845.26,-437.899 1834.6,-396 1814.25,-316.015 1854.38,-218.795 1872.91,-180.088"/>
</g>
<!-- 5088 -->
<g id="node38" class="node"><title>5088</title>
<polygon fill="#61697d" stroke="#61697d" points="1935.6,-108 1881.6,-108 1881.6,-72 1935.6,-72 1935.6,-108"/>
<text text-anchor="middle" x="1908.6" y="-86.3" font-family="Times New Roman,serif" font-size="14.00">5088</text>
</g>
<!-- 5077&#45;&#45;5088 -->
<g id="edge72" class="edge"><title>5077&#45;&#45;5088</title>
<path fill="none" stroke="black" d="M1875.42,-510.839C1830.73,-492.159 1746.6,-447.852 1746.6,-379 1746.6,-379 1746.6,-379 1746.6,-233 1746.6,-162.127 1835.36,-118.371 1881.48,-100.42"/>
</g>
<!-- 5078&#45;&#45;5080 -->
<g id="edge73" class="edge"><title>5078&#45;&#45;5080</title>
<path fill="none" stroke="black" d="M1963.37,-433.116C1943.73,-421.66 1917.33,-406.263 1897.72,-394.821"/>
</g>
<!-- 5078&#45;&#45;5082 -->
<g id="edge74" class="edge"><title>5078&#45;&#45;5082</title>
<path fill="none" stroke="black" d="M1982.03,-431.871C1968.39,-404.578 1941.86,-351.52 1928.19,-324.189"/>
</g>
<!-- 5078&#45;&#45;5084 -->
<g id="edge75" class="edge"><title>5078&#45;&#45;5084</title>
<path fill="none" stroke="black" d="M2000.55,-431.929C2005.95,-421.822 2012.2,-408.572 2015.6,-396 2029.35,-345.077 2030.45,-282.119 2030.07,-252.265"/>
</g>
<!-- 5078&#45;&#45;5086 -->
<g id="edge76" class="edge"><title>5078&#45;&#45;5086</title>
<path fill="none" stroke="black" d="M1988.57,-431.585C1984.69,-401.506 1974.84,-338.217 1955.6,-288 1942.42,-253.613 1933.44,-247.636 1914.6,-216 1907.39,-203.894 1898.99,-190.416 1892.47,-180.081"/>
</g>
<!-- 5078&#45;&#45;5088 -->
<g id="edge77" class="edge"><title>5078&#45;&#45;5088</title>
<path fill="none" stroke="black" d="M2017.79,-436.011C2057.48,-414.939 2126.6,-369.298 2126.6,-307 2126.6,-307 2126.6,-307 2126.6,-233 2126.6,-142.889 1994.21,-106.987 1935.77,-95.5294"/>
</g>
<!-- 5080&#45;&#45;5082 -->
<g id="edge78" class="edge"><title>5080&#45;&#45;5082</title>
<path fill="none" stroke="black" d="M1882.71,-359.697C1890.31,-348.846 1900.06,-334.917 1907.62,-324.104"/>
</g>
<!-- 5080&#45;&#45;5084 -->
<g id="edge79" class="edge"><title>5080&#45;&#45;5084</title>
<path fill="none" stroke="black" d="M1897.76,-363.016C1915.24,-353.329 1937.91,-339.434 1955.6,-324 1980.73,-302.071 2004.39,-271.159 2017.91,-252.135"/>
</g>
<!-- 5080&#45;&#45;5086 -->
<g id="edge80" class="edge"><title>5080&#45;&#45;5086</title>
<path fill="none" stroke="black" d="M1871.48,-359.849C1873.54,-319.78 1878.65,-220.383 1880.71,-180.232"/>
</g>
<!-- 5080&#45;&#45;5088 -->
<g id="edge81" class="edge"><title>5080&#45;&#45;5088</title>
<path fill="none" stroke="black" d="M1862.98,-359.921C1846.35,-319.997 1811,-218.319 1845.6,-144 1853.08,-127.932 1868.09,-114.995 1881.59,-105.926"/>
</g>
<!-- 5082&#45;&#45;5084 -->
<g id="edge82" class="edge"><title>5082&#45;&#45;5084</title>
<path fill="none" stroke="black" d="M1946.51,-287.876C1963.55,-277.029 1985.52,-263.05 2002.58,-252.19"/>
</g>
<!-- 5082&#45;&#45;5086 -->
<g id="edge83" class="edge"><title>5082&#45;&#45;5086</title>
<path fill="none" stroke="black" d="M1915.01,-287.871C1907.71,-260.578 1893.51,-207.52 1886.2,-180.189"/>
</g>
<!-- 5082&#45;&#45;5088 -->
<g id="edge84" class="edge"><title>5082&#45;&#45;5088</title>
<path fill="none" stroke="black" d="M1920.27,-287.562C1921.21,-257.971 1922.31,-196.06 1917.6,-144 1916.5,-131.916 1914.2,-118.438 1912.2,-108.097"/>
</g>
<!-- 5084&#45;&#45;5086 -->
<g id="edge85" class="edge"><title>5084&#45;&#45;5086</title>
<path fill="none" stroke="black" d="M2002.45,-220.161C1975.83,-207.57 1935.47,-188.48 1908.82,-175.876"/>
</g>
<!-- 5084&#45;&#45;5088 -->
<g id="edge86" class="edge"><title>5084&#45;&#45;5088</title>
<path fill="none" stroke="black" d="M2015,-215.871C1991.75,-188.578 1946.53,-135.52 1923.24,-108.189"/>
</g>
<!-- 5086&#45;&#45;5088 -->
<g id="edge87" class="edge"><title>5086&#45;&#45;5088</title>
<path fill="none" stroke="black" d="M1888.27,-143.697C1892.46,-132.846 1897.83,-118.917 1902,-108.104"/>
</g>
<!-- 5319 -->
<g id="node39" class="node"><title>5319</title>
<ellipse fill="none" stroke="black" cx="2178.6" cy="-450" rx="28.6953" ry="18"/>
<text text-anchor="middle" x="2178.6" y="-446.3" font-family="Times New Roman,serif" font-size="14.00">5319</text>
</g>
<!-- 5320 -->
<g id="node40" class="node"><title>5320</title>
<ellipse fill="none" stroke="black" cx="2224.6" cy="-306" rx="28.6953" ry="18"/>
<text text-anchor="middle" x="2224.6" y="-302.3" font-family="Times New Roman,serif" font-size="14.00">5320</text>
</g>
<!-- 5319&#45;&#45;5320 -->
<g id="edge88" class="edge"><title>5319&#45;&#45;5320</title>
<path fill="none" stroke="black" d="M2176.63,-431.991C2175.17,-413.616 2174.72,-383.778 2183.6,-360 2189.05,-345.396 2200.03,-331.559 2209.25,-321.688"/>
</g>
<!-- 10784 -->
<g id="node41" class="node"><title>10784</title>
<ellipse fill="none" stroke="black" cx="2224.6" cy="-378" rx="32.4942" ry="18"/>
<text text-anchor="middle" x="2224.6" y="-374.3" font-family="Times New Roman,serif" font-size="14.00">10784</text>
</g>
<!-- 5319&#45;&#45;10784 -->
<g id="edge89" class="edge"><title>5319&#45;&#45;10784</title>
<path fill="none" stroke="black" d="M2189.04,-433.116C2196.46,-421.821 2206.4,-406.696 2213.88,-395.307"/>
</g>
<!-- 10784&#45;&#45;5320 -->
<g id="edge90" class="edge"><title>10784&#45;&#45;5320</title>
<path fill="none" stroke="black" d="M2224.6,-359.697C2224.6,-348.846 2224.6,-334.917 2224.6,-324.104"/>
</g>
<!-- 6009 -->
<g id="node42" class="node"><title>6009</title>
<ellipse fill="none" stroke="black" cx="1600.6" cy="-450" rx="28.6953" ry="18"/>
<text text-anchor="middle" x="1600.6" y="-446.3" font-family="Times New Roman,serif" font-size="14.00">6009</text>
</g>
<!-- 6009&#45;&#45;3318 -->
<g id="edge91" class="edge"><title>6009&#45;&#45;3318</title>
<path fill="none" stroke="black" d="M1590.62,-432.765C1583.68,-421.456 1574.45,-406.437 1567.52,-395.147"/>
</g>
<!-- 6009&#45;&#45;6012 -->
<g id="edge92" class="edge"><title>6009&#45;&#45;6012</title>
<path fill="none" stroke="black" d="M1602.29,-431.871C1604.98,-404.578 1610.21,-351.52 1612.9,-324.189"/>
</g>
<!-- 6015 -->
<g id="node43" class="node"><title>6015</title>
<ellipse fill="none" stroke="black" cx="2341.6" cy="-522" rx="28.6953" ry="18"/>
<text text-anchor="middle" x="2341.6" y="-518.3" font-family="Times New Roman,serif" font-size="14.00">6015</text>
</g>
<!-- 6016 -->
<g id="node44" class="node"><title>6016</title>
<ellipse fill="none" stroke="black" cx="2341.6" cy="-450" rx="28.6953" ry="18"/>
<text text-anchor="middle" x="2341.6" y="-446.3" font-family="Times New Roman,serif" font-size="14.00">6016</text>
</g>
<!-- 6015&#45;&#45;6016 -->
<g id="edge93" class="edge"><title>6015&#45;&#45;6016</title>
<path fill="none" stroke="black" d="M2341.6,-503.697C2341.6,-492.846 2341.6,-478.917 2341.6,-468.104"/>
</g>
<!-- 7675 -->
<g id="node45" class="node"><title>7675</title>
<ellipse fill="none" stroke="black" cx="2455.6" cy="-522" rx="28.6953" ry="18"/>
<text text-anchor="middle" x="2455.6" y="-518.3" font-family="Times New Roman,serif" font-size="14.00">7675</text>
</g>
<!-- 7676 -->
<g id="node46" class="node"><title>7676</title>
<ellipse fill="none" stroke="black" cx="2455.6" cy="-450" rx="28.6953" ry="18"/>
<text text-anchor="middle" x="2455.6" y="-446.3" font-family="Times New Roman,serif" font-size="14.00">7676</text>
</g>
<!-- 7675&#45;&#45;7676 -->
<g id="edge94" class="edge"><title>7675&#45;&#45;7676</title>
<path fill="none" stroke="black" d="M2455.6,-503.697C2455.6,-492.846 2455.6,-478.917 2455.6,-468.104"/>
</g>
<!-- 7678 -->
<g id="node47" class="node"><title>7678</title>
<ellipse fill="none" stroke="black" cx="2417.6" cy="-378" rx="28.6953" ry="18"/>
<text text-anchor="middle" x="2417.6" y="-374.3" font-family="Times New Roman,serif" font-size="14.00">7678</text>
</g>
<!-- 7675&#45;&#45;7678 -->
<g id="edge95" class="edge"><title>7675&#45;&#45;7678</title>
<path fill="none" stroke="black" d="M2441.1,-506.203C2432.43,-496.288 2422.24,-482.444 2417.6,-468 2409.89,-444.023 2412,-414.497 2414.55,-396.21"/>
</g>
<!-- 7680 -->
<g id="node48" class="node"><title>7680</title>
<ellipse fill="none" stroke="black" cx="2493.6" cy="-306" rx="28.6953" ry="18"/>
<text text-anchor="middle" x="2493.6" y="-302.3" font-family="Times New Roman,serif" font-size="14.00">7680</text>
</g>
<!-- 7675&#45;&#45;7680 -->
<g id="edge96" class="edge"><title>7675&#45;&#45;7680</title>
<path fill="none" stroke="black" d="M2470.1,-506.203C2478.76,-496.288 2488.95,-482.444 2493.6,-468 2509.76,-417.706 2502.06,-353.92 2496.92,-323.977"/>
</g>
<!-- 7676&#45;&#45;7678 -->
<g id="edge97" class="edge"><title>7676&#45;&#45;7678</title>
<path fill="none" stroke="black" d="M2446.78,-432.765C2440.64,-421.456 2432.49,-406.437 2426.36,-395.147"/>
</g>
<!-- 7676&#45;&#45;7680 -->
<g id="edge98" class="edge"><title>7676&#45;&#45;7680</title>
<path fill="none" stroke="black" d="M2460.11,-432.153C2467.42,-404.824 2481.79,-351.14 2489.1,-323.825"/>
</g>
<!-- 7678&#45;&#45;7680 -->
<g id="edge99" class="edge"><title>7678&#45;&#45;7680</title>
<path fill="none" stroke="black" d="M2433.34,-362.496C2446.48,-350.402 2465.08,-333.267 2478.13,-321.246"/>
</g>
<!-- 7795 -->
<g id="node49" class="node"><title>7795</title>
<ellipse fill="none" stroke="black" cx="2569.6" cy="-378" rx="28.6953" ry="18"/>
<text text-anchor="middle" x="2569.6" y="-374.3" font-family="Times New Roman,serif" font-size="14.00">7795</text>
</g>
<!-- 7795&#45;&#45;7680 -->
<g id="edge100" class="edge"><title>7795&#45;&#45;7680</title>
<path fill="none" stroke="black" d="M2553.85,-362.496C2540.72,-350.402 2522.12,-333.267 2509.06,-321.246"/>
</g>
<!-- 8201 -->
<g id="node50" class="node"><title>8201</title>
<ellipse fill="none" stroke="black" cx="2691.6" cy="-522" rx="28.6953" ry="18"/>
<text text-anchor="middle" x="2691.6" y="-518.3" font-family="Times New Roman,serif" font-size="14.00">8201</text>
</g>
<!-- 8202 -->
<g id="node51" class="node"><title>8202</title>
<ellipse fill="none" stroke="black" cx="2691.6" cy="-450" rx="28.6953" ry="18"/>
<text text-anchor="middle" x="2691.6" y="-446.3" font-family="Times New Roman,serif" font-size="14.00">8202</text>
</g>
<!-- 8201&#45;&#45;8202 -->
<g id="edge101" class="edge"><title>8201&#45;&#45;8202</title>
<path fill="none" stroke="black" d="M2691.6,-503.697C2691.6,-492.846 2691.6,-478.917 2691.6,-468.104"/>
</g>
<!-- 8204 -->
<g id="node52" class="node"><title>8204</title>
<ellipse fill="none" stroke="black" cx="2644.6" cy="-378" rx="28.6953" ry="18"/>
<text text-anchor="middle" x="2644.6" y="-374.3" font-family="Times New Roman,serif" font-size="14.00">8204</text>
</g>
<!-- 8201&#45;&#45;8204 -->
<g id="edge102" class="edge"><title>8201&#45;&#45;8204</title>
<path fill="none" stroke="black" d="M2677.59,-506.031C2669.12,-496.048 2658.96,-482.191 2653.6,-468 2644.65,-444.321 2643.45,-414.714 2643.75,-396.328"/>
</g>
<!-- 8206 -->
<g id="node53" class="node"><title>8206</title>
<ellipse fill="none" stroke="black" cx="2701.6" cy="-306" rx="28.6953" ry="18"/>
<text text-anchor="middle" x="2701.6" y="-302.3" font-family="Times New Roman,serif" font-size="14.00">8206</text>
</g>
<!-- 8201&#45;&#45;8206 -->
<g id="edge103" class="edge"><title>8201&#45;&#45;8206</title>
<path fill="none" stroke="black" d="M2706.1,-506.203C2714.76,-496.288 2724.95,-482.444 2729.6,-468 2746.09,-416.681 2722.68,-352.853 2709.51,-323.353"/>
</g>
<!-- 8202&#45;&#45;8204 -->
<g id="edge104" class="edge"><title>8202&#45;&#45;8204</title>
<path fill="none" stroke="black" d="M2680.93,-433.116C2673.24,-421.66 2662.9,-406.263 2655.22,-394.821"/>
</g>
<!-- 8202&#45;&#45;8206 -->
<g id="edge105" class="edge"><title>8202&#45;&#45;8206</title>
<path fill="none" stroke="black" d="M2692.8,-431.871C2694.73,-404.578 2698.46,-351.52 2700.39,-324.189"/>
</g>
<!-- 8204&#45;&#45;8206 -->
<g id="edge106" class="edge"><title>8204&#45;&#45;8206</title>
<path fill="none" stroke="black" d="M2657.25,-361.465C2666.69,-349.865 2679.55,-334.082 2688.98,-322.492"/>
</g>
<!-- 9241 -->
<g id="node54" class="node"><title>9241</title>
<ellipse fill="none" stroke="black" cx="1684.6" cy="-450" rx="28.6953" ry="18"/>
<text text-anchor="middle" x="1684.6" y="-446.3" font-family="Times New Roman,serif" font-size="14.00">9241</text>
</g>
<!-- 9241&#45;&#45;3318 -->
<g id="edge107" class="edge"><title>9241&#45;&#45;3318</title>
<path fill="none" stroke="black" d="M1663.63,-437.441C1640.09,-424.471 1602.14,-403.553 1578.6,-390.576"/>
</g>
<!-- 9241&#45;&#45;9244 -->
<g id="edge108" class="edge"><title>9241&#45;&#45;9244</title>
<path fill="none" stroke="black" d="M1685.2,-431.871C1686.16,-404.578 1688.03,-351.52 1688.99,-324.189"/>
</g>
<!-- 9583 -->
<g id="node55" class="node"><title>9583</title>
<ellipse fill="none" stroke="black" cx="2805.6" cy="-522" rx="28.6953" ry="18"/>
<text text-anchor="middle" x="2805.6" y="-518.3" font-family="Times New Roman,serif" font-size="14.00">9583</text>
</g>
<!-- 9584 -->
<g id="node56" class="node"><title>9584</title>
<ellipse fill="none" stroke="black" cx="2805.6" cy="-450" rx="28.6953" ry="18"/>
<text text-anchor="middle" x="2805.6" y="-446.3" font-family="Times New Roman,serif" font-size="14.00">9584</text>
</g>
<!-- 9583&#45;&#45;9584 -->
<g id="edge109" class="edge"><title>9583&#45;&#45;9584</title>
<path fill="none" stroke="black" d="M2805.6,-503.697C2805.6,-492.846 2805.6,-478.917 2805.6,-468.104"/>
</g>
<!-- 9713 -->
<g id="node57" class="node"><title>9713</title>
<ellipse fill="none" stroke="black" cx="2947.6" cy="-522" rx="28.6953" ry="18"/>
<text text-anchor="middle" x="2947.6" y="-518.3" font-family="Times New Roman,serif" font-size="14.00">9713</text>
</g>
<!-- 9714 -->
<g id="node58" class="node"><title>9714</title>
<ellipse fill="none" stroke="black" cx="2976.6" cy="-450" rx="28.6953" ry="18"/>
<text text-anchor="middle" x="2976.6" y="-446.3" font-family="Times New Roman,serif" font-size="14.00">9714</text>
</g>
<!-- 9713&#45;&#45;9714 -->
<g id="edge110" class="edge"><title>9713&#45;&#45;9714</title>
<path fill="none" stroke="black" d="M2954.47,-504.411C2959.03,-493.414 2964.99,-479.027 2969.57,-467.956"/>
</g>
<!-- 9716 -->
<g id="node59" class="node"><title>9716</title>
<ellipse fill="none" stroke="black" cx="2919.6" cy="-378" rx="28.6953" ry="18"/>
<text text-anchor="middle" x="2919.6" y="-374.3" font-family="Times New Roman,serif" font-size="14.00">9716</text>
</g>
<!-- 9713&#45;&#45;9716 -->
<g id="edge111" class="edge"><title>9713&#45;&#45;9716</title>
<path fill="none" stroke="black" d="M2944.22,-503.871C2938.84,-476.578 2928.38,-423.52 2922.99,-396.189"/>
</g>
<!-- 9718 -->
<g id="node60" class="node"><title>9718</title>
<ellipse fill="none" stroke="black" cx="3033.6" cy="-306" rx="28.6953" ry="18"/>
<text text-anchor="middle" x="3033.6" y="-302.3" font-family="Times New Roman,serif" font-size="14.00">9718</text>
</g>
<!-- 9713&#45;&#45;9718 -->
<g id="edge112" class="edge"><title>9713&#45;&#45;9718</title>
<path fill="none" stroke="black" d="M2969.19,-509.959C2984.56,-500.883 3004.25,-486.515 3014.6,-468 3040.68,-421.316 3038.51,-355.243 3035.66,-324.277"/>
</g>
<!-- 9720 -->
<g id="node61" class="node"><title>9720</title>
<ellipse fill="none" stroke="black" cx="2952.6" cy="-234" rx="28.6953" ry="18"/>
<text text-anchor="middle" x="2952.6" y="-230.3" font-family="Times New Roman,serif" font-size="14.00">9720</text>
</g>
<!-- 9713&#45;&#45;9720 -->
<g id="edge113" class="edge"><title>9713&#45;&#45;9720</title>
<path fill="none" stroke="black" d="M2934.14,-505.922C2910.85,-477.95 2866.86,-415.785 2881.6,-360 2893.01,-316.807 2923.17,-272.904 2940.29,-250.4"/>
</g>
<!-- 9714&#45;&#45;9716 -->
<g id="edge114" class="edge"><title>9714&#45;&#45;9716</title>
<path fill="none" stroke="black" d="M2963.95,-433.465C2954.5,-421.865 2941.65,-406.082 2932.21,-394.492"/>
</g>
<!-- 9714&#45;&#45;9718 -->
<g id="edge115" class="edge"><title>9714&#45;&#45;9718</title>
<path fill="none" stroke="black" d="M2983.25,-432.433C2994.17,-405.217 3015.8,-351.334 3026.81,-323.902"/>
</g>
<!-- 9714&#45;&#45;9720 -->
<g id="edge116" class="edge"><title>9714&#45;&#45;9720</title>
<path fill="none" stroke="black" d="M2974.67,-431.849C2970.18,-391.78 2959.03,-292.383 2954.53,-252.232"/>
</g>
<!-- 9716&#45;&#45;9718 -->
<g id="edge117" class="edge"><title>9716&#45;&#45;9718</title>
<path fill="none" stroke="black" d="M2939.45,-364.807C2960.25,-352.037 2992.73,-332.093 3013.59,-319.288"/>
</g>
<!-- 9716&#45;&#45;9720 -->
<g id="edge118" class="edge"><title>9716&#45;&#45;9720</title>
<path fill="none" stroke="black" d="M2923.51,-360.153C2929.83,-332.971 2942.21,-279.717 2948.58,-252.268"/>
</g>
<!-- 9718&#45;&#45;9720 -->
<g id="edge119" class="edge"><title>9718&#45;&#45;9720</title>
<path fill="none" stroke="black" d="M3017.21,-290.834C3003.06,-278.61 2982.75,-261.054 2968.69,-248.906"/>
</g>
<!-- 10781 -->
<g id="node62" class="node"><title>10781</title>
<ellipse fill="none" stroke="black" cx="2235.6" cy="-522" rx="32.4942" ry="18"/>
<text text-anchor="middle" x="2235.6" y="-518.3" font-family="Times New Roman,serif" font-size="14.00">10781</text>
</g>
<!-- 10781&#45;&#45;5319 -->
<g id="edge120" class="edge"><title>10781&#45;&#45;5319</title>
<path fill="none" stroke="black" d="M2222.66,-505.116C2213.2,-493.499 2200.44,-477.828 2191.09,-466.34"/>
</g>
<!-- 10781&#45;&#45;5320 -->
<g id="edge122" class="edge"><title>10781&#45;&#45;5320</title>
<path fill="none" stroke="black" d="M2244.03,-504.608C2258.08,-475.045 2283.06,-411.121 2265.6,-360 2260.56,-345.249 2249.56,-331.419 2240.22,-321.587"/>
</g>
<!-- 10781&#45;&#45;10784 -->
<g id="edge121" class="edge"><title>10781&#45;&#45;10784</title>
<path fill="none" stroke="black" d="M2234.27,-503.871C2232.16,-476.578 2228.05,-423.52 2225.93,-396.189"/>
</g>
</g>
</svg>
