<svg width="4111px" height="731px"
 viewBox="0.00 0.00 3083.19 548.00" xmlns="http://www.w3.org/2000/svg" xmlns:xlink="http://www.w3.org/1999/xlink">
<g id="graph0" class="graph" transform="scale(1.000022500562514 1.000022500562514) rotate(0) translate(4 544)">
<title>G</title>
<polygon fill="white" stroke="none" points="-4,4 -4,-544 3079.19,-544 3079.19,4 -4,4"/>
<!-- 217 -->
<g id="node1" class="node"><title>217</title>
<ellipse fill="none" stroke="black" cx="60.5975" cy="-378" rx="27" ry="18"/>
<text text-anchor="middle" x="60.5975" y="-374.3" font-family="Times New Roman,serif" font-size="14.00">217</text>
</g>
<!-- 218 -->
<g id="node2" class="node"><title>218</title>
<ellipse fill="none" stroke="black" cx="88.5975" cy="-306" rx="27" ry="18"/>
<text text-anchor="middle" x="88.5975" y="-302.3" font-family="Times New Roman,serif" font-size="14.00">218</text>
</g>
<!-- 217&#45;&#45;218 -->
<g id="edge1" class="edge"><title>217&#45;&#45;218</title>
<path fill="none" stroke="black" d="M67.2331,-360.411C71.6965,-349.252 77.556,-334.604 82.0095,-323.47"/>
</g>
<!-- 220 -->
<g id="node3" class="node"><title>220</title>
<ellipse fill="none" stroke="black" cx="60.5975" cy="-234" rx="27" ry="18"/>
<text text-anchor="middle" x="60.5975" y="-230.3" font-family="Times New Roman,serif" font-size="14.00">220</text>
</g>
<!-- 217&#45;&#45;220 -->
<g id="edge2" class="edge"><title>217&#45;&#45;220</title>
<path fill="none" stroke="black" d="M57.3491,-359.888C55.5516,-349.542 53.5028,-336.063 52.5975,-324 51.4001,-308.045 51.4001,-303.955 52.5975,-288 53.5028,-275.937 55.5516,-262.458 57.3491,-252.112"/>
</g>
<!-- 218&#45;&#45;220 -->
<g id="edge3" class="edge"><title>218&#45;&#45;220</title>
<path fill="none" stroke="black" d="M81.9619,-288.411C77.4984,-277.252 71.6389,-262.604 67.1854,-251.47"/>
</g>
<!-- 617 -->
<g id="node4" class="node"><title>617</title>
<ellipse fill="none" stroke="black" cx="650.597" cy="-522" rx="27" ry="18"/>
<text text-anchor="middle" x="650.597" y="-518.3" font-family="Times New Roman,serif" font-size="14.00">617</text>
</g>
<!-- 618 -->
<g id="node5" class="node"><title>618</title>
<ellipse fill="none" stroke="black" cx="623.597" cy="-450" rx="27" ry="18"/>
<text text-anchor="middle" x="623.597" y="-446.3" font-family="Times New Roman,serif" font-size="14.00">618</text>
</g>
<!-- 617&#45;&#45;618 -->
<g id="edge4" class="edge"><title>617&#45;&#45;618</title>
<path fill="none" stroke="black" d="M644.199,-504.411C639.957,-493.414 634.408,-479.027 630.138,-467.956"/>
</g>
<!-- 620 -->
<g id="node6" class="node"><title>620</title>
<ellipse fill="none" stroke="black" cx="660.597" cy="-378" rx="27" ry="18"/>
<text text-anchor="middle" x="660.597" y="-374.3" font-family="Times New Roman,serif" font-size="14.00">620</text>
</g>
<!-- 617&#45;&#45;620 -->
<g id="edge5" class="edge"><title>617&#45;&#45;620</title>
<path fill="none" stroke="black" d="M654.202,-503.903C656.206,-493.563 658.51,-480.084 659.597,-468 661.84,-443.068 661.645,-414.05 661.199,-396.102"/>
</g>
<!-- 618&#45;&#45;620 -->
<g id="edge6" class="edge"><title>618&#45;&#45;620</title>
<path fill="none" stroke="black" d="M632.179,-432.765C638.156,-421.456 646.095,-406.437 652.062,-395.147"/>
</g>
<!-- 1111 -->
<g id="node7" class="node"><title>1111</title>
<ellipse fill="none" stroke="black" cx="28.5975" cy="-522" rx="28.6953" ry="18"/>
<text text-anchor="middle" x="28.5975" y="-518.3" font-family="Times New Roman,serif" font-size="14.00">1111</text>
</g>
<!-- 1111&#45;&#45;217 -->
<g id="edge8" class="edge"><title>1111&#45;&#45;217</title>
<path fill="none" stroke="black" d="M32.3939,-504.153C38.5526,-476.824 50.6504,-423.14 56.8059,-395.825"/>
</g>
<!-- 1111&#45;&#45;218 -->
<g id="edge9" class="edge"><title>1111&#45;&#45;218</title>
<path fill="none" stroke="black" d="M23.4291,-504C15.1441,-473.474 1.99052,-408.074 24.5975,-360 33.4379,-341.201 52.5828,-326.781 67.6425,-317.762"/>
</g>
<!-- 1111&#45;&#45;220 -->
<g id="edge10" class="edge"><title>1111&#45;&#45;220</title>
<path fill="none" stroke="black" d="M20.4991,-504.262C16.0133,-494.048 10.8916,-480.578 8.59746,-468 5.53838,-451.229 7.58789,-374.537 10.5975,-360 19.0316,-319.26 39.91,-274.741 51.8498,-251.395"/>
</g>
<!-- 1112 -->
<g id="node8" class="node"><title>1112</title>
<ellipse fill="none" stroke="black" cx="229.597" cy="-450" rx="28.6953" ry="18"/>
<text text-anchor="middle" x="229.597" y="-446.3" font-family="Times New Roman,serif" font-size="14.00">1112</text>
</g>
<!-- 1111&#45;&#45;1112 -->
<g id="edge7" class="edge"><title>1111&#45;&#45;1112</title>
<path fill="none" stroke="black" d="M53.244,-512.417C91.9262,-498.945 166.452,-472.991 205.064,-459.544"/>
</g>
<!-- 1112&#45;&#45;217 -->
<g id="edge11" class="edge"><title>1112&#45;&#45;217</title>
<path fill="none" stroke="black" d="M206.005,-439.235C180.321,-428.604 138.038,-411.099 101.597,-396 95.6177,-393.522 89.1478,-390.84 83.1533,-388.355"/>
</g>
<!-- 1112&#45;&#45;218 -->
<g id="edge12" class="edge"><title>1112&#45;&#45;218</title>
<path fill="none" stroke="black" d="M205.189,-440.075C184.317,-431.438 154.571,-416.619 134.597,-396 114.267,-375.012 100.81,-343.241 93.9602,-323.879"/>
</g>
<!-- 1112&#45;&#45;220 -->
<g id="edge13" class="edge"><title>1112&#45;&#45;220</title>
<path fill="none" stroke="black" d="M229.2,-431.723C228.052,-412.849 224.046,-382.332 210.597,-360 178.157,-306.132 113.971,-264.698 81.0789,-245.963"/>
</g>
<!-- 1432 -->
<g id="node9" class="node"><title>1432</title>
<ellipse fill="none" stroke="black" cx="474.597" cy="-306" rx="28.6953" ry="18"/>
<text text-anchor="middle" x="474.597" y="-302.3" font-family="Times New Roman,serif" font-size="14.00">1432</text>
</g>
<!-- 1112&#45;&#45;1432 -->
<g id="edge14" class="edge"><title>1112&#45;&#45;1432</title>
<path fill="none" stroke="black" d="M235.94,-432.261C244.428,-412.119 261.393,-378.687 286.597,-360 334.95,-324.151 406.632,-312.535 446.046,-308.782"/>
</g>
<!-- 6024 -->
<g id="node10" class="node"><title>6024</title>
<ellipse fill="none" stroke="black" cx="172.597" cy="-378" rx="28.6953" ry="18"/>
<text text-anchor="middle" x="172.597" y="-374.3" font-family="Times New Roman,serif" font-size="14.00">6024</text>
</g>
<!-- 1112&#45;&#45;6024 -->
<g id="edge15" class="edge"><title>1112&#45;&#45;6024</title>
<path fill="none" stroke="black" d="M216.947,-433.465C207.501,-421.865 194.65,-406.082 185.212,-394.492"/>
</g>
<!-- 6026 -->
<g id="node11" class="node"><title>6026</title>
<ellipse fill="none" stroke="black" cx="324.597" cy="-378" rx="28.6953" ry="18"/>
<text text-anchor="middle" x="324.597" y="-374.3" font-family="Times New Roman,serif" font-size="14.00">6026</text>
</g>
<!-- 1112&#45;&#45;6026 -->
<g id="edge16" class="edge"><title>1112&#45;&#45;6026</title>
<path fill="none" stroke="black" d="M247.466,-435.834C264.451,-423.319 289.851,-404.603 306.809,-392.107"/>
</g>
<!-- 6028 -->
<g id="node12" class="node"><title>6028</title>
<ellipse fill="none" stroke="black" cx="399.597" cy="-378" rx="28.6953" ry="18"/>
<text text-anchor="middle" x="399.597" y="-374.3" font-family="Times New Roman,serif" font-size="14.00">6028</text>
</g>
<!-- 1112&#45;&#45;6028 -->
<g id="edge17" class="edge"><title>1112&#45;&#45;6028</title>
<path fill="none" stroke="black" d="M253.777,-439.795C280.547,-429.505 324.902,-412.158 362.597,-396 367.406,-393.939 372.526,-391.649 377.375,-389.435"/>
</g>
<!-- 9678 -->
<g id="node13" class="node"><title>9678</title>
<ellipse fill="none" stroke="black" cx="474.597" cy="-378" rx="28.6953" ry="18"/>
<text text-anchor="middle" x="474.597" y="-374.3" font-family="Times New Roman,serif" font-size="14.00">9678</text>
</g>
<!-- 1112&#45;&#45;9678 -->
<g id="edge18" class="edge"><title>1112&#45;&#45;9678</title>
<path fill="none" stroke="black" d="M256.655,-443.744C296.791,-435.583 374.187,-418.437 437.597,-396 442.529,-394.255 447.701,-392.098 452.563,-389.914"/>
</g>
<!-- 9678&#45;&#45;1432 -->
<g id="edge19" class="edge"><title>9678&#45;&#45;1432</title>
<path fill="none" stroke="black" d="M474.597,-359.697C474.597,-348.846 474.597,-334.917 474.597,-324.104"/>
</g>
<!-- 1429 -->
<g id="node14" class="node"><title>1429</title>
<ellipse fill="none" stroke="black" cx="549.597" cy="-450" rx="28.6953" ry="18"/>
<text text-anchor="middle" x="549.597" y="-446.3" font-family="Times New Roman,serif" font-size="14.00">1429</text>
</g>
<!-- 1430 -->
<g id="node15" class="node"><title>1430</title>
<ellipse fill="none" stroke="black" cx="549.597" cy="-378" rx="28.6953" ry="18"/>
<text text-anchor="middle" x="549.597" y="-374.3" font-family="Times New Roman,serif" font-size="14.00">1430</text>
</g>
<!-- 1429&#45;&#45;1430 -->
<g id="edge20" class="edge"><title>1429&#45;&#45;1430</title>
<path fill="none" stroke="black" d="M549.597,-431.697C549.597,-420.846 549.597,-406.917 549.597,-396.104"/>
</g>
<!-- 1430&#45;&#45;1432 -->
<g id="edge21" class="edge"><title>1430&#45;&#45;1432</title>
<path fill="none" stroke="black" d="M534.057,-362.496C521.1,-350.402 502.741,-333.267 489.861,-321.246"/>
</g>
<!-- 2359 -->
<g id="node16" class="node"><title>2359</title>
<ellipse fill="none" stroke="black" cx="962.597" cy="-522" rx="28.6953" ry="18"/>
<text text-anchor="middle" x="962.597" y="-518.3" font-family="Times New Roman,serif" font-size="14.00">2359</text>
</g>
<!-- 2360 -->
<g id="node17" class="node"><title>2360</title>
<ellipse fill="none" stroke="black" cx="1019.6" cy="-450" rx="28.6953" ry="18"/>
<text text-anchor="middle" x="1019.6" y="-446.3" font-family="Times New Roman,serif" font-size="14.00">2360</text>
</g>
<!-- 2359&#45;&#45;2360 -->
<g id="edge22" class="edge"><title>2359&#45;&#45;2360</title>
<path fill="none" stroke="black" d="M975.248,-505.465C984.693,-493.865 997.545,-478.082 1006.98,-466.492"/>
</g>
<!-- 2362 -->
<g id="node18" class="node"><title>2362</title>
<ellipse fill="none" stroke="black" cx="1095.6" cy="-378" rx="28.6953" ry="18"/>
<text text-anchor="middle" x="1095.6" y="-374.3" font-family="Times New Roman,serif" font-size="14.00">2362</text>
</g>
<!-- 2359&#45;&#45;2362 -->
<g id="edge23" class="edge"><title>2359&#45;&#45;2362</title>
<path fill="none" stroke="black" d="M987.387,-512.431C1008.5,-504.023 1038.4,-489.339 1057.6,-468 1076.48,-447.018 1086.94,-415.246 1091.91,-395.882"/>
</g>
<!-- 2364 -->
<g id="node19" class="node"><title>2364</title>
<ellipse fill="none" stroke="black" cx="905.597" cy="-306" rx="28.6953" ry="18"/>
<text text-anchor="middle" x="905.597" y="-302.3" font-family="Times New Roman,serif" font-size="14.00">2364</text>
</g>
<!-- 2359&#45;&#45;2364 -->
<g id="edge24" class="edge"><title>2359&#45;&#45;2364</title>
<path fill="none" stroke="black" d="M958.125,-504.208C947.496,-464.302 920.816,-364.134 910.128,-324.01"/>
</g>
<!-- 2366 -->
<g id="node20" class="node"><title>2366</title>
<ellipse fill="none" stroke="black" cx="981.597" cy="-234" rx="28.6953" ry="18"/>
<text text-anchor="middle" x="981.597" y="-230.3" font-family="Times New Roman,serif" font-size="14.00">2366</text>
</g>
<!-- 2359&#45;&#45;2366 -->
<g id="edge25" class="edge"><title>2359&#45;&#45;2366</title>
<path fill="none" stroke="black" d="M963.729,-503.966C967.1,-453.218 977.053,-303.407 980.448,-252.306"/>
</g>
<!-- 2368 -->
<g id="node21" class="node"><title>2368</title>
<ellipse fill="none" stroke="black" cx="1038.6" cy="-162" rx="28.6953" ry="18"/>
<text text-anchor="middle" x="1038.6" y="-158.3" font-family="Times New Roman,serif" font-size="14.00">2368</text>
</g>
<!-- 2359&#45;&#45;2368 -->
<g id="edge26" class="edge"><title>2359&#45;&#45;2368</title>
<path fill="none" stroke="black" d="M988.663,-513.959C1014.56,-505.998 1054.38,-491.06 1082.6,-468 1112.96,-443.184 1121.7,-433.367 1133.6,-396 1160.49,-311.498 1085,-214.5 1052.59,-177.96"/>
</g>
<!-- 2370 -->
<g id="node22" class="node"><title>2370</title>
<ellipse fill="none" stroke="black" cx="924.597" cy="-90" rx="28.6953" ry="18"/>
<text text-anchor="middle" x="924.597" y="-86.3" font-family="Times New Roman,serif" font-size="14.00">2370</text>
</g>
<!-- 2359&#45;&#45;2370 -->
<g id="edge27" class="edge"><title>2359&#45;&#45;2370</title>
<path fill="none" stroke="black" d="M936.179,-514.557C883.972,-500.072 772.597,-459.714 772.597,-379 772.597,-379 772.597,-379 772.597,-233 772.597,-163.663 858.097,-118.457 900.847,-100.187"/>
</g>
<!-- 2372 -->
<g id="node23" class="node"><title>2372</title>
<ellipse fill="none" stroke="black" cx="981.597" cy="-18" rx="28.6953" ry="18"/>
<text text-anchor="middle" x="981.597" y="-14.3" font-family="Times New Roman,serif" font-size="14.00">2372</text>
</g>
<!-- 2359&#45;&#45;2372 -->
<g id="edge28" class="edge"><title>2359&#45;&#45;2372</title>
<path fill="none" stroke="black" d="M934.468,-518.623C897.523,-514.223 832.236,-501.907 788.597,-468 752.062,-439.613 734.597,-425.267 734.597,-379 734.597,-379 734.597,-379 734.597,-161 734.597,-61.0841 888.385,-30.436 953.263,-21.952"/>
</g>
<!-- 2360&#45;&#45;2362 -->
<g id="edge29" class="edge"><title>2360&#45;&#45;2362</title>
<path fill="none" stroke="black" d="M1035.34,-434.496C1048.48,-422.402 1067.08,-405.267 1080.13,-393.246"/>
</g>
<!-- 2360&#45;&#45;2364 -->
<g id="edge30" class="edge"><title>2360&#45;&#45;2364</title>
<path fill="none" stroke="black" d="M1007.18,-433.533C985.252,-406.218 939.917,-349.749 917.999,-322.448"/>
</g>
<!-- 2360&#45;&#45;2366 -->
<g id="edge31" class="edge"><title>2360&#45;&#45;2366</title>
<path fill="none" stroke="black" d="M1016.55,-431.849C1009.42,-391.68 991.699,-291.89 984.605,-251.935"/>
</g>
<!-- 2360&#45;&#45;2368 -->
<g id="edge32" class="edge"><title>2360&#45;&#45;2368</title>
<path fill="none" stroke="black" d="M1020.73,-431.966C1024.1,-381.218 1034.05,-231.407 1037.45,-180.306"/>
</g>
<!-- 2360&#45;&#45;2370 -->
<g id="edge33" class="edge"><title>2360&#45;&#45;2370</title>
<path fill="none" stroke="black" d="M994.366,-441.221C946.799,-424.809 848.597,-381.863 848.597,-307 848.597,-307 848.597,-307 848.597,-233 848.597,-181.271 888.287,-130.15 910.302,-105.772"/>
</g>
<!-- 2360&#45;&#45;2372 -->
<g id="edge34" class="edge"><title>2360&#45;&#45;2372</title>
<path fill="none" stroke="black" d="M1047.93,-446.048C1112.81,-437.564 1266.6,-406.916 1266.6,-307 1266.6,-307 1266.6,-307 1266.6,-161 1266.6,-47.2601 1082.5,-24.6231 1010.23,-20.1187"/>
</g>
<!-- 2362&#45;&#45;2364 -->
<g id="edge35" class="edge"><title>2362&#45;&#45;2364</title>
<path fill="none" stroke="black" d="M1071.53,-368.134C1035.09,-354.706 966.274,-329.355 929.765,-315.904"/>
</g>
<!-- 2362&#45;&#45;2366 -->
<g id="edge36" class="edge"><title>2362&#45;&#45;2366</title>
<path fill="none" stroke="black" d="M1083.18,-361.533C1061.25,-334.218 1015.92,-277.749 993.999,-250.448"/>
</g>
<!-- 2362&#45;&#45;2368 -->
<g id="edge37" class="edge"><title>2362&#45;&#45;2368</title>
<path fill="none" stroke="black" d="M1091.12,-360.208C1080.5,-320.302 1053.82,-220.134 1043.13,-180.01"/>
</g>
<!-- 2362&#45;&#45;2370 -->
<g id="edge38" class="edge"><title>2362&#45;&#45;2370</title>
<path fill="none" stroke="black" d="M1099.9,-360.122C1109.45,-318.403 1127.76,-209.096 1076.6,-144 1046.81,-106.097 988.15,-95.2097 953.054,-92.14"/>
</g>
<!-- 2362&#45;&#45;2372 -->
<g id="edge39" class="edge"><title>2362&#45;&#45;2372</title>
<path fill="none" stroke="black" d="M1117.56,-366.349C1155.34,-346.311 1228.6,-299.177 1228.6,-235 1228.6,-235 1228.6,-235 1228.6,-161 1228.6,-61.0841 1074.81,-30.436 1009.93,-21.952"/>
</g>
<!-- 2364&#45;&#45;2366 -->
<g id="edge40" class="edge"><title>2364&#45;&#45;2366</title>
<path fill="none" stroke="black" d="M921.345,-290.496C934.475,-278.402 953.079,-261.267 966.13,-249.246"/>
</g>
<!-- 2364&#45;&#45;2368 -->
<g id="edge41" class="edge"><title>2364&#45;&#45;2368</title>
<path fill="none" stroke="black" d="M909.288,-288.118C914.252,-268.754 924.718,-236.982 943.597,-216 962.799,-194.661 992.69,-179.977 1013.81,-171.569"/>
</g>
<!-- 2364&#45;&#45;2370 -->
<g id="edge42" class="edge"><title>2364&#45;&#45;2370</title>
<path fill="none" stroke="black" d="M907.12,-287.849C910.678,-247.78 919.503,-148.383 923.067,-108.232"/>
</g>
<!-- 2364&#45;&#45;2372 -->
<g id="edge43" class="edge"><title>2364&#45;&#45;2372</title>
<path fill="none" stroke="black" d="M898.127,-288.31C881.271,-247.928 844.879,-143.046 886.597,-72 901.325,-46.9196 932.712,-32.8346 955.385,-25.5921"/>
</g>
<!-- 2366&#45;&#45;2368 -->
<g id="edge44" class="edge"><title>2366&#45;&#45;2368</title>
<path fill="none" stroke="black" d="M994.248,-217.465C1003.69,-205.865 1016.55,-190.082 1025.98,-178.492"/>
</g>
<!-- 2366&#45;&#45;2370 -->
<g id="edge45" class="edge"><title>2366&#45;&#45;2370</title>
<path fill="none" stroke="black" d="M974.947,-216.433C964.023,-189.217 942.394,-135.334 931.382,-107.902"/>
</g>
<!-- 2366&#45;&#45;2372 -->
<g id="edge46" class="edge"><title>2366&#45;&#45;2372</title>
<path fill="none" stroke="black" d="M981.597,-215.849C981.597,-175.78 981.597,-76.3826 981.597,-36.2325"/>
</g>
<!-- 2368&#45;&#45;2370 -->
<g id="edge47" class="edge"><title>2368&#45;&#45;2370</title>
<path fill="none" stroke="black" d="M1018.74,-148.807C997.944,-136.037 965.464,-116.093 944.61,-103.288"/>
</g>
<!-- 2368&#45;&#45;2372 -->
<g id="edge48" class="edge"><title>2368&#45;&#45;2372</title>
<path fill="none" stroke="black" d="M1031.95,-144.433C1021.02,-117.217 999.394,-63.3342 988.382,-35.9017"/>
</g>
<!-- 2370&#45;&#45;2372 -->
<g id="edge49" class="edge"><title>2370&#45;&#45;2372</title>
<path fill="none" stroke="black" d="M937.248,-73.4647C946.693,-61.8645 959.545,-46.0816 968.983,-34.4918"/>
</g>
<!-- 3315 -->
<g id="node24" class="node"><title>3315</title>
<ellipse fill="none" stroke="black" cx="1427.6" cy="-522" rx="28.6953" ry="18"/>
<text text-anchor="middle" x="1427.6" y="-518.3" font-family="Times New Roman,serif" font-size="14.00">3315</text>
</g>
<!-- 3316 -->
<g id="node25" class="node"><title>3316</title>
<ellipse fill="none" stroke="black" cx="1427.6" cy="-450" rx="28.6953" ry="18"/>
<text text-anchor="middle" x="1427.6" y="-446.3" font-family="Times New Roman,serif" font-size="14.00">3316</text>
</g>
<!-- 3315&#45;&#45;3316 -->
<g id="edge50" class="edge"><title>3315&#45;&#45;3316</title>
<path fill="none" stroke="black" d="M1427.6,-503.697C1427.6,-492.846 1427.6,-478.917 1427.6,-468.104"/>
</g>
<!-- 3318 -->
<g id="node26" class="node"><title>3318</title>
<ellipse fill="none" stroke="black" cx="1570.6" cy="-378" rx="28.6953" ry="18"/>
<text text-anchor="middle" x="1570.6" y="-374.3" font-family="Times New Roman,serif" font-size="14.00">3318</text>
</g>
<!-- 3315&#45;&#45;3318 -->
<g id="edge51" class="edge"><title>3315&#45;&#45;3318</title>
<path fill="none" stroke="black" d="M1449.16,-509.913C1466.47,-500.336 1490.76,-485.33 1508.6,-468 1531.43,-445.826 1551.13,-414.142 1561.89,-395.167"/>
</g>
<!-- 3320 -->
<g id="node27" class="node"><title>3320</title>
<ellipse fill="none" stroke="black" cx="1475.6" cy="-306" rx="28.6953" ry="18"/>
<text text-anchor="middle" x="1475.6" y="-302.3" font-family="Times New Roman,serif" font-size="14.00">3320</text>
</g>
<!-- 3315&#45;&#45;3320 -->
<g id="edge52" class="edge"><title>3315&#45;&#45;3320</title>
<path fill="none" stroke="black" d="M1441.8,-506.1C1450.34,-496.144 1460.51,-482.293 1465.6,-468 1483.35,-418.136 1480.34,-354.145 1477.55,-324.065"/>
</g>
<!-- 3322 -->
<g id="node28" class="node"><title>3322</title>
<ellipse fill="none" stroke="black" cx="1418.6" cy="-234" rx="28.6953" ry="18"/>
<text text-anchor="middle" x="1418.6" y="-230.3" font-family="Times New Roman,serif" font-size="14.00">3322</text>
</g>
<!-- 3315&#45;&#45;3322 -->
<g id="edge53" class="edge"><title>3315&#45;&#45;3322</title>
<path fill="none" stroke="black" d="M1413.1,-506.203C1404.43,-496.288 1394.24,-482.444 1389.6,-468 1364.46,-389.802 1396.86,-290.352 1411.8,-251.552"/>
</g>
<!-- 3324 -->
<g id="node29" class="node"><title>3324</title>
<ellipse fill="none" stroke="black" cx="1418.6" cy="-162" rx="28.6953" ry="18"/>
<text text-anchor="middle" x="1418.6" y="-158.3" font-family="Times New Roman,serif" font-size="14.00">3324</text>
</g>
<!-- 3315&#45;&#45;3324 -->
<g id="edge54" class="edge"><title>3315&#45;&#45;3324</title>
<path fill="none" stroke="black" d="M1406.73,-509.579C1371.64,-488.665 1304.6,-440.643 1304.6,-379 1304.6,-379 1304.6,-379 1304.6,-305 1304.6,-245.565 1366.08,-196.844 1398.74,-175.154"/>
</g>
<!-- 3316&#45;&#45;3318 -->
<g id="edge55" class="edge"><title>3316&#45;&#45;3318</title>
<path fill="none" stroke="black" d="M1449.63,-438.216C1476.58,-425.023 1521.92,-402.827 1548.78,-389.681"/>
</g>
<!-- 3316&#45;&#45;3320 -->
<g id="edge56" class="edge"><title>3316&#45;&#45;3320</title>
<path fill="none" stroke="black" d="M1433.29,-432.153C1442.53,-404.824 1460.68,-351.14 1469.91,-323.825"/>
</g>
<!-- 3316&#45;&#45;3322 -->
<g id="edge57" class="edge"><title>3316&#45;&#45;3322</title>
<path fill="none" stroke="black" d="M1426.88,-431.849C1425.19,-391.78 1421.01,-292.383 1419.32,-252.232"/>
</g>
<!-- 3316&#45;&#45;3324 -->
<g id="edge58" class="edge"><title>3316&#45;&#45;3324</title>
<path fill="none" stroke="black" d="M1418.8,-432.865C1399.1,-394.55 1355.09,-295.358 1380.6,-216 1385.24,-201.556 1395.43,-187.712 1404.1,-177.797"/>
</g>
<!-- 3318&#45;&#45;3320 -->
<g id="edge59" class="edge"><title>3318&#45;&#45;3320</title>
<path fill="none" stroke="black" d="M1552.73,-363.834C1535.74,-351.319 1510.34,-332.603 1493.39,-320.107"/>
</g>
<!-- 3318&#45;&#45;3322 -->
<g id="edge60" class="edge"><title>3318&#45;&#45;3322</title>
<path fill="none" stroke="black" d="M1563.15,-360.513C1553.79,-341.231 1536.18,-309.251 1513.6,-288 1492.69,-268.327 1463.12,-253.331 1442.54,-244.394"/>
</g>
<!-- 3318&#45;&#45;3324 -->
<g id="edge61" class="edge"><title>3318&#45;&#45;3324</title>
<path fill="none" stroke="black" d="M1567.56,-360.033C1563.73,-341.43 1555.96,-311.149 1542.6,-288 1514.79,-239.814 1463.85,-196.963 1436.72,-176.217"/>
</g>
<!-- 6012 -->
<g id="node30" class="node"><title>6012</title>
<ellipse fill="none" stroke="black" cx="1627.6" cy="-306" rx="28.6953" ry="18"/>
<text text-anchor="middle" x="1627.6" y="-302.3" font-family="Times New Roman,serif" font-size="14.00">6012</text>
</g>
<!-- 3318&#45;&#45;6012 -->
<g id="edge62" class="edge"><title>3318&#45;&#45;6012</title>
<path fill="none" stroke="black" d="M1583.25,-361.465C1592.69,-349.865 1605.55,-334.082 1614.98,-322.492"/>
</g>
<!-- 9244 -->
<g id="node31" class="node"><title>9244</title>
<ellipse fill="none" stroke="black" cx="1702.6" cy="-306" rx="28.6953" ry="18"/>
<text text-anchor="middle" x="1702.6" y="-302.3" font-family="Times New Roman,serif" font-size="14.00">9244</text>
</g>
<!-- 3318&#45;&#45;9244 -->
<g id="edge63" class="edge"><title>3318&#45;&#45;9244</title>
<path fill="none" stroke="black" d="M1591.81,-365.753C1616.44,-352.691 1656.83,-331.27 1681.44,-318.219"/>
</g>
<!-- 3320&#45;&#45;3322 -->
<g id="edge64" class="edge"><title>3320&#45;&#45;3322</title>
<path fill="none" stroke="black" d="M1462.95,-289.465C1453.5,-277.865 1440.65,-262.082 1431.21,-250.492"/>
</g>
<!-- 3320&#45;&#45;3324 -->
<g id="edge65" class="edge"><title>3320&#45;&#45;3324</title>
<path fill="none" stroke="black" d="M1474.06,-287.961C1471.92,-269.56 1467.07,-239.7 1456.6,-216 1450.46,-202.123 1440.34,-188.253 1432.08,-178.184"/>
</g>
<!-- 3322&#45;&#45;3324 -->
<g id="edge66" class="edge"><title>3322&#45;&#45;3324</title>
<path fill="none" stroke="black" d="M1418.6,-215.697C1418.6,-204.846 1418.6,-190.917 1418.6,-180.104"/>
</g>
<!-- 5077 -->
<g id="node32" class="node"><title>5077</title>
<polygon fill="#413654" stroke="#413654" points="1946.6,-540 1892.6,-540 1892.6,-504 1946.6,-504 1946.6,-540"/>
<text text-anchor="middle" x="1919.6" y="-518.3" font-family="Times New Roman,serif" font-size="14.00">5077</text>
</g>
<!-- 5078 -->
<g id="node33" class="node"><title>5078</title>
<polygon fill="#8c4549" stroke="#8c4549" points="2031.6,-468 1977.6,-468 1977.6,-432 2031.6,-432 2031.6,-468"/>
<text text-anchor="middle" x="2004.6" y="-446.3" font-family="Times New Roman,serif" font-size="14.00">5078</text>
</g>
<!-- 5077&#45;&#45;5078 -->
<g id="edge67" class="edge"><title>5077&#45;&#45;5078</title>
<path fill="none" stroke="black" d="M1940.61,-503.697C1953.78,-492.846 1970.7,-478.917 1983.83,-468.104"/>
</g>
<!-- 5080 -->
<g id="node34" class="node"><title>5080</title>
<ellipse fill="none" stroke="black" cx="1882.6" cy="-378" rx="28.6953" ry="18"/>
<text text-anchor="middle" x="1882.6" y="-374.3" font-family="Times New Roman,serif" font-size="14.00">5080</text>
</g>
<!-- 5077&#45;&#45;5080 -->
<g id="edge68" class="edge"><title>5077&#45;&#45;5080</title>
<path fill="none" stroke="black" d="M1915.13,-503.871C1908.02,-476.578 1894.2,-423.52 1887.08,-396.189"/>
</g>
<!-- 5082 -->
<g id="node35" class="node"><title>5082</title>
<ellipse fill="#8c4549" stroke="#8c4549" cx="1930.6" cy="-306" rx="28.6953" ry="18"/>
<text text-anchor="middle" x="1930.6" y="-302.3" font-family="Times New Roman,serif" font-size="14.00">5082</text>
</g>
<!-- 5077&#45;&#45;5082 -->
<g id="edge69" class="edge"><title>5077&#45;&#45;5082</title>
<path fill="none" stroke="black" d="M1920.48,-503.849C1922.54,-463.78 1927.65,-364.383 1929.71,-324.232"/>
</g>
<!-- 5084 -->
<g id="node36" class="node"><title>5084</title>
<polygon fill="#7c8481" stroke="#7c8481" points="2069.6,-252 2015.6,-252 2015.6,-216 2069.6,-216 2069.6,-252"/>
<text text-anchor="middle" x="2042.6" y="-230.3" font-family="Times New Roman,serif" font-size="14.00">5084</text>
</g>
<!-- 5077&#45;&#45;5084 -->
<g id="edge70" class="edge"><title>5077&#45;&#45;5084</title>
<path fill="none" stroke="black" d="M1946.61,-517.123C1974.92,-511.526 2018.31,-498.295 2040.6,-468 2089.38,-401.691 2061.87,-293.57 2048.53,-252.012"/>
</g>
<!-- 5086 -->
<g id="node37" class="node"><title>5086</title>
<polygon fill="#6b7982" stroke="#6b7982" points="1921.6,-180 1867.6,-180 1867.6,-144 1921.6,-144 1921.6,-180"/>
<text text-anchor="middle" x="1894.6" y="-158.3" font-family="Times New Roman,serif" font-size="14.00">5086</text>
</g>
<!-- 5077&#45;&#45;5086 -->
<g id="edge71" class="edge"><title>5077&#45;&#45;5086</title>
<path fill="none" stroke="black" d="M1905.06,-503.803C1886.78,-480.934 1856.35,-438.438 1844.6,-396 1822.51,-316.258 1865.45,-218.901 1885.3,-180.123"/>
</g>
<!-- 5088 -->
<g id="node38" class="node"><title>5088</title>
<polygon fill="#848791" stroke="#848791" points="1948.6,-108 1894.6,-108 1894.6,-72 1948.6,-72 1948.6,-108"/>
<text text-anchor="middle" x="1921.6" y="-86.3" font-family="Times New Roman,serif" font-size="14.00">5088</text>
</g>
<!-- 5077&#45;&#45;5088 -->
<g id="edge72" class="edge"><title>5077&#45;&#45;5088</title>
<path fill="none" stroke="black" d="M1892.46,-511.336C1846.81,-493.141 1759.6,-449.194 1759.6,-379 1759.6,-379 1759.6,-379 1759.6,-233 1759.6,-162.127 1848.36,-118.371 1894.48,-100.42"/>
</g>
<!-- 5078&#45;&#45;5080 -->
<g id="edge73" class="edge"><title>5078&#45;&#45;5080</title>
<path fill="none" stroke="black" d="M1977.52,-433.465C1955.06,-420.576 1923.59,-402.523 1903.16,-390.795"/>
</g>
<!-- 5078&#45;&#45;5082 -->
<g id="edge74" class="edge"><title>5078&#45;&#45;5082</title>
<path fill="none" stroke="black" d="M1995.67,-431.871C1981.29,-404.283 1953.2,-350.37 1939.1,-323.312"/>
</g>
<!-- 5078&#45;&#45;5084 -->
<g id="edge75" class="edge"><title>5078&#45;&#45;5084</title>
<path fill="none" stroke="black" d="M2014.58,-431.937C2019.99,-421.832 2026.24,-408.582 2029.6,-396 2043.18,-345.061 2043.83,-282.11 2043.21,-252.262"/>
</g>
<!-- 5078&#45;&#45;5086 -->
<g id="edge76" class="edge"><title>5078&#45;&#45;5086</title>
<path fill="none" stroke="black" d="M2002.49,-431.566C1998.46,-401.456 1988.27,-338.123 1968.6,-288 1955.06,-253.515 1945.51,-247.858 1926.6,-216 1919.47,-203.984 1911.33,-190.504 1905.04,-180.146"/>
</g>
<!-- 5078&#45;&#45;5088 -->
<g id="edge77" class="edge"><title>5078&#45;&#45;5088</title>
<path fill="none" stroke="black" d="M2031.92,-435.783C2071.36,-414.562 2139.6,-368.909 2139.6,-307 2139.6,-307 2139.6,-307 2139.6,-233 2139.6,-142.889 2007.21,-106.987 1948.77,-95.5294"/>
</g>
<!-- 5080&#45;&#45;5082 -->
<g id="edge78" class="edge"><title>5080&#45;&#45;5082</title>
<path fill="none" stroke="black" d="M1893.49,-361.116C1901.34,-349.66 1911.9,-334.263 1919.75,-322.821"/>
</g>
<!-- 5080&#45;&#45;5084 -->
<g id="edge79" class="edge"><title>5080&#45;&#45;5084</title>
<path fill="none" stroke="black" d="M1904.4,-366.133C1922.62,-356.475 1948.73,-341.242 1968.6,-324 1993.79,-302.137 2017.43,-271.206 2030.93,-252.159"/>
</g>
<!-- 5080&#45;&#45;5086 -->
<g id="edge80" class="edge"><title>5080&#45;&#45;5086</title>
<path fill="none" stroke="black" d="M1883.56,-359.849C1885.81,-319.78 1891.38,-220.383 1893.63,-180.232"/>
</g>
<!-- 5080&#45;&#45;5088 -->
<g id="edge81" class="edge"><title>5080&#45;&#45;5088</title>
<path fill="none" stroke="black" d="M1875.34,-360.506C1859.09,-320.993 1823.84,-218.654 1858.6,-144 1866.08,-127.932 1881.09,-114.995 1894.59,-105.926"/>
</g>
<!-- 5082&#45;&#45;5084 -->
<g id="edge82" class="edge"><title>5082&#45;&#45;5084</title>
<path fill="none" stroke="black" d="M1950.11,-292.807C1968.16,-281.526 1995.16,-264.645 2015.34,-252.034"/>
</g>
<!-- 5082&#45;&#45;5086 -->
<g id="edge83" class="edge"><title>5082&#45;&#45;5086</title>
<path fill="none" stroke="black" d="M1926.33,-288.153C1919.44,-260.971 1905.93,-207.717 1898.98,-180.268"/>
</g>
<!-- 5082&#45;&#45;5088 -->
<g id="edge84" class="edge"><title>5082&#45;&#45;5088</title>
<path fill="none" stroke="black" d="M1931.55,-287.568C1932.96,-257.984 1934.99,-196.084 1930.6,-144 1929.58,-131.91 1927.27,-118.431 1925.25,-108.092"/>
</g>
<!-- 5084&#45;&#45;5086 -->
<g id="edge85" class="edge"><title>5084&#45;&#45;5086</title>
<path fill="none" stroke="black" d="M2015.45,-220.161C1988.83,-207.57 1948.47,-188.48 1921.82,-175.876"/>
</g>
<!-- 5084&#45;&#45;5088 -->
<g id="edge86" class="edge"><title>5084&#45;&#45;5088</title>
<path fill="none" stroke="black" d="M2028,-215.871C2004.75,-188.578 1959.53,-135.52 1936.24,-108.189"/>
</g>
<!-- 5086&#45;&#45;5088 -->
<g id="edge87" class="edge"><title>5086&#45;&#45;5088</title>
<path fill="none" stroke="black" d="M1901.27,-143.697C1905.46,-132.846 1910.83,-118.917 1915,-108.104"/>
</g>
<!-- 5319 -->
<g id="node39" class="node"><title>5319</title>
<ellipse fill="none" stroke="black" cx="2191.6" cy="-450" rx="28.6953" ry="18"/>
<text text-anchor="middle" x="2191.6" y="-446.3" font-family="Times New Roman,serif" font-size="14.00">5319</text>
</g>
<!-- 5320 -->
<g id="node40" class="node"><title>5320</title>
<ellipse fill="none" stroke="black" cx="2237.6" cy="-306" rx="28.6953" ry="18"/>
<text text-anchor="middle" x="2237.6" y="-302.3" font-family="Times New Roman,serif" font-size="14.00">5320</text>
</g>
<!-- 5319&#45;&#45;5320 -->
<g id="edge88" class="edge"><title>5319&#45;&#45;5320</title>
<path fill="none" stroke="black" d="M2189.63,-431.991C2188.17,-413.616 2187.72,-383.778 2196.6,-360 2202.05,-345.396 2213.03,-331.559 2222.25,-321.688"/>
</g>
<!-- 10784 -->
<g id="node41" class="node"><title>10784</title>
<ellipse fill="none" stroke="black" cx="2237.6" cy="-378" rx="32.4942" ry="18"/>
<text text-anchor="middle" x="2237.6" y="-374.3" font-family="Times New Roman,serif" font-size="14.00">10784</text>
</g>
<!-- 5319&#45;&#45;10784 -->
<g id="edge89" class="edge"><title>5319&#45;&#45;10784</title>
<path fill="none" stroke="black" d="M2202.04,-433.116C2209.46,-421.821 2219.4,-406.696 2226.88,-395.307"/>
</g>
<!-- 10784&#45;&#45;5320 -->
<g id="edge90" class="edge"><title>10784&#45;&#45;5320</title>
<path fill="none" stroke="black" d="M2237.6,-359.697C2237.6,-348.846 2237.6,-334.917 2237.6,-324.104"/>
</g>
<!-- 6009 -->
<g id="node42" class="node"><title>6009</title>
<ellipse fill="none" stroke="black" cx="1617.6" cy="-450" rx="28.6953" ry="18"/>
<text text-anchor="middle" x="1617.6" y="-446.3" font-family="Times New Roman,serif" font-size="14.00">6009</text>
</g>
<!-- 6009&#45;&#45;3318 -->
<g id="edge91" class="edge"><title>6009&#45;&#45;3318</title>
<path fill="none" stroke="black" d="M1606.93,-433.116C1599.24,-421.66 1588.9,-406.263 1581.22,-394.821"/>
</g>
<!-- 6009&#45;&#45;6012 -->
<g id="edge92" class="edge"><title>6009&#45;&#45;6012</title>
<path fill="none" stroke="black" d="M1618.8,-431.871C1620.73,-404.578 1624.46,-351.52 1626.39,-324.189"/>
</g>
<!-- 6015 -->
<g id="node43" class="node"><title>6015</title>
<ellipse fill="none" stroke="black" cx="2354.6" cy="-522" rx="28.6953" ry="18"/>
<text text-anchor="middle" x="2354.6" y="-518.3" font-family="Times New Roman,serif" font-size="14.00">6015</text>
</g>
<!-- 6016 -->
<g id="node44" class="node"><title>6016</title>
<ellipse fill="none" stroke="black" cx="2354.6" cy="-450" rx="28.6953" ry="18"/>
<text text-anchor="middle" x="2354.6" y="-446.3" font-family="Times New Roman,serif" font-size="14.00">6016</text>
</g>
<!-- 6015&#45;&#45;6016 -->
<g id="edge93" class="edge"><title>6015&#45;&#45;6016</title>
<path fill="none" stroke="black" d="M2354.6,-503.697C2354.6,-492.846 2354.6,-478.917 2354.6,-468.104"/>
</g>
<!-- 7675 -->
<g id="node45" class="node"><title>7675</title>
<ellipse fill="none" stroke="black" cx="2468.6" cy="-522" rx="28.6953" ry="18"/>
<text text-anchor="middle" x="2468.6" y="-518.3" font-family="Times New Roman,serif" font-size="14.00">7675</text>
</g>
<!-- 7676 -->
<g id="node46" class="node"><title>7676</title>
<ellipse fill="none" stroke="black" cx="2468.6" cy="-450" rx="28.6953" ry="18"/>
<text text-anchor="middle" x="2468.6" y="-446.3" font-family="Times New Roman,serif" font-size="14.00">7676</text>
</g>
<!-- 7675&#45;&#45;7676 -->
<g id="edge94" class="edge"><title>7675&#45;&#45;7676</title>
<path fill="none" stroke="black" d="M2468.6,-503.697C2468.6,-492.846 2468.6,-478.917 2468.6,-468.104"/>
</g>
<!-- 7678 -->
<g id="node47" class="node"><title>7678</title>
<ellipse fill="none" stroke="black" cx="2430.6" cy="-378" rx="28.6953" ry="18"/>
<text text-anchor="middle" x="2430.6" y="-374.3" font-family="Times New Roman,serif" font-size="14.00">7678</text>
</g>
<!-- 7675&#45;&#45;7678 -->
<g id="edge95" class="edge"><title>7675&#45;&#45;7678</title>
<path fill="none" stroke="black" d="M2454.1,-506.203C2445.43,-496.288 2435.24,-482.444 2430.6,-468 2422.89,-444.023 2425,-414.497 2427.55,-396.21"/>
</g>
<!-- 7680 -->
<g id="node48" class="node"><title>7680</title>
<ellipse fill="none" stroke="black" cx="2506.6" cy="-306" rx="28.6953" ry="18"/>
<text text-anchor="middle" x="2506.6" y="-302.3" font-family="Times New Roman,serif" font-size="14.00">7680</text>
</g>
<!-- 7675&#45;&#45;7680 -->
<g id="edge96" class="edge"><title>7675&#45;&#45;7680</title>
<path fill="none" stroke="black" d="M2483.1,-506.203C2491.76,-496.288 2501.95,-482.444 2506.6,-468 2522.76,-417.706 2515.06,-353.92 2509.92,-323.977"/>
</g>
<!-- 7676&#45;&#45;7678 -->
<g id="edge97" class="edge"><title>7676&#45;&#45;7678</title>
<path fill="none" stroke="black" d="M2459.78,-432.765C2453.64,-421.456 2445.49,-406.437 2439.36,-395.147"/>
</g>
<!-- 7676&#45;&#45;7680 -->
<g id="edge98" class="edge"><title>7676&#45;&#45;7680</title>
<path fill="none" stroke="black" d="M2473.11,-432.153C2480.42,-404.824 2494.79,-351.14 2502.1,-323.825"/>
</g>
<!-- 7678&#45;&#45;7680 -->
<g id="edge99" class="edge"><title>7678&#45;&#45;7680</title>
<path fill="none" stroke="black" d="M2446.34,-362.496C2459.48,-350.402 2478.08,-333.267 2491.13,-321.246"/>
</g>
<!-- 7795 -->
<g id="node49" class="node"><title>7795</title>
<ellipse fill="none" stroke="black" cx="2582.6" cy="-378" rx="28.6953" ry="18"/>
<text text-anchor="middle" x="2582.6" y="-374.3" font-family="Times New Roman,serif" font-size="14.00">7795</text>
</g>
<!-- 7795&#45;&#45;7680 -->
<g id="edge100" class="edge"><title>7795&#45;&#45;7680</title>
<path fill="none" stroke="black" d="M2566.85,-362.496C2553.72,-350.402 2535.12,-333.267 2522.06,-321.246"/>
</g>
<!-- 8201 -->
<g id="node50" class="node"><title>8201</title>
<ellipse fill="none" stroke="black" cx="2704.6" cy="-522" rx="28.6953" ry="18"/>
<text text-anchor="middle" x="2704.6" y="-518.3" font-family="Times New Roman,serif" font-size="14.00">8201</text>
</g>
<!-- 8202 -->
<g id="node51" class="node"><title>8202</title>
<ellipse fill="none" stroke="black" cx="2704.6" cy="-450" rx="28.6953" ry="18"/>
<text text-anchor="middle" x="2704.6" y="-446.3" font-family="Times New Roman,serif" font-size="14.00">8202</text>
</g>
<!-- 8201&#45;&#45;8202 -->
<g id="edge101" class="edge"><title>8201&#45;&#45;8202</title>
<path fill="none" stroke="black" d="M2704.6,-503.697C2704.6,-492.846 2704.6,-478.917 2704.6,-468.104"/>
</g>
<!-- 8204 -->
<g id="node52" class="node"><title>8204</title>
<ellipse fill="none" stroke="black" cx="2657.6" cy="-378" rx="28.6953" ry="18"/>
<text text-anchor="middle" x="2657.6" y="-374.3" font-family="Times New Roman,serif" font-size="14.00">8204</text>
</g>
<!-- 8201&#45;&#45;8204 -->
<g id="edge102" class="edge"><title>8201&#45;&#45;8204</title>
<path fill="none" stroke="black" d="M2690.59,-506.031C2682.12,-496.048 2671.96,-482.191 2666.6,-468 2657.65,-444.321 2656.45,-414.714 2656.75,-396.328"/>
</g>
<!-- 8206 -->
<g id="node53" class="node"><title>8206</title>
<ellipse fill="none" stroke="black" cx="2714.6" cy="-306" rx="28.6953" ry="18"/>
<text text-anchor="middle" x="2714.6" y="-302.3" font-family="Times New Roman,serif" font-size="14.00">8206</text>
</g>
<!-- 8201&#45;&#45;8206 -->
<g id="edge103" class="edge"><title>8201&#45;&#45;8206</title>
<path fill="none" stroke="black" d="M2719.1,-506.203C2727.76,-496.288 2737.95,-482.444 2742.6,-468 2759.09,-416.681 2735.68,-352.853 2722.51,-323.353"/>
</g>
<!-- 8202&#45;&#45;8204 -->
<g id="edge104" class="edge"><title>8202&#45;&#45;8204</title>
<path fill="none" stroke="black" d="M2693.93,-433.116C2686.24,-421.66 2675.9,-406.263 2668.22,-394.821"/>
</g>
<!-- 8202&#45;&#45;8206 -->
<g id="edge105" class="edge"><title>8202&#45;&#45;8206</title>
<path fill="none" stroke="black" d="M2705.8,-431.871C2707.73,-404.578 2711.46,-351.52 2713.39,-324.189"/>
</g>
<!-- 8204&#45;&#45;8206 -->
<g id="edge106" class="edge"><title>8204&#45;&#45;8206</title>
<path fill="none" stroke="black" d="M2670.25,-361.465C2679.69,-349.865 2692.55,-334.082 2701.98,-322.492"/>
</g>
<!-- 9241 -->
<g id="node54" class="node"><title>9241</title>
<ellipse fill="none" stroke="black" cx="1697.6" cy="-450" rx="28.6953" ry="18"/>
<text text-anchor="middle" x="1697.6" y="-446.3" font-family="Times New Roman,serif" font-size="14.00">9241</text>
</g>
<!-- 9241&#45;&#45;3318 -->
<g id="edge107" class="edge"><title>9241&#45;&#45;3318</title>
<path fill="none" stroke="black" d="M1676.63,-437.441C1653.09,-424.471 1615.14,-403.553 1591.6,-390.576"/>
</g>
<!-- 9241&#45;&#45;9244 -->
<g id="edge108" class="edge"><title>9241&#45;&#45;9244</title>
<path fill="none" stroke="black" d="M1698.2,-431.871C1699.16,-404.578 1701.03,-351.52 1701.99,-324.189"/>
</g>
<!-- 9583 -->
<g id="node55" class="node"><title>9583</title>
<ellipse fill="none" stroke="black" cx="2818.6" cy="-522" rx="28.6953" ry="18"/>
<text text-anchor="middle" x="2818.6" y="-518.3" font-family="Times New Roman,serif" font-size="14.00">9583</text>
</g>
<!-- 9584 -->
<g id="node56" class="node"><title>9584</title>
<ellipse fill="none" stroke="black" cx="2818.6" cy="-450" rx="28.6953" ry="18"/>
<text text-anchor="middle" x="2818.6" y="-446.3" font-family="Times New Roman,serif" font-size="14.00">9584</text>
</g>
<!-- 9583&#45;&#45;9584 -->
<g id="edge109" class="edge"><title>9583&#45;&#45;9584</title>
<path fill="none" stroke="black" d="M2818.6,-503.697C2818.6,-492.846 2818.6,-478.917 2818.6,-468.104"/>
</g>
<!-- 9713 -->
<g id="node57" class="node"><title>9713</title>
<ellipse fill="none" stroke="black" cx="2960.6" cy="-522" rx="28.6953" ry="18"/>
<text text-anchor="middle" x="2960.6" y="-518.3" font-family="Times New Roman,serif" font-size="14.00">9713</text>
</g>
<!-- 9714 -->
<g id="node58" class="node"><title>9714</title>
<ellipse fill="none" stroke="black" cx="2989.6" cy="-450" rx="28.6953" ry="18"/>
<text text-anchor="middle" x="2989.6" y="-446.3" font-family="Times New Roman,serif" font-size="14.00">9714</text>
</g>
<!-- 9713&#45;&#45;9714 -->
<g id="edge110" class="edge"><title>9713&#45;&#45;9714</title>
<path fill="none" stroke="black" d="M2967.47,-504.411C2972.03,-493.414 2977.99,-479.027 2982.57,-467.956"/>
</g>
<!-- 9716 -->
<g id="node59" class="node"><title>9716</title>
<ellipse fill="none" stroke="black" cx="2932.6" cy="-378" rx="28.6953" ry="18"/>
<text text-anchor="middle" x="2932.6" y="-374.3" font-family="Times New Roman,serif" font-size="14.00">9716</text>
</g>
<!-- 9713&#45;&#45;9716 -->
<g id="edge111" class="edge"><title>9713&#45;&#45;9716</title>
<path fill="none" stroke="black" d="M2957.22,-503.871C2951.84,-476.578 2941.38,-423.52 2935.99,-396.189"/>
</g>
<!-- 9718 -->
<g id="node60" class="node"><title>9718</title>
<ellipse fill="none" stroke="black" cx="3046.6" cy="-306" rx="28.6953" ry="18"/>
<text text-anchor="middle" x="3046.6" y="-302.3" font-family="Times New Roman,serif" font-size="14.00">9718</text>
</g>
<!-- 9713&#45;&#45;9718 -->
<g id="edge112" class="edge"><title>9713&#45;&#45;9718</title>
<path fill="none" stroke="black" d="M2982.19,-509.959C2997.56,-500.883 3017.25,-486.515 3027.6,-468 3053.68,-421.316 3051.51,-355.243 3048.66,-324.277"/>
</g>
<!-- 9720 -->
<g id="node61" class="node"><title>9720</title>
<ellipse fill="none" stroke="black" cx="2965.6" cy="-234" rx="28.6953" ry="18"/>
<text text-anchor="middle" x="2965.6" y="-230.3" font-family="Times New Roman,serif" font-size="14.00">9720</text>
</g>
<!-- 9713&#45;&#45;9720 -->
<g id="edge113" class="edge"><title>9713&#45;&#45;9720</title>
<path fill="none" stroke="black" d="M2947.14,-505.922C2923.85,-477.95 2879.86,-415.785 2894.6,-360 2906.01,-316.807 2936.17,-272.904 2953.29,-250.4"/>
</g>
<!-- 9714&#45;&#45;9716 -->
<g id="edge114" class="edge"><title>9714&#45;&#45;9716</title>
<path fill="none" stroke="black" d="M2976.95,-433.465C2967.5,-421.865 2954.65,-406.082 2945.21,-394.492"/>
</g>
<!-- 9714&#45;&#45;9718 -->
<g id="edge115" class="edge"><title>9714&#45;&#45;9718</title>
<path fill="none" stroke="black" d="M2996.25,-432.433C3007.17,-405.217 3028.8,-351.334 3039.81,-323.902"/>
</g>
<!-- 9714&#45;&#45;9720 -->
<g id="edge116" class="edge"><title>9714&#45;&#45;9720</title>
<path fill="none" stroke="black" d="M2987.67,-431.849C2983.18,-391.78 2972.03,-292.383 2967.53,-252.232"/>
</g>
<!-- 9716&#45;&#45;9718 -->
<g id="edge117" class="edge"><title>9716&#45;&#45;9718</title>
<path fill="none" stroke="black" d="M2952.45,-364.807C2973.25,-352.037 3005.73,-332.093 3026.59,-319.288"/>
</g>
<!-- 9716&#45;&#45;9720 -->
<g id="edge118" class="edge"><title>9716&#45;&#45;9720</title>
<path fill="none" stroke="black" d="M2936.51,-360.153C2942.83,-332.971 2955.21,-279.717 2961.58,-252.268"/>
</g>
<!-- 9718&#45;&#45;9720 -->
<g id="edge119" class="edge"><title>9718&#45;&#45;9720</title>
<path fill="none" stroke="black" d="M3030.21,-290.834C3016.06,-278.61 2995.75,-261.054 2981.69,-248.906"/>
</g>
<!-- 10781 -->
<g id="node62" class="node"><title>10781</title>
<ellipse fill="none" stroke="black" cx="2248.6" cy="-522" rx="32.4942" ry="18"/>
<text text-anchor="middle" x="2248.6" y="-518.3" font-family="Times New Roman,serif" font-size="14.00">10781</text>
</g>
<!-- 10781&#45;&#45;5319 -->
<g id="edge120" class="edge"><title>10781&#45;&#45;5319</title>
<path fill="none" stroke="black" d="M2235.66,-505.116C2226.2,-493.499 2213.44,-477.828 2204.09,-466.34"/>
</g>
<!-- 10781&#45;&#45;5320 -->
<g id="edge122" class="edge"><title>10781&#45;&#45;5320</title>
<path fill="none" stroke="black" d="M2257.03,-504.608C2271.08,-475.045 2296.06,-411.121 2278.6,-360 2273.56,-345.249 2262.56,-331.419 2253.22,-321.587"/>
</g>
<!-- 10781&#45;&#45;10784 -->
<g id="edge121" class="edge"><title>10781&#45;&#45;10784</title>
<path fill="none" stroke="black" d="M2247.27,-503.871C2245.16,-476.578 2241.05,-423.52 2238.93,-396.189"/>
</g>
</g>
</svg>
