<svg width="1888px" height="539px"
 viewBox="0.00 0.00 1416.00 404.00" xmlns="http://www.w3.org/2000/svg" xmlns:xlink="http://www.w3.org/1999/xlink">
<g id="graph0" class="graph" transform="scale(1.000022500562514 1.000022500562514) rotate(0) translate(4 400)">
<title>G</title>
<polygon fill="white" stroke="none" points="-4,4 -4,-400 1412,-400 1412,4 -4,4"/>
<!-- 2507 -->
<g id="node1" class="node"><title>2507</title>
<polygon fill="#7c9169" stroke="#7c9169" points="335,-252 281,-252 281,-216 335,-216 335,-252"/>
<text text-anchor="middle" x="308" y="-230.3" font-family="Times New Roman,serif" font-size="14.00">2507</text>
</g>
<!-- 2508 -->
<g id="node2" class="node"><title>2508</title>
<polygon fill="#33443f" stroke="#33443f" points="316,-180 262,-180 262,-144 316,-144 316,-180"/>
<text text-anchor="middle" x="289" y="-158.3" font-family="Times New Roman,serif" font-size="14.00">2508</text>
</g>
<!-- 2507&#45;&#45;2508 -->
<g id="edge1" class="edge"><title>2507&#45;&#45;2508</title>
<path fill="none" stroke="black" d="M303.303,-215.697C300.358,-204.846 296.577,-190.917 293.643,-180.104"/>
</g>
<!-- 2510 -->
<g id="node5" class="node"><title>2510</title>
<polygon fill="#626043" stroke="#626043" points="474,-36 420,-36 420,-0 474,-0 474,-36"/>
<text text-anchor="middle" x="447" y="-14.3" font-family="Times New Roman,serif" font-size="14.00">2510</text>
</g>
<!-- 2507&#45;&#45;2510 -->
<g id="edge2" class="edge"><title>2507&#45;&#45;2510</title>
<path fill="none" stroke="black" d="M317.69,-215.684C334.624,-185.753 371.132,-122.682 406,-72 414.44,-59.7323 424.69,-46.4823 432.83,-36.2992"/>
</g>
<!-- 2514 -->
<g id="node3" class="node"><title>2514</title>
<polygon fill="#44924e" stroke="#44924e" points="168,-108 114,-108 114,-72 168,-72 168,-108"/>
<text text-anchor="middle" x="141" y="-86.3" font-family="Times New Roman,serif" font-size="14.00">2514</text>
</g>
<!-- 2508&#45;&#45;2514 -->
<g id="edge3" class="edge"><title>2508&#45;&#45;2514</title>
<path fill="none" stroke="black" d="M261.855,-148.161C235.234,-135.57 194.871,-116.48 168.224,-103.876"/>
</g>
<!-- 2522 -->
<g id="node4" class="node"><title>2522</title>
<polygon fill="#38557d" stroke="#38557d" points="195,-36 141,-36 141,-0 195,-0 195,-36"/>
<text text-anchor="middle" x="168" y="-14.3" font-family="Times New Roman,serif" font-size="14.00">2522</text>
</g>
<!-- 2508&#45;&#45;2522 -->
<g id="edge4" class="edge"><title>2508&#45;&#45;2522</title>
<path fill="none" stroke="black" d="M274.405,-143.871C251.148,-116.578 205.936,-63.5205 182.647,-36.1893"/>
</g>
<!-- 2508&#45;&#45;2510 -->
<g id="edge5" class="edge"><title>2508&#45;&#45;2510</title>
<path fill="none" stroke="black" d="M302.117,-143.758C316.927,-124.914 342.324,-94.424 368,-72 384.047,-57.9854 403.982,-44.637 419.811,-34.8421"/>
</g>
<!-- 9692 -->
<g id="node6" class="node"><title>9692</title>
<polygon fill="#796d5a" stroke="#796d5a" points="316,-108 262,-108 262,-72 316,-72 316,-108"/>
<text text-anchor="middle" x="289" y="-86.3" font-family="Times New Roman,serif" font-size="14.00">9692</text>
</g>
<!-- 2508&#45;&#45;9692 -->
<g id="edge6" class="edge"><title>2508&#45;&#45;9692</title>
<path fill="none" stroke="black" d="M289,-143.697C289,-132.846 289,-118.917 289,-108.104"/>
</g>
<!-- 2514&#45;&#45;2522 -->
<g id="edge7" class="edge"><title>2514&#45;&#45;2522</title>
<path fill="none" stroke="black" d="M147.674,-71.6966C151.859,-60.8463 157.232,-46.9167 161.403,-36.1043"/>
</g>
<!-- 2514&#45;&#45;2510 -->
<g id="edge8" class="edge"><title>2514&#45;&#45;2510</title>
<path fill="none" stroke="black" d="M168.155,-82.788C226.224,-69.5043 361.891,-38.4694 419.905,-25.1981"/>
</g>
<!-- 2511 -->
<g id="node7" class="node"><title>2511</title>
<polygon fill="#90978b" stroke="#90978b" points="375,-324 321,-324 321,-288 375,-288 375,-324"/>
<text text-anchor="middle" x="348" y="-302.3" font-family="Times New Roman,serif" font-size="14.00">2511</text>
</g>
<!-- 2511&#45;&#45;2514 -->
<g id="edge10" class="edge"><title>2511&#45;&#45;2514</title>
<path fill="none" stroke="black" d="M320.959,-288.779C305.792,-279.053 286.971,-265.901 272,-252 221.828,-205.412 173.97,-139.293 152.628,-108.296"/>
</g>
<!-- 2511&#45;&#45;2510 -->
<g id="edge11" class="edge"><title>2511&#45;&#45;2510</title>
<path fill="none" stroke="black" d="M361.779,-287.818C377.968,-268.467 406.397,-236.987 436,-216 466.49,-194.384 488.881,-209.367 512,-180 541.976,-141.923 549.928,-114.694 527,-72 515.886,-51.3046 492.746,-37.3284 474.199,-28.9479"/>
</g>
<!-- 2512 -->
<g id="node8" class="node"><title>2512</title>
<polygon fill="#467539" stroke="#467539" points="616,-180 562,-180 562,-144 616,-144 616,-180"/>
<text text-anchor="middle" x="589" y="-158.3" font-family="Times New Roman,serif" font-size="14.00">2512</text>
</g>
<!-- 2511&#45;&#45;2512 -->
<g id="edge9" class="edge"><title>2511&#45;&#45;2512</title>
<path fill="none" stroke="black" d="M375.177,-288.987C421.586,-261.642 515.581,-206.259 561.922,-178.955"/>
</g>
<!-- 6692 -->
<g id="node9" class="node"><title>6692</title>
<polygon fill="#7c5c51" stroke="#7c5c51" points="202,-252 148,-252 148,-216 202,-216 202,-252"/>
<text text-anchor="middle" x="175" y="-230.3" font-family="Times New Roman,serif" font-size="14.00">6692</text>
</g>
<!-- 2511&#45;&#45;6692 -->
<g id="edge12" class="edge"><title>2511&#45;&#45;6692</title>
<path fill="none" stroke="black" d="M320.914,-294.228C294.205,-283.581 252.24,-266.788 216,-252 211.577,-250.195 206.891,-248.267 202.329,-246.382"/>
</g>
<!-- 2512&#45;&#45;2510 -->
<g id="edge13" class="edge"><title>2512&#45;&#45;2510</title>
<path fill="none" stroke="black" d="M592.637,-143.75C595.692,-124.335 597.407,-92.7982 582,-72 556.595,-37.7065 505.649,-25.5905 474.122,-21.318"/>
</g>
<!-- 6692&#45;&#45;2514 -->
<g id="edge14" class="edge"><title>6692&#45;&#45;2514</title>
<path fill="none" stroke="black" d="M170.899,-215.871C164.364,-188.578 151.66,-135.52 145.116,-108.189"/>
</g>
<!-- 6692&#45;&#45;2510 -->
<g id="edge15" class="edge"><title>6692&#45;&#45;2510</title>
<path fill="none" stroke="black" d="M178.411,-215.763C185.864,-182.734 206.77,-110.402 253,-72 301.88,-31.3962 379.313,-21.738 419.994,-19.5471"/>
</g>
<!-- 6968 -->
<g id="node10" class="node"><title>6968</title>
<polygon fill="#3b884d" stroke="#3b884d" points="54,-180 0,-180 0,-144 54,-144 54,-180"/>
<text text-anchor="middle" x="27" y="-158.3" font-family="Times New Roman,serif" font-size="14.00">6968</text>
</g>
<!-- 6692&#45;&#45;6968 -->
<g id="edge16" class="edge"><title>6692&#45;&#45;6968</title>
<path fill="none" stroke="black" d="M147.855,-220.161C121.234,-207.57 80.8709,-188.48 54.2236,-175.876"/>
</g>
<!-- 6968&#45;&#45;2514 -->
<g id="edge17" class="edge"><title>6968&#45;&#45;2514</title>
<path fill="none" stroke="black" d="M54.0164,-144.411C72.0572,-133.333 95.7002,-118.816 113.782,-107.713"/>
</g>
<!-- 11054 -->
<g id="node11" class="node"><title>11054</title>
<polygon fill="#5e8f89" stroke="#5e8f89" points="54,-108 0,-108 0,-72 54,-72 54,-108"/>
<text text-anchor="middle" x="27" y="-86.3" font-family="Times New Roman,serif" font-size="14.00">11054</text>
</g>
<!-- 6968&#45;&#45;11054 -->
<g id="edge18" class="edge"><title>6968&#45;&#45;11054</title>
<path fill="none" stroke="black" d="M27,-143.697C27,-132.846 27,-118.917 27,-108.104"/>
</g>
<!-- 5339 -->
<g id="node12" class="node"><title>5339</title>
<polygon fill="#4b9b39" stroke="#4b9b39" points="761,-396 707,-396 707,-360 761,-360 761,-396"/>
<text text-anchor="middle" x="734" y="-374.3" font-family="Times New Roman,serif" font-size="14.00">5339</text>
</g>
<!-- 5340 -->
<g id="node13" class="node"><title>5340</title>
<polygon fill="#589576" stroke="#589576" points="793,-324 739,-324 739,-288 793,-288 793,-324"/>
<text text-anchor="middle" x="766" y="-302.3" font-family="Times New Roman,serif" font-size="14.00">5340</text>
</g>
<!-- 5339&#45;&#45;5340 -->
<g id="edge19" class="edge"><title>5339&#45;&#45;5340</title>
<path fill="none" stroke="black" d="M741.91,-359.697C746.87,-348.846 753.238,-334.917 758.181,-324.104"/>
</g>
<!-- 5342 -->
<g id="node14" class="node"><title>5342</title>
<polygon fill="#996c84" stroke="#996c84" points="726,-252 672,-252 672,-216 726,-216 726,-252"/>
<text text-anchor="middle" x="699" y="-230.3" font-family="Times New Roman,serif" font-size="14.00">5342</text>
</g>
<!-- 5339&#45;&#45;5342 -->
<g id="edge20" class="edge"><title>5339&#45;&#45;5342</title>
<path fill="none" stroke="black" d="M729.778,-359.871C723.051,-332.578 709.973,-279.52 703.237,-252.189"/>
</g>
<!-- 5340&#45;&#45;5342 -->
<g id="edge21" class="edge"><title>5340&#45;&#45;5342</title>
<path fill="none" stroke="black" d="M749.438,-287.697C739.053,-276.846 725.72,-262.917 715.371,-252.104"/>
</g>
<!-- 7274 -->
<g id="node15" class="node"><title>7274</title>
<polygon fill="#437d90" stroke="#437d90" points="798,-252 744,-252 744,-216 798,-216 798,-252"/>
<text text-anchor="middle" x="771" y="-230.3" font-family="Times New Roman,serif" font-size="14.00">7274</text>
</g>
<!-- 5340&#45;&#45;7274 -->
<g id="edge22" class="edge"><title>5340&#45;&#45;7274</title>
<path fill="none" stroke="black" d="M767.236,-287.697C768.011,-276.846 769.006,-262.917 769.778,-252.104"/>
</g>
<!-- 7276 -->
<g id="node16" class="node"><title>7276</title>
<polygon fill="#963d47" stroke="#963d47" points="825,-180 771,-180 771,-144 825,-144 825,-180"/>
<text text-anchor="middle" x="798" y="-158.3" font-family="Times New Roman,serif" font-size="14.00">7276</text>
</g>
<!-- 5340&#45;&#45;7276 -->
<g id="edge23" class="edge"><title>5340&#45;&#45;7276</title>
<path fill="none" stroke="black" d="M784.169,-287.677C792.885,-278.097 802.412,-265.43 807,-252 815.184,-228.045 809.298,-198.514 803.941,-180.219"/>
</g>
<!-- 7274&#45;&#45;7276 -->
<g id="edge24" class="edge"><title>7274&#45;&#45;7276</title>
<path fill="none" stroke="black" d="M777.674,-215.697C781.859,-204.846 787.232,-190.917 791.403,-180.104"/>
</g>
<!-- 5961 -->
<g id="node17" class="node"><title>5961</title>
<polygon fill="#49903c" stroke="#49903c" points="865,-396 811,-396 811,-360 865,-360 865,-396"/>
<text text-anchor="middle" x="838" y="-374.3" font-family="Times New Roman,serif" font-size="14.00">5961</text>
</g>
<!-- 5962 -->
<g id="node18" class="node"><title>5962</title>
<polygon fill="#677d7d" stroke="#677d7d" points="865,-324 811,-324 811,-288 865,-288 865,-324"/>
<text text-anchor="middle" x="838" y="-302.3" font-family="Times New Roman,serif" font-size="14.00">5962</text>
</g>
<!-- 5961&#45;&#45;5962 -->
<g id="edge25" class="edge"><title>5961&#45;&#45;5962</title>
<path fill="none" stroke="black" d="M838,-359.697C838,-348.846 838,-334.917 838,-324.104"/>
</g>
<!-- 6689 -->
<g id="node19" class="node"><title>6689</title>
<polygon fill="#524440" stroke="#524440" points="411,-396 357,-396 357,-360 411,-360 411,-396"/>
<text text-anchor="middle" x="384" y="-374.3" font-family="Times New Roman,serif" font-size="14.00">6689</text>
</g>
<!-- 6689&#45;&#45;2510 -->
<g id="edge28" class="edge"><title>6689&#45;&#45;2510</title>
<path fill="none" stroke="black" d="M411.333,-374.842C478.087,-367.932 644,-340.179 644,-235 644,-235 644,-235 644,-161 644,-117.261 634.603,-101.157 602,-72 565.433,-39.2967 507.769,-26.6019 474.042,-21.7997"/>
</g>
<!-- 6689&#45;&#45;2511 -->
<g id="edge26" class="edge"><title>6689&#45;&#45;2511</title>
<path fill="none" stroke="black" d="M375.101,-359.697C369.521,-348.846 362.357,-334.917 356.797,-324.104"/>
</g>
<!-- 6689&#45;&#45;6692 -->
<g id="edge27" class="edge"><title>6689&#45;&#45;6692</title>
<path fill="none" stroke="black" d="M358.79,-359.871C318.619,-332.578 240.527,-279.52 200.3,-252.189"/>
</g>
<!-- 7562 -->
<g id="node20" class="node"><title>7562</title>
<polygon fill="#418d93" stroke="#418d93" points="447,-324 393,-324 393,-288 447,-288 447,-324"/>
<text text-anchor="middle" x="420" y="-302.3" font-family="Times New Roman,serif" font-size="14.00">7562</text>
</g>
<!-- 6689&#45;&#45;7562 -->
<g id="edge29" class="edge"><title>6689&#45;&#45;7562</title>
<path fill="none" stroke="black" d="M392.899,-359.697C398.479,-348.846 405.643,-334.917 411.203,-324.104"/>
</g>
<!-- 7562&#45;&#45;2510 -->
<g id="edge30" class="edge"><title>7562&#45;&#45;2510</title>
<path fill="none" stroke="black" d="M421.003,-287.714C423.339,-249.003 429.662,-152.428 439,-72 440.395,-59.9834 442.436,-46.5039 444.108,-36.146"/>
</g>
<!-- 6701 -->
<g id="node21" class="node"><title>6701</title>
<polygon fill="#8f7478" stroke="#8f7478" points="503,-180 449,-180 449,-144 503,-144 503,-180"/>
<text text-anchor="middle" x="476" y="-158.3" font-family="Times New Roman,serif" font-size="14.00">6701</text>
</g>
<!-- 6701&#45;&#45;2510 -->
<g id="edge32" class="edge"><title>6701&#45;&#45;2510</title>
<path fill="none" stroke="black" d="M491.061,-143.993C505.178,-125.875 522.517,-96.4905 511,-72 503.326,-55.6813 487.887,-42.6626 474.096,-33.612"/>
</g>
<!-- 6702 -->
<g id="node22" class="node"><title>6702</title>
<polygon fill="#376777" stroke="#376777" points="502,-108 448,-108 448,-72 502,-72 502,-108"/>
<text text-anchor="middle" x="475" y="-86.3" font-family="Times New Roman,serif" font-size="14.00">6702</text>
</g>
<!-- 6701&#45;&#45;6702 -->
<g id="edge31" class="edge"><title>6701&#45;&#45;6702</title>
<path fill="none" stroke="black" d="M475.753,-143.697C475.598,-132.846 475.399,-118.917 475.244,-108.104"/>
</g>
<!-- 6702&#45;&#45;2510 -->
<g id="edge33" class="edge"><title>6702&#45;&#45;2510</title>
<path fill="none" stroke="black" d="M468.079,-71.6966C463.739,-60.8463 458.167,-46.9167 453.842,-36.1043"/>
</g>
<!-- 6965 -->
<g id="node23" class="node"><title>6965</title>
<polygon fill="#765e72" stroke="#765e72" points="92,-324 38,-324 38,-288 92,-288 92,-324"/>
<text text-anchor="middle" x="65" y="-302.3" font-family="Times New Roman,serif" font-size="14.00">6965</text>
</g>
<!-- 6965&#45;&#45;2514 -->
<g id="edge36" class="edge"><title>6965&#45;&#45;2514</title>
<path fill="none" stroke="black" d="M78.9998,-287.779C86.4737,-277.836 95.284,-264.797 101,-252 123.2,-202.299 134.423,-138.23 138.777,-108.098"/>
</g>
<!-- 6965&#45;&#45;6968 -->
<g id="edge35" class="edge"><title>6965&#45;&#45;6968</title>
<path fill="none" stroke="black" d="M49.508,-287.737C41.7795,-277.983 33.2019,-265.137 29,-252 21.3254,-228.005 22.6131,-198.485 24.5615,-180.203"/>
</g>
<!-- 6966 -->
<g id="node24" class="node"><title>6966</title>
<polygon fill="#555995" stroke="#555995" points="92,-252 38,-252 38,-216 92,-216 92,-252"/>
<text text-anchor="middle" x="65" y="-230.3" font-family="Times New Roman,serif" font-size="14.00">6966</text>
</g>
<!-- 6965&#45;&#45;6966 -->
<g id="edge34" class="edge"><title>6965&#45;&#45;6966</title>
<path fill="none" stroke="black" d="M65,-287.697C65,-276.846 65,-262.917 65,-252.104"/>
</g>
<!-- 6966&#45;&#45;2514 -->
<g id="edge38" class="edge"><title>6966&#45;&#45;2514</title>
<path fill="none" stroke="black" d="M71.9642,-215.891C79.5837,-197.688 92.5195,-168.233 106,-144 112.861,-131.666 121.611,-118.416 128.646,-108.249"/>
</g>
<!-- 6966&#45;&#45;6968 -->
<g id="edge37" class="edge"><title>6966&#45;&#45;6968</title>
<path fill="none" stroke="black" d="M55.6067,-215.697C49.7166,-204.846 42.1548,-190.917 36.2852,-180.104"/>
</g>
<!-- 9321 -->
<g id="node25" class="node"><title>9321</title>
<polygon fill="#61687e" stroke="#61687e" points="937,-396 883,-396 883,-360 937,-360 937,-396"/>
<text text-anchor="middle" x="910" y="-374.3" font-family="Times New Roman,serif" font-size="14.00">9321</text>
</g>
<!-- 9322 -->
<g id="node26" class="node"><title>9322</title>
<polygon fill="#62458b" stroke="#62458b" points="937,-324 883,-324 883,-288 937,-288 937,-324"/>
<text text-anchor="middle" x="910" y="-302.3" font-family="Times New Roman,serif" font-size="14.00">9322</text>
</g>
<!-- 9321&#45;&#45;9322 -->
<g id="edge39" class="edge"><title>9321&#45;&#45;9322</title>
<path fill="none" stroke="black" d="M910,-359.697C910,-348.846 910,-334.917 910,-324.104"/>
</g>
<!-- 10457 -->
<g id="node27" class="node"><title>10457</title>
<polygon fill="#9a4b42" stroke="#9a4b42" points="1125,-396 1071,-396 1071,-360 1125,-360 1125,-396"/>
<text text-anchor="middle" x="1098" y="-374.3" font-family="Times New Roman,serif" font-size="14.00">10457</text>
</g>
<!-- 10458 -->
<g id="node28" class="node"><title>10458</title>
<polygon fill="#664360" stroke="#664360" points="1125,-324 1071,-324 1071,-288 1125,-288 1125,-324"/>
<text text-anchor="middle" x="1098" y="-302.3" font-family="Times New Roman,serif" font-size="14.00">10458</text>
</g>
<!-- 10457&#45;&#45;10458 -->
<g id="edge40" class="edge"><title>10457&#45;&#45;10458</title>
<path fill="none" stroke="black" d="M1098,-359.697C1098,-348.846 1098,-334.917 1098,-324.104"/>
</g>
<!-- 10460 -->
<g id="node29" class="node"><title>10460</title>
<polygon fill="#557290" stroke="#557290" points="1199,-252 1145,-252 1145,-216 1199,-216 1199,-252"/>
<text text-anchor="middle" x="1172" y="-230.3" font-family="Times New Roman,serif" font-size="14.00">10460</text>
</g>
<!-- 10457&#45;&#45;10460 -->
<g id="edge41" class="edge"><title>10457&#45;&#45;10460</title>
<path fill="none" stroke="black" d="M1110.88,-359.871C1118.17,-349.744 1127.17,-336.494 1134,-324 1147.13,-299.968 1158.95,-270.458 1165.8,-252.188"/>
</g>
<!-- 10462 -->
<g id="node30" class="node"><title>10462</title>
<polygon fill="#7c8f58" stroke="#7c8f58" points="1199,-180 1145,-180 1145,-144 1199,-144 1199,-180"/>
<text text-anchor="middle" x="1172" y="-158.3" font-family="Times New Roman,serif" font-size="14.00">10462</text>
</g>
<!-- 10457&#45;&#45;10462 -->
<g id="edge42" class="edge"><title>10457&#45;&#45;10462</title>
<path fill="none" stroke="black" d="M1121.78,-359.989C1149.33,-338.539 1192.88,-298.759 1208,-252 1212.92,-236.776 1212.7,-231.293 1208,-216 1203.95,-202.816 1195.37,-189.97 1187.61,-180.226"/>
</g>
<!-- 10464 -->
<g id="node31" class="node"><title>10464</title>
<polygon fill="#4e865b" stroke="#4e865b" points="1133,-108 1079,-108 1079,-72 1133,-72 1133,-108"/>
<text text-anchor="middle" x="1106" y="-86.3" font-family="Times New Roman,serif" font-size="14.00">10464</text>
</g>
<!-- 10457&#45;&#45;10464 -->
<g id="edge43" class="edge"><title>10457&#45;&#45;10464</title>
<path fill="none" stroke="black" d="M1082.39,-359.774C1074.63,-350.03 1066.05,-337.184 1062,-324 1037.8,-245.304 1078.27,-147.359 1097.13,-108.273"/>
</g>
<!-- 10466 -->
<g id="node32" class="node"><title>10466</title>
<polygon fill="#365a63" stroke="#365a63" points="1133,-36 1079,-36 1079,-0 1133,-0 1133,-36"/>
<text text-anchor="middle" x="1106" y="-14.3" font-family="Times New Roman,serif" font-size="14.00">10466</text>
</g>
<!-- 10457&#45;&#45;10466 -->
<g id="edge44" class="edge"><title>10457&#45;&#45;10466</title>
<path fill="none" stroke="black" d="M1070.76,-363.498C1031.85,-342.06 965,-296.306 965,-235 965,-235 965,-235 965,-161 965,-97.0752 1037.84,-51.6849 1078.81,-31.2094"/>
</g>
<!-- 10458&#45;&#45;10460 -->
<g id="edge45" class="edge"><title>10458&#45;&#45;10460</title>
<path fill="none" stroke="black" d="M1116.29,-287.697C1127.76,-276.846 1142.49,-262.917 1153.92,-252.104"/>
</g>
<!-- 10458&#45;&#45;10462 -->
<g id="edge46" class="edge"><title>10458&#45;&#45;10462</title>
<path fill="none" stroke="black" d="M1104.2,-287.812C1111.05,-269.542 1122.87,-240.032 1136,-216 1142.83,-203.506 1151.83,-190.256 1159.12,-180.129"/>
</g>
<!-- 10458&#45;&#45;10464 -->
<g id="edge47" class="edge"><title>10458&#45;&#45;10464</title>
<path fill="none" stroke="black" d="M1098.64,-287.849C1100.14,-247.78 1103.85,-148.383 1105.36,-108.232"/>
</g>
<!-- 10458&#45;&#45;10466 -->
<g id="edge48" class="edge"><title>10458&#45;&#45;10466</title>
<path fill="none" stroke="black" d="M1091.24,-287.904C1076.76,-248.779 1045.99,-150.08 1070,-72 1074.05,-58.8163 1082.63,-45.9695 1090.39,-36.2264"/>
</g>
<!-- 10460&#45;&#45;10462 -->
<g id="edge49" class="edge"><title>10460&#45;&#45;10462</title>
<path fill="none" stroke="black" d="M1172,-215.697C1172,-204.846 1172,-190.917 1172,-180.104"/>
</g>
<!-- 10460&#45;&#45;10464 -->
<g id="edge50" class="edge"><title>10460&#45;&#45;10464</title>
<path fill="none" stroke="black" d="M1158.4,-215.59C1151.05,-205.588 1142.23,-192.553 1136,-180 1124.18,-156.195 1115.25,-126.623 1110.32,-108.278"/>
</g>
<!-- 10460&#45;&#45;10466 -->
<g id="edge51" class="edge"><title>10460&#45;&#45;10466</title>
<path fill="none" stroke="black" d="M1187.61,-215.774C1195.37,-206.03 1203.95,-193.184 1208,-180 1212.7,-164.707 1212.41,-159.38 1208,-144 1194.87,-98.2289 1154.2,-58.1252 1128.36,-36.3459"/>
</g>
<!-- 10462&#45;&#45;10464 -->
<g id="edge52" class="edge"><title>10462&#45;&#45;10464</title>
<path fill="none" stroke="black" d="M1155.69,-143.697C1145.46,-132.846 1132.32,-118.917 1122.13,-108.104"/>
</g>
<!-- 10462&#45;&#45;10466 -->
<g id="edge53" class="edge"><title>10462&#45;&#45;10466</title>
<path fill="none" stroke="black" d="M1167.68,-143.722C1162.75,-125.377 1153.82,-95.8049 1142,-72 1135.77,-59.447 1126.95,-46.4117 1119.6,-36.4098"/>
</g>
<!-- 10464&#45;&#45;10466 -->
<g id="edge54" class="edge"><title>10464&#45;&#45;10466</title>
<path fill="none" stroke="black" d="M1106,-71.6966C1106,-60.8463 1106,-46.9167 1106,-36.1043"/>
</g>
<!-- 10697 -->
<g id="node33" class="node"><title>10697</title>
<polygon fill="#425b5b" stroke="#425b5b" points="1309,-396 1255,-396 1255,-360 1309,-360 1309,-396"/>
<text text-anchor="middle" x="1282" y="-374.3" font-family="Times New Roman,serif" font-size="14.00">10697</text>
</g>
<!-- 10698 -->
<g id="node34" class="node"><title>10698</title>
<polygon fill="#658389" stroke="#658389" points="1309,-324 1255,-324 1255,-288 1309,-288 1309,-324"/>
<text text-anchor="middle" x="1282" y="-302.3" font-family="Times New Roman,serif" font-size="14.00">10698</text>
</g>
<!-- 10697&#45;&#45;10698 -->
<g id="edge55" class="edge"><title>10697&#45;&#45;10698</title>
<path fill="none" stroke="black" d="M1282,-359.697C1282,-348.846 1282,-334.917 1282,-324.104"/>
</g>
<!-- 11099 -->
<g id="node35" class="node"><title>11099</title>
<polygon fill="#4b8f3c" stroke="#4b8f3c" points="1408,-396 1354,-396 1354,-360 1408,-360 1408,-396"/>
<text text-anchor="middle" x="1381" y="-374.3" font-family="Times New Roman,serif" font-size="14.00">11099</text>
</g>
<!-- 11100 -->
<g id="node36" class="node"><title>11100</title>
<polygon fill="#759678" stroke="#759678" points="1381,-324 1327,-324 1327,-288 1381,-288 1381,-324"/>
<text text-anchor="middle" x="1354" y="-302.3" font-family="Times New Roman,serif" font-size="14.00">11100</text>
</g>
<!-- 11099&#45;&#45;11100 -->
<g id="edge56" class="edge"><title>11099&#45;&#45;11100</title>
<path fill="none" stroke="black" d="M1374.33,-359.697C1370.14,-348.846 1364.77,-334.917 1360.6,-324.104"/>
</g>
<!-- 11102 -->
<g id="node37" class="node"><title>11102</title>
<polygon fill="#5e3640" stroke="#5e3640" points="1408,-252 1354,-252 1354,-216 1408,-216 1408,-252"/>
<text text-anchor="middle" x="1381" y="-230.3" font-family="Times New Roman,serif" font-size="14.00">11102</text>
</g>
<!-- 11099&#45;&#45;11102 -->
<g id="edge57" class="edge"><title>11099&#45;&#45;11102</title>
<path fill="none" stroke="black" d="M1384.65,-359.908C1386.68,-349.569 1388.98,-336.09 1390,-324 1391.34,-308.057 1391.34,-303.943 1390,-288 1388.98,-275.91 1386.68,-262.431 1384.65,-252.092"/>
</g>
<!-- 11100&#45;&#45;11102 -->
<g id="edge58" class="edge"><title>11100&#45;&#45;11102</title>
<path fill="none" stroke="black" d="M1360.67,-287.697C1364.86,-276.846 1370.23,-262.917 1374.4,-252.104"/>
</g>
</g>
</svg>
