<svg width="472px" height="639px"
 viewBox="0.00 0.00 354.00 479.00" xmlns="http://www.w3.org/2000/svg" xmlns:xlink="http://www.w3.org/1999/xlink">
<g id="graph0" class="graph" transform="scale(1.000022500562514 1.000022500562514) rotate(0) translate(4 475)">
<title>G</title>
<polygon fill="white" stroke="none" points="-4,4 -4,-475 350,-475 350,4 -4,4"/>
<!-- 279707 -->
<g id="node1" class="node"><title>279707</title>
<ellipse fill="none" stroke="black" cx="92" cy="-453" rx="37.0935" ry="18"/>
<text text-anchor="middle" x="92" y="-449.3" font-family="Times New Roman,serif" font-size="14.00">279707</text>
</g>
<!-- 279708 -->
<g id="node2" class="node"><title>279708</title>
<ellipse fill="none" stroke="black" cx="165" cy="-366" rx="37.0935" ry="18"/>
<text text-anchor="middle" x="165" y="-362.3" font-family="Times New Roman,serif" font-size="14.00">279708</text>
</g>
<!-- 279707&#45;&#45;279708 -->
<g id="edge1" class="edge"><title>279707&#45;&#45;279708</title>
<path fill="none" stroke="black" d="M105.731,-436.012C118.782,-420.815 138.3,-398.089 151.331,-382.916"/>
<text text-anchor="middle" x="141" y="-405.8" font-family="Times New Roman,serif" font-size="14.00">1.0</text>
</g>
<!-- 279710 -->
<g id="node3" class="node"><title>279710</title>
<ellipse fill="none" stroke="black" cx="165" cy="-279" rx="37.0935" ry="18"/>
<text text-anchor="middle" x="165" y="-275.3" font-family="Times New Roman,serif" font-size="14.00">279710</text>
</g>
<!-- 279707&#45;&#45;279710 -->
<g id="edge2" class="edge"><title>279707&#45;&#45;279710</title>
<path fill="none" stroke="black" d="M90.159,-434.947C88.5826,-413.62 88.2691,-376.453 101,-348 110.799,-326.099 130.659,-306.793 145.671,-294.402"/>
<text text-anchor="middle" x="110" y="-362.3" font-family="Times New Roman,serif" font-size="14.00">1.0</text>
</g>
<!-- 279712 -->
<g id="node4" class="node"><title>279712</title>
<ellipse fill="none" stroke="black" cx="79" cy="-192" rx="37.0935" ry="18"/>
<text text-anchor="middle" x="79" y="-188.3" font-family="Times New Roman,serif" font-size="14.00">279712</text>
</g>
<!-- 279707&#45;&#45;279712 -->
<g id="edge3" class="edge"><title>279707&#45;&#45;279712</title>
<path fill="none" stroke="black" d="M88.061,-434.994C86.8869,-429.303 85.722,-422.905 85,-417 75.6041,-340.157 78.7782,-320.395 77,-243 76.8469,-236.335 76.8098,-234.664 77,-228 77.1667,-222.16 77.4897,-215.778 77.8282,-210.081"/>
<text text-anchor="middle" x="87" y="-318.8" font-family="Times New Roman,serif" font-size="14.00">1.0</text>
</g>
<!-- 279714 -->
<g id="node5" class="node"><title>279714</title>
<ellipse fill="none" stroke="black" cx="133" cy="-105" rx="37.0935" ry="18"/>
<text text-anchor="middle" x="133" y="-101.3" font-family="Times New Roman,serif" font-size="14.00">279714</text>
</g>
<!-- 279707&#45;&#45;279714 -->
<g id="edge4" class="edge"><title>279707&#45;&#45;279714</title>
<path fill="none" stroke="black" d="M64.397,-440.531C37.2978,-427.213 0,-402.446 0,-367 0,-367 0,-367 0,-191 0,-166.2 66.4858,-133.978 105.442,-117.226"/>
<text text-anchor="middle" x="9" y="-275.3" font-family="Times New Roman,serif" font-size="14.00">1.0</text>
</g>
<!-- 279716 -->
<g id="node6" class="node"><title>279716</title>
<ellipse fill="none" stroke="black" cx="198" cy="-18" rx="37.0935" ry="18"/>
<text text-anchor="middle" x="198" y="-14.3" font-family="Times New Roman,serif" font-size="14.00">279716</text>
</g>
<!-- 279707&#45;&#45;279716 -->
<g id="edge5" class="edge"><title>279707&#45;&#45;279716</title>
<path fill="none" stroke="black" d="M127.077,-446.85C192.819,-436.205 328,-409.188 328,-367 328,-367 328,-367 328,-104 328,-58.0235 270.335,-35.5851 231.817,-25.7254"/>
<text text-anchor="middle" x="337" y="-231.8" font-family="Times New Roman,serif" font-size="14.00">1.0</text>
</g>
<!-- 279708&#45;&#45;279710 -->
<g id="edge6" class="edge"><title>279708&#45;&#45;279710</title>
<path fill="none" stroke="black" d="M165,-347.799C165,-333.052 165,-311.915 165,-297.175"/>
<text text-anchor="middle" x="174" y="-318.8" font-family="Times New Roman,serif" font-size="14.00">1.0</text>
</g>
<!-- 279708&#45;&#45;279712 -->
<g id="edge7" class="edge"><title>279708&#45;&#45;279712</title>
<path fill="none" stroke="black" d="M146.375,-350.257C131.771,-337.668 112.118,-318.262 101,-297 86.2916,-268.871 81.4165,-231.593 79.8007,-210.158"/>
<text text-anchor="middle" x="110" y="-275.3" font-family="Times New Roman,serif" font-size="14.00">1.0</text>
</g>
<!-- 279708&#45;&#45;279714 -->
<g id="edge8" class="edge"><title>279708&#45;&#45;279714</title>
<path fill="none" stroke="black" d="M179.232,-349.298C190.064,-336.305 204.226,-316.827 211,-297 233.455,-231.282 258.878,-198.547 220,-141 208.425,-123.867 186.923,-115.119 168.192,-110.654"/>
<text text-anchor="middle" x="244" y="-231.8" font-family="Times New Roman,serif" font-size="14.00">1.0</text>
</g>
<!-- 279708&#45;&#45;279716 -->
<g id="edge9" class="edge"><title>279708&#45;&#45;279716</title>
<path fill="none" stroke="black" d="M196.971,-356.726C231.612,-345.605 282,-322.18 282,-280 282,-280 282,-280 282,-104 282,-70.3897 248.362,-45.2791 223.659,-31.37"/>
<text text-anchor="middle" x="291" y="-188.3" font-family="Times New Roman,serif" font-size="14.00">1.0</text>
</g>
<!-- 279710&#45;&#45;279712 -->
<g id="edge10" class="edge"><title>279710&#45;&#45;279712</title>
<path fill="none" stroke="black" d="M146.065,-263.261C138.649,-257.225 130.209,-250.018 123,-243 111.897,-232.192 100.362,-218.999 91.8896,-208.88"/>
<text text-anchor="middle" x="132" y="-231.8" font-family="Times New Roman,serif" font-size="14.00">1.0</text>
</g>
<!-- 279710&#45;&#45;279714 -->
<g id="edge11" class="edge"><title>279710&#45;&#45;279714</title>
<path fill="none" stroke="black" d="M161.815,-260.879C155.681,-227.91 142.296,-155.966 136.172,-123.052"/>
<text text-anchor="middle" x="161" y="-188.3" font-family="Times New Roman,serif" font-size="14.00">1.0</text>
</g>
<!-- 279710&#45;&#45;279716 -->
<g id="edge12" class="edge"><title>279710&#45;&#45;279716</title>
<path fill="none" stroke="black" d="M167.501,-260.918C168.319,-255.222 169.218,-248.84 170,-243 180.326,-165.893 191.473,-73.6865 195.96,-36.1555"/>
<text text-anchor="middle" x="192" y="-144.8" font-family="Times New Roman,serif" font-size="14.00">1.0</text>
</g>
<!-- 279712&#45;&#45;279714 -->
<g id="edge13" class="edge"><title>279712&#45;&#45;279714</title>
<path fill="none" stroke="black" d="M89.4117,-174.611C98.9739,-159.56 113.068,-137.374 122.62,-122.339"/>
<text text-anchor="middle" x="118" y="-144.8" font-family="Times New Roman,serif" font-size="14.00">1.0</text>
</g>
<!-- 279712&#45;&#45;279716 -->
<g id="edge14" class="edge"><title>279712&#45;&#45;279716</title>
<path fill="none" stroke="black" d="M71.561,-174.143C63.1752,-152.358 52.6963,-114.024 69,-87 89.6631,-52.7496 133.959,-34.8745 164.845,-26.208"/>
<text text-anchor="middle" x="78" y="-101.3" font-family="Times New Roman,serif" font-size="14.00">1.0</text>
</g>
<!-- 279714&#45;&#45;279716 -->
<g id="edge15" class="edge"><title>279714&#45;&#45;279716</title>
<path fill="none" stroke="black" d="M143.073,-87.3365C149.309,-77.3918 157.689,-64.6648 166,-54 171.162,-47.3761 177.291,-40.4743 182.796,-34.5675"/>
<text text-anchor="middle" x="175" y="-57.8" font-family="Times New Roman,serif" font-size="14.00">1.0</text>
</g>
</g>
</svg>
