<svg width="1040px" height="987px"
 viewBox="0.00 0.00 780.00 740.00" xmlns="http://www.w3.org/2000/svg" xmlns:xlink="http://www.w3.org/1999/xlink">
<g id="graph0" class="graph" transform="scale(1.000022500562514 1.000022500562514) rotate(0) translate(4 736)">
<title>G</title>
<polygon fill="white" stroke="none" points="-4,4 -4,-736 776,-736 776,4 -4,4"/>
<!-- 169663 -->
<g id="node1" class="node"><title>169663</title>
<ellipse fill="none" stroke="black" cx="373" cy="-714" rx="37.0935" ry="18"/>
<text text-anchor="middle" x="373" y="-710.3" font-family="Times New Roman,serif" font-size="14.00">169663</text>
</g>
<!-- 169664 -->
<g id="node2" class="node"><title>169664</title>
<ellipse fill="none" stroke="black" cx="311" cy="-627" rx="37.0935" ry="18"/>
<text text-anchor="middle" x="311" y="-623.3" font-family="Times New Roman,serif" font-size="14.00">169664</text>
</g>
<!-- 169663&#45;&#45;169664 -->
<g id="edge1" class="edge"><title>169663&#45;&#45;169664</title>
<path fill="none" stroke="black" d="M361.046,-696.611C350.067,-681.56 333.885,-659.374 322.918,-644.339"/>
<text text-anchor="middle" x="354" y="-666.8" font-family="Times New Roman,serif" font-size="14.00">1.0</text>
</g>
<!-- 169666 -->
<g id="node3" class="node"><title>169666</title>
<ellipse fill="none" stroke="black" cx="618" cy="-540" rx="37.0935" ry="18"/>
<text text-anchor="middle" x="618" y="-536.3" font-family="Times New Roman,serif" font-size="14.00">169666</text>
</g>
<!-- 169663&#45;&#45;169666 -->
<g id="edge2" class="edge"><title>169663&#45;&#45;169666</title>
<path fill="none" stroke="black" d="M406.359,-705.994C427.871,-700.512 455.86,-691.518 478,-678 532.856,-644.506 583.022,-585.795 605.523,-557.358"/>
<text text-anchor="middle" x="568" y="-623.3" font-family="Times New Roman,serif" font-size="14.00">1.0</text>
</g>
<!-- 169668 -->
<g id="node4" class="node"><title>169668</title>
<ellipse fill="none" stroke="black" cx="379" cy="-453" rx="37.0935" ry="18"/>
<text text-anchor="middle" x="379" y="-449.3" font-family="Times New Roman,serif" font-size="14.00">169668</text>
</g>
<!-- 169663&#45;&#45;169668 -->
<g id="edge3" class="edge"><title>169663&#45;&#45;169668</title>
<path fill="none" stroke="black" d="M373.403,-695.604C374.496,-648.421 377.508,-518.414 378.599,-471.32"/>
<text text-anchor="middle" x="385" y="-579.8" font-family="Times New Roman,serif" font-size="14.00">1.0</text>
</g>
<!-- 169670 -->
<g id="node5" class="node"><title>169670</title>
<ellipse fill="none" stroke="black" cx="530" cy="-366" rx="37.0935" ry="18"/>
<text text-anchor="middle" x="530" y="-362.3" font-family="Times New Roman,serif" font-size="14.00">169670</text>
</g>
<!-- 169663&#45;&#45;169670 -->
<g id="edge4" class="edge"><title>169663&#45;&#45;169670</title>
<path fill="none" stroke="black" d="M409.378,-710.502C450.207,-705.477 514.348,-690.37 542,-645 568.776,-601.068 542.688,-437.789 533.168,-384.177"/>
<text text-anchor="middle" x="562" y="-536.3" font-family="Times New Roman,serif" font-size="14.00">1.0</text>
</g>
<!-- 169672 -->
<g id="node6" class="node"><title>169672</title>
<ellipse fill="none" stroke="black" cx="413" cy="-279" rx="37.0935" ry="18"/>
<text text-anchor="middle" x="413" y="-275.3" font-family="Times New Roman,serif" font-size="14.00">169672</text>
</g>
<!-- 169663&#45;&#45;169672 -->
<g id="edge5" class="edge"><title>169663&#45;&#45;169672</title>
<path fill="none" stroke="black" d="M387.271,-697.11C405.952,-675.131 437.754,-633.347 450,-591 459.337,-558.712 421.672,-521.302 418,-504 416.616,-497.479 416.771,-495.552 418,-489 419.583,-480.564 423.417,-479.436 425,-471 428.45,-452.611 423.278,-381.294 421,-348 419.995,-333.307 419.709,-329.628 418,-315 417.316,-309.147 416.442,-302.762 415.617,-297.067"/>
<text text-anchor="middle" x="427" y="-492.8" font-family="Times New Roman,serif" font-size="14.00">1.0</text>
</g>
<!-- 169674 -->
<g id="node7" class="node"><title>169674</title>
<ellipse fill="none" stroke="black" cx="284" cy="-192" rx="37.0935" ry="18"/>
<text text-anchor="middle" x="284" y="-188.3" font-family="Times New Roman,serif" font-size="14.00">169674</text>
</g>
<!-- 169663&#45;&#45;169674 -->
<g id="edge6" class="edge"><title>169663&#45;&#45;169674</title>
<path fill="none" stroke="black" d="M335.86,-713.737C270.858,-714.143 140.635,-710.731 112,-678 107.61,-672.982 110.182,-669.414 112,-663 135.559,-579.871 214,-583.903 214,-497.5 214,-497.5 214,-497.5 214,-278 214,-247.222 241.687,-221.537 262.235,-206.713"/>
<text text-anchor="middle" x="223" y="-449.3" font-family="Times New Roman,serif" font-size="14.00">1.0</text>
</g>
<!-- 169676 -->
<g id="node8" class="node"><title>169676</title>
<ellipse fill="none" stroke="black" cx="317" cy="-105" rx="37.0935" ry="18"/>
<text text-anchor="middle" x="317" y="-101.3" font-family="Times New Roman,serif" font-size="14.00">169676</text>
</g>
<!-- 169663&#45;&#45;169676 -->
<g id="edge7" class="edge"><title>169663&#45;&#45;169676</title>
<path fill="none" stroke="black" d="M338.364,-707.525C282.422,-696.611 173.739,-666.351 127,-591 78.0517,-512.088 110.163,-255.862 154,-174 180.012,-125.426 214.196,-138.741 267,-123 273.853,-120.957 281.172,-118.581 288.037,-116.264"/>
<text text-anchor="middle" x="114" y="-405.8" font-family="Times New Roman,serif" font-size="14.00">1.0</text>
</g>
<!-- 169678 -->
<g id="node9" class="node"><title>169678</title>
<ellipse fill="none" stroke="black" cx="185" cy="-18" rx="37.0935" ry="18"/>
<text text-anchor="middle" x="185" y="-14.3" font-family="Times New Roman,serif" font-size="14.00">169678</text>
</g>
<!-- 169663&#45;&#45;169678 -->
<g id="edge8" class="edge"><title>169663&#45;&#45;169678</title>
<path fill="none" stroke="black" d="M335.872,-712.368C241.526,-709.762 0,-696.41 0,-628 0,-628 0,-628 0,-104 0,-39.4936 94.0194,-23.7611 148.007,-20.0446"/>
<text text-anchor="middle" x="9" y="-362.3" font-family="Times New Roman,serif" font-size="14.00">1.0</text>
</g>
<!-- 169664&#45;&#45;169666 -->
<g id="edge9" class="edge"><title>169664&#45;&#45;169666</title>
<path fill="none" stroke="black" d="M342.603,-617.38C389.6,-604.544 480.678,-579.597 558,-558 567.385,-555.379 577.587,-552.499 586.871,-549.867"/>
<text text-anchor="middle" x="499" y="-579.8" font-family="Times New Roman,serif" font-size="14.00">1.0</text>
</g>
<!-- 169664&#45;&#45;169668 -->
<g id="edge10" class="edge"><title>169664&#45;&#45;169668</title>
<path fill="none" stroke="black" d="M317.644,-609.195C330.644,-576.312 359.307,-503.811 372.329,-470.873"/>
<text text-anchor="middle" x="360" y="-536.3" font-family="Times New Roman,serif" font-size="14.00">1.0</text>
</g>
<!-- 169664&#45;&#45;169670 -->
<g id="edge11" class="edge"><title>169664&#45;&#45;169670</title>
<path fill="none" stroke="black" d="M328.162,-610.796C339.935,-600.594 356.068,-587.051 371,-576 417.966,-541.239 444.837,-549.895 481,-504 509.923,-467.294 522.632,-412.094 527.458,-384.299"/>
<text text-anchor="middle" x="500" y="-492.8" font-family="Times New Roman,serif" font-size="14.00">1.0</text>
</g>
<!-- 169664&#45;&#45;169672 -->
<g id="edge12" class="edge"><title>169664&#45;&#45;169672</title>
<path fill="none" stroke="black" d="M308.362,-608.922C303.758,-574.933 296.407,-496.772 315,-435 332.068,-378.296 376.067,-322.166 398.854,-295.71"/>
<text text-anchor="middle" x="324" y="-449.3" font-family="Times New Roman,serif" font-size="14.00">1.0</text>
</g>
<!-- 169664&#45;&#45;169674 -->
<g id="edge13" class="edge"><title>169664&#45;&#45;169674</title>
<path fill="none" stroke="black" d="M305.436,-609.069C303.763,-603.383 302.085,-596.969 301,-591 277.545,-462.014 282.338,-427.993 277,-297 275.751,-266.359 273.978,-258.517 277,-228 277.586,-222.08 278.717,-215.678 279.902,-209.988"/>
<text text-anchor="middle" x="290" y="-405.8" font-family="Times New Roman,serif" font-size="14.00">1.0</text>
</g>
<!-- 169664&#45;&#45;169676 -->
<g id="edge14" class="edge"><title>169664&#45;&#45;169676</title>
<path fill="none" stroke="black" d="M292.011,-611.276C253.112,-579.292 168,-499.179 168,-410.5 168,-410.5 168,-410.5 168,-191 168,-163.75 244.139,-132.024 287.562,-116.146"/>
<text text-anchor="middle" x="177" y="-362.3" font-family="Times New Roman,serif" font-size="14.00">1.0</text>
</g>
<!-- 169664&#45;&#45;169678 -->
<g id="edge15" class="edge"><title>169664&#45;&#45;169678</title>
<path fill="none" stroke="black" d="M286.544,-613.4C220.941,-577.656 46,-468.724 46,-323.5 46,-323.5 46,-323.5 46,-104 46,-55.206 109.112,-33.5758 150.283,-24.6565"/>
<text text-anchor="middle" x="56" y="-318.8" font-family="Times New Roman,serif" font-size="14.00">1.0</text>
</g>
<!-- 169666&#45;&#45;169668 -->
<g id="edge16" class="edge"><title>169666&#45;&#45;169668</title>
<path fill="none" stroke="black" d="M587.305,-529.736C577.942,-527.064 567.589,-524.262 558,-522 516.175,-512.133 502.867,-520.043 463,-504 451.678,-499.444 450.408,-495.373 440,-489 427.713,-481.477 413.793,-473.453 402.355,-466.988"/>
<text text-anchor="middle" x="472" y="-492.8" font-family="Times New Roman,serif" font-size="14.00">1.0</text>
</g>
<!-- 169666&#45;&#45;169670 -->
<g id="edge17" class="edge"><title>169666&#45;&#45;169670</title>
<path fill="none" stroke="black" d="M609.668,-522.042C596.863,-496.073 571.466,-444.948 549,-402 545.859,-395.996 542.339,-389.46 539.19,-383.679"/>
<text text-anchor="middle" x="592" y="-449.3" font-family="Times New Roman,serif" font-size="14.00">1.0</text>
</g>
<!-- 169666&#45;&#45;169672 -->
<g id="edge18" class="edge"><title>169666&#45;&#45;169672</title>
<path fill="none" stroke="black" d="M619.315,-521.83C621.152,-485.209 620.198,-398.653 576,-348 537.631,-304.027 509.757,-317.185 455,-297 450.276,-295.259 445.289,-293.326 440.466,-291.405"/>
<text text-anchor="middle" x="618" y="-405.8" font-family="Times New Roman,serif" font-size="14.00">1.0</text>
</g>
<!-- 169666&#45;&#45;169674 -->
<g id="edge19" class="edge"><title>169666&#45;&#45;169674</title>
<path fill="none" stroke="black" d="M626.759,-522.36C629.296,-516.693 631.724,-510.217 633,-504 637.596,-481.609 654.844,-489.847 631,-402 609.963,-324.496 585.245,-304.904 518,-261 484.613,-239.202 373.524,-212.637 317.263,-200.143"/>
<text text-anchor="middle" x="634" y="-362.3" font-family="Times New Roman,serif" font-size="14.00">1.0</text>
</g>
<!-- 169666&#45;&#45;169676 -->
<g id="edge20" class="edge"><title>169666&#45;&#45;169676</title>
<path fill="none" stroke="black" d="M634.876,-523.636C640.165,-517.961 645.523,-511.155 649,-504 655.516,-490.592 653.661,-485.847 655,-471 666.951,-338.462 676.036,-293.264 617,-174 608.837,-157.509 607.926,-150.215 592,-141 552.321,-118.042 419.416,-109.871 354.003,-107.192"/>
<text text-anchor="middle" x="672" y="-318.8" font-family="Times New Roman,serif" font-size="14.00">1.0</text>
</g>
<!-- 169666&#45;&#45;169678 -->
<g id="edge21" class="edge"><title>169666&#45;&#45;169678</title>
<path fill="none" stroke="black" d="M652.319,-533.019C692.607,-523.799 754,-501.891 754,-454 754,-454 754,-454 754,-104 754,-79.9539 726.841,-75.6328 613,-54 470.176,-26.8598 296.603,-20.7585 221.994,-19.3917"/>
<text text-anchor="middle" x="763" y="-275.3" font-family="Times New Roman,serif" font-size="14.00">1.0</text>
</g>
<!-- 169668&#45;&#45;169670 -->
<g id="edge22" class="edge"><title>169668&#45;&#45;169670</title>
<path fill="none" stroke="black" d="M402.263,-438.905C430.639,-422.932 478.323,-396.09 506.711,-380.11"/>
<text text-anchor="middle" x="472" y="-405.8" font-family="Times New Roman,serif" font-size="14.00">1.0</text>
</g>
<!-- 169668&#45;&#45;169672 -->
<g id="edge23" class="edge"><title>169668&#45;&#45;169672</title>
<path fill="none" stroke="black" d="M382.384,-434.879C388.901,-401.91 403.123,-329.966 409.629,-297.052"/>
<text text-anchor="middle" x="408" y="-362.3" font-family="Times New Roman,serif" font-size="14.00">1.0</text>
</g>
<!-- 169668&#45;&#45;169674 -->
<g id="edge24" class="edge"><title>169668&#45;&#45;169674</title>
<path fill="none" stroke="black" d="M353.736,-439.806C343.962,-434.04 333.376,-426.349 326,-417 276.373,-354.097 278.978,-250.551 282.234,-210.018"/>
<text text-anchor="middle" x="298" y="-318.8" font-family="Times New Roman,serif" font-size="14.00">1.0</text>
</g>
<!-- 169668&#45;&#45;169676 -->
<g id="edge25" class="edge"><title>169668&#45;&#45;169676</title>
<path fill="none" stroke="black" d="M375.454,-434.837C369.606,-406.293 357.721,-347.229 349,-297 337,-227.885 338.157,-209.904 325,-141 323.878,-135.122 322.472,-128.731 321.154,-123.038"/>
<text text-anchor="middle" x="358" y="-275.3" font-family="Times New Roman,serif" font-size="14.00">1.0</text>
</g>
<!-- 169668&#45;&#45;169678 -->
<g id="edge26" class="edge"><title>169668&#45;&#45;169678</title>
<path fill="none" stroke="black" d="M352.743,-439.933C347.613,-437.99 342.208,-436.219 337,-435 285.14,-422.863 139.197,-450.758 98,-417 80.1504,-402.373 84,-390.077 84,-367 84,-367 84,-367 84,-104 84,-66.1853 125.957,-41.8054 155.787,-29.251"/>
<text text-anchor="middle" x="93" y="-231.8" font-family="Times New Roman,serif" font-size="14.00">1.0</text>
</g>
<!-- 169670&#45;&#45;169672 -->
<g id="edge27" class="edge"><title>169670&#45;&#45;169672</title>
<path fill="none" stroke="black" d="M512.851,-349.948C500.878,-339.688 484.351,-326.02 469,-315 458.382,-307.378 446.116,-299.604 435.775,-293.324"/>
<text text-anchor="middle" x="496" y="-318.8" font-family="Times New Roman,serif" font-size="14.00">1.0</text>
</g>
<!-- 169670&#45;&#45;169674 -->
<g id="edge28" class="edge"><title>169670&#45;&#45;169674</title>
<path fill="none" stroke="black" d="M524.563,-348.064C520.94,-338.022 515.628,-325.289 509,-315 491.287,-287.503 485.896,-279.613 459,-261 414.239,-230.024 353.406,-210.525 316.517,-200.71"/>
<text text-anchor="middle" x="505" y="-275.3" font-family="Times New Roman,serif" font-size="14.00">1.0</text>
</g>
<!-- 169670&#45;&#45;169676 -->
<g id="edge29" class="edge"><title>169670&#45;&#45;169676</title>
<path fill="none" stroke="black" d="M544.453,-349.146C563.373,-327.206 595.585,-285.468 608,-243 619.694,-203 592.762,-157.64 571,-141 537.761,-115.584 416.358,-108.622 354.208,-106.717"/>
<text text-anchor="middle" x="619" y="-231.8" font-family="Times New Roman,serif" font-size="14.00">1.0</text>
</g>
<!-- 169670&#45;&#45;169678 -->
<g id="edge30" class="edge"><title>169670&#45;&#45;169678</title>
<path fill="none" stroke="black" d="M562.648,-357.332C614.035,-343.103 708,-307.392 708,-236.5 708,-236.5 708,-236.5 708,-104 708,-54.6704 340.822,-28.3313 221.776,-21.088"/>
<text text-anchor="middle" x="717" y="-188.3" font-family="Times New Roman,serif" font-size="14.00">1.0</text>
</g>
<!-- 169672&#45;&#45;169674 -->
<g id="edge31" class="edge"><title>169672&#45;&#45;169674</title>
<path fill="none" stroke="black" d="M391.987,-264.154C367.998,-248.348 328.989,-222.644 305.004,-206.84"/>
<text text-anchor="middle" x="365" y="-231.8" font-family="Times New Roman,serif" font-size="14.00">1.0</text>
</g>
<!-- 169672&#45;&#45;169676 -->
<g id="edge32" class="edge"><title>169672&#45;&#45;169676</title>
<path fill="none" stroke="black" d="M410.198,-260.9C405.009,-233.382 391.799,-178.564 364,-141 357.706,-132.495 348.769,-125.124 340.375,-119.369"/>
<text text-anchor="middle" x="406" y="-188.3" font-family="Times New Roman,serif" font-size="14.00">1.0</text>
</g>
<!-- 169672&#45;&#45;169678 -->
<g id="edge33" class="edge"><title>169672&#45;&#45;169678</title>
<path fill="none" stroke="black" d="M417.43,-261.03C422.116,-240.106 427.724,-203.67 419,-174 406.029,-129.883 398.444,-116.297 363,-87 320.418,-51.8027 257.644,-33.5893 219.143,-25.1794"/>
<text text-anchor="middle" x="422" y="-144.8" font-family="Times New Roman,serif" font-size="14.00">1.0</text>
</g>
<!-- 169674&#45;&#45;169676 -->
<g id="edge34" class="edge"><title>169674&#45;&#45;169676</title>
<path fill="none" stroke="black" d="M290.52,-174.207C296.305,-159.305 304.713,-137.649 310.494,-122.758"/>
<text text-anchor="middle" x="312" y="-144.8" font-family="Times New Roman,serif" font-size="14.00">1.0</text>
</g>
<!-- 169674&#45;&#45;169678 -->
<g id="edge35" class="edge"><title>169674&#45;&#45;169678</title>
<path fill="none" stroke="black" d="M274.507,-174.508C255.585,-141.632 213.363,-68.2774 194.464,-35.4422"/>
<text text-anchor="middle" x="254" y="-101.3" font-family="Times New Roman,serif" font-size="14.00">1.0</text>
</g>
<!-- 169676&#45;&#45;169678 -->
<g id="edge36" class="edge"><title>169676&#45;&#45;169678</title>
<path fill="none" stroke="black" d="M295.498,-90.1541C270.952,-74.3478 231.035,-48.6438 206.493,-32.84"/>
<text text-anchor="middle" x="268" y="-57.8" font-family="Times New Roman,serif" font-size="14.00">1.0</text>
</g>
</g>
</svg>
