<svg width="1028px" height="987px"
 viewBox="0.00 0.00 771.00 740.00" xmlns="http://www.w3.org/2000/svg" xmlns:xlink="http://www.w3.org/1999/xlink">
<g id="graph0" class="graph" transform="scale(1.000022500562514 1.000022500562514) rotate(0) translate(4 736)">
<title>G</title>
<polygon fill="white" stroke="none" points="-4,4 -4,-736 767,-736 767,4 -4,4"/>
<!-- 98683 -->
<g id="node1" class="node"><title>98683</title>
<ellipse fill="none" stroke="black" cx="375" cy="-714" rx="32.4942" ry="18"/>
<text text-anchor="middle" x="375" y="-710.3" font-family="Times New Roman,serif" font-size="14.00">98683</text>
</g>
<!-- 98684 -->
<g id="node2" class="node"><title>98684</title>
<ellipse fill="none" stroke="black" cx="314" cy="-627" rx="32.4942" ry="18"/>
<text text-anchor="middle" x="314" y="-623.3" font-family="Times New Roman,serif" font-size="14.00">98684</text>
</g>
<!-- 98683&#45;&#45;98684 -->
<g id="edge1" class="edge"><title>98683&#45;&#45;98684</title>
<path fill="none" stroke="black" d="M363.526,-697.012C352.621,-681.815 336.311,-659.089 325.422,-643.916"/>
<text text-anchor="middle" x="357" y="-666.8" font-family="Times New Roman,serif" font-size="14.00">1.0</text>
</g>
<!-- 98686 -->
<g id="node3" class="node"><title>98686</title>
<ellipse fill="none" stroke="black" cx="605" cy="-540" rx="32.4942" ry="18"/>
<text text-anchor="middle" x="605" y="-536.3" font-family="Times New Roman,serif" font-size="14.00">98686</text>
</g>
<!-- 98683&#45;&#45;98686 -->
<g id="edge2" class="edge"><title>98683&#45;&#45;98686</title>
<path fill="none" stroke="black" d="M405.156,-706.93C426.682,-701.637 455.659,-692.491 478,-678 529.426,-644.643 574.141,-585.867 594.024,-557.386"/>
<text text-anchor="middle" x="561" y="-623.3" font-family="Times New Roman,serif" font-size="14.00">1.0</text>
</g>
<!-- 98688 -->
<g id="node4" class="node"><title>98688</title>
<ellipse fill="none" stroke="black" cx="374" cy="-453" rx="32.4942" ry="18"/>
<text text-anchor="middle" x="374" y="-449.3" font-family="Times New Roman,serif" font-size="14.00">98688</text>
</g>
<!-- 98683&#45;&#45;98688 -->
<g id="edge3" class="edge"><title>98683&#45;&#45;98688</title>
<path fill="none" stroke="black" d="M374.933,-695.604C374.751,-648.421 374.249,-518.414 374.067,-471.32"/>
<text text-anchor="middle" x="383" y="-579.8" font-family="Times New Roman,serif" font-size="14.00">1.0</text>
</g>
<!-- 98690 -->
<g id="node5" class="node"><title>98690</title>
<ellipse fill="none" stroke="black" cx="525" cy="-366" rx="32.4942" ry="18"/>
<text text-anchor="middle" x="525" y="-362.3" font-family="Times New Roman,serif" font-size="14.00">98690</text>
</g>
<!-- 98683&#45;&#45;98690 -->
<g id="edge4" class="edge"><title>98683&#45;&#45;98690</title>
<path fill="none" stroke="black" d="M407.046,-710.815C447.074,-706.126 513.733,-691.378 542,-645 555.558,-622.755 534.243,-440.965 527.16,-384.002"/>
<text text-anchor="middle" x="553" y="-536.3" font-family="Times New Roman,serif" font-size="14.00">1.0</text>
</g>
<!-- 98692 -->
<g id="node6" class="node"><title>98692</title>
<ellipse fill="none" stroke="black" cx="435" cy="-279" rx="32.4942" ry="18"/>
<text text-anchor="middle" x="435" y="-275.3" font-family="Times New Roman,serif" font-size="14.00">98692</text>
</g>
<!-- 98683&#45;&#45;98692 -->
<g id="edge5" class="edge"><title>98683&#45;&#45;98692</title>
<path fill="none" stroke="black" d="M388.597,-697.414C406.756,-675.457 438.025,-633.346 450,-591 460.067,-555.402 414.948,-512.054 413,-504 411.432,-497.52 412.404,-495.64 413,-489 417.239,-441.765 427.08,-431.169 432,-384 435.167,-353.638 435.46,-318.04 435.293,-297.35"/>
<text text-anchor="middle" x="422" y="-492.8" font-family="Times New Roman,serif" font-size="14.00">1.0</text>
</g>
<!-- 98694 -->
<g id="node7" class="node"><title>98694</title>
<ellipse fill="none" stroke="black" cx="288" cy="-192" rx="32.4942" ry="18"/>
<text text-anchor="middle" x="288" y="-188.3" font-family="Times New Roman,serif" font-size="14.00">98694</text>
</g>
<!-- 98683&#45;&#45;98694 -->
<g id="edge6" class="edge"><title>98683&#45;&#45;98694</title>
<path fill="none" stroke="black" d="M342.358,-713.74C278.697,-714.409 141.588,-711.786 112,-678 107.608,-672.985 110.182,-669.414 112,-663 135.559,-579.871 214,-583.903 214,-497.5 214,-497.5 214,-497.5 214,-278 214,-245.912 244.37,-220.053 266.198,-205.611"/>
<text text-anchor="middle" x="223" y="-449.3" font-family="Times New Roman,serif" font-size="14.00">1.0</text>
</g>
<!-- 98696 -->
<g id="node8" class="node"><title>98696</title>
<ellipse fill="none" stroke="black" cx="320" cy="-105" rx="32.4942" ry="18"/>
<text text-anchor="middle" x="320" y="-101.3" font-family="Times New Roman,serif" font-size="14.00">98696</text>
</g>
<!-- 98683&#45;&#45;98696 -->
<g id="edge7" class="edge"><title>98683&#45;&#45;98696</title>
<path fill="none" stroke="black" d="M344.09,-708.367C289.049,-698.267 175.308,-668.601 127,-591 77.9249,-512.166 110.163,-255.862 154,-174 180.587,-124.352 215.949,-138.821 270,-123 277.655,-120.759 285.882,-118.078 293.408,-115.515"/>
<text text-anchor="middle" x="114" y="-405.8" font-family="Times New Roman,serif" font-size="14.00">1.0</text>
</g>
<!-- 98698 -->
<g id="node9" class="node"><title>98698</title>
<ellipse fill="none" stroke="black" cx="186" cy="-18" rx="32.4942" ry="18"/>
<text text-anchor="middle" x="186" y="-14.3" font-family="Times New Roman,serif" font-size="14.00">98698</text>
</g>
<!-- 98683&#45;&#45;98698 -->
<g id="edge8" class="edge"><title>98683&#45;&#45;98698</title>
<path fill="none" stroke="black" d="M342.377,-712.527C251.142,-710.329 0,-697.927 0,-628 0,-628 0,-628 0,-104 0,-37.2529 100.311,-22.6995 153.601,-19.6775"/>
<text text-anchor="middle" x="9" y="-362.3" font-family="Times New Roman,serif" font-size="14.00">1.0</text>
</g>
<!-- 98684&#45;&#45;98686 -->
<g id="edge9" class="edge"><title>98684&#45;&#45;98686</title>
<path fill="none" stroke="black" d="M342.801,-618.194C387.812,-605.906 477.501,-581.072 553,-558 561.084,-555.53 569.832,-552.722 577.806,-550.111"/>
<text text-anchor="middle" x="496" y="-579.8" font-family="Times New Roman,serif" font-size="14.00">1.0</text>
</g>
<!-- 98684&#45;&#45;98688 -->
<g id="edge10" class="edge"><title>98684&#45;&#45;98688</title>
<path fill="none" stroke="black" d="M319.862,-609.195C331.333,-576.312 356.624,-503.811 368.114,-470.873"/>
<text text-anchor="middle" x="358" y="-536.3" font-family="Times New Roman,serif" font-size="14.00">1.0</text>
</g>
<!-- 98684&#45;&#45;98690 -->
<g id="edge11" class="edge"><title>98684&#45;&#45;98690</title>
<path fill="none" stroke="black" d="M330.024,-611.028C341.213,-600.805 356.656,-587.146 371,-576 415.681,-541.282 441.459,-548.819 476,-504 483.594,-494.146 508.517,-418.33 519.602,-383.906"/>
<text text-anchor="middle" x="492" y="-492.8" font-family="Times New Roman,serif" font-size="14.00">1.0</text>
</g>
<!-- 98684&#45;&#45;98692 -->
<g id="edge12" class="edge"><title>98684&#45;&#45;98692</title>
<path fill="none" stroke="black" d="M310.553,-609.047C304.375,-574.954 293.923,-496.131 315,-435 335.744,-374.836 390.212,-319.862 418.067,-294.599"/>
<text text-anchor="middle" x="324" y="-449.3" font-family="Times New Roman,serif" font-size="14.00">1.0</text>
</g>
<!-- 98684&#45;&#45;98694 -->
<g id="edge13" class="edge"><title>98684&#45;&#45;98694</title>
<path fill="none" stroke="black" d="M307.307,-609.141C305.298,-603.46 303.288,-597.031 302,-591 298.923,-576.598 300.201,-572.678 299,-558 289.512,-442.081 284.225,-413.23 280,-297 278.886,-266.35 277.516,-258.471 281,-228 281.676,-222.09 282.829,-215.69 284.007,-210"/>
<text text-anchor="middle" x="296" y="-405.8" font-family="Times New Roman,serif" font-size="14.00">1.0</text>
</g>
<!-- 98684&#45;&#45;98696 -->
<g id="edge14" class="edge"><title>98684&#45;&#45;98696</title>
<path fill="none" stroke="black" d="M295.509,-612.082C256.222,-580.766 168,-500.43 168,-410.5 168,-410.5 168,-410.5 168,-191 168,-162.73 249.105,-130.406 292.825,-115.035"/>
<text text-anchor="middle" x="177" y="-362.3" font-family="Times New Roman,serif" font-size="14.00">1.0</text>
</g>
<!-- 98684&#45;&#45;98698 -->
<g id="edge15" class="edge"><title>98684&#45;&#45;98698</title>
<path fill="none" stroke="black" d="M290.686,-614.234C225.483,-579.487 46,-470.492 46,-323.5 46,-323.5 46,-323.5 46,-104 46,-53.3864 113.684,-32.0633 154.929,-23.7682"/>
<text text-anchor="middle" x="56" y="-318.8" font-family="Times New Roman,serif" font-size="14.00">1.0</text>
</g>
<!-- 98686&#45;&#45;98688 -->
<g id="edge16" class="edge"><title>98686&#45;&#45;98688</title>
<path fill="none" stroke="black" d="M578.473,-529.599C570.361,-526.922 561.371,-524.152 553,-522 511.38,-511.301 497.867,-520.043 458,-504 446.678,-499.444 445.408,-495.373 435,-489 422.296,-481.222 407.847,-472.908 396.201,-466.336"/>
<text text-anchor="middle" x="467" y="-492.8" font-family="Times New Roman,serif" font-size="14.00">1.0</text>
</g>
<!-- 98686&#45;&#45;98690 -->
<g id="edge17" class="edge"><title>98686&#45;&#45;98690</title>
<path fill="none" stroke="black" d="M597.329,-522.508C582.077,-489.716 548.094,-416.652 532.765,-383.695"/>
<text text-anchor="middle" x="581" y="-449.3" font-family="Times New Roman,serif" font-size="14.00">1.0</text>
</g>
<!-- 98686&#45;&#45;98692 -->
<g id="edge18" class="edge"><title>98686&#45;&#45;98692</title>
<path fill="none" stroke="black" d="M606.439,-522.014C608.567,-485.751 608.453,-399.848 566,-348 558.573,-338.929 494.823,-308.079 459.07,-291.222"/>
<text text-anchor="middle" x="607" y="-405.8" font-family="Times New Roman,serif" font-size="14.00">1.0</text>
</g>
<!-- 98686&#45;&#45;98694 -->
<g id="edge19" class="edge"><title>98686&#45;&#45;98694</title>
<path fill="none" stroke="black" d="M614.338,-522.419C617.044,-516.756 619.635,-510.267 621,-504 625.596,-482.89 645.251,-497.191 620,-402 600.562,-328.722 583.274,-308.267 524,-261 496.162,-238.801 484.82,-239.134 451,-228 406.188,-213.247 352.359,-203.092 319.163,-197.66"/>
<text text-anchor="middle" x="623" y="-362.3" font-family="Times New Roman,serif" font-size="14.00">1.0</text>
</g>
<!-- 98686&#45;&#45;98696 -->
<g id="edge20" class="edge"><title>98686&#45;&#45;98696</title>
<path fill="none" stroke="black" d="M622.287,-524.495C628.139,-518.703 634.158,-511.603 638,-504 644.724,-490.695 642.661,-485.847 644,-471 657.34,-323.054 716.361,-220.691 591,-141 552.066,-116.25 415.86,-108.905 352.665,-106.804"/>
<text text-anchor="middle" x="676" y="-318.8" font-family="Times New Roman,serif" font-size="14.00">1.0</text>
</g>
<!-- 98686&#45;&#45;98698 -->
<g id="edge21" class="edge"><title>98686&#45;&#45;98698</title>
<path fill="none" stroke="black" d="M636.071,-534.232C677.316,-525.937 745,-504.614 745,-454 745,-454 745,-454 745,-104 745,-80.6234 715.601,-75.209 606,-54 463.404,-26.4061 289.426,-20.5612 218.466,-19.3277"/>
<text text-anchor="middle" x="754" y="-275.3" font-family="Times New Roman,serif" font-size="14.00">1.0</text>
</g>
<!-- 98688&#45;&#45;98690 -->
<g id="edge22" class="edge"><title>98688&#45;&#45;98690</title>
<path fill="none" stroke="black" d="M395.957,-439.64C424.585,-423.525 474.375,-395.497 503.017,-379.375"/>
<text text-anchor="middle" x="467" y="-405.8" font-family="Times New Roman,serif" font-size="14.00">1.0</text>
</g>
<!-- 98688&#45;&#45;98692 -->
<g id="edge23" class="edge"><title>98688&#45;&#45;98692</title>
<path fill="none" stroke="black" d="M379.96,-435.195C391.622,-402.312 417.335,-329.811 429.016,-296.873"/>
<text text-anchor="middle" x="419" y="-362.3" font-family="Times New Roman,serif" font-size="14.00">1.0</text>
</g>
<!-- 98688&#45;&#45;98694 -->
<g id="edge24" class="edge"><title>98688&#45;&#45;98694</title>
<path fill="none" stroke="black" d="M351.624,-439.68C342.639,-433.804 332.818,-426.067 326,-417 278.113,-353.318 282.138,-250.667 285.967,-210.195"/>
<text text-anchor="middle" x="300" y="-318.8" font-family="Times New Roman,serif" font-size="14.00">1.0</text>
</g>
<!-- 98688&#45;&#45;98696 -->
<g id="edge25" class="edge"><title>98688&#45;&#45;98696</title>
<path fill="none" stroke="black" d="M371.925,-434.727C366.148,-387.497 348.919,-252.306 328,-141 326.895,-135.119 325.493,-128.727 324.174,-123.034"/>
<text text-anchor="middle" x="362" y="-275.3" font-family="Times New Roman,serif" font-size="14.00">1.0</text>
</g>
<!-- 98688&#45;&#45;98698 -->
<g id="edge26" class="edge"><title>98688&#45;&#45;98698</title>
<path fill="none" stroke="black" d="M351.374,-440.079C346.728,-438.07 341.791,-436.238 337,-435 285.433,-421.672 139.197,-450.758 98,-417 80.1504,-402.373 84,-390.077 84,-367 84,-367 84,-367 84,-104 84,-64.9284 128.716,-40.3331 158.934,-28.1729"/>
<text text-anchor="middle" x="93" y="-231.8" font-family="Times New Roman,serif" font-size="14.00">1.0</text>
</g>
<!-- 98690&#45;&#45;98692 -->
<g id="edge27" class="edge"><title>98690&#45;&#45;98692</title>
<path fill="none" stroke="black" d="M509.323,-350.194C492.905,-334.688 467.263,-310.471 450.799,-294.921"/>
<text text-anchor="middle" x="494" y="-318.8" font-family="Times New Roman,serif" font-size="14.00">1.0</text>
</g>
<!-- 98690&#45;&#45;98694 -->
<g id="edge28" class="edge"><title>98690&#45;&#45;98694</title>
<path fill="none" stroke="black" d="M521.522,-347.995C515.931,-324.962 502.745,-284.081 476,-261 430.148,-221.429 359.454,-204.21 319.089,-197.256"/>
<text text-anchor="middle" x="511" y="-275.3" font-family="Times New Roman,serif" font-size="14.00">1.0</text>
</g>
<!-- 98690&#45;&#45;98696 -->
<g id="edge29" class="edge"><title>98690&#45;&#45;98696</title>
<path fill="none" stroke="black" d="M538.419,-349.38C556.338,-327.384 587.194,-285.228 599,-243 609.407,-205.776 595.034,-161.202 571,-141 538.583,-113.751 412.994,-107.692 352.685,-106.362"/>
<text text-anchor="middle" x="610" y="-231.8" font-family="Times New Roman,serif" font-size="14.00">1.0</text>
</g>
<!-- 98690&#45;&#45;98698 -->
<g id="edge30" class="edge"><title>98690&#45;&#45;98698</title>
<path fill="none" stroke="black" d="M554.124,-357.898C603.657,-343.883 699,-307.663 699,-236.5 699,-236.5 699,-236.5 699,-104 699,-55.0248 330.399,-28.0036 218.09,-20.9072"/>
<text text-anchor="middle" x="708" y="-188.3" font-family="Times New Roman,serif" font-size="14.00">1.0</text>
</g>
<!-- 98692&#45;&#45;98694 -->
<g id="edge31" class="edge"><title>98692&#45;&#45;98694</title>
<path fill="none" stroke="black" d="M413.31,-265.458C385.517,-249.387 337.615,-221.689 309.779,-205.593"/>
<text text-anchor="middle" x="379" y="-231.8" font-family="Times New Roman,serif" font-size="14.00">1.0</text>
</g>
<!-- 98692&#45;&#45;98696 -->
<g id="edge32" class="edge"><title>98692&#45;&#45;98696</title>
<path fill="none" stroke="black" d="M429.101,-261.018C419.025,-233.666 396.493,-179.076 365,-141 358.187,-132.763 349.114,-125.247 340.899,-119.309"/>
<text text-anchor="middle" x="416" y="-188.3" font-family="Times New Roman,serif" font-size="14.00">1.0</text>
</g>
<!-- 98692&#45;&#45;98698 -->
<g id="edge33" class="edge"><title>98692&#45;&#45;98698</title>
<path fill="none" stroke="black" d="M437.063,-260.788C438.922,-239.62 439.91,-202.938 429,-174 411.687,-128.079 399.886,-116.939 361,-87 316.707,-52.8976 253.22,-33.969 216.135,-25.1887"/>
<text text-anchor="middle" x="430" y="-144.8" font-family="Times New Roman,serif" font-size="14.00">1.0</text>
</g>
<!-- 98694&#45;&#45;98696 -->
<g id="edge34" class="edge"><title>98694&#45;&#45;98696</title>
<path fill="none" stroke="black" d="M294.322,-174.207C299.932,-159.305 308.085,-137.649 313.691,-122.758"/>
<text text-anchor="middle" x="315" y="-144.8" font-family="Times New Roman,serif" font-size="14.00">1.0</text>
</g>
<!-- 98694&#45;&#45;98698 -->
<g id="edge35" class="edge"><title>98694&#45;&#45;98698</title>
<path fill="none" stroke="black" d="M278.22,-174.508C258.723,-141.632 215.223,-68.2774 195.751,-35.4422"/>
<text text-anchor="middle" x="257" y="-101.3" font-family="Times New Roman,serif" font-size="14.00">1.0</text>
</g>
<!-- 98696&#45;&#45;98698 -->
<g id="edge36" class="edge"><title>98696&#45;&#45;98698</title>
<path fill="none" stroke="black" d="M299.356,-90.905C274.249,-74.9785 232.106,-48.2461 206.888,-32.2499"/>
<text text-anchor="middle" x="271" y="-57.8" font-family="Times New Roman,serif" font-size="14.00">1.0</text>
</g>
</g>
</svg>
