<svg width="181px" height="291px"
 viewBox="0.00 0.00 136.09 218.00" xmlns="http://www.w3.org/2000/svg" xmlns:xlink="http://www.w3.org/1999/xlink">
<g id="graph0" class="graph" transform="scale(1.000022500562514 1.000022500562514) rotate(0) translate(4 214)">
<title>G</title>
<polygon fill="white" stroke="none" points="-4,4 -4,-214 132.093,-214 132.093,4 -4,4"/>
<!-- 214427 -->
<g id="node1" class="node"><title>214427</title>
<ellipse fill="none" stroke="black" cx="91.0467" cy="-192" rx="37.0935" ry="18"/>
<text text-anchor="middle" x="91.0467" y="-188.3" font-family="Times New Roman,serif" font-size="14.00">214427</text>
</g>
<!-- 214428 -->
<g id="node2" class="node"><title>214428</title>
<ellipse fill="none" stroke="black" cx="37.0467" cy="-105" rx="37.0935" ry="18"/>
<text text-anchor="middle" x="37.0467" y="-101.3" font-family="Times New Roman,serif" font-size="14.00">214428</text>
</g>
<!-- 214427&#45;&#45;214428 -->
<g id="edge1" class="edge"><title>214427&#45;&#45;214428</title>
<path fill="none" stroke="black" d="M80.635,-174.611C71.0728,-159.56 56.9785,-137.374 47.4265,-122.339"/>
<text text-anchor="middle" x="77.0467" y="-144.8" font-family="Times New Roman,serif" font-size="14.00">1.0</text>
</g>
<!-- 214430 -->
<g id="node3" class="node"><title>214430</title>
<ellipse fill="none" stroke="black" cx="83.0467" cy="-18" rx="37.0935" ry="18"/>
<text text-anchor="middle" x="83.0467" y="-14.3" font-family="Times New Roman,serif" font-size="14.00">214430</text>
</g>
<!-- 214427&#45;&#45;214430 -->
<g id="edge2" class="edge"><title>214427&#45;&#45;214430</title>
<path fill="none" stroke="black" d="M90.8621,-173.871C90.7183,-164.215 90.4695,-151.932 90.0467,-141 88.6037,-103.689 85.8362,-60.0164 84.2475,-36.3649"/>
<text text-anchor="middle" x="98.0467" y="-101.3" font-family="Times New Roman,serif" font-size="14.00">1.0</text>
</g>
<!-- 214428&#45;&#45;214430 -->
<g id="edge3" class="edge"><title>214428&#45;&#45;214430</title>
<path fill="none" stroke="black" d="M46.1348,-87.2067C54.1993,-72.3051 65.9188,-50.6495 73.9775,-35.7584"/>
<text text-anchor="middle" x="72.0467" y="-57.8" font-family="Times New Roman,serif" font-size="14.00">1.0</text>
</g>
</g>
</svg>
