<svg width="912px" height="755px"
 viewBox="0.00 0.00 684.05 566.00" xmlns="http://www.w3.org/2000/svg" xmlns:xlink="http://www.w3.org/1999/xlink">
<g id="graph0" class="graph" transform="scale(1.000022500562514 1.000022500562514) rotate(0) translate(4 562)">
<title>G</title>
<polygon fill="white" stroke="none" points="-4,4 -4,-562 680.047,-562 680.047,4 -4,4"/>
<!-- 342007 -->
<g id="node1" class="node"><title>342007</title>
<ellipse fill="none" stroke="black" cx="110.047" cy="-540" rx="37.0935" ry="18"/>
<text text-anchor="middle" x="110.047" y="-536.3" font-family="Times New Roman,serif" font-size="14.00">342007</text>
</g>
<!-- 342008 -->
<g id="node2" class="node"><title>342008</title>
<ellipse fill="none" stroke="black" cx="37.0467" cy="-453" rx="37.0935" ry="18"/>
<text text-anchor="middle" x="37.0467" y="-449.3" font-family="Times New Roman,serif" font-size="14.00">342008</text>
</g>
<!-- 342007&#45;&#45;342008 -->
<g id="edge1" class="edge"><title>342007&#45;&#45;342008</title>
<path fill="none" stroke="black" d="M95.2074,-523.133C89.7413,-517.194 83.5445,-510.348 78.0467,-504 68.3459,-492.799 57.7484,-479.855 49.7581,-469.944"/>
<text text-anchor="middle" x="87.0467" y="-492.8" font-family="Times New Roman,serif" font-size="14.00">1.0</text>
</g>
<!-- 342010 -->
<g id="node3" class="node"><title>342010</title>
<ellipse fill="none" stroke="black" cx="101.047" cy="-366" rx="37.0935" ry="18"/>
<text text-anchor="middle" x="101.047" y="-362.3" font-family="Times New Roman,serif" font-size="14.00">342010</text>
</g>
<!-- 342007&#45;&#45;342010 -->
<g id="edge2" class="edge"><title>342007&#45;&#45;342010</title>
<path fill="none" stroke="black" d="M109.151,-521.879C107.426,-488.91 103.661,-416.966 101.939,-384.052"/>
<text text-anchor="middle" x="116.047" y="-449.3" font-family="Times New Roman,serif" font-size="14.00">1.0</text>
</g>
<!-- 342012 -->
<g id="node4" class="node"><title>342012</title>
<ellipse fill="none" stroke="black" cx="101.047" cy="-279" rx="37.0935" ry="18"/>
<text text-anchor="middle" x="101.047" y="-275.3" font-family="Times New Roman,serif" font-size="14.00">342012</text>
</g>
<!-- 342007&#45;&#45;342012 -->
<g id="edge3" class="edge"><title>342007&#45;&#45;342012</title>
<path fill="none" stroke="black" d="M118.635,-522.361C134.776,-488.832 166.346,-410.973 147.047,-348 140.907,-327.968 126.651,-308.52 115.624,-295.59"/>
<text text-anchor="middle" x="162.047" y="-405.8" font-family="Times New Roman,serif" font-size="14.00">1.0</text>
</g>
<!-- 342008&#45;&#45;342010 -->
<g id="edge4" class="edge"><title>342008&#45;&#45;342010</title>
<path fill="none" stroke="black" d="M49.3866,-435.611C60.7922,-420.463 77.6382,-398.089 88.9618,-383.05"/>
<text text-anchor="middle" x="82.0467" y="-405.8" font-family="Times New Roman,serif" font-size="14.00">1.0</text>
</g>
<!-- 342008&#45;&#45;342012 -->
<g id="edge5" class="edge"><title>342008&#45;&#45;342012</title>
<path fill="none" stroke="black" d="M33.3489,-435.081C29.5336,-413.892 25.5982,-376.868 37.0467,-348 45.8321,-325.847 65.6306,-306.714 80.8975,-294.437"/>
<text text-anchor="middle" x="46.0467" y="-362.3" font-family="Times New Roman,serif" font-size="14.00">1.0</text>
</g>
<!-- 342010&#45;&#45;342012 -->
<g id="edge6" class="edge"><title>342010&#45;&#45;342012</title>
<path fill="none" stroke="black" d="M101.047,-347.799C101.047,-333.052 101.047,-311.915 101.047,-297.175"/>
<text text-anchor="middle" x="110.047" y="-318.8" font-family="Times New Roman,serif" font-size="14.00">1.0</text>
</g>
<!-- 506605 -->
<g id="node5" class="node"><title>506605</title>
<ellipse fill="none" stroke="black" cx="539.047" cy="-540" rx="37.0935" ry="18"/>
<text text-anchor="middle" x="539.047" y="-536.3" font-family="Times New Roman,serif" font-size="14.00">506605</text>
</g>
<!-- 506606 -->
<g id="node6" class="node"><title>506606</title>
<ellipse fill="none" stroke="black" cx="424.047" cy="-453" rx="37.0935" ry="18"/>
<text text-anchor="middle" x="424.047" y="-449.3" font-family="Times New Roman,serif" font-size="14.00">506606</text>
</g>
<!-- 506605&#45;&#45;506606 -->
<g id="edge7" class="edge"><title>506605&#45;&#45;506606</title>
<path fill="none" stroke="black" d="M519.539,-524.581C498.391,-508.95 464.835,-484.148 443.651,-468.49"/>
<text text-anchor="middle" x="497.047" y="-492.8" font-family="Times New Roman,serif" font-size="14.00">1.0</text>
</g>
<!-- 506608 -->
<g id="node7" class="node"><title>506608</title>
<ellipse fill="none" stroke="black" cx="473.047" cy="-366" rx="37.0935" ry="18"/>
<text text-anchor="middle" x="473.047" y="-362.3" font-family="Times New Roman,serif" font-size="14.00">506608</text>
</g>
<!-- 506605&#45;&#45;506608 -->
<g id="edge8" class="edge"><title>506605&#45;&#45;506608</title>
<path fill="none" stroke="black" d="M532.598,-522.195C519.981,-489.312 492.16,-416.811 479.521,-383.873"/>
<text text-anchor="middle" x="521.047" y="-449.3" font-family="Times New Roman,serif" font-size="14.00">1.0</text>
</g>
<!-- 506610 -->
<g id="node8" class="node"><title>506610</title>
<ellipse fill="none" stroke="black" cx="363.047" cy="-279" rx="37.0935" ry="18"/>
<text text-anchor="middle" x="363.047" y="-275.3" font-family="Times New Roman,serif" font-size="14.00">506610</text>
</g>
<!-- 506605&#45;&#45;506610 -->
<g id="edge9" class="edge"><title>506605&#45;&#45;506610</title>
<path fill="none" stroke="black" d="M505.097,-532.745C469.137,-524.469 412.852,-506.564 378.047,-471 330.885,-422.809 334.717,-396.227 322.047,-330 320.794,-323.452 319.255,-321.054 322.047,-315 325.966,-306.501 333.079,-299.302 340.294,-293.683"/>
<text text-anchor="middle" x="350.047" y="-405.8" font-family="Times New Roman,serif" font-size="14.00">1.0</text>
</g>
<!-- 506612 -->
<g id="node9" class="node"><title>506612</title>
<ellipse fill="none" stroke="black" cx="299.047" cy="-192" rx="37.0935" ry="18"/>
<text text-anchor="middle" x="299.047" y="-188.3" font-family="Times New Roman,serif" font-size="14.00">506612</text>
</g>
<!-- 506605&#45;&#45;506612 -->
<g id="edge10" class="edge"><title>506605&#45;&#45;506612</title>
<path fill="none" stroke="black" d="M502.64,-536.552C458.855,-531.586 386.246,-516.546 346.047,-471 278.512,-394.483 289.808,-258.198 296.325,-210.258"/>
<text text-anchor="middle" x="312.047" y="-362.3" font-family="Times New Roman,serif" font-size="14.00">1.0</text>
</g>
<!-- 506614 -->
<g id="node10" class="node"><title>506614</title>
<ellipse fill="none" stroke="black" cx="547.047" cy="-105" rx="37.0935" ry="18"/>
<text text-anchor="middle" x="547.047" y="-101.3" font-family="Times New Roman,serif" font-size="14.00">506614</text>
</g>
<!-- 506605&#45;&#45;506614 -->
<g id="edge11" class="edge"><title>506605&#45;&#45;506614</title>
<path fill="none" stroke="black" d="M561.744,-525.51C583.174,-510.863 612.047,-485.318 612.047,-454 612.047,-454 612.047,-454 612.047,-191 612.047,-161.276 586.656,-135.504 567.613,-120.355"/>
<text text-anchor="middle" x="621.047" y="-318.8" font-family="Times New Roman,serif" font-size="14.00">1.0</text>
</g>
<!-- 506616 -->
<g id="node11" class="node"><title>506616</title>
<ellipse fill="none" stroke="black" cx="423.047" cy="-18" rx="37.0935" ry="18"/>
<text text-anchor="middle" x="423.047" y="-14.3" font-family="Times New Roman,serif" font-size="14.00">506616</text>
</g>
<!-- 506605&#45;&#45;506616 -->
<g id="edge12" class="edge"><title>506605&#45;&#45;506616</title>
<path fill="none" stroke="black" d="M571.25,-530.991C606.492,-520.069 658.047,-496.78 658.047,-454 658.047,-454 658.047,-454 658.047,-104 658.047,-61.9704 523.439,-34.8718 457.975,-24.1781"/>
<text text-anchor="middle" x="667.047" y="-275.3" font-family="Times New Roman,serif" font-size="14.00">1.0</text>
</g>
<!-- 506606&#45;&#45;506608 -->
<g id="edge13" class="edge"><title>506606&#45;&#45;506608</title>
<path fill="none" stroke="black" d="M433.728,-435.207C442.374,-420.208 454.964,-398.368 463.553,-383.469"/>
<text text-anchor="middle" x="460.047" y="-405.8" font-family="Times New Roman,serif" font-size="14.00">1.0</text>
</g>
<!-- 506606&#45;&#45;506610 -->
<g id="edge14" class="edge"><title>506606&#45;&#45;506610</title>
<path fill="none" stroke="black" d="M418.087,-435.195C406.425,-402.312 380.712,-329.811 369.031,-296.873"/>
<text text-anchor="middle" x="409.047" y="-362.3" font-family="Times New Roman,serif" font-size="14.00">1.0</text>
</g>
<!-- 506606&#45;&#45;506612 -->
<g id="edge15" class="edge"><title>506606&#45;&#45;506612</title>
<path fill="none" stroke="black" d="M409.58,-436.2C386.109,-409.615 340.045,-353.304 317.047,-297 305.198,-267.993 301.147,-231.334 299.763,-210.189"/>
<text text-anchor="middle" x="342.047" y="-318.8" font-family="Times New Roman,serif" font-size="14.00">1.0</text>
</g>
<!-- 506606&#45;&#45;506614 -->
<g id="edge16" class="edge"><title>506606&#45;&#45;506614</title>
<path fill="none" stroke="black" d="M450.423,-440.003C472.246,-428.686 502.286,-409.634 519.047,-384 574.129,-299.755 558.313,-169.437 550.344,-123.082"/>
<text text-anchor="middle" x="565.047" y="-275.3" font-family="Times New Roman,serif" font-size="14.00">1.0</text>
</g>
<!-- 506606&#45;&#45;506616 -->
<g id="edge17" class="edge"><title>506606&#45;&#45;506616</title>
<path fill="none" stroke="black" d="M388.21,-447.617C325.871,-437.775 204.047,-407.763 204.047,-323.5 204.047,-323.5 204.047,-323.5 204.047,-104 204.047,-64.8472 327.234,-36.6111 388.828,-24.9401"/>
<text text-anchor="middle" x="213.047" y="-231.8" font-family="Times New Roman,serif" font-size="14.00">1.0</text>
</g>
<!-- 506608&#45;&#45;506610 -->
<g id="edge18" class="edge"><title>506608&#45;&#45;506610</title>
<path fill="none" stroke="black" d="M446.942,-353.166C434.844,-347.085 420.618,-339.05 409.047,-330 396.411,-320.117 384.218,-306.624 375.564,-296.145"/>
<text text-anchor="middle" x="418.047" y="-318.8" font-family="Times New Roman,serif" font-size="14.00">1.0</text>
</g>
<!-- 506608&#45;&#45;506612 -->
<g id="edge19" class="edge"><title>506608&#45;&#45;506612</title>
<path fill="none" stroke="black" d="M465.751,-348.241C455.538,-326.217 435.254,-287.261 409.047,-261 384.464,-236.368 349.325,-216.635 325.423,-204.899"/>
<text text-anchor="middle" x="445.047" y="-275.3" font-family="Times New Roman,serif" font-size="14.00">1.0</text>
</g>
<!-- 506608&#45;&#45;506614 -->
<g id="edge20" class="edge"><title>506608&#45;&#45;506614</title>
<path fill="none" stroke="black" d="M485.325,-348.952C489.23,-343.221 493.255,-336.556 496.047,-330 527.224,-256.794 540.781,-161.65 545.247,-123.219"/>
<text text-anchor="middle" x="536.047" y="-231.8" font-family="Times New Roman,serif" font-size="14.00">1.0</text>
</g>
<!-- 506608&#45;&#45;506616 -->
<g id="edge21" class="edge"><title>506608&#45;&#45;506616</title>
<path fill="none" stroke="black" d="M475.944,-347.8C478.575,-330.67 482.047,-303.595 482.047,-280 482.047,-280 482.047,-280 482.047,-104 482.047,-75.2584 459,-49.2407 441.715,-33.7692"/>
<text text-anchor="middle" x="491.047" y="-188.3" font-family="Times New Roman,serif" font-size="14.00">1.0</text>
</g>
<!-- 506610&#45;&#45;506612 -->
<g id="edge22" class="edge"><title>506610&#45;&#45;506612</title>
<path fill="none" stroke="black" d="M348.358,-262.374C343.029,-256.461 337.084,-249.57 332.047,-243 323.82,-232.27 315.438,-219.544 309.181,-209.616"/>
<text text-anchor="middle" x="341.047" y="-231.8" font-family="Times New Roman,serif" font-size="14.00">1.0</text>
</g>
<!-- 506610&#45;&#45;506614 -->
<g id="edge23" class="edge"><title>506610&#45;&#45;506614</title>
<path fill="none" stroke="black" d="M373.032,-261.459C386.722,-239.677 412.958,-200.987 442.047,-174 466.725,-151.105 500.012,-131.006 522.436,-118.711"/>
<text text-anchor="middle" x="451.047" y="-188.3" font-family="Times New Roman,serif" font-size="14.00">1.0</text>
</g>
<!-- 506610&#45;&#45;506616 -->
<g id="edge24" class="edge"><title>506610&#45;&#45;506616</title>
<path fill="none" stroke="black" d="M360.114,-260.83C356.228,-234.584 350.962,-183.102 361.047,-141 370.787,-100.335 396.439,-57.9202 411.52,-35.3823"/>
<text text-anchor="middle" x="370.047" y="-144.8" font-family="Times New Roman,serif" font-size="14.00">1.0</text>
</g>
<!-- 506612&#45;&#45;506614 -->
<g id="edge25" class="edge"><title>506612&#45;&#45;506614</title>
<path fill="none" stroke="black" d="M328.027,-180.439C344.497,-174.065 365.309,-165.378 383.047,-156 393.836,-150.296 394.857,-145.871 406.047,-141 440.619,-125.949 482.899,-116.541 512.093,-111.318"/>
<text text-anchor="middle" x="415.047" y="-144.8" font-family="Times New Roman,serif" font-size="14.00">1.0</text>
</g>
<!-- 506612&#45;&#45;506616 -->
<g id="edge26" class="edge"><title>506612&#45;&#45;506616</title>
<path fill="none" stroke="black" d="M300.662,-173.627C304.277,-144.712 315.622,-86.6703 350.047,-54 362.076,-42.5832 378.526,-34.255 392.765,-28.5938"/>
<text text-anchor="middle" x="335.047" y="-101.3" font-family="Times New Roman,serif" font-size="14.00">1.0</text>
</g>
<!-- 506614&#45;&#45;506616 -->
<g id="edge27" class="edge"><title>506614&#45;&#45;506616</title>
<path fill="none" stroke="black" d="M533.46,-88.1833C523.785,-77.5828 510.059,-63.8206 496.047,-54 482.235,-44.3202 465.332,-36.0248 451.27,-29.9428"/>
<text text-anchor="middle" x="523.047" y="-57.8" font-family="Times New Roman,serif" font-size="14.00">1.0</text>
</g>
</g>
</svg>
