<svg width="3071px" height="987px"
 viewBox="0.00 0.00 2303.00 740.00" xmlns="http://www.w3.org/2000/svg" xmlns:xlink="http://www.w3.org/1999/xlink">
<g id="graph0" class="graph" transform="scale(1.000022500562514 1.000022500562514) rotate(0) translate(4 736)">
<title>G</title>
<polygon fill="white" stroke="none" points="-4,4 -4,-736 2299,-736 2299,4 -4,4"/>
<!-- 85045 -->
<g id="node1" class="node"><title>85045</title>
<ellipse fill="none" stroke="black" cx="352" cy="-714" rx="32.4942" ry="18"/>
<text text-anchor="middle" x="352" y="-710.3" font-family="Times New Roman,serif" font-size="14.00">85045</text>
</g>
<!-- 85046 -->
<g id="node2" class="node"><title>85046</title>
<ellipse fill="none" stroke="black" cx="314" cy="-627" rx="32.4942" ry="18"/>
<text text-anchor="middle" x="314" y="-623.3" font-family="Times New Roman,serif" font-size="14.00">85046</text>
</g>
<!-- 85045&#45;&#45;85046 -->
<g id="edge1" class="edge"><title>85045&#45;&#45;85046</title>
<path fill="none" stroke="black" d="M344.492,-696.207C337.831,-681.305 328.149,-659.649 321.492,-644.758"/>
<text text-anchor="middle" x="345" y="-666.8" font-family="Times New Roman,serif" font-size="14.00">1.0</text>
</g>
<!-- 85048 -->
<g id="node3" class="node"><title>85048</title>
<ellipse fill="none" stroke="black" cx="605" cy="-540" rx="32.4942" ry="18"/>
<text text-anchor="middle" x="605" y="-536.3" font-family="Times New Roman,serif" font-size="14.00">85048</text>
</g>
<!-- 85045&#45;&#45;85048 -->
<g id="edge2" class="edge"><title>85045&#45;&#45;85048</title>
<path fill="none" stroke="black" d="M383.426,-709.167C410.146,-704.806 448.722,-695.834 478,-678 530.627,-645.944 575.093,-586.006 594.522,-557.231"/>
<text text-anchor="middle" x="565" y="-623.3" font-family="Times New Roman,serif" font-size="14.00">1.0</text>
</g>
<!-- 85050 -->
<g id="node4" class="node"><title>85050</title>
<ellipse fill="none" stroke="black" cx="374" cy="-453" rx="32.4942" ry="18"/>
<text text-anchor="middle" x="374" y="-449.3" font-family="Times New Roman,serif" font-size="14.00">85050</text>
</g>
<!-- 85045&#45;&#45;85050 -->
<g id="edge3" class="edge"><title>85045&#45;&#45;85050</title>
<path fill="none" stroke="black" d="M355.113,-695.939C356.102,-690.244 357.157,-683.858 358,-678 365.65,-624.853 368.368,-611.572 372,-558 374.064,-527.55 374.275,-491.98 374.179,-471.32"/>
<text text-anchor="middle" x="380" y="-579.8" font-family="Times New Roman,serif" font-size="14.00">1.0</text>
</g>
<!-- 85052 -->
<g id="node5" class="node"><title>85052</title>
<ellipse fill="none" stroke="black" cx="524" cy="-366" rx="32.4942" ry="18"/>
<text text-anchor="middle" x="524" y="-362.3" font-family="Times New Roman,serif" font-size="14.00">85052</text>
</g>
<!-- 85045&#45;&#45;85052 -->
<g id="edge4" class="edge"><title>85045&#45;&#45;85052</title>
<path fill="none" stroke="black" d="M384.748,-712.759C429.92,-710.393 509.453,-698.401 542,-645 555.561,-622.75 533.536,-440.963 526.227,-384.001"/>
<text text-anchor="middle" x="554" y="-536.3" font-family="Times New Roman,serif" font-size="14.00">1.0</text>
</g>
<!-- 85054 -->
<g id="node6" class="node"><title>85054</title>
<ellipse fill="none" stroke="black" cx="437" cy="-279" rx="32.4942" ry="18"/>
<text text-anchor="middle" x="437" y="-275.3" font-family="Times New Roman,serif" font-size="14.00">85054</text>
</g>
<!-- 85045&#45;&#45;85054 -->
<g id="edge5" class="edge"><title>85045&#45;&#45;85054</title>
<path fill="none" stroke="black" d="M369.279,-698.629C392.839,-677.78 433.947,-636.617 450,-591 461.069,-559.545 420.357,-534.412 413,-504 411.432,-497.52 412.343,-495.634 413,-489 417.689,-441.641 428.435,-431.264 434,-384 436.808,-360.148 435.315,-354.007 436,-330 436.312,-319.065 436.559,-306.781 436.73,-297.126"/>
<text text-anchor="middle" x="422" y="-492.8" font-family="Times New Roman,serif" font-size="14.00">1.0</text>
</g>
<!-- 85056 -->
<g id="node7" class="node"><title>85056</title>
<ellipse fill="none" stroke="black" cx="287" cy="-192" rx="32.4942" ry="18"/>
<text text-anchor="middle" x="287" y="-188.3" font-family="Times New Roman,serif" font-size="14.00">85056</text>
</g>
<!-- 85045&#45;&#45;85056 -->
<g id="edge6" class="edge"><title>85045&#45;&#45;85056</title>
<path fill="none" stroke="black" d="M319.458,-713.264C260.22,-712.976 138.441,-708.576 112,-678 107.639,-672.957 110.182,-669.414 112,-663 135.559,-579.871 214,-583.903 214,-497.5 214,-497.5 214,-497.5 214,-278 214,-246.098 243.959,-220.187 265.492,-205.683"/>
<text text-anchor="middle" x="223" y="-449.3" font-family="Times New Roman,serif" font-size="14.00">1.0</text>
</g>
<!-- 85058 -->
<g id="node8" class="node"><title>85058</title>
<ellipse fill="none" stroke="black" cx="319" cy="-105" rx="32.4942" ry="18"/>
<text text-anchor="middle" x="319" y="-101.3" font-family="Times New Roman,serif" font-size="14.00">85058</text>
</g>
<!-- 85045&#45;&#45;85058 -->
<g id="edge7" class="edge"><title>85045&#45;&#45;85058</title>
<path fill="none" stroke="black" d="M321.853,-706.943C271.046,-694.929 169.733,-662.781 127,-591 79.4984,-511.208 110.163,-255.862 154,-174 180.395,-124.711 215.365,-138.793 269,-123 276.652,-120.747 284.878,-118.062 292.403,-115.499"/>
<text text-anchor="middle" x="114" y="-405.8" font-family="Times New Roman,serif" font-size="14.00">1.0</text>
</g>
<!-- 85060 -->
<g id="node9" class="node"><title>85060</title>
<ellipse fill="none" stroke="black" cx="185" cy="-18" rx="32.4942" ry="18"/>
<text text-anchor="middle" x="185" y="-14.3" font-family="Times New Roman,serif" font-size="14.00">85060</text>
</g>
<!-- 85045&#45;&#45;85060 -->
<g id="edge8" class="edge"><title>85045&#45;&#45;85060</title>
<path fill="none" stroke="black" d="M319.516,-712.052C232.375,-708.632 0,-693.382 0,-628 0,-628 0,-628 0,-104 0,-37.7263 99.2417,-22.9357 152.352,-19.7654"/>
<text text-anchor="middle" x="9" y="-362.3" font-family="Times New Roman,serif" font-size="14.00">1.0</text>
</g>
<!-- 85046&#45;&#45;85048 -->
<g id="edge9" class="edge"><title>85046&#45;&#45;85048</title>
<path fill="none" stroke="black" d="M342.801,-618.194C387.812,-605.906 477.501,-581.072 553,-558 561.084,-555.53 569.832,-552.722 577.806,-550.111"/>
<text text-anchor="middle" x="497" y="-579.8" font-family="Times New Roman,serif" font-size="14.00">1.0</text>
</g>
<!-- 85046&#45;&#45;85050 -->
<g id="edge10" class="edge"><title>85046&#45;&#45;85050</title>
<path fill="none" stroke="black" d="M319.862,-609.195C331.333,-576.312 356.624,-503.811 368.114,-470.873"/>
<text text-anchor="middle" x="359" y="-536.3" font-family="Times New Roman,serif" font-size="14.00">1.0</text>
</g>
<!-- 85046&#45;&#45;85052 -->
<g id="edge11" class="edge"><title>85046&#45;&#45;85052</title>
<path fill="none" stroke="black" d="M330.024,-611.028C341.213,-600.805 356.656,-587.146 371,-576 415.681,-541.282 441.605,-548.93 476,-504 483.545,-494.144 507.902,-418.329 518.729,-383.906"/>
<text text-anchor="middle" x="493" y="-492.8" font-family="Times New Roman,serif" font-size="14.00">1.0</text>
</g>
<!-- 85046&#45;&#45;85054 -->
<g id="edge12" class="edge"><title>85046&#45;&#45;85054</title>
<path fill="none" stroke="black" d="M310.511,-609.033C304.259,-574.913 293.678,-496.046 315,-435 336.116,-374.543 391.48,-319.704 419.791,-294.535"/>
<text text-anchor="middle" x="324" y="-449.3" font-family="Times New Roman,serif" font-size="14.00">1.0</text>
</g>
<!-- 85046&#45;&#45;85056 -->
<g id="edge13" class="edge"><title>85046&#45;&#45;85056</title>
<path fill="none" stroke="black" d="M307.307,-609.141C305.298,-603.46 303.288,-597.031 302,-591 298.923,-576.598 300.201,-572.678 299,-558 289.512,-442.081 284.225,-413.23 280,-297 278.886,-266.354 276.978,-258.517 280,-228 280.586,-222.08 281.717,-215.678 282.902,-209.988"/>
<text text-anchor="middle" x="296" y="-405.8" font-family="Times New Roman,serif" font-size="14.00">1.0</text>
</g>
<!-- 85046&#45;&#45;85058 -->
<g id="edge14" class="edge"><title>85046&#45;&#45;85058</title>
<path fill="none" stroke="black" d="M295.509,-612.082C256.222,-580.766 168,-500.43 168,-410.5 168,-410.5 168,-410.5 168,-191 168,-162.872 248.571,-130.483 292.004,-115.066"/>
<text text-anchor="middle" x="177" y="-362.3" font-family="Times New Roman,serif" font-size="14.00">1.0</text>
</g>
<!-- 85046&#45;&#45;85060 -->
<g id="edge15" class="edge"><title>85046&#45;&#45;85060</title>
<path fill="none" stroke="black" d="M290.686,-614.234C225.483,-579.487 46,-470.492 46,-323.5 46,-323.5 46,-323.5 46,-104 46,-53.6503 113.201,-32.2241 154.151,-23.8417"/>
<text text-anchor="middle" x="56" y="-318.8" font-family="Times New Roman,serif" font-size="14.00">1.0</text>
</g>
<!-- 85048&#45;&#45;85050 -->
<g id="edge16" class="edge"><title>85048&#45;&#45;85050</title>
<path fill="none" stroke="black" d="M578.473,-529.599C570.361,-526.922 561.371,-524.152 553,-522 511.38,-511.301 497.867,-520.043 458,-504 446.678,-499.444 445.408,-495.373 435,-489 422.296,-481.222 407.847,-472.908 396.201,-466.336"/>
<text text-anchor="middle" x="467" y="-492.8" font-family="Times New Roman,serif" font-size="14.00">1.0</text>
</g>
<!-- 85048&#45;&#45;85052 -->
<g id="edge17" class="edge"><title>85048&#45;&#45;85052</title>
<path fill="none" stroke="black" d="M597.233,-522.508C581.791,-489.716 547.383,-416.652 531.862,-383.695"/>
<text text-anchor="middle" x="582" y="-449.3" font-family="Times New Roman,serif" font-size="14.00">1.0</text>
</g>
<!-- 85048&#45;&#45;85054 -->
<g id="edge18" class="edge"><title>85048&#45;&#45;85054</title>
<path fill="none" stroke="black" d="M606.338,-522.003C608.254,-485.719 607.649,-399.777 565,-348 557.701,-339.138 495.757,-308.353 460.79,-291.406"/>
<text text-anchor="middle" x="607" y="-405.8" font-family="Times New Roman,serif" font-size="14.00">1.0</text>
</g>
<!-- 85048&#45;&#45;85056 -->
<g id="edge19" class="edge"><title>85048&#45;&#45;85056</title>
<path fill="none" stroke="black" d="M614.338,-522.419C617.044,-516.756 619.635,-510.267 621,-504 625.596,-482.89 645.251,-497.191 620,-402 600.689,-329.202 584.537,-308.391 526,-261 498.327,-238.596 486.841,-239.071 453,-228 428.226,-219.895 358.355,-206.266 317.59,-198.627"/>
<text text-anchor="middle" x="624" y="-362.3" font-family="Times New Roman,serif" font-size="14.00">1.0</text>
</g>
<!-- 85048&#45;&#45;85058 -->
<g id="edge20" class="edge"><title>85048&#45;&#45;85058</title>
<path fill="none" stroke="black" d="M622.815,-524.582C628.844,-518.8 635.045,-511.683 639,-504 645.823,-490.746 643.661,-485.847 645,-471 658.34,-323.054 716.52,-221.999 592,-141 552.946,-115.596 414.99,-108.586 351.462,-106.687"/>
<text text-anchor="middle" x="677" y="-318.8" font-family="Times New Roman,serif" font-size="14.00">1.0</text>
</g>
<!-- 85048&#45;&#45;85060 -->
<g id="edge21" class="edge"><title>85048&#45;&#45;85060</title>
<path fill="none" stroke="black" d="M631.333,-529.082C671.888,-512.979 745,-480.302 745,-454 745,-454 745,-454 745,-104 745,-80.9401 714.515,-74.9315 607,-54 463.761,-26.1136 288.935,-20.4298 217.626,-19.2834"/>
<text text-anchor="middle" x="754" y="-275.3" font-family="Times New Roman,serif" font-size="14.00">1.0</text>
</g>
<!-- 85050&#45;&#45;85052 -->
<g id="edge22" class="edge"><title>85050&#45;&#45;85052</title>
<path fill="none" stroke="black" d="M395.811,-439.64C424.25,-423.525 473.71,-395.497 502.162,-379.375"/>
<text text-anchor="middle" x="467" y="-405.8" font-family="Times New Roman,serif" font-size="14.00">1.0</text>
</g>
<!-- 85050&#45;&#45;85054 -->
<g id="edge23" class="edge"><title>85050&#45;&#45;85054</title>
<path fill="none" stroke="black" d="M380.155,-435.195C392.2,-402.312 418.755,-329.811 430.82,-296.873"/>
<text text-anchor="middle" x="421" y="-362.3" font-family="Times New Roman,serif" font-size="14.00">1.0</text>
</g>
<!-- 85050&#45;&#45;85056 -->
<g id="edge24" class="edge"><title>85050&#45;&#45;85056</title>
<path fill="none" stroke="black" d="M351.624,-439.68C342.639,-433.804 332.818,-426.067 326,-417 278.077,-353.271 281.5,-250.647 285.077,-210.189"/>
<text text-anchor="middle" x="299" y="-318.8" font-family="Times New Roman,serif" font-size="14.00">1.0</text>
</g>
<!-- 85050&#45;&#45;85058 -->
<g id="edge25" class="edge"><title>85050&#45;&#45;85058</title>
<path fill="none" stroke="black" d="M371.851,-434.729C365.875,-387.504 348.104,-252.325 327,-141 325.885,-135.121 324.482,-128.729 323.163,-123.036"/>
<text text-anchor="middle" x="362" y="-275.3" font-family="Times New Roman,serif" font-size="14.00">1.0</text>
</g>
<!-- 85050&#45;&#45;85060 -->
<g id="edge26" class="edge"><title>85050&#45;&#45;85060</title>
<path fill="none" stroke="black" d="M351.374,-440.079C346.728,-438.07 341.791,-436.238 337,-435 285.433,-421.672 139.197,-450.758 98,-417 80.1504,-402.373 84,-390.077 84,-367 84,-367 84,-367 84,-104 84,-65.154 128.277,-40.4856 158.199,-28.2501"/>
<text text-anchor="middle" x="93" y="-231.8" font-family="Times New Roman,serif" font-size="14.00">1.0</text>
</g>
<!-- 85052&#45;&#45;85054 -->
<g id="edge27" class="edge"><title>85052&#45;&#45;85054</title>
<path fill="none" stroke="black" d="M508.446,-349.804C492.61,-334.332 468.206,-310.489 452.419,-295.065"/>
<text text-anchor="middle" x="495" y="-318.8" font-family="Times New Roman,serif" font-size="14.00">1.0</text>
</g>
<!-- 85052&#45;&#45;85056 -->
<g id="edge28" class="edge"><title>85052&#45;&#45;85056</title>
<path fill="none" stroke="black" d="M521.087,-347.961C516.247,-324.889 504.341,-283.963 478,-261 431.569,-220.522 359.364,-203.609 318.319,-196.958"/>
<text text-anchor="middle" x="513" y="-275.3" font-family="Times New Roman,serif" font-size="14.00">1.0</text>
</g>
<!-- 85052&#45;&#45;85058 -->
<g id="edge29" class="edge"><title>85052&#45;&#45;85058</title>
<path fill="none" stroke="black" d="M537.419,-349.38C555.338,-327.384 586.194,-285.228 598,-243 608.313,-206.111 595.655,-161.933 571,-141 538.592,-113.484 412.433,-107.559 351.841,-106.313"/>
<text text-anchor="middle" x="610" y="-231.8" font-family="Times New Roman,serif" font-size="14.00">1.0</text>
</g>
<!-- 85052&#45;&#45;85060 -->
<g id="edge30" class="edge"><title>85052&#45;&#45;85060</title>
<path fill="none" stroke="black" d="M553.291,-357.951C603.109,-344.02 699,-307.928 699,-236.5 699,-236.5 699,-236.5 699,-104 699,-54.9319 329.68,-27.9753 217.153,-20.9007"/>
<text text-anchor="middle" x="708" y="-188.3" font-family="Times New Roman,serif" font-size="14.00">1.0</text>
</g>
<!-- 85054&#45;&#45;85056 -->
<g id="edge31" class="edge"><title>85054&#45;&#45;85056</title>
<path fill="none" stroke="black" d="M415.189,-265.64C386.75,-249.525 337.29,-221.497 308.838,-205.375"/>
<text text-anchor="middle" x="380" y="-231.8" font-family="Times New Roman,serif" font-size="14.00">1.0</text>
</g>
<!-- 85054&#45;&#45;85058 -->
<g id="edge32" class="edge"><title>85054&#45;&#45;85058</title>
<path fill="none" stroke="black" d="M430.678,-261.034C419.932,-233.704 396.107,-179.145 364,-141 356.989,-132.671 347.695,-125.037 339.374,-119.04"/>
<text text-anchor="middle" x="416" y="-188.3" font-family="Times New Roman,serif" font-size="14.00">1.0</text>
</g>
<!-- 85054&#45;&#45;85060 -->
<g id="edge33" class="edge"><title>85054&#45;&#45;85060</title>
<path fill="none" stroke="black" d="M438.752,-260.723C440.224,-239.489 440.527,-202.741 429,-174 410.629,-128.195 399.211,-116.968 360,-87 315.586,-53.055 252.141,-34.0729 215.096,-25.2401"/>
<text text-anchor="middle" x="431" y="-144.8" font-family="Times New Roman,serif" font-size="14.00">1.0</text>
</g>
<!-- 85056&#45;&#45;85058 -->
<g id="edge34" class="edge"><title>85056&#45;&#45;85058</title>
<path fill="none" stroke="black" d="M293.322,-174.207C298.932,-159.305 307.085,-137.649 312.691,-122.758"/>
<text text-anchor="middle" x="314" y="-144.8" font-family="Times New Roman,serif" font-size="14.00">1.0</text>
</g>
<!-- 85056&#45;&#45;85060 -->
<g id="edge35" class="edge"><title>85056&#45;&#45;85060</title>
<path fill="none" stroke="black" d="M277.22,-174.508C257.723,-141.632 214.223,-68.2774 194.751,-35.4422"/>
<text text-anchor="middle" x="256" y="-101.3" font-family="Times New Roman,serif" font-size="14.00">1.0</text>
</g>
<!-- 85058&#45;&#45;85060 -->
<g id="edge36" class="edge"><title>85058&#45;&#45;85060</title>
<path fill="none" stroke="black" d="M298.356,-90.905C273.249,-74.9785 231.106,-48.2461 205.888,-32.2499"/>
<text text-anchor="middle" x="270" y="-57.8" font-family="Times New Roman,serif" font-size="14.00">1.0</text>
</g>
<!-- 91139 -->
<g id="node10" class="node"><title>91139</title>
<ellipse fill="none" stroke="black" cx="708" cy="-714" rx="32.4942" ry="18"/>
<text text-anchor="middle" x="708" y="-710.3" font-family="Times New Roman,serif" font-size="14.00">91139</text>
</g>
<!-- 91140 -->
<g id="node11" class="node"><title>91140</title>
<ellipse fill="none" stroke="black" cx="656" cy="-627" rx="32.4942" ry="18"/>
<text text-anchor="middle" x="656" y="-623.3" font-family="Times New Roman,serif" font-size="14.00">91140</text>
</g>
<!-- 91139&#45;&#45;91140 -->
<g id="edge37" class="edge"><title>91139&#45;&#45;91140</title>
<path fill="none" stroke="black" d="M697.974,-696.611C688.766,-681.56 675.194,-659.374 665.995,-644.339"/>
<text text-anchor="middle" x="695" y="-666.8" font-family="Times New Roman,serif" font-size="14.00">1.0</text>
</g>
<!-- 91142 -->
<g id="node12" class="node"><title>91142</title>
<ellipse fill="none" stroke="black" cx="713" cy="-540" rx="32.4942" ry="18"/>
<text text-anchor="middle" x="713" y="-536.3" font-family="Times New Roman,serif" font-size="14.00">91142</text>
</g>
<!-- 91139&#45;&#45;91142 -->
<g id="edge38" class="edge"><title>91139&#45;&#45;91142</title>
<path fill="none" stroke="black" d="M708.498,-695.879C709.456,-662.91 711.548,-590.966 712.504,-558.052"/>
<text text-anchor="middle" x="720" y="-623.3" font-family="Times New Roman,serif" font-size="14.00">1.0</text>
</g>
<!-- 91140&#45;&#45;91142 -->
<g id="edge39" class="edge"><title>91140&#45;&#45;91142</title>
<path fill="none" stroke="black" d="M666.99,-609.611C677.148,-594.463 692.152,-572.089 702.237,-557.05"/>
<text text-anchor="middle" x="697" y="-579.8" font-family="Times New Roman,serif" font-size="14.00">1.0</text>
</g>
<!-- 217431 -->
<g id="node13" class="node"><title>217431</title>
<ellipse fill="none" stroke="black" cx="875" cy="-714" rx="37.0935" ry="18"/>
<text text-anchor="middle" x="875" y="-710.3" font-family="Times New Roman,serif" font-size="14.00">217431</text>
</g>
<!-- 217432 -->
<g id="node14" class="node"><title>217432</title>
<ellipse fill="none" stroke="black" cx="948" cy="-627" rx="37.0935" ry="18"/>
<text text-anchor="middle" x="948" y="-623.3" font-family="Times New Roman,serif" font-size="14.00">217432</text>
</g>
<!-- 217431&#45;&#45;217432 -->
<g id="edge40" class="edge"><title>217431&#45;&#45;217432</title>
<path fill="none" stroke="black" d="M888.731,-697.012C901.782,-681.815 921.3,-659.089 934.331,-643.916"/>
<text text-anchor="middle" x="925" y="-666.8" font-family="Times New Roman,serif" font-size="14.00">1.0</text>
</g>
<!-- 217434 -->
<g id="node15" class="node"><title>217434</title>
<ellipse fill="none" stroke="black" cx="948" cy="-540" rx="37.0935" ry="18"/>
<text text-anchor="middle" x="948" y="-536.3" font-family="Times New Roman,serif" font-size="14.00">217434</text>
</g>
<!-- 217431&#45;&#45;217434 -->
<g id="edge41" class="edge"><title>217431&#45;&#45;217434</title>
<path fill="none" stroke="black" d="M873.159,-695.947C871.583,-674.62 871.269,-637.453 884,-609 893.799,-587.099 913.659,-567.793 928.671,-555.402"/>
<text text-anchor="middle" x="893" y="-623.3" font-family="Times New Roman,serif" font-size="14.00">1.0</text>
</g>
<!-- 217436 -->
<g id="node16" class="node"><title>217436</title>
<ellipse fill="none" stroke="black" cx="862" cy="-453" rx="37.0935" ry="18"/>
<text text-anchor="middle" x="862" y="-449.3" font-family="Times New Roman,serif" font-size="14.00">217436</text>
</g>
<!-- 217431&#45;&#45;217436 -->
<g id="edge42" class="edge"><title>217431&#45;&#45;217436</title>
<path fill="none" stroke="black" d="M871.645,-695.97C870.64,-690.277 869.637,-683.884 869,-678 860.666,-601.035 862.778,-581.395 861,-504 860.749,-493.063 860.987,-480.78 861.294,-471.125"/>
<text text-anchor="middle" x="872" y="-579.8" font-family="Times New Roman,serif" font-size="14.00">1.0</text>
</g>
<!-- 217438 -->
<g id="node17" class="node"><title>217438</title>
<ellipse fill="none" stroke="black" cx="916" cy="-366" rx="37.0935" ry="18"/>
<text text-anchor="middle" x="916" y="-362.3" font-family="Times New Roman,serif" font-size="14.00">217438</text>
</g>
<!-- 217431&#45;&#45;217438 -->
<g id="edge43" class="edge"><title>217431&#45;&#45;217438</title>
<path fill="none" stroke="black" d="M847.397,-701.531C820.298,-688.213 783,-663.446 783,-628 783,-628 783,-628 783,-452 783,-427.2 849.486,-394.978 888.442,-378.226"/>
<text text-anchor="middle" x="792" y="-536.3" font-family="Times New Roman,serif" font-size="14.00">1.0</text>
</g>
<!-- 217440 -->
<g id="node18" class="node"><title>217440</title>
<ellipse fill="none" stroke="black" cx="981" cy="-279" rx="37.0935" ry="18"/>
<text text-anchor="middle" x="981" y="-275.3" font-family="Times New Roman,serif" font-size="14.00">217440</text>
</g>
<!-- 217431&#45;&#45;217440 -->
<g id="edge44" class="edge"><title>217431&#45;&#45;217440</title>
<path fill="none" stroke="black" d="M910.077,-707.85C975.819,-697.205 1111,-670.188 1111,-628 1111,-628 1111,-628 1111,-365 1111,-319.024 1053.34,-296.585 1014.82,-286.725"/>
<text text-anchor="middle" x="1120" y="-492.8" font-family="Times New Roman,serif" font-size="14.00">1.0</text>
</g>
<!-- 217432&#45;&#45;217434 -->
<g id="edge45" class="edge"><title>217432&#45;&#45;217434</title>
<path fill="none" stroke="black" d="M948,-608.799C948,-594.052 948,-572.915 948,-558.175"/>
<text text-anchor="middle" x="957" y="-579.8" font-family="Times New Roman,serif" font-size="14.00">1.0</text>
</g>
<!-- 217432&#45;&#45;217436 -->
<g id="edge46" class="edge"><title>217432&#45;&#45;217436</title>
<path fill="none" stroke="black" d="M929.375,-611.257C914.771,-598.668 895.118,-579.262 884,-558 869.292,-529.871 864.416,-492.593 862.801,-471.158"/>
<text text-anchor="middle" x="893" y="-536.3" font-family="Times New Roman,serif" font-size="14.00">1.0</text>
</g>
<!-- 217432&#45;&#45;217438 -->
<g id="edge47" class="edge"><title>217432&#45;&#45;217438</title>
<path fill="none" stroke="black" d="M962.232,-610.298C973.064,-597.305 987.226,-577.827 994,-558 1016.46,-492.282 1041.88,-459.547 1003,-402 991.425,-384.867 969.923,-376.119 951.192,-371.654"/>
<text text-anchor="middle" x="1028" y="-492.8" font-family="Times New Roman,serif" font-size="14.00">1.0</text>
</g>
<!-- 217432&#45;&#45;217440 -->
<g id="edge48" class="edge"><title>217432&#45;&#45;217440</title>
<path fill="none" stroke="black" d="M979.971,-617.726C1014.61,-606.605 1065,-583.18 1065,-541 1065,-541 1065,-541 1065,-365 1065,-331.39 1031.36,-306.279 1006.66,-292.37"/>
<text text-anchor="middle" x="1074" y="-449.3" font-family="Times New Roman,serif" font-size="14.00">1.0</text>
</g>
<!-- 217434&#45;&#45;217436 -->
<g id="edge49" class="edge"><title>217434&#45;&#45;217436</title>
<path fill="none" stroke="black" d="M929.065,-524.261C921.649,-518.225 913.209,-511.018 906,-504 894.897,-493.192 883.362,-479.999 874.89,-469.88"/>
<text text-anchor="middle" x="915" y="-492.8" font-family="Times New Roman,serif" font-size="14.00">1.0</text>
</g>
<!-- 217434&#45;&#45;217438 -->
<g id="edge50" class="edge"><title>217434&#45;&#45;217438</title>
<path fill="none" stroke="black" d="M944.815,-521.879C938.681,-488.91 925.296,-416.966 919.172,-384.052"/>
<text text-anchor="middle" x="945" y="-449.3" font-family="Times New Roman,serif" font-size="14.00">1.0</text>
</g>
<!-- 217434&#45;&#45;217440 -->
<g id="edge51" class="edge"><title>217434&#45;&#45;217440</title>
<path fill="none" stroke="black" d="M951.098,-521.937C952.086,-516.242 953.144,-509.856 954,-504 956.138,-489.381 956.228,-485.667 958,-471 965.752,-406.839 974.925,-330.549 978.943,-297.122"/>
<text text-anchor="middle" x="976" y="-405.8" font-family="Times New Roman,serif" font-size="14.00">1.0</text>
</g>
<!-- 217436&#45;&#45;217438 -->
<g id="edge52" class="edge"><title>217436&#45;&#45;217438</title>
<path fill="none" stroke="black" d="M872.412,-435.611C881.974,-420.56 896.068,-398.374 905.62,-383.339"/>
<text text-anchor="middle" x="902" y="-405.8" font-family="Times New Roman,serif" font-size="14.00">1.0</text>
</g>
<!-- 217436&#45;&#45;217440 -->
<g id="edge53" class="edge"><title>217436&#45;&#45;217440</title>
<path fill="none" stroke="black" d="M854.561,-435.143C846.175,-413.358 835.696,-375.024 852,-348 872.663,-313.75 916.959,-295.874 947.845,-287.208"/>
<text text-anchor="middle" x="861" y="-362.3" font-family="Times New Roman,serif" font-size="14.00">1.0</text>
</g>
<!-- 217438&#45;&#45;217440 -->
<g id="edge54" class="edge"><title>217438&#45;&#45;217440</title>
<path fill="none" stroke="black" d="M926.073,-348.336C932.309,-338.392 940.689,-325.665 949,-315 954.162,-308.376 960.291,-301.474 965.796,-295.568"/>
<text text-anchor="middle" x="958" y="-318.8" font-family="Times New Roman,serif" font-size="14.00">1.0</text>
</g>
<!-- 255933 -->
<g id="node19" class="node"><title>255933</title>
<ellipse fill="none" stroke="black" cx="1508" cy="-714" rx="37.0935" ry="18"/>
<text text-anchor="middle" x="1508" y="-710.3" font-family="Times New Roman,serif" font-size="14.00">255933</text>
</g>
<!-- 255934 -->
<g id="node20" class="node"><title>255934</title>
<ellipse fill="none" stroke="black" cx="1469" cy="-627" rx="37.0935" ry="18"/>
<text text-anchor="middle" x="1469" y="-623.3" font-family="Times New Roman,serif" font-size="14.00">255934</text>
</g>
<!-- 255933&#45;&#45;255934 -->
<g id="edge55" class="edge"><title>255933&#45;&#45;255934</title>
<path fill="none" stroke="black" d="M1500.29,-696.207C1493.46,-681.305 1483.52,-659.649 1476.69,-644.758"/>
<text text-anchor="middle" x="1500" y="-666.8" font-family="Times New Roman,serif" font-size="14.00">1.0</text>
</g>
<!-- 255936 -->
<g id="node21" class="node"><title>255936</title>
<ellipse fill="none" stroke="black" cx="1776" cy="-540" rx="37.0935" ry="18"/>
<text text-anchor="middle" x="1776" y="-536.3" font-family="Times New Roman,serif" font-size="14.00">255936</text>
</g>
<!-- 255933&#45;&#45;255936 -->
<g id="edge56" class="edge"><title>255933&#45;&#45;255936</title>
<path fill="none" stroke="black" d="M1543.24,-708.16C1569.81,-703.392 1606.42,-694.363 1635,-678 1691.28,-645.78 1741.69,-585.921 1763.94,-557.198"/>
<text text-anchor="middle" x="1729" y="-623.3" font-family="Times New Roman,serif" font-size="14.00">1.0</text>
</g>
<!-- 255938 -->
<g id="node22" class="node"><title>255938</title>
<ellipse fill="none" stroke="black" cx="1536" cy="-453" rx="37.0935" ry="18"/>
<text text-anchor="middle" x="1536" y="-449.3" font-family="Times New Roman,serif" font-size="14.00">255938</text>
</g>
<!-- 255933&#45;&#45;255938 -->
<g id="edge57" class="edge"><title>255933&#45;&#45;255938</title>
<path fill="none" stroke="black" d="M1511.31,-695.879C1516.67,-667.394 1527.14,-608.415 1532,-558 1534.93,-527.604 1535.73,-492.017 1535.94,-471.339"/>
<text text-anchor="middle" x="1539" y="-579.8" font-family="Times New Roman,serif" font-size="14.00">1.0</text>
</g>
<!-- 255940 -->
<g id="node23" class="node"><title>255940</title>
<ellipse fill="none" stroke="black" cx="1686" cy="-366" rx="37.0935" ry="18"/>
<text text-anchor="middle" x="1686" y="-362.3" font-family="Times New Roman,serif" font-size="14.00">255940</text>
</g>
<!-- 255933&#45;&#45;255940 -->
<g id="edge58" class="edge"><title>255933&#45;&#45;255940</title>
<path fill="none" stroke="black" d="M1545.22,-712.588C1591.22,-709.771 1667.31,-696.997 1699,-645 1725.78,-601.061 1699,-437.786 1689.24,-384.176"/>
<text text-anchor="middle" x="1720" y="-536.3" font-family="Times New Roman,serif" font-size="14.00">1.0</text>
</g>
<!-- 255942 -->
<g id="node24" class="node"><title>255942</title>
<ellipse fill="none" stroke="black" cx="1597" cy="-279" rx="37.0935" ry="18"/>
<text text-anchor="middle" x="1597" y="-275.3" font-family="Times New Roman,serif" font-size="14.00">255942</text>
</g>
<!-- 255933&#45;&#45;255942 -->
<g id="edge59" class="edge"><title>255933&#45;&#45;255942</title>
<path fill="none" stroke="black" d="M1526.26,-697.96C1550.18,-676.942 1590.95,-636.245 1607,-591 1616.92,-563.024 1583.89,-542.267 1576,-504 1574.65,-497.471 1574.93,-495.581 1576,-489 1577.35,-480.676 1580.04,-479.201 1582,-471 1591.1,-432.979 1591.73,-422.959 1595,-384 1597.55,-353.588 1597.61,-318.005 1597.35,-297.333"/>
<text text-anchor="middle" x="1585" y="-492.8" font-family="Times New Roman,serif" font-size="14.00">1.0</text>
</g>
<!-- 255944 -->
<g id="node25" class="node"><title>255944</title>
<ellipse fill="none" stroke="black" cx="1441" cy="-192" rx="37.0935" ry="18"/>
<text text-anchor="middle" x="1441" y="-188.3" font-family="Times New Roman,serif" font-size="14.00">255944</text>
</g>
<!-- 255933&#45;&#45;255944 -->
<g id="edge60" class="edge"><title>255933&#45;&#45;255944</title>
<path fill="none" stroke="black" d="M1470.86,-713.208C1410.35,-712.667 1294.64,-707.666 1269,-678 1264.64,-672.956 1267.18,-669.414 1269,-663 1292.56,-579.871 1371,-583.903 1371,-497.5 1371,-497.5 1371,-497.5 1371,-278 1371,-247.222 1398.69,-221.537 1419.24,-206.713"/>
<text text-anchor="middle" x="1380" y="-449.3" font-family="Times New Roman,serif" font-size="14.00">1.0</text>
</g>
<!-- 255946 -->
<g id="node26" class="node"><title>255946</title>
<ellipse fill="none" stroke="black" cx="1474" cy="-105" rx="37.0935" ry="18"/>
<text text-anchor="middle" x="1474" y="-101.3" font-family="Times New Roman,serif" font-size="14.00">255946</text>
</g>
<!-- 255933&#45;&#45;255946 -->
<g id="edge61" class="edge"><title>255933&#45;&#45;255946</title>
<path fill="none" stroke="black" d="M1474.69,-706.101C1423.13,-693.43 1325.61,-661.052 1284,-591 1236.57,-511.164 1267.16,-255.862 1311,-174 1337.01,-125.426 1371.2,-138.741 1424,-123 1430.85,-120.957 1438.17,-118.581 1445.04,-116.264"/>
<text text-anchor="middle" x="1271" y="-405.8" font-family="Times New Roman,serif" font-size="14.00">1.0</text>
</g>
<!-- 255948 -->
<g id="node27" class="node"><title>255948</title>
<ellipse fill="none" stroke="black" cx="1342" cy="-18" rx="37.0935" ry="18"/>
<text text-anchor="middle" x="1342" y="-14.3" font-family="Times New Roman,serif" font-size="14.00">255948</text>
</g>
<!-- 255933&#45;&#45;255948 -->
<g id="edge62" class="edge"><title>255933&#45;&#45;255948</title>
<path fill="none" stroke="black" d="M1471.1,-711.848C1380.98,-708.035 1157,-692.11 1157,-628 1157,-628 1157,-628 1157,-104 1157,-39.4936 1251.02,-23.7611 1305.01,-20.0446"/>
<text text-anchor="middle" x="1166" y="-362.3" font-family="Times New Roman,serif" font-size="14.00">1.0</text>
</g>
<!-- 255934&#45;&#45;255936 -->
<g id="edge63" class="edge"><title>255934&#45;&#45;255936</title>
<path fill="none" stroke="black" d="M1500.6,-617.38C1547.6,-604.544 1638.68,-579.597 1716,-558 1725.38,-555.379 1735.59,-552.499 1744.87,-549.867"/>
<text text-anchor="middle" x="1658" y="-579.8" font-family="Times New Roman,serif" font-size="14.00">1.0</text>
</g>
<!-- 255934&#45;&#45;255938 -->
<g id="edge64" class="edge"><title>255934&#45;&#45;255938</title>
<path fill="none" stroke="black" d="M1475.55,-609.195C1488.36,-576.312 1516.6,-503.811 1529.43,-470.873"/>
<text text-anchor="middle" x="1519" y="-536.3" font-family="Times New Roman,serif" font-size="14.00">1.0</text>
</g>
<!-- 255934&#45;&#45;255940 -->
<g id="edge65" class="edge"><title>255934&#45;&#45;255940</title>
<path fill="none" stroke="black" d="M1485.82,-610.746C1497.38,-600.522 1513.24,-586.974 1528,-576 1575.19,-540.92 1602.81,-550.348 1639,-504 1667.63,-467.334 1679.43,-412.116 1683.77,-384.308"/>
<text text-anchor="middle" x="1659" y="-492.8" font-family="Times New Roman,serif" font-size="14.00">1.0</text>
</g>
<!-- 255934&#45;&#45;255942 -->
<g id="edge66" class="edge"><title>255934&#45;&#45;255942</title>
<path fill="none" stroke="black" d="M1465.68,-608.993C1459.77,-574.801 1450,-495.811 1472,-435 1493.88,-374.536 1549.95,-320.111 1578.98,-294.867"/>
<text text-anchor="middle" x="1481" y="-449.3" font-family="Times New Roman,serif" font-size="14.00">1.0</text>
</g>
<!-- 255934&#45;&#45;255944 -->
<g id="edge67" class="edge"><title>255934&#45;&#45;255944</title>
<path fill="none" stroke="black" d="M1462.89,-609.1C1461.05,-603.416 1459.2,-596.996 1458,-591 1455.11,-576.559 1456.26,-572.673 1455,-558 1445.07,-442.05 1438.67,-413.281 1434,-297 1432.77,-266.358 1430.98,-258.517 1434,-228 1434.59,-222.08 1435.72,-215.678 1436.9,-209.988"/>
<text text-anchor="middle" x="1451" y="-405.8" font-family="Times New Roman,serif" font-size="14.00">1.0</text>
</g>
<!-- 255934&#45;&#45;255946 -->
<g id="edge68" class="edge"><title>255934&#45;&#45;255946</title>
<path fill="none" stroke="black" d="M1449.88,-611.305C1410.71,-579.379 1325,-499.369 1325,-410.5 1325,-410.5 1325,-410.5 1325,-191 1325,-163.75 1401.14,-132.024 1444.56,-116.146"/>
<text text-anchor="middle" x="1334" y="-362.3" font-family="Times New Roman,serif" font-size="14.00">1.0</text>
</g>
<!-- 255934&#45;&#45;255948 -->
<g id="edge69" class="edge"><title>255934&#45;&#45;255948</title>
<path fill="none" stroke="black" d="M1444.45,-613.425C1378.6,-577.746 1203,-468.962 1203,-323.5 1203,-323.5 1203,-323.5 1203,-104 1203,-55.206 1266.11,-33.5758 1307.28,-24.6565"/>
<text text-anchor="middle" x="1213" y="-318.8" font-family="Times New Roman,serif" font-size="14.00">1.0</text>
</g>
<!-- 255936&#45;&#45;255938 -->
<g id="edge70" class="edge"><title>255936&#45;&#45;255938</title>
<path fill="none" stroke="black" d="M1745.3,-529.736C1735.94,-527.064 1725.59,-524.262 1716,-522 1674.17,-512.133 1660.87,-520.043 1621,-504 1609.68,-499.444 1608.43,-495.336 1598,-489 1585.53,-481.427 1571.39,-473.399 1559.76,-466.945"/>
<text text-anchor="middle" x="1630" y="-492.8" font-family="Times New Roman,serif" font-size="14.00">1.0</text>
</g>
<!-- 255936&#45;&#45;255940 -->
<g id="edge71" class="edge"><title>255936&#45;&#45;255940</title>
<path fill="none" stroke="black" d="M1767.84,-522.421C1755.03,-496.527 1729.25,-444.994 1706,-402 1702.74,-395.967 1699.04,-389.424 1695.72,-383.646"/>
<text text-anchor="middle" x="1751" y="-449.3" font-family="Times New Roman,serif" font-size="14.00">1.0</text>
</g>
<!-- 255936&#45;&#45;255942 -->
<g id="edge72" class="edge"><title>255936&#45;&#45;255942</title>
<path fill="none" stroke="black" d="M1777.04,-521.873C1778.31,-485.336 1776.11,-398.933 1732,-348 1724.25,-339.048 1660.31,-308.914 1623.28,-291.919"/>
<text text-anchor="middle" x="1776" y="-405.8" font-family="Times New Roman,serif" font-size="14.00">1.0</text>
</g>
<!-- 255936&#45;&#45;255944 -->
<g id="edge73" class="edge"><title>255936&#45;&#45;255944</title>
<path fill="none" stroke="black" d="M1785.34,-522.419C1788.04,-516.756 1790.64,-510.267 1792,-504 1796.95,-481.256 1813.51,-487.946 1789,-402 1768,-328.365 1751.38,-306.78 1690,-261 1657.85,-237.019 1644.42,-239.534 1606,-228 1561.69,-214.695 1509.22,-204.481 1475.55,-198.611"/>
<text text-anchor="middle" x="1793" y="-362.3" font-family="Times New Roman,serif" font-size="14.00">1.0</text>
</g>
<!-- 255936&#45;&#45;255946 -->
<g id="edge74" class="edge"><title>255936&#45;&#45;255946</title>
<path fill="none" stroke="black" d="M1794.1,-523.869C1799.74,-518.212 1805.42,-511.358 1809,-504 1815.49,-490.663 1812.89,-485.792 1814,-471 1824,-338.185 1830.88,-294.435 1774,-174 1766.26,-157.602 1765.61,-150.232 1750,-141 1710.35,-117.55 1576.55,-109.614 1510.92,-107.092"/>
<text text-anchor="middle" x="1829" y="-318.8" font-family="Times New Roman,serif" font-size="14.00">1.0</text>
</g>
<!-- 255936&#45;&#45;255948 -->
<g id="edge75" class="edge"><title>255936&#45;&#45;255948</title>
<path fill="none" stroke="black" d="M1810.42,-532.856C1850.41,-523.504 1911,-501.499 1911,-454 1911,-454 1911,-454 1911,-104 1911,-80.2697 1882.71,-75.3653 1771,-54 1627.88,-26.6267 1453.88,-20.6474 1379.09,-19.352"/>
<text text-anchor="middle" x="1920" y="-275.3" font-family="Times New Roman,serif" font-size="14.00">1.0</text>
</g>
<!-- 255938&#45;&#45;255940 -->
<g id="edge76" class="edge"><title>255938&#45;&#45;255940</title>
<path fill="none" stroke="black" d="M1559.11,-438.905C1587.21,-422.979 1634.39,-396.246 1662.62,-380.25"/>
<text text-anchor="middle" x="1629" y="-405.8" font-family="Times New Roman,serif" font-size="14.00">1.0</text>
</g>
<!-- 255938&#45;&#45;255942 -->
<g id="edge77" class="edge"><title>255938&#45;&#45;255942</title>
<path fill="none" stroke="black" d="M1541.96,-435.195C1553.62,-402.312 1579.33,-329.811 1591.02,-296.873"/>
<text text-anchor="middle" x="1582" y="-362.3" font-family="Times New Roman,serif" font-size="14.00">1.0</text>
</g>
<!-- 255938&#45;&#45;255944 -->
<g id="edge78" class="edge"><title>255938&#45;&#45;255944</title>
<path fill="none" stroke="black" d="M1510.74,-439.806C1500.96,-434.04 1490.38,-426.349 1483,-417 1433.37,-354.097 1435.98,-250.551 1439.23,-210.018"/>
<text text-anchor="middle" x="1455" y="-318.8" font-family="Times New Roman,serif" font-size="14.00">1.0</text>
</g>
<!-- 255938&#45;&#45;255946 -->
<g id="edge79" class="edge"><title>255938&#45;&#45;255946</title>
<path fill="none" stroke="black" d="M1533.33,-434.746C1525.97,-387.564 1504.4,-252.483 1482,-141 1480.82,-135.134 1479.4,-128.745 1478.09,-123.051"/>
<text text-anchor="middle" x="1520" y="-275.3" font-family="Times New Roman,serif" font-size="14.00">1.0</text>
</g>
<!-- 255938&#45;&#45;255948 -->
<g id="edge80" class="edge"><title>255938&#45;&#45;255948</title>
<path fill="none" stroke="black" d="M1509.74,-439.933C1504.61,-437.99 1499.21,-436.219 1494,-435 1442.14,-422.863 1296.2,-450.758 1255,-417 1237.15,-402.373 1241,-390.077 1241,-367 1241,-367 1241,-367 1241,-104 1241,-66.1853 1282.96,-41.8054 1312.79,-29.251"/>
<text text-anchor="middle" x="1250" y="-231.8" font-family="Times New Roman,serif" font-size="14.00">1.0</text>
</g>
<!-- 255940&#45;&#45;255942 -->
<g id="edge81" class="edge"><title>255940&#45;&#45;255942</title>
<path fill="none" stroke="black" d="M1669.76,-349.695C1663.29,-343.581 1655.78,-336.469 1649,-330 1636.86,-318.418 1623.18,-305.261 1612.9,-295.352"/>
<text text-anchor="middle" x="1658" y="-318.8" font-family="Times New Roman,serif" font-size="14.00">1.0</text>
</g>
<!-- 255940&#45;&#45;255944 -->
<g id="edge82" class="edge"><title>255940&#45;&#45;255944</title>
<path fill="none" stroke="black" d="M1683.41,-347.735C1679.07,-324.782 1668.2,-284.401 1643,-261 1618.06,-237.833 1524.62,-212.84 1474.03,-200.613"/>
<text text-anchor="middle" x="1677" y="-275.3" font-family="Times New Roman,serif" font-size="14.00">1.0</text>
</g>
<!-- 255940&#45;&#45;255946 -->
<g id="edge83" class="edge"><title>255940&#45;&#45;255946</title>
<path fill="none" stroke="black" d="M1700.27,-349.11C1718.95,-327.131 1750.75,-285.347 1763,-243 1774.39,-203.617 1750.05,-158.202 1728,-141 1695.01,-115.259 1573.49,-108.449 1511.26,-106.648"/>
<text text-anchor="middle" x="1775" y="-231.8" font-family="Times New Roman,serif" font-size="14.00">1.0</text>
</g>
<!-- 255940&#45;&#45;255948 -->
<g id="edge84" class="edge"><title>255940&#45;&#45;255948</title>
<path fill="none" stroke="black" d="M1718.83,-357.391C1770.51,-343.247 1865,-307.654 1865,-236.5 1865,-236.5 1865,-236.5 1865,-104 1865,-54.6704 1497.82,-28.3313 1378.78,-21.088"/>
<text text-anchor="middle" x="1874" y="-188.3" font-family="Times New Roman,serif" font-size="14.00">1.0</text>
</g>
<!-- 255942&#45;&#45;255944 -->
<g id="edge85" class="edge"><title>255942&#45;&#45;255944</title>
<path fill="none" stroke="black" d="M1573.31,-265.09C1543.9,-249.068 1494.05,-221.906 1464.66,-205.892"/>
<text text-anchor="middle" x="1538" y="-231.8" font-family="Times New Roman,serif" font-size="14.00">1.0</text>
</g>
<!-- 255942&#45;&#45;255946 -->
<g id="edge86" class="edge"><title>255942&#45;&#45;255946</title>
<path fill="none" stroke="black" d="M1590.35,-260.972C1579.06,-233.555 1554.13,-178.877 1521,-141 1513.9,-132.882 1504.62,-125.487 1496.19,-119.606"/>
<text text-anchor="middle" x="1576" y="-188.3" font-family="Times New Roman,serif" font-size="14.00">1.0</text>
</g>
<!-- 255942&#45;&#45;255948 -->
<g id="edge87" class="edge"><title>255942&#45;&#45;255948</title>
<path fill="none" stroke="black" d="M1598.75,-260.723C1600.22,-239.489 1600.53,-202.741 1589,-174 1570.63,-128.195 1559.54,-116.529 1520,-87 1475.74,-53.944 1413.47,-35.0782 1375.53,-25.9558"/>
<text text-anchor="middle" x="1591" y="-144.8" font-family="Times New Roman,serif" font-size="14.00">1.0</text>
</g>
<!-- 255944&#45;&#45;255946 -->
<g id="edge88" class="edge"><title>255944&#45;&#45;255946</title>
<path fill="none" stroke="black" d="M1447.52,-174.207C1453.31,-159.305 1461.71,-137.649 1467.49,-122.758"/>
<text text-anchor="middle" x="1469" y="-144.8" font-family="Times New Roman,serif" font-size="14.00">1.0</text>
</g>
<!-- 255944&#45;&#45;255948 -->
<g id="edge89" class="edge"><title>255944&#45;&#45;255948</title>
<path fill="none" stroke="black" d="M1431.51,-174.508C1412.58,-141.632 1370.36,-68.2774 1351.46,-35.4422"/>
<text text-anchor="middle" x="1411" y="-101.3" font-family="Times New Roman,serif" font-size="14.00">1.0</text>
</g>
<!-- 255946&#45;&#45;255948 -->
<g id="edge90" class="edge"><title>255946&#45;&#45;255948</title>
<path fill="none" stroke="black" d="M1452.5,-90.1541C1427.95,-74.3478 1388.04,-48.6438 1363.49,-32.84"/>
<text text-anchor="middle" x="1425" y="-57.8" font-family="Times New Roman,serif" font-size="14.00">1.0</text>
</g>
<!-- 356213 -->
<g id="node28" class="node"><title>356213</title>
<ellipse fill="none" stroke="black" cx="2041" cy="-714" rx="37.0935" ry="18"/>
<text text-anchor="middle" x="2041" y="-710.3" font-family="Times New Roman,serif" font-size="14.00">356213</text>
</g>
<!-- 356214 -->
<g id="node29" class="node"><title>356214</title>
<ellipse fill="none" stroke="black" cx="2114" cy="-627" rx="37.0935" ry="18"/>
<text text-anchor="middle" x="2114" y="-623.3" font-family="Times New Roman,serif" font-size="14.00">356214</text>
</g>
<!-- 356213&#45;&#45;356214 -->
<g id="edge91" class="edge"><title>356213&#45;&#45;356214</title>
<path fill="none" stroke="black" d="M2054.73,-697.012C2067.78,-681.815 2087.3,-659.089 2100.33,-643.916"/>
<text text-anchor="middle" x="2091" y="-666.8" font-family="Times New Roman,serif" font-size="14.00">1.0</text>
</g>
<!-- 356216 -->
<g id="node30" class="node"><title>356216</title>
<ellipse fill="none" stroke="black" cx="2114" cy="-540" rx="37.0935" ry="18"/>
<text text-anchor="middle" x="2114" y="-536.3" font-family="Times New Roman,serif" font-size="14.00">356216</text>
</g>
<!-- 356213&#45;&#45;356216 -->
<g id="edge92" class="edge"><title>356213&#45;&#45;356216</title>
<path fill="none" stroke="black" d="M2039.16,-695.947C2037.58,-674.62 2037.27,-637.453 2050,-609 2059.8,-587.099 2079.66,-567.793 2094.67,-555.402"/>
<text text-anchor="middle" x="2059" y="-623.3" font-family="Times New Roman,serif" font-size="14.00">1.0</text>
</g>
<!-- 356218 -->
<g id="node31" class="node"><title>356218</title>
<ellipse fill="none" stroke="black" cx="2028" cy="-453" rx="37.0935" ry="18"/>
<text text-anchor="middle" x="2028" y="-449.3" font-family="Times New Roman,serif" font-size="14.00">356218</text>
</g>
<!-- 356213&#45;&#45;356218 -->
<g id="edge93" class="edge"><title>356213&#45;&#45;356218</title>
<path fill="none" stroke="black" d="M2037.65,-695.97C2036.64,-690.277 2035.64,-683.884 2035,-678 2026.67,-601.035 2028.78,-581.395 2027,-504 2026.75,-493.063 2026.99,-480.78 2027.29,-471.125"/>
<text text-anchor="middle" x="2038" y="-579.8" font-family="Times New Roman,serif" font-size="14.00">1.0</text>
</g>
<!-- 356220 -->
<g id="node32" class="node"><title>356220</title>
<ellipse fill="none" stroke="black" cx="2082" cy="-366" rx="37.0935" ry="18"/>
<text text-anchor="middle" x="2082" y="-362.3" font-family="Times New Roman,serif" font-size="14.00">356220</text>
</g>
<!-- 356213&#45;&#45;356220 -->
<g id="edge94" class="edge"><title>356213&#45;&#45;356220</title>
<path fill="none" stroke="black" d="M2013.4,-701.531C1986.3,-688.213 1949,-663.446 1949,-628 1949,-628 1949,-628 1949,-452 1949,-427.2 2015.49,-394.978 2054.44,-378.226"/>
<text text-anchor="middle" x="1958" y="-536.3" font-family="Times New Roman,serif" font-size="14.00">1.0</text>
</g>
<!-- 356222 -->
<g id="node33" class="node"><title>356222</title>
<ellipse fill="none" stroke="black" cx="2147" cy="-279" rx="37.0935" ry="18"/>
<text text-anchor="middle" x="2147" y="-275.3" font-family="Times New Roman,serif" font-size="14.00">356222</text>
</g>
<!-- 356213&#45;&#45;356222 -->
<g id="edge95" class="edge"><title>356213&#45;&#45;356222</title>
<path fill="none" stroke="black" d="M2076.08,-707.85C2141.82,-697.205 2277,-670.188 2277,-628 2277,-628 2277,-628 2277,-365 2277,-319.024 2219.34,-296.585 2180.82,-286.725"/>
<text text-anchor="middle" x="2286" y="-492.8" font-family="Times New Roman,serif" font-size="14.00">1.0</text>
</g>
<!-- 356214&#45;&#45;356216 -->
<g id="edge96" class="edge"><title>356214&#45;&#45;356216</title>
<path fill="none" stroke="black" d="M2114,-608.799C2114,-594.052 2114,-572.915 2114,-558.175"/>
<text text-anchor="middle" x="2123" y="-579.8" font-family="Times New Roman,serif" font-size="14.00">1.0</text>
</g>
<!-- 356214&#45;&#45;356218 -->
<g id="edge97" class="edge"><title>356214&#45;&#45;356218</title>
<path fill="none" stroke="black" d="M2095.38,-611.257C2080.77,-598.668 2061.12,-579.262 2050,-558 2035.29,-529.871 2030.42,-492.593 2028.8,-471.158"/>
<text text-anchor="middle" x="2059" y="-536.3" font-family="Times New Roman,serif" font-size="14.00">1.0</text>
</g>
<!-- 356214&#45;&#45;356220 -->
<g id="edge98" class="edge"><title>356214&#45;&#45;356220</title>
<path fill="none" stroke="black" d="M2128.23,-610.298C2139.06,-597.305 2153.23,-577.827 2160,-558 2182.46,-492.282 2207.88,-459.547 2169,-402 2157.43,-384.867 2135.92,-376.119 2117.19,-371.654"/>
<text text-anchor="middle" x="2194" y="-492.8" font-family="Times New Roman,serif" font-size="14.00">1.0</text>
</g>
<!-- 356214&#45;&#45;356222 -->
<g id="edge99" class="edge"><title>356214&#45;&#45;356222</title>
<path fill="none" stroke="black" d="M2145.97,-617.726C2180.61,-606.605 2231,-583.18 2231,-541 2231,-541 2231,-541 2231,-365 2231,-331.39 2197.36,-306.279 2172.66,-292.37"/>
<text text-anchor="middle" x="2240" y="-449.3" font-family="Times New Roman,serif" font-size="14.00">1.0</text>
</g>
<!-- 356216&#45;&#45;356218 -->
<g id="edge100" class="edge"><title>356216&#45;&#45;356218</title>
<path fill="none" stroke="black" d="M2095.06,-524.261C2087.65,-518.225 2079.21,-511.018 2072,-504 2060.9,-493.192 2049.36,-479.999 2040.89,-469.88"/>
<text text-anchor="middle" x="2081" y="-492.8" font-family="Times New Roman,serif" font-size="14.00">1.0</text>
</g>
<!-- 356216&#45;&#45;356220 -->
<g id="edge101" class="edge"><title>356216&#45;&#45;356220</title>
<path fill="none" stroke="black" d="M2110.81,-521.879C2104.68,-488.91 2091.3,-416.966 2085.17,-384.052"/>
<text text-anchor="middle" x="2111" y="-449.3" font-family="Times New Roman,serif" font-size="14.00">1.0</text>
</g>
<!-- 356216&#45;&#45;356222 -->
<g id="edge102" class="edge"><title>356216&#45;&#45;356222</title>
<path fill="none" stroke="black" d="M2117.1,-521.937C2118.09,-516.242 2119.14,-509.856 2120,-504 2122.14,-489.381 2122.23,-485.667 2124,-471 2131.75,-406.839 2140.93,-330.549 2144.94,-297.122"/>
<text text-anchor="middle" x="2142" y="-405.8" font-family="Times New Roman,serif" font-size="14.00">1.0</text>
</g>
<!-- 356218&#45;&#45;356220 -->
<g id="edge103" class="edge"><title>356218&#45;&#45;356220</title>
<path fill="none" stroke="black" d="M2038.41,-435.611C2047.97,-420.56 2062.07,-398.374 2071.62,-383.339"/>
<text text-anchor="middle" x="2068" y="-405.8" font-family="Times New Roman,serif" font-size="14.00">1.0</text>
</g>
<!-- 356218&#45;&#45;356222 -->
<g id="edge104" class="edge"><title>356218&#45;&#45;356222</title>
<path fill="none" stroke="black" d="M2020.56,-435.143C2012.18,-413.358 2001.7,-375.024 2018,-348 2038.66,-313.75 2082.96,-295.874 2113.84,-287.208"/>
<text text-anchor="middle" x="2027" y="-362.3" font-family="Times New Roman,serif" font-size="14.00">1.0</text>
</g>
<!-- 356220&#45;&#45;356222 -->
<g id="edge105" class="edge"><title>356220&#45;&#45;356222</title>
<path fill="none" stroke="black" d="M2092.07,-348.336C2098.31,-338.392 2106.69,-325.665 2115,-315 2120.16,-308.376 2126.29,-301.474 2131.8,-295.568"/>
<text text-anchor="middle" x="2124" y="-318.8" font-family="Times New Roman,serif" font-size="14.00">1.0</text>
</g>
</g>
</svg>
