<svg width="464px" height="523px"
 viewBox="0.00 0.00 348.05 392.00" xmlns="http://www.w3.org/2000/svg" xmlns:xlink="http://www.w3.org/1999/xlink">
<g id="graph0" class="graph" transform="scale(1.000022500562514 1.000022500562514) rotate(0) translate(4 388)">
<title>G</title>
<polygon fill="white" stroke="none" points="-4,4 -4,-388 344.047,-388 344.047,4 -4,4"/>
<!-- 307995 -->
<g id="node1" class="node"><title>307995</title>
<ellipse fill="none" stroke="black" cx="72" cy="-366" rx="37.0935" ry="18"/>
<text text-anchor="middle" x="72" y="-362.3" font-family="Times New Roman,serif" font-size="14.00">307995</text>
</g>
<!-- 307996 -->
<g id="node2" class="node"><title>307996</title>
<ellipse fill="none" stroke="black" cx="119" cy="-279" rx="37.0935" ry="18"/>
<text text-anchor="middle" x="119" y="-275.3" font-family="Times New Roman,serif" font-size="14.00">307996</text>
</g>
<!-- 307995&#45;&#45;307996 -->
<g id="edge1" class="edge"><title>307995&#45;&#45;307996</title>
<path fill="none" stroke="black" d="M81.2857,-348.207C89.5789,-333.208 101.655,-311.368 109.894,-296.469"/>
<text text-anchor="middle" x="108" y="-318.8" font-family="Times New Roman,serif" font-size="14.00">1.0</text>
</g>
<!-- 307998 -->
<g id="node3" class="node"><title>307998</title>
<ellipse fill="none" stroke="black" cx="119" cy="-192" rx="37.0935" ry="18"/>
<text text-anchor="middle" x="119" y="-188.3" font-family="Times New Roman,serif" font-size="14.00">307998</text>
</g>
<!-- 307995&#45;&#45;307998 -->
<g id="edge2" class="edge"><title>307995&#45;&#45;307998</title>
<path fill="none" stroke="black" d="M63.9633,-348.205C55.0613,-327.144 43.3995,-290.251 55,-261 63.7854,-238.847 83.5839,-219.714 98.8508,-207.437"/>
<text text-anchor="middle" x="64" y="-275.3" font-family="Times New Roman,serif" font-size="14.00">1.0</text>
</g>
<!-- 308000 -->
<g id="node4" class="node"><title>308000</title>
<ellipse fill="none" stroke="black" cx="186" cy="-105" rx="37.0935" ry="18"/>
<text text-anchor="middle" x="186" y="-101.3" font-family="Times New Roman,serif" font-size="14.00">308000</text>
</g>
<!-- 307995&#45;&#45;308000 -->
<g id="edge3" class="edge"><title>307995&#45;&#45;308000</title>
<path fill="none" stroke="black" d="M96.5872,-352.525C117.464,-340.788 146.847,-321.388 165,-297 198.728,-251.688 200.405,-230.384 197,-174 195.94,-156.452 192.471,-136.636 189.708,-122.942"/>
<text text-anchor="middle" x="205" y="-231.8" font-family="Times New Roman,serif" font-size="14.00">1.0</text>
</g>
<!-- 308002 -->
<g id="node5" class="node"><title>308002</title>
<ellipse fill="none" stroke="black" cx="80" cy="-18" rx="37.0935" ry="18"/>
<text text-anchor="middle" x="80" y="-14.3" font-family="Times New Roman,serif" font-size="14.00">308002</text>
</g>
<!-- 307995&#45;&#45;308002 -->
<g id="edge4" class="edge"><title>307995&#45;&#45;308002</title>
<path fill="none" stroke="black" d="M49.6134,-351.435C28.4777,-336.729 0,-311.137 0,-280 0,-280 0,-280 0,-104 0,-71.1708 32.0361,-45.8526 55.5627,-31.6859"/>
<text text-anchor="middle" x="9" y="-188.3" font-family="Times New Roman,serif" font-size="14.00">1.0</text>
</g>
<!-- 307996&#45;&#45;307998 -->
<g id="edge5" class="edge"><title>307996&#45;&#45;307998</title>
<path fill="none" stroke="black" d="M119,-260.799C119,-246.052 119,-224.915 119,-210.175"/>
<text text-anchor="middle" x="128" y="-231.8" font-family="Times New Roman,serif" font-size="14.00">1.0</text>
</g>
<!-- 307996&#45;&#45;308000 -->
<g id="edge6" class="edge"><title>307996&#45;&#45;308000</title>
<path fill="none" stroke="black" d="M132.317,-261.94C142.631,-248.745 156.543,-229.169 165,-210 174.964,-187.415 173.157,-180.206 178,-156 180.173,-145.139 182.145,-132.856 183.587,-123.183"/>
<text text-anchor="middle" x="184" y="-188.3" font-family="Times New Roman,serif" font-size="14.00">1.0</text>
</g>
<!-- 307996&#45;&#45;308002 -->
<g id="edge7" class="edge"><title>307996&#45;&#45;308002</title>
<path fill="none" stroke="black" d="M104.422,-262.41C93.3954,-249.48 79.1393,-230.032 73,-210 54.0891,-148.294 67.9546,-70.0985 75.7079,-36.0894"/>
<text text-anchor="middle" x="73" y="-144.8" font-family="Times New Roman,serif" font-size="14.00">1.0</text>
</g>
<!-- 307998&#45;&#45;308000 -->
<g id="edge8" class="edge"><title>307998&#45;&#45;308000</title>
<path fill="none" stroke="black" d="M131.602,-175.012C143.505,-159.912 161.268,-137.376 173.227,-122.205"/>
<text text-anchor="middle" x="166" y="-144.8" font-family="Times New Roman,serif" font-size="14.00">1.0</text>
</g>
<!-- 307998&#45;&#45;308002 -->
<g id="edge9" class="edge"><title>307998&#45;&#45;308002</title>
<path fill="none" stroke="black" d="M115.118,-173.879C107.642,-140.91 91.3295,-68.9659 83.8664,-36.0516"/>
<text text-anchor="middle" x="113" y="-101.3" font-family="Times New Roman,serif" font-size="14.00">1.0</text>
</g>
<!-- 308000&#45;&#45;308002 -->
<g id="edge10" class="edge"><title>308000&#45;&#45;308002</title>
<path fill="none" stroke="black" d="M167.536,-89.1941C148.199,-73.6881 117.999,-49.4706 98.6079,-33.9214"/>
<text text-anchor="middle" x="149" y="-57.8" font-family="Times New Roman,serif" font-size="14.00">1.0</text>
</g>
<!-- 392155 -->
<g id="node6" class="node"><title>392155</title>
<ellipse fill="none" stroke="black" cx="303" cy="-366" rx="37.0935" ry="18"/>
<text text-anchor="middle" x="303" y="-362.3" font-family="Times New Roman,serif" font-size="14.00">392155</text>
</g>
<!-- 392156 -->
<g id="node7" class="node"><title>392156</title>
<ellipse fill="none" stroke="black" cx="303" cy="-279" rx="37.0935" ry="18"/>
<text text-anchor="middle" x="303" y="-275.3" font-family="Times New Roman,serif" font-size="14.00">392156</text>
</g>
<!-- 392155&#45;&#45;392156 -->
<g id="edge11" class="edge"><title>392155&#45;&#45;392156</title>
<path fill="none" stroke="black" d="M303,-347.799C303,-333.052 303,-311.915 303,-297.175"/>
<text text-anchor="middle" x="312" y="-318.8" font-family="Times New Roman,serif" font-size="14.00">1.0</text>
</g>
</g>
</svg>
