<svg width="828px" height="871px"
 viewBox="0.00 0.00 621.00 653.00" xmlns="http://www.w3.org/2000/svg" xmlns:xlink="http://www.w3.org/1999/xlink">
<g id="graph0" class="graph" transform="scale(1.000022500562514 1.000022500562514) rotate(0) translate(4 649)">
<title>G</title>
<polygon fill="white" stroke="none" points="-4,4 -4,-649 617,-649 617,4 -4,4"/>
<!-- 207769 -->
<g id="node1" class="node"><title>207769</title>
<ellipse fill="none" stroke="black" cx="286" cy="-627" rx="37.0935" ry="18"/>
<text text-anchor="middle" x="286" y="-623.3" font-family="Times New Roman,serif" font-size="14.00">207769</text>
</g>
<!-- 207770 -->
<g id="node2" class="node"><title>207770</title>
<ellipse fill="none" stroke="black" cx="390" cy="-540" rx="37.0935" ry="18"/>
<text text-anchor="middle" x="390" y="-536.3" font-family="Times New Roman,serif" font-size="14.00">207770</text>
</g>
<!-- 207769&#45;&#45;207770 -->
<g id="edge1" class="edge"><title>207769&#45;&#45;207770</title>
<path fill="none" stroke="black" d="M304.115,-611.194C323.088,-595.688 352.718,-571.471 371.743,-555.921"/>
<text text-anchor="middle" x="353" y="-579.8" font-family="Times New Roman,serif" font-size="14.00">1.0</text>
</g>
<!-- 207772 -->
<g id="node3" class="node"><title>207772</title>
<ellipse fill="none" stroke="black" cx="286" cy="-453" rx="37.0935" ry="18"/>
<text text-anchor="middle" x="286" y="-449.3" font-family="Times New Roman,serif" font-size="14.00">207772</text>
</g>
<!-- 207769&#45;&#45;207772 -->
<g id="edge2" class="edge"><title>207769&#45;&#45;207772</title>
<path fill="none" stroke="black" d="M286,-608.879C286,-575.91 286,-503.966 286,-471.052"/>
<text text-anchor="middle" x="295" y="-536.3" font-family="Times New Roman,serif" font-size="14.00">1.0</text>
</g>
<!-- 207774 -->
<g id="node4" class="node"><title>207774</title>
<ellipse fill="none" stroke="black" cx="142" cy="-366" rx="37.0935" ry="18"/>
<text text-anchor="middle" x="142" y="-362.3" font-family="Times New Roman,serif" font-size="14.00">207774</text>
</g>
<!-- 207769&#45;&#45;207774 -->
<g id="edge3" class="edge"><title>207769&#45;&#45;207774</title>
<path fill="none" stroke="black" d="M252.55,-619.235C235.307,-614.151 215.187,-605.487 202,-591 146.985,-530.562 141.492,-425.124 141.576,-384.056"/>
<text text-anchor="middle" x="166" y="-492.8" font-family="Times New Roman,serif" font-size="14.00">1.0</text>
</g>
<!-- 207776 -->
<g id="node5" class="node"><title>207776</title>
<ellipse fill="none" stroke="black" cx="409" cy="-279" rx="37.0935" ry="18"/>
<text text-anchor="middle" x="409" y="-275.3" font-family="Times New Roman,serif" font-size="14.00">207776</text>
</g>
<!-- 207769&#45;&#45;207776 -->
<g id="edge4" class="edge"><title>207769&#45;&#45;207776</title>
<path fill="none" stroke="black" d="M321.879,-622.06C394.061,-613.134 550,-588.368 550,-541 550,-541 550,-541 550,-408.5 550,-353.728 494.745,-367.686 455,-330 443.53,-319.125 431.465,-305.935 422.569,-295.834"/>
<text text-anchor="middle" x="559" y="-449.3" font-family="Times New Roman,serif" font-size="14.00">1.0</text>
</g>
<!-- 207778 -->
<g id="node6" class="node"><title>207778</title>
<ellipse fill="none" stroke="black" cx="252" cy="-192" rx="37.0935" ry="18"/>
<text text-anchor="middle" x="252" y="-188.3" font-family="Times New Roman,serif" font-size="14.00">207778</text>
</g>
<!-- 207769&#45;&#45;207778 -->
<g id="edge5" class="edge"><title>207769&#45;&#45;207778</title>
<path fill="none" stroke="black" d="M279.246,-609.16C268.387,-581.079 247.505,-522.668 240,-471 238.551,-461.023 235.421,-570.572 241,-261 241.264,-246.329 239.745,-242.499 242,-228 242.932,-222.005 244.572,-215.585 246.257,-209.901"/>
<text text-anchor="middle" x="247" y="-405.8" font-family="Times New Roman,serif" font-size="14.00">1.0</text>
</g>
<!-- 207780 -->
<g id="node7" class="node"><title>207780</title>
<ellipse fill="none" stroke="black" cx="343" cy="-105" rx="37.0935" ry="18"/>
<text text-anchor="middle" x="343" y="-101.3" font-family="Times New Roman,serif" font-size="14.00">207780</text>
</g>
<!-- 207769&#45;&#45;207780 -->
<g id="edge6" class="edge"><title>207769&#45;&#45;207780</title>
<path fill="none" stroke="black" d="M322.473,-623.705C404.419,-617.55 596,-597.155 596,-541 596,-541 596,-541 596,-408.5 596,-276.509 572.902,-219.781 467,-141 441.335,-121.908 405.651,-113.224 379.15,-109.278"/>
<text text-anchor="middle" x="604" y="-362.3" font-family="Times New Roman,serif" font-size="14.00">1.0</text>
</g>
<!-- 207782 -->
<g id="node8" class="node"><title>207782</title>
<ellipse fill="none" stroke="black" cx="130" cy="-18" rx="37.0935" ry="18"/>
<text text-anchor="middle" x="130" y="-14.3" font-family="Times New Roman,serif" font-size="14.00">207782</text>
</g>
<!-- 207769&#45;&#45;207782 -->
<g id="edge7" class="edge"><title>207769&#45;&#45;207782</title>
<path fill="none" stroke="black" d="M249.778,-622.9C172.819,-615.314 0,-592.54 0,-541 0,-541 0,-541 0,-104 0,-58.0235 57.665,-35.5851 96.1834,-25.7254"/>
<text text-anchor="middle" x="9" y="-318.8" font-family="Times New Roman,serif" font-size="14.00">1.0</text>
</g>
<!-- 207770&#45;&#45;207772 -->
<g id="edge8" class="edge"><title>207770&#45;&#45;207772</title>
<path fill="none" stroke="black" d="M371.885,-524.194C352.912,-508.688 323.282,-484.471 304.257,-468.921"/>
<text text-anchor="middle" x="353" y="-492.8" font-family="Times New Roman,serif" font-size="14.00">1.0</text>
</g>
<!-- 207770&#45;&#45;207774 -->
<g id="edge9" class="edge"><title>207770&#45;&#45;207774</title>
<path fill="none" stroke="black" d="M359.167,-529.863C324.36,-518.806 266.756,-498.232 222,-471 190.495,-451.831 179.669,-447.542 159,-417 152.32,-407.129 148.04,-394.389 145.446,-384.24"/>
<text text-anchor="middle" x="231" y="-449.3" font-family="Times New Roman,serif" font-size="14.00">1.0</text>
</g>
<!-- 207770&#45;&#45;207776 -->
<g id="edge10" class="edge"><title>207770&#45;&#45;207776</title>
<path fill="none" stroke="black" d="M397.938,-522.254C400.29,-516.58 402.607,-510.126 404,-504 419.39,-436.303 413.53,-417.408 412,-348 411.617,-330.633 410.685,-310.79 409.96,-297.04"/>
<text text-anchor="middle" x="423" y="-405.8" font-family="Times New Roman,serif" font-size="14.00">1.0</text>
</g>
<!-- 207770&#45;&#45;207778 -->
<g id="edge11" class="edge"><title>207770&#45;&#45;207778</title>
<path fill="none" stroke="black" d="M391.651,-521.885C394.247,-487.163 396.386,-406.758 368,-348 353.78,-318.565 335.842,-322.185 315,-297 291.716,-268.864 271.131,-231.261 260.23,-209.835"/>
<text text-anchor="middle" x="390" y="-362.3" font-family="Times New Roman,serif" font-size="14.00">1.0</text>
</g>
<!-- 207770&#45;&#45;207780 -->
<g id="edge12" class="edge"><title>207770&#45;&#45;207780</title>
<path fill="none" stroke="black" d="M405.315,-523.242C410.225,-517.534 415.334,-510.809 419,-504 458.753,-430.157 474,-407.364 474,-323.5 474,-323.5 474,-323.5 474,-191 474,-144.64 415.55,-122.289 376.736,-112.557"/>
<text text-anchor="middle" x="483" y="-318.8" font-family="Times New Roman,serif" font-size="14.00">1.0</text>
</g>
<!-- 207770&#45;&#45;207782 -->
<g id="edge13" class="edge"><title>207770&#45;&#45;207782</title>
<path fill="none" stroke="black" d="M411.288,-524.94C419.485,-518.997 428.637,-511.677 436,-504 448.375,-491.098 450.98,-486.978 459,-471 518.499,-352.468 528.674,-300.237 488,-174 446.302,-44.5875 249.854,-22.825 167.001,-19.4592"/>
<text text-anchor="middle" x="521" y="-275.3" font-family="Times New Roman,serif" font-size="14.00">1.0</text>
</g>
<!-- 207772&#45;&#45;207774 -->
<g id="edge14" class="edge"><title>207772&#45;&#45;207774</title>
<path fill="none" stroke="black" d="M251.058,-446.983C227.964,-442.284 198.008,-433.415 176,-417 164.556,-408.465 155.676,-394.887 149.865,-384.033"/>
<text text-anchor="middle" x="185" y="-405.8" font-family="Times New Roman,serif" font-size="14.00">1.0</text>
</g>
<!-- 207772&#45;&#45;207776 -->
<g id="edge15" class="edge"><title>207772&#45;&#45;207776</title>
<path fill="none" stroke="black" d="M295.181,-435.251C306.95,-414.239 328.424,-377.397 350,-348 363.872,-329.1 381.744,-309.002 394.166,-295.599"/>
<text text-anchor="middle" x="359" y="-362.3" font-family="Times New Roman,serif" font-size="14.00">1.0</text>
</g>
<!-- 207772&#45;&#45;207778 -->
<g id="edge16" class="edge"><title>207772&#45;&#45;207778</title>
<path fill="none" stroke="black" d="M279.093,-434.993C270.06,-411.747 254.715,-368.533 249,-330 242.648,-287.17 246.844,-235.995 249.801,-209.988"/>
<text text-anchor="middle" x="258" y="-318.8" font-family="Times New Roman,serif" font-size="14.00">1.0</text>
</g>
<!-- 207772&#45;&#45;207780 -->
<g id="edge17" class="edge"><title>207772&#45;&#45;207780</title>
<path fill="none" stroke="black" d="M289.708,-435.046C294.837,-411.5 304.329,-367.556 312,-330 319.884,-291.399 323.214,-281.971 329,-243 335.356,-200.195 339.723,-149.433 341.736,-123.364"/>
<text text-anchor="middle" x="335" y="-275.3" font-family="Times New Roman,serif" font-size="14.00">1.0</text>
</g>
<!-- 207772&#45;&#45;207782 -->
<g id="edge18" class="edge"><title>207772&#45;&#45;207782</title>
<path fill="none" stroke="black" d="M259.14,-440.315C254.162,-438.383 248.965,-436.518 244,-435 151.796,-406.817 38,-463.415 38,-367 38,-367 38,-367 38,-104 38,-68.5544 75.2978,-43.7866 102.397,-30.4692"/>
<text text-anchor="middle" x="47" y="-231.8" font-family="Times New Roman,serif" font-size="14.00">1.0</text>
</g>
<!-- 207774&#45;&#45;207776 -->
<g id="edge19" class="edge"><title>207774&#45;&#45;207776</title>
<path fill="none" stroke="black" d="M174.288,-357.029C200.512,-350.367 238.365,-340.32 271,-330 309.51,-317.822 353.234,-301.557 380.953,-290.934"/>
<text text-anchor="middle" x="322" y="-318.8" font-family="Times New Roman,serif" font-size="14.00">1.0</text>
</g>
<!-- 207774&#45;&#45;207778 -->
<g id="edge20" class="edge"><title>207774&#45;&#45;207778</title>
<path fill="none" stroke="black" d="M145.381,-347.838C151.689,-319.743 167.647,-263.514 200,-228 207.915,-219.312 218.406,-211.725 227.892,-205.857"/>
<text text-anchor="middle" x="186" y="-275.3" font-family="Times New Roman,serif" font-size="14.00">1.0</text>
</g>
<!-- 207774&#45;&#45;207780 -->
<g id="edge21" class="edge"><title>207774&#45;&#45;207780</title>
<path fill="none" stroke="black" d="M143.285,-347.822C144.117,-338.15 145.354,-325.868 147,-315 157.173,-247.834 154.175,-217.919 206,-174 238.412,-146.532 283.825,-126.837 313.326,-115.928"/>
<text text-anchor="middle" x="173" y="-231.8" font-family="Times New Roman,serif" font-size="14.00">1.0</text>
</g>
<!-- 207774&#45;&#45;207782 -->
<g id="edge22" class="edge"><title>207774&#45;&#45;207782</title>
<path fill="none" stroke="black" d="M123.648,-350.164C106.656,-334.641 84,-308.584 84,-280 84,-280 84,-280 84,-104 84,-77.1531 101.969,-50.6617 115.445,-34.5685"/>
<text text-anchor="middle" x="93" y="-188.3" font-family="Times New Roman,serif" font-size="14.00">1.0</text>
</g>
<!-- 207776&#45;&#45;207778 -->
<g id="edge23" class="edge"><title>207776&#45;&#45;207778</title>
<path fill="none" stroke="black" d="M385.155,-265.09C355.56,-249.068 305.391,-221.906 275.812,-205.892"/>
<text text-anchor="middle" x="348" y="-231.8" font-family="Times New Roman,serif" font-size="14.00">1.0</text>
</g>
<!-- 207776&#45;&#45;207780 -->
<g id="edge24" class="edge"><title>207776&#45;&#45;207780</title>
<path fill="none" stroke="black" d="M402.692,-261.09C393.003,-235.185 373.814,-184.141 357,-141 354.671,-135.024 352.073,-128.495 349.754,-122.711"/>
<text text-anchor="middle" x="392" y="-188.3" font-family="Times New Roman,serif" font-size="14.00">1.0</text>
</g>
<!-- 207776&#45;&#45;207782 -->
<g id="edge25" class="edge"><title>207776&#45;&#45;207782</title>
<path fill="none" stroke="black" d="M413.121,-261.097C421.007,-224.233 433.738,-135.997 389,-87 358.986,-54.1279 228.946,-32.3845 165.323,-23.5146"/>
<text text-anchor="middle" x="427" y="-144.8" font-family="Times New Roman,serif" font-size="14.00">1.0</text>
</g>
<!-- 207778&#45;&#45;207780 -->
<g id="edge26" class="edge"><title>207778&#45;&#45;207780</title>
<path fill="none" stroke="black" d="M268.269,-175.804C284.73,-160.428 310.044,-136.783 326.565,-121.351"/>
<text text-anchor="middle" x="311" y="-144.8" font-family="Times New Roman,serif" font-size="14.00">1.0</text>
</g>
<!-- 207778&#45;&#45;207782 -->
<g id="edge27" class="edge"><title>207778&#45;&#45;207782</title>
<path fill="none" stroke="black" d="M240.523,-174.819C217.27,-142.037 164.837,-68.1142 141.536,-35.2636"/>
<text text-anchor="middle" x="213" y="-101.3" font-family="Times New Roman,serif" font-size="14.00">1.0</text>
</g>
<!-- 207780&#45;&#45;207782 -->
<g id="edge28" class="edge"><title>207780&#45;&#45;207782</title>
<path fill="none" stroke="black" d="M315.154,-92.8877C274.333,-76.5975 198.678,-46.4067 157.853,-30.115"/>
<text text-anchor="middle" x="258" y="-57.8" font-family="Times New Roman,serif" font-size="14.00">1.0</text>
</g>
</g>
</svg>
