<svg width="1632px" height="755px"
 viewBox="0.00 0.00 1224.00 566.00" xmlns="http://www.w3.org/2000/svg" xmlns:xlink="http://www.w3.org/1999/xlink">
<g id="graph0" class="graph" transform="scale(1.000022500562514 1.000022500562514) rotate(0) translate(4 562)">
<title>G</title>
<polygon fill="white" stroke="none" points="-4,4 -4,-562 1220,-562 1220,4 -4,4"/>
<!-- 261231 -->
<g id="node1" class="node"><title>261231</title>
<ellipse fill="none" stroke="black" cx="325" cy="-540" rx="37.0935" ry="18"/>
<text text-anchor="middle" x="325" y="-536.3" font-family="Times New Roman,serif" font-size="14.00">261231</text>
</g>
<!-- 261232 -->
<g id="node2" class="node"><title>261232</title>
<ellipse fill="none" stroke="black" cx="202" cy="-453" rx="37.0935" ry="18"/>
<text text-anchor="middle" x="202" y="-449.3" font-family="Times New Roman,serif" font-size="14.00">261232</text>
</g>
<!-- 261231&#45;&#45;261232 -->
<g id="edge1" class="edge"><title>261231&#45;&#45;261232</title>
<path fill="none" stroke="black" d="M304.413,-524.773C281.707,-509.082 245.387,-483.983 222.655,-468.274"/>
<text text-anchor="middle" x="280" y="-492.8" font-family="Times New Roman,serif" font-size="14.00">1.0</text>
</g>
<!-- 261234 -->
<g id="node3" class="node"><title>261234</title>
<ellipse fill="none" stroke="black" cx="265" cy="-366" rx="37.0935" ry="18"/>
<text text-anchor="middle" x="265" y="-362.3" font-family="Times New Roman,serif" font-size="14.00">261234</text>
</g>
<!-- 261231&#45;&#45;261234 -->
<g id="edge2" class="edge"><title>261231&#45;&#45;261234</title>
<path fill="none" stroke="black" d="M319.138,-522.195C307.667,-489.312 282.376,-416.811 270.886,-383.873"/>
<text text-anchor="middle" x="310" y="-449.3" font-family="Times New Roman,serif" font-size="14.00">1.0</text>
</g>
<!-- 261236 -->
<g id="node4" class="node"><title>261236</title>
<ellipse fill="none" stroke="black" cx="155" cy="-279" rx="37.0935" ry="18"/>
<text text-anchor="middle" x="155" y="-275.3" font-family="Times New Roman,serif" font-size="14.00">261236</text>
</g>
<!-- 261231&#45;&#45;261236 -->
<g id="edge3" class="edge"><title>261231&#45;&#45;261236</title>
<path fill="none" stroke="black" d="M289.834,-533.977C251.644,-526.695 191.375,-509.577 156,-471 107.393,-417.993 82.4952,-380.129 113,-315 117.106,-306.233 124.608,-298.895 132.148,-293.241"/>
<text text-anchor="middle" x="123" y="-405.8" font-family="Times New Roman,serif" font-size="14.00">1.0</text>
</g>
<!-- 261238 -->
<g id="node5" class="node"><title>261238</title>
<ellipse fill="none" stroke="black" cx="91" cy="-192" rx="37.0935" ry="18"/>
<text text-anchor="middle" x="91" y="-188.3" font-family="Times New Roman,serif" font-size="14.00">261238</text>
</g>
<!-- 261231&#45;&#45;261238 -->
<g id="edge4" class="edge"><title>261231&#45;&#45;261238</title>
<path fill="none" stroke="black" d="M288.047,-537.172C242.273,-532.852 165.079,-518.486 122,-471 92.8862,-438.908 88.052,-426.148 78,-384 63.0034,-321.119 78.2988,-243.534 86.5132,-209.886"/>
<text text-anchor="middle" x="87" y="-362.3" font-family="Times New Roman,serif" font-size="14.00">1.0</text>
</g>
<!-- 261240 -->
<g id="node6" class="node"><title>261240</title>
<ellipse fill="none" stroke="black" cx="339" cy="-105" rx="37.0935" ry="18"/>
<text text-anchor="middle" x="339" y="-101.3" font-family="Times New Roman,serif" font-size="14.00">261240</text>
</g>
<!-- 261231&#45;&#45;261240 -->
<g id="edge5" class="edge"><title>261231&#45;&#45;261240</title>
<path fill="none" stroke="black" d="M349.132,-526.236C372.364,-512.006 404,-486.637 404,-454 404,-454 404,-454 404,-191 404,-161.276 378.609,-135.504 359.566,-120.355"/>
<text text-anchor="middle" x="413" y="-318.8" font-family="Times New Roman,serif" font-size="14.00">1.0</text>
</g>
<!-- 261242 -->
<g id="node7" class="node"><title>261242</title>
<ellipse fill="none" stroke="black" cx="215" cy="-18" rx="37.0935" ry="18"/>
<text text-anchor="middle" x="215" y="-14.3" font-family="Times New Roman,serif" font-size="14.00">261242</text>
</g>
<!-- 261231&#45;&#45;261242 -->
<g id="edge6" class="edge"><title>261231&#45;&#45;261242</title>
<path fill="none" stroke="black" d="M358.17,-531.68C395.201,-521.324 450,-498.483 450,-454 450,-454 450,-454 450,-104 450,-61.9704 315.392,-34.8718 249.928,-24.1781"/>
<text text-anchor="middle" x="459" y="-275.3" font-family="Times New Roman,serif" font-size="14.00">1.0</text>
</g>
<!-- 261232&#45;&#45;261234 -->
<g id="edge7" class="edge"><title>261232&#45;&#45;261234</title>
<path fill="none" stroke="black" d="M214.147,-435.611C225.374,-420.463 241.957,-398.089 253.104,-383.05"/>
<text text-anchor="middle" x="247" y="-405.8" font-family="Times New Roman,serif" font-size="14.00">1.0</text>
</g>
<!-- 261232&#45;&#45;261236 -->
<g id="edge8" class="edge"><title>261232&#45;&#45;261236</title>
<path fill="none" stroke="black" d="M197.322,-434.879C188.313,-401.91 168.653,-329.966 159.659,-297.052"/>
<text text-anchor="middle" x="193" y="-362.3" font-family="Times New Roman,serif" font-size="14.00">1.0</text>
</g>
<!-- 261232&#45;&#45;261238 -->
<g id="edge9" class="edge"><title>261232&#45;&#45;261238</title>
<path fill="none" stroke="black" d="M189.504,-435.843C169.216,-408.744 129.338,-351.712 109,-297 98.0822,-267.63 93.7186,-231.093 92.0245,-210.069"/>
<text text-anchor="middle" x="132" y="-318.8" font-family="Times New Roman,serif" font-size="14.00">1.0</text>
</g>
<!-- 261232&#45;&#45;261240 -->
<g id="edge10" class="edge"><title>261232&#45;&#45;261240</title>
<path fill="none" stroke="black" d="M230.799,-441.658C255.955,-431.098 291.423,-412.223 311,-384 368.369,-301.295 351.133,-170.02 342.543,-123.248"/>
<text text-anchor="middle" x="360" y="-275.3" font-family="Times New Roman,serif" font-size="14.00">1.0</text>
</g>
<!-- 261232&#45;&#45;261242 -->
<g id="edge11" class="edge"><title>261232&#45;&#45;261242</title>
<path fill="none" stroke="black" d="M167.275,-446.251C109.52,-434.486 0,-401.848 0,-323.5 0,-323.5 0,-323.5 0,-104 0,-65.5683 120.308,-37.0702 180.933,-25.1495"/>
<text text-anchor="middle" x="9" y="-231.8" font-family="Times New Roman,serif" font-size="14.00">1.0</text>
</g>
<!-- 261234&#45;&#45;261236 -->
<g id="edge12" class="edge"><title>261234&#45;&#45;261236</title>
<path fill="none" stroke="black" d="M239.514,-352.773C227.883,-346.662 214.231,-338.714 203,-330 190.07,-319.968 177.332,-306.484 168.23,-296.046"/>
<text text-anchor="middle" x="212" y="-318.8" font-family="Times New Roman,serif" font-size="14.00">1.0</text>
</g>
<!-- 261234&#45;&#45;261238 -->
<g id="edge13" class="edge"><title>261234&#45;&#45;261238</title>
<path fill="none" stroke="black" d="M257.704,-348.241C247.492,-326.217 227.208,-287.261 201,-261 176.418,-236.368 141.278,-216.635 117.377,-204.899"/>
<text text-anchor="middle" x="238" y="-275.3" font-family="Times New Roman,serif" font-size="14.00">1.0</text>
</g>
<!-- 261234&#45;&#45;261240 -->
<g id="edge14" class="edge"><title>261234&#45;&#45;261240</title>
<path fill="none" stroke="black" d="M277.278,-348.952C281.183,-343.221 285.208,-336.556 288,-330 319.178,-256.794 332.734,-161.65 337.2,-123.219"/>
<text text-anchor="middle" x="329" y="-231.8" font-family="Times New Roman,serif" font-size="14.00">1.0</text>
</g>
<!-- 261234&#45;&#45;261242 -->
<g id="edge15" class="edge"><title>261234&#45;&#45;261242</title>
<path fill="none" stroke="black" d="M267.897,-347.8C270.528,-330.67 274,-303.595 274,-280 274,-280 274,-280 274,-104 274,-75.2584 250.953,-49.2407 233.668,-33.7692"/>
<text text-anchor="middle" x="283" y="-188.3" font-family="Times New Roman,serif" font-size="14.00">1.0</text>
</g>
<!-- 261236&#45;&#45;261238 -->
<g id="edge16" class="edge"><title>261236&#45;&#45;261238</title>
<path fill="none" stroke="black" d="M140.311,-262.374C134.982,-256.461 129.038,-249.57 124,-243 115.773,-232.27 107.392,-219.544 101.134,-209.616"/>
<text text-anchor="middle" x="133" y="-231.8" font-family="Times New Roman,serif" font-size="14.00">1.0</text>
</g>
<!-- 261236&#45;&#45;261240 -->
<g id="edge17" class="edge"><title>261236&#45;&#45;261240</title>
<path fill="none" stroke="black" d="M164.985,-261.459C178.675,-239.677 204.911,-200.987 234,-174 258.678,-151.105 291.965,-131.006 314.389,-118.711"/>
<text text-anchor="middle" x="243" y="-188.3" font-family="Times New Roman,serif" font-size="14.00">1.0</text>
</g>
<!-- 261236&#45;&#45;261242 -->
<g id="edge18" class="edge"><title>261236&#45;&#45;261242</title>
<path fill="none" stroke="black" d="M152.067,-260.83C148.181,-234.584 142.916,-183.102 153,-141 162.74,-100.335 188.392,-57.9202 203.474,-35.3823"/>
<text text-anchor="middle" x="162" y="-144.8" font-family="Times New Roman,serif" font-size="14.00">1.0</text>
</g>
<!-- 261238&#45;&#45;261240 -->
<g id="edge19" class="edge"><title>261238&#45;&#45;261240</title>
<path fill="none" stroke="black" d="M119.98,-180.439C136.451,-174.065 157.262,-165.378 175,-156 185.789,-150.296 186.81,-145.871 198,-141 232.573,-125.949 274.852,-116.541 304.046,-111.318"/>
<text text-anchor="middle" x="207" y="-144.8" font-family="Times New Roman,serif" font-size="14.00">1.0</text>
</g>
<!-- 261238&#45;&#45;261242 -->
<g id="edge20" class="edge"><title>261238&#45;&#45;261242</title>
<path fill="none" stroke="black" d="M92.6153,-173.627C96.2303,-144.712 107.576,-86.6703 142,-54 154.03,-42.5832 170.479,-34.255 184.718,-28.5938"/>
<text text-anchor="middle" x="127" y="-101.3" font-family="Times New Roman,serif" font-size="14.00">1.0</text>
</g>
<!-- 261240&#45;&#45;261242 -->
<g id="edge21" class="edge"><title>261240&#45;&#45;261242</title>
<path fill="none" stroke="black" d="M325.414,-88.1833C315.738,-77.5828 302.013,-63.8206 288,-54 274.188,-44.3202 257.285,-36.0248 243.223,-29.9428"/>
<text text-anchor="middle" x="316" y="-57.8" font-family="Times New Roman,serif" font-size="14.00">1.0</text>
</g>
<!-- 289969 -->
<g id="node8" class="node"><title>289969</title>
<ellipse fill="none" stroke="black" cx="588" cy="-540" rx="37.0935" ry="18"/>
<text text-anchor="middle" x="588" y="-536.3" font-family="Times New Roman,serif" font-size="14.00">289969</text>
</g>
<!-- 289970 -->
<g id="node9" class="node"><title>289970</title>
<ellipse fill="none" stroke="black" cx="661" cy="-453" rx="37.0935" ry="18"/>
<text text-anchor="middle" x="661" y="-449.3" font-family="Times New Roman,serif" font-size="14.00">289970</text>
</g>
<!-- 289969&#45;&#45;289970 -->
<g id="edge22" class="edge"><title>289969&#45;&#45;289970</title>
<path fill="none" stroke="black" d="M601.731,-523.012C614.782,-507.815 634.3,-485.089 647.331,-469.916"/>
<text text-anchor="middle" x="638" y="-492.8" font-family="Times New Roman,serif" font-size="14.00">1.0</text>
</g>
<!-- 289972 -->
<g id="node10" class="node"><title>289972</title>
<ellipse fill="none" stroke="black" cx="661" cy="-366" rx="37.0935" ry="18"/>
<text text-anchor="middle" x="661" y="-362.3" font-family="Times New Roman,serif" font-size="14.00">289972</text>
</g>
<!-- 289969&#45;&#45;289972 -->
<g id="edge23" class="edge"><title>289969&#45;&#45;289972</title>
<path fill="none" stroke="black" d="M586.159,-521.947C584.583,-500.62 584.269,-463.453 597,-435 606.799,-413.099 626.659,-393.793 641.671,-381.402"/>
<text text-anchor="middle" x="606" y="-449.3" font-family="Times New Roman,serif" font-size="14.00">1.0</text>
</g>
<!-- 289974 -->
<g id="node11" class="node"><title>289974</title>
<ellipse fill="none" stroke="black" cx="575" cy="-279" rx="37.0935" ry="18"/>
<text text-anchor="middle" x="575" y="-275.3" font-family="Times New Roman,serif" font-size="14.00">289974</text>
</g>
<!-- 289969&#45;&#45;289974 -->
<g id="edge24" class="edge"><title>289969&#45;&#45;289974</title>
<path fill="none" stroke="black" d="M584.645,-521.97C583.64,-516.277 582.637,-509.884 582,-504 573.666,-427.035 575.778,-407.395 574,-330 573.749,-319.063 573.987,-306.78 574.294,-297.125"/>
<text text-anchor="middle" x="585" y="-405.8" font-family="Times New Roman,serif" font-size="14.00">1.0</text>
</g>
<!-- 289976 -->
<g id="node12" class="node"><title>289976</title>
<ellipse fill="none" stroke="black" cx="629" cy="-192" rx="37.0935" ry="18"/>
<text text-anchor="middle" x="629" y="-188.3" font-family="Times New Roman,serif" font-size="14.00">289976</text>
</g>
<!-- 289969&#45;&#45;289976 -->
<g id="edge25" class="edge"><title>289969&#45;&#45;289976</title>
<path fill="none" stroke="black" d="M560.397,-527.531C533.298,-514.213 496,-489.446 496,-454 496,-454 496,-454 496,-278 496,-253.2 562.486,-220.978 601.442,-204.226"/>
<text text-anchor="middle" x="505" y="-362.3" font-family="Times New Roman,serif" font-size="14.00">1.0</text>
</g>
<!-- 289978 -->
<g id="node13" class="node"><title>289978</title>
<ellipse fill="none" stroke="black" cx="694" cy="-105" rx="37.0935" ry="18"/>
<text text-anchor="middle" x="694" y="-101.3" font-family="Times New Roman,serif" font-size="14.00">289978</text>
</g>
<!-- 289969&#45;&#45;289978 -->
<g id="edge26" class="edge"><title>289969&#45;&#45;289978</title>
<path fill="none" stroke="black" d="M623.077,-533.85C688.819,-523.205 824,-496.188 824,-454 824,-454 824,-454 824,-191 824,-145.024 766.335,-122.585 727.817,-112.725"/>
<text text-anchor="middle" x="833" y="-318.8" font-family="Times New Roman,serif" font-size="14.00">1.0</text>
</g>
<!-- 289970&#45;&#45;289972 -->
<g id="edge27" class="edge"><title>289970&#45;&#45;289972</title>
<path fill="none" stroke="black" d="M661,-434.799C661,-420.052 661,-398.915 661,-384.175"/>
<text text-anchor="middle" x="670" y="-405.8" font-family="Times New Roman,serif" font-size="14.00">1.0</text>
</g>
<!-- 289970&#45;&#45;289974 -->
<g id="edge28" class="edge"><title>289970&#45;&#45;289974</title>
<path fill="none" stroke="black" d="M642.375,-437.257C627.771,-424.668 608.118,-405.262 597,-384 582.292,-355.871 577.416,-318.593 575.801,-297.158"/>
<text text-anchor="middle" x="606" y="-362.3" font-family="Times New Roman,serif" font-size="14.00">1.0</text>
</g>
<!-- 289970&#45;&#45;289976 -->
<g id="edge29" class="edge"><title>289970&#45;&#45;289976</title>
<path fill="none" stroke="black" d="M675.232,-436.298C686.064,-423.305 700.226,-403.827 707,-384 729.455,-318.282 754.878,-285.547 716,-228 704.425,-210.867 682.923,-202.119 664.192,-197.654"/>
<text text-anchor="middle" x="740" y="-318.8" font-family="Times New Roman,serif" font-size="14.00">1.0</text>
</g>
<!-- 289970&#45;&#45;289978 -->
<g id="edge30" class="edge"><title>289970&#45;&#45;289978</title>
<path fill="none" stroke="black" d="M692.971,-443.726C727.612,-432.605 778,-409.18 778,-367 778,-367 778,-367 778,-191 778,-157.39 744.362,-132.279 719.659,-118.37"/>
<text text-anchor="middle" x="787" y="-275.3" font-family="Times New Roman,serif" font-size="14.00">1.0</text>
</g>
<!-- 289972&#45;&#45;289974 -->
<g id="edge31" class="edge"><title>289972&#45;&#45;289974</title>
<path fill="none" stroke="black" d="M642.065,-350.261C634.649,-344.225 626.209,-337.018 619,-330 607.897,-319.192 596.362,-305.999 587.89,-295.88"/>
<text text-anchor="middle" x="628" y="-318.8" font-family="Times New Roman,serif" font-size="14.00">1.0</text>
</g>
<!-- 289972&#45;&#45;289976 -->
<g id="edge32" class="edge"><title>289972&#45;&#45;289976</title>
<path fill="none" stroke="black" d="M657.815,-347.879C651.681,-314.91 638.296,-242.966 632.172,-210.052"/>
<text text-anchor="middle" x="657" y="-275.3" font-family="Times New Roman,serif" font-size="14.00">1.0</text>
</g>
<!-- 289972&#45;&#45;289978 -->
<g id="edge33" class="edge"><title>289972&#45;&#45;289978</title>
<path fill="none" stroke="black" d="M663.501,-347.918C664.319,-342.222 665.218,-335.84 666,-330 676.326,-252.893 687.473,-160.687 691.96,-123.156"/>
<text text-anchor="middle" x="688" y="-231.8" font-family="Times New Roman,serif" font-size="14.00">1.0</text>
</g>
<!-- 289974&#45;&#45;289976 -->
<g id="edge34" class="edge"><title>289974&#45;&#45;289976</title>
<path fill="none" stroke="black" d="M585.412,-261.611C594.974,-246.56 609.068,-224.374 618.62,-209.339"/>
<text text-anchor="middle" x="615" y="-231.8" font-family="Times New Roman,serif" font-size="14.00">1.0</text>
</g>
<!-- 289974&#45;&#45;289978 -->
<g id="edge35" class="edge"><title>289974&#45;&#45;289978</title>
<path fill="none" stroke="black" d="M567.561,-261.143C559.175,-239.358 548.696,-201.024 565,-174 585.663,-139.75 629.959,-121.874 660.845,-113.208"/>
<text text-anchor="middle" x="574" y="-188.3" font-family="Times New Roman,serif" font-size="14.00">1.0</text>
</g>
<!-- 289976&#45;&#45;289978 -->
<g id="edge36" class="edge"><title>289976&#45;&#45;289978</title>
<path fill="none" stroke="black" d="M639.073,-174.336C645.309,-164.392 653.689,-151.665 662,-141 667.162,-134.376 673.291,-127.474 678.796,-121.568"/>
<text text-anchor="middle" x="671" y="-144.8" font-family="Times New Roman,serif" font-size="14.00">1.0</text>
</g>
<!-- 411479 -->
<g id="node14" class="node"><title>411479</title>
<ellipse fill="none" stroke="black" cx="962" cy="-540" rx="37.0935" ry="18"/>
<text text-anchor="middle" x="962" y="-536.3" font-family="Times New Roman,serif" font-size="14.00">411479</text>
</g>
<!-- 411480 -->
<g id="node15" class="node"><title>411480</title>
<ellipse fill="none" stroke="black" cx="1035" cy="-453" rx="37.0935" ry="18"/>
<text text-anchor="middle" x="1035" y="-449.3" font-family="Times New Roman,serif" font-size="14.00">411480</text>
</g>
<!-- 411479&#45;&#45;411480 -->
<g id="edge37" class="edge"><title>411479&#45;&#45;411480</title>
<path fill="none" stroke="black" d="M975.731,-523.012C988.782,-507.815 1008.3,-485.089 1021.33,-469.916"/>
<text text-anchor="middle" x="1011" y="-492.8" font-family="Times New Roman,serif" font-size="14.00">1.0</text>
</g>
<!-- 411482 -->
<g id="node16" class="node"><title>411482</title>
<ellipse fill="none" stroke="black" cx="1035" cy="-366" rx="37.0935" ry="18"/>
<text text-anchor="middle" x="1035" y="-362.3" font-family="Times New Roman,serif" font-size="14.00">411482</text>
</g>
<!-- 411479&#45;&#45;411482 -->
<g id="edge38" class="edge"><title>411479&#45;&#45;411482</title>
<path fill="none" stroke="black" d="M960.159,-521.947C958.583,-500.62 958.269,-463.453 971,-435 980.799,-413.099 1000.66,-393.793 1015.67,-381.402"/>
<text text-anchor="middle" x="980" y="-449.3" font-family="Times New Roman,serif" font-size="14.00">1.0</text>
</g>
<!-- 411484 -->
<g id="node17" class="node"><title>411484</title>
<ellipse fill="none" stroke="black" cx="949" cy="-279" rx="37.0935" ry="18"/>
<text text-anchor="middle" x="949" y="-275.3" font-family="Times New Roman,serif" font-size="14.00">411484</text>
</g>
<!-- 411479&#45;&#45;411484 -->
<g id="edge39" class="edge"><title>411479&#45;&#45;411484</title>
<path fill="none" stroke="black" d="M958.061,-521.994C956.887,-516.303 955.722,-509.905 955,-504 945.604,-427.157 948.778,-407.395 947,-330 946.847,-323.335 946.81,-321.664 947,-315 947.167,-309.16 947.49,-302.778 947.828,-297.081"/>
<text text-anchor="middle" x="957" y="-405.8" font-family="Times New Roman,serif" font-size="14.00">1.0</text>
</g>
<!-- 411486 -->
<g id="node18" class="node"><title>411486</title>
<ellipse fill="none" stroke="black" cx="1003" cy="-192" rx="37.0935" ry="18"/>
<text text-anchor="middle" x="1003" y="-188.3" font-family="Times New Roman,serif" font-size="14.00">411486</text>
</g>
<!-- 411479&#45;&#45;411486 -->
<g id="edge40" class="edge"><title>411479&#45;&#45;411486</title>
<path fill="none" stroke="black" d="M934.397,-527.531C907.298,-514.213 870,-489.446 870,-454 870,-454 870,-454 870,-278 870,-253.2 936.486,-220.978 975.442,-204.226"/>
<text text-anchor="middle" x="879" y="-362.3" font-family="Times New Roman,serif" font-size="14.00">1.0</text>
</g>
<!-- 411488 -->
<g id="node19" class="node"><title>411488</title>
<ellipse fill="none" stroke="black" cx="1068" cy="-105" rx="37.0935" ry="18"/>
<text text-anchor="middle" x="1068" y="-101.3" font-family="Times New Roman,serif" font-size="14.00">411488</text>
</g>
<!-- 411479&#45;&#45;411488 -->
<g id="edge41" class="edge"><title>411479&#45;&#45;411488</title>
<path fill="none" stroke="black" d="M997.077,-533.85C1062.82,-523.205 1198,-496.188 1198,-454 1198,-454 1198,-454 1198,-191 1198,-145.024 1140.34,-122.585 1101.82,-112.725"/>
<text text-anchor="middle" x="1207" y="-318.8" font-family="Times New Roman,serif" font-size="14.00">1.0</text>
</g>
<!-- 411480&#45;&#45;411482 -->
<g id="edge42" class="edge"><title>411480&#45;&#45;411482</title>
<path fill="none" stroke="black" d="M1035,-434.799C1035,-420.052 1035,-398.915 1035,-384.175"/>
<text text-anchor="middle" x="1044" y="-405.8" font-family="Times New Roman,serif" font-size="14.00">1.0</text>
</g>
<!-- 411480&#45;&#45;411484 -->
<g id="edge43" class="edge"><title>411480&#45;&#45;411484</title>
<path fill="none" stroke="black" d="M1016.38,-437.257C1001.77,-424.668 982.118,-405.262 971,-384 956.292,-355.871 951.416,-318.593 949.801,-297.158"/>
<text text-anchor="middle" x="980" y="-362.3" font-family="Times New Roman,serif" font-size="14.00">1.0</text>
</g>
<!-- 411480&#45;&#45;411486 -->
<g id="edge44" class="edge"><title>411480&#45;&#45;411486</title>
<path fill="none" stroke="black" d="M1049.23,-436.298C1060.06,-423.305 1074.23,-403.827 1081,-384 1103.46,-318.282 1128.88,-285.547 1090,-228 1078.43,-210.867 1056.92,-202.119 1038.19,-197.654"/>
<text text-anchor="middle" x="1114" y="-318.8" font-family="Times New Roman,serif" font-size="14.00">1.0</text>
</g>
<!-- 411480&#45;&#45;411488 -->
<g id="edge45" class="edge"><title>411480&#45;&#45;411488</title>
<path fill="none" stroke="black" d="M1066.97,-443.726C1101.61,-432.605 1152,-409.18 1152,-367 1152,-367 1152,-367 1152,-191 1152,-157.39 1118.36,-132.279 1093.66,-118.37"/>
<text text-anchor="middle" x="1161" y="-275.3" font-family="Times New Roman,serif" font-size="14.00">1.0</text>
</g>
<!-- 411482&#45;&#45;411484 -->
<g id="edge46" class="edge"><title>411482&#45;&#45;411484</title>
<path fill="none" stroke="black" d="M1016.06,-350.261C1008.65,-344.225 1000.21,-337.018 993,-330 981.897,-319.192 970.362,-305.999 961.89,-295.88"/>
<text text-anchor="middle" x="1002" y="-318.8" font-family="Times New Roman,serif" font-size="14.00">1.0</text>
</g>
<!-- 411482&#45;&#45;411486 -->
<g id="edge47" class="edge"><title>411482&#45;&#45;411486</title>
<path fill="none" stroke="black" d="M1031.81,-347.879C1025.68,-314.91 1012.3,-242.966 1006.17,-210.052"/>
<text text-anchor="middle" x="1031" y="-275.3" font-family="Times New Roman,serif" font-size="14.00">1.0</text>
</g>
<!-- 411482&#45;&#45;411488 -->
<g id="edge48" class="edge"><title>411482&#45;&#45;411488</title>
<path fill="none" stroke="black" d="M1037.5,-347.918C1038.32,-342.222 1039.22,-335.84 1040,-330 1050.33,-252.893 1061.47,-160.687 1065.96,-123.156"/>
<text text-anchor="middle" x="1062" y="-231.8" font-family="Times New Roman,serif" font-size="14.00">1.0</text>
</g>
<!-- 411484&#45;&#45;411486 -->
<g id="edge49" class="edge"><title>411484&#45;&#45;411486</title>
<path fill="none" stroke="black" d="M959.412,-261.611C968.974,-246.56 983.068,-224.374 992.62,-209.339"/>
<text text-anchor="middle" x="988" y="-231.8" font-family="Times New Roman,serif" font-size="14.00">1.0</text>
</g>
<!-- 411484&#45;&#45;411488 -->
<g id="edge50" class="edge"><title>411484&#45;&#45;411488</title>
<path fill="none" stroke="black" d="M941.561,-261.143C933.175,-239.358 922.696,-201.024 939,-174 959.663,-139.75 1003.96,-121.874 1034.84,-113.208"/>
<text text-anchor="middle" x="948" y="-188.3" font-family="Times New Roman,serif" font-size="14.00">1.0</text>
</g>
<!-- 411486&#45;&#45;411488 -->
<g id="edge51" class="edge"><title>411486&#45;&#45;411488</title>
<path fill="none" stroke="black" d="M1013.07,-174.336C1019.31,-164.392 1027.69,-151.665 1036,-141 1041.16,-134.376 1047.29,-127.474 1052.8,-121.568"/>
<text text-anchor="middle" x="1045" y="-144.8" font-family="Times New Roman,serif" font-size="14.00">1.0</text>
</g>
</g>
</svg>
