<svg width="1945px" height="1103px"
 viewBox="0.00 0.00 1458.50 827.00" xmlns="http://www.w3.org/2000/svg" xmlns:xlink="http://www.w3.org/1999/xlink">
<g id="graph0" class="graph" transform="scale(1.000022500562514 1.000022500562514) rotate(0) translate(4 823)">
<title>G</title>
<polygon fill="white" stroke="none" points="-4,4 -4,-823 1454.5,-823 1454.5,4 -4,4"/>
<!-- 15849 -->
<g id="node1" class="node"><title>15849</title>
<ellipse fill="none" stroke="black" cx="32.4971" cy="-801" rx="32.4942" ry="18"/>
<text text-anchor="middle" x="32.4971" y="-797.3" font-family="Times New Roman,serif" font-size="14.00">15849</text>
</g>
<!-- 15850 -->
<g id="node2" class="node"><title>15850</title>
<ellipse fill="none" stroke="black" cx="32.4971" cy="-714" rx="32.4942" ry="18"/>
<text text-anchor="middle" x="32.4971" y="-710.3" font-family="Times New Roman,serif" font-size="14.00">15850</text>
</g>
<!-- 15849&#45;&#45;15850 -->
<g id="edge1" class="edge"><title>15849&#45;&#45;15850</title>
<path fill="none" stroke="black" d="M32.4971,-782.799C32.4971,-768.052 32.4971,-746.915 32.4971,-732.175"/>
<text text-anchor="middle" x="41.4971" y="-753.8" font-family="Times New Roman,serif" font-size="14.00">1.0</text>
</g>
<!-- 230485 -->
<g id="node3" class="node"><title>230485</title>
<ellipse fill="none" stroke="black" cx="166.497" cy="-801" rx="37.0935" ry="18"/>
<text text-anchor="middle" x="166.497" y="-797.3" font-family="Times New Roman,serif" font-size="14.00">230485</text>
</g>
<!-- 230486 -->
<g id="node4" class="node"><title>230486</title>
<ellipse fill="none" stroke="black" cx="120.497" cy="-714" rx="37.0935" ry="18"/>
<text text-anchor="middle" x="120.497" y="-710.3" font-family="Times New Roman,serif" font-size="14.00">230486</text>
</g>
<!-- 230485&#45;&#45;230486 -->
<g id="edge2" class="edge"><title>230485&#45;&#45;230486</title>
<path fill="none" stroke="black" d="M157.409,-783.207C149.345,-768.305 137.625,-746.649 129.566,-731.758"/>
<text text-anchor="middle" x="155.497" y="-753.8" font-family="Times New Roman,serif" font-size="14.00">1.0</text>
</g>
<!-- 230488 -->
<g id="node5" class="node"><title>230488</title>
<ellipse fill="none" stroke="black" cx="160.497" cy="-627" rx="37.0935" ry="18"/>
<text text-anchor="middle" x="160.497" y="-623.3" font-family="Times New Roman,serif" font-size="14.00">230488</text>
</g>
<!-- 230485&#45;&#45;230488 -->
<g id="edge3" class="edge"><title>230485&#45;&#45;230488</title>
<path fill="none" stroke="black" d="M167.669,-782.919C168.007,-777.222 168.33,-770.84 168.497,-765 169.485,-730.381 167.003,-680.032 165.497,-663 164.978,-657.13 164.145,-650.741 163.307,-645.047"/>
<text text-anchor="middle" x="178.497" y="-710.3" font-family="Times New Roman,serif" font-size="14.00">1.0</text>
</g>
<!-- 230486&#45;&#45;230488 -->
<g id="edge4" class="edge"><title>230486&#45;&#45;230488</title>
<path fill="none" stroke="black" d="M128.4,-696.207C135.412,-681.305 145.603,-659.649 152.611,-644.758"/>
<text text-anchor="middle" x="152.497" y="-666.8" font-family="Times New Roman,serif" font-size="14.00">1.0</text>
</g>
<!-- 242517 -->
<g id="node6" class="node"><title>242517</title>
<ellipse fill="none" stroke="black" cx="324.497" cy="-801" rx="37.0935" ry="18"/>
<text text-anchor="middle" x="324.497" y="-797.3" font-family="Times New Roman,serif" font-size="14.00">242517</text>
</g>
<!-- 242518 -->
<g id="node7" class="node"><title>242518</title>
<ellipse fill="none" stroke="black" cx="371.497" cy="-714" rx="37.0935" ry="18"/>
<text text-anchor="middle" x="371.497" y="-710.3" font-family="Times New Roman,serif" font-size="14.00">242518</text>
</g>
<!-- 242517&#45;&#45;242518 -->
<g id="edge5" class="edge"><title>242517&#45;&#45;242518</title>
<path fill="none" stroke="black" d="M333.783,-783.207C342.076,-768.208 354.152,-746.368 362.391,-731.469"/>
<text text-anchor="middle" x="360.497" y="-753.8" font-family="Times New Roman,serif" font-size="14.00">1.0</text>
</g>
<!-- 242520 -->
<g id="node8" class="node"><title>242520</title>
<ellipse fill="none" stroke="black" cx="371.497" cy="-627" rx="37.0935" ry="18"/>
<text text-anchor="middle" x="371.497" y="-623.3" font-family="Times New Roman,serif" font-size="14.00">242520</text>
</g>
<!-- 242517&#45;&#45;242520 -->
<g id="edge6" class="edge"><title>242517&#45;&#45;242520</title>
<path fill="none" stroke="black" d="M316.46,-783.205C307.558,-762.144 295.897,-725.251 307.497,-696 316.283,-673.847 336.081,-654.714 351.348,-642.437"/>
<text text-anchor="middle" x="316.497" y="-710.3" font-family="Times New Roman,serif" font-size="14.00">1.0</text>
</g>
<!-- 242522 -->
<g id="node9" class="node"><title>242522</title>
<ellipse fill="none" stroke="black" cx="438.497" cy="-540" rx="37.0935" ry="18"/>
<text text-anchor="middle" x="438.497" y="-536.3" font-family="Times New Roman,serif" font-size="14.00">242522</text>
</g>
<!-- 242517&#45;&#45;242522 -->
<g id="edge7" class="edge"><title>242517&#45;&#45;242522</title>
<path fill="none" stroke="black" d="M349.084,-787.525C369.962,-775.788 399.344,-756.388 417.497,-732 451.225,-686.688 452.057,-665.428 449.497,-609 448.83,-594.288 448.81,-590.544 446.497,-576 445.557,-570.09 444.198,-563.691 442.865,-558.001"/>
<text text-anchor="middle" x="458.497" y="-666.8" font-family="Times New Roman,serif" font-size="14.00">1.0</text>
</g>
<!-- 242524 -->
<g id="node10" class="node"><title>242524</title>
<ellipse fill="none" stroke="black" cx="332.497" cy="-453" rx="37.0935" ry="18"/>
<text text-anchor="middle" x="332.497" y="-449.3" font-family="Times New Roman,serif" font-size="14.00">242524</text>
</g>
<!-- 242517&#45;&#45;242524 -->
<g id="edge8" class="edge"><title>242517&#45;&#45;242524</title>
<path fill="none" stroke="black" d="M302.111,-786.435C280.975,-771.729 252.497,-746.137 252.497,-715 252.497,-715 252.497,-715 252.497,-539 252.497,-506.171 284.533,-480.853 308.06,-466.686"/>
<text text-anchor="middle" x="261.497" y="-623.3" font-family="Times New Roman,serif" font-size="14.00">1.0</text>
</g>
<!-- 242518&#45;&#45;242520 -->
<g id="edge9" class="edge"><title>242518&#45;&#45;242520</title>
<path fill="none" stroke="black" d="M371.497,-695.799C371.497,-681.052 371.497,-659.915 371.497,-645.175"/>
<text text-anchor="middle" x="380.497" y="-666.8" font-family="Times New Roman,serif" font-size="14.00">1.0</text>
</g>
<!-- 242518&#45;&#45;242522 -->
<g id="edge10" class="edge"><title>242518&#45;&#45;242522</title>
<path fill="none" stroke="black" d="M384.814,-696.94C395.128,-683.745 409.04,-664.169 417.497,-645 427.461,-622.415 425.655,-615.206 430.497,-591 432.67,-580.139 434.642,-567.856 436.084,-558.183"/>
<text text-anchor="middle" x="436.497" y="-623.3" font-family="Times New Roman,serif" font-size="14.00">1.0</text>
</g>
<!-- 242518&#45;&#45;242524 -->
<g id="edge11" class="edge"><title>242518&#45;&#45;242524</title>
<path fill="none" stroke="black" d="M356.92,-697.41C345.893,-684.48 331.636,-665.032 325.497,-645 306.586,-583.294 320.452,-505.099 328.205,-471.089"/>
<text text-anchor="middle" x="325.497" y="-579.8" font-family="Times New Roman,serif" font-size="14.00">1.0</text>
</g>
<!-- 242520&#45;&#45;242522 -->
<g id="edge12" class="edge"><title>242520&#45;&#45;242522</title>
<path fill="none" stroke="black" d="M384.099,-610.012C396.002,-594.912 413.765,-572.376 425.724,-557.205"/>
<text text-anchor="middle" x="418.497" y="-579.8" font-family="Times New Roman,serif" font-size="14.00">1.0</text>
</g>
<!-- 242520&#45;&#45;242524 -->
<g id="edge13" class="edge"><title>242520&#45;&#45;242524</title>
<path fill="none" stroke="black" d="M367.615,-608.879C360.14,-575.91 343.827,-503.966 336.363,-471.052"/>
<text text-anchor="middle" x="365.497" y="-536.3" font-family="Times New Roman,serif" font-size="14.00">1.0</text>
</g>
<!-- 242522&#45;&#45;242524 -->
<g id="edge14" class="edge"><title>242522&#45;&#45;242524</title>
<path fill="none" stroke="black" d="M420.033,-524.194C400.696,-508.688 370.496,-484.471 351.105,-468.921"/>
<text text-anchor="middle" x="401.497" y="-492.8" font-family="Times New Roman,serif" font-size="14.00">1.0</text>
</g>
<!-- 401247 -->
<g id="node11" class="node"><title>401247</title>
<ellipse fill="none" stroke="black" cx="946.497" cy="-801" rx="37.0935" ry="18"/>
<text text-anchor="middle" x="946.497" y="-797.3" font-family="Times New Roman,serif" font-size="14.00">401247</text>
</g>
<!-- 401248 -->
<g id="node12" class="node"><title>401248</title>
<ellipse fill="none" stroke="black" cx="1019.5" cy="-714" rx="37.0935" ry="18"/>
<text text-anchor="middle" x="1019.5" y="-710.3" font-family="Times New Roman,serif" font-size="14.00">401248</text>
</g>
<!-- 401247&#45;&#45;401248 -->
<g id="edge15" class="edge"><title>401247&#45;&#45;401248</title>
<path fill="none" stroke="black" d="M960.228,-784.012C973.279,-768.815 992.797,-746.089 1005.83,-730.916"/>
<text text-anchor="middle" x="996.497" y="-753.8" font-family="Times New Roman,serif" font-size="14.00">1.0</text>
</g>
<!-- 401250 -->
<g id="node13" class="node"><title>401250</title>
<ellipse fill="none" stroke="black" cx="946.497" cy="-627" rx="37.0935" ry="18"/>
<text text-anchor="middle" x="946.497" y="-623.3" font-family="Times New Roman,serif" font-size="14.00">401250</text>
</g>
<!-- 401247&#45;&#45;401250 -->
<g id="edge16" class="edge"><title>401247&#45;&#45;401250</title>
<path fill="none" stroke="black" d="M946.497,-782.879C946.497,-749.91 946.497,-677.966 946.497,-645.052"/>
<text text-anchor="middle" x="955.497" y="-710.3" font-family="Times New Roman,serif" font-size="14.00">1.0</text>
</g>
<!-- 401252 -->
<g id="node14" class="node"><title>401252</title>
<ellipse fill="none" stroke="black" cx="946.497" cy="-540" rx="37.0935" ry="18"/>
<text text-anchor="middle" x="946.497" y="-536.3" font-family="Times New Roman,serif" font-size="14.00">401252</text>
</g>
<!-- 401247&#45;&#45;401252 -->
<g id="edge17" class="edge"><title>401247&#45;&#45;401252</title>
<path fill="none" stroke="black" d="M911.676,-794.794C835.784,-781.846 666.01,-743.28 714.497,-663 757.905,-591.13 859.248,-559.486 912.472,-547.415"/>
<text text-anchor="middle" x="723.497" y="-666.8" font-family="Times New Roman,serif" font-size="14.00">1.0</text>
</g>
<!-- 401254 -->
<g id="node15" class="node"><title>401254</title>
<ellipse fill="none" stroke="black" cx="1142.5" cy="-453" rx="37.0935" ry="18"/>
<text text-anchor="middle" x="1142.5" y="-449.3" font-family="Times New Roman,serif" font-size="14.00">401254</text>
</g>
<!-- 401247&#45;&#45;401254 -->
<g id="edge18" class="edge"><title>401247&#45;&#45;401254</title>
<path fill="none" stroke="black" d="M983.561,-800.488C1059.74,-799.227 1233.14,-784.212 1309.5,-678 1367.82,-596.865 1224.14,-501.262 1165.8,-467.012"/>
<text text-anchor="middle" x="1331.5" y="-623.3" font-family="Times New Roman,serif" font-size="14.00">1.0</text>
</g>
<!-- 401256 -->
<g id="node16" class="node"><title>401256</title>
<ellipse fill="none" stroke="black" cx="1140.5" cy="-366" rx="37.0935" ry="18"/>
<text text-anchor="middle" x="1140.5" y="-362.3" font-family="Times New Roman,serif" font-size="14.00">401256</text>
</g>
<!-- 401247&#45;&#45;401256 -->
<g id="edge19" class="edge"><title>401247&#45;&#45;401256</title>
<path fill="none" stroke="black" d="M983.716,-800.68C1090.04,-801.631 1387.5,-796.968 1387.5,-715 1387.5,-715 1387.5,-715 1387.5,-582.5 1387.5,-505.935 1356.2,-485.322 1298.5,-435 1293.25,-430.424 1211.79,-396.426 1167.95,-378.303"/>
<text text-anchor="middle" x="1396.5" y="-579.8" font-family="Times New Roman,serif" font-size="14.00">1.0</text>
</g>
<!-- 401258 -->
<g id="node17" class="node"><title>401258</title>
<ellipse fill="none" stroke="black" cx="1189.5" cy="-279" rx="37.0935" ry="18"/>
<text text-anchor="middle" x="1189.5" y="-275.3" font-family="Times New Roman,serif" font-size="14.00">401258</text>
</g>
<!-- 401247&#45;&#45;401258 -->
<g id="edge20" class="edge"><title>401247&#45;&#45;401258</title>
<path fill="none" stroke="black" d="M983.46,-799.515C1072.54,-797.934 1296.88,-791.375 1366.5,-765 1401.24,-751.837 1433.5,-752.156 1433.5,-715 1433.5,-715 1433.5,-715 1433.5,-582.5 1433.5,-446.628 1396.29,-393.652 1285.5,-315 1266.69,-301.65 1242.23,-292.833 1222.71,-287.388"/>
<text text-anchor="middle" x="1441.5" y="-536.3" font-family="Times New Roman,serif" font-size="14.00">1.0</text>
</g>
<!-- 401260 -->
<g id="node18" class="node"><title>401260</title>
<ellipse fill="none" stroke="black" cx="864.497" cy="-192" rx="37.0935" ry="18"/>
<text text-anchor="middle" x="864.497" y="-188.3" font-family="Times New Roman,serif" font-size="14.00">401260</text>
</g>
<!-- 401247&#45;&#45;401260 -->
<g id="edge21" class="edge"><title>401247&#45;&#45;401260</title>
<path fill="none" stroke="black" d="M909.734,-798.174C824.477,-792.937 620.497,-774.221 620.497,-715 620.497,-715 620.497,-715 620.497,-278 620.497,-234.32 761.707,-207.906 829.278,-197.768"/>
<text text-anchor="middle" x="629.497" y="-492.8" font-family="Times New Roman,serif" font-size="14.00">1.0</text>
</g>
<!-- 401262 -->
<g id="node19" class="node"><title>401262</title>
<ellipse fill="none" stroke="black" cx="965.497" cy="-105" rx="37.0935" ry="18"/>
<text text-anchor="middle" x="965.497" y="-101.3" font-family="Times New Roman,serif" font-size="14.00">401262</text>
</g>
<!-- 401247&#45;&#45;401262 -->
<g id="edge22" class="edge"><title>401247&#45;&#45;401262</title>
<path fill="none" stroke="black" d="M909.468,-799.348C815.375,-796.694 574.497,-783.235 574.497,-715 574.497,-715 574.497,-715 574.497,-191 574.497,-111.986 847.749,-145.482 923.497,-123 928.474,-121.523 933.677,-119.677 938.657,-117.752"/>
<text text-anchor="middle" x="583.497" y="-449.3" font-family="Times New Roman,serif" font-size="14.00">1.0</text>
</g>
<!-- 401264 -->
<g id="node20" class="node"><title>401264</title>
<ellipse fill="none" stroke="black" cx="965.497" cy="-18" rx="37.0935" ry="18"/>
<text text-anchor="middle" x="965.497" y="-14.3" font-family="Times New Roman,serif" font-size="14.00">401264</text>
</g>
<!-- 401247&#45;&#45;401264 -->
<g id="edge23" class="edge"><title>401247&#45;&#45;401264</title>
<path fill="none" stroke="black" d="M909.402,-800.282C807.102,-800.07 528.497,-792.387 528.497,-715 528.497,-715 528.497,-715 528.497,-104 528.497,-22.8456 822.56,-17.6376 928.239,-18.3862"/>
<text text-anchor="middle" x="537.497" y="-405.8" font-family="Times New Roman,serif" font-size="14.00">1.0</text>
</g>
<!-- 401248&#45;&#45;401250 -->
<g id="edge24" class="edge"><title>401248&#45;&#45;401250</title>
<path fill="none" stroke="black" d="M1004.66,-697.133C999.192,-691.194 992.995,-684.348 987.497,-678 977.796,-666.799 967.199,-653.855 959.208,-643.944"/>
<text text-anchor="middle" x="996.497" y="-666.8" font-family="Times New Roman,serif" font-size="14.00">1.0</text>
</g>
<!-- 401248&#45;&#45;401252 -->
<g id="edge25" class="edge"><title>401248&#45;&#45;401252</title>
<path fill="none" stroke="black" d="M1016.89,-695.831C1013.27,-674.707 1005.63,-638.069 992.497,-609 983.87,-589.907 969.983,-570.319 959.722,-557.101"/>
<text text-anchor="middle" x="1014.5" y="-623.3" font-family="Times New Roman,serif" font-size="14.00">1.0</text>
</g>
<!-- 401248&#45;&#45;401254 -->
<g id="edge26" class="edge"><title>401248&#45;&#45;401254</title>
<path fill="none" stroke="black" d="M1034.48,-697.35C1058.75,-670.981 1106.18,-614.974 1128.5,-558 1139.86,-528.993 1142.29,-492.334 1142.65,-471.189"/>
<text text-anchor="middle" x="1129.5" y="-579.8" font-family="Times New Roman,serif" font-size="14.00">1.0</text>
</g>
<!-- 401248&#45;&#45;401256 -->
<g id="edge27" class="edge"><title>401248&#45;&#45;401256</title>
<path fill="none" stroke="black" d="M1042.24,-699.624C1051.93,-693.514 1063.14,-685.886 1072.5,-678 1087.89,-665.034 1090.69,-660.522 1103.5,-645 1158.27,-578.611 1172.83,-555.63 1188.5,-471 1191.41,-455.267 1193.34,-450.25 1188.5,-435 1182.07,-414.753 1167.2,-395.337 1155.7,-382.474"/>
<text text-anchor="middle" x="1185.5" y="-536.3" font-family="Times New Roman,serif" font-size="14.00">1.0</text>
</g>
<!-- 401248&#45;&#45;401258 -->
<g id="edge28" class="edge"><title>401248&#45;&#45;401258</title>
<path fill="none" stroke="black" d="M1047.52,-701.909C1061.78,-695.735 1079.1,-687.402 1093.5,-678 1170.29,-627.857 1274.04,-530.216 1298.5,-471 1319.4,-420.392 1315.34,-397.289 1291.5,-348 1277.41,-318.879 1244.09,-300.367 1219.35,-290.131"/>
<text text-anchor="middle" x="1297.5" y="-492.8" font-family="Times New Roman,serif" font-size="14.00">1.0</text>
</g>
<!-- 401248&#45;&#45;401260 -->
<g id="edge29" class="edge"><title>401248&#45;&#45;401260</title>
<path fill="none" stroke="black" d="M990.111,-702.929C939.529,-683.807 837.409,-636.945 795.497,-558 733.591,-441.396 742.246,-379.473 800.497,-261 811.084,-239.468 830.82,-220.105 845.589,-207.6"/>
<text text-anchor="middle" x="769.497" y="-449.3" font-family="Times New Roman,serif" font-size="14.00">1.0</text>
</g>
<!-- 401248&#45;&#45;401262 -->
<g id="edge30" class="edge"><title>401248&#45;&#45;401262</title>
<path fill="none" stroke="black" d="M990.19,-702.922C983.112,-700.573 975.554,-698.137 968.497,-696 939.397,-687.189 931.079,-688.369 902.497,-678 775.691,-631.999 658.497,-632.392 658.497,-497.5 658.497,-497.5 658.497,-497.5 658.497,-321.5 658.497,-224.782 738.078,-227.731 818.497,-174 839.247,-160.136 901.893,-132.807 938.361,-117.35"/>
<text text-anchor="middle" x="667.497" y="-405.8" font-family="Times New Roman,serif" font-size="14.00">1.0</text>
</g>
<!-- 401248&#45;&#45;401264 -->
<g id="edge31" class="edge"><title>401248&#45;&#45;401264</title>
<path fill="none" stroke="black" d="M1050.12,-703.722C1069.75,-697.371 1095.57,-688.263 1117.5,-678 1143.66,-665.754 1150.46,-662.431 1173.5,-645 1317.19,-536.279 1420.5,-503.69 1420.5,-323.5 1420.5,-323.5 1420.5,-323.5 1420.5,-104 1420.5,-61.5098 1109.93,-31.2104 1001.96,-21.9605"/>
<text text-anchor="middle" x="1428.5" y="-362.3" font-family="Times New Roman,serif" font-size="14.00">1.0</text>
</g>
<!-- 401250&#45;&#45;401252 -->
<g id="edge32" class="edge"><title>401250&#45;&#45;401252</title>
<path fill="none" stroke="black" d="M946.497,-608.799C946.497,-594.052 946.497,-572.915 946.497,-558.175"/>
<text text-anchor="middle" x="955.497" y="-579.8" font-family="Times New Roman,serif" font-size="14.00">1.0</text>
</g>
<!-- 401250&#45;&#45;401254 -->
<g id="edge33" class="edge"><title>401250&#45;&#45;401254</title>
<path fill="none" stroke="black" d="M973.387,-614.413C978.363,-612.47 983.551,-610.577 988.497,-609 1021.57,-598.458 1036.71,-611.81 1064.5,-591 1085.91,-574.961 1120.11,-503.521 1135.07,-470.651"/>
<text text-anchor="middle" x="1118.5" y="-536.3" font-family="Times New Roman,serif" font-size="14.00">1.0</text>
</g>
<!-- 401250&#45;&#45;401256 -->
<g id="edge34" class="edge"><title>401250&#45;&#45;401256</title>
<path fill="none" stroke="black" d="M962.362,-610.279C984.583,-587.827 1025.6,-544.772 1055.5,-504 1076.59,-475.232 1077.69,-465.313 1096.5,-435 1107.54,-417.196 1120.63,-397.081 1129.65,-383.377"/>
<text text-anchor="middle" x="1074.5" y="-492.8" font-family="Times New Roman,serif" font-size="14.00">1.0</text>
</g>
<!-- 401250&#45;&#45;401258 -->
<g id="edge35" class="edge"><title>401250&#45;&#45;401258</title>
<path fill="none" stroke="black" d="M972.797,-614.106C977.922,-612.147 983.315,-610.326 988.497,-609 1055.26,-591.919 1082.72,-625.28 1142.5,-591 1175.81,-571.898 1170.43,-551.926 1194.5,-522 1233.01,-474.1 1263.17,-474.646 1284.5,-417 1303.18,-366.509 1244.56,-317.066 1211.11,-293.803"/>
<text text-anchor="middle" x="1285.5" y="-449.3" font-family="Times New Roman,serif" font-size="14.00">1.0</text>
</g>
<!-- 401250&#45;&#45;401260 -->
<g id="edge36" class="edge"><title>401250&#45;&#45;401260</title>
<path fill="none" stroke="black" d="M910.351,-622.926C886.878,-619.071 857.268,-610.412 838.497,-591 782.564,-533.157 799.718,-496.677 788.497,-417 777.101,-336.077 829.346,-245.609 853.177,-209.334"/>
<text text-anchor="middle" x="797.497" y="-405.8" font-family="Times New Roman,serif" font-size="14.00">1.0</text>
</g>
<!-- 401250&#45;&#45;401262 -->
<g id="edge37" class="edge"><title>401250&#45;&#45;401262</title>
<path fill="none" stroke="black" d="M931.92,-610.41C920.893,-597.48 906.636,-578.032 900.497,-558 895.809,-542.702 899.269,-537.953 900.497,-522 912.53,-365.666 950.032,-179.256 961.875,-122.927"/>
<text text-anchor="middle" x="930.497" y="-362.3" font-family="Times New Roman,serif" font-size="14.00">1.0</text>
</g>
<!-- 401250&#45;&#45;401264 -->
<g id="edge38" class="edge"><title>401250&#45;&#45;401264</title>
<path fill="none" stroke="black" d="M911.208,-621.51C842.296,-611.752 696.497,-585.811 696.497,-541 696.497,-541 696.497,-541 696.497,-104 696.497,-55.696 856.198,-31.3662 929.498,-22.7433"/>
<text text-anchor="middle" x="705.497" y="-318.8" font-family="Times New Roman,serif" font-size="14.00">1.0</text>
</g>
<!-- 401252&#45;&#45;401254 -->
<g id="edge39" class="edge"><title>401252&#45;&#45;401254</title>
<path fill="none" stroke="black" d="M971.696,-526.803C984.657,-520.336 1000.61,-512.075 1014.5,-504 1025.05,-497.866 1026.51,-494.306 1037.5,-489 1061.03,-477.637 1089.19,-468.47 1110.43,-462.371"/>
<text text-anchor="middle" x="1046.5" y="-492.8" font-family="Times New Roman,serif" font-size="14.00">1.0</text>
</g>
<!-- 401252&#45;&#45;401256 -->
<g id="edge40" class="edge"><title>401252&#45;&#45;401256</title>
<path fill="none" stroke="black" d="M966.06,-524.469C973.676,-518.461 982.288,-511.22 989.497,-504 1017.4,-476.053 1017.51,-462.871 1045.5,-435 1062.07,-418.493 1067.55,-415.713 1086.5,-402 1096.72,-394.599 1108.44,-386.913 1118.35,-380.634"/>
<text text-anchor="middle" x="1054.5" y="-449.3" font-family="Times New Roman,serif" font-size="14.00">1.0</text>
</g>
<!-- 401252&#45;&#45;401258 -->
<g id="edge41" class="edge"><title>401252&#45;&#45;401258</title>
<path fill="none" stroke="black" d="M955.92,-522.584C968.221,-501.602 990.861,-464.466 1013.5,-435 1025.2,-419.771 1091.99,-350.189 1094.5,-348 1118.18,-327.327 1148.01,-306.759 1167.86,-293.748"/>
<text text-anchor="middle" x="1052.5" y="-405.8" font-family="Times New Roman,serif" font-size="14.00">1.0</text>
</g>
<!-- 401252&#45;&#45;401260 -->
<g id="edge42" class="edge"><title>401252&#45;&#45;401260</title>
<path fill="none" stroke="black" d="M936.286,-522.595C919.832,-495.14 888.032,-437.607 875.497,-384 860.826,-321.256 862.074,-243.921 863.539,-210.142"/>
<text text-anchor="middle" x="884.497" y="-362.3" font-family="Times New Roman,serif" font-size="14.00">1.0</text>
</g>
<!-- 401252&#45;&#45;401262 -->
<g id="edge43" class="edge"><title>401252&#45;&#45;401262</title>
<path fill="none" stroke="black" d="M947.141,-521.856C948.56,-484.347 952.1,-392.182 955.497,-315 958.636,-243.688 962.848,-158.713 964.636,-123.066"/>
<text text-anchor="middle" x="964.497" y="-318.8" font-family="Times New Roman,serif" font-size="14.00">1.0</text>
</g>
<!-- 401252&#45;&#45;401264 -->
<g id="edge44" class="edge"><title>401252&#45;&#45;401264</title>
<path fill="none" stroke="black" d="M929.906,-523.87C916.898,-511.057 899.393,-491.539 889.497,-471 830.588,-348.732 776.659,-303.11 818.497,-174 839.298,-109.811 860.065,-97.6761 911.497,-54 920.95,-45.973 932.357,-38.3268 942.247,-32.2403"/>
<text text-anchor="middle" x="817.497" y="-275.3" font-family="Times New Roman,serif" font-size="14.00">1.0</text>
</g>
<!-- 401254&#45;&#45;401256 -->
<g id="edge45" class="edge"><title>401254&#45;&#45;401256</title>
<path fill="none" stroke="black" d="M1142.09,-434.799C1141.75,-420.052 1141.25,-398.915 1140.9,-384.175"/>
<text text-anchor="middle" x="1150.5" y="-405.8" font-family="Times New Roman,serif" font-size="14.00">1.0</text>
</g>
<!-- 401254&#45;&#45;401258 -->
<g id="edge46" class="edge"><title>401254&#45;&#45;401258</title>
<path fill="none" stroke="black" d="M1156.15,-436.204C1166.54,-423.158 1180.1,-403.654 1186.5,-384 1196.06,-354.631 1194.19,-318.094 1191.89,-297.069"/>
<text text-anchor="middle" x="1201.5" y="-362.3" font-family="Times New Roman,serif" font-size="14.00">1.0</text>
</g>
<!-- 401254&#45;&#45;401260 -->
<g id="edge47" class="edge"><title>401254&#45;&#45;401260</title>
<path fill="none" stroke="black" d="M1112.25,-442.298C1096.76,-436.447 1078.14,-427.983 1063.5,-417 1016.07,-381.414 1016.77,-359.43 977.497,-315 943.083,-276.062 901.198,-231.566 879.362,-208.578"/>
<text text-anchor="middle" x="999.497" y="-318.8" font-family="Times New Roman,serif" font-size="14.00">1.0</text>
</g>
<!-- 401254&#45;&#45;401262 -->
<g id="edge48" class="edge"><title>401254&#45;&#45;401262</title>
<path fill="none" stroke="black" d="M1128.33,-436.145C1117.41,-423.066 1102.81,-403.546 1094.5,-384 1066.85,-319.034 1091.79,-293.116 1064.5,-228 1046.34,-184.68 1035.52,-176.264 1004.5,-141 998.247,-133.897 990.639,-126.788 983.807,-120.852"/>
<text text-anchor="middle" x="1087.5" y="-275.3" font-family="Times New Roman,serif" font-size="14.00">1.0</text>
</g>
<!-- 401254&#45;&#45;401264 -->
<g id="edge49" class="edge"><title>401254&#45;&#45;401264</title>
<path fill="none" stroke="black" d="M1163.01,-437.579C1170.98,-431.586 1179.99,-424.326 1187.5,-417 1201.06,-403.767 1204.23,-399.93 1214.5,-384 1287.17,-271.22 1337.43,-202.104 1268.5,-87 1254.82,-64.1567 1243.41,-63.3901 1218.5,-54 1145.47,-26.4772 1053.27,-20.2553 1002.78,-19.0544"/>
<text text-anchor="middle" x="1305.5" y="-231.8" font-family="Times New Roman,serif" font-size="14.00">1.0</text>
</g>
<!-- 401256&#45;&#45;401258 -->
<g id="edge50" class="edge"><title>401256&#45;&#45;401258</title>
<path fill="none" stroke="black" d="M1150.18,-348.207C1158.82,-333.208 1171.41,-311.368 1180,-296.469"/>
<text text-anchor="middle" x="1176.5" y="-318.8" font-family="Times New Roman,serif" font-size="14.00">1.0</text>
</g>
<!-- 401256&#45;&#45;401260 -->
<g id="edge51" class="edge"><title>401256&#45;&#45;401260</title>
<path fill="none" stroke="black" d="M1118.38,-351.215C1066.57,-318.93 937.87,-238.725 886.339,-206.612"/>
<text text-anchor="middle" x="1039.5" y="-275.3" font-family="Times New Roman,serif" font-size="14.00">1.0</text>
</g>
<!-- 401256&#45;&#45;401262 -->
<g id="edge52" class="edge"><title>401256&#45;&#45;401262</title>
<path fill="none" stroke="black" d="M1139.09,-347.841C1134.9,-300.777 1120.96,-171.153 1092.5,-141 1069.5,-116.633 1031.23,-108.693 1002.7,-106.358"/>
<text text-anchor="middle" x="1134.5" y="-231.8" font-family="Times New Roman,serif" font-size="14.00">1.0</text>
</g>
<!-- 401256&#45;&#45;401264 -->
<g id="edge53" class="edge"><title>401256&#45;&#45;401264</title>
<path fill="none" stroke="black" d="M1165.85,-352.817C1187.32,-341.266 1217.42,-321.977 1235.5,-297 1252.02,-274.167 1254.5,-264.684 1254.5,-236.5 1254.5,-236.5 1254.5,-236.5 1254.5,-104 1254.5,-51.8974 1079.43,-29.4083 1001.81,-21.998"/>
<text text-anchor="middle" x="1263.5" y="-188.3" font-family="Times New Roman,serif" font-size="14.00">1.0</text>
</g>
<!-- 401258&#45;&#45;401260 -->
<g id="edge54" class="edge"><title>401258&#45;&#45;401260</title>
<path fill="none" stroke="black" d="M1157.74,-269.695C1095.61,-253.445 958.616,-217.616 896.38,-201.339"/>
<text text-anchor="middle" x="1055.5" y="-231.8" font-family="Times New Roman,serif" font-size="14.00">1.0</text>
</g>
<!-- 401258&#45;&#45;401262 -->
<g id="edge55" class="edge"><title>401258&#45;&#45;401262</title>
<path fill="none" stroke="black" d="M1187.19,-260.669C1182.32,-231.28 1168.15,-171.862 1130.5,-141 1111.13,-125.129 1044.02,-114.844 1001.58,-109.764"/>
<text text-anchor="middle" x="1182.5" y="-188.3" font-family="Times New Roman,serif" font-size="14.00">1.0</text>
</g>
<!-- 401258&#45;&#45;401264 -->
<g id="edge56" class="edge"><title>401258&#45;&#45;401264</title>
<path fill="none" stroke="black" d="M1195.09,-261.137C1201.18,-239.682 1208.33,-202.048 1194.5,-174 1154.37,-92.6211 1048.67,-46.919 996.098,-28.5711"/>
<text text-anchor="middle" x="1191.5" y="-144.8" font-family="Times New Roman,serif" font-size="14.00">1.0</text>
</g>
<!-- 401260&#45;&#45;401262 -->
<g id="edge57" class="edge"><title>401260&#45;&#45;401262</title>
<path fill="none" stroke="black" d="M876.876,-174.557C885.145,-164.212 896.645,-150.981 908.497,-141 918.445,-132.622 930.599,-124.876 941.124,-118.812"/>
<text text-anchor="middle" x="917.497" y="-144.8" font-family="Times New Roman,serif" font-size="14.00">1.0</text>
</g>
<!-- 401260&#45;&#45;401264 -->
<g id="edge58" class="edge"><title>401260&#45;&#45;401264</title>
<path fill="none" stroke="black" d="M868.283,-173.842C873.517,-152.406 884.312,-115.128 901.497,-87 914.091,-66.3871 933.706,-46.7332 947.902,-33.9048"/>
<text text-anchor="middle" x="910.497" y="-101.3" font-family="Times New Roman,serif" font-size="14.00">1.0</text>
</g>
<!-- 401262&#45;&#45;401264 -->
<g id="edge59" class="edge"><title>401262&#45;&#45;401264</title>
<path fill="none" stroke="black" d="M965.497,-86.799C965.497,-72.0519 965.497,-50.9152 965.497,-36.1754"/>
<text text-anchor="middle" x="974.497" y="-57.8" font-family="Times New Roman,serif" font-size="14.00">1.0</text>
</g>
</g>
</svg>
