<svg width="608px" height="639px"
 viewBox="0.00 0.00 456.05 479.00" xmlns="http://www.w3.org/2000/svg" xmlns:xlink="http://www.w3.org/1999/xlink">
<g id="graph0" class="graph" transform="scale(1.000022500562514 1.000022500562514) rotate(0) translate(4 475)">
<title>G</title>
<polygon fill="white" stroke="none" points="-4,4 -4,-475 452.047,-475 452.047,4 -4,4"/>
<!-- 235441 -->
<g id="node1" class="node"><title>235441</title>
<ellipse fill="none" stroke="black" cx="37.0467" cy="-453" rx="37.0935" ry="18"/>
<text text-anchor="middle" x="37.0467" y="-449.3" font-family="Times New Roman,serif" font-size="14.00">235441</text>
</g>
<!-- 235442 -->
<g id="node2" class="node"><title>235442</title>
<ellipse fill="none" stroke="black" cx="37.0467" cy="-366" rx="37.0935" ry="18"/>
<text text-anchor="middle" x="37.0467" y="-362.3" font-family="Times New Roman,serif" font-size="14.00">235442</text>
</g>
<!-- 235441&#45;&#45;235442 -->
<g id="edge1" class="edge"><title>235441&#45;&#45;235442</title>
<path fill="none" stroke="black" d="M37.0467,-434.799C37.0467,-420.052 37.0467,-398.915 37.0467,-384.175"/>
<text text-anchor="middle" x="46.0467" y="-405.8" font-family="Times New Roman,serif" font-size="14.00">1.0</text>
</g>
<!-- 463723 -->
<g id="node3" class="node"><title>463723</title>
<ellipse fill="none" stroke="black" cx="194.047" cy="-453" rx="37.0935" ry="18"/>
<text text-anchor="middle" x="194.047" y="-449.3" font-family="Times New Roman,serif" font-size="14.00">463723</text>
</g>
<!-- 463724 -->
<g id="node4" class="node"><title>463724</title>
<ellipse fill="none" stroke="black" cx="267.047" cy="-366" rx="37.0935" ry="18"/>
<text text-anchor="middle" x="267.047" y="-362.3" font-family="Times New Roman,serif" font-size="14.00">463724</text>
</g>
<!-- 463723&#45;&#45;463724 -->
<g id="edge2" class="edge"><title>463723&#45;&#45;463724</title>
<path fill="none" stroke="black" d="M207.777,-436.012C220.829,-420.815 240.347,-398.089 253.378,-382.916"/>
<text text-anchor="middle" x="243.047" y="-405.8" font-family="Times New Roman,serif" font-size="14.00">1.0</text>
</g>
<!-- 463726 -->
<g id="node5" class="node"><title>463726</title>
<ellipse fill="none" stroke="black" cx="267.047" cy="-279" rx="37.0935" ry="18"/>
<text text-anchor="middle" x="267.047" y="-275.3" font-family="Times New Roman,serif" font-size="14.00">463726</text>
</g>
<!-- 463723&#45;&#45;463726 -->
<g id="edge3" class="edge"><title>463723&#45;&#45;463726</title>
<path fill="none" stroke="black" d="M192.206,-434.947C190.629,-413.62 190.316,-376.453 203.047,-348 212.846,-326.099 232.706,-306.793 247.718,-294.402"/>
<text text-anchor="middle" x="212.047" y="-362.3" font-family="Times New Roman,serif" font-size="14.00">1.0</text>
</g>
<!-- 463728 -->
<g id="node6" class="node"><title>463728</title>
<ellipse fill="none" stroke="black" cx="181.047" cy="-192" rx="37.0935" ry="18"/>
<text text-anchor="middle" x="181.047" y="-188.3" font-family="Times New Roman,serif" font-size="14.00">463728</text>
</g>
<!-- 463723&#45;&#45;463728 -->
<g id="edge4" class="edge"><title>463723&#45;&#45;463728</title>
<path fill="none" stroke="black" d="M190.108,-434.994C188.934,-429.303 187.769,-422.905 187.047,-417 177.651,-340.157 180.825,-320.395 179.047,-243 178.894,-236.335 178.856,-234.664 179.047,-228 179.213,-222.16 179.536,-215.778 179.875,-210.081"/>
<text text-anchor="middle" x="189.047" y="-318.8" font-family="Times New Roman,serif" font-size="14.00">1.0</text>
</g>
<!-- 463730 -->
<g id="node7" class="node"><title>463730</title>
<ellipse fill="none" stroke="black" cx="235.047" cy="-105" rx="37.0935" ry="18"/>
<text text-anchor="middle" x="235.047" y="-101.3" font-family="Times New Roman,serif" font-size="14.00">463730</text>
</g>
<!-- 463723&#45;&#45;463730 -->
<g id="edge5" class="edge"><title>463723&#45;&#45;463730</title>
<path fill="none" stroke="black" d="M166.444,-440.531C139.345,-427.213 102.047,-402.446 102.047,-367 102.047,-367 102.047,-367 102.047,-191 102.047,-166.2 168.533,-133.978 207.489,-117.226"/>
<text text-anchor="middle" x="111.047" y="-275.3" font-family="Times New Roman,serif" font-size="14.00">1.0</text>
</g>
<!-- 463732 -->
<g id="node8" class="node"><title>463732</title>
<ellipse fill="none" stroke="black" cx="300.047" cy="-18" rx="37.0935" ry="18"/>
<text text-anchor="middle" x="300.047" y="-14.3" font-family="Times New Roman,serif" font-size="14.00">463732</text>
</g>
<!-- 463723&#45;&#45;463732 -->
<g id="edge6" class="edge"><title>463723&#45;&#45;463732</title>
<path fill="none" stroke="black" d="M229.123,-446.85C294.866,-436.205 430.047,-409.188 430.047,-367 430.047,-367 430.047,-367 430.047,-104 430.047,-58.0235 372.382,-35.5851 333.863,-25.7254"/>
<text text-anchor="middle" x="439.047" y="-231.8" font-family="Times New Roman,serif" font-size="14.00">1.0</text>
</g>
<!-- 463724&#45;&#45;463726 -->
<g id="edge7" class="edge"><title>463724&#45;&#45;463726</title>
<path fill="none" stroke="black" d="M267.047,-347.799C267.047,-333.052 267.047,-311.915 267.047,-297.175"/>
<text text-anchor="middle" x="276.047" y="-318.8" font-family="Times New Roman,serif" font-size="14.00">1.0</text>
</g>
<!-- 463724&#45;&#45;463728 -->
<g id="edge8" class="edge"><title>463724&#45;&#45;463728</title>
<path fill="none" stroke="black" d="M248.422,-350.257C233.818,-337.668 214.164,-318.262 203.047,-297 188.338,-268.871 183.463,-231.593 181.847,-210.158"/>
<text text-anchor="middle" x="212.047" y="-275.3" font-family="Times New Roman,serif" font-size="14.00">1.0</text>
</g>
<!-- 463724&#45;&#45;463730 -->
<g id="edge9" class="edge"><title>463724&#45;&#45;463730</title>
<path fill="none" stroke="black" d="M281.279,-349.298C292.11,-336.305 306.272,-316.827 313.047,-297 335.502,-231.282 360.925,-198.547 322.047,-141 310.472,-123.867 288.97,-115.119 270.239,-110.654"/>
<text text-anchor="middle" x="346.047" y="-231.8" font-family="Times New Roman,serif" font-size="14.00">1.0</text>
</g>
<!-- 463724&#45;&#45;463732 -->
<g id="edge10" class="edge"><title>463724&#45;&#45;463732</title>
<path fill="none" stroke="black" d="M299.017,-356.726C333.659,-345.605 384.047,-322.18 384.047,-280 384.047,-280 384.047,-280 384.047,-104 384.047,-70.3897 350.409,-45.2791 325.706,-31.37"/>
<text text-anchor="middle" x="393.047" y="-188.3" font-family="Times New Roman,serif" font-size="14.00">1.0</text>
</g>
<!-- 463726&#45;&#45;463728 -->
<g id="edge11" class="edge"><title>463726&#45;&#45;463728</title>
<path fill="none" stroke="black" d="M248.111,-263.261C240.696,-257.225 232.256,-250.018 225.047,-243 213.944,-232.192 202.409,-218.999 193.936,-208.88"/>
<text text-anchor="middle" x="234.047" y="-231.8" font-family="Times New Roman,serif" font-size="14.00">1.0</text>
</g>
<!-- 463726&#45;&#45;463730 -->
<g id="edge12" class="edge"><title>463726&#45;&#45;463730</title>
<path fill="none" stroke="black" d="M263.861,-260.879C257.728,-227.91 244.343,-155.966 238.219,-123.052"/>
<text text-anchor="middle" x="263.047" y="-188.3" font-family="Times New Roman,serif" font-size="14.00">1.0</text>
</g>
<!-- 463726&#45;&#45;463732 -->
<g id="edge13" class="edge"><title>463726&#45;&#45;463732</title>
<path fill="none" stroke="black" d="M269.548,-260.918C270.366,-255.222 271.265,-248.84 272.047,-243 282.373,-165.893 293.52,-73.6865 298.006,-36.1555"/>
<text text-anchor="middle" x="294.047" y="-144.8" font-family="Times New Roman,serif" font-size="14.00">1.0</text>
</g>
<!-- 463728&#45;&#45;463730 -->
<g id="edge14" class="edge"><title>463728&#45;&#45;463730</title>
<path fill="none" stroke="black" d="M191.458,-174.611C201.021,-159.56 215.115,-137.374 224.667,-122.339"/>
<text text-anchor="middle" x="220.047" y="-144.8" font-family="Times New Roman,serif" font-size="14.00">1.0</text>
</g>
<!-- 463728&#45;&#45;463732 -->
<g id="edge15" class="edge"><title>463728&#45;&#45;463732</title>
<path fill="none" stroke="black" d="M173.608,-174.143C165.222,-152.358 154.743,-114.024 171.047,-87 191.71,-52.7496 236.006,-34.8745 266.892,-26.208"/>
<text text-anchor="middle" x="180.047" y="-101.3" font-family="Times New Roman,serif" font-size="14.00">1.0</text>
</g>
<!-- 463730&#45;&#45;463732 -->
<g id="edge16" class="edge"><title>463730&#45;&#45;463732</title>
<path fill="none" stroke="black" d="M245.12,-87.3365C251.355,-77.3918 259.735,-64.6648 268.047,-54 273.209,-47.3761 279.338,-40.4743 284.843,-34.5675"/>
<text text-anchor="middle" x="277.047" y="-57.8" font-family="Times New Roman,serif" font-size="14.00">1.0</text>
</g>
</g>
</svg>
