<svg width="996px" height="755px"
 viewBox="0.00 0.00 747.09 566.00" xmlns="http://www.w3.org/2000/svg" xmlns:xlink="http://www.w3.org/1999/xlink">
<g id="graph0" class="graph" transform="scale(1.000022500562514 1.000022500562514) rotate(0) translate(4 562)">
<title>G</title>
<polygon fill="white" stroke="none" points="-4,4 -4,-562 743.093,-562 743.093,4 -4,4"/>
<!-- 194665 -->
<g id="node1" class="node"><title>194665</title>
<ellipse fill="none" stroke="black" cx="84.0467" cy="-540" rx="37.0935" ry="18"/>
<text text-anchor="middle" x="84.0467" y="-536.3" font-family="Times New Roman,serif" font-size="14.00">194665</text>
</g>
<!-- 194666 -->
<g id="node2" class="node"><title>194666</title>
<ellipse fill="none" stroke="black" cx="37.0467" cy="-453" rx="37.0935" ry="18"/>
<text text-anchor="middle" x="37.0467" y="-449.3" font-family="Times New Roman,serif" font-size="14.00">194666</text>
</g>
<!-- 194665&#45;&#45;194666 -->
<g id="edge1" class="edge"><title>194665&#45;&#45;194666</title>
<path fill="none" stroke="black" d="M74.761,-522.207C66.4678,-507.208 54.3914,-485.368 46.1532,-470.469"/>
<text text-anchor="middle" x="73.0467" y="-492.8" font-family="Times New Roman,serif" font-size="14.00">1.0</text>
</g>
<!-- 194668 -->
<g id="node3" class="node"><title>194668</title>
<ellipse fill="none" stroke="black" cx="60.0467" cy="-366" rx="37.0935" ry="18"/>
<text text-anchor="middle" x="60.0467" y="-362.3" font-family="Times New Roman,serif" font-size="14.00">194668</text>
</g>
<!-- 194665&#45;&#45;194668 -->
<g id="edge2" class="edge"><title>194665&#45;&#45;194668</title>
<path fill="none" stroke="black" d="M85.2185,-521.919C85.557,-516.222 85.88,-509.84 86.0467,-504 86.9227,-473.317 88.8024,-465.151 83.0467,-435 80.1478,-419.814 76.9982,-416.646 72.0467,-402 70.0717,-396.158 67.8904,-389.776 65.9353,-384.08"/>
<text text-anchor="middle" x="97.0467" y="-449.3" font-family="Times New Roman,serif" font-size="14.00">1.0</text>
</g>
<!-- 194666&#45;&#45;194668 -->
<g id="edge3" class="edge"><title>194666&#45;&#45;194668</title>
<path fill="none" stroke="black" d="M41.7011,-434.799C45.7178,-419.955 51.4862,-398.637 55.4777,-383.885"/>
<text text-anchor="middle" x="59.0467" y="-405.8" font-family="Times New Roman,serif" font-size="14.00">1.0</text>
</g>
<!-- 339525 -->
<g id="node4" class="node"><title>339525</title>
<ellipse fill="none" stroke="black" cx="417.047" cy="-540" rx="37.0935" ry="18"/>
<text text-anchor="middle" x="417.047" y="-536.3" font-family="Times New Roman,serif" font-size="14.00">339525</text>
</g>
<!-- 339526 -->
<g id="node5" class="node"><title>339526</title>
<ellipse fill="none" stroke="black" cx="344.047" cy="-453" rx="37.0935" ry="18"/>
<text text-anchor="middle" x="344.047" y="-449.3" font-family="Times New Roman,serif" font-size="14.00">339526</text>
</g>
<!-- 339525&#45;&#45;339526 -->
<g id="edge4" class="edge"><title>339525&#45;&#45;339526</title>
<path fill="none" stroke="black" d="M403.316,-523.012C390.265,-507.815 370.747,-485.089 357.716,-469.916"/>
<text text-anchor="middle" x="394.047" y="-492.8" font-family="Times New Roman,serif" font-size="14.00">1.0</text>
</g>
<!-- 339528 -->
<g id="node6" class="node"><title>339528</title>
<ellipse fill="none" stroke="black" cx="390.047" cy="-366" rx="37.0935" ry="18"/>
<text text-anchor="middle" x="390.047" y="-362.3" font-family="Times New Roman,serif" font-size="14.00">339528</text>
</g>
<!-- 339525&#45;&#45;339528 -->
<g id="edge5" class="edge"><title>339525&#45;&#45;339528</title>
<path fill="none" stroke="black" d="M414.359,-521.879C409.184,-488.91 397.89,-416.966 392.723,-384.052"/>
<text text-anchor="middle" x="416.047" y="-449.3" font-family="Times New Roman,serif" font-size="14.00">1.0</text>
</g>
<!-- 339530 -->
<g id="node7" class="node"><title>339530</title>
<ellipse fill="none" stroke="black" cx="288.047" cy="-279" rx="37.0935" ry="18"/>
<text text-anchor="middle" x="288.047" y="-275.3" font-family="Times New Roman,serif" font-size="14.00">339530</text>
</g>
<!-- 339525&#45;&#45;339530 -->
<g id="edge6" class="edge"><title>339525&#45;&#45;339530</title>
<path fill="none" stroke="black" d="M387.697,-528.982C360.904,-518.443 321.942,-499.406 298.047,-471 251.091,-415.179 216.5,-381.24 247.047,-315 250.966,-306.501 258.079,-299.302 265.294,-293.683"/>
<text text-anchor="middle" x="264.047" y="-405.8" font-family="Times New Roman,serif" font-size="14.00">1.0</text>
</g>
<!-- 339532 -->
<g id="node8" class="node"><title>339532</title>
<ellipse fill="none" stroke="black" cx="224.047" cy="-192" rx="37.0935" ry="18"/>
<text text-anchor="middle" x="224.047" y="-188.3" font-family="Times New Roman,serif" font-size="14.00">339532</text>
</g>
<!-- 339525&#45;&#45;339532 -->
<g id="edge7" class="edge"><title>339525&#45;&#45;339532</title>
<path fill="none" stroke="black" d="M385.078,-530.522C364.285,-524.436 336.891,-515.322 314.047,-504 251.843,-473.171 232.237,-450.999 214.047,-384 197.125,-321.672 211.689,-243.8 219.663,-209.982"/>
<text text-anchor="middle" x="223.047" y="-362.3" font-family="Times New Roman,serif" font-size="14.00">1.0</text>
</g>
<!-- 339534 -->
<g id="node9" class="node"><title>339534</title>
<ellipse fill="none" stroke="black" cx="472.047" cy="-105" rx="37.0935" ry="18"/>
<text text-anchor="middle" x="472.047" y="-101.3" font-family="Times New Roman,serif" font-size="14.00">339534</text>
</g>
<!-- 339525&#45;&#45;339534 -->
<g id="edge8" class="edge"><title>339525&#45;&#45;339534</title>
<path fill="none" stroke="black" d="M449.52,-531.075C485.059,-520.232 537.047,-497.019 537.047,-454 537.047,-454 537.047,-454 537.047,-191 537.047,-161.276 511.656,-135.504 492.613,-120.355"/>
<text text-anchor="middle" x="546.047" y="-318.8" font-family="Times New Roman,serif" font-size="14.00">1.0</text>
</g>
<!-- 339536 -->
<g id="node10" class="node"><title>339536</title>
<ellipse fill="none" stroke="black" cx="348.047" cy="-18" rx="37.0935" ry="18"/>
<text text-anchor="middle" x="348.047" y="-14.3" font-family="Times New Roman,serif" font-size="14.00">339536</text>
</g>
<!-- 339525&#45;&#45;339536 -->
<g id="edge9" class="edge"><title>339525&#45;&#45;339536</title>
<path fill="none" stroke="black" d="M453.476,-536.237C502.341,-530.318 583.047,-511.795 583.047,-454 583.047,-454 583.047,-454 583.047,-104 583.047,-61.9704 448.439,-34.8718 382.975,-24.1781"/>
<text text-anchor="middle" x="592.047" y="-275.3" font-family="Times New Roman,serif" font-size="14.00">1.0</text>
</g>
<!-- 339526&#45;&#45;339528 -->
<g id="edge10" class="edge"><title>339526&#45;&#45;339528</title>
<path fill="none" stroke="black" d="M353.135,-435.207C361.199,-420.305 372.919,-398.649 380.977,-383.758"/>
<text text-anchor="middle" x="379.047" y="-405.8" font-family="Times New Roman,serif" font-size="14.00">1.0</text>
</g>
<!-- 339526&#45;&#45;339530 -->
<g id="edge11" class="edge"><title>339526&#45;&#45;339530</title>
<path fill="none" stroke="black" d="M338.575,-435.195C327.869,-402.312 304.264,-329.811 293.54,-296.873"/>
<text text-anchor="middle" x="331.047" y="-362.3" font-family="Times New Roman,serif" font-size="14.00">1.0</text>
</g>
<!-- 339526&#45;&#45;339532 -->
<g id="edge12" class="edge"><title>339526&#45;&#45;339532</title>
<path fill="none" stroke="black" d="M330.282,-436.068C307.945,-409.293 264.088,-352.716 242.047,-297 230.52,-267.863 226.361,-231.248 224.87,-210.146"/>
<text text-anchor="middle" x="266.047" y="-318.8" font-family="Times New Roman,serif" font-size="14.00">1.0</text>
</g>
<!-- 339526&#45;&#45;339534 -->
<g id="edge13" class="edge"><title>339526&#45;&#45;339534</title>
<path fill="none" stroke="black" d="M369.171,-439.514C390.043,-427.892 418.986,-408.665 436.047,-384 493.494,-300.948 481.465,-169.889 474.846,-123.211"/>
<text text-anchor="middle" x="487.047" y="-275.3" font-family="Times New Roman,serif" font-size="14.00">1.0</text>
</g>
<!-- 339526&#45;&#45;339536 -->
<g id="edge14" class="edge"><title>339526&#45;&#45;339536</title>
<path fill="none" stroke="black" d="M309.039,-447.087C248.825,-436.448 132.047,-405.274 132.047,-323.5 132.047,-323.5 132.047,-323.5 132.047,-104 132.047,-65.4136 252.915,-36.9923 313.821,-25.1201"/>
<text text-anchor="middle" x="141.047" y="-231.8" font-family="Times New Roman,serif" font-size="14.00">1.0</text>
</g>
<!-- 339528&#45;&#45;339530 -->
<g id="edge15" class="edge"><title>339528&#45;&#45;339530</title>
<path fill="none" stroke="black" d="M367.168,-351.8C357.235,-345.664 345.694,-337.969 336.047,-330 323.43,-319.577 310.671,-306.118 301.483,-295.789"/>
<text text-anchor="middle" x="345.047" y="-318.8" font-family="Times New Roman,serif" font-size="14.00">1.0</text>
</g>
<!-- 339528&#45;&#45;339532 -->
<g id="edge16" class="edge"><title>339528&#45;&#45;339532</title>
<path fill="none" stroke="black" d="M384.166,-348.199C375.787,-326.13 358.653,-287.122 334.047,-261 310.185,-235.669 274.893,-216.084 250.76,-204.573"/>
<text text-anchor="middle" x="369.047" y="-275.3" font-family="Times New Roman,serif" font-size="14.00">1.0</text>
</g>
<!-- 339528&#45;&#45;339534 -->
<g id="edge17" class="edge"><title>339528&#45;&#45;339534</title>
<path fill="none" stroke="black" d="M406.744,-349.547C412.019,-343.864 417.413,-337.076 421.047,-330 457.483,-259.04 468.115,-162.236 471.024,-123.28"/>
<text text-anchor="middle" x="465.047" y="-231.8" font-family="Times New Roman,serif" font-size="14.00">1.0</text>
</g>
<!-- 339528&#45;&#45;339536 -->
<g id="edge18" class="edge"><title>339528&#45;&#45;339536</title>
<path fill="none" stroke="black" d="M395.519,-347.944C400.489,-330.922 407.047,-303.928 407.047,-280 407.047,-280 407.047,-280 407.047,-104 407.047,-75.2584 384,-49.2407 366.715,-33.7692"/>
<text text-anchor="middle" x="416.047" y="-188.3" font-family="Times New Roman,serif" font-size="14.00">1.0</text>
</g>
<!-- 339530&#45;&#45;339532 -->
<g id="edge19" class="edge"><title>339530&#45;&#45;339532</title>
<path fill="none" stroke="black" d="M273.358,-262.374C268.029,-256.461 262.084,-249.57 257.047,-243 248.82,-232.27 240.438,-219.544 234.181,-209.616"/>
<text text-anchor="middle" x="266.047" y="-231.8" font-family="Times New Roman,serif" font-size="14.00">1.0</text>
</g>
<!-- 339530&#45;&#45;339534 -->
<g id="edge20" class="edge"><title>339530&#45;&#45;339534</title>
<path fill="none" stroke="black" d="M298.032,-261.459C311.722,-239.677 337.958,-200.987 367.047,-174 391.725,-151.105 425.012,-131.006 447.436,-118.711"/>
<text text-anchor="middle" x="376.047" y="-188.3" font-family="Times New Roman,serif" font-size="14.00">1.0</text>
</g>
<!-- 339530&#45;&#45;339536 -->
<g id="edge21" class="edge"><title>339530&#45;&#45;339536</title>
<path fill="none" stroke="black" d="M285.114,-260.83C281.228,-234.584 275.962,-183.102 286.047,-141 295.787,-100.335 321.439,-57.9202 336.52,-35.3823"/>
<text text-anchor="middle" x="295.047" y="-144.8" font-family="Times New Roman,serif" font-size="14.00">1.0</text>
</g>
<!-- 339532&#45;&#45;339534 -->
<g id="edge22" class="edge"><title>339532&#45;&#45;339534</title>
<path fill="none" stroke="black" d="M253.027,-180.439C269.497,-174.065 290.309,-165.378 308.047,-156 318.836,-150.296 319.857,-145.871 331.047,-141 365.619,-125.949 407.899,-116.541 437.093,-111.318"/>
<text text-anchor="middle" x="340.047" y="-144.8" font-family="Times New Roman,serif" font-size="14.00">1.0</text>
</g>
<!-- 339532&#45;&#45;339536 -->
<g id="edge23" class="edge"><title>339532&#45;&#45;339536</title>
<path fill="none" stroke="black" d="M225.662,-173.627C229.277,-144.712 240.622,-86.6703 275.047,-54 287.076,-42.5832 303.526,-34.255 317.765,-28.5938"/>
<text text-anchor="middle" x="260.047" y="-101.3" font-family="Times New Roman,serif" font-size="14.00">1.0</text>
</g>
<!-- 339534&#45;&#45;339536 -->
<g id="edge24" class="edge"><title>339534&#45;&#45;339536</title>
<path fill="none" stroke="black" d="M458.46,-88.1833C448.785,-77.5828 435.059,-63.8206 421.047,-54 407.235,-44.3202 390.332,-36.0248 376.27,-29.9428"/>
<text text-anchor="middle" x="449.047" y="-57.8" font-family="Times New Roman,serif" font-size="14.00">1.0</text>
</g>
<!-- 509763 -->
<g id="node11" class="node"><title>509763</title>
<ellipse fill="none" stroke="black" cx="702.047" cy="-540" rx="37.0935" ry="18"/>
<text text-anchor="middle" x="702.047" y="-536.3" font-family="Times New Roman,serif" font-size="14.00">509763</text>
</g>
<!-- 509764 -->
<g id="node12" class="node"><title>509764</title>
<ellipse fill="none" stroke="black" cx="648.047" cy="-453" rx="37.0935" ry="18"/>
<text text-anchor="middle" x="648.047" y="-449.3" font-family="Times New Roman,serif" font-size="14.00">509764</text>
</g>
<!-- 509763&#45;&#45;509764 -->
<g id="edge25" class="edge"><title>509763&#45;&#45;509764</title>
<path fill="none" stroke="black" d="M691.635,-522.611C682.073,-507.56 667.979,-485.374 658.426,-470.339"/>
<text text-anchor="middle" x="687.047" y="-492.8" font-family="Times New Roman,serif" font-size="14.00">1.0</text>
</g>
<!-- 509766 -->
<g id="node13" class="node"><title>509766</title>
<ellipse fill="none" stroke="black" cx="684.047" cy="-366" rx="37.0935" ry="18"/>
<text text-anchor="middle" x="684.047" y="-362.3" font-family="Times New Roman,serif" font-size="14.00">509766</text>
</g>
<!-- 509763&#45;&#45;509766 -->
<g id="edge26" class="edge"><title>509763&#45;&#45;509766</title>
<path fill="none" stroke="black" d="M701.66,-521.858C701.368,-512.198 700.87,-499.915 700.047,-489 697.118,-450.189 695.678,-440.512 690.047,-402 689.19,-396.144 688.133,-389.758 687.145,-384.063"/>
<text text-anchor="middle" x="707.047" y="-449.3" font-family="Times New Roman,serif" font-size="14.00">1.0</text>
</g>
<!-- 509764&#45;&#45;509766 -->
<g id="edge27" class="edge"><title>509764&#45;&#45;509766</title>
<path fill="none" stroke="black" d="M655.159,-435.207C661.47,-420.305 670.642,-398.649 676.949,-383.758"/>
<text text-anchor="middle" x="677.047" y="-405.8" font-family="Times New Roman,serif" font-size="14.00">1.0</text>
</g>
</g>
</svg>
