<svg width="1475px" height="639px"
 viewBox="0.00 0.00 1106.50 479.00" xmlns="http://www.w3.org/2000/svg" xmlns:xlink="http://www.w3.org/1999/xlink">
<g id="graph0" class="graph" transform="scale(1.000022500562514 1.000022500562514) rotate(0) translate(4 475)">
<title>G</title>
<polygon fill="white" stroke="none" points="-4,4 -4,-475 1102.5,-475 1102.5,4 -4,4"/>
<!-- 19025 -->
<g id="node1" class="node"><title>19025</title>
<ellipse fill="none" stroke="black" cx="32.4971" cy="-453" rx="32.4942" ry="18"/>
<text text-anchor="middle" x="32.4971" y="-449.3" font-family="Times New Roman,serif" font-size="14.00">19025</text>
</g>
<!-- 19026 -->
<g id="node2" class="node"><title>19026</title>
<ellipse fill="none" stroke="black" cx="32.4971" cy="-366" rx="32.4942" ry="18"/>
<text text-anchor="middle" x="32.4971" y="-362.3" font-family="Times New Roman,serif" font-size="14.00">19026</text>
</g>
<!-- 19025&#45;&#45;19026 -->
<g id="edge1" class="edge"><title>19025&#45;&#45;19026</title>
<path fill="none" stroke="black" d="M32.4971,-434.799C32.4971,-420.052 32.4971,-398.915 32.4971,-384.175"/>
<text text-anchor="middle" x="41.4971" y="-405.8" font-family="Times New Roman,serif" font-size="14.00">1.0</text>
</g>
<!-- 26598 -->
<g id="node3" class="node"><title>26598</title>
<ellipse fill="none" stroke="black" cx="32.4971" cy="-279" rx="32.4942" ry="18"/>
<text text-anchor="middle" x="32.4971" y="-275.3" font-family="Times New Roman,serif" font-size="14.00">26598</text>
</g>
<!-- 19026&#45;&#45;26598 -->
<g id="edge2" class="edge"><title>19026&#45;&#45;26598</title>
<path fill="none" stroke="black" d="M32.4971,-347.799C32.4971,-333.052 32.4971,-311.915 32.4971,-297.175"/>
<text text-anchor="middle" x="41.4971" y="-318.8" font-family="Times New Roman,serif" font-size="14.00">1.0</text>
</g>
<!-- 38761 -->
<g id="node4" class="node"><title>38761</title>
<ellipse fill="none" stroke="black" cx="115.497" cy="-453" rx="32.4942" ry="18"/>
<text text-anchor="middle" x="115.497" y="-449.3" font-family="Times New Roman,serif" font-size="14.00">38761</text>
</g>
<!-- 38762 -->
<g id="node5" class="node"><title>38762</title>
<ellipse fill="none" stroke="black" cx="115.497" cy="-366" rx="32.4942" ry="18"/>
<text text-anchor="middle" x="115.497" y="-362.3" font-family="Times New Roman,serif" font-size="14.00">38762</text>
</g>
<!-- 38761&#45;&#45;38762 -->
<g id="edge3" class="edge"><title>38761&#45;&#45;38762</title>
<path fill="none" stroke="black" d="M115.497,-434.799C115.497,-420.052 115.497,-398.915 115.497,-384.175"/>
<text text-anchor="middle" x="124.497" y="-405.8" font-family="Times New Roman,serif" font-size="14.00">1.0</text>
</g>
<!-- 221353 -->
<g id="node6" class="node"><title>221353</title>
<ellipse fill="none" stroke="black" cx="276.497" cy="-453" rx="37.0935" ry="18"/>
<text text-anchor="middle" x="276.497" y="-449.3" font-family="Times New Roman,serif" font-size="14.00">221353</text>
</g>
<!-- 221354 -->
<g id="node7" class="node"><title>221354</title>
<ellipse fill="none" stroke="black" cx="203.497" cy="-366" rx="37.0935" ry="18"/>
<text text-anchor="middle" x="203.497" y="-362.3" font-family="Times New Roman,serif" font-size="14.00">221354</text>
</g>
<!-- 221353&#45;&#45;221354 -->
<g id="edge4" class="edge"><title>221353&#45;&#45;221354</title>
<path fill="none" stroke="black" d="M261.658,-436.133C256.192,-430.194 249.995,-423.348 244.497,-417 234.796,-405.799 224.199,-392.855 216.208,-382.944"/>
<text text-anchor="middle" x="253.497" y="-405.8" font-family="Times New Roman,serif" font-size="14.00">1.0</text>
</g>
<!-- 221356 -->
<g id="node8" class="node"><title>221356</title>
<ellipse fill="none" stroke="black" cx="267.497" cy="-279" rx="37.0935" ry="18"/>
<text text-anchor="middle" x="267.497" y="-275.3" font-family="Times New Roman,serif" font-size="14.00">221356</text>
</g>
<!-- 221353&#45;&#45;221356 -->
<g id="edge5" class="edge"><title>221353&#45;&#45;221356</title>
<path fill="none" stroke="black" d="M275.601,-434.879C273.876,-401.91 270.112,-329.966 268.389,-297.052"/>
<text text-anchor="middle" x="282.497" y="-362.3" font-family="Times New Roman,serif" font-size="14.00">1.0</text>
</g>
<!-- 221358 -->
<g id="node9" class="node"><title>221358</title>
<ellipse fill="none" stroke="black" cx="267.497" cy="-192" rx="37.0935" ry="18"/>
<text text-anchor="middle" x="267.497" y="-188.3" font-family="Times New Roman,serif" font-size="14.00">221358</text>
</g>
<!-- 221353&#45;&#45;221358 -->
<g id="edge6" class="edge"><title>221353&#45;&#45;221358</title>
<path fill="none" stroke="black" d="M285.086,-435.361C301.226,-401.832 332.796,-323.973 313.497,-261 307.358,-240.968 293.102,-221.52 282.075,-208.59"/>
<text text-anchor="middle" x="328.497" y="-318.8" font-family="Times New Roman,serif" font-size="14.00">1.0</text>
</g>
<!-- 221354&#45;&#45;221356 -->
<g id="edge7" class="edge"><title>221354&#45;&#45;221356</title>
<path fill="none" stroke="black" d="M215.837,-348.611C227.243,-333.463 244.089,-311.089 255.412,-296.05"/>
<text text-anchor="middle" x="248.497" y="-318.8" font-family="Times New Roman,serif" font-size="14.00">1.0</text>
</g>
<!-- 221354&#45;&#45;221358 -->
<g id="edge8" class="edge"><title>221354&#45;&#45;221358</title>
<path fill="none" stroke="black" d="M199.799,-348.081C195.984,-326.892 192.049,-289.868 203.497,-261 212.283,-238.847 232.081,-219.714 247.348,-207.437"/>
<text text-anchor="middle" x="212.497" y="-275.3" font-family="Times New Roman,serif" font-size="14.00">1.0</text>
</g>
<!-- 221356&#45;&#45;221358 -->
<g id="edge9" class="edge"><title>221356&#45;&#45;221358</title>
<path fill="none" stroke="black" d="M267.497,-260.799C267.497,-246.052 267.497,-224.915 267.497,-210.175"/>
<text text-anchor="middle" x="276.497" y="-231.8" font-family="Times New Roman,serif" font-size="14.00">1.0</text>
</g>
<!-- 322881 -->
<g id="node10" class="node"><title>322881</title>
<ellipse fill="none" stroke="black" cx="470.497" cy="-453" rx="37.0935" ry="18"/>
<text text-anchor="middle" x="470.497" y="-449.3" font-family="Times New Roman,serif" font-size="14.00">322881</text>
</g>
<!-- 322882 -->
<g id="node11" class="node"><title>322882</title>
<ellipse fill="none" stroke="black" cx="543.497" cy="-366" rx="37.0935" ry="18"/>
<text text-anchor="middle" x="543.497" y="-362.3" font-family="Times New Roman,serif" font-size="14.00">322882</text>
</g>
<!-- 322881&#45;&#45;322882 -->
<g id="edge10" class="edge"><title>322881&#45;&#45;322882</title>
<path fill="none" stroke="black" d="M484.228,-436.012C497.279,-420.815 516.797,-398.089 529.828,-382.916"/>
<text text-anchor="middle" x="520.497" y="-405.8" font-family="Times New Roman,serif" font-size="14.00">1.0</text>
</g>
<!-- 322884 -->
<g id="node12" class="node"><title>322884</title>
<ellipse fill="none" stroke="black" cx="543.497" cy="-279" rx="37.0935" ry="18"/>
<text text-anchor="middle" x="543.497" y="-275.3" font-family="Times New Roman,serif" font-size="14.00">322884</text>
</g>
<!-- 322881&#45;&#45;322884 -->
<g id="edge11" class="edge"><title>322881&#45;&#45;322884</title>
<path fill="none" stroke="black" d="M468.656,-434.947C467.08,-413.62 466.766,-376.453 479.497,-348 489.296,-326.099 509.156,-306.793 524.168,-294.402"/>
<text text-anchor="middle" x="488.497" y="-362.3" font-family="Times New Roman,serif" font-size="14.00">1.0</text>
</g>
<!-- 322886 -->
<g id="node13" class="node"><title>322886</title>
<ellipse fill="none" stroke="black" cx="457.497" cy="-192" rx="37.0935" ry="18"/>
<text text-anchor="middle" x="457.497" y="-188.3" font-family="Times New Roman,serif" font-size="14.00">322886</text>
</g>
<!-- 322881&#45;&#45;322886 -->
<g id="edge12" class="edge"><title>322881&#45;&#45;322886</title>
<path fill="none" stroke="black" d="M467.142,-434.97C466.137,-429.277 465.134,-422.884 464.497,-417 456.163,-340.035 458.275,-320.395 456.497,-243 456.246,-232.063 456.484,-219.78 456.791,-210.125"/>
<text text-anchor="middle" x="467.497" y="-318.8" font-family="Times New Roman,serif" font-size="14.00">1.0</text>
</g>
<!-- 322888 -->
<g id="node14" class="node"><title>322888</title>
<ellipse fill="none" stroke="black" cx="511.497" cy="-105" rx="37.0935" ry="18"/>
<text text-anchor="middle" x="511.497" y="-101.3" font-family="Times New Roman,serif" font-size="14.00">322888</text>
</g>
<!-- 322881&#45;&#45;322888 -->
<g id="edge13" class="edge"><title>322881&#45;&#45;322888</title>
<path fill="none" stroke="black" d="M442.894,-440.531C415.795,-427.213 378.497,-402.446 378.497,-367 378.497,-367 378.497,-367 378.497,-191 378.497,-166.2 444.983,-133.978 483.939,-117.226"/>
<text text-anchor="middle" x="387.497" y="-275.3" font-family="Times New Roman,serif" font-size="14.00">1.0</text>
</g>
<!-- 322890 -->
<g id="node15" class="node"><title>322890</title>
<ellipse fill="none" stroke="black" cx="576.497" cy="-18" rx="37.0935" ry="18"/>
<text text-anchor="middle" x="576.497" y="-14.3" font-family="Times New Roman,serif" font-size="14.00">322890</text>
</g>
<!-- 322881&#45;&#45;322890 -->
<g id="edge14" class="edge"><title>322881&#45;&#45;322890</title>
<path fill="none" stroke="black" d="M505.574,-446.85C571.316,-436.205 706.497,-409.188 706.497,-367 706.497,-367 706.497,-367 706.497,-104 706.497,-58.0235 648.832,-35.5851 610.314,-25.7254"/>
<text text-anchor="middle" x="715.497" y="-231.8" font-family="Times New Roman,serif" font-size="14.00">1.0</text>
</g>
<!-- 322882&#45;&#45;322884 -->
<g id="edge15" class="edge"><title>322882&#45;&#45;322884</title>
<path fill="none" stroke="black" d="M543.497,-347.799C543.497,-333.052 543.497,-311.915 543.497,-297.175"/>
<text text-anchor="middle" x="552.497" y="-318.8" font-family="Times New Roman,serif" font-size="14.00">1.0</text>
</g>
<!-- 322882&#45;&#45;322886 -->
<g id="edge16" class="edge"><title>322882&#45;&#45;322886</title>
<path fill="none" stroke="black" d="M524.872,-350.257C510.268,-337.668 490.615,-318.262 479.497,-297 464.789,-268.871 459.914,-231.593 458.298,-210.158"/>
<text text-anchor="middle" x="488.497" y="-275.3" font-family="Times New Roman,serif" font-size="14.00">1.0</text>
</g>
<!-- 322882&#45;&#45;322888 -->
<g id="edge17" class="edge"><title>322882&#45;&#45;322888</title>
<path fill="none" stroke="black" d="M557.729,-349.298C568.561,-336.305 582.723,-316.827 589.497,-297 611.952,-231.282 637.375,-198.547 598.497,-141 586.922,-123.867 565.42,-115.119 546.69,-110.654"/>
<text text-anchor="middle" x="623.497" y="-231.8" font-family="Times New Roman,serif" font-size="14.00">1.0</text>
</g>
<!-- 322882&#45;&#45;322890 -->
<g id="edge18" class="edge"><title>322882&#45;&#45;322890</title>
<path fill="none" stroke="black" d="M575.468,-356.726C610.109,-345.605 660.497,-322.18 660.497,-280 660.497,-280 660.497,-280 660.497,-104 660.497,-70.3897 626.859,-45.2791 602.156,-31.37"/>
<text text-anchor="middle" x="669.497" y="-188.3" font-family="Times New Roman,serif" font-size="14.00">1.0</text>
</g>
<!-- 322884&#45;&#45;322886 -->
<g id="edge19" class="edge"><title>322884&#45;&#45;322886</title>
<path fill="none" stroke="black" d="M524.562,-263.261C517.146,-257.225 508.707,-250.018 501.497,-243 490.394,-232.192 478.859,-218.999 470.387,-208.88"/>
<text text-anchor="middle" x="510.497" y="-231.8" font-family="Times New Roman,serif" font-size="14.00">1.0</text>
</g>
<!-- 322884&#45;&#45;322888 -->
<g id="edge20" class="edge"><title>322884&#45;&#45;322888</title>
<path fill="none" stroke="black" d="M540.312,-260.879C534.178,-227.91 520.793,-155.966 514.67,-123.052"/>
<text text-anchor="middle" x="540.497" y="-188.3" font-family="Times New Roman,serif" font-size="14.00">1.0</text>
</g>
<!-- 322884&#45;&#45;322890 -->
<g id="edge21" class="edge"><title>322884&#45;&#45;322890</title>
<path fill="none" stroke="black" d="M546.595,-260.937C547.583,-255.242 548.641,-248.856 549.497,-243 551.635,-228.381 551.725,-224.667 553.497,-210 561.249,-145.839 570.423,-69.5486 574.44,-36.1217"/>
<text text-anchor="middle" x="571.497" y="-144.8" font-family="Times New Roman,serif" font-size="14.00">1.0</text>
</g>
<!-- 322886&#45;&#45;322888 -->
<g id="edge22" class="edge"><title>322886&#45;&#45;322888</title>
<path fill="none" stroke="black" d="M467.909,-174.611C477.471,-159.56 491.565,-137.374 501.117,-122.339"/>
<text text-anchor="middle" x="497.497" y="-144.8" font-family="Times New Roman,serif" font-size="14.00">1.0</text>
</g>
<!-- 322886&#45;&#45;322890 -->
<g id="edge23" class="edge"><title>322886&#45;&#45;322890</title>
<path fill="none" stroke="black" d="M450.058,-174.143C441.672,-152.358 431.193,-114.024 447.497,-87 468.16,-52.7496 512.456,-34.8745 543.342,-26.208"/>
<text text-anchor="middle" x="456.497" y="-101.3" font-family="Times New Roman,serif" font-size="14.00">1.0</text>
</g>
<!-- 322888&#45;&#45;322890 -->
<g id="edge24" class="edge"><title>322888&#45;&#45;322890</title>
<path fill="none" stroke="black" d="M521.57,-87.3365C527.806,-77.3918 536.186,-64.6648 544.497,-54 549.659,-47.3761 555.788,-40.4743 561.293,-34.5675"/>
<text text-anchor="middle" x="553.497" y="-57.8" font-family="Times New Roman,serif" font-size="14.00">1.0</text>
</g>
<!-- 323521 -->
<g id="node16" class="node"><title>323521</title>
<ellipse fill="none" stroke="black" cx="844.497" cy="-453" rx="37.0935" ry="18"/>
<text text-anchor="middle" x="844.497" y="-449.3" font-family="Times New Roman,serif" font-size="14.00">323521</text>
</g>
<!-- 323522 -->
<g id="node17" class="node"><title>323522</title>
<ellipse fill="none" stroke="black" cx="917.497" cy="-366" rx="37.0935" ry="18"/>
<text text-anchor="middle" x="917.497" y="-362.3" font-family="Times New Roman,serif" font-size="14.00">323522</text>
</g>
<!-- 323521&#45;&#45;323522 -->
<g id="edge25" class="edge"><title>323521&#45;&#45;323522</title>
<path fill="none" stroke="black" d="M858.228,-436.012C871.279,-420.815 890.797,-398.089 903.828,-382.916"/>
<text text-anchor="middle" x="894.497" y="-405.8" font-family="Times New Roman,serif" font-size="14.00">1.0</text>
</g>
<!-- 323524 -->
<g id="node18" class="node"><title>323524</title>
<ellipse fill="none" stroke="black" cx="917.497" cy="-279" rx="37.0935" ry="18"/>
<text text-anchor="middle" x="917.497" y="-275.3" font-family="Times New Roman,serif" font-size="14.00">323524</text>
</g>
<!-- 323521&#45;&#45;323524 -->
<g id="edge26" class="edge"><title>323521&#45;&#45;323524</title>
<path fill="none" stroke="black" d="M842.656,-434.947C841.08,-413.62 840.766,-376.453 853.497,-348 863.296,-326.099 883.156,-306.793 898.168,-294.402"/>
<text text-anchor="middle" x="862.497" y="-362.3" font-family="Times New Roman,serif" font-size="14.00">1.0</text>
</g>
<!-- 323526 -->
<g id="node19" class="node"><title>323526</title>
<ellipse fill="none" stroke="black" cx="831.497" cy="-192" rx="37.0935" ry="18"/>
<text text-anchor="middle" x="831.497" y="-188.3" font-family="Times New Roman,serif" font-size="14.00">323526</text>
</g>
<!-- 323521&#45;&#45;323526 -->
<g id="edge27" class="edge"><title>323521&#45;&#45;323526</title>
<path fill="none" stroke="black" d="M841.142,-434.97C840.137,-429.277 839.134,-422.884 838.497,-417 830.163,-340.035 832.275,-320.395 830.497,-243 830.246,-232.063 830.484,-219.78 830.791,-210.125"/>
<text text-anchor="middle" x="841.497" y="-318.8" font-family="Times New Roman,serif" font-size="14.00">1.0</text>
</g>
<!-- 323528 -->
<g id="node20" class="node"><title>323528</title>
<ellipse fill="none" stroke="black" cx="885.497" cy="-105" rx="37.0935" ry="18"/>
<text text-anchor="middle" x="885.497" y="-101.3" font-family="Times New Roman,serif" font-size="14.00">323528</text>
</g>
<!-- 323521&#45;&#45;323528 -->
<g id="edge28" class="edge"><title>323521&#45;&#45;323528</title>
<path fill="none" stroke="black" d="M816.894,-440.531C789.795,-427.213 752.497,-402.446 752.497,-367 752.497,-367 752.497,-367 752.497,-191 752.497,-166.2 818.983,-133.978 857.939,-117.226"/>
<text text-anchor="middle" x="761.497" y="-275.3" font-family="Times New Roman,serif" font-size="14.00">1.0</text>
</g>
<!-- 323530 -->
<g id="node21" class="node"><title>323530</title>
<ellipse fill="none" stroke="black" cx="950.497" cy="-18" rx="37.0935" ry="18"/>
<text text-anchor="middle" x="950.497" y="-14.3" font-family="Times New Roman,serif" font-size="14.00">323530</text>
</g>
<!-- 323521&#45;&#45;323530 -->
<g id="edge29" class="edge"><title>323521&#45;&#45;323530</title>
<path fill="none" stroke="black" d="M879.574,-446.85C945.316,-436.205 1080.5,-409.188 1080.5,-367 1080.5,-367 1080.5,-367 1080.5,-104 1080.5,-58.0235 1022.83,-35.5851 984.314,-25.7254"/>
<text text-anchor="middle" x="1089.5" y="-231.8" font-family="Times New Roman,serif" font-size="14.00">1.0</text>
</g>
<!-- 323522&#45;&#45;323524 -->
<g id="edge30" class="edge"><title>323522&#45;&#45;323524</title>
<path fill="none" stroke="black" d="M917.497,-347.799C917.497,-333.052 917.497,-311.915 917.497,-297.175"/>
<text text-anchor="middle" x="926.497" y="-318.8" font-family="Times New Roman,serif" font-size="14.00">1.0</text>
</g>
<!-- 323522&#45;&#45;323526 -->
<g id="edge31" class="edge"><title>323522&#45;&#45;323526</title>
<path fill="none" stroke="black" d="M898.872,-350.257C884.268,-337.668 864.615,-318.262 853.497,-297 838.789,-268.871 833.914,-231.593 832.298,-210.158"/>
<text text-anchor="middle" x="862.497" y="-275.3" font-family="Times New Roman,serif" font-size="14.00">1.0</text>
</g>
<!-- 323522&#45;&#45;323528 -->
<g id="edge32" class="edge"><title>323522&#45;&#45;323528</title>
<path fill="none" stroke="black" d="M931.729,-349.298C942.561,-336.305 956.723,-316.827 963.497,-297 985.952,-231.282 1011.38,-198.547 972.497,-141 960.922,-123.867 939.42,-115.119 920.69,-110.654"/>
<text text-anchor="middle" x="997.497" y="-231.8" font-family="Times New Roman,serif" font-size="14.00">1.0</text>
</g>
<!-- 323522&#45;&#45;323530 -->
<g id="edge33" class="edge"><title>323522&#45;&#45;323530</title>
<path fill="none" stroke="black" d="M949.468,-356.726C984.109,-345.605 1034.5,-322.18 1034.5,-280 1034.5,-280 1034.5,-280 1034.5,-104 1034.5,-70.3897 1000.86,-45.2791 976.156,-31.37"/>
<text text-anchor="middle" x="1043.5" y="-188.3" font-family="Times New Roman,serif" font-size="14.00">1.0</text>
</g>
<!-- 323524&#45;&#45;323526 -->
<g id="edge34" class="edge"><title>323524&#45;&#45;323526</title>
<path fill="none" stroke="black" d="M898.562,-263.261C891.146,-257.225 882.707,-250.018 875.497,-243 864.394,-232.192 852.859,-218.999 844.387,-208.88"/>
<text text-anchor="middle" x="884.497" y="-231.8" font-family="Times New Roman,serif" font-size="14.00">1.0</text>
</g>
<!-- 323524&#45;&#45;323528 -->
<g id="edge35" class="edge"><title>323524&#45;&#45;323528</title>
<path fill="none" stroke="black" d="M914.312,-260.879C908.178,-227.91 894.793,-155.966 888.67,-123.052"/>
<text text-anchor="middle" x="914.497" y="-188.3" font-family="Times New Roman,serif" font-size="14.00">1.0</text>
</g>
<!-- 323524&#45;&#45;323530 -->
<g id="edge36" class="edge"><title>323524&#45;&#45;323530</title>
<path fill="none" stroke="black" d="M920.595,-260.937C921.583,-255.242 922.641,-248.856 923.497,-243 925.635,-228.381 925.725,-224.667 927.497,-210 935.249,-145.839 944.423,-69.5486 948.44,-36.1217"/>
<text text-anchor="middle" x="945.497" y="-144.8" font-family="Times New Roman,serif" font-size="14.00">1.0</text>
</g>
<!-- 323526&#45;&#45;323528 -->
<g id="edge37" class="edge"><title>323526&#45;&#45;323528</title>
<path fill="none" stroke="black" d="M841.909,-174.611C851.471,-159.56 865.565,-137.374 875.117,-122.339"/>
<text text-anchor="middle" x="871.497" y="-144.8" font-family="Times New Roman,serif" font-size="14.00">1.0</text>
</g>
<!-- 323526&#45;&#45;323530 -->
<g id="edge38" class="edge"><title>323526&#45;&#45;323530</title>
<path fill="none" stroke="black" d="M824.058,-174.143C815.672,-152.358 805.193,-114.024 821.497,-87 842.16,-52.7496 886.456,-34.8745 917.342,-26.208"/>
<text text-anchor="middle" x="830.497" y="-101.3" font-family="Times New Roman,serif" font-size="14.00">1.0</text>
</g>
<!-- 323528&#45;&#45;323530 -->
<g id="edge39" class="edge"><title>323528&#45;&#45;323530</title>
<path fill="none" stroke="black" d="M895.57,-87.3365C901.806,-77.3918 910.186,-64.6648 918.497,-54 923.659,-47.3761 929.788,-40.4743 935.293,-34.5675"/>
<text text-anchor="middle" x="927.497" y="-57.8" font-family="Times New Roman,serif" font-size="14.00">1.0</text>
</g>
</g>
</svg>
