<svg width="2395px" height="755px"
 viewBox="0.00 0.00 1796.50 566.00" xmlns="http://www.w3.org/2000/svg" xmlns:xlink="http://www.w3.org/1999/xlink">
<g id="graph0" class="graph" transform="scale(1.000022500562514 1.000022500562514) rotate(0) translate(4 562)">
<title>G</title>
<polygon fill="white" stroke="none" points="-4,4 -4,-562 1792.5,-562 1792.5,4 -4,4"/>
<!-- 23275 -->
<g id="node1" class="node"><title>23275</title>
<ellipse fill="none" stroke="black" cx="32.4971" cy="-540" rx="32.4942" ry="18"/>
<text text-anchor="middle" x="32.4971" y="-536.3" font-family="Times New Roman,serif" font-size="14.00">23275</text>
</g>
<!-- 23276 -->
<g id="node2" class="node"><title>23276</title>
<ellipse fill="none" stroke="black" cx="32.4971" cy="-453" rx="32.4942" ry="18"/>
<text text-anchor="middle" x="32.4971" y="-449.3" font-family="Times New Roman,serif" font-size="14.00">23276</text>
</g>
<!-- 23275&#45;&#45;23276 -->
<g id="edge1" class="edge"><title>23275&#45;&#45;23276</title>
<path fill="none" stroke="black" d="M32.4971,-521.799C32.4971,-507.052 32.4971,-485.915 32.4971,-471.175"/>
<text text-anchor="middle" x="41.4971" y="-492.8" font-family="Times New Roman,serif" font-size="14.00">1.0</text>
</g>
<!-- 141589 -->
<g id="node3" class="node"><title>141589</title>
<ellipse fill="none" stroke="black" cx="177.497" cy="-540" rx="37.0935" ry="18"/>
<text text-anchor="middle" x="177.497" y="-536.3" font-family="Times New Roman,serif" font-size="14.00">141589</text>
</g>
<!-- 141590 -->
<g id="node4" class="node"><title>141590</title>
<ellipse fill="none" stroke="black" cx="120.497" cy="-453" rx="37.0935" ry="18"/>
<text text-anchor="middle" x="120.497" y="-449.3" font-family="Times New Roman,serif" font-size="14.00">141590</text>
</g>
<!-- 141589&#45;&#45;141590 -->
<g id="edge2" class="edge"><title>141589&#45;&#45;141590</title>
<path fill="none" stroke="black" d="M166.507,-522.611C156.414,-507.56 141.536,-485.374 131.454,-470.339"/>
<text text-anchor="middle" x="161.497" y="-492.8" font-family="Times New Roman,serif" font-size="14.00">1.0</text>
</g>
<!-- 141592 -->
<g id="node5" class="node"><title>141592</title>
<ellipse fill="none" stroke="black" cx="153.497" cy="-366" rx="37.0935" ry="18"/>
<text text-anchor="middle" x="153.497" y="-362.3" font-family="Times New Roman,serif" font-size="14.00">141592</text>
</g>
<!-- 141589&#45;&#45;141592 -->
<g id="edge3" class="edge"><title>141589&#45;&#45;141592</title>
<path fill="none" stroke="black" d="M176.838,-521.845C176.374,-512.181 175.629,-499.899 174.497,-489 170.458,-450.113 168.786,-440.41 161.497,-402 160.381,-396.121 158.978,-389.73 157.658,-384.037"/>
<text text-anchor="middle" x="182.497" y="-449.3" font-family="Times New Roman,serif" font-size="14.00">1.0</text>
</g>
<!-- 141590&#45;&#45;141592 -->
<g id="edge4" class="edge"><title>141590&#45;&#45;141592</title>
<path fill="none" stroke="black" d="M127.017,-435.207C132.802,-420.305 141.21,-398.649 146.991,-383.758"/>
<text text-anchor="middle" x="148.497" y="-405.8" font-family="Times New Roman,serif" font-size="14.00">1.0</text>
</g>
<!-- 183761 -->
<g id="node6" class="node"><title>183761</title>
<ellipse fill="none" stroke="black" cx="312.497" cy="-540" rx="37.0935" ry="18"/>
<text text-anchor="middle" x="312.497" y="-536.3" font-family="Times New Roman,serif" font-size="14.00">183761</text>
</g>
<!-- 183762 -->
<g id="node7" class="node"><title>183762</title>
<ellipse fill="none" stroke="black" cx="358.497" cy="-453" rx="37.0935" ry="18"/>
<text text-anchor="middle" x="358.497" y="-449.3" font-family="Times New Roman,serif" font-size="14.00">183762</text>
</g>
<!-- 183761&#45;&#45;183762 -->
<g id="edge5" class="edge"><title>183761&#45;&#45;183762</title>
<path fill="none" stroke="black" d="M321.585,-522.207C329.65,-507.305 341.369,-485.649 349.428,-470.758"/>
<text text-anchor="middle" x="347.497" y="-492.8" font-family="Times New Roman,serif" font-size="14.00">1.0</text>
</g>
<!-- 183764 -->
<g id="node8" class="node"><title>183764</title>
<ellipse fill="none" stroke="black" cx="358.497" cy="-366" rx="37.0935" ry="18"/>
<text text-anchor="middle" x="358.497" y="-362.3" font-family="Times New Roman,serif" font-size="14.00">183764</text>
</g>
<!-- 183761&#45;&#45;183764 -->
<g id="edge6" class="edge"><title>183761&#45;&#45;183764</title>
<path fill="none" stroke="black" d="M304.202,-522.219C294.998,-501.174 282.878,-464.297 294.497,-435 303.283,-412.847 323.081,-393.714 338.348,-381.437"/>
<text text-anchor="middle" x="303.497" y="-449.3" font-family="Times New Roman,serif" font-size="14.00">1.0</text>
</g>
<!-- 183766 -->
<g id="node9" class="node"><title>183766</title>
<ellipse fill="none" stroke="black" cx="426.497" cy="-279" rx="37.0935" ry="18"/>
<text text-anchor="middle" x="426.497" y="-275.3" font-family="Times New Roman,serif" font-size="14.00">183766</text>
</g>
<!-- 183761&#45;&#45;183766 -->
<g id="edge7" class="edge"><title>183761&#45;&#45;183766</title>
<path fill="none" stroke="black" d="M337.194,-526.207C357.799,-514.393 386.59,-495.058 404.497,-471 438.225,-425.688 439.057,-404.428 436.497,-348 435.83,-333.288 435.611,-329.575 433.497,-315 432.643,-309.113 431.445,-302.719 430.282,-297.027"/>
<text text-anchor="middle" x="445.497" y="-405.8" font-family="Times New Roman,serif" font-size="14.00">1.0</text>
</g>
<!-- 183768 -->
<g id="node10" class="node"><title>183768</title>
<ellipse fill="none" stroke="black" cx="319.497" cy="-192" rx="37.0935" ry="18"/>
<text text-anchor="middle" x="319.497" y="-188.3" font-family="Times New Roman,serif" font-size="14.00">183768</text>
</g>
<!-- 183761&#45;&#45;183768 -->
<g id="edge8" class="edge"><title>183761&#45;&#45;183768</title>
<path fill="none" stroke="black" d="M289.8,-525.51C268.37,-510.863 239.497,-485.318 239.497,-454 239.497,-454 239.497,-454 239.497,-278 239.497,-245.171 271.533,-219.853 295.06,-205.686"/>
<text text-anchor="middle" x="248.497" y="-362.3" font-family="Times New Roman,serif" font-size="14.00">1.0</text>
</g>
<!-- 183762&#45;&#45;183764 -->
<g id="edge9" class="edge"><title>183762&#45;&#45;183764</title>
<path fill="none" stroke="black" d="M358.497,-434.799C358.497,-420.052 358.497,-398.915 358.497,-384.175"/>
<text text-anchor="middle" x="367.497" y="-405.8" font-family="Times New Roman,serif" font-size="14.00">1.0</text>
</g>
<!-- 183762&#45;&#45;183766 -->
<g id="edge10" class="edge"><title>183762&#45;&#45;183766</title>
<path fill="none" stroke="black" d="M371.814,-435.94C382.128,-422.745 396.04,-403.169 404.497,-384 414.461,-361.415 412.42,-354.158 417.497,-330 419.783,-319.124 421.999,-306.842 423.66,-297.172"/>
<text text-anchor="middle" x="423.497" y="-362.3" font-family="Times New Roman,serif" font-size="14.00">1.0</text>
</g>
<!-- 183762&#45;&#45;183768 -->
<g id="edge11" class="edge"><title>183762&#45;&#45;183768</title>
<path fill="none" stroke="black" d="M343.92,-436.41C332.893,-423.48 318.636,-404.032 312.497,-384 293.586,-322.294 307.452,-244.099 315.205,-210.089"/>
<text text-anchor="middle" x="312.497" y="-318.8" font-family="Times New Roman,serif" font-size="14.00">1.0</text>
</g>
<!-- 183764&#45;&#45;183766 -->
<g id="edge12" class="edge"><title>183764&#45;&#45;183766</title>
<path fill="none" stroke="black" d="M371.287,-349.012C383.445,-333.815 401.626,-311.089 413.764,-295.916"/>
<text text-anchor="middle" x="406.497" y="-318.8" font-family="Times New Roman,serif" font-size="14.00">1.0</text>
</g>
<!-- 183764&#45;&#45;183768 -->
<g id="edge13" class="edge"><title>183764&#45;&#45;183768</title>
<path fill="none" stroke="black" d="M354.615,-347.879C347.14,-314.91 330.827,-242.966 323.363,-210.052"/>
<text text-anchor="middle" x="352.497" y="-275.3" font-family="Times New Roman,serif" font-size="14.00">1.0</text>
</g>
<!-- 183766&#45;&#45;183768 -->
<g id="edge14" class="edge"><title>183766&#45;&#45;183768</title>
<path fill="none" stroke="black" d="M407.859,-263.194C388.22,-247.593 357.48,-223.173 337.922,-207.636"/>
<text text-anchor="middle" x="388.497" y="-231.8" font-family="Times New Roman,serif" font-size="14.00">1.0</text>
</g>
<!-- 422121 -->
<g id="node11" class="node"><title>422121</title>
<ellipse fill="none" stroke="black" cx="588.497" cy="-540" rx="37.0935" ry="18"/>
<text text-anchor="middle" x="588.497" y="-536.3" font-family="Times New Roman,serif" font-size="14.00">422121</text>
</g>
<!-- 422122 -->
<g id="node12" class="node"><title>422122</title>
<ellipse fill="none" stroke="black" cx="542.497" cy="-453" rx="37.0935" ry="18"/>
<text text-anchor="middle" x="542.497" y="-449.3" font-family="Times New Roman,serif" font-size="14.00">422122</text>
</g>
<!-- 422121&#45;&#45;422122 -->
<g id="edge15" class="edge"><title>422121&#45;&#45;422122</title>
<path fill="none" stroke="black" d="M579.409,-522.207C571.345,-507.305 559.625,-485.649 551.566,-470.758"/>
<text text-anchor="middle" x="577.497" y="-492.8" font-family="Times New Roman,serif" font-size="14.00">1.0</text>
</g>
<!-- 422124 -->
<g id="node13" class="node"><title>422124</title>
<ellipse fill="none" stroke="black" cx="575.497" cy="-366" rx="37.0935" ry="18"/>
<text text-anchor="middle" x="575.497" y="-362.3" font-family="Times New Roman,serif" font-size="14.00">422124</text>
</g>
<!-- 422121&#45;&#45;422124 -->
<g id="edge16" class="edge"><title>422121&#45;&#45;422124</title>
<path fill="none" stroke="black" d="M589.669,-521.919C590.007,-516.222 590.33,-509.84 590.497,-504 591.794,-458.579 591.969,-446.643 583.497,-402 582.381,-396.121 580.978,-389.73 579.658,-384.037"/>
<text text-anchor="middle" x="600.497" y="-449.3" font-family="Times New Roman,serif" font-size="14.00">1.0</text>
</g>
<!-- 422122&#45;&#45;422124 -->
<g id="edge17" class="edge"><title>422122&#45;&#45;422124</title>
<path fill="none" stroke="black" d="M549.017,-435.207C554.802,-420.305 563.21,-398.649 568.991,-383.758"/>
<text text-anchor="middle" x="570.497" y="-405.8" font-family="Times New Roman,serif" font-size="14.00">1.0</text>
</g>
<!-- 462979 -->
<g id="node14" class="node"><title>462979</title>
<ellipse fill="none" stroke="black" cx="967.497" cy="-540" rx="37.0935" ry="18"/>
<text text-anchor="middle" x="967.497" y="-536.3" font-family="Times New Roman,serif" font-size="14.00">462979</text>
</g>
<!-- 462980 -->
<g id="node15" class="node"><title>462980</title>
<ellipse fill="none" stroke="black" cx="859.497" cy="-453" rx="37.0935" ry="18"/>
<text text-anchor="middle" x="859.497" y="-449.3" font-family="Times New Roman,serif" font-size="14.00">462980</text>
</g>
<!-- 462979&#45;&#45;462980 -->
<g id="edge18" class="edge"><title>462979&#45;&#45;462980</title>
<path fill="none" stroke="black" d="M948.685,-524.194C928.862,-508.593 897.835,-484.173 878.094,-468.636"/>
<text text-anchor="middle" x="929.497" y="-492.8" font-family="Times New Roman,serif" font-size="14.00">1.0</text>
</g>
<!-- 462982 -->
<g id="node16" class="node"><title>462982</title>
<ellipse fill="none" stroke="black" cx="918.497" cy="-366" rx="37.0935" ry="18"/>
<text text-anchor="middle" x="918.497" y="-362.3" font-family="Times New Roman,serif" font-size="14.00">462982</text>
</g>
<!-- 462979&#45;&#45;462982 -->
<g id="edge19" class="edge"><title>462979&#45;&#45;462982</title>
<path fill="none" stroke="black" d="M962.62,-521.879C953.227,-488.91 932.732,-416.966 923.355,-384.052"/>
<text text-anchor="middle" x="957.497" y="-449.3" font-family="Times New Roman,serif" font-size="14.00">1.0</text>
</g>
<!-- 462984 -->
<g id="node17" class="node"><title>462984</title>
<ellipse fill="none" stroke="black" cx="808.497" cy="-279" rx="37.0935" ry="18"/>
<text text-anchor="middle" x="808.497" y="-275.3" font-family="Times New Roman,serif" font-size="14.00">462984</text>
</g>
<!-- 462979&#45;&#45;462984 -->
<g id="edge20" class="edge"><title>462979&#45;&#45;462984</title>
<path fill="none" stroke="black" d="M933.622,-532.51C898.816,-524.131 845.351,-506.226 813.497,-471 765.015,-417.385 737.226,-380.641 767.497,-315 771.416,-306.501 778.53,-299.302 785.744,-293.683"/>
<text text-anchor="middle" x="779.497" y="-405.8" font-family="Times New Roman,serif" font-size="14.00">1.0</text>
</g>
<!-- 462986 -->
<g id="node18" class="node"><title>462986</title>
<ellipse fill="none" stroke="black" cx="744.497" cy="-192" rx="37.0935" ry="18"/>
<text text-anchor="middle" x="744.497" y="-188.3" font-family="Times New Roman,serif" font-size="14.00">462986</text>
</g>
<!-- 462979&#45;&#45;462986 -->
<g id="edge21" class="edge"><title>462979&#45;&#45;462986</title>
<path fill="none" stroke="black" d="M931.419,-535.748C889.197,-529.995 820.038,-514.186 780.497,-471 750.819,-438.586 744.27,-426.607 733.497,-384 717.661,-321.369 732.238,-243.654 740.156,-209.929"/>
<text text-anchor="middle" x="742.497" y="-362.3" font-family="Times New Roman,serif" font-size="14.00">1.0</text>
</g>
<!-- 462988 -->
<g id="node19" class="node"><title>462988</title>
<ellipse fill="none" stroke="black" cx="992.497" cy="-105" rx="37.0935" ry="18"/>
<text text-anchor="middle" x="992.497" y="-101.3" font-family="Times New Roman,serif" font-size="14.00">462988</text>
</g>
<!-- 462979&#45;&#45;462988 -->
<g id="edge22" class="edge"><title>462979&#45;&#45;462988</title>
<path fill="none" stroke="black" d="M994.5,-527.367C1021.01,-513.913 1057.5,-489.032 1057.5,-454 1057.5,-454 1057.5,-454 1057.5,-191 1057.5,-161.276 1032.11,-135.504 1013.06,-120.355"/>
<text text-anchor="middle" x="1066.5" y="-318.8" font-family="Times New Roman,serif" font-size="14.00">1.0</text>
</g>
<!-- 462990 -->
<g id="node20" class="node"><title>462990</title>
<ellipse fill="none" stroke="black" cx="868.497" cy="-18" rx="37.0935" ry="18"/>
<text text-anchor="middle" x="868.497" y="-14.3" font-family="Times New Roman,serif" font-size="14.00">462990</text>
</g>
<!-- 462979&#45;&#45;462990 -->
<g id="edge23" class="edge"><title>462979&#45;&#45;462990</title>
<path fill="none" stroke="black" d="M1001.82,-533.019C1042.1,-523.799 1103.5,-501.891 1103.5,-454 1103.5,-454 1103.5,-454 1103.5,-104 1103.5,-61.9704 968.889,-34.8718 903.425,-24.1781"/>
<text text-anchor="middle" x="1112.5" y="-275.3" font-family="Times New Roman,serif" font-size="14.00">1.0</text>
</g>
<!-- 462980&#45;&#45;462982 -->
<g id="edge24" class="edge"><title>462980&#45;&#45;462982</title>
<path fill="none" stroke="black" d="M870.873,-435.611C881.32,-420.56 896.72,-398.374 907.156,-383.339"/>
<text text-anchor="middle" x="902.497" y="-405.8" font-family="Times New Roman,serif" font-size="14.00">1.0</text>
</g>
<!-- 462980&#45;&#45;462984 -->
<g id="edge25" class="edge"><title>462980&#45;&#45;462984</title>
<path fill="none" stroke="black" d="M854.421,-434.879C844.645,-401.91 823.313,-329.966 813.553,-297.052"/>
<text text-anchor="middle" x="848.497" y="-362.3" font-family="Times New Roman,serif" font-size="14.00">1.0</text>
</g>
<!-- 462980&#45;&#45;462986 -->
<g id="edge26" class="edge"><title>462980&#45;&#45;462986</title>
<path fill="none" stroke="black" d="M846.437,-435.941C825.237,-408.983 783.589,-352.15 762.497,-297 751.304,-267.733 747.033,-231.162 745.431,-210.103"/>
<text text-anchor="middle" x="786.497" y="-318.8" font-family="Times New Roman,serif" font-size="14.00">1.0</text>
</g>
<!-- 462980&#45;&#45;462988 -->
<g id="edge27" class="edge"><title>462980&#45;&#45;462988</title>
<path fill="none" stroke="black" d="M887.737,-441.178C911.955,-430.399 945.81,-411.476 964.497,-384 1021.1,-300.771 1004.34,-169.822 995.958,-123.192"/>
<text text-anchor="middle" x="1012.5" y="-275.3" font-family="Times New Roman,serif" font-size="14.00">1.0</text>
</g>
<!-- 462980&#45;&#45;462990 -->
<g id="edge28" class="edge"><title>462980&#45;&#45;462990</title>
<path fill="none" stroke="black" d="M824.552,-446.572C765.779,-435.24 653.497,-403.166 653.497,-323.5 653.497,-323.5 653.497,-323.5 653.497,-104 653.497,-65.5683 773.806,-37.0702 834.43,-25.1495"/>
<text text-anchor="middle" x="662.497" y="-231.8" font-family="Times New Roman,serif" font-size="14.00">1.0</text>
</g>
<!-- 462982&#45;&#45;462984 -->
<g id="edge29" class="edge"><title>462982&#45;&#45;462984</title>
<path fill="none" stroke="black" d="M892.546,-352.89C880.715,-346.802 866.849,-338.841 855.497,-330 842.714,-320.044 830.249,-306.555 821.371,-296.097"/>
<text text-anchor="middle" x="864.497" y="-318.8" font-family="Times New Roman,serif" font-size="14.00">1.0</text>
</g>
<!-- 462982&#45;&#45;462986 -->
<g id="edge30" class="edge"><title>462982&#45;&#45;462986</title>
<path fill="none" stroke="black" d="M911.201,-348.241C900.989,-326.217 880.705,-287.261 854.497,-261 829.915,-236.368 794.775,-216.635 770.874,-204.899"/>
<text text-anchor="middle" x="891.497" y="-275.3" font-family="Times New Roman,serif" font-size="14.00">1.0</text>
</g>
<!-- 462982&#45;&#45;462988 -->
<g id="edge31" class="edge"><title>462982&#45;&#45;462988</title>
<path fill="none" stroke="black" d="M930.775,-348.952C934.68,-343.221 938.705,-336.556 941.497,-330 972.675,-256.794 986.232,-161.65 990.697,-123.219"/>
<text text-anchor="middle" x="982.497" y="-231.8" font-family="Times New Roman,serif" font-size="14.00">1.0</text>
</g>
<!-- 462982&#45;&#45;462990 -->
<g id="edge32" class="edge"><title>462982&#45;&#45;462990</title>
<path fill="none" stroke="black" d="M921.394,-347.8C924.025,-330.67 927.497,-303.595 927.497,-280 927.497,-280 927.497,-280 927.497,-104 927.497,-75.2584 904.45,-49.2407 887.165,-33.7692"/>
<text text-anchor="middle" x="936.497" y="-188.3" font-family="Times New Roman,serif" font-size="14.00">1.0</text>
</g>
<!-- 462984&#45;&#45;462986 -->
<g id="edge33" class="edge"><title>462984&#45;&#45;462986</title>
<path fill="none" stroke="black" d="M793.809,-262.374C788.479,-256.461 782.535,-249.57 777.497,-243 769.27,-232.27 760.889,-219.544 754.632,-209.616"/>
<text text-anchor="middle" x="786.497" y="-231.8" font-family="Times New Roman,serif" font-size="14.00">1.0</text>
</g>
<!-- 462984&#45;&#45;462988 -->
<g id="edge34" class="edge"><title>462984&#45;&#45;462988</title>
<path fill="none" stroke="black" d="M818.482,-261.459C832.173,-239.677 858.408,-200.987 887.497,-174 912.175,-151.105 945.462,-131.006 967.886,-118.711"/>
<text text-anchor="middle" x="896.497" y="-188.3" font-family="Times New Roman,serif" font-size="14.00">1.0</text>
</g>
<!-- 462984&#45;&#45;462990 -->
<g id="edge35" class="edge"><title>462984&#45;&#45;462990</title>
<path fill="none" stroke="black" d="M805.565,-260.83C801.678,-234.584 796.413,-183.102 806.497,-141 816.237,-100.335 841.889,-57.9202 856.971,-35.3823"/>
<text text-anchor="middle" x="815.497" y="-144.8" font-family="Times New Roman,serif" font-size="14.00">1.0</text>
</g>
<!-- 462986&#45;&#45;462988 -->
<g id="edge36" class="edge"><title>462986&#45;&#45;462988</title>
<path fill="none" stroke="black" d="M773.477,-180.439C789.948,-174.065 810.759,-165.378 828.497,-156 839.286,-150.296 840.307,-145.871 851.497,-141 886.07,-125.949 928.349,-116.541 957.543,-111.318"/>
<text text-anchor="middle" x="860.497" y="-144.8" font-family="Times New Roman,serif" font-size="14.00">1.0</text>
</g>
<!-- 462986&#45;&#45;462990 -->
<g id="edge37" class="edge"><title>462986&#45;&#45;462990</title>
<path fill="none" stroke="black" d="M746.112,-173.627C749.727,-144.712 761.073,-86.6703 795.497,-54 807.527,-42.5832 823.977,-34.255 838.216,-28.5938"/>
<text text-anchor="middle" x="780.497" y="-101.3" font-family="Times New Roman,serif" font-size="14.00">1.0</text>
</g>
<!-- 462988&#45;&#45;462990 -->
<g id="edge38" class="edge"><title>462988&#45;&#45;462990</title>
<path fill="none" stroke="black" d="M978.911,-88.1833C969.235,-77.5828 955.51,-63.8206 941.497,-54 927.685,-44.3202 910.782,-36.0248 896.72,-29.9428"/>
<text text-anchor="middle" x="969.497" y="-57.8" font-family="Times New Roman,serif" font-size="14.00">1.0</text>
</g>
<!-- 464063 -->
<g id="node21" class="node"><title>464063</title>
<ellipse fill="none" stroke="black" cx="1439.5" cy="-540" rx="37.0935" ry="18"/>
<text text-anchor="middle" x="1439.5" y="-536.3" font-family="Times New Roman,serif" font-size="14.00">464063</text>
</g>
<!-- 464064 -->
<g id="node22" class="node"><title>464064</title>
<ellipse fill="none" stroke="black" cx="1371.5" cy="-453" rx="37.0935" ry="18"/>
<text text-anchor="middle" x="1371.5" y="-449.3" font-family="Times New Roman,serif" font-size="14.00">464064</text>
</g>
<!-- 464063&#45;&#45;464064 -->
<g id="edge39" class="edge"><title>464063&#45;&#45;464064</title>
<path fill="none" stroke="black" d="M1426.71,-523.012C1414.55,-507.815 1396.37,-485.089 1384.23,-469.916"/>
<text text-anchor="middle" x="1419.5" y="-492.8" font-family="Times New Roman,serif" font-size="14.00">1.0</text>
</g>
<!-- 464066 -->
<g id="node23" class="node"><title>464066</title>
<ellipse fill="none" stroke="black" cx="1420.5" cy="-366" rx="37.0935" ry="18"/>
<text text-anchor="middle" x="1420.5" y="-362.3" font-family="Times New Roman,serif" font-size="14.00">464066</text>
</g>
<!-- 464063&#45;&#45;464066 -->
<g id="edge40" class="edge"><title>464063&#45;&#45;464066</title>
<path fill="none" stroke="black" d="M1437.61,-521.879C1433.96,-488.91 1426.02,-416.966 1422.38,-384.052"/>
<text text-anchor="middle" x="1441.5" y="-449.3" font-family="Times New Roman,serif" font-size="14.00">1.0</text>
</g>
<!-- 464068 -->
<g id="node24" class="node"><title>464068</title>
<ellipse fill="none" stroke="black" cx="1304.5" cy="-279" rx="37.0935" ry="18"/>
<text text-anchor="middle" x="1304.5" y="-275.3" font-family="Times New Roman,serif" font-size="14.00">464068</text>
</g>
<!-- 464063&#45;&#45;464068 -->
<g id="edge41" class="edge"><title>464063&#45;&#45;464068</title>
<path fill="none" stroke="black" d="M1411.31,-528.099C1385.95,-517.051 1349.15,-497.769 1325.5,-471 1280.17,-419.697 1277.58,-396.994 1263.5,-330 1262.13,-323.476 1260.71,-321.054 1263.5,-315 1267.42,-306.501 1274.53,-299.302 1281.74,-293.683"/>
<text text-anchor="middle" x="1296.5" y="-405.8" font-family="Times New Roman,serif" font-size="14.00">1.0</text>
</g>
<!-- 464070 -->
<g id="node25" class="node"><title>464070</title>
<ellipse fill="none" stroke="black" cx="1240.5" cy="-192" rx="37.0935" ry="18"/>
<text text-anchor="middle" x="1240.5" y="-188.3" font-family="Times New Roman,serif" font-size="14.00">464070</text>
</g>
<!-- 464063&#45;&#45;464070 -->
<g id="edge42" class="edge"><title>464063&#45;&#45;464070</title>
<path fill="none" stroke="black" d="M1406.52,-531.482C1373.84,-522.411 1324.45,-504.081 1294.5,-471 1224.53,-393.727 1241.71,-347.216 1239.5,-243 1239.26,-232.063 1239.5,-219.779 1239.81,-210.125"/>
<text text-anchor="middle" x="1254.5" y="-362.3" font-family="Times New Roman,serif" font-size="14.00">1.0</text>
</g>
<!-- 464072 -->
<g id="node26" class="node"><title>464072</title>
<ellipse fill="none" stroke="black" cx="1488.5" cy="-105" rx="37.0935" ry="18"/>
<text text-anchor="middle" x="1488.5" y="-101.3" font-family="Times New Roman,serif" font-size="14.00">464072</text>
</g>
<!-- 464063&#45;&#45;464072 -->
<g id="edge43" class="edge"><title>464063&#45;&#45;464072</title>
<path fill="none" stroke="black" d="M1470.95,-530.374C1504.69,-518.98 1553.5,-495.352 1553.5,-454 1553.5,-454 1553.5,-454 1553.5,-191 1553.5,-161.276 1528.11,-135.504 1509.06,-120.355"/>
<text text-anchor="middle" x="1562.5" y="-318.8" font-family="Times New Roman,serif" font-size="14.00">1.0</text>
</g>
<!-- 464074 -->
<g id="node27" class="node"><title>464074</title>
<ellipse fill="none" stroke="black" cx="1364.5" cy="-18" rx="37.0935" ry="18"/>
<text text-anchor="middle" x="1364.5" y="-14.3" font-family="Times New Roman,serif" font-size="14.00">464074</text>
</g>
<!-- 464063&#45;&#45;464074 -->
<g id="edge44" class="edge"><title>464063&#45;&#45;464074</title>
<path fill="none" stroke="black" d="M1475.8,-535.618C1523.01,-528.995 1599.5,-509.674 1599.5,-454 1599.5,-454 1599.5,-454 1599.5,-104 1599.5,-61.9704 1464.89,-34.8718 1399.43,-24.1781"/>
<text text-anchor="middle" x="1608.5" y="-275.3" font-family="Times New Roman,serif" font-size="14.00">1.0</text>
</g>
<!-- 464064&#45;&#45;464066 -->
<g id="edge45" class="edge"><title>464064&#45;&#45;464066</title>
<path fill="none" stroke="black" d="M1381.18,-435.207C1389.82,-420.208 1402.41,-398.368 1411,-383.469"/>
<text text-anchor="middle" x="1408.5" y="-405.8" font-family="Times New Roman,serif" font-size="14.00">1.0</text>
</g>
<!-- 464064&#45;&#45;464068 -->
<g id="edge46" class="edge"><title>464064&#45;&#45;464068</title>
<path fill="none" stroke="black" d="M1364.95,-435.195C1352.14,-402.312 1323.9,-329.811 1311.07,-296.873"/>
<text text-anchor="middle" x="1354.5" y="-362.3" font-family="Times New Roman,serif" font-size="14.00">1.0</text>
</g>
<!-- 464064&#45;&#45;464070 -->
<g id="edge47" class="edge"><title>464064&#45;&#45;464070</title>
<path fill="none" stroke="black" d="M1356.19,-436.364C1331.36,-410.015 1282.66,-354.036 1258.5,-297 1246.28,-268.148 1242.35,-231.437 1241.09,-210.24"/>
<text text-anchor="middle" x="1284.5" y="-318.8" font-family="Times New Roman,serif" font-size="14.00">1.0</text>
</g>
<!-- 464064&#45;&#45;464072 -->
<g id="edge48" class="edge"><title>464064&#45;&#45;464072</title>
<path fill="none" stroke="black" d="M1398.3,-440.272C1420.39,-429.124 1450.58,-410.168 1466.5,-384 1518.57,-298.374 1500.82,-169.458 1492.11,-123.245"/>
<text text-anchor="middle" x="1510.5" y="-275.3" font-family="Times New Roman,serif" font-size="14.00">1.0</text>
</g>
<!-- 464064&#45;&#45;464074 -->
<g id="edge49" class="edge"><title>464064&#45;&#45;464074</title>
<path fill="none" stroke="black" d="M1335.83,-447.805C1273.07,-438.223 1149.5,-408.557 1149.5,-323.5 1149.5,-323.5 1149.5,-323.5 1149.5,-104 1149.5,-65.5683 1269.81,-37.0702 1330.43,-25.1495"/>
<text text-anchor="middle" x="1158.5" y="-231.8" font-family="Times New Roman,serif" font-size="14.00">1.0</text>
</g>
<!-- 464066&#45;&#45;464068 -->
<g id="edge50" class="edge"><title>464066&#45;&#45;464068</title>
<path fill="none" stroke="black" d="M1393.02,-353.737C1379.83,-347.681 1364.18,-339.502 1351.5,-330 1338.53,-320.287 1326.07,-306.782 1317.25,-296.256"/>
<text text-anchor="middle" x="1360.5" y="-318.8" font-family="Times New Roman,serif" font-size="14.00">1.0</text>
</g>
<!-- 464066&#45;&#45;464070 -->
<g id="edge51" class="edge"><title>464066&#45;&#45;464070</title>
<path fill="none" stroke="black" d="M1412.15,-348.284C1400.58,-326.309 1377.95,-287.405 1350.5,-261 1325.42,-236.874 1290.38,-217.035 1266.64,-205.136"/>
<text text-anchor="middle" x="1389.5" y="-275.3" font-family="Times New Roman,serif" font-size="14.00">1.0</text>
</g>
<!-- 464066&#45;&#45;464072 -->
<g id="edge52" class="edge"><title>464066&#45;&#45;464072</title>
<path fill="none" stroke="black" d="M1429.6,-348.244C1432.42,-342.569 1435.35,-336.118 1437.5,-330 1463.82,-255.122 1480.03,-161.301 1485.95,-123.233"/>
<text text-anchor="middle" x="1475.5" y="-231.8" font-family="Times New Roman,serif" font-size="14.00">1.0</text>
</g>
<!-- 464066&#45;&#45;464074 -->
<g id="edge53" class="edge"><title>464066&#45;&#45;464074</title>
<path fill="none" stroke="black" d="M1421.46,-347.75C1422.34,-330.581 1423.5,-303.478 1423.5,-280 1423.5,-280 1423.5,-280 1423.5,-104 1423.5,-75.2584 1400.45,-49.2407 1383.17,-33.7692"/>
<text text-anchor="middle" x="1432.5" y="-188.3" font-family="Times New Roman,serif" font-size="14.00">1.0</text>
</g>
<!-- 464068&#45;&#45;464070 -->
<g id="edge54" class="edge"><title>464068&#45;&#45;464070</title>
<path fill="none" stroke="black" d="M1289.81,-262.374C1284.48,-256.461 1278.53,-249.57 1273.5,-243 1265.27,-232.27 1256.89,-219.544 1250.63,-209.616"/>
<text text-anchor="middle" x="1282.5" y="-231.8" font-family="Times New Roman,serif" font-size="14.00">1.0</text>
</g>
<!-- 464068&#45;&#45;464072 -->
<g id="edge55" class="edge"><title>464068&#45;&#45;464072</title>
<path fill="none" stroke="black" d="M1314.48,-261.459C1328.17,-239.677 1354.41,-200.987 1383.5,-174 1408.18,-151.105 1441.46,-131.006 1463.89,-118.711"/>
<text text-anchor="middle" x="1392.5" y="-188.3" font-family="Times New Roman,serif" font-size="14.00">1.0</text>
</g>
<!-- 464068&#45;&#45;464074 -->
<g id="edge56" class="edge"><title>464068&#45;&#45;464074</title>
<path fill="none" stroke="black" d="M1301.56,-260.83C1297.68,-234.584 1292.41,-183.102 1302.5,-141 1312.24,-100.335 1337.89,-57.9202 1352.97,-35.3823"/>
<text text-anchor="middle" x="1311.5" y="-144.8" font-family="Times New Roman,serif" font-size="14.00">1.0</text>
</g>
<!-- 464070&#45;&#45;464072 -->
<g id="edge57" class="edge"><title>464070&#45;&#45;464072</title>
<path fill="none" stroke="black" d="M1269.48,-180.439C1285.95,-174.065 1306.76,-165.378 1324.5,-156 1335.29,-150.296 1336.31,-145.871 1347.5,-141 1382.07,-125.949 1424.35,-116.541 1453.54,-111.318"/>
<text text-anchor="middle" x="1356.5" y="-144.8" font-family="Times New Roman,serif" font-size="14.00">1.0</text>
</g>
<!-- 464070&#45;&#45;464074 -->
<g id="edge58" class="edge"><title>464070&#45;&#45;464074</title>
<path fill="none" stroke="black" d="M1242.11,-173.627C1245.73,-144.712 1257.07,-86.6703 1291.5,-54 1303.53,-42.5832 1319.98,-34.255 1334.22,-28.5938"/>
<text text-anchor="middle" x="1276.5" y="-101.3" font-family="Times New Roman,serif" font-size="14.00">1.0</text>
</g>
<!-- 464072&#45;&#45;464074 -->
<g id="edge59" class="edge"><title>464072&#45;&#45;464074</title>
<path fill="none" stroke="black" d="M1474.91,-88.1833C1465.24,-77.5828 1451.51,-63.8206 1437.5,-54 1423.69,-44.3202 1406.78,-36.0248 1392.72,-29.9428"/>
<text text-anchor="middle" x="1465.5" y="-57.8" font-family="Times New Roman,serif" font-size="14.00">1.0</text>
</g>
<!-- 480369 -->
<g id="node28" class="node"><title>480369</title>
<ellipse fill="none" stroke="black" cx="1737.5" cy="-540" rx="37.0935" ry="18"/>
<text text-anchor="middle" x="1737.5" y="-536.3" font-family="Times New Roman,serif" font-size="14.00">480369</text>
</g>
<!-- 480370 -->
<g id="node29" class="node"><title>480370</title>
<ellipse fill="none" stroke="black" cx="1664.5" cy="-453" rx="37.0935" ry="18"/>
<text text-anchor="middle" x="1664.5" y="-449.3" font-family="Times New Roman,serif" font-size="14.00">480370</text>
</g>
<!-- 480369&#45;&#45;480370 -->
<g id="edge60" class="edge"><title>480369&#45;&#45;480370</title>
<path fill="none" stroke="black" d="M1722.66,-523.133C1717.19,-517.194 1710.99,-510.348 1705.5,-504 1695.8,-492.799 1685.2,-479.855 1677.21,-469.944"/>
<text text-anchor="middle" x="1714.5" y="-492.8" font-family="Times New Roman,serif" font-size="14.00">1.0</text>
</g>
<!-- 480372 -->
<g id="node30" class="node"><title>480372</title>
<ellipse fill="none" stroke="black" cx="1718.5" cy="-366" rx="37.0935" ry="18"/>
<text text-anchor="middle" x="1718.5" y="-362.3" font-family="Times New Roman,serif" font-size="14.00">480372</text>
</g>
<!-- 480369&#45;&#45;480372 -->
<g id="edge61" class="edge"><title>480369&#45;&#45;480372</title>
<path fill="none" stroke="black" d="M1735.61,-521.879C1731.96,-488.91 1724.02,-416.966 1720.38,-384.052"/>
<text text-anchor="middle" x="1739.5" y="-449.3" font-family="Times New Roman,serif" font-size="14.00">1.0</text>
</g>
<!-- 480374 -->
<g id="node31" class="node"><title>480374</title>
<ellipse fill="none" stroke="black" cx="1718.5" cy="-279" rx="37.0935" ry="18"/>
<text text-anchor="middle" x="1718.5" y="-275.3" font-family="Times New Roman,serif" font-size="14.00">480374</text>
</g>
<!-- 480369&#45;&#45;480374 -->
<g id="edge62" class="edge"><title>480369&#45;&#45;480374</title>
<path fill="none" stroke="black" d="M1744.62,-522.27C1757.95,-488.577 1783.63,-410.438 1764.5,-348 1758.36,-327.968 1744.1,-308.52 1733.07,-295.59"/>
<text text-anchor="middle" x="1779.5" y="-405.8" font-family="Times New Roman,serif" font-size="14.00">1.0</text>
</g>
<!-- 480370&#45;&#45;480372 -->
<g id="edge63" class="edge"><title>480370&#45;&#45;480372</title>
<path fill="none" stroke="black" d="M1674.91,-435.611C1684.47,-420.56 1698.57,-398.374 1708.12,-383.339"/>
<text text-anchor="middle" x="1704.5" y="-405.8" font-family="Times New Roman,serif" font-size="14.00">1.0</text>
</g>
<!-- 480370&#45;&#45;480374 -->
<g id="edge64" class="edge"><title>480370&#45;&#45;480374</title>
<path fill="none" stroke="black" d="M1658.26,-435.124C1651.46,-413.979 1643,-377.001 1654.5,-348 1663.28,-325.847 1683.08,-306.714 1698.35,-294.437"/>
<text text-anchor="middle" x="1663.5" y="-362.3" font-family="Times New Roman,serif" font-size="14.00">1.0</text>
</g>
<!-- 480372&#45;&#45;480374 -->
<g id="edge65" class="edge"><title>480372&#45;&#45;480374</title>
<path fill="none" stroke="black" d="M1718.5,-347.799C1718.5,-333.052 1718.5,-311.915 1718.5,-297.175"/>
<text text-anchor="middle" x="1727.5" y="-318.8" font-family="Times New Roman,serif" font-size="14.00">1.0</text>
</g>
</g>
</svg>
