<svg width="518px" height="523px"
 viewBox="0.00 0.00 388.54 392.00" xmlns="http://www.w3.org/2000/svg" xmlns:xlink="http://www.w3.org/1999/xlink">
<g id="graph0" class="graph" transform="scale(1.000022500562514 1.000022500562514) rotate(0) translate(4 388)">
<title>G</title>
<polygon fill="white" stroke="none" points="-4,4 -4,-388 384.544,-388 384.544,4 -4,4"/>
<!-- 20715 -->
<g id="node1" class="node"><title>20715</title>
<ellipse fill="none" stroke="black" cx="66.4971" cy="-366" rx="32.4942" ry="18"/>
<text text-anchor="middle" x="66.4971" y="-362.3" font-family="Times New Roman,serif" font-size="14.00">20715</text>
</g>
<!-- 20716 -->
<g id="node2" class="node"><title>20716</title>
<ellipse fill="none" stroke="black" cx="32.4971" cy="-279" rx="32.4942" ry="18"/>
<text text-anchor="middle" x="32.4971" y="-275.3" font-family="Times New Roman,serif" font-size="14.00">20716</text>
</g>
<!-- 20715&#45;&#45;20716 -->
<g id="edge1" class="edge"><title>20715&#45;&#45;20716</title>
<path fill="none" stroke="black" d="M59.7798,-348.207C53.8191,-333.305 45.1569,-311.649 39.2005,-296.758"/>
<text text-anchor="middle" x="61.4971" y="-318.8" font-family="Times New Roman,serif" font-size="14.00">1.0</text>
</g>
<!-- 20718 -->
<g id="node3" class="node"><title>20718</title>
<ellipse fill="none" stroke="black" cx="70.4971" cy="-192" rx="32.4942" ry="18"/>
<text text-anchor="middle" x="70.4971" y="-188.3" font-family="Times New Roman,serif" font-size="14.00">20718</text>
</g>
<!-- 20715&#45;&#45;20718 -->
<g id="edge2" class="edge"><title>20715&#45;&#45;20718</title>
<path fill="none" stroke="black" d="M71.0996,-348.033C72.4481,-342.344 73.7579,-335.938 74.4971,-330 80.0983,-285.005 80.3415,-273.179 76.4971,-228 75.9953,-222.103 75.0261,-215.707 74.0106,-210.015"/>
<text text-anchor="middle" x="88.4971" y="-275.3" font-family="Times New Roman,serif" font-size="14.00">1.0</text>
</g>
<!-- 20716&#45;&#45;20718 -->
<g id="edge3" class="edge"><title>20716&#45;&#45;20718</title>
<path fill="none" stroke="black" d="M40.0047,-261.207C46.6666,-246.305 56.3479,-224.649 63.0051,-209.758"/>
<text text-anchor="middle" x="63.4971" y="-231.8" font-family="Times New Roman,serif" font-size="14.00">1.0</text>
</g>
<!-- 451803 -->
<g id="node4" class="node"><title>451803</title>
<ellipse fill="none" stroke="black" cx="229.497" cy="-366" rx="37.0935" ry="18"/>
<text text-anchor="middle" x="229.497" y="-362.3" font-family="Times New Roman,serif" font-size="14.00">451803</text>
</g>
<!-- 451804 -->
<g id="node5" class="node"><title>451804</title>
<ellipse fill="none" stroke="black" cx="276.497" cy="-279" rx="37.0935" ry="18"/>
<text text-anchor="middle" x="276.497" y="-275.3" font-family="Times New Roman,serif" font-size="14.00">451804</text>
</g>
<!-- 451803&#45;&#45;451804 -->
<g id="edge4" class="edge"><title>451803&#45;&#45;451804</title>
<path fill="none" stroke="black" d="M238.783,-348.207C247.076,-333.208 259.152,-311.368 267.391,-296.469"/>
<text text-anchor="middle" x="265.497" y="-318.8" font-family="Times New Roman,serif" font-size="14.00">1.0</text>
</g>
<!-- 451806 -->
<g id="node6" class="node"><title>451806</title>
<ellipse fill="none" stroke="black" cx="276.497" cy="-192" rx="37.0935" ry="18"/>
<text text-anchor="middle" x="276.497" y="-188.3" font-family="Times New Roman,serif" font-size="14.00">451806</text>
</g>
<!-- 451803&#45;&#45;451806 -->
<g id="edge5" class="edge"><title>451803&#45;&#45;451806</title>
<path fill="none" stroke="black" d="M221.46,-348.205C212.558,-327.144 200.897,-290.251 212.497,-261 221.283,-238.847 241.081,-219.714 256.348,-207.437"/>
<text text-anchor="middle" x="221.497" y="-275.3" font-family="Times New Roman,serif" font-size="14.00">1.0</text>
</g>
<!-- 451808 -->
<g id="node7" class="node"><title>451808</title>
<ellipse fill="none" stroke="black" cx="343.497" cy="-105" rx="37.0935" ry="18"/>
<text text-anchor="middle" x="343.497" y="-101.3" font-family="Times New Roman,serif" font-size="14.00">451808</text>
</g>
<!-- 451803&#45;&#45;451808 -->
<g id="edge6" class="edge"><title>451803&#45;&#45;451808</title>
<path fill="none" stroke="black" d="M254.56,-352.339C275.449,-340.607 304.587,-321.319 322.497,-297 355.929,-251.606 356.052,-230.318 353.497,-174 352.83,-159.288 352.611,-155.575 350.497,-141 349.643,-135.113 348.445,-128.719 347.282,-123.027"/>
<text text-anchor="middle" x="361.497" y="-231.8" font-family="Times New Roman,serif" font-size="14.00">1.0</text>
</g>
<!-- 451810 -->
<g id="node8" class="node"><title>451810</title>
<ellipse fill="none" stroke="black" cx="237.497" cy="-18" rx="37.0935" ry="18"/>
<text text-anchor="middle" x="237.497" y="-14.3" font-family="Times New Roman,serif" font-size="14.00">451810</text>
</g>
<!-- 451803&#45;&#45;451810 -->
<g id="edge7" class="edge"><title>451803&#45;&#45;451810</title>
<path fill="none" stroke="black" d="M207.111,-351.435C185.975,-336.729 157.497,-311.137 157.497,-280 157.497,-280 157.497,-280 157.497,-104 157.497,-71.1708 189.533,-45.8526 213.06,-31.6859"/>
<text text-anchor="middle" x="166.497" y="-188.3" font-family="Times New Roman,serif" font-size="14.00">1.0</text>
</g>
<!-- 451804&#45;&#45;451806 -->
<g id="edge8" class="edge"><title>451804&#45;&#45;451806</title>
<path fill="none" stroke="black" d="M276.497,-260.799C276.497,-246.052 276.497,-224.915 276.497,-210.175"/>
<text text-anchor="middle" x="285.497" y="-231.8" font-family="Times New Roman,serif" font-size="14.00">1.0</text>
</g>
<!-- 451804&#45;&#45;451808 -->
<g id="edge9" class="edge"><title>451804&#45;&#45;451808</title>
<path fill="none" stroke="black" d="M289.814,-261.94C300.128,-248.745 314.04,-229.169 322.497,-210 332.461,-187.415 330.655,-180.206 335.497,-156 337.67,-145.139 339.642,-132.856 341.084,-123.183"/>
<text text-anchor="middle" x="340.497" y="-188.3" font-family="Times New Roman,serif" font-size="14.00">1.0</text>
</g>
<!-- 451804&#45;&#45;451810 -->
<g id="edge10" class="edge"><title>451804&#45;&#45;451810</title>
<path fill="none" stroke="black" d="M261.92,-262.41C250.893,-249.48 236.636,-230.032 230.497,-210 211.586,-148.294 225.452,-70.0985 233.205,-36.0894"/>
<text text-anchor="middle" x="230.497" y="-144.8" font-family="Times New Roman,serif" font-size="14.00">1.0</text>
</g>
<!-- 451806&#45;&#45;451808 -->
<g id="edge11" class="edge"><title>451806&#45;&#45;451808</title>
<path fill="none" stroke="black" d="M289.099,-175.012C301.002,-159.912 318.765,-137.376 330.724,-122.205"/>
<text text-anchor="middle" x="323.497" y="-144.8" font-family="Times New Roman,serif" font-size="14.00">1.0</text>
</g>
<!-- 451806&#45;&#45;451810 -->
<g id="edge12" class="edge"><title>451806&#45;&#45;451810</title>
<path fill="none" stroke="black" d="M272.615,-173.879C265.14,-140.91 248.827,-68.9659 241.363,-36.0516"/>
<text text-anchor="middle" x="270.497" y="-101.3" font-family="Times New Roman,serif" font-size="14.00">1.0</text>
</g>
<!-- 451808&#45;&#45;451810 -->
<g id="edge13" class="edge"><title>451808&#45;&#45;451810</title>
<path fill="none" stroke="black" d="M325.033,-89.1941C305.696,-73.6881 275.496,-49.4706 256.105,-33.9214"/>
<text text-anchor="middle" x="306.497" y="-57.8" font-family="Times New Roman,serif" font-size="14.00">1.0</text>
</g>
</g>
</svg>
