<svg width="151px" height="291px"
 viewBox="0.00 0.00 113.19 218.00" xmlns="http://www.w3.org/2000/svg" xmlns:xlink="http://www.w3.org/1999/xlink">
<g id="graph0" class="graph" transform="scale(1.000022500562514 1.000022500562514) rotate(0) translate(4 214)">
<title>G</title>
<polygon fill="white" stroke="none" points="-4,4 -4,-214 109.195,-214 109.195,4 -4,4"/>
<!-- 8473 -->
<g id="node1" class="node"><title>8473</title>
<ellipse fill="none" stroke="black" cx="76.5975" cy="-192" rx="28.6953" ry="18"/>
<text text-anchor="middle" x="76.5975" y="-188.3" font-family="Times New Roman,serif" font-size="14.00">8473</text>
</g>
<!-- 8474 -->
<g id="node2" class="node"><title>8474</title>
<ellipse fill="none" stroke="black" cx="28.5975" cy="-105" rx="28.6953" ry="18"/>
<text text-anchor="middle" x="28.5975" y="-101.3" font-family="Times New Roman,serif" font-size="14.00">8474</text>
</g>
<!-- 8473&#45;&#45;8474 -->
<g id="edge1" class="edge"><title>8473&#45;&#45;8474</title>
<path fill="none" stroke="black" d="M67.3426,-174.611C58.8429,-159.56 46.3147,-137.374 37.8239,-122.339"/>
<text text-anchor="middle" x="64.5975" y="-144.8" font-family="Times New Roman,serif" font-size="14.00">1.0</text>
</g>
<!-- 8476 -->
<g id="node3" class="node"><title>8476</title>
<ellipse fill="none" stroke="black" cx="68.5975" cy="-18" rx="28.6953" ry="18"/>
<text text-anchor="middle" x="68.5975" y="-14.3" font-family="Times New Roman,serif" font-size="14.00">8476</text>
</g>
<!-- 8473&#45;&#45;8476 -->
<g id="edge2" class="edge"><title>8473&#45;&#45;8476</title>
<path fill="none" stroke="black" d="M77.1834,-173.912C77.3527,-168.216 77.5141,-161.835 77.5975,-156 78.2454,-110.636 77.8522,-99.1682 73.5975,-54 73.0448,-48.1334 72.2036,-41.7449 71.3678,-36.0509"/>
<text text-anchor="middle" x="87.5975" y="-101.3" font-family="Times New Roman,serif" font-size="14.00">1.0</text>
</g>
<!-- 8474&#45;&#45;8476 -->
<g id="edge3" class="edge"><title>8474&#45;&#45;8476</title>
<path fill="none" stroke="black" d="M36.3099,-87.6111C43.393,-72.5596 53.8331,-50.3742 60.9087,-35.3385"/>
<text text-anchor="middle" x="60.5975" y="-57.8" font-family="Times New Roman,serif" font-size="14.00">1.0</text>
</g>
</g>
</svg>
