<svg width="359px" height="407px"
 viewBox="0.00 0.00 269.05 305.00" xmlns="http://www.w3.org/2000/svg" xmlns:xlink="http://www.w3.org/1999/xlink">
<g id="graph0" class="graph" transform="scale(1.000022500562514 1.000022500562514) rotate(0) translate(4 301)">
<title>G</title>
<polygon fill="white" stroke="none" points="-4,4 -4,-301 265.047,-301 265.047,4 -4,4"/>
<!-- 384375 -->
<g id="node1" class="node"><title>384375</title>
<ellipse fill="none" stroke="black" cx="37.0467" cy="-279" rx="37.0935" ry="18"/>
<text text-anchor="middle" x="37.0467" y="-275.3" font-family="Times New Roman,serif" font-size="14.00">384375</text>
</g>
<!-- 384376 -->
<g id="node2" class="node"><title>384376</title>
<ellipse fill="none" stroke="black" cx="37.0467" cy="-192" rx="37.0935" ry="18"/>
<text text-anchor="middle" x="37.0467" y="-188.3" font-family="Times New Roman,serif" font-size="14.00">384376</text>
</g>
<!-- 384375&#45;&#45;384376 -->
<g id="edge1" class="edge"><title>384375&#45;&#45;384376</title>
<path fill="none" stroke="black" d="M37.0467,-260.799C37.0467,-246.052 37.0467,-224.915 37.0467,-210.175"/>
<text text-anchor="middle" x="46.0467" y="-231.8" font-family="Times New Roman,serif" font-size="14.00">1.0</text>
</g>
<!-- 498163 -->
<g id="node3" class="node"><title>498163</title>
<ellipse fill="none" stroke="black" cx="202.047" cy="-279" rx="37.0935" ry="18"/>
<text text-anchor="middle" x="202.047" y="-275.3" font-family="Times New Roman,serif" font-size="14.00">498163</text>
</g>
<!-- 498164 -->
<g id="node4" class="node"><title>498164</title>
<ellipse fill="none" stroke="black" cx="129.047" cy="-192" rx="37.0935" ry="18"/>
<text text-anchor="middle" x="129.047" y="-188.3" font-family="Times New Roman,serif" font-size="14.00">498164</text>
</g>
<!-- 498163&#45;&#45;498164 -->
<g id="edge2" class="edge"><title>498163&#45;&#45;498164</title>
<path fill="none" stroke="black" d="M187.207,-262.133C181.741,-256.194 175.545,-249.348 170.047,-243 160.346,-231.799 149.748,-218.855 141.758,-208.944"/>
<text text-anchor="middle" x="179.047" y="-231.8" font-family="Times New Roman,serif" font-size="14.00">1.0</text>
</g>
<!-- 498166 -->
<g id="node5" class="node"><title>498166</title>
<ellipse fill="none" stroke="black" cx="192.047" cy="-105" rx="37.0935" ry="18"/>
<text text-anchor="middle" x="192.047" y="-101.3" font-family="Times New Roman,serif" font-size="14.00">498166</text>
</g>
<!-- 498163&#45;&#45;498166 -->
<g id="edge3" class="edge"><title>498163&#45;&#45;498166</title>
<path fill="none" stroke="black" d="M201.051,-260.879C199.135,-227.91 194.952,-155.966 193.038,-123.052"/>
<text text-anchor="middle" x="206.047" y="-188.3" font-family="Times New Roman,serif" font-size="14.00">1.0</text>
</g>
<!-- 498168 -->
<g id="node6" class="node"><title>498168</title>
<ellipse fill="none" stroke="black" cx="192.047" cy="-18" rx="37.0935" ry="18"/>
<text text-anchor="middle" x="192.047" y="-14.3" font-family="Times New Roman,serif" font-size="14.00">498168</text>
</g>
<!-- 498163&#45;&#45;498168 -->
<g id="edge4" class="edge"><title>498163&#45;&#45;498168</title>
<path fill="none" stroke="black" d="M210.489,-261.35C226.347,-227.803 257.327,-149.912 238.047,-87 231.907,-66.9677 217.651,-47.5198 206.624,-34.5903"/>
<text text-anchor="middle" x="252.047" y="-144.8" font-family="Times New Roman,serif" font-size="14.00">1.0</text>
</g>
<!-- 498164&#45;&#45;498166 -->
<g id="edge5" class="edge"><title>498164&#45;&#45;498166</title>
<path fill="none" stroke="black" d="M141.194,-174.611C152.421,-159.463 169.004,-137.089 180.151,-122.05"/>
<text text-anchor="middle" x="174.047" y="-144.8" font-family="Times New Roman,serif" font-size="14.00">1.0</text>
</g>
<!-- 498164&#45;&#45;498168 -->
<g id="edge6" class="edge"><title>498164&#45;&#45;498168</title>
<path fill="none" stroke="black" d="M125.096,-174.081C120.985,-152.893 116.598,-115.87 128.047,-87 136.832,-64.8469 156.631,-45.7138 171.898,-33.4369"/>
<text text-anchor="middle" x="137.047" y="-101.3" font-family="Times New Roman,serif" font-size="14.00">1.0</text>
</g>
<!-- 498166&#45;&#45;498168 -->
<g id="edge7" class="edge"><title>498166&#45;&#45;498168</title>
<path fill="none" stroke="black" d="M192.047,-86.799C192.047,-72.0519 192.047,-50.9152 192.047,-36.1754"/>
<text text-anchor="middle" x="201.047" y="-57.8" font-family="Times New Roman,serif" font-size="14.00">1.0</text>
</g>
</g>
</svg>
