<svg width="165px" height="291px"
 viewBox="0.00 0.00 123.99 218.00" xmlns="http://www.w3.org/2000/svg" xmlns:xlink="http://www.w3.org/1999/xlink">
<g id="graph0" class="graph" transform="scale(1.000022500562514 1.000022500562514) rotate(0) translate(4 214)">
<title>G</title>
<polygon fill="white" stroke="none" points="-4,4 -4,-214 119.994,-214 119.994,4 -4,4"/>
<!-- 43955 -->
<g id="node1" class="node"><title>43955</title>
<ellipse fill="none" stroke="black" cx="83.4971" cy="-192" rx="32.4942" ry="18"/>
<text text-anchor="middle" x="83.4971" y="-188.3" font-family="Times New Roman,serif" font-size="14.00">43955</text>
</g>
<!-- 43956 -->
<g id="node2" class="node"><title>43956</title>
<ellipse fill="none" stroke="black" cx="32.4971" cy="-105" rx="32.4942" ry="18"/>
<text text-anchor="middle" x="32.4971" y="-101.3" font-family="Times New Roman,serif" font-size="14.00">43956</text>
</g>
<!-- 43955&#45;&#45;43956 -->
<g id="edge1" class="edge"><title>43955&#45;&#45;43956</title>
<path fill="none" stroke="black" d="M73.6638,-174.611C64.6329,-159.56 51.3216,-137.374 42.3002,-122.339"/>
<text text-anchor="middle" x="70.4971" y="-144.8" font-family="Times New Roman,serif" font-size="14.00">1.0</text>
</g>
<!-- 43958 -->
<g id="node3" class="node"><title>43958</title>
<ellipse fill="none" stroke="black" cx="75.4971" cy="-18" rx="32.4942" ry="18"/>
<text text-anchor="middle" x="75.4971" y="-14.3" font-family="Times New Roman,serif" font-size="14.00">43958</text>
</g>
<!-- 43955&#45;&#45;43958 -->
<g id="edge2" class="edge"><title>43955&#45;&#45;43958</title>
<path fill="none" stroke="black" d="M83.6915,-173.873C83.7523,-164.218 83.7484,-151.935 83.4971,-141 82.608,-102.303 82.5853,-92.5841 79.4971,-54 79.0287,-48.1474 78.3491,-41.7624 77.6825,-36.0673"/>
<text text-anchor="middle" x="91.4971" y="-101.3" font-family="Times New Roman,serif" font-size="14.00">1.0</text>
</g>
<!-- 43956&#45;&#45;43958 -->
<g id="edge3" class="edge"><title>43956&#45;&#45;43958</title>
<path fill="none" stroke="black" d="M40.9925,-87.2067C48.58,-72.2083 59.6286,-50.368 67.1657,-35.4692"/>
<text text-anchor="middle" x="66.4971" y="-57.8" font-family="Times New Roman,serif" font-size="14.00">1.0</text>
</g>
</g>
</svg>
